<svg xmlns="http://www.w3.org/2000/svg" width="566.607" height="417.255" viewBox="0 0 566.607 417.255">
  <g id="undraw_Add_to_cart_re_wrdo" transform="translate(0 0)">
    <path id="Path_599" data-name="Path 599" d="M761.942,179.051H201.612a3.142,3.142,0,0,1-3.139-3.139V157.451a3.142,3.142,0,0,1,3.139-3.139h560.33a3.142,3.142,0,0,1,3.139,3.139v18.462A3.142,3.142,0,0,1,761.942,179.051Z" transform="translate(-198.474 -154.312)" fill="#e4e4e4"/>
    <circle id="a7a88a4d-66b2-4c09-a29b-e65e87e57a01" cx="4.456" cy="4.456" r="4.456" transform="translate(13.758 7.013)" fill="#fff"/>
    <circle id="ecd091ab-fa27-42b2-b94f-bd1073aab054" cx="4.456" cy="4.456" r="4.456" transform="translate(30.672 7.013)" fill="#fff"/>
    <circle id="a332723e-32dc-4e13-8ae5-d2643a7feb7f" cx="4.456" cy="4.456" r="4.456" transform="translate(47.586 7.013)" fill="#fff"/>
    <path id="Path_600" data-name="Path 600" d="M964.861,165.017H945.385a1.443,1.443,0,1,1,0-2.885h19.477a1.443,1.443,0,1,1,.005,2.885Z" transform="translate(-417.965 -156.615)" fill="#fff"/>
    <path id="Path_601" data-name="Path 601" d="M964.861,172.685H945.385a1.443,1.443,0,1,1,0-2.885h19.477a1.443,1.443,0,1,1,.005,2.885Z" transform="translate(-417.965 -158.872)" fill="#fff"/>
    <path id="Path_602" data-name="Path 602" d="M964.861,180.352H945.385a1.443,1.443,0,1,1,0-2.885h19.477a1.443,1.443,0,1,1,.005,2.885Z" transform="translate(-417.965 -161.13)" fill="#fff"/>
    <path id="Path_603" data-name="Path 603" d="M424.718,658.289c2.062-16.579,12.337-32.915,28.149-38.31a76.976,76.976,0,0,0,0,52.85c2.43,6.572,5.816,13.629,3.531,20.253-1.422,4.121-4.9,7.275-8.789,9.246s-8.2,2.911-12.466,3.832l-.839.694C427.542,691.578,422.656,674.869,424.718,658.289Z" transform="translate(-264.947 -291.42)" fill="#f0f0f0"/>
    <path id="Path_604" data-name="Path 604" d="M457.067,620.146a65.794,65.794,0,0,0-16.356,37.029,28.331,28.331,0,0,0,.322,8.871,16.25,16.25,0,0,0,4.042,7.537c1.822,2,3.917,3.838,5.22,6.247a9.95,9.95,0,0,1,.486,8.123c-1.151,3.3-3.419,5.991-5.728,8.545-2.564,2.836-5.273,5.74-6.363,9.5-.132.456-.831.224-.7-.231,1.9-6.54,8.245-10.255,11.273-16.146,1.413-2.749,2.006-5.94.681-8.841-1.158-2.537-3.317-4.433-5.179-6.443a17.34,17.34,0,0,1-4.227-7.223,26.193,26.193,0,0,1-.662-8.826,63.83,63.83,0,0,1,4.662-19.4,66.961,66.961,0,0,1,12.041-19.295c.315-.353.8.2.487.552Z" transform="translate(-268.991 -291.274)" fill="#fff"/>
    <path id="Path_605" data-name="Path 605" d="M438.986,662.133a9.871,9.871,0,0,1-7.514-10.341.369.369,0,0,1,.736.037,9.14,9.14,0,0,0,7.009,9.6C439.678,661.543,439.444,662.242,438.986,662.133Z" transform="translate(-267.068 -300.688)" fill="#fff"/>
    <path id="Path_606" data-name="Path 606" d="M446.462,690.219a19.026,19.026,0,0,0,8.5-10.958c.134-.455.833-.224.7.231a19.79,19.79,0,0,1-8.864,11.384C446.385,691.119,446.056,690.46,446.462,690.219Z" transform="translate(-271.435 -308.803)" fill="#fff"/>
    <path id="Path_607" data-name="Path 607" d="M452.133,637.819a5.587,5.587,0,0,0,5.3-.269c.405-.247.734.412.331.658a6.261,6.261,0,0,1-5.857.31.381.381,0,0,1-.234-.465.37.37,0,0,1,.465-.234Z" transform="translate(-273.018 -296.578)" fill="#fff"/>
    <path id="Path_608" data-name="Path 608" d="M505.113,661.213c-.249.162-.5.323-.746.491a73.581,73.581,0,0,0-9.409,7.346c-.23.205-.46.416-.684.628a77.575,77.575,0,0,0-16.848,23.063,75.345,75.345,0,0,0-4.127,10.677c-1.523,5.052-2.772,10.652-5.786,14.785a12.925,12.925,0,0,1-1.007,1.243H439.268c-.062-.031-.124-.056-.186-.087l-1.088.05c.044-.193.093-.392.137-.584.025-.112.056-.224.081-.336.019-.075.037-.149.05-.218.006-.025.012-.05.018-.068.012-.068.031-.13.044-.193q.41-1.669.845-3.337c0-.006,0-.006.006-.012a110.767,110.767,0,0,1,9.322-24.473c.124-.23.248-.466.385-.7a71.884,71.884,0,0,1,6.457-9.794,63.553,63.553,0,0,1,4.232-4.841,52.848,52.848,0,0,1,13.225-9.906c9.77-5.158,21.08-7.134,31.521-3.984C504.585,661.046,504.846,661.127,505.113,661.213Z" transform="translate(-268.997 -303.042)" fill="#f0f0f0"/>
    <path id="Path_609" data-name="Path 609" d="M505.1,662.13a65.794,65.794,0,0,0-35.354,19.718,28.332,28.332,0,0,0-5.084,7.277,16.25,16.25,0,0,0-1.311,8.451c.25,2.695.817,5.422.407,8.131a9.95,9.95,0,0,1-4.5,6.778c-2.906,1.943-6.337,2.725-9.718,3.374-3.755.72-7.666,1.409-10.8,3.754-.38.284-.8-.322-.419-.605,5.452-4.08,12.758-3.224,18.722-6.1,2.783-1.344,5.178-3.535,5.867-6.649.6-2.723.02-5.536-.256-8.263a17.341,17.341,0,0,1,.974-8.311,26.2,26.2,0,0,1,4.785-7.446,63.834,63.834,0,0,1,15.4-12.681,66.96,66.96,0,0,1,21.231-8.157c.464-.092.517.643.057.734Z" transform="translate(-269.05 -303.613)" fill="#fff"/>
    <path id="Path_610" data-name="Path 610" d="M486.022,680.126a9.871,9.871,0,0,1,.226-12.78c.314-.354.88.117.565.472a9.141,9.141,0,0,0-.186,11.889C486.929,680.072,486.322,680.489,486.022,680.126Z" transform="translate(-282.479 -305.33)" fill="#fff"/>
    <path id="Path_611" data-name="Path 611" d="M473.252,709.218a19.026,19.026,0,0,0,13.381-3.634c.381-.283.8.323.419.605a19.79,19.79,0,0,1-13.932,3.753C472.649,709.89,472.783,709.166,473.252,709.218Z" transform="translate(-279.253 -316.604)" fill="#fff"/>
    <path id="Path_612" data-name="Path 612" d="M512.061,668.725a5.588,5.588,0,0,0,4.39,2.973c.472.046.338.771-.132.724a6.261,6.261,0,0,1-4.863-3.279.381.381,0,0,1,.093-.512.37.37,0,0,1,.512.093Z" transform="translate(-290.608 -305.727)" fill="#fff"/>
    <path id="Path_613" data-name="Path 613" d="M416.777,307.508H326.658a10.516,10.516,0,0,1-10.5-10.5V247.921a10.515,10.515,0,0,1,10.5-10.5h90.119a10.515,10.515,0,0,1,10.5,10.5V297a10.516,10.516,0,0,1-10.5,10.5Z" transform="translate(-233.123 -178.781)" fill="#e6e6e6"/>
    <path id="Path_614" data-name="Path 614" d="M611.777,307.508H521.658a10.516,10.516,0,0,1-10.5-10.5V247.921a10.515,10.515,0,0,1,10.5-10.5h90.119a10.515,10.515,0,0,1,10.5,10.5V297a10.516,10.516,0,0,1-10.5,10.5Z" transform="translate(-290.537 -178.781)" fill="#6c63ff"/>
    <path id="Path_615" data-name="Path 615" d="M806.777,307.508H716.658a10.516,10.516,0,0,1-10.5-10.5V247.921a10.515,10.515,0,0,1,10.5-10.5h90.119a10.515,10.515,0,0,1,10.5,10.5V297a10.516,10.516,0,0,1-10.5,10.5Z" transform="translate(-347.952 -178.781)" fill="#e6e6e6"/>
    <path id="Path_616" data-name="Path 616" d="M416.777,462.508H326.658a10.516,10.516,0,0,1-10.5-10.5V402.921a10.515,10.515,0,0,1,10.5-10.5h90.119a10.515,10.515,0,0,1,10.5,10.5V452A10.516,10.516,0,0,1,416.777,462.508Z" transform="translate(-233.123 -224.419)" fill="#f2f2f2"/>
    <path id="Path_617" data-name="Path 617" d="M611.777,462.508H521.658a10.516,10.516,0,0,1-10.5-10.5V402.921a10.515,10.515,0,0,1,10.5-10.5h90.119a10.515,10.515,0,0,1,10.5,10.5V452A10.516,10.516,0,0,1,611.777,462.508Z" transform="translate(-290.537 -224.419)" fill="#e6e6e6"/>
    <g id="aa405d94-515b-444f-88dd-2c52df39214d" transform="translate(311.507 214.93)">
      <circle id="ede3a9f0-5e02-4455-ac7e-751a5f8c3692" cx="16.096" cy="16.096" r="16.096" fill="#6c63ff"/>
      <path id="ba039ca8-d148-45ed-9781-bacb7304e881" d="M666.079,477.009h-5.472v-5.472a1.288,1.288,0,0,0-1.288-1.288h0a1.288,1.288,0,0,0-1.288,1.288v5.472h-5.472a1.288,1.288,0,0,0-1.288,1.288h0a1.288,1.288,0,0,0,1.288,1.288h5.472v5.472a1.288,1.288,0,0,0,1.288,1.288h0a1.288,1.288,0,0,0,1.288-1.288v-5.473h5.472a1.288,1.288,0,0,0,1.288-1.288h0a1.288,1.288,0,0,0-1.288-1.288h0Z" transform="translate(-643.3 -462.265)" fill="#fff"/>
    </g>
    <g id="bbf41f8a-587e-4352-8304-6d86282586e3" transform="translate(451.209 108.39)">
      <circle id="e4c91425-bc08-43ed-9b2d-9a6452dd6ab0" cx="16.096" cy="16.096" r="16.096" fill="#6c63ff"/>
      <path id="b08e8960-896e-4763-a2dc-6c3da3e5d175" d="M864.079,326.009h-5.472v-5.472a1.288,1.288,0,0,0-1.288-1.288h0a1.288,1.288,0,0,0-1.288,1.288v5.472h-5.472a1.288,1.288,0,0,0-1.288,1.288h0a1.288,1.288,0,0,0,1.288,1.288h5.472v5.472a1.288,1.288,0,0,0,1.288,1.288h0a1.288,1.288,0,0,0,1.288-1.288v-5.473h5.472a1.288,1.288,0,0,0,1.288-1.288h0a1.288,1.288,0,0,0-1.288-1.288h0Z" transform="translate(-841.3 -311.265)" fill="#fff"/>
    </g>
    <g id="b77ad267-181d-433f-b31f-af61e58bf4a6" transform="translate(173.922 106.978)">
      <circle id="e8aef769-5476-47e9-8295-ae809767f9aa" cx="16.096" cy="16.096" r="16.096" fill="#6c63ff"/>
      <path id="efbebd4e-dbd2-4103-8d2c-f0ca8346a3bf" d="M471.079,324.009h-5.472v-5.472a1.288,1.288,0,0,0-1.288-1.288h0a1.288,1.288,0,0,0-1.288,1.288h0v5.472h-5.472a1.288,1.288,0,0,0-1.288,1.288h0a1.288,1.288,0,0,0,1.288,1.288h5.472v5.472a1.288,1.288,0,0,0,1.288,1.288h0a1.288,1.288,0,0,0,1.288-1.288v-5.473h5.472a1.288,1.288,0,0,0,1.288-1.288h0a1.288,1.288,0,0,0-1.288-1.288h0Z" transform="translate(-448.3 -309.265)" fill="#fff"/>
    </g>
    <path id="Path_618" data-name="Path 618" d="M628.22,295.373a6.4,6.4,0,0,1-5.165,8.343l-7.443,50.8L603.4,348.555l12.279-50.709a6.434,6.434,0,0,1,12.537-2.472Z" transform="translate(-317.699 -194.534)" fill="#9e616a"/>
    <path id="Path_619" data-name="Path 619" d="M507.708,501.319a6.4,6.4,0,0,0-2.464-9.5l5.021-54.037-10.516,5.39-3.284,52.071a6.434,6.434,0,0,0,11.243,6.073Z" transform="translate(-286.079 -237.776)" fill="#9e616a"/>
    <path id="Path_620" data-name="Path 620" d="M322.487,314.5l45.129-1.736,2.6-46.864H318.148Z" transform="translate(-93.674 -78.291)" fill="#9e616a"/>
    <path id="Path_621" data-name="Path 621" d="M312.426,556.942h7.712l3.668-29.745H312.425Z" transform="translate(-91.989 -155.225)" fill="#9e616a"/>
    <path id="Path_622" data-name="Path 622" d="M507.549,717.972l12.191-.728v5.223l11.59,8a3.262,3.262,0,0,1-1.854,5.947H514.962l-2.5-5.166-.977,5.166h-5.472Z" transform="translate(-289.023 -320.059)" fill="#2f2e41"/>
    <path id="Path_623" data-name="Path 623" d="M361.04,556.942h7.712l3.668-29.745H361.039Z" transform="translate(-106.302 -155.225)" fill="#9e616a"/>
    <path id="Path_624" data-name="Path 624" d="M518.042,472.331s-13.5,10.9-6.183,49.833c-1.115.133.148,2.33.148,2.33l1.056,31.722.816,3.636-2.714,5.867,1.119,6.374-3.449,57.851,12.741,1.648,12.193-60.074,2.322-6.754,2.329-5.92-1.256-6.313,1.03-9.8,7.029-33.041,1.721,57.3-2.4,5.471,1.336,6.005-2.977,3.188-1.177,53.616,13.585.635,11.24-54.049-.872-6.9,1.5-5.1V557.951l2.561-5.622,5.584-30.655s1.684-23.96-10.606-52.155Z" transform="translate(-289.855 -247.12)" fill="#2f2e41"/>
    <path id="Path_625" data-name="Path 625" d="M519.326,365.013s-17.055,3.373-19.993,17.918-4.829,47.458-4.829,47.458l.644,4.584,16.5,3.825,10.53-46.118Z" transform="translate(-285.635 -216.35)" fill="#3f3d56"/>
    <path id="Path_626" data-name="Path 626" d="M584.847,360.971s1.729-2.423,11.41-2.8c.4-.015-.095-.806-.095-.806l4.656-22.756,15.516,8.59-2.619,23.857-25.5,29Z" transform="translate(-312.235 -207.399)" fill="#3f3d56"/>
    <path id="Path_627" data-name="Path 627" d="M552.089,434.391c-7.3,0-18.3-.806-34.852-3.263a5.055,5.055,0,0,1-4.243-4.233,3.827,3.827,0,0,1-.643-4.346l.015-.03-.375-.442a4.093,4.093,0,0,1-.273-4.947l-5.126-36.672a15.449,15.449,0,0,1,10.744-16.949l1.892-.589,7.156-9.36.141,0,22.974.306,7.455,9.467,12.052,2.842.031.183,2.8,16.167c1.455,8.409-1.882,11.717-6.143,19.111l1.25,20.768.567,1.031a2.793,2.793,0,0,1-.669,3.505,5.441,5.441,0,0,1,.074,3.367l-.295.974c0,.028-.078.424-.714.907C564.76,433.062,561.466,434.391,552.089,434.391Z" transform="translate(-289.148 -212.978)" fill="#3f3d56"/>
    <path id="Path_628" data-name="Path 628" d="M556.163,717.972l12.191-.728v5.223l11.59,8a3.262,3.262,0,0,1-1.854,5.947H563.576l-2.5-5.166-.977,5.166h-5.472Z" transform="translate(-303.337 -320.059)" fill="#2f2e41"/>
    <circle id="Ellipse_177" data-name="Ellipse 177" cx="18.011" cy="18.011" r="18.011" transform="translate(227.188 132.192) rotate(-80.783)" fill="#9e616a"/>
    <path id="Path_629" data-name="Path 629" d="M536.078,287.628c-6.6-4.54-12.414-5.232-17.19-3.944a6.277,6.277,0,0,0-2.511-2.23c-3.724-9.384-15.058-15.02-24.784-12.28-9.789,2.757-16.544,13.6-14.7,23.6,1.142,6.2,5.043,11.568,6.613,17.674,3.038,11.819-4.373,25.358-15.966,29.168,10.977,2.2,23.06-4.5,27-14.982,1.913-5.091,2.028-10.649,2.271-16.081a53.318,53.318,0,0,1,1.371-11.136,23.79,23.79,0,0,1,1.772-4.742,16.226,16.226,0,0,1,7.766-7.534,6.194,6.194,0,0,0,.9,5.576c-2.574,3.225-3.976,6.712-3.976,8.8-5.348,9.774,2.3,18.169,12.074,23.517a20.024,20.024,0,0,0,12.794,2.23l.409-1.746.554,1.572,1.849,5.271q3.2,1.548,6.345,3.394c-.8-3.741-1.441-7.474-1.884-11.125-.614-4.969,1.526-12.365,3.07-16.864a26.553,26.553,0,0,0,1.454-8.617v-.128l1.5,4.828,5.472-2.334C547.265,293.682,548.284,287.053,536.078,287.628Z" transform="translate(-277.695 -187.927)" fill="#2f2e41"/>
    <path id="Path_630" data-name="Path 630" d="M716.266,744.987H316a.84.84,0,1,1,0-1.68H716.266a.84.84,0,0,1,0,1.68Z" transform="translate(-232.831 -327.732)" fill="#ccc"/>
    <circle id="e4c91425-bc08-43ed-9b2d-9a6452dd6ab0-2" data-name="e4c91425-bc08-43ed-9b2d-9a6452dd6ab0" cx="16.096" cy="16.096" r="16.096" transform="translate(172.082 217.045)" fill="#e6e6e6"/>
    <path id="Path_631" data-name="Path 631" d="M782.109,453.31H725.654a6.588,6.588,0,0,1-6.58-6.58V415.982a6.587,6.587,0,0,1,6.58-6.58h56.454a6.587,6.587,0,0,1,6.58,6.58V446.73A6.588,6.588,0,0,1,782.109,453.31Z" transform="translate(-351.756 -229.42)" fill="#f2f2f2"/>
    <g id="bc9af32e-f7cd-4c85-a4cc-5543d455b8de" transform="translate(422.636 194.305)">
      <circle id="b56288f5-6382-4006-aaf1-aded98dde780" cx="8.548" cy="8.548" r="8.548" fill="#6c63ff"/>
      <path id="b9aaef6b-2cfc-46ac-8dc0-30fdc28925de" d="M811.341,439.3h-2.906v-2.906a.684.684,0,0,0-.684-.684h0a.684.684,0,0,0-.684.684V439.3h-2.906a.684.684,0,0,0-.684.684h0a.684.684,0,0,0,.684.684h2.906v2.906a.684.684,0,0,0,.684.684h0a.684.684,0,0,0,.684-.684v-2.906h2.906a.684.684,0,0,0,.684-.684h0a.684.684,0,0,0-.684-.684Z" transform="translate(-799.244 -431.471)" fill="#fff"/>
    </g>
    <path id="Path_632" data-name="Path 632" d="M818.489,444H771.965a7.456,7.456,0,0,1-7.448-7.448V408.777a1.372,1.372,0,1,1,2.744,0v7.437l54.04,4.912a4.121,4.121,0,0,1,4.048,4.116,1.373,1.373,0,0,1-.023.253L822.6,440.02A4.121,4.121,0,0,1,818.489,444Zm-51.227-25.026v17.578a4.709,4.709,0,0,0,4.7,4.7h46.524a1.374,1.374,0,0,0,1.372-1.372,1.373,1.373,0,0,1,.023-.253l2.717-14.489a1.374,1.374,0,0,0-1.368-1.266c-.042,0-.083,0-.124-.006Z" transform="translate(-365.136 -228.832)" fill="#6c63ff"/>
    <circle id="Ellipse_178" data-name="Ellipse 178" cx="2.287" cy="2.287" r="2.287" transform="translate(392.179 223.397)" fill="#6c63ff"/>
    <circle id="Ellipse_179" data-name="Ellipse 179" cx="2.287" cy="2.287" r="2.287" transform="translate(449.236 223.397)" fill="#6c63ff"/>
    <path id="Path_633" data-name="Path 633" d="M815.559,469.789H754.385a1.372,1.372,0,1,1,0-2.744h61.173a1.372,1.372,0,1,1,0,2.744Z" transform="translate(-361.749 -246.391)" fill="#6c63ff"/>
    <path id="Path_634" data-name="Path 634" d="M766.113,409.5H754.22a1.372,1.372,0,0,1,0-2.744h11.892a1.372,1.372,0,0,1,0,2.744Z" transform="translate(-361.701 -228.641)" fill="#6c63ff"/>
    <path id="Path_635" data-name="Path 635" d="M780.833,465.564a1.366,1.366,0,0,1-.894-.331l-9.019-7.751a1.372,1.372,0,1,1,1.788-2.081l9.019,7.75a1.372,1.372,0,0,1-.895,2.413Z" transform="translate(-366.881 -242.866)" fill="#6c63ff"/>
    <path id="Path_636" data-name="Path 636" d="M787.289,447.734a1.372,1.372,0,0,1-1.372-1.372V424.335a1.372,1.372,0,1,1,2.744,0v22.026a1.372,1.372,0,0,1-1.372,1.372Z" transform="translate(-371.437 -233.412)" fill="#6c63ff"/>
    <path id="Path_637" data-name="Path 637" d="M828.371,448.5A1.372,1.372,0,0,1,827,447.125v-20.2a1.372,1.372,0,1,1,2.744,0v20.2a1.372,1.372,0,0,1-1.372,1.372Z" transform="translate(-383.533 -234.176)" fill="#6c63ff"/>
  </g>
</svg>
