<svg width="22" height="17" viewBox="0 0 22 17" fill="none" xmlns="http://www.w3.org/2000/svg">
<path fill-rule="evenodd" clip-rule="evenodd" d="M6.49997 15.2501C6.49997 15.0512 6.57899 14.8604 6.71964 14.7198C6.86029 14.5791 7.05106 14.5001 7.24997 14.5001H20.75C20.9489 14.5001 21.1397 14.5791 21.2803 14.7198C21.421 14.8604 21.5 15.0512 21.5 15.2501C21.5 15.449 21.421 15.6398 21.2803 15.7805C21.1397 15.9211 20.9489 16.0001 20.75 16.0001H7.24997C7.05106 16.0001 6.86029 15.9211 6.71964 15.7805C6.57899 15.6398 6.49997 15.449 6.49997 15.2501ZM6.49997 9.25012C6.49997 9.05121 6.57899 8.86044 6.71964 8.71979C6.86029 8.57914 7.05106 8.50012 7.24997 8.50012H20.75C20.9489 8.50012 21.1397 8.57914 21.2803 8.71979C21.421 8.86044 21.5 9.05121 21.5 9.25012C21.5 9.44903 21.421 9.6398 21.2803 9.78045C21.1397 9.9211 20.9489 10.0001 20.75 10.0001H7.24997C7.05106 10.0001 6.86029 9.9211 6.71964 9.78045C6.57899 9.6398 6.49997 9.44903 6.49997 9.25012ZM6.49997 3.25012C6.49997 3.05121 6.57899 2.86044 6.71964 2.71979C6.86029 2.57914 7.05106 2.50012 7.24997 2.50012H20.75C20.9489 2.50012 21.1397 2.57914 21.2803 2.71979C21.421 2.86044 21.5 3.05121 21.5 3.25012C21.5 3.44903 21.421 3.6398 21.2803 3.78045C21.1397 3.9211 20.9489 4.00012 20.75 4.00012H7.24997C7.05106 4.00012 6.86029 3.9211 6.71964 3.78045C6.57899 3.6398 6.49997 3.44903 6.49997 3.25012ZM4.78097 1.21912C4.85082 1.28879 4.90623 1.37155 4.94404 1.46267C4.98185 1.55379 5.00131 1.65147 5.00131 1.75012C5.00131 1.84877 4.98185 1.94645 4.94404 2.03757C4.90623 2.12869 4.85082 2.21145 4.78097 2.28112L2.53097 4.53112C2.4613 4.60097 2.37854 4.65638 2.28742 4.69419C2.1963 4.732 2.09862 4.75146 1.99997 4.75146C1.90132 4.75146 1.80364 4.732 1.71252 4.69419C1.6214 4.65638 1.53864 4.60097 1.46897 4.53112L0.718971 3.78112C0.649239 3.71139 0.593925 3.6286 0.556186 3.5375C0.518447 3.44639 0.499023 3.34874 0.499023 3.25012C0.499023 3.1515 0.518447 3.05385 0.556186 2.96275C0.593925 2.87164 0.649239 2.78885 0.718971 2.71912C0.788703 2.64939 0.871487 2.59407 0.962596 2.55634C1.0537 2.5186 1.15136 2.49917 1.24997 2.49917C1.34859 2.49917 1.44624 2.5186 1.53735 2.55634C1.62846 2.59407 1.71124 2.64939 1.78097 2.71912L1.99997 2.93962L3.71897 1.21912C3.78864 1.14928 3.8714 1.09386 3.96252 1.05605C4.05364 1.01824 4.15132 0.998779 4.24997 0.998779C4.34862 0.998779 4.4463 1.01824 4.53742 1.05605C4.62854 1.09386 4.7113 1.14928 4.78097 1.21912ZM4.78097 7.21912C4.85082 7.28879 4.90623 7.37155 4.94404 7.46267C4.98185 7.55379 5.00131 7.65147 5.00131 7.75012C5.00131 7.84877 4.98185 7.94645 4.94404 8.03757C4.90623 8.12869 4.85082 8.21145 4.78097 8.28112L2.53097 10.5311C2.4613 10.601 2.37854 10.6564 2.28742 10.6942C2.1963 10.732 2.09862 10.7515 1.99997 10.7515C1.90132 10.7515 1.80364 10.732 1.71252 10.6942C1.6214 10.6564 1.53864 10.601 1.46897 10.5311L0.718971 9.78112C0.578141 9.64029 0.499023 9.44928 0.499023 9.25012C0.499023 9.05096 0.578141 8.85995 0.718971 8.71912C0.859801 8.57829 1.05081 8.49917 1.24997 8.49917C1.44913 8.49917 1.64014 8.57829 1.78097 8.71912L1.99997 8.93962L3.71897 7.21912C3.78864 7.14928 3.8714 7.09386 3.96252 7.05605C4.05364 7.01824 4.15132 6.99878 4.24997 6.99878C4.34862 6.99878 4.4463 7.01824 4.53742 7.05605C4.62854 7.09386 4.7113 7.14928 4.78097 7.21912ZM4.78097 13.2191C4.85082 13.2888 4.90623 13.3716 4.94404 13.4627C4.98185 13.5538 5.00131 13.6515 5.00131 13.7501C5.00131 13.8488 4.98185 13.9465 4.94404 14.0376C4.90623 14.1287 4.85082 14.2115 4.78097 14.2811L2.53097 16.5311C2.4613 16.601 2.37854 16.6564 2.28742 16.6942C2.1963 16.732 2.09862 16.7515 1.99997 16.7515C1.90132 16.7515 1.80364 16.732 1.71252 16.6942C1.6214 16.6564 1.53864 16.601 1.46897 16.5311L0.718971 15.7811C0.578141 15.6403 0.499023 15.4493 0.499023 15.2501C0.499023 15.051 0.578141 14.86 0.718971 14.7191C0.859801 14.5783 1.05081 14.4992 1.24997 14.4992C1.44913 14.4992 1.64014 14.5783 1.78097 14.7191L1.99997 14.9396L3.71897 13.2191C3.78864 13.1493 3.8714 13.0939 3.96252 13.0561C4.05364 13.0182 4.15132 12.9988 4.24997 12.9988C4.34862 12.9988 4.4463 13.0182 4.53742 13.0561C4.62854 13.0939 4.7113 13.1493 4.78097 13.2191Z" fill="white"/>
</svg>
