<svg width="88" height="30" viewBox="0 0 88 30" fill="none" xmlns="http://www.w3.org/2000/svg">
<g filter="url(#filter0_d_1440_5850)">
<path d="M26.0294 20.0049C25.9643 19.9316 25.9236 19.8665 25.891 19.7932C25.8585 19.72 25.891 19.6467 25.9724 19.5572L26.7622 18.7839C26.8355 18.7188 26.9006 18.7025 26.9657 18.7188C27.0309 18.7351 27.1042 18.7758 27.1693 18.8409C27.2833 18.9548 27.4135 19.0769 27.5601 19.199C27.7067 19.3211 27.8614 19.4269 28.0323 19.5246C28.2033 19.6223 28.3824 19.7037 28.5778 19.7607C28.7732 19.8177 28.9849 19.8502 29.1966 19.8502C29.4327 19.8502 29.6363 19.8177 29.8154 19.7525C29.9945 19.6874 30.1492 19.606 30.2795 19.5002C30.4098 19.3944 30.5075 19.2723 30.5726 19.1339C30.6377 18.9955 30.6703 18.8572 30.6703 18.7025C30.6703 18.5153 30.6133 18.3525 30.4993 18.2304C30.3853 18.1002 30.2469 17.9943 30.0841 17.9048C29.9212 17.8153 29.7421 17.742 29.5467 17.685C29.3513 17.6281 29.1803 17.5792 29.0256 17.5385C28.0812 17.2536 27.3566 16.9118 26.8599 16.4966C26.3632 16.0896 26.1109 15.5443 26.1109 14.885C26.1109 14.5268 26.1841 14.1931 26.3388 13.9C26.4935 13.607 26.7052 13.3465 26.982 13.1268C27.2589 12.9151 27.5927 12.7442 27.9835 12.6302C28.3743 12.5163 28.8058 12.4512 29.278 12.4512C29.791 12.4512 30.2876 12.5733 30.768 12.8175C31.2402 13.0617 31.6555 13.3547 32.0056 13.7128C32.144 13.8593 32.144 14.014 31.9974 14.1687L31.3542 14.8605C31.2728 14.9338 31.1995 14.9501 31.1344 14.9257C31.0611 14.9012 30.9878 14.8524 30.9146 14.7873C30.8169 14.7059 30.711 14.6245 30.5889 14.5268C30.4668 14.4291 30.3365 14.3477 30.1899 14.2582C30.0434 14.1768 29.8887 14.1117 29.734 14.0547C29.5793 13.9977 29.4083 13.9733 29.2373 13.9733C29.0908 13.9733 28.9361 13.9814 28.7732 14.0059C28.6104 14.0303 28.4638 14.071 28.3417 14.1442C28.2115 14.2094 28.1056 14.307 28.016 14.4291C27.9265 14.5512 27.8858 14.714 27.8858 14.9175C27.8858 15.064 27.9265 15.1943 28.0079 15.3082C28.0893 15.414 28.2115 15.5117 28.358 15.5931C28.5127 15.6745 28.6918 15.7478 28.8954 15.821C29.0989 15.8943 29.335 15.9594 29.5793 16.0327C29.9782 16.1466 30.3528 16.285 30.7029 16.4234C31.053 16.5699 31.3624 16.749 31.6229 16.9606C31.8834 17.1722 32.0951 17.4246 32.2498 17.7095C32.4045 18.0025 32.4859 18.3444 32.4859 18.7513C32.4859 19.1583 32.3964 19.5328 32.2173 19.8583C32.0381 20.1921 31.7939 20.477 31.4926 20.713C31.1914 20.9491 30.8413 21.1282 30.4505 21.2502C30.0515 21.3723 29.6444 21.4375 29.221 21.4375C28.6104 21.4375 28.0242 21.3072 27.4624 21.0386C26.9006 20.77 26.4365 20.4281 26.0294 20.0049Z" fill="white"/>
<path d="M33.3896 18.4668C33.3896 18.0517 33.4711 17.661 33.6258 17.2947C33.7805 16.9284 34.0003 16.6028 34.2771 16.3342C34.5539 16.0574 34.8796 15.8458 35.246 15.6911C35.6124 15.5365 36.0113 15.4551 36.4347 15.4551C36.8581 15.4551 37.257 15.5365 37.6234 15.6911C37.9898 15.8458 38.3155 16.0656 38.5842 16.3342C38.861 16.6109 39.0727 16.9284 39.2355 17.2947C39.3983 17.661 39.4716 18.0517 39.4716 18.4668C39.4716 18.8819 39.3902 19.2726 39.2355 19.6389C39.0727 20.0052 38.861 20.3227 38.5842 20.5913C38.3073 20.8599 37.9898 21.0715 37.6234 21.2343C37.257 21.3971 36.8581 21.4704 36.4347 21.4704C36.0113 21.4704 35.6205 21.389 35.246 21.2343C34.8715 21.0797 34.5539 20.868 34.2771 20.5913C34.0003 20.3227 33.7805 20.0052 33.6258 19.6389C33.4711 19.2726 33.3896 18.8819 33.3896 18.4668ZM34.9529 18.4749C34.9529 18.6866 34.9855 18.8819 35.0669 19.0691C35.1402 19.2563 35.246 19.4191 35.3763 19.5575C35.5065 19.6959 35.6694 19.8098 35.8485 19.8831C36.0276 19.9645 36.223 19.9971 36.4347 19.9971C36.6464 19.9971 36.8418 19.9564 37.0209 19.8831C37.2 19.8017 37.3547 19.6959 37.4931 19.5575C37.6234 19.4191 37.7293 19.2563 37.8107 19.0691C37.8921 18.8819 37.9247 18.6866 37.9247 18.4749C37.9247 18.2633 37.884 18.0679 37.8107 17.8807C37.7293 17.6935 37.6234 17.5307 37.4931 17.3923C37.3629 17.254 37.2 17.14 37.0209 17.0586C36.8418 16.9772 36.6464 16.9365 36.4347 16.9365C36.223 16.9365 36.0276 16.9772 35.8485 17.0586C35.6694 17.14 35.5147 17.254 35.3763 17.3923C35.246 17.5307 35.1402 17.6935 35.0669 17.8807C34.9855 18.0679 34.9529 18.2633 34.9529 18.4749Z" fill="white"/>
<path d="M45.3825 21.3316C45.2686 21.3316 45.179 21.3154 45.1139 21.2828C45.0487 21.2502 45.008 21.2014 44.9755 21.1363C44.9429 21.0712 44.9185 20.9979 44.9022 20.9165C44.8859 20.827 44.8615 20.7374 44.837 20.6316C44.6579 20.8351 44.3974 21.0142 44.0636 21.1688C43.7297 21.3235 43.3715 21.4049 42.9888 21.4049C42.6306 21.4049 42.3131 21.3479 42.0281 21.234C41.7513 21.12 41.5152 20.9572 41.3279 20.7537C41.1406 20.5502 41.0022 20.2979 40.9045 20.0211C40.8068 19.7362 40.7661 19.4269 40.7661 19.0932V15.9187C40.7661 15.8129 40.7987 15.7233 40.8638 15.6582C40.9289 15.5931 41.0104 15.5605 41.1081 15.5605H42.0688C42.1909 15.5605 42.2805 15.5931 42.3293 15.6501C42.3782 15.7071 42.4026 15.7966 42.4026 15.9024V18.8164C42.4026 19.1339 42.4922 19.3944 42.6794 19.5816C42.8667 19.7688 43.111 19.8665 43.4122 19.8665C43.5343 19.8665 43.6809 19.8421 43.8356 19.7932C43.9903 19.7444 44.1368 19.6711 44.2671 19.5897C44.3974 19.5002 44.5114 19.3944 44.6091 19.2723C44.7068 19.1502 44.7475 19.0118 44.7475 18.8571V15.8943C44.7475 15.6745 44.8615 15.5687 45.0894 15.5687H46.042C46.1479 15.5687 46.2374 15.6012 46.2944 15.6664C46.3514 15.7315 46.384 15.8047 46.384 15.9024V20.9898C46.384 21.2258 46.2619 21.3398 46.0176 21.3398H45.3825V21.3316Z" fill="white"/>
<path d="M49.1932 15.894C49.2013 15.9347 49.2176 16.0079 49.2501 16.1219C49.2827 16.2358 49.299 16.3091 49.3071 16.3498C49.3804 16.2521 49.4618 16.1544 49.5595 16.0568C49.6572 15.9509 49.7712 15.8614 49.8934 15.78C50.0155 15.6986 50.1539 15.6335 50.3004 15.5765C50.447 15.5195 50.6017 15.4951 50.7727 15.4951C50.8134 15.4951 50.846 15.4951 50.8867 15.4951C50.9274 15.4951 50.9599 15.4951 51.0006 15.5033C51.1065 15.5114 51.2368 15.544 51.3752 15.5928C51.5136 15.6416 51.652 15.6986 51.7741 15.7719C51.8962 15.837 52.0021 15.9102 52.0917 15.9835C52.1812 16.0568 52.2219 16.1219 52.2219 16.187C52.2219 16.2358 52.2056 16.2847 52.1649 16.3498L51.6927 17.1149C51.6194 17.2207 51.538 17.2777 51.4484 17.2777C51.4159 17.2777 51.367 17.2614 51.31 17.237C51.2449 17.2126 51.1798 17.18 51.1065 17.1393C51.0006 17.058 50.9029 17.0091 50.8215 16.9766C50.7401 16.944 50.6424 16.9277 50.5366 16.9277C50.3656 16.9277 50.2109 16.9603 50.0725 17.0254C49.9341 17.0905 49.8201 17.18 49.7224 17.2859C49.6247 17.3917 49.5514 17.5219 49.5025 17.6603C49.4537 17.7987 49.4293 17.9289 49.4293 18.0673V21.0383C49.4293 21.2336 49.3234 21.3313 49.1117 21.3313H48.1347C47.9312 21.3313 47.8253 21.2336 47.8253 21.0383V15.894C47.8253 15.7963 47.8579 15.7149 47.923 15.6661C47.9882 15.6172 48.0533 15.5928 48.1347 15.5928H48.8838C48.9815 15.5928 49.0466 15.6254 49.0873 15.6905C49.128 15.7556 49.1687 15.8126 49.1932 15.894Z" fill="white"/>
<path d="M55.7227 20.0052C55.9588 19.9971 56.1624 19.9645 56.3334 19.8994C56.5043 19.8343 56.6835 19.761 56.8707 19.6796C56.9521 19.6389 57.001 19.6226 57.0336 19.6226C57.0905 19.6226 57.1475 19.6633 57.2127 19.7529L57.7175 20.4773C57.75 20.5424 57.7663 20.5831 57.7663 20.6075C57.7663 20.6808 57.7419 20.7296 57.693 20.7703C57.6442 20.811 57.6035 20.8436 57.5628 20.8762C57.3022 21.0471 57.0254 21.1855 56.716 21.2994C56.4066 21.4134 56.0891 21.4704 55.7553 21.4704C55.34 21.4704 54.9492 21.389 54.5829 21.2343C54.2165 21.0797 53.8989 20.868 53.6221 20.5913C53.3453 20.3227 53.1336 20.0052 52.9789 19.6389C52.8242 19.2726 52.7428 18.8819 52.7428 18.4668C52.7428 18.0517 52.8242 17.661 52.9789 17.2947C53.1336 16.9284 53.3534 16.6028 53.6221 16.3342C53.8989 16.0574 54.2165 15.8458 54.5829 15.6911C54.9492 15.5365 55.34 15.4551 55.7553 15.4551C56.0728 15.4551 56.3741 15.5039 56.659 15.6097C56.944 15.7155 57.2208 15.8539 57.5058 16.033H57.4976C57.5628 16.0737 57.6116 16.1144 57.6523 16.1632C57.693 16.2121 57.7093 16.2609 57.7093 16.326C57.7093 16.3423 57.7093 16.3667 57.7012 16.3911C57.7012 16.4156 57.6849 16.44 57.6686 16.4563L57.2127 17.2458C57.1964 17.2784 57.172 17.3028 57.1394 17.3272C57.1068 17.3516 57.0661 17.3598 57.0254 17.3598C56.9929 17.3598 56.9277 17.3354 56.8382 17.2784C56.7079 17.1726 56.5369 17.083 56.3415 17.0098C56.1461 16.9447 55.9507 16.9121 55.7634 16.9121C55.5436 16.9121 55.3401 16.9528 55.1528 17.0423C54.9655 17.1319 54.8027 17.2458 54.6643 17.3923C54.5259 17.5389 54.42 17.7098 54.3386 17.897C54.2572 18.0924 54.2246 18.2959 54.2246 18.5075C54.2246 18.9552 54.3712 19.3215 54.6561 19.5982C54.9411 19.8587 55.2993 20.0052 55.7227 20.0052Z" fill="white"/>
<path d="M61.9513 20.0693C62.1223 20.0775 62.2933 20.0531 62.4561 19.9961C62.619 19.9391 62.7818 19.874 62.9365 19.7845C63.0016 19.7519 63.0586 19.7193 63.1156 19.6786C63.1726 19.6379 63.2215 19.6217 63.2703 19.6217C63.3436 19.6217 63.4006 19.6542 63.4495 19.7275L63.881 20.4194C63.9217 20.4845 63.938 20.5333 63.938 20.574C63.938 20.6391 63.9217 20.688 63.881 20.7287C63.8403 20.7694 63.7995 20.8101 63.7507 20.8508C63.4983 21.038 63.2296 21.1845 62.9365 21.2984C62.6434 21.4043 62.3259 21.4612 61.9921 21.4612C61.585 21.4612 61.2023 21.3798 60.8359 21.2252C60.4695 21.0705 60.152 20.8589 59.8833 20.5821C59.6146 20.3054 59.3948 19.9961 59.2401 19.6217C59.0773 19.2554 58.9958 18.8647 58.9958 18.4495C58.9958 18.0425 59.0773 17.66 59.232 17.2937C59.3867 16.9274 59.5983 16.61 59.867 16.3332C60.1357 16.0564 60.4451 15.8367 60.7952 15.6739C61.1453 15.5111 61.5198 15.4297 61.9188 15.4297C62.2933 15.4297 62.6515 15.5029 62.9854 15.6413C63.3192 15.7797 63.6204 15.9751 63.8728 16.2192C64.1252 16.4634 64.3288 16.7483 64.4753 17.0739C64.6219 17.3995 64.6952 17.7414 64.6952 18.1158C64.6952 18.4251 64.6707 18.6449 64.6219 18.7833C64.573 18.9216 64.459 18.9868 64.2881 18.9868H60.6324C60.6486 19.1577 60.6975 19.3123 60.7871 19.4426C60.8766 19.5728 60.9825 19.6868 61.1046 19.7845C61.2267 19.8821 61.3733 19.9473 61.5198 19.9961C61.6582 20.0449 61.8048 20.0693 61.9513 20.0693ZM60.6242 17.8472H63.1482C63.1319 17.5542 63.0016 17.3018 62.7655 17.0902C62.5294 16.8867 62.2282 16.7809 61.8781 16.7809C61.7397 16.7809 61.5931 16.8053 61.4547 16.8623C61.3163 16.9193 61.186 16.9925 61.0639 17.0902C60.9499 17.1879 60.8522 17.3018 60.7708 17.4321C60.6975 17.5623 60.6486 17.7007 60.6242 17.8472Z" fill="white"/>
<path d="M66.3804 21.0389V12.9073C66.3804 12.7119 66.4699 12.6143 66.6491 12.6143H67.6831C67.8785 12.6143 67.9762 12.7119 67.9762 12.9073V16.1958C68.139 15.9841 68.3426 15.8132 68.5787 15.6829C68.8148 15.5527 69.116 15.4876 69.4661 15.4876C69.8651 15.4876 70.2315 15.569 70.5734 15.7236C70.9072 15.8783 71.2004 16.0899 71.4365 16.3667C71.6726 16.6353 71.8598 16.9528 71.9983 17.3109C72.1367 17.669 72.2018 18.0598 72.2018 18.4749C72.2018 18.8819 72.1285 19.2644 71.9901 19.6307C71.8517 19.997 71.6563 20.3063 71.412 20.5749C71.1678 20.8436 70.8828 21.0552 70.549 21.2098C70.2152 21.3645 69.8569 21.4459 69.4661 21.4459C69.0916 21.4459 68.7741 21.3808 68.5298 21.2505C68.2774 21.1203 68.0576 20.9168 67.8622 20.6319C67.8459 20.7215 67.8296 20.7947 67.8133 20.8598C67.7971 20.9249 67.7808 20.9982 67.7645 21.0633C67.7238 21.2017 67.6424 21.2831 67.5039 21.2994C67.3737 21.3157 67.2353 21.3238 67.105 21.3238H66.6572C66.4699 21.3157 66.3804 21.218 66.3804 21.0389ZM67.8215 18.4993C67.8215 18.7109 67.8622 18.9063 67.9355 19.1016C68.0087 19.2889 68.1146 19.4517 68.2449 19.59C68.3751 19.7284 68.5217 19.8342 68.7008 19.9156C68.8718 19.997 69.0509 20.0377 69.2382 20.0377C69.4336 20.0377 69.6127 19.997 69.7837 19.9156C69.9546 19.8342 70.1012 19.7203 70.2233 19.5819C70.3455 19.4435 70.4513 19.2726 70.5246 19.0854C70.5979 18.8982 70.6386 18.6947 70.6386 18.483C70.6386 18.2714 70.606 18.0679 70.5327 17.8807C70.4594 17.6853 70.3699 17.5225 70.2478 17.3842C70.1256 17.2458 69.9791 17.1318 69.8162 17.0504C69.6453 16.969 69.4661 16.9283 69.2789 16.9283C69.0835 16.9283 68.8962 16.969 68.7252 17.0504C68.5542 17.1318 68.3996 17.2458 68.2693 17.3842C68.139 17.5225 68.0332 17.6935 67.9518 17.8807C67.8703 18.076 67.8378 18.2714 67.8378 18.483V18.4993H67.8215Z" fill="white"/>
<path d="M77.5512 21.0142C77.5349 20.9328 77.5267 20.8758 77.5186 20.8188C77.5105 20.77 77.5023 20.7049 77.486 20.6235C77.4128 20.7212 77.3395 20.827 77.2499 20.9328C77.1604 21.0386 77.0627 21.12 76.9405 21.1933C76.8265 21.2665 76.6881 21.3316 76.5334 21.3723C76.3787 21.413 76.1915 21.4456 75.9716 21.4456H75.9472C75.532 21.4456 75.1493 21.3723 74.7992 21.2177C74.4491 21.063 74.1479 20.8514 73.9036 20.5828C73.6512 20.3142 73.4558 19.9967 73.3174 19.6386C73.179 19.2804 73.1057 18.8897 73.1057 18.4665C73.1057 18.0432 73.1708 17.6525 73.3093 17.2862C73.4477 16.9199 73.6431 16.6106 73.8873 16.342C74.1397 16.0734 74.441 15.8699 74.7829 15.7152C75.133 15.5606 75.5157 15.4873 75.9391 15.4873C76.3543 15.4873 76.68 15.5687 76.908 15.7315C77.1359 15.8943 77.3476 16.0896 77.5267 16.3176L77.6407 15.8699C77.6733 15.7396 77.7059 15.6501 77.7466 15.6094C77.7873 15.5687 77.8606 15.5443 77.9664 15.5443L78.6259 15.5687C78.7154 15.5687 78.7887 15.6013 78.862 15.6582C78.9353 15.7152 78.9678 15.7966 78.9678 15.8862V21.0386C78.9678 21.1363 78.9353 21.2014 78.862 21.2584C78.7887 21.3072 78.7154 21.3316 78.6259 21.3316H77.8768C77.7629 21.3316 77.6814 21.2991 77.6326 21.2421C77.6 21.1851 77.5674 21.1037 77.5512 21.0142ZM74.6282 18.4746C74.6282 18.6944 74.6608 18.8979 74.7259 19.0851C74.7911 19.2723 74.8888 19.4351 75.0109 19.5816C75.133 19.72 75.2877 19.8339 75.4587 19.9072C75.6297 19.9886 75.8251 20.0211 76.0368 20.0211C76.4764 20.0211 76.8184 19.8746 77.0789 19.5816C77.3395 19.2886 77.4616 18.9223 77.4616 18.4827C77.4616 18.2711 77.429 18.0676 77.3639 17.8804C77.2988 17.685 77.2092 17.5222 77.0789 17.3757C76.9568 17.2292 76.8021 17.1153 76.6311 17.0339C76.4602 16.9525 76.2566 16.9118 76.0286 16.9118C75.8169 16.9118 75.6215 16.9525 75.4506 17.0339C75.2714 17.1153 75.1249 17.2292 75.0028 17.3757C74.8806 17.5222 74.7911 17.685 74.7178 17.8723C74.6608 18.0595 74.6282 18.263 74.6282 18.4746Z" fill="white"/>
<path d="M85.8395 17.0827C85.6929 16.7571 85.4975 16.4722 85.237 16.228C84.9846 15.9838 84.6833 15.7966 84.3495 15.6501C84.0157 15.5117 83.6574 15.4385 83.2829 15.4385C82.884 15.4385 82.5094 15.5199 82.1593 15.6827C81.8092 15.8455 81.4998 16.0652 81.2312 16.342C80.9625 16.6187 80.7508 16.9443 80.5961 17.3025C80.4414 17.6606 80.36 18.0513 80.36 18.4583C80.36 18.8735 80.4414 19.2642 80.6042 19.6305C80.7671 19.9967 80.9788 20.3142 81.2475 20.5909C81.5161 20.8677 81.8337 21.0712 82.2 21.234C82.5664 21.3968 82.9491 21.47 83.3562 21.47C83.69 21.47 84.0075 21.4131 84.3006 21.3072C84.5938 21.2014 84.8624 21.0468 85.1148 20.8596C85.1637 20.8189 85.2044 20.7782 85.2451 20.7375C85.2858 20.6968 85.3021 20.6398 85.3021 20.5828C85.3021 20.5421 85.2858 20.4933 85.2451 20.4281L84.8136 19.7363C84.7647 19.663 84.7077 19.6305 84.6345 19.6305C84.5856 19.6305 84.5368 19.6467 84.4798 19.6874C84.4228 19.7281 84.3658 19.7607 84.3006 19.7932C84.146 19.8828 83.9831 19.9479 83.8203 20.0049C83.6574 20.0619 83.4865 20.0863 83.3155 20.0781C83.1771 20.0781 83.0305 20.0537 82.8758 20.0049C82.7211 19.956 82.5827 19.8909 82.4606 19.7932C82.3385 19.6956 82.2326 19.5898 82.1431 19.4514C82.0535 19.3211 82.0046 19.1665 81.9884 18.9956H85.644C85.815 18.9956 85.929 18.9304 85.9779 18.7921C86.0267 18.6537 86.0511 18.4339 86.0511 18.1246C86.0593 17.7502 85.986 17.4083 85.8395 17.0827ZM81.9884 17.8478C82.0128 17.7013 82.0616 17.563 82.1431 17.4327C82.2245 17.3025 82.3222 17.1885 82.4362 17.0908C82.5501 16.9932 82.6804 16.9199 82.827 16.8629C82.9654 16.806 83.1119 16.7815 83.2503 16.7815C83.6004 16.7815 83.9017 16.8874 84.1378 17.0908C84.3739 17.3025 84.5042 17.5548 84.5205 17.8478H81.9884Z" fill="white"/>
</g>
<path d="M84.6508 12.9551L84.1134 14.1838C84.0483 14.3466 83.9506 14.428 83.804 14.428H82.9573C82.8759 14.428 82.827 14.4198 82.8026 14.3954C82.7782 14.371 82.77 14.3303 82.77 14.2815C82.77 14.2489 82.7782 14.2164 82.7863 14.1838C82.7944 14.1513 82.8107 14.1106 82.827 14.0536L83.34 12.8574C83.4295 12.6947 83.5354 12.6133 83.6575 12.6133H84.5368C84.6427 12.6133 84.6996 12.654 84.6996 12.7272C84.7078 12.7923 84.6834 12.8655 84.6508 12.9551Z" fill="url(#paint0_linear_1440_5850)"/>
<g filter="url(#filter1_d_1440_5850)">
<path d="M15.1111 8.38066C13.9305 8.226 12.7581 8.33996 11.6589 8.67369L12.4894 2.25142L11.2762 2.09677C9.10235 1.81187 6.93662 2.39794 5.2024 3.741C3.46818 5.08406 2.35275 7.02132 2.06778 9.20277C1.48971 13.6959 4.67318 17.8309 9.17563 18.4088C9.53387 18.4577 9.89211 18.474 10.2422 18.474C11.0564 18.474 11.8624 18.3437 12.6278 18.1077L11.7973 24.5299L13.0105 24.6846C13.3687 24.7334 13.7269 24.7497 14.077 24.7497C15.8845 24.7497 17.635 24.1555 19.0843 23.0322C20.8266 21.6892 21.9339 19.7519 22.2189 17.5704C22.797 13.0854 19.6054 8.95858 15.1111 8.38066ZM4.48591 9.51208C4.68132 7.98181 5.46294 6.61433 6.69236 5.67012C7.58797 4.97824 8.63827 4.57939 9.73742 4.48171L9.02093 10.033C7.60425 11.1319 6.61094 12.6296 6.14685 14.3308C4.91743 13.1099 4.2498 11.3598 4.48591 9.51208ZM9.48502 15.9832C9.08607 15.9344 8.7034 15.8448 8.33702 15.7146C8.54871 14.2169 9.32218 12.8819 10.5272 11.954C11.7485 11.0098 13.2628 10.6028 14.8017 10.7982C15.2006 10.847 15.5833 10.9365 15.9497 11.0668C15.738 12.5645 14.9645 13.8994 13.7595 14.8273C12.5301 15.7716 11.0157 16.1867 9.48502 15.9832ZM19.7926 17.2693C19.5972 18.7995 18.8156 20.167 17.5862 21.1112C16.6906 21.8031 15.6403 22.202 14.5411 22.2996L15.2576 16.7483C16.6743 15.6495 17.6676 14.1517 18.1317 12.4505C19.3611 13.6715 20.0287 15.4297 19.7926 17.2693Z" fill="url(#paint1_linear_1440_5850)"/>
<path d="M6.22027 26.353C6.05743 26.353 5.89459 26.3449 5.73176 26.3205C3.67186 26.0518 2.20633 24.1634 2.47501 22.1041C2.74369 20.0447 4.6326 18.5796 6.69249 18.8482C8.75239 19.1168 10.2179 21.0052 9.94924 23.0646C9.81897 24.0658 9.31418 24.953 8.51627 25.5635C7.84864 26.0844 7.05074 26.353 6.22027 26.353ZM6.21212 21.2575C5.55263 21.2575 4.9827 21.7459 4.89314 22.4134C4.80358 23.1378 5.31652 23.8053 6.04115 23.8948C6.39125 23.9437 6.74135 23.846 7.01817 23.6262C7.29499 23.4064 7.48226 23.0971 7.52297 22.7471C7.61253 22.0227 7.09959 21.3552 6.37496 21.2657C6.32611 21.2575 6.26912 21.2575 6.21212 21.2575Z" fill="#BC56FC"/>
<path d="M18.1237 7.53418C17.9609 7.53418 17.798 7.52604 17.6352 7.50162C15.5753 7.23301 14.1098 5.34459 14.3785 3.28523C14.5087 2.28404 15.0135 1.3968 15.8114 0.786323C16.6093 0.167701 17.5945 -0.0927712 18.5959 0.0293252C20.6558 0.297937 22.1214 2.18636 21.8527 4.24572C21.6166 6.14228 19.9882 7.53418 18.1237 7.53418ZM18.1156 2.43869C17.8225 2.43869 17.5456 2.53637 17.3095 2.71544C17.0327 2.93522 16.8454 3.24453 16.8047 3.59454C16.7152 4.31898 17.2281 4.98644 17.9527 5.07597C18.6692 5.17365 19.345 4.65271 19.4427 3.92827C19.5323 3.20383 19.0193 2.53637 18.2947 2.44683C18.2296 2.43869 18.1726 2.43869 18.1156 2.43869Z" fill="#BC53FF"/>
</g>
<defs>
<filter id="filter0_d_1440_5850" x="24.0822" y="12.4512" width="63.7659" height="12.6123" filterUnits="userSpaceOnUse" color-interpolation-filters="sRGB">
<feFlood flood-opacity="0" result="BackgroundImageFix"/>
<feColorMatrix in="SourceAlpha" type="matrix" values="0 0 0 0 0 0 0 0 0 0 0 0 0 0 0 0 0 0 127 0" result="hardAlpha"/>
<feOffset dy="1.79636"/>
<feGaussianBlur stdDeviation="0.89818"/>
<feComposite in2="hardAlpha" operator="out"/>
<feColorMatrix type="matrix" values="0 0 0 0 0 0 0 0 0 0 0 0 0 0 0 0 0 0 0.25 0"/>
<feBlend mode="normal" in2="BackgroundImageFix" result="effect1_dropShadow_1440_5850"/>
<feBlend mode="normal" in="SourceGraphic" in2="effect1_dropShadow_1440_5850" result="shape"/>
</filter>
<filter id="filter1_d_1440_5850" x="0.20364" y="0" width="23.8792" height="29.9453" filterUnits="userSpaceOnUse" color-interpolation-filters="sRGB">
<feFlood flood-opacity="0" result="BackgroundImageFix"/>
<feColorMatrix in="SourceAlpha" type="matrix" values="0 0 0 0 0 0 0 0 0 0 0 0 0 0 0 0 0 0 127 0" result="hardAlpha"/>
<feOffset dy="1.79636"/>
<feGaussianBlur stdDeviation="0.89818"/>
<feComposite in2="hardAlpha" operator="out"/>
<feColorMatrix type="matrix" values="0 0 0 0 0 0 0 0 0 0 0 0 0 0 0 0 0 0 0.25 0"/>
<feBlend mode="normal" in2="BackgroundImageFix" result="effect1_dropShadow_1440_5850"/>
<feBlend mode="normal" in="SourceGraphic" in2="effect1_dropShadow_1440_5850" result="shape"/>
</filter>
<linearGradient id="paint0_linear_1440_5850" x1="82.7671" y1="13.5227" x2="84.7055" y2="13.5227" gradientUnits="userSpaceOnUse">
<stop stop-color="#F1A0AD"/>
<stop offset="0.1538" stop-color="#E087C7"/>
<stop offset="0.3418" stop-color="#D070E0"/>
<stop offset="0.5394" stop-color="#C560F1"/>
<stop offset="0.7508" stop-color="#BE56FC"/>
<stop offset="1" stop-color="#BC53FF"/>
</linearGradient>
<linearGradient id="paint1_linear_1440_5850" x1="7.96876" y1="7.57498" x2="19.7859" y2="24.0642" gradientUnits="userSpaceOnUse">
<stop stop-color="#F1A0AD"/>
<stop offset="0.1538" stop-color="#E087C7"/>
<stop offset="0.3418" stop-color="#D070E0"/>
<stop offset="0.5394" stop-color="#C560F1"/>
<stop offset="0.7508" stop-color="#BE56FC"/>
<stop offset="1" stop-color="#BC53FF"/>
</linearGradient>
</defs>
</svg>
