<svg width="46" height="52" viewBox="0 0 46 52" fill="none" xmlns="http://www.w3.org/2000/svg">
<path d="M33.3125 14.2812V11.4688C33.3125 11.2109 33.1016 11 32.8437 11H10.3437C10.0859 11 9.875 11.2109 9.875 11.4688V14.2812C9.875 14.5391 10.0859 14.75 10.3437 14.75H32.8437C33.1016 14.75 33.3125 14.5391 33.3125 14.2812ZM10.3437 19.4375C10.0859 19.4375 9.875 19.6484 9.875 19.9062V22.7188C9.875 22.9766 10.0859 23.1875 10.3437 23.1875H21.125C21.3828 23.1875 21.5937 22.9766 21.5937 22.7188V19.9062C21.5937 19.6484 21.3828 19.4375 21.125 19.4375H10.3437ZM18.7812 45.9219H5.1875V4.67188H38V24.8281C38 25.0859 38.2109 25.2969 38.4687 25.2969H41.75C42.0078 25.2969 42.2187 25.0859 42.2187 24.8281V2.32812C42.2187 1.29102 41.3809 0.453125 40.3437 0.453125H2.84375C1.80664 0.453125 0.96875 1.29102 0.96875 2.32812V48.2656C0.96875 49.3027 1.80664 50.1406 2.84375 50.1406H18.7812C19.0391 50.1406 19.25 49.9297 19.25 49.6719V46.3906C19.25 46.1328 19.0391 45.9219 18.7812 45.9219ZM44.8965 48.9395L39.4297 43.4727C40.7363 41.7441 41.5156 39.5879 41.5156 37.25C41.5156 31.5547 36.8984 26.9375 31.2031 26.9375C25.5078 26.9375 20.8906 31.5547 20.8906 37.25C20.8906 42.9453 25.5078 47.5625 31.2031 47.5625C33.3008 47.5625 35.2461 46.9355 36.875 45.8633L42.4238 51.4121C42.5176 51.5059 42.6348 51.5469 42.7519 51.5469C42.8691 51.5469 42.9922 51.5 43.0801 51.4121L44.8965 49.5957C44.9397 49.5527 44.974 49.5016 44.9974 49.4453C45.0208 49.3889 45.0329 49.3286 45.0329 49.2676C45.0329 49.2066 45.0208 49.1462 44.9974 49.0899C44.974 49.0336 44.9397 48.9825 44.8965 48.9395ZM31.2031 43.8125C27.5762 43.8125 24.6406 40.877 24.6406 37.25C24.6406 33.623 27.5762 30.6875 31.2031 30.6875C34.8301 30.6875 37.7656 33.623 37.7656 37.25C37.7656 40.877 34.8301 43.8125 31.2031 43.8125Z" fill="#4DDE9E"/>
</svg>
