<svg xmlns="http://www.w3.org/2000/svg"  viewBox="0 0 64 64" width="128px" height="128px"><path fill="#f9e3ae" d="M43.09,59.17l2.37-11.83a10,10,0,0,1,1.91-4.18L58.13,29.33A14,14,0,0,0,57,10.84L53.24,7.1A14,14,0,0,0,34.75,5.95L20.91,16.71a10,10,0,0,1-4.18,1.91L4.9,21"/><path fill="#f5c872" d="M23.64 13.43A6.5 27 0 1 0 23.64 67.43A6.5 27 0 1 0 23.64 13.43Z" transform="rotate(-45 23.64 40.438)"/><path fill="#f6d397" d="M28.2,38.38a8.06,8.06,0,1,0,7.75,6.06c-1.4-1.76-3-3.59-4.69-5.45A8,8,0,0,0,28.2,38.38Z"/><path fill="#f6d397" d="M34.93,50.7a8,8,0,1,1-11-11.05Z"/><path fill="#f5c872" d="M36.2,46.38v0a2.33,2.33,0,0,1-4,1.55L26.6,42.37a2.33,2.33,0,0,1,1.55-4h0a8,8,0,0,1,3.06.61C33,40.85,34.54,42.67,36,44.44A8.25,8.25,0,0,1,36.2,46.38Z"/><path fill="#faefde" d="M51.29,9.06l0,0a2.48,2.48,0,0,1-3.09.34,9,9,0,0,0-10.37.49l-6.65,5.26a2.49,2.49,0,0,1-3.44-.34h0a2.49,2.49,0,0,1,.36-3.58c3-2.38,6.66-5.3,6.66-5.3A14,14,0,0,1,50.87,5.2,2.5,2.5,0,0,1,51.29,9.06Z"/><path fill="#8d6c9f" d="M59.69,12.64,61,10a5.15,5.15,0,0,0-1-6l0,0a5.16,5.16,0,0,0-5.92-.93L51.43,4.38a15,15,0,0,0-17.3.78L20.3,15.92a9,9,0,0,1-3.76,1.72l-11,2.21-.23,0L4.71,20a1,1,0,0,0-.66.48c-.07.05-.15.09-.21.15C.36,24.12,8.5,35.9,18.34,45.74l.86.85a9,9,0,0,0,9,8.79,8.52,8.52,0,0,0,1.14-.07C34,58.78,38.36,61,41.16,61a3.09,3.09,0,0,0,2.28-.82,2.5,2.5,0,0,0,.17-.22,1,1,0,0,0,.46-.64l2.37-11.83a9,9,0,0,1,1.72-3.76L58.92,29.94A15,15,0,0,0,59.69,12.64ZM55,4.84a3.15,3.15,0,0,1,3.65.59l0,0a3.16,3.16,0,0,1,.57,3.63l-.89,1.78c-.22-.25-.43-.5-.67-.73L53.95,6.39c-.23-.23-.48-.45-.73-.67ZM5.26,22a.73.73,0,0,1,.3-.17l.37-.07.25,0c1.11,0,3.22.62,6.7,2.75a84.5,84.5,0,0,1,14.66,12l.83.84H28.2a9,9,0,0,0-8.7,6.69C8.46,33,3.68,23.63,5.26,22ZM28.2,53.38a6.49,6.49,0,0,1-1.6-.19A7,7,0,0,1,21.69,49a6.84,6.84,0,0,1-.49-2.57q0-.3,0-.6a7,7,0,0,1,9.45-6c.78.85,1.54,1.71,2.26,2.55s1.42,1.68,2.09,2.5h0a7.1,7.1,0,0,1,.17,1.49,7,7,0,0,1-5.35,6.8A6.9,6.9,0,0,1,28.2,53.38Zm3.62,1.24a9,9,0,0,0,5.29-7c3.48,4.78,5.22,8.5,5.21,10.28l-.14.7a.83.83,0,0,1-.15.22C41.07,59.78,37.21,58.38,31.82,54.62Zm25.52-25.9L46.58,42.55a11.06,11.06,0,0,0-2.1,4.6l-1.32,6.61a52.48,52.48,0,0,0-7.52-11.31l-1.16-1.37L33.26,39.7c-.42-.46-.84-.93-1.27-1.39h0c-1-1.07-2-2.13-3-3.17a87,87,0,0,0-15-12.3,32.05,32.05,0,0,0-3.56-1.91l6.58-1.32a11,11,0,0,0,4.6-2.1L35.36,6.74A13,13,0,0,1,52.53,7.81l3.73,3.74A13,13,0,0,1,57.34,28.72Z"/><path fill="#8d6c9f" d="M40.55 9.38A1 1 0 1 0 40 7.47a10.85 10.85 0 0 0-3.51 1.82l-4 3.07a1 1 0 1 0 1.23 1.58l4-3.07A8.87 8.87 0 0 1 40.55 9.38zM47.13 8.78a1 1 0 0 0-.65-1.26 10.93 10.93 0 0 0-2.17-.46 1 1 0 1 0-.21 2 9 9 0 0 1 1.78.38 1 1 0 0 0 1.26-.65zM37.73 36.87a1 1 0 0 0-1.41 1.41l1.41 1.41a1 1 0 0 0 1.41-1.41zM41.27 33.34a1 1 0 0 0-1.41 1.41l1.41 1.41a1 1 0 0 0 1.41-1.41zM44.81 29.8a1 1 0 0 0-1.41 1.41l1.41 1.41a1 1 0 0 0 1.41-1.41zM48.34 26.27a1 1 0 0 0-1.41 1.41l1.41 1.41a1 1 0 0 0 1.41-1.41zM51.88 22.73a1 1 0 0 0-1.42 1.41l1.41 1.42a1 1 0 0 0 1.42-1.41zM55.41 19.19A1 1 0 0 0 54 20.61L55.41 22a1 1 0 0 0 1.41-1.41z"/></svg>