<?xml version="1.0" standalone="no"?><svg xmlns="http://www.w3.org/2000/svg" viewBox="0 0 1440 320"><path fill="#3498DB" fill-opacity="1" d="M0,96L34.3,128C68.6,160,137,224,206,208C274.3,192,343,96,411,101.3C480,107,549,213,617,224C685.7,235,754,149,823,106.7C891.4,64,960,64,1029,53.3C1097.1,43,1166,21,1234,64C1302.9,107,1371,213,1406,266.7L1440,320L1440,320L1405.7,320C1371.4,320,1303,320,1234,320C1165.7,320,1097,320,1029,320C960,320,891,320,823,320C754.3,320,686,320,617,320C548.6,320,480,320,411,320C342.9,320,274,320,206,320C137.1,320,69,320,34,320L0,320Z"></path></svg>