<svg width="28" height="28" viewBox="0 0 28 28" fill="none" xmlns="http://www.w3.org/2000/svg">
<path d="M15.6333 2.44555C13.7097 2.18225 11.7507 2.39934 9.93139 3.07745C8.11204 3.75555 6.4889 4.87358 5.20685 6.33172C4.1096 7.59543 3.29548 9.07932 2.81917 10.6837C2.34287 12.2881 2.2154 13.9758 2.44535 15.6336C3.06368 20.1766 6.47968 24.0417 10.9445 25.2539C11.9398 25.5263 12.9669 25.6651 13.9988 25.6669L14.1645 25.6657C14.7543 25.6581 15.3326 25.5016 15.8458 25.2108C16.359 24.9199 16.7903 24.5042 17.0998 24.0021C17.4104 23.5027 17.5896 22.9328 17.6208 22.3456C17.652 21.7583 17.5342 21.1727 17.2783 20.6432L17.0462 20.1579C16.8676 19.809 16.7838 19.4194 16.803 19.0279C16.8222 18.6364 16.9439 18.2569 17.1558 17.9272C17.4591 17.4346 17.9342 17.072 18.4892 16.9093C19.0443 16.7466 19.64 16.7954 20.1612 17.0464L20.6418 17.2762C21.1225 17.5072 21.6335 17.6251 22.1597 17.6251C23.0805 17.6203 23.9629 17.2555 24.6183 16.6087C25.2737 15.9618 25.6499 15.0842 25.6667 14.1636C25.6811 13.0762 25.5425 11.9923 25.2548 10.9436C24.0415 6.47989 20.1763 3.06389 15.6333 2.44555ZM21.651 15.1727L21.1703 14.9429C19.0377 13.9186 16.422 14.7119 15.1795 16.6859C14.3185 18.0579 14.231 19.6912 14.9415 21.1682L15.1737 21.6536C15.2607 21.8299 15.3009 22.0256 15.2905 22.2219C15.2801 22.4183 15.2194 22.6086 15.1142 22.7747C15.0117 22.9444 14.8673 23.0849 14.6948 23.1828C14.5224 23.2806 14.3278 23.3325 14.1295 23.3336H13.9988C13.1732 23.3313 12.3514 23.2203 11.5547 23.0034C7.98118 22.0339 5.25118 18.9446 4.75768 15.3197C4.38318 12.5722 5.16835 9.92622 6.96618 7.86589C7.98904 6.69249 9.28908 5.79348 10.748 5.25066C12.2069 4.70784 13.7784 4.53845 15.3195 4.75789C18.9443 5.25139 22.0337 7.98255 23.0032 11.5549C23.2342 12.4066 23.345 13.2746 23.3322 14.1297C23.3182 15.0712 22.3463 15.5099 21.651 15.1727Z" fill="#ADA9A9"/>
<path d="M8.75003 18.6669C9.71653 18.6669 10.5 17.8834 10.5 16.9169C10.5 15.9504 9.71653 15.1669 8.75003 15.1669C7.78354 15.1669 7.00003 15.9504 7.00003 16.9169C7.00003 17.8834 7.78354 18.6669 8.75003 18.6669Z" fill="#ADA9A9"/>
<path d="M8.75003 14.0002C9.71653 14.0002 10.5 13.2167 10.5 12.2502C10.5 11.2837 9.71653 10.5002 8.75003 10.5002C7.78354 10.5002 7.00003 11.2837 7.00003 12.2502C7.00003 13.2167 7.78354 14.0002 8.75003 14.0002Z" fill="#ADA9A9"/>
<path d="M12.25 10.5002C13.2165 10.5002 14 9.71672 14 8.75022C14 7.78372 13.2165 7.00022 12.25 7.00022C11.2835 7.00022 10.5 7.78372 10.5 8.75022C10.5 9.71672 11.2835 10.5002 12.25 10.5002Z" fill="#ADA9A9"/>
<path d="M16.9167 10.5002C17.8832 10.5002 18.6667 9.71672 18.6667 8.75022C18.6667 7.78372 17.8832 7.00022 16.9167 7.00022C15.9502 7.00022 15.1667 7.78372 15.1667 8.75022C15.1667 9.71672 15.9502 10.5002 16.9167 10.5002Z" fill="#ADA9A9"/>
</svg>
