<svg width="122" height="122" viewBox="0 0 122 122" fill="none" xmlns="http://www.w3.org/2000/svg">
<path d="M57.2152 121.156C88.8143 121.156 114.43 119.515 114.43 117.49C114.43 115.465 88.8143 113.824 57.2152 113.824C25.6161 113.824 0 115.465 0 117.49C0 119.515 25.6161 121.156 57.2152 121.156Z" fill="#D1D3D4"/>
<path d="M66.3999 59.7623C67.5349 59.0837 68.6284 58.3381 69.6747 57.5294C71.9186 55.7928 72.5856 54.2988 73.2362 51.6028C73.6717 49.7835 72.299 48.0689 70.9482 46.7733C69.5975 45.4778 68.0594 44.0444 68.0373 42.1754C68.0373 40.7365 68.9359 39.4795 69.4817 38.1453C72.3651 31.1216 64.349 28.0232 62.7447 22.1573C61.1404 16.2913 59.2494 11.4673 52.0658 13.3363C50.3237 13.7828 48.598 14.3782 46.8063 14.4389C45.1523 14.5216 43.5315 14.1743 41.8886 14.1522C39.5916 14.1532 37.3374 14.7733 35.3631 15.9473C33.3887 17.1212 31.7673 18.8055 30.6694 20.8231C29.7928 22.477 30.311 24.6823 29.4896 25.9889C27.3339 29.418 22.1902 28.58 23.2818 34.1869C23.6732 36.1826 24.5278 38.2831 23.7669 40.1741C22.7966 42.5834 19.803 43.3056 17.7025 44.8493C14.2789 47.3743 13.3857 52.4574 15.0231 56.3882C16.6605 60.3191 20.3543 63.1142 24.3679 64.5421C28.3814 65.97 32.7092 66.1961 36.9709 66.1961C47.1371 66.2347 57.7939 64.9281 66.3999 59.7623Z" fill="white"/>
<path d="M37.1309 66.4717H36.9821C32.8031 66.4717 28.3816 66.2622 24.3019 64.8178C19.7921 63.2135 16.3299 60.1923 14.8083 56.5481C13.0275 52.2699 14.2129 47.1758 17.5648 44.7059C18.2691 44.2137 19.0058 43.7698 19.7701 43.3773C21.3744 42.5117 22.896 41.7233 23.519 40.1411C24.0703 38.7407 23.7009 37.1585 23.3261 35.6313C23.2213 35.1848 23.111 34.7382 23.0283 34.2971C22.3061 30.6034 24.1806 29.5559 26.1653 28.4422C27.312 27.8027 28.4918 27.1411 29.2692 25.9117C29.6129 25.1881 29.7918 24.3973 29.793 23.5962C29.8168 22.6204 30.0341 21.659 30.4325 20.7679C31.5409 18.732 33.1717 17.028 35.1571 15.8314C37.1425 14.6347 39.4109 13.9885 41.7289 13.9592H41.8777C42.5999 13.9592 43.3222 14.0364 44.0223 14.1081C44.9368 14.2181 45.858 14.2624 46.7789 14.2404C48.1514 14.1214 49.5066 13.8515 50.82 13.4355L51.9943 13.1157C59.3323 11.2302 61.306 16.0873 62.9764 22.1407C63.5718 24.3074 65.1045 26.1267 66.5875 27.8854C69.0243 30.7798 71.5493 33.7734 69.7024 38.2721C69.5481 38.6525 69.3551 39.0384 69.1511 39.4078C68.6375 40.2542 68.3314 41.2101 68.258 42.1975C68.258 43.9286 69.7355 45.3234 71.0146 46.5583L71.0862 46.619C73.0434 48.4934 73.8097 50.1474 73.4403 51.691C72.7788 54.4476 72.0951 55.9692 69.7906 57.7555C68.7336 58.5701 67.629 59.3213 66.4828 60.0048C59.244 64.3492 49.6292 66.4717 37.1309 66.4717ZM41.7399 14.4334C39.5141 14.4606 37.3358 15.0801 35.4289 16.2284C33.522 17.3766 31.9553 19.012 30.8901 20.9664C30.524 21.8018 30.3254 22.7009 30.3057 23.6127C30.3027 24.493 30.0971 25.3607 29.7047 26.1488C28.8612 27.4829 27.6208 28.1776 26.3969 28.8502C24.4948 29.9142 22.8519 30.8349 23.5025 34.1648C23.5907 34.6004 23.6954 35.0359 23.8002 35.477C24.1916 37.0813 24.5941 38.7462 23.9711 40.2954C23.2764 42.021 21.606 42.9197 19.9906 43.7907C19.2439 44.1697 18.5237 44.5989 17.835 45.0753C14.6594 47.4184 13.5458 52.2424 15.2383 56.3221C16.7103 59.856 20.0623 62.7779 24.4342 64.3326C28.4477 65.7605 32.8252 65.9866 36.9545 65.9866H37.1033C49.5079 65.9866 59.0401 63.8861 66.2457 59.5638C67.3701 58.8926 68.4544 58.1562 69.4929 57.3585C71.6982 55.666 72.3322 54.205 72.9607 51.5698C73.286 50.219 72.5637 48.7195 70.7554 46.9828L70.6838 46.9222C69.3275 45.6211 67.7839 44.1656 67.7673 42.203C67.8383 41.1355 68.1614 40.1001 68.7101 39.1818C68.892 38.8179 69.0739 38.4485 69.2283 38.0791C70.9539 33.8671 68.6384 31.1216 66.1906 28.2107C64.6745 26.4134 63.1032 24.5499 62.4802 22.273C60.8263 16.2747 59.0125 11.8312 52.1101 13.6064C51.7186 13.7056 51.3327 13.8104 50.9468 13.9206C49.5971 14.346 48.2051 14.6233 46.7954 14.7476C45.8488 14.7684 44.9018 14.7223 43.9617 14.6098C43.2725 14.5381 42.5613 14.472 41.8612 14.4609L41.7399 14.4334Z" fill="#231F20"/>
<path d="M16.7434 76.3622C16.7434 76.3622 21.2421 52.1045 25.7408 47.9972C30.2395 43.8899 42.1754 43.8899 48.4328 43.6915C54.6902 43.493 63.8696 45.6486 67.9989 49.7559C72.1282 53.8632 76.4064 79.8741 76.4064 79.8741L67.8004 78.8928L73.2805 93.3702C73.2805 93.3702 54.3043 103.581 45.4999 102.969C36.6954 102.357 22.8078 90.4483 22.8078 90.4483L23.5907 74.4051L16.7434 76.3622Z" fill="#68E1FD"/>
<path d="M65.4518 74.8516C65.4187 74.8502 65.3862 74.8422 65.3563 74.8281C65.3263 74.814 65.2995 74.794 65.2774 74.7693C65.2553 74.7446 65.2384 74.7158 65.2276 74.6845C65.2169 74.6532 65.2125 74.62 65.2147 74.587C65.6006 67.0781 62.8992 52.4904 62.8716 52.3471C62.8655 52.3149 62.8657 52.2817 62.8724 52.2496C62.879 52.2175 62.8919 52.187 62.9103 52.1599C62.9288 52.1327 62.9524 52.1095 62.9798 52.0915C63.0072 52.0735 63.0379 52.061 63.0701 52.0549C63.1023 52.0487 63.1354 52.049 63.1675 52.0556C63.1997 52.0623 63.2302 52.0752 63.2573 52.0936C63.2844 52.112 63.3077 52.1356 63.3257 52.163C63.3437 52.1904 63.3561 52.2211 63.3623 52.2534C63.3623 52.4022 66.1188 67.0451 65.7164 74.6146C65.715 74.6477 65.707 74.6801 65.6929 74.7101C65.6787 74.74 65.6587 74.7668 65.6341 74.7889C65.6094 74.811 65.5806 74.8279 65.5493 74.8387C65.5179 74.8495 65.4848 74.8539 65.4518 74.8516Z" fill="#231F20"/>
<path d="M32.0035 69.7686C31.9372 69.7686 31.8735 69.7426 31.8261 69.6962C31.7787 69.6499 31.7514 69.5868 31.7499 69.5205C31.7499 69.4102 31.579 58.6431 33.5196 51.6469C33.5389 51.5837 33.5816 51.5302 33.639 51.4974C33.6964 51.4646 33.7641 51.455 33.8284 51.4705C33.8605 51.4788 33.8906 51.4934 33.9169 51.5135C33.9433 51.5337 33.9653 51.5588 33.9818 51.5876C33.9982 51.6164 34.0087 51.6482 34.0127 51.6811C34.0166 51.714 34.014 51.7474 34.0048 51.7792C32.0807 58.7092 32.2516 69.4212 32.2516 69.5094C32.2531 69.5758 32.2286 69.6401 32.1832 69.6885C32.1379 69.737 32.0753 69.7657 32.009 69.7686H32.0035Z" fill="#231F20"/>
<path d="M51.9777 46.7954L52.8984 55.9582C52.8984 55.9582 52.4519 61.1736 46.7237 60.1371C45.0331 59.8157 43.4353 59.1214 42.0467 58.1048C40.6582 57.0882 39.5137 55.7748 38.6966 54.2601C38.4265 53.7088 38.6029 52.507 38.5698 51.9005L38.2776 46.5252C38.1343 43.8293 37.7539 41.0121 37.8366 38.3272C37.9193 35.6423 37.8366 32.781 37.9413 29.9804C37.9271 29.8167 37.9743 29.6536 38.0736 29.5228C38.1721 29.4322 38.2985 29.3777 38.432 29.3684C39.2071 29.2286 40.0027 29.2493 40.7696 29.429C40.8082 27.527 40.5819 25.6288 40.097 23.7891C41.7143 24.9956 42.9676 26.6247 43.7191 28.4973C45.6202 28.4033 47.526 28.4975 49.4086 28.7785C49.6515 27.4697 49.4699 26.1176 48.8904 24.9193C49.6945 25.9089 50.4312 26.9514 51.0956 28.0397C51.0956 28.1996 53.6482 28.558 53.8246 28.3981C54.2657 28.0067 54.1223 25.3659 54.1775 24.7374C55.4827 26.3758 56.3684 28.308 56.7576 30.3663C57.1987 32.2463 57.149 40.0253 57.1601 41.9879C57.1546 44.8823 55.1037 47.2034 51.9777 46.7954Z" fill="white"/>
<path d="M48.1573 60.5065C47.6615 60.5029 47.167 60.4549 46.6798 60.3632C44.9522 60.0365 43.3201 59.3259 41.904 58.2839C40.488 57.2418 39.3241 55.895 38.4983 54.3428C38.3171 53.7659 38.2607 53.157 38.3329 52.5566C38.3329 52.303 38.3329 52.0714 38.3329 51.8895L38.0462 46.5197C37.9966 45.6266 37.9194 44.7059 37.8478 43.8128C37.6632 41.9811 37.5804 40.1405 37.5997 38.2996C37.6382 36.9875 37.6438 35.6368 37.6493 34.3357C37.6493 32.9023 37.6493 31.4193 37.7044 29.9252C37.6913 29.6985 37.7619 29.4748 37.9029 29.2967C38.0426 29.1711 38.2179 29.0921 38.4046 29.0707C39.1101 28.9439 39.8326 28.9439 40.5381 29.0707C40.5481 27.2922 40.3238 25.5201 39.8711 23.8001C39.8586 23.7495 39.862 23.6962 39.8809 23.6476C39.8998 23.599 39.9332 23.5574 39.9766 23.5285C40.02 23.4995 40.0713 23.4847 40.1234 23.4859C40.1756 23.4872 40.2261 23.5045 40.268 23.5355C41.8737 24.7334 43.1284 26.3403 43.9012 28.1886C45.6786 28.113 47.4592 28.1979 49.2213 28.4422C49.3824 27.259 49.1906 26.0546 48.67 24.9799C48.6437 24.9241 48.6386 24.8606 48.6558 24.8013C48.673 24.742 48.7112 24.691 48.7632 24.6578C48.8153 24.6247 48.8777 24.6117 48.9387 24.6213C48.9997 24.6308 49.0551 24.6623 49.0945 24.7098C49.8874 25.6965 50.6131 26.7353 51.2667 27.8192C52.0519 28.0127 52.8563 28.1181 53.6649 28.1334C53.8799 27.8192 53.8909 26.1598 53.8909 25.5202C53.8909 25.1398 53.8909 24.8366 53.8909 24.6602C53.8951 24.6115 53.9135 24.5651 53.9439 24.5269C53.9743 24.4886 54.0153 24.4602 54.0618 24.4452C54.1091 24.4313 54.1593 24.4307 54.2069 24.4434C54.2545 24.456 54.2978 24.4814 54.332 24.5168C55.5338 25.8951 56.3663 27.72 56.9617 30.2615C57.3587 31.9154 57.3642 38.046 57.3697 40.9845V41.9383C57.3981 42.6876 57.2652 43.4343 56.9798 44.1277C56.6944 44.8211 56.2634 45.4451 55.7158 45.9574C55.2447 46.3647 54.6943 46.67 54.0994 46.854C53.5045 47.0381 52.8779 47.097 52.2591 47.0269L53.1467 55.8865C53.0059 57.3072 52.313 58.6158 51.2171 59.5307C50.3349 60.1888 49.2576 60.5324 48.1573 60.5065ZM39.4521 29.5062C39.1247 29.505 38.798 29.5345 38.4762 29.5944C38.3974 29.6009 38.3214 29.6275 38.2557 29.6716C38.2049 29.7621 38.1837 29.8662 38.1951 29.9693C38.1399 31.4248 38.1399 32.9078 38.1344 34.3357C38.1344 35.6423 38.1344 36.993 38.0848 38.3107C38.0685 40.135 38.1514 41.9588 38.3329 43.7742C38.4046 44.6673 38.4818 45.5935 38.5314 46.4921L38.8181 51.8619C38.8181 52.0549 38.8181 52.303 38.8181 52.5731C38.7557 53.0936 38.7931 53.6213 38.9283 54.1278C39.722 55.6104 40.8385 56.8957 42.1954 57.8891C43.5523 58.8824 45.1149 59.5583 46.768 59.867C48.4936 60.1812 49.8829 59.9386 50.9083 59.1558C51.8759 58.3357 52.4965 57.1792 52.645 55.9196L51.7298 46.7954C51.7254 46.7577 51.7301 46.7195 51.7435 46.684C51.757 46.6485 51.7787 46.6167 51.807 46.5914C51.8346 46.565 51.8677 46.5449 51.9039 46.5326C51.94 46.5202 51.9784 46.5158 52.0165 46.5197C52.6103 46.6247 53.22 46.5976 53.8021 46.4404C54.3843 46.2831 54.9247 45.9997 55.385 45.61C55.8805 45.1448 56.2706 44.5788 56.5293 43.9503C56.7879 43.3217 56.9091 42.6451 56.8846 41.9659V41.0121C56.8846 38.3217 56.8846 32.0257 56.4876 30.4049C56.1378 28.6126 55.4249 26.9108 54.3926 25.4044V25.5478C54.3926 27.0529 54.3485 28.2272 53.9736 28.5635C53.5987 28.8998 51.388 28.4367 51.0682 28.3099C51.0196 28.296 50.9744 28.2722 50.9354 28.24C50.8965 28.2077 50.8648 28.1677 50.8422 28.1224C50.4618 27.4939 50.0538 26.8765 49.6238 26.281C49.8 27.1106 49.8113 27.9667 49.6569 28.8005C49.646 28.8646 49.6105 28.9218 49.5579 28.9599C49.5054 28.9981 49.4399 29.0141 49.3757 29.0045C47.5074 28.7281 45.6166 28.6357 43.7303 28.7289C43.6776 28.7339 43.6249 28.7208 43.5808 28.6917C43.5366 28.6626 43.5038 28.6193 43.4877 28.569C42.847 26.9685 41.8295 25.5463 40.5216 24.4231C40.8845 26.0514 41.0529 27.717 41.0233 29.3849C41.0217 29.4223 41.012 29.459 40.9949 29.4923C40.9777 29.5256 40.9536 29.5548 40.9241 29.5779C40.8945 29.6022 40.8597 29.6193 40.8224 29.6279C40.7851 29.6365 40.7463 29.6364 40.7091 29.6275C40.2963 29.5374 39.8744 29.4967 39.4521 29.5062Z" fill="#231F20"/>
<path d="M52.3526 51.2831C52.3526 51.2831 48.6423 51.7958 46.018 49.5409C43.3938 47.2861 43.5096 44.75 43.5096 44.75C43.5096 44.75 47.7877 47.0711 51.9777 46.7733L52.3526 51.2831Z" fill="#231F20"/>
<path d="M51.3823 51.5753C49.3847 51.6209 47.434 50.9655 45.8692 49.7229C43.1843 47.4184 43.2725 44.8493 43.2781 44.761C43.2796 44.7198 43.2917 44.6796 43.3131 44.6443C43.3345 44.609 43.3646 44.5797 43.4005 44.5593C43.4364 44.5389 43.4769 44.528 43.5181 44.5276C43.5594 44.5272 43.6001 44.5373 43.6364 44.5571C43.6805 44.5571 47.9036 46.845 51.9723 46.5528C52.0357 46.5482 52.0985 46.5688 52.147 46.61C52.1954 46.6513 52.2258 46.7099 52.2314 46.7733L52.6063 51.2831C52.6097 51.3446 52.5902 51.4051 52.5515 51.453C52.5128 51.5009 52.4576 51.5327 52.3968 51.5422C52.0596 51.574 51.7208 51.585 51.3823 51.5753ZM43.7742 45.1415C44.0128 46.7934 44.8701 48.2931 46.1725 49.3369C48.3171 51.1783 51.2555 51.1066 52.088 51.046L51.7572 47.0104C48.306 47.2034 44.8989 45.6928 43.7742 45.1415Z" fill="#231F20"/>
<path d="M49.0008 39.6283C48.6946 39.6269 48.3888 39.6048 48.0856 39.5621C48.0216 39.5513 47.9643 39.5158 47.9262 39.4632C47.8881 39.4106 47.8721 39.3452 47.8816 39.281C47.8863 39.2489 47.8974 39.2182 47.9141 39.1905C47.9309 39.1628 47.953 39.1387 47.9792 39.1197C48.0054 39.1007 48.0352 39.0871 48.0667 39.0798C48.0982 39.0724 48.1309 39.0715 48.1628 39.077C48.681 39.1597 50.1255 39.2479 50.572 38.6635C50.8753 38.2555 49.4088 35.9069 47.8155 33.9994C47.7956 33.9744 47.7808 33.9458 47.7719 33.9151C47.7631 33.8844 47.7604 33.8522 47.764 33.8205C47.7676 33.7888 47.7774 33.758 47.7928 33.7301C47.8083 33.7021 47.8291 33.6775 47.8541 33.6576C47.8791 33.6377 47.9077 33.6229 47.9384 33.614C47.9691 33.6052 48.0012 33.6025 48.033 33.6061C48.0647 33.6097 48.0954 33.6195 48.1234 33.6349C48.1513 33.6504 48.176 33.6712 48.1959 33.6962C49.0118 34.6996 51.6306 38.046 50.9524 38.9557C50.5445 39.507 49.6734 39.6283 49.0008 39.6283Z" fill="#231F20"/>
<path d="M40.4553 33.3048C39.9992 32.1939 39.3178 31.1896 38.454 30.3552C37.5334 29.5889 36.144 29.2526 35.1462 29.8756C34.0435 30.5647 33.7679 32.0809 33.8947 33.415C34.0712 34.9102 34.4804 36.3686 35.1076 37.7373C35.404 38.5755 35.9109 39.3235 36.5796 39.9095C36.92 40.1935 37.344 40.3585 37.7868 40.3794C38.2297 40.4003 38.6672 40.2759 39.0329 40.0253" fill="white"/>
<path d="M37.9469 40.6372C37.3835 40.6219 36.8394 40.4289 36.3922 40.0859C35.6889 39.4725 35.1554 38.6883 34.843 37.809C34.2011 36.4132 33.7843 34.9246 33.6081 33.3985C33.5309 32.5605 33.5033 30.5206 34.9808 29.6165C36.1772 28.8832 37.6988 29.3629 38.6029 30.1182C39.4953 30.9743 40.1994 32.007 40.6704 33.1504C40.6902 33.1805 40.7034 33.2145 40.7091 33.2501C40.7148 33.2857 40.7128 33.3221 40.7032 33.3569C40.6937 33.3917 40.6769 33.424 40.6539 33.4518C40.6309 33.4795 40.6022 33.5021 40.5698 33.5179C40.5374 33.5337 40.502 33.5424 40.466 33.5435C40.4299 33.5445 40.3941 33.5378 40.3608 33.5239C40.3275 33.51 40.2976 33.4892 40.273 33.4628C40.2485 33.4364 40.2298 33.4051 40.2183 33.3709C39.7745 32.2925 39.114 31.3168 38.2777 30.5041C37.5058 29.859 36.2268 29.44 35.2455 30.0465C33.9719 30.8238 34.0546 32.77 34.1097 33.3544C34.28 34.8241 34.6839 36.2571 35.3061 37.5995C35.5866 38.3981 36.0668 39.1117 36.7009 39.6724C36.9968 39.9204 37.3649 40.0661 37.7503 40.088C38.1358 40.1098 38.518 40.0066 38.84 39.7937C38.8652 39.7724 38.8944 39.7563 38.9259 39.7464C38.9574 39.7365 38.9905 39.733 39.0234 39.7361C39.0562 39.7392 39.0882 39.7488 39.1173 39.7644C39.1464 39.7799 39.172 39.8011 39.1928 39.8268C39.2351 39.8776 39.2559 39.9429 39.2508 40.0088C39.2456 40.0747 39.215 40.136 39.1653 40.1796C38.8266 40.4723 38.3945 40.6346 37.9469 40.6372Z" fill="#231F20"/>
<path d="M44.5735 34.9366C44.8719 34.9366 45.1138 34.3245 45.1138 33.5694C45.1138 32.8143 44.8719 32.2021 44.5735 32.2021C44.2751 32.2021 44.0332 32.8143 44.0332 33.5694C44.0332 34.3245 44.2751 34.9366 44.5735 34.9366Z" fill="#231F20"/>
<path d="M52.7383 34.6445C53.0367 34.6445 53.2786 34.0323 53.2786 33.2772C53.2786 32.5221 53.0367 31.9099 52.7383 31.9099C52.4399 31.9099 52.198 32.5221 52.198 33.2772C52.198 34.0323 52.4399 34.6445 52.7383 34.6445Z" fill="#231F20"/>
<path d="M46.5584 55.6991C46.5584 55.6991 48.9235 49.0392 47.7878 47.1979C46.6521 45.3565 43.4931 43.6088 42.8811 41.9438C42.2692 40.2789 43.3167 36.2488 42.0045 35.8077C40.6924 35.3667 39.7276 39.1156 40.6924 42.1148C40.6924 42.1148 39.1984 40.2789 39.1984 38.5257C39.1984 36.7725 40.3396 34.5838 39.1102 34.0546C37.8807 33.5253 35.9567 37.5609 36.3977 40.8026C36.8388 44.0443 40.9515 48.5982 40.6924 49.4748C40.4333 50.3514 17.9122 72.1943 15.8834 75.7724C13.9979 79.0802 15.1722 86.5395 21.6556 85.7511C28.139 84.9627 42.181 67.001 46.5584 55.6991Z" fill="white"/>
<path d="M20.6962 86.0598C19.7719 86.0931 18.8548 85.8861 18.0344 85.459C17.214 85.0319 16.5184 84.3993 16.0156 83.623C15.2913 82.4315 14.8779 81.0771 14.8134 79.6842C14.7488 78.2913 15.0352 76.9045 15.6462 75.6511C16.9142 73.4458 25.6305 64.6248 32.6321 57.5184C36.5465 53.549 40.2458 49.8 40.4553 49.3866C40.5159 49.144 39.7441 47.9476 39.1211 46.9828C37.9137 45.1194 36.4086 42.7929 36.1495 40.8357C35.7912 38.1949 36.971 34.9532 38.1839 34.0325C38.3179 33.905 38.4852 33.8177 38.6665 33.7806C38.8478 33.7436 39.0359 33.7583 39.2093 33.823C40.2072 34.253 39.9536 35.4769 39.7055 36.7119C39.5616 37.3067 39.4766 37.9142 39.4519 38.5257C39.4959 39.3282 39.7303 40.1086 40.1355 40.8026C39.8488 38.7242 40.3064 36.6127 41.0672 35.8408C41.1898 35.6992 41.3512 35.5966 41.5315 35.5456C41.7118 35.4947 41.903 35.4977 42.0816 35.5541C43.0299 35.8684 42.9858 37.4286 42.9417 39.0715C42.8524 39.9939 42.9119 40.9246 43.1181 41.8281C43.4213 42.655 44.4854 43.5812 45.5163 44.4744C46.4615 45.2078 47.2986 46.0708 48.0027 47.038C49.1881 48.9565 46.9001 55.4786 46.7954 55.7542C44.6838 61.1957 40.1796 68.4895 35.08 74.791C29.6165 81.5225 24.7263 85.5967 21.6665 85.9661C21.3455 86.0182 21.0214 86.0495 20.6962 86.0598ZM38.8895 34.2641C38.7432 34.2762 38.6043 34.3341 38.4926 34.4295C37.5057 35.1792 36.2873 38.1729 36.6512 40.7695C36.8993 42.6109 38.4319 44.9816 39.5511 46.7127C40.5821 48.306 41.0727 49.0944 40.9349 49.5464C40.7971 49.9985 38.669 52.1211 32.996 57.8713C26.3803 64.5642 17.3222 73.738 16.0873 75.8992C15.5204 77.0719 15.2563 78.3678 15.3189 79.6689C15.3815 80.9699 15.7688 82.2345 16.4456 83.3474C17.2285 84.5217 18.7611 85.8503 21.6169 85.503C28.0066 84.7257 42.0155 66.7584 46.3323 55.6109C46.9828 53.786 48.4658 48.7525 47.5837 47.3412C46.9051 46.4187 46.1017 45.5949 45.1965 44.8934C44.0939 43.9175 42.9913 42.9913 42.655 42.0376C42.4237 41.0726 42.3529 40.076 42.4455 39.088C42.4841 37.7594 42.5282 36.2543 41.9328 36.0613C41.8721 36.0613 41.6847 35.9731 41.4366 36.2267C40.6207 37.0317 40.2182 39.8103 40.9404 42.0486C40.9568 42.1042 40.9536 42.1638 40.9314 42.2174C40.9092 42.271 40.8693 42.3153 40.8184 42.343C40.7675 42.3708 40.7086 42.3802 40.6515 42.3698C40.5944 42.3593 40.5427 42.3296 40.5049 42.2857C40.4442 42.2085 38.9612 40.3561 38.9612 38.5367C38.985 37.8918 39.0737 37.2509 39.2258 36.6237C39.485 35.3446 39.6007 34.5452 39.0274 34.2971C38.9823 34.2766 38.9335 34.2654 38.884 34.2641H38.8895Z" fill="#231F20"/>
<path d="M51.8288 55.3076C51.8288 55.3076 49.4637 48.6478 50.6269 46.7954C51.6689 45.1414 53.5268 44.1491 54.7948 42.666C56.1345 41.0948 55.9471 38.3603 56.7079 36.4197C56.8623 36.0227 57.1986 35.5486 57.601 35.6974C57.7683 35.7795 57.9011 35.9182 57.9759 36.0889C58.5678 37.2876 58.9625 38.574 59.1447 39.8984C59.3995 41.0357 59.5398 42.1955 59.5637 43.3607C59.5472 44.4116 59.3379 45.4506 58.9462 46.426C58.7036 47.0434 57.5183 48.3886 57.7223 49.0723C57.9869 49.9489 59.4755 54.42 61.9288 57.4853C64.3822 60.5506 76.919 72.5857 78.6777 80.2159C79.6094 84.235 79.003 89.07 72.5195 88.2816C66.0361 87.4932 56.2117 66.6095 51.8288 55.3076Z" fill="white"/>
<path d="M73.8262 88.6289C73.3711 88.6274 72.9165 88.5998 72.4645 88.5462C65.8046 87.7358 55.9251 66.4938 51.5973 55.3958C51.4981 55.1202 49.2046 48.6037 50.3955 46.6796C51.0619 45.7204 51.8771 44.8736 52.8102 44.1711C53.4473 43.6706 54.0412 43.1173 54.5854 42.5172C55.3628 41.6075 55.6109 40.2182 55.8424 38.8785C55.9649 38.0174 56.1698 37.17 56.4544 36.348C56.6639 35.7967 57.1049 35.2454 57.6728 35.4769C57.8971 35.5798 58.0771 35.7598 58.18 35.9841C58.7857 37.1966 59.188 38.5004 59.3708 39.8433C59.6348 40.9977 59.7771 42.1766 59.7953 43.3607C59.7817 44.4416 59.5686 45.5107 59.1668 46.5142C59.0273 46.804 58.8651 47.0824 58.6817 47.3467C58.3454 47.8649 57.8437 48.6478 57.9484 49.0006C58.0091 49.2046 59.4756 54.0396 62.1053 57.3254C62.6236 57.9705 63.5884 59.0124 64.8123 60.3356C69.5591 65.4793 77.4925 74.0798 78.9093 80.1553C79.3118 81.8974 79.7198 85.1171 77.9611 87.0742C77.0294 88.1107 75.6456 88.6289 73.8262 88.6289ZM52.0659 55.2194C57.0278 68.0209 66.571 87.3223 72.5251 88.0446C74.8517 88.3257 76.5497 87.8902 77.5807 86.7435C79.1905 84.9572 78.7936 81.9305 78.4132 80.2821C77.0404 74.361 68.8203 65.4573 64.4098 60.694C63.1804 59.3598 62.2046 58.3068 61.6863 57.6507C58.9959 54.2877 57.4964 49.381 57.4357 49.155C57.2648 48.6037 57.7775 47.7877 58.2296 47.0876C58.396 46.8534 58.5435 46.6064 58.6707 46.3488C59.0483 45.3989 59.2501 44.3883 59.2661 43.3662C59.2413 42.2178 59.1028 41.0747 58.8526 39.9536C58.6773 38.6582 58.2938 37.3997 57.7169 36.2267C57.6452 36.1054 57.5625 35.9786 57.4688 35.9455C57.2483 35.8628 57.0002 36.2543 56.9175 36.5244C56.6449 37.3161 56.4492 38.1321 56.3331 38.9612C56.085 40.3671 55.8314 41.8225 54.9603 42.8204C54.3994 43.4423 53.7871 44.0158 53.13 44.535C52.2346 45.1969 51.4542 46.0015 50.82 46.9167C49.9379 48.3611 51.4209 53.4111 52.0659 55.2194Z" fill="#231F20"/>
<path d="M42.9584 95.7299C42.9584 95.7299 18.8936 73.0379 8.72188 77.5366C-1.44983 82.0353 -1.25136 94.947 4.22318 102.379C9.69771 109.81 30.0466 115.875 46.8727 114.315C63.6987 112.754 86.9696 106.486 91.4738 100.62C95.9781 94.7541 92.6426 84.9683 84.6265 82.4267C76.6105 79.8852 56.0631 96.3143 42.9584 95.7299Z" fill="#231F20"/>
<path d="M41.4807 114.794C26.2314 114.794 9.09665 109.402 4.03009 102.522C0.683624 97.9847 -0.578884 91.6832 0.80491 86.4733C1.31082 84.4448 2.28072 82.5613 3.63825 80.9713C4.99578 79.3813 6.70387 78.1282 8.62803 77.3105C18.6619 72.9 41.376 93.916 43.0575 95.5038C49.6732 95.7629 58.3454 91.606 66.0141 87.9398C73.5506 84.3398 80.6625 80.9271 84.6981 82.2117C86.689 82.8532 88.4965 83.9638 89.9683 85.45C91.4401 86.9362 92.5332 88.7545 93.1552 90.7515C94.302 94.3957 93.7561 98.0509 91.6667 100.785C87.19 106.618 63.9246 112.986 46.8946 114.568C45.1139 114.717 43.3221 114.794 41.4807 114.794ZM11.7871 77.1892C10.7708 77.1645 9.7605 77.3522 8.82099 77.7405C6.96709 78.528 5.32083 79.7343 4.01135 81.2647C2.70186 82.7951 1.76475 84.6082 1.27353 86.5615C-0.0716735 91.6391 1.16327 97.7807 4.42152 102.202C10.0118 109.794 30.6309 115.544 46.845 114.039C63.7813 112.462 86.8758 106.177 91.2808 100.438C93.2765 97.8359 93.7892 94.3406 92.6921 90.8508C92.0944 88.9269 91.0425 87.1752 89.6253 85.7435C88.208 84.3118 86.4669 83.2423 84.5492 82.6252C80.69 81.4068 73.6718 84.7698 66.2236 88.3313C58.4667 92.0361 49.6843 96.2371 42.9472 95.9394C42.8896 95.9359 42.835 95.9125 42.7928 95.8732C42.5723 95.6968 22.8023 77.1892 11.7871 77.1892Z" fill="#231F20"/>
<path d="M28.0562 111.69L43.6197 119.199L50.5883 101.596C50.5883 101.596 28.2877 85.9386 22.8077 90.4483C17.3277 94.958 26.292 110.323 28.0562 111.69Z" fill="#231F20"/>
<path d="M43.6199 119.442C43.5855 119.45 43.5496 119.45 43.5152 119.442L27.9516 111.933L27.9075 111.905C26.5017 110.803 20.9004 101.53 20.8177 95.1179C20.7846 92.9127 21.4076 91.3083 22.6535 90.2829C28.2108 85.718 49.8112 100.758 50.7263 101.419C50.7703 101.451 50.8028 101.496 50.8187 101.548C50.8346 101.6 50.8332 101.655 50.8146 101.706L43.846 119.293C43.8268 119.337 43.7952 119.374 43.755 119.401C43.7149 119.427 43.668 119.442 43.6199 119.442ZM28.1832 111.486L43.4876 118.868L50.2908 101.69C48.2895 100.306 28.0013 86.4954 22.9623 90.6633C21.8596 91.5895 21.2753 93.0891 21.3083 95.1179C21.4076 101.204 26.827 110.384 28.1832 111.486Z" fill="#231F20"/>
<path d="M49.8057 117.639C49.8057 117.639 60.4405 121.167 70.342 119.69C81.4951 118.036 84.8195 113.041 79.163 108.542C73.5066 104.044 50.4066 107.859 50.4066 107.859L49.8057 117.639Z" fill="#68E1FD"/>
<path d="M65.2422 120.302C59.9808 120.226 54.7564 119.409 49.7228 117.876C49.6706 117.858 49.6257 117.824 49.5948 117.778C49.564 117.732 49.5489 117.678 49.5519 117.622L50.1418 107.842C50.1449 107.785 50.1674 107.731 50.2055 107.689C50.2437 107.647 50.2951 107.619 50.3513 107.611C51.294 107.451 73.6112 103.829 79.3062 108.344C81.55 110.125 82.4818 112.032 81.9966 113.857C81.2248 116.735 76.9907 118.957 70.3805 119.921C68.6793 120.174 66.962 120.301 65.2422 120.302ZM50.0756 117.457C51.5311 117.909 61.2893 120.765 70.3198 119.442C76.7206 118.488 80.7947 116.404 81.517 113.725C81.9525 112.109 81.0814 110.389 79.003 108.763C73.7545 104.6 52.9094 107.737 50.6435 108.096L50.0756 117.457Z" fill="#231F20"/>
<path d="M44.5293 116.895C44.5293 116.895 53.7142 119.789 55.4784 114.508C57.2426 109.226 53.422 108.735 48.6311 107.66L44.5293 116.895Z" fill="white"/>
<path d="M49.6896 117.915H49.3368C47.6837 117.851 46.0448 117.582 44.4577 117.115C44.4234 117.105 44.3918 117.087 44.3651 117.064C44.3384 117.04 44.3173 117.01 44.3033 116.977C44.2869 116.946 44.2783 116.911 44.2783 116.875C44.2783 116.84 44.2869 116.805 44.3033 116.773L48.4216 107.561C48.4447 107.507 48.4862 107.463 48.5387 107.437C48.5912 107.411 48.6513 107.404 48.7083 107.418L49.5353 107.6C52.358 108.223 54.8003 108.757 55.7596 110.444C56.3109 111.459 56.3109 112.815 55.7596 114.585C54.9822 116.812 52.9038 117.915 49.6896 117.915ZM44.8767 116.713C46.3928 117.126 53.7418 118.918 55.2358 114.408C55.7872 112.754 55.7872 111.553 55.302 110.67C54.453 109.182 52.1099 108.664 49.403 108.068L48.7745 107.93L44.8767 116.713Z" fill="#231F20"/>
<path d="M25.818 110.703C25.7715 110.701 25.7262 110.688 25.6857 110.665C25.5699 110.588 13.7387 103.299 6.94104 100.262C6.91078 100.249 6.88345 100.229 6.86064 100.206C6.83783 100.182 6.81999 100.154 6.80819 100.123C6.79638 100.092 6.79083 100.059 6.79187 100.026C6.79291 99.9933 6.80052 99.9609 6.81424 99.9309C6.82738 99.9006 6.84642 99.8733 6.87024 99.8504C6.89407 99.8276 6.92221 99.8098 6.95301 99.798C6.98381 99.7862 7.01666 99.7806 7.04963 99.7817C7.0826 99.7827 7.11503 99.7903 7.14503 99.804C13.9813 102.853 25.8345 110.163 25.9558 110.235C25.9845 110.252 26.0095 110.274 26.0292 110.301C26.049 110.328 26.0632 110.359 26.0709 110.391C26.0786 110.423 26.0797 110.457 26.0742 110.49C26.0686 110.523 26.0565 110.554 26.0385 110.582C26.0151 110.619 25.9825 110.65 25.9439 110.671C25.9054 110.693 25.862 110.704 25.818 110.703Z" fill="white"/>
<path d="M19.5826 106.486C19.5826 106.486 14.6208 105.51 13.3197 109.243C12.0186 112.975 13.3197 120.269 16.6275 121.564C19.9354 122.86 25.0406 117.556 26.9977 117.066C28.9549 116.575 33.9828 114.579 33.9828 114.579L19.5826 106.486Z" fill="#68E1FD"/>
<path d="M17.7744 122C17.3585 122.003 16.9456 121.93 16.556 121.785C13 120.423 11.7926 112.909 13.0827 109.143C14.4114 105.284 19.5772 106.232 19.6268 106.238L19.704 106.265L34.1208 114.342C34.164 114.364 34.1994 114.398 34.2221 114.44C34.2448 114.483 34.2537 114.531 34.2476 114.579C34.2448 114.626 34.2288 114.671 34.2015 114.709C34.1742 114.747 34.1366 114.777 34.0932 114.794C33.8837 114.877 29.0267 116.807 27.075 117.297C26.4741 117.446 25.5038 118.119 24.3736 118.901C22.3448 120.307 19.8969 122 17.7744 122ZM18.1823 106.629C16.6773 106.629 14.3232 107.021 13.5568 109.309C12.9559 111.078 12.9339 113.802 13.5072 116.25C14.1302 118.924 15.31 120.77 16.7379 121.316C18.8439 122.121 21.7493 120.103 24.0869 118.482C25.2557 117.678 26.2646 116.977 26.9537 116.829C28.5139 116.437 32.0975 115.059 33.4096 114.541L19.4945 106.751C19.0609 106.676 18.6222 106.636 18.1823 106.629Z" fill="#231F20"/>
<path d="M48.6313 107.914H48.5486C48.5172 107.903 48.4883 107.887 48.4634 107.865C48.4386 107.843 48.4184 107.816 48.404 107.786C48.3896 107.757 48.3814 107.724 48.3797 107.691C48.378 107.658 48.3829 107.625 48.3942 107.594L49.982 102.974C48.8353 101.794 38.8455 91.5343 32.0643 86.556C32.011 86.5165 31.9755 86.4575 31.9656 86.3918C31.9558 86.3261 31.9725 86.2593 32.012 86.2059C32.0514 86.1525 32.1105 86.117 32.1762 86.1072C32.2418 86.0974 32.3087 86.1141 32.362 86.1535C39.5622 91.4351 50.3403 102.621 50.4506 102.737C50.4829 102.77 50.5052 102.811 50.5149 102.856C50.5247 102.901 50.5215 102.947 50.5057 102.991L48.8518 107.759C48.8338 107.804 48.8034 107.842 48.7643 107.869C48.7252 107.897 48.679 107.912 48.6313 107.914Z" fill="white"/>
<path d="M49.0724 42.0375C47.806 42.0323 46.563 41.6959 45.4668 41.0617C45.4393 41.0449 45.4156 41.0227 45.397 40.9965C45.3785 40.9702 45.3654 40.9404 45.3587 40.909C45.352 40.8775 45.3518 40.845 45.358 40.8135C45.3643 40.7819 45.3769 40.7519 45.3951 40.7254C45.4124 40.6986 45.4349 40.6754 45.4612 40.6573C45.4875 40.6391 45.5171 40.6264 45.5484 40.6197C45.5796 40.613 45.6119 40.6126 45.6433 40.6185C45.6747 40.6243 45.7046 40.6363 45.7314 40.6538C46.7011 41.2164 47.7992 41.5201 48.9202 41.5355C50.0412 41.551 51.1473 41.2777 52.1321 40.742C52.16 40.7264 52.1907 40.7165 52.2224 40.7128C52.2541 40.709 52.2862 40.7116 52.3169 40.7203C52.3477 40.729 52.3764 40.7437 52.4014 40.7635C52.4265 40.7833 52.4474 40.8078 52.4629 40.8357C52.4785 40.8636 52.4884 40.8942 52.4921 40.9259C52.4958 40.9576 52.4933 40.9898 52.4846 41.0205C52.4759 41.0512 52.4612 41.0799 52.4414 41.105C52.4216 41.13 52.3971 41.1509 52.3692 41.1665C51.3638 41.7364 50.228 42.0365 49.0724 42.0375Z" fill="#231F20"/>
<path d="M75.4857 7.24425C74.3308 7.73196 73.3195 8.50614 72.5472 9.4936C68.9416 14.086 71.2681 19.2904 74.1294 23.6072C77.2058 28.2492 84.4279 27.8247 89.3512 25.9944C91.6667 29.0321 96.3694 30.2781 100.46 29.3022C102.335 28.8311 104.085 27.9586 105.59 26.745C107.095 25.5314 108.319 24.0056 109.176 22.273C110.125 23.927 112.738 24.5499 114.827 24.0041C122.121 22.1076 123.202 12.9117 117.705 8.92575C116.195 7.82313 113.697 7.5199 112.291 8.71625C111.938 6.70948 110.02 4.51525 107.754 3.75444C107.098 3.53943 101.083 3.33545 101.596 4.05215C99.8868 1.65946 96.5403 0.297715 93.2379 0.242584C89.979 0.263237 86.7946 1.22007 84.0641 2.99915C82.5316 3.89066 81.2141 5.10845 80.2049 6.56613C78.6002 6.41082 76.9817 6.64338 75.4857 7.24425Z" fill="white"/>
<path d="M97.6484 29.8977C94.313 29.8977 91.0768 28.5745 89.2575 26.3252C83.9097 28.2492 76.8805 28.2658 73.8979 23.7616C71.3674 19.9354 68.4454 14.268 72.3322 9.30615C73.13 8.28087 74.1779 7.47784 75.3754 6.9741C76.8667 6.37631 78.4774 6.1365 80.0781 6.27393C81.1046 4.84471 82.4193 3.64649 83.9373 2.75656C86.7211 0.973373 89.9541 0.0174369 93.26 0C96.6947 0.0606443 99.8482 1.4279 101.59 3.60007C101.888 3.45673 102.632 3.30236 104.612 3.30787C105.698 3.28691 106.784 3.35884 107.859 3.52288C108.943 3.89945 109.926 4.5227 110.728 5.34355C111.531 6.1644 112.132 7.16042 112.484 8.25314C114.067 7.24976 116.443 7.66324 117.887 8.71073C119.232 9.70869 120.267 11.0662 120.874 12.6268C121.48 14.1874 121.634 15.8877 121.316 17.5317C121.019 19.1583 120.255 20.6634 119.118 21.8635C117.98 23.0637 116.518 23.907 114.91 24.2908C112.975 24.7925 110.439 24.3625 109.226 22.8298C108.329 24.4972 107.093 25.9584 105.598 27.1196C104.102 28.2808 102.38 29.1163 100.543 29.5724C99.5946 29.7967 98.6228 29.9059 97.6484 29.8977ZM89.3512 25.7187C89.3939 25.7191 89.436 25.7293 89.4742 25.7484C89.5124 25.7675 89.5457 25.7951 89.5717 25.829C91.7439 28.6737 96.2922 30.0189 100.394 29.0211C102.23 28.5644 103.944 27.7134 105.418 26.5271C106.892 25.3408 108.09 23.8478 108.928 22.1517C108.951 22.1062 108.985 22.0676 109.028 22.0404C109.071 22.0132 109.12 21.9983 109.171 21.9974C109.221 21.9963 109.27 22.0085 109.314 22.0327C109.357 22.0569 109.394 22.0923 109.419 22.1352C110.334 23.745 112.903 24.2191 114.756 23.7395C116.263 23.3824 117.633 22.5934 118.698 21.4693C119.764 20.3451 120.478 18.9345 120.754 17.4104C121.054 15.8697 120.911 14.2756 120.344 12.8123C119.776 11.349 118.806 10.0761 117.545 9.14076C116.156 8.13186 113.785 7.80107 112.473 8.92023C112.436 8.95187 112.39 8.9731 112.342 8.98181C112.294 8.99051 112.244 8.98639 112.198 8.96985C112.152 8.95333 112.112 8.92531 112.081 8.88856C112.051 8.85181 112.03 8.80762 112.021 8.76035C111.674 6.79217 109.761 4.71372 107.671 4.0356C107.026 3.82059 102.616 3.73238 101.871 4.0356C101.876 4.0959 101.86 4.15593 101.827 4.20647C101.794 4.25701 101.745 4.29526 101.688 4.31531C101.631 4.33536 101.569 4.33611 101.511 4.31745C101.454 4.29879 101.404 4.26174 101.37 4.21202C99.8096 2.00678 96.6175 0.573366 93.2324 0.518235C90.0281 0.549544 86.8991 1.49434 84.213 3.24172C82.7204 4.11484 81.437 5.30411 80.453 6.72601C80.425 6.76693 80.387 6.80005 80.3426 6.82223C80.2982 6.84442 80.249 6.85494 80.1994 6.85281C78.6335 6.6912 77.0518 6.91256 75.5904 7.49785C74.4783 7.96428 73.5058 8.71072 72.7677 9.6645C69.1401 14.2845 71.7147 19.4613 74.361 23.4473C77.2113 27.7531 84.0806 27.6483 89.2464 25.7242C89.2808 25.7165 89.3162 25.7147 89.3512 25.7187Z" fill="#D1D3D4"/>
<path d="M85.9993 31.4799C86.6437 31.2575 87.3333 31.1988 88.0061 31.309C88.4092 31.3211 88.8051 31.4199 89.1666 31.5988C89.5281 31.7776 89.8469 32.0323 90.1011 32.3455C90.5311 33.0236 90.1672 34.1759 89.3623 34.1869C90.4649 33.6356 91.97 34.4625 92.2842 35.6754C92.9403 38.2059 89.6765 39.7827 87.5485 39.6228C86.4844 39.5456 85.4535 39.0384 84.395 39.1873C82.4599 39.4574 81.0871 39.6614 79.6316 37.9248C78.5841 36.6678 78.948 34.9256 79.8081 33.6686C80.0725 33.2448 80.4241 32.8821 80.8395 32.6046C81.2549 32.327 81.7245 32.141 82.2173 32.0588C82.526 32.0147 84.8912 32.3179 84.7202 32.8858C84.8126 32.5697 84.9758 32.2787 85.1974 32.0351C85.419 31.7915 85.6933 31.6017 85.9993 31.4799Z" fill="white"/>
<path d="M87.835 39.9095C87.7322 39.9151 87.6291 39.9151 87.5262 39.9095C87.0888 39.8646 86.6556 39.7853 86.2307 39.6724C85.6496 39.4928 85.04 39.4236 84.4334 39.4684C82.4762 39.7441 80.9546 39.9591 79.422 38.1122C78.2146 36.6623 78.7549 34.7382 79.5818 33.5253C79.8663 33.0684 80.2452 32.6775 80.693 32.379C81.1408 32.0804 81.6473 31.881 82.1785 31.7942C83.0351 31.8007 83.8807 31.9886 84.6594 32.3455C84.9309 31.846 85.3674 31.4562 85.8944 31.2429C86.5824 31.0021 87.3202 30.9395 88.039 31.0609C89.1416 31.1988 89.93 31.6122 90.3324 32.2187C90.4702 32.4536 90.5479 32.719 90.5584 32.9912C90.569 33.2634 90.5122 33.534 90.3931 33.7789C90.6467 33.8081 90.8941 33.8769 91.1263 33.9829C91.47 34.1376 91.7756 34.366 92.0213 34.6518C92.2671 34.9376 92.4471 35.2738 92.5487 35.6368C92.6653 36.0751 92.6719 36.5353 92.568 36.9767C92.4642 37.4181 92.253 37.8271 91.9533 38.1673C91.4193 38.7198 90.7793 39.1589 90.0717 39.4582C89.3641 39.7575 88.6033 39.911 87.835 39.9095ZM84.8083 38.884C85.338 38.9019 85.8637 38.9833 86.374 39.1266C86.7698 39.2328 87.1736 39.3065 87.5814 39.3472C88.3162 39.3898 89.0514 39.2718 89.736 39.0014C90.4205 38.731 91.038 38.3147 91.5453 37.7814C91.7918 37.51 91.9655 37.1806 92.0503 36.8239C92.1351 36.4672 92.1283 36.0949 92.0305 35.7416C91.949 35.4619 91.8084 35.2029 91.6182 34.9822C91.4279 34.7616 91.1925 34.5843 90.9279 34.4625C90.6226 34.3171 90.2822 34.2617 89.9465 34.3026C89.7818 34.4076 89.5905 34.4631 89.3952 34.4625C89.3327 34.4652 89.2712 34.4456 89.2218 34.4073C89.1723 34.3689 89.138 34.3143 89.125 34.253C89.112 34.1916 89.1195 34.1275 89.1464 34.0708C89.1733 34.014 89.2181 33.9676 89.2739 33.9388C89.4172 33.8677 89.5692 33.8158 89.726 33.7844C89.8006 33.7193 89.8624 33.6408 89.9079 33.5529C89.9967 33.3906 90.0432 33.2086 90.0432 33.0236C90.0432 32.8386 89.9967 32.6566 89.9079 32.4943C89.5937 32.0037 88.9597 31.7005 88.0114 31.5847C87.3841 31.475 86.7391 31.5262 86.1369 31.7335C85.8733 31.845 85.6376 32.0136 85.4469 32.2271C85.2562 32.4407 85.1153 32.6939 85.0343 32.9685C85.0072 33.0304 84.9584 33.0802 84.897 33.1084C84.8356 33.1367 84.7659 33.1414 84.7013 33.1217C84.6366 33.1019 84.5815 33.0591 84.5463 33.0014C84.5112 32.9437 84.4985 32.8751 84.5106 32.8086C84.3452 32.577 82.6251 32.2959 82.3053 32.3289C81.8531 32.4083 81.4228 32.5824 81.0428 32.8399C80.6627 33.0974 80.3414 33.4324 80.1001 33.823C79.3834 34.876 78.8982 36.5355 79.9071 37.7483C81.2468 39.3582 82.4983 39.1818 84.3893 38.9171C84.5281 38.8975 84.6681 38.8864 84.8083 38.884Z" fill="#D1D3D4"/>
<path d="M75.5408 39.7717C75.0181 39.546 74.4327 39.5108 73.8868 39.6724C73.6194 39.7564 73.3836 39.9192 73.2104 40.1396C73.0372 40.36 72.9348 40.6277 72.9165 40.9074C72.9171 41.0464 72.9471 41.1837 73.0044 41.3103C73.0618 41.437 73.1452 41.55 73.2493 41.6422C73.3534 41.7343 73.4758 41.8034 73.6085 41.8449C73.7411 41.8865 73.8811 41.8995 74.0191 41.8832C72.7291 42.7267 75.4966 44.9264 76.7206 42.5778C76.8597 42.321 76.9394 42.0361 76.9538 41.7443C76.9682 41.4525 76.9169 41.1611 76.8037 40.8918C76.6904 40.6225 76.5182 40.382 76.2996 40.1881C76.081 39.9943 75.8217 39.8519 75.5408 39.7717Z" fill="white"/>
<path d="M75.2263 43.9065C75.1474 43.912 75.0682 43.912 74.9893 43.9065C74.6411 43.8695 74.3105 43.7343 74.0362 43.5166C73.762 43.299 73.5552 43.0078 73.4401 42.6771C73.3983 42.4931 73.4137 42.3008 73.4842 42.1258C73.3642 42.0799 73.2524 42.0147 73.1534 41.9328C73.0022 41.8134 72.8794 41.662 72.7936 41.4894C72.7078 41.3169 72.6612 41.1276 72.6572 40.9349C72.6745 40.5975 72.7947 40.2734 73.0017 40.0062C73.2086 39.7391 73.4925 39.5418 73.815 39.4409C74.4165 39.2628 75.0611 39.2979 75.6398 39.5401C75.962 39.6539 76.2572 39.8331 76.5067 40.0665C76.7563 40.2999 76.9548 40.5825 77.0898 40.8964C77.1983 41.1902 77.2418 41.504 77.217 41.8163C77.1923 42.1285 77.0999 42.4316 76.9464 42.7047C76.8012 43.0461 76.5629 43.3398 76.2588 43.5523C75.9546 43.7648 75.5969 43.8876 75.2263 43.9065ZM74.0245 41.6075C74.0784 41.6066 74.1314 41.6219 74.1766 41.6514C74.2218 41.6809 74.2572 41.7232 74.2781 41.7729C74.3026 41.8324 74.3056 41.8986 74.2864 41.96C74.2673 42.0214 74.2273 42.0742 74.1733 42.1092C74.0976 42.1477 74.0369 42.2104 74.001 42.2873C73.965 42.3642 73.9558 42.451 73.9749 42.5338C74.0663 42.7572 74.2176 42.9511 74.4122 43.0941C74.6067 43.2371 74.8369 43.3236 75.0775 43.3442C75.3784 43.3679 75.6788 43.2937 75.9342 43.1328C76.1895 42.9719 76.386 42.7327 76.4944 42.4511C76.6119 42.2473 76.6832 42.0202 76.7032 41.7858C76.7232 41.5515 76.6914 41.3156 76.6101 41.0948C76.5057 40.8455 76.3495 40.6212 76.1518 40.4368C75.9541 40.2524 75.7194 40.1121 75.4634 40.0253C75.0021 39.8333 74.49 39.8003 74.0079 39.9316C73.794 39.9958 73.6045 40.1234 73.4647 40.2977C73.3249 40.472 73.2413 40.6846 73.2251 40.9074C73.231 41.0149 73.2602 41.12 73.3106 41.2151C73.3611 41.3103 73.4316 41.3934 73.5173 41.4587C73.5789 41.5153 73.6527 41.5572 73.7329 41.581C73.8132 41.6049 73.8978 41.6102 73.9804 41.5965L74.0245 41.6075Z" fill="#D1D3D4"/>
<path d="M106.458 76.7867C106.548 75.5349 106.283 74.2831 105.692 73.1757C105.207 72.3707 104.468 71.7367 104.071 70.8877C103.387 69.4212 103.867 67.6956 103.707 66.0858C103.562 64.7361 102.968 63.4743 102.02 62.5023C101.177 61.6532 100.091 61.0688 99.2637 60.1812C97.946 58.7258 97.5656 56.6749 96.8158 54.8611C95.7524 52.291 93.9088 50.1196 91.5453 48.6533C92.9842 51.5477 89.7094 55.2249 91.1925 58.0973C91.6611 59.0069 92.5597 59.6685 92.907 60.6333C93.7395 62.9598 90.9609 65.4849 91.854 67.8004C92.2951 68.9526 93.508 69.6197 94.1034 70.7168C94.8807 72.1888 94.2688 73.9751 94.3349 75.64C94.4232 77.9335 95.818 79.9899 97.4774 81.5777C98.5084 82.57 99.6827 83.4245 100.785 84.3342C102.119 85.4368 102.682 86.5395 103.862 84.8139C105.489 82.4473 106.391 79.6579 106.458 76.7867Z" fill="#D1D3D4"/>
<path d="M107.964 78.0989C107.533 76.3236 107.225 74.3941 107.964 72.7181C108.779 70.8216 110.819 69.4819 111.062 67.431C111.216 66.0913 110.511 64.7295 110.803 63.4009C111.095 62.0722 112.153 61.1681 113.047 60.1923C115.104 57.9308 116.327 55.0347 116.514 51.9832C117.804 53.6868 119.111 55.4289 119.822 57.4467C120.533 59.4645 120.539 61.8572 119.343 63.6049C118.998 64.0174 118.716 64.478 118.505 64.9721C118.102 66.2787 119.221 67.5027 119.8 68.7431C120.143 69.4518 120.286 70.2404 120.214 71.0243C120.142 71.8081 119.858 72.5576 119.392 73.1922C118.218 74.6587 115.952 75.2265 115.379 77.0128C115.233 77.6771 115.164 78.3561 115.175 79.0361C115.052 80.2146 114.58 81.3295 113.818 82.2373C113.057 83.1451 112.041 83.8043 110.902 84.1302C109.513 84.4665 109.54 83.9152 109.292 82.7519C108.928 81.1807 108.327 79.6646 107.964 78.0989Z" fill="#D1D3D4"/>
<path d="M103.553 65.325C102.566 61.9124 102.175 58.3454 101.133 54.9493C100.245 52.3014 99.165 49.7217 97.9019 47.2309L102.136 49.0172C103.492 49.5685 104.964 50.2631 105.604 51.5918C106.706 53.9018 104.716 56.8568 105.885 59.1393C106.298 59.9387 107.043 60.512 107.539 61.2453C108.785 62.9985 108.597 65.4022 107.908 67.4365C107.616 68.3131 106.337 72.8394 105.19 71.5824C104.727 71.0807 104.689 69.2007 104.496 68.5171C104.203 67.431 103.839 66.389 103.553 65.325Z" fill="#D1D3D4"/>
<path d="M105.841 110.654C105.003 105.08 102.356 85.4203 102.329 85.2218L103.057 85.1281C103.057 85.3266 105.725 104.975 106.568 110.549L105.841 110.654Z" fill="#D1D3D4"/>
<path d="M106.861 115.924H106.127C106.177 109.309 108.939 83.9924 110.538 82.2558L111.089 82.7465C109.992 83.8932 106.905 106.855 106.861 115.924Z" fill="#D1D3D4"/>
<path d="M108.272 114.662L107.539 114.629C108.173 100.35 105.146 70.364 105.113 70.0663L105.841 69.9891C105.874 70.2923 108.906 100.328 108.272 114.662Z" fill="#D1D3D4"/>
<path d="M98.5911 97.2129H114.348L113.245 113.162C113.154 114.492 112.562 115.738 111.587 116.648C110.613 117.558 109.33 118.064 107.996 118.064H104.948C103.614 118.064 102.33 117.558 101.355 116.648C100.379 115.739 99.7859 114.493 99.6937 113.162L98.5911 97.2129Z" fill="white"/>
<path d="M107.997 118.339H104.948C103.549 118.33 102.205 117.795 101.183 116.84C100.162 115.885 99.5372 114.579 99.4346 113.184L98.332 97.235C98.329 97.1577 98.3568 97.0823 98.4092 97.0255C98.4606 96.9841 98.5252 96.9626 98.5911 96.9648H114.348C114.386 96.9647 114.424 96.9725 114.458 96.9877C114.493 97.0029 114.525 97.0252 114.551 97.0532C114.577 97.0812 114.597 97.1142 114.609 97.1502C114.621 97.1863 114.626 97.2245 114.623 97.2625L113.521 113.212C113.413 114.604 112.784 115.905 111.761 116.855C110.737 117.805 109.393 118.335 107.997 118.339ZM98.8888 97.5161L99.9915 113.173C100.083 114.429 100.645 115.605 101.564 116.465C102.484 117.326 103.694 117.808 104.953 117.815H108.002C109.262 117.809 110.473 117.327 111.392 116.467C112.312 115.606 112.874 114.43 112.964 113.173L114.066 97.5161H98.8888Z" fill="#D1D3D4"/>
</svg>
