<svg width="28" height="28" viewBox="0 0 28 28" fill="none" xmlns="http://www.w3.org/2000/svg">
<path d="M23.3334 20.9999H21V23.3333H7.00004V4.66659H21V6.99992H23.3334V3.49992C23.3334 3.1905 23.2105 2.89375 22.9917 2.67496C22.7729 2.45617 22.4761 2.33325 22.1667 2.33325H5.83337C5.52396 2.33325 5.22721 2.45617 5.00842 2.67496C4.78962 2.89375 4.66671 3.1905 4.66671 3.49992V24.4999C4.66671 24.8093 4.78962 25.1061 5.00842 25.3249C5.22721 25.5437 5.52396 25.6666 5.83337 25.6666H22.1667C22.4761 25.6666 22.7729 25.5437 22.9917 25.3249C23.2105 25.1061 23.3334 24.8093 23.3334 24.4999V20.9999ZM21 12.8333H12.8334V15.1666H21V18.6666L26.8334 13.9999L21 9.33325V12.8333Z" fill="#ADA9A9"/>
</svg>
