<svg width="32" height="32" viewBox="0 0 32 32" fill="none" xmlns="http://www.w3.org/2000/svg">
<path d="M15.9999 30.4711C16.5598 30.4582 17.0972 30.2477 17.5169 29.8768C17.9366 29.5059 18.2116 28.9985 18.2932 28.4444H13.6177C13.7017 29.0136 13.9895 29.5329 14.4277 29.9057C14.8659 30.2785 15.4246 30.4794 15.9999 30.4711Z" fill="#ADA9A9"/>
<path d="M28.8978 24.7378C28.0407 23.9736 27.2902 23.0976 26.6667 22.1333C25.986 20.8023 25.5781 19.3487 25.4667 17.8578V13.4667C25.4631 12.9333 25.4156 12.4011 25.3245 11.8756C24.6249 11.7357 23.9525 11.4836 23.3334 11.1289C23.5694 11.8888 23.6893 12.6799 23.689 13.4756V17.8667C23.7979 19.6854 24.2982 21.4591 25.1556 23.0667C25.7693 24.0391 26.4975 24.9344 27.3245 25.7333H4.56007C5.3871 24.9344 6.11527 24.0391 6.72896 23.0667C7.58639 21.4591 8.08668 19.6854 8.19563 17.8667V13.4667C8.19095 12.4379 8.38923 11.4184 8.77913 10.4664C9.16903 9.51444 9.74287 8.64871 10.4678 7.91882C11.1928 7.18892 12.0546 6.60919 13.0039 6.21282C13.9532 5.81644 14.9713 5.61122 16.0001 5.60889C17.5056 5.6101 18.9774 6.05534 20.2312 6.88889C20.093 6.38133 20.0154 5.85917 20.0001 5.33334V4.77334C19.0719 4.31677 18.0749 4.01644 17.049 3.88445V2.76445C17.049 2.44972 16.9239 2.14789 16.7014 1.92535C16.4788 1.70281 16.177 1.57778 15.8623 1.57778C15.5476 1.57778 15.2457 1.70281 15.0232 1.92535C14.8006 2.14789 14.6756 2.44972 14.6756 2.76445V3.92889C12.3785 4.25294 10.2761 5.39711 8.75671 7.15017C7.23729 8.90322 6.40338 11.1468 6.40896 13.4667V17.8578C6.29763 19.3487 5.88965 20.8023 5.20896 22.1333C4.59641 23.0954 3.85802 23.9713 3.0134 24.7378C2.91859 24.8211 2.8426 24.9236 2.79049 25.0386C2.73838 25.1535 2.71134 25.2782 2.71118 25.4044V26.6133C2.71118 26.8491 2.80483 27.0752 2.97153 27.2419C3.13823 27.4086 3.36432 27.5022 3.60007 27.5022H28.3112C28.5469 27.5022 28.773 27.4086 28.9397 27.2419C29.1064 27.0752 29.2001 26.8491 29.2001 26.6133V25.4044C29.1999 25.2782 29.1729 25.1535 29.1208 25.0386C29.0687 24.9236 28.9927 24.8211 28.8978 24.7378Z" fill="#ADA9A9"/>
<path d="M26.6666 9.77777C29.1212 9.77777 31.1111 7.78793 31.1111 5.33333C31.1111 2.87873 29.1212 0.888885 26.6666 0.888885C24.212 0.888885 22.2222 2.87873 22.2222 5.33333C22.2222 7.78793 24.212 9.77777 26.6666 9.77777Z" fill="#ADA9A9"/>
</svg>
