<svg width="21.527" height="24.692"  viewBox="0 0 188 188" fill="none" xmlns="http://www.w3.org/2000/svg">
<path d="M93.9997 179.018C97.2894 178.942 100.446 177.705 102.912 175.526C105.378 173.347 106.993 170.366 107.473 167.111H80.0042C80.4975 170.455 82.1887 173.506 84.7632 175.696C87.3376 177.886 90.62 179.067 93.9997 179.018V179.018Z" fill="black"/>
<path d="M169.775 145.334C164.739 140.845 160.33 135.699 156.667 130.033C152.668 122.213 150.271 113.673 149.617 104.914V79.1166C149.596 75.983 149.316 72.8565 148.781 69.7689C144.671 68.9472 140.721 67.4659 137.084 65.3822C138.47 69.8464 139.174 74.4943 139.172 79.1689V104.967C139.813 115.651 142.752 126.072 147.789 135.517C151.395 141.23 155.673 146.49 160.531 151.183H26.7902C31.649 146.49 35.927 141.23 39.5324 135.517C44.5698 126.072 47.509 115.651 48.1491 104.967V79.1166C48.1216 73.0729 49.2865 67.0831 51.5772 61.4902C53.8678 55.8973 57.2392 50.8111 61.4982 46.523C65.7573 42.2348 70.8203 38.8289 76.3975 36.5002C81.9747 34.1716 87.9564 32.9659 94.0002 32.9522C102.845 32.9593 111.492 35.5751 118.858 40.4722C118.046 37.4902 117.59 34.4225 117.5 31.3333V28.0433C112.047 25.361 106.19 23.5965 100.162 22.8211V16.2411C100.162 14.3921 99.4279 12.6188 98.1205 11.3114C96.813 10.0039 95.0398 9.26941 93.1908 9.26941C91.3418 9.26941 89.5685 10.0039 88.261 11.3114C86.9536 12.6188 86.2191 14.3921 86.2191 16.2411V23.0822C72.7234 24.986 60.3721 31.708 51.4455 42.0072C42.5188 52.3064 37.6197 65.4874 37.6524 79.1166V104.914C36.9984 113.673 34.6015 122.213 30.6024 130.033C27.0037 135.686 22.6657 140.832 17.7035 145.334C17.1465 145.824 16.7 146.426 16.3939 147.102C16.0877 147.777 15.9289 148.51 15.928 149.251V156.353C15.928 157.738 16.4782 159.067 17.4575 160.046C18.4369 161.025 19.7652 161.576 21.1502 161.576H166.328C167.713 161.576 169.041 161.025 170.021 160.046C171 159.067 171.55 157.738 171.55 156.353V149.251C171.549 148.51 171.39 147.777 171.084 147.102C170.778 146.426 170.332 145.824 169.775 145.334V145.334Z" fill="black"/>
<path d="M156.667 57.4444C171.087 57.4444 182.778 45.7541 182.778 31.3333C182.778 16.9126 171.087 5.22222 156.667 5.22222C142.246 5.22222 130.556 16.9126 130.556 31.3333C130.556 45.7541 142.246 57.4444 156.667 57.4444Z" fill="black"/>
</svg>
