<svg width="26" height="26" viewBox="0 0 26 26" fill="none" xmlns="http://www.w3.org/2000/svg">
<path d="M1.5 1.25H24.5C24.6389 1.25 24.75 1.36109 24.75 1.5V24.5C24.75 24.6389 24.6389 24.75 24.5 24.75H1.5C1.36109 24.75 1.25 24.6389 1.25 24.5V1.5C1.25 1.36109 1.36109 1.25 1.5 1.25ZM8.25 21.25C8.80171 21.25 9.25 20.8017 9.25 20.25V5.75C9.25 5.19829 8.80171 4.75 8.25 4.75H5.75C5.19829 4.75 4.75 5.19829 4.75 5.75V20.25C4.75 20.8017 5.19829 21.25 5.75 21.25H8.25ZM14.25 12.5C14.8017 12.5 15.25 12.0517 15.25 11.5V5.75C15.25 5.19829 14.8017 4.75 14.25 4.75H11.75C11.1983 4.75 10.75 5.19829 10.75 5.75V11.5C10.75 12.0517 11.1983 12.5 11.75 12.5H14.25ZM20.25 14.75C20.8017 14.75 21.25 14.3017 21.25 13.75V5.75C21.25 5.19829 20.8017 4.75 20.25 4.75H17.75C17.1983 4.75 16.75 5.19829 16.75 5.75V13.75C16.75 14.3017 17.1983 14.75 17.75 14.75H20.25Z" stroke="#ADA9A9" stroke-width="1.5"/>
</svg>
