<svg width="19" height="28" viewBox="0 0 19 28" fill="none" xmlns="http://www.w3.org/2000/svg">
<path d="M9.375 2.75C10.3021 2.75 11.2084 3.02492 11.9792 3.53999C12.7501 4.05506 13.3509 4.78714 13.7057 5.64367C14.0605 6.5002 14.1533 7.4427 13.9724 8.35199C13.7916 9.26127 13.3451 10.0965 12.6896 10.7521C12.034 11.4076 11.1988 11.8541 10.2895 12.0349C9.3802 12.2158 8.4377 12.123 7.58117 11.7682C6.72464 11.4134 5.99256 10.8126 5.47749 10.0417C4.96242 9.27088 4.6875 8.3646 4.6875 7.4375C4.6875 6.1943 5.18136 5.00201 6.06044 4.12294C6.93951 3.24386 8.1318 2.75 9.375 2.75ZM9.375 0.875C8.07706 0.875 6.80827 1.25988 5.72907 1.98098C4.64987 2.70208 3.80874 3.727 3.31204 4.92614C2.81534 6.12528 2.68538 7.44478 2.9386 8.71778C3.19181 9.99078 3.81683 11.1601 4.73461 12.0779C5.65239 12.9957 6.82172 13.6207 8.09472 13.8739C9.36772 14.1271 10.6872 13.9972 11.8864 13.5005C13.0855 13.0038 14.1104 12.1626 14.8315 11.0834C15.5526 10.0042 15.9375 8.73544 15.9375 7.4375C15.9375 5.69702 15.2461 4.02782 14.0154 2.79711C12.7847 1.5664 11.1155 0.875 9.375 0.875Z" fill="#ADA9A9"/>
<path d="M18.75 27.125H16.875V22.4375C16.875 21.1943 16.3811 20.002 15.5021 19.1229C14.623 18.2439 13.4307 17.75 12.1875 17.75H6.5625C5.3193 17.75 4.12701 18.2439 3.24794 19.1229C2.36886 20.002 1.875 21.1943 1.875 22.4375V27.125H0V22.4375C0 20.697 0.691404 19.0278 1.92211 17.7971C3.15282 16.5664 4.82202 15.875 6.5625 15.875H12.1875C13.928 15.875 15.5972 16.5664 16.8279 17.7971C18.0586 19.0278 18.75 20.697 18.75 22.4375V27.125Z" fill="#ADA9A9"/>
</svg>
