<svg xmlns="http://www.w3.org/2000/svg" xmlns:xlink="http://www.w3.org/1999/xlink" version="1.1" x="0px" y="0px" viewBox="0 0 96 120" style="enable-background:new 0 0 96 96;" xml:space="preserve"><g><g><path d="M48,50c12.1,0,22-9.9,22-22S60.1,6,48,6s-22,9.9-22,22S35.9,50,48,50z M48,10c9.9,0,18,8.1,18,18s-8.1,18-18,18    s-18-8.1-18-18S38.1,10,48,10z"/><path d="M15.4,90h65.2c5.2,0,9.4-4.2,9.4-9.4c0-7.5-2.6-14.8-7.4-20.6c-6.3-7.6-16.7-10.5-26.6-7.3c-5.2,1.7-10.9,1.7-16.1,0    C30,49.5,19.6,52.3,13.4,60C8.6,65.8,6,73.1,6,80.6C6,85.8,10.2,90,15.4,90z M16.4,62.5c3.8-4.6,9.4-7.1,15.3-7.1    c2.3,0,4.6,0.4,6.9,1.1c6,2,12.6,2,18.6,0c8.3-2.7,17-0.4,22.2,6C83.7,67.6,86,74,86,80.6c0,3-2.4,5.4-5.4,5.4H15.4    c-3,0-5.4-2.4-5.4-5.4C10,74,12.3,67.6,16.4,62.5z"/></g></g><text x="0" y="111" fill="#000000" font-size="5px" font-weight="bold" font-family="'Helvetica Neue', Helvetica, Arial-Unicode, Arial, Sans-serif">Created by icongeek</text><text x="0" y="116" fill="#000000" font-size="5px" font-weight="bold" font-family="'Helvetica Neue', Helvetica, Arial-Unicode, Arial, Sans-serif">from the Noun Project</text></svg>