<svg xmlns="http://www.w3.org/2000/svg" enable-background="new 0 0 823 823" viewBox="0 0 823 823"><switch><g><path fill="#cce9ff" d="M759,586.6c50.9-91.1,30.4-212.3-60.2-282.9c-49.6-38.6-114.7-51-163.4-91.3
			c-54.8-45.3-108.8-100.3-180.2-117.5c-75.9-18.3-159.5,8.8-212.3,65.8C78.5,230,85,327.5,113.8,412.4
			C186.9,627.6,474.4,797.6,685,664.1C717.5,643.5,742.2,616.7,759,586.6z" opacity=".57"/><path fill="#e25333" d="M681.3,541"/><path fill="#f2f2f2" d="M409.7,319.6c0,0-21,29-22.7,82c-0.2,5.2,1.8,55.3,4.9,69.9c0.6,2.7,5.3,6,5.3-3.3c0-9.3,1-55,2.7-66.8
				c1.7-11.7,9.4-50.1,15.2-59.4"/><path fill="#fcd2b1" d="M391.9,471.5c0,0,3.3,23.2,4.7,26.9c1.4,3.8,10,2.5,12.6-0.1c2.6-2.6,3.9-7.1,3.2-9.8
				c-0.7-2.7-4-0.6-5.9-2.4c-2-1.9-5.6-11.7-9.3-15.6C397.1,470.5,394.7,472.6,391.9,471.5z"/><path fill="#0e538c" d="M401.9,476c-3.9,3.5-13.1,48-15.9,80.3c-2.8,32.3-2,43.2,0.4,44.3c2.5,1.1,5.6-1.4,8.2-1.4
				c2.7,0,4.1,7.8,4.8,12.2c0.7,4.4,0.1,12,3.9,12.2c3.8,0.2,7.6,0.2,10.3,3.2c2.7,3.1,6.8,5.3,11.6,3.7c4.8-1.6,7-5.2,8.6-8.5
				c1.5-3.4-5.1-50.5-4.8-65.6c0.3-15.1,5-16.3,4.3-22.7C432.4,527.1,424.6,455.5,401.9,476z"/><path fill="#0e538c" d="M428.9,556.3c0.3-15.1,5-16.3,4.3-22.7c-0.7-6.4-8.4-76.5-30.6-58.2c0,0.1,0.1,0.2,0.1,0.3
				c9.1,24.4,3.7,53.6,2.3,78.8c-1.2,21.7-0.6,42.9-5,63.9c0.4,2.8,1.1,5.1,3.2,5.2c3.8,0.2,7.6,0.2,10.3,3.2
				c2.7,3.1,6.8,5.3,11.6,3.7c4.8-1.6,7-5.2,8.6-8.5C435.3,618.6,428.6,571.5,428.9,556.3z"/><path fill="#181717" d="M479.1,700c0,0,6.4,23.1,6.6,33.2c0.1,10.1,13.4,24.5,17.3,26.7c3.9,2.2,3.8-20.8,1.6-27.7
				c-2.2-6.9-13.5-21.1-16.1-32.2L479.1,700z"/><path fill="#0b4870" d="M407.4,423.5c0,0,2.5,34.9,2.9,50.4c0.4,15.5,7,86.8,8.1,95.6c1.1,8.8,16.1,112.6,16.1,118.3
				c0,5.7,1.3,12.2,6.4,11.3c7.6-1.3,2.3-36.7,3-57.9c0.6-21.2-0.6-68.5-2-77c-2.4-14.5-3.7-52.7-4.2-73.2
				c-0.6-20.4,3.5-61.7,3.5-61.7"/><path fill="#0b4870" d="M456.9,414.3c6.8,19.5,8,36.8,7.4,56.6c-1.5,50.5,7.8,96.3,10,102.8c3,9.1,9.5,53.7,10,81.1
				c0.5,27.5,7.5,47.4,3.1,48.9c-3.5,1.1-7.3,2.1-9.8-6.8c-2.4-8.5-21.9-88.6-27.6-118.1c-3.6-18.5-14.4-73-24.4-109.1
				c-0.9-3.2-8.7-11.6-11.3-18c-1.9-4.6-6.1-22.3-6.7-25.4"/><path fill="#f7f7f7" d="M403.8,403c0.8,6.2,2.3,18.1,3.9,24.5c3.4,13.9,27.6,9.8,33.8,9c5.3-0.7,15.6-6.8,18.7-11.2
					c0,0-1.5-10.7-1.5-15.6c0.4-26.9,5.8-47.8,16.3-72.6c2.2-5.2,4.7-10.9,3.2-16.3c-1.1-4-3.7-5.7-8-7.3c-3.9-1.4-8.7-2.4-12.8-2.9
					c-17.5-2.1-43.5,0.3-49.4,11C398.3,339.5,400.4,375.9,403.8,403z"/><path fill="#ffe3ca" d="M428,289.9c1,7.9,2,15.8,2.9,23.7c0.1,0.7,0.5,7.8,0.9,8.5c1,1.5,1.5,1,3.2,0.6c0.9-0.2,5.5-9.1,5.9-10.5
					c1-4,5.5-34.4,6-42.2"/><path fill="#fcd2b1" d="M443.5,296.5c1.5-10.1,3.1-22.1,3.4-26.6L428,289.9l1.3,10.5C434.2,299.7,438.9,298.3,443.5,296.5z"/><path fill="#ffe3ca" d="M402,232.8c-0.6,10.9-0.6,21.9,0.1,32.8c0.6,10.2,1.9,20.8,7,29.7c0.6,1,1.2,2.1,2.2,2.8
					c0.8,0.6,1.8,0.9,2.8,1.2c5.1,1.1,10.6-0.5,15-3.4c4.4-2.9,7.9-6.9,11.2-11c5.2-6.3,10.3-13,12.4-20.9c0.7-2.4,1-4.8,1.4-7.3
					c1.1-7.1,2.1-14.2,2.2-21.4c0-3.5-0.3-7.1-1.8-10.3c-1.9-3.8-5.5-6.5-9.6-7.8c-4-1.3-8.4-1.1-12.5-0.2"/><path fill="#ffe3ca" d="M453.9,250.5c1.8-3,5.2-4.6,8.7-5.1c1.6-0.2,3.3-0.2,4.7,0.5c2.1,1,3.3,3.3,3.3,5.6c0,2.3-1.2,4.5-2.8,6.1
					s-3.8,2.5-6.1,3.1c-2.2,0.5-4.5,0.7-6.8,0.8c-1.3,0-2.6,0.1-3.7-0.5"/><path fill="#ffbe55" d="M394.3,233.9c2.8,7,18,5.2,25.9,2.7c7.9-2.5,15.5-6.1,23.6-8.1c0.6-0.1,1.2-0.3,1.7-0.1
					c0.8,0.3,1.2,1.3,1.5,2.1c3.8,12.4-1.6,26.3,4,38c6.2-13.8,10.3-31,14.4-46.8c0.7-2.7,1.3-6-0.5-8.2c-1.3-1.5-3.3-2.1-5-3.2
					c-2.1-1.4-3.5-3.5-5.3-5.1c-6-5-15.1-2.9-22.3,0c-11.6,4.7-22.6,10.7-32.7,18C396.1,225.8,392.3,230,394.3,233.9"/><path fill="#551905" d="M407.5,261.6c-4.3,0-7.8-3.4-7.8-7.7c0-4.3,3.4-7.8,7.7-7.9c0,0,0.1,0,0.1,0c4.3,0,7.8,3.4,7.8,7.7
					C415.3,258,411.8,261.5,407.5,261.6C407.5,261.6,407.5,261.6,407.5,261.6z M407.5,246.9C407.5,246.9,407.4,246.9,407.5,246.9
					c-3.8,0-6.9,3.1-6.9,6.9c0,3.8,3.2,6.8,6.9,6.8c1.8,0,3.5-0.7,4.8-2.1c1.3-1.3,2-3,2-4.9c0-1.8-0.7-3.5-2.1-4.8
					C411,247.6,409.3,246.9,407.5,246.9z"/><path fill="#551905" d="M425,253.3c-7.2-3.6-9.7-0.2-9.8,0l-0.8-0.5c0.1-0.2,3.1-4.2,11-0.2L425,253.3z"/><path fill="#551905" d="M432.5,261.5c-4.3,0-7.8-3.4-7.8-7.7c0-4.3,3.4-7.8,7.7-7.9c0,0,0.1,0,0.1,0c4.3,0,7.8,3.4,7.8,7.7v0
					C440.4,257.9,436.9,261.4,432.5,261.5C432.6,261.5,432.6,261.5,432.5,261.5z M432.5,246.8C432.5,246.8,432.5,246.8,432.5,246.8
					c-1.9,0-3.6,0.7-4.9,2.1c-1.3,1.3-2,3-2,4.9c0,3.8,3.1,6.8,6.9,6.8c0,0,0,0,0.1,0c3.8,0,6.8-3.1,6.8-6.9v0
					c0-1.8-0.7-3.5-2.1-4.8C436,247.5,434.3,246.8,432.5,246.8z"/><path fill="#f2f2f2" d="M472,314.3c5.9,1.9,8.9,9.7,10.1,13c18.3,53.6,24,106.1,22.2,162.2c-1.8,1.7-5.1,0.8-6.6-1.2
					c-1.5-2-1.8-4.7-2.1-7.2c-0.8-7.5-1.9-15.1-2.9-22.6c-0.9-6.1-1.7-12.3-2.6-18.4c-2.9-20.5-5.8-41-10.3-61.1
					c-2.9-12.6-6.5-25.4-13.7-36.2"/><path fill="#ffbe55" d="M426.1,401.7c-4.9-3.7-7-12.9-7.3-17.3c-0.3-4.4,8.8-49.7,11.8-54.3s4.4-3.5,5.3,0
				c0.9,3.5-0.6,46.7-0.4,54.4C435.7,392.3,427.9,403.1,426.1,401.7z"/><path fill="#f2f2f2" d="M433.5 323.8c-1-3.9-1.8-10-2.8-13.9-.1-.3-.1-.5-.4-.7-.2-.2-.6-.1-.9-.1-2.4.4-4.9.5-7.3.4C425.3 314.7 429.1 319.5 433.5 323.8M433.5 323.8c1.7-4.2 6.6-11 8.3-15.3.1-.3.2-.6.5-.7.3-.2.7-.1 1 0 2.7.7 5.4 1.2 8.2 1.5C447.1 314.7 440.3 321.1 433.5 323.8"/><path fill="#ffbe55" d="M427.7,321.5c3-2.7,8.8-1.5,12.1,0c0.3,0.1,0.6,0.3,0.7,0.6c0.2,0.4,0.2,0.8,0.1,1.2
					c-0.4,2-1.1,3.9-2.2,5.7c-0.5,0.8-1,1.6-1.9,2.1c-0.8,0.4-1.8,0.4-2.8,0.4c-0.9,0-1.7,0-2.6-0.1c-0.4,0-0.9,0-1.2-0.2
					c-0.5-0.3-0.8-0.9-0.9-1.5C428.4,327.8,427,324.4,427.7,321.5"/><path fill="#181717" d="M435.5,695.1c0,0-5.3,8-16.8,11.8c-9.9,3.3-28.9,4.2-36.2,4.5c-7.2,0.3-15,8.3-14.7,9.6
				c0.3,1.4,28.3,2.1,30.7,2c2.4,0,20.3-7.2,25.6-7.2c5.3,0,15.1,2.4,19.5,1.4c4.5-1,7.7-2.2,6.7-5.1c-1-2.9-6.2-17.8-6.2-17.8
				S443.2,696.2,435.5,695.1z"/><path fill="#ffe3ca" d="M496.3,485.5c0,0-0.2,10-5.1,11.4c-4.8,1.4-3.7,11.4-4.2,14.2c-0.6,2.8,1.1,3.9,3.3,4.7
				c2.2,0.9,3.9,2.3,5.4,2c1.5-0.3,2.2-2.9,3.3-4.6c1.1-1.7-0.1-4.6-2.1-2.3c-1.9,2.2-4.2,2.8-4.6,1.3c-0.4-1.5,0.9-4.5,2.4-4.8
				c1.5-0.3,9.6-16.4,9.6-17.9c0-1.5,0.1-3.6,0.1-3.6S499.6,487.9,496.3,485.5z"/><path fill="#f2f2f2" d="M477.4,525c0.1-2.7,0.2-5.4,1.1-8c0.8-2.6,2.5-5,5-6.1c1.8-0.8,3.8-0.8,5.8-0.9c8.8-0.2,17.7-0.3,26.5-0.5
						c1.5,0,3.2,0,4.4,1c0.8,0.7,1.1,1.8,1.4,2.8c0.9,4.2,0.4,8.5-0.1,12.7c0,0.3-0.1,0.7-0.3,1c-0.2,0.2-0.4,0.4-0.7,0.5
						c-1.2,0.6-2.5,1-3.8,1.3c-0.3,0.1-0.6,0.1-0.8,0c-0.3-0.1-0.5-0.4-0.6-0.7c-0.8-1.7-0.8-3.7-1.2-5.6c-0.3-1.9-1.1-3.8-2.7-4.8
						c-1.1-0.7-2.5-0.8-3.8-0.8c-5.7-0.2-11.4,0.1-17.1,0.4c-1.2,0.1-2.6,0.2-3.5,1c-1,0.8-1.3,2.1-1.4,3.4
						c-0.2,2.1,0.1,4.2-0.6,6.2c-0.7,2-2.8,3.7-4.8,2.9C478,530,477.9,527.1,477.4,525"/><path fill="#ffbe55" d="M453.5,529.2c28.2-1.9,56.4-3.2,84.6-3.9c2.2-0.1,4.5-0.1,6.5,1c1.6,0.9,2.8,2.5,3.9,4.1
						c9,13.9,9.6,31.9,9.8,48.7c0.1,4.6,0.1,9.2,0.2,13.9c0,3.1,0,6.4-1.8,8.8c-2,2.8-5.7,3.5-9,4c-19.2,2.5-38.6,2.5-58,2.6
						c-10.2,0-20.4,0.1-30.6,0.1c-2.8,0-5.8,0-8.1-1.8c-2.9-2.2-3.7-6.2-4.2-9.9C443.6,574.1,445.7,550.4,453.5,529.2"/><path fill="#0e538c" d="M558.1,577.3c-24.2,8.1-50.3,11.6-75.6,7.6c-11.1-1.8-21.6-5.5-26.1-16.5c-4.9-12.1-3.4-25.8-3.2-38.6
						c-7.6,21.1-9.6,44.6-6.6,66.9c0.5,3.7,1.3,7.8,4.2,9.9c2.3,1.7,5.3,1.8,8.1,1.8c10.2,0,20.4-0.1,30.6-0.1
						c19.4-0.1,38.8-0.1,58-2.6c3.3-0.4,7-1.1,9-4c1.8-2.4,1.8-5.7,1.8-8.8c-0.1-4.6-0.1-9.2-0.2-13.9
						C558.1,578.5,558.1,577.9,558.1,577.3z"/><path fill="#f2f2f2" d="M491.9 592.1c0 0 .4-9.9-.5-12.2-.9-2.3-7.2-1.7-7.8.3s-2 12.9.5 13.2C486.7 593.7 491 594.1 491.9 592.1zM527.1 578.7c0 0-.5 9.9.3 12.2.8 2.3 7.2 1.7 7.8-.2.5-2 2.2-12.8-.4-13.2C532.3 577.2 528 576.7 527.1 578.7z"/><path fill="#ffe3ca" d="M494.2,507.6c0,0,3.4-0.5,2.7,4.5c-0.7,5-1.8,8.4-3.3,9.2s-0.9,2.6,1.1,2.6s3.8-0.7,4.8-1.9
				c0,0,0.1,2.3,2.5,1.9s3.1-1.6,3.1-1.6s0.6,1.4,1.5,1.6c0.9,0.1,3-0.4,3.8-1.6c0.6-1,0.6-1,0.6-1s0.3,1,2.1,0.8
				c1.7-0.1,2.5-2.9,3.3-4.7c0.8-1.8,2.5-5,2.6-6.7c0.1-1.7-15-11.9-14.7-22.5l-4.4,4.5L494.2,507.6z"/><g><path fill="#ffbe55" d="M283.7,151c-18.7-6.4-38.1-4.3-54.3,4.1l32,61.5l-65.6-22.4c-12.3,36.2,7,75.6,43.2,88
					c36.2,12.3,75.6-7,88-43.2C339.3,202.8,320,163.4,283.7,151z"/><path fill="#ffbe55" d="M186.1 185.7c6-17.6 18.3-31.2 33.6-39.1l32 61.5L186.1 185.7zM688.5 211c-.4 0-.7 0-1.1-.1-4.7-.6-8-4.9-7.4-9.6.6-4.7 4.9-8 9.6-7.4 4.7.6 8 4.9 7.4 9.6-.3 2.3-1.5 4.3-3.3 5.7C692.1 210.4 690.3 211 688.5 211zM688.4 197.8c-2.3 0-4.2 1.7-4.5 4-.3 2.5 1.4 4.8 3.9 5.1 1.2.2 2.4-.2 3.4-.9 1-.7 1.6-1.8 1.7-3 .3-2.5-1.4-4.8-3.9-5.1C688.8 197.9 688.6 197.8 688.4 197.8zM637.8 258.6c-.4 0-.7 0-1.1-.1-2.3-.3-4.3-1.5-5.7-3.3-1.4-1.8-2-4.1-1.7-6.3l0 0c.3-2.3 1.5-4.3 3.3-5.7 1.8-1.4 4.1-2 6.3-1.7 4.7.6 8 4.9 7.4 9.6-.3 2.3-1.5 4.3-3.3 5.7C641.5 258 639.6 258.6 637.8 258.6zM637.7 245.5c-1 0-2 .3-2.8.9-1 .7-1.6 1.8-1.7 3l0 0c-.2 1.2.2 2.4.9 3.4.7 1 1.8 1.6 3 1.7s2.4-.2 3.4-.9c1-.7 1.6-1.8 1.7-3 .3-2.5-1.4-4.8-3.9-5.1C638.1 245.5 637.9 245.5 637.7 245.5zM591.9 214.8c-.4 0-.7 0-1.1-.1-4.7-.6-8-4.9-7.4-9.6l0 0c.6-4.7 4.9-8 9.6-7.4 4.7.6 8 4.9 7.4 9.6C599.8 211.6 596.1 214.8 591.9 214.8zM587.3 205.6c-.3 2.5 1.4 4.8 3.9 5.1 2.5.3 4.8-1.4 5.1-3.9.3-2.5-1.4-4.8-3.9-5.1C589.9 201.4 587.6 203.1 587.3 205.6L587.3 205.6zM535.8 281.2c-.4 0-.7 0-1.1-.1-4.7-.6-8-4.9-7.4-9.6l0 0c.3-2.3 1.5-4.3 3.3-5.7 1.8-1.4 4.1-2 6.3-1.7 2.3.3 4.3 1.5 5.7 3.3s2 4.1 1.7 6.3-1.5 4.3-3.3 5.7C539.5 280.6 537.6 281.2 535.8 281.2zM531.2 272.1c-.3 2.5 1.4 4.8 3.9 5.1 1.2.2 2.4-.2 3.4-.9 1-.7 1.6-1.8 1.7-3s-.2-2.4-.9-3.4c-.7-1-1.8-1.6-3-1.7-1.2-.2-2.4.2-3.4.9S531.4 270.9 531.2 272.1L531.2 272.1z"/><rect width="57" height="4" x="635.1" y="224.6" fill="#ffbe55" transform="rotate(-39.95 663.59 226.58)"/><rect width="4" height="50.6" x="612.4" y="203.4" fill="#ffbe55" transform="rotate(-44.522 614.34 228.695)"/><rect width="74.4" height="4" x="525.3" y="236.1" fill="#ffbe55" transform="rotate(-50.787 562.507 238.132)"/><g><rect width="22.1" height="64.6" x="583.6" y="444.5" fill="#ffbe55"/><rect width="22.1" height="77.4" x="618.8" y="431.7" fill="#2a94f4"/><rect width="22.1" height="89.3" x="654.1" y="419.8" fill="#0b4870"/><path fill="#0b4870" d="M690.6,511.2H569.6c-1.1,0-2-0.9-2-2s0.9-2,2-2h119.1V404.6c0-1.1,0.9-2,2-2s2,0.9,2,2v104.6
						C692.6,510.3,691.7,511.2,690.6,511.2z"/></g><g><path fill="#0e538c" d="M215.8 547.9c-2.4 0-4.7-.8-6.6-2.4-2.1-1.8-3.3-4.2-3.5-6.9-.2-2.7.6-5.3 2.4-7.4s4.2-3.3 6.9-3.5c5.6-.5 10.5 3.7 10.9 9.3.5 5.6-3.7 10.5-9.3 10.9C216.3 547.9 216.1 547.9 215.8 547.9zM215.8 531.6c-.2 0-.3 0-.5 0-3.4.3-5.9 3.2-5.6 6.6s3.3 5.9 6.6 5.6c3.4-.3 5.9-3.2 5.6-6.6C221.7 534.1 219 531.6 215.8 531.6zM285.2 499.4c-5.2 0-9.7-4-10.1-9.3-.5-5.6 3.7-10.5 9.3-10.9 2.7-.2 5.3.6 7.4 2.4 2.1 1.8 3.3 4.2 3.5 6.9.2 2.7-.6 5.3-2.4 7.4s-4.2 3.3-6.9 3.5C285.7 499.4 285.5 499.4 285.2 499.4zM285.2 483.1c-.2 0-.3 0-.5 0-3.4.3-5.9 3.2-5.6 6.6s3.2 5.9 6.6 5.6c3.4-.3 5.9-3.2 5.6-6.6C291.1 485.5 288.4 483.1 285.2 483.1zM175.8 425.2c-5.2 0-9.7-4-10.1-9.3-.2-2.7.6-5.3 2.4-7.4 1.8-2.1 4.2-3.3 6.9-3.5 2.7-.2 5.3.6 7.4 2.4s3.3 4.2 3.5 6.9l0 0c.5 5.6-3.7 10.5-9.3 10.9C176.3 425.2 176.1 425.2 175.8 425.2zM175.8 408.9c-.2 0-.3 0-.5 0-1.6.1-3.1.9-4.2 2.1-1.1 1.3-1.6 2.8-1.4 4.5.3 3.4 3.2 5.9 6.6 5.6 3.4-.3 5.9-3.2 5.6-6.6l0 0C181.7 411.4 179 408.9 175.8 408.9z"/><polygon fill="#0e538c" points="217.1 529.8 213.1 529.5 217.2 480.2 178.1 423.4 181.3 421.1 221.3 479.1"/><rect width="4" height="59.1" x="246.7" y="452.9" fill="#0e538c" transform="matrix(.09501 -.9955 .9955 .09501 -255.194 684.12)"/></g></g><g><path fill="#ffbe55" d="M362.6,391.4c-1.4,0.4-2.1-0.3-2.3-1.6c-0.6-2.8-2.1-4.6-5.2-4.5c-2.6,0.1-3.6,1.9-3.2,3.2
				c1.1,5.4,20.8,3.8,21,19.5c0.1,1.7-1,11.2-11.7,13.7v4.4c0,1.4-0.7,2.1-2.1,2.1h-8c-1.4,0.1-2.1-0.7-2.1-2.1v-4.7
				c-8-2.3-9.7-9.3-10.1-13.6c-0.1-1.2,0.6-2,1.7-2.3l7.5-1.8c1.3-0.3,2,0.2,2.2,1.6c0.4,3.3,1.4,5.2,5.3,5.1c4-0.1,4.9-2.4,4.6-3.8
				c-1.4-5.9-20.1-3.1-20.4-18.9c-0.1-1.7,0.1-11,9.8-13.7v-4.4c0-1.4,0.8-2.1,2.1-2.1h8c1.4,0,2.1,0.7,2.1,2.1v4.6
				c7.9,2.3,9.7,8.9,10,12.9c0.1,1.3-0.4,2-1.6,2.3L362.6,391.4z"/></g><g><path fill="#f7f7f7" d="M291.6,220.4c-1.4,0.4-2.1-0.3-2.3-1.6c-0.6-2.8-2.1-4.6-5.2-4.5c-2.6,0.1-3.6,1.9-3.2,3.2
				c1.1,5.4,20.8,3.8,21,19.5c0.1,1.7-1,11.2-11.7,13.7v4.4c0,1.4-0.7,2.1-2.1,2.1h-8c-1.4,0.1-2.1-0.7-2.1-2.1v-4.7
				c-8-2.3-9.7-9.3-10.1-13.6c-0.1-1.2,0.6-2,1.7-2.3l7.5-1.8c1.3-0.3,2,0.2,2.2,1.6c0.4,3.3,1.4,5.2,5.3,5.1c4-0.1,4.9-2.4,4.6-3.8
				c-1.4-5.9-20.1-3.1-20.4-18.9c-0.1-1.7,0.1-11,9.8-13.7v-4.4c0-1.4,0.8-2.1,2.1-2.1h8c1.4,0,2.1,0.7,2.1,2.1v4.6
				c7.9,2.3,9.7,8.9,10,12.9c0.1,1.3-0.4,2-1.6,2.3L291.6,220.4z"/></g><g><path fill="#ffbe55" d="M329.1,348.7c-0.9,0.2-1.3-0.2-1.5-1.1c-0.4-1.8-1.3-2.9-3.3-2.9c-1.6,0-2.3,1.2-2.1,2.1
				c0.7,3.5,13.3,2.4,13.5,12.5c0,1.1-0.6,7.2-7.5,8.8v2.8c0,0.9-0.5,1.4-1.4,1.4h-5.1c-0.9,0-1.4-0.5-1.4-1.3v-3
				c-5.2-1.5-6.2-5.9-6.5-8.7c0-0.8,0.4-1.3,1.1-1.5l4.8-1.1c0.8-0.2,1.3,0.1,1.4,1c0.2,2.1,0.9,3.3,3.4,3.3c2.6,0,3.2-1.6,2.9-2.5
				c-0.9-3.8-12.9-2-13.1-12.1c0-1.1,0.1-7,6.3-8.8v-2.8c0-0.9,0.5-1.4,1.4-1.4h5.1c0.9,0,1.4,0.5,1.4,1.4v2.9
				c5.1,1.5,6.2,5.7,6.4,8.3c0.1,0.8-0.3,1.3-1.1,1.5L329.1,348.7z"/></g><g><path fill="#ffbe55" d="M353.1,315.7c-0.6,0.2-0.9-0.1-1-0.7c-0.2-1.2-0.9-1.9-2.2-1.9c-1.1,0-1.5,0.8-1.4,1.4
				c0.5,2.3,8.8,1.6,8.9,8.3c0,0.7-0.4,4.7-5,5.8v1.9c0,0.6-0.3,0.9-0.9,0.9h-3.4c-0.6,0-0.9-0.3-0.9-0.9v-2c-3.4-1-4.1-3.9-4.3-5.8
				c0-0.5,0.2-0.8,0.7-1l3.2-0.8c0.5-0.1,0.8,0.1,0.9,0.7c0.2,1.4,0.6,2.2,2.2,2.2c1.7,0,2.1-1,1.9-1.6c-0.6-2.5-8.5-1.3-8.6-8
				c0-0.7,0.1-4.6,4.1-5.8v-1.9c0-0.6,0.3-0.9,0.9-0.9h3.4c0.6,0,0.9,0.3,0.9,0.9v1.9c3.3,1,4.1,3.8,4.2,5.5c0.1,0.5-0.2,0.8-0.7,1
				L353.1,315.7z"/></g></g></switch></svg>