<svg width="28" height="34" viewBox="0 0 28 34" fill="none" xmlns="http://www.w3.org/2000/svg">
<g filter="url(#filter0_d_275_52)">
<path d="M17.2184 9.29919C15.9382 9.13148 14.6667 9.25506 13.4747 9.61698L14.3753 2.65227L13.0597 2.48455C10.7022 2.17559 8.35358 2.81116 6.47288 4.26765C4.59219 5.72415 3.38254 7.82504 3.07351 10.1907C2.44661 15.0634 5.89896 19.5476 10.7817 20.1744C11.1702 20.2273 11.5587 20.245 11.9384 20.245C12.8213 20.245 13.6955 20.1038 14.5254 19.8478L13.6248 26.8125L14.9404 26.9802C15.3289 27.0332 15.7174 27.0508 16.0971 27.0508C18.0573 27.0508 19.9556 26.4064 21.5273 25.1883C23.4168 23.7318 24.6176 21.6309 24.9266 19.2652C25.5535 14.4014 22.0924 9.92593 17.2184 9.29919ZM5.69588 10.5262C5.90779 8.86666 6.75543 7.38368 8.08869 6.35972C9.05994 5.6094 10.199 5.17686 11.3909 5.07093L10.6139 11.0911C9.0776 12.2828 8.00039 13.907 7.49711 15.7519C6.16385 14.4278 5.43982 12.53 5.69588 10.5262ZM11.1172 17.5439C10.6846 17.4909 10.2696 17.3938 9.87226 17.2526C10.1018 15.6283 10.9406 14.1807 12.2474 13.1744C13.5718 12.1504 15.2141 11.709 16.8829 11.9209C17.3156 11.9739 17.7306 12.071 18.1279 12.2122C17.8983 13.8364 17.0595 15.2841 15.7527 16.2904C14.4195 17.3143 12.7772 17.7645 11.1172 17.5439ZM22.2954 18.9386C22.0835 20.5981 21.2359 22.0811 19.9026 23.105C18.9314 23.8553 17.7924 24.2879 16.6004 24.3938L17.3774 18.3736C18.9137 17.1819 19.9909 15.5577 20.4942 13.7128C21.8275 15.0369 22.5515 16.9436 22.2954 18.9386Z" fill="url(#paint0_linear_275_52)"/>
<path d="M7.57749 28.7894C7.4009 28.7894 7.22431 28.7806 7.04772 28.7541C4.81384 28.4628 3.22452 26.4149 3.5159 24.1816C3.80728 21.9483 5.85573 20.3594 8.08961 20.6507C10.3235 20.942 11.9128 22.9899 11.6214 25.2232C11.4802 26.3089 10.9327 27.2711 10.0674 27.9331C9.3434 28.4981 8.47811 28.7894 7.57749 28.7894ZM7.56866 23.2635C6.85347 23.2635 6.2354 23.7932 6.13828 24.517C6.04115 25.3026 6.59741 26.0265 7.38324 26.1236C7.76291 26.1765 8.14259 26.0706 8.44279 25.8323C8.74299 25.5939 8.94607 25.2585 8.99022 24.8789C9.08735 24.0933 8.53108 23.3694 7.74525 23.2724C7.69228 23.2635 7.63047 23.2635 7.56866 23.2635Z" fill="#BC56FC"/>
<path d="M20.4857 8.38147C20.3091 8.38147 20.1325 8.37265 19.9559 8.34617C17.722 8.05487 16.1327 6.00694 16.4241 3.77364C16.5654 2.68789 17.1128 1.72572 17.9781 1.06368C18.8434 0.392803 19.9118 0.110331 20.9978 0.24274C23.2317 0.534039 24.821 2.58196 24.5296 4.81526C24.2736 6.87201 22.5077 8.38147 20.4857 8.38147ZM20.4769 2.85561C20.159 2.85561 19.8588 2.96154 19.6027 3.15574C19.3025 3.39407 19.0995 3.72951 19.0553 4.10908C18.9582 4.89471 19.5144 5.61854 20.3003 5.71564C21.0773 5.82157 21.8101 5.25662 21.9161 4.471C22.0132 3.68537 21.4569 2.96154 20.6711 2.86444C20.6005 2.85561 20.5387 2.85561 20.4769 2.85561Z" fill="#BC53FF"/>
</g>
<defs>
<filter id="filter0_d_275_52" x="0.682116" y="0.210938" width="26.6358" height="33.2139" filterUnits="userSpaceOnUse" color-interpolation-filters="sRGB">
<feFlood flood-opacity="0" result="BackgroundImageFix"/>
<feColorMatrix in="SourceAlpha" type="matrix" values="0 0 0 0 0 0 0 0 0 0 0 0 0 0 0 0 0 0 127 0" result="hardAlpha"/>
<feOffset dy="2.31788"/>
<feGaussianBlur stdDeviation="1.15894"/>
<feComposite in2="hardAlpha" operator="out"/>
<feColorMatrix type="matrix" values="0 0 0 0 0 0 0 0 0 0 0 0 0 0 0 0 0 0 0.25 0"/>
<feBlend mode="normal" in2="BackgroundImageFix" result="effect1_dropShadow_275_52"/>
<feBlend mode="normal" in="SourceGraphic" in2="effect1_dropShadow_275_52" result="shape"/>
</filter>
<linearGradient id="paint0_linear_275_52" x1="9.4729" y1="8.42547" x2="22.2881" y2="26.3074" gradientUnits="userSpaceOnUse">
<stop stop-color="#F1A0AD"/>
<stop offset="0.1538" stop-color="#E087C7"/>
<stop offset="0.3418" stop-color="#D070E0"/>
<stop offset="0.5394" stop-color="#C560F1"/>
<stop offset="0.7508" stop-color="#BE56FC"/>
<stop offset="1" stop-color="#BC53FF"/>
</linearGradient>
</defs>
</svg>
