<svg width="112" height="42" viewBox="0 0 112 42" fill="none" xmlns="http://www.w3.org/2000/svg">
<g filter="url(#filter0_d_253_511)">
<path d="M34.3509 25.3983C34.2712 25.3073 34.2214 25.2263 34.1815 25.1353C34.1417 25.0442 34.1815 24.9531 34.2811 24.8418L35.2473 23.8806C35.337 23.7996 35.4166 23.7794 35.4963 23.7996C35.576 23.8198 35.6657 23.8704 35.7453 23.9514C35.8848 24.093 36.0442 24.2448 36.2234 24.3966C36.4027 24.5484 36.592 24.6799 36.8012 24.8013C37.0103 24.9228 37.2295 25.024 37.4685 25.0948C37.7076 25.1656 37.9665 25.2061 38.2255 25.2061C38.5144 25.2061 38.7634 25.1656 38.9825 25.0847C39.2017 25.0037 39.3909 24.9025 39.5503 24.771C39.7097 24.6394 39.8292 24.4877 39.9089 24.3156C39.9886 24.1436 40.0284 23.9716 40.0284 23.7794C40.0284 23.5466 39.9587 23.3443 39.8192 23.1925C39.6798 23.0306 39.5104 22.8991 39.3112 22.7877C39.112 22.6764 38.8929 22.5854 38.6538 22.5145C38.4148 22.4437 38.2056 22.383 38.0164 22.3324C36.8609 21.9783 35.9744 21.5533 35.3668 21.0372C34.7592 20.5313 34.4505 19.8534 34.4505 19.0338C34.4505 18.5885 34.5401 18.1737 34.7294 17.8094C34.9186 17.4451 35.1776 17.1213 35.5162 16.8481C35.8549 16.5851 36.2633 16.3726 36.7414 16.2309C37.2195 16.0892 37.7474 16.0083 38.3251 16.0083C38.9526 16.0083 39.5602 16.1601 40.1479 16.4636C40.7256 16.7672 41.2336 17.1315 41.6619 17.5767C41.8313 17.7588 41.8313 17.9511 41.652 18.1433L40.8651 19.0034C40.7655 19.0945 40.6758 19.1147 40.5961 19.0843C40.5065 19.054 40.4169 18.9933 40.3272 18.9123C40.2077 18.8111 40.0782 18.71 39.9288 18.5885C39.7794 18.4671 39.62 18.3659 39.4407 18.2546C39.2614 18.1534 39.0722 18.0725 38.8829 18.0017C38.6937 17.9308 38.4845 17.9005 38.2753 17.9005C38.096 17.9005 37.9068 17.9106 37.7076 17.9409C37.5084 17.9713 37.3291 18.0219 37.1797 18.113C37.0203 18.1939 36.8908 18.3153 36.7812 18.4671C36.6717 18.6189 36.6219 18.8213 36.6219 19.0742C36.6219 19.2564 36.6717 19.4183 36.7713 19.5599C36.8709 19.6915 37.0203 19.8129 37.1996 19.9141C37.3888 20.0153 37.608 20.1063 37.857 20.1974C38.106 20.2885 38.3949 20.3694 38.6937 20.4605C39.1817 20.6021 39.6399 20.7742 40.0682 20.9462C40.4965 21.1283 40.875 21.3509 41.1938 21.614C41.5125 21.8771 41.7715 22.1907 41.9607 22.5449C42.15 22.9092 42.2496 23.3341 42.2496 23.8401C42.2496 24.346 42.14 24.8115 41.9209 25.2162C41.7018 25.6311 41.403 25.9852 41.0344 26.2787C40.6659 26.5721 40.2376 26.7947 39.7595 26.9465C39.2714 27.0983 38.7734 27.1792 38.2554 27.1792C37.5084 27.1792 36.7912 27.0173 36.1039 26.6834C35.4166 26.3495 34.8489 25.9245 34.3509 25.3983Z" fill="white"/>
<path d="M43.3552 23.4859C43.3552 22.9698 43.4548 22.4841 43.6441 22.0288C43.8333 21.5735 44.1023 21.1687 44.4409 20.8348C44.7796 20.4908 45.178 20.2277 45.6262 20.0354C46.0745 19.8432 46.5625 19.742 47.0805 19.742C47.5984 19.742 48.0865 19.8432 48.5347 20.0354C48.983 20.2277 49.3814 20.5009 49.7101 20.8348C50.0487 21.1788 50.3077 21.5735 50.5069 22.0288C50.7061 22.4841 50.7958 22.9698 50.7958 23.4859C50.7958 24.0019 50.6962 24.4876 50.5069 24.943C50.3077 25.3983 50.0487 25.7929 49.7101 26.1268C49.3714 26.4607 48.983 26.7238 48.5347 26.9262C48.0865 27.1286 47.5984 27.2196 47.0805 27.2196C46.5625 27.2196 46.0844 27.1185 45.6262 26.9262C45.168 26.7339 44.7796 26.4709 44.4409 26.1268C44.1023 25.7929 43.8333 25.3983 43.6441 24.943C43.4548 24.4876 43.3552 24.0019 43.3552 23.4859ZM45.2677 23.496C45.2677 23.7591 45.3075 24.0019 45.4071 24.2347C45.4967 24.4674 45.6262 24.6698 45.7856 24.8418C45.945 25.0138 46.1442 25.1554 46.3633 25.2465C46.5825 25.3477 46.8215 25.3882 47.0805 25.3882C47.3395 25.3882 47.5785 25.3376 47.7976 25.2465C48.0168 25.1453 48.206 25.0138 48.3754 24.8418C48.5347 24.6698 48.6642 24.4674 48.7638 24.2347C48.8634 24.0019 48.9033 23.7591 48.9033 23.496C48.9033 23.2329 48.8535 22.9901 48.7638 22.7573C48.6642 22.5246 48.5347 22.3222 48.3754 22.1502C48.216 21.9782 48.0168 21.8365 47.7976 21.7354C47.5785 21.6342 47.3395 21.5836 47.0805 21.5836C46.8215 21.5836 46.5825 21.6342 46.3633 21.7354C46.1442 21.8365 45.9549 21.9782 45.7856 22.1502C45.6262 22.3222 45.4967 22.5246 45.4071 22.7573C45.3075 22.9901 45.2677 23.2329 45.2677 23.496Z" fill="white"/>
<path d="M58.0268 27.0476C57.8874 27.0476 57.7778 27.0274 57.6981 26.9869C57.6184 26.9464 57.5686 26.8857 57.5288 26.8048C57.4889 26.7238 57.4591 26.6327 57.4391 26.5316C57.4192 26.4203 57.3893 26.3089 57.3594 26.1774C57.1403 26.4304 56.8216 26.653 56.4132 26.8452C56.0048 27.0375 55.5665 27.1387 55.0984 27.1387C54.6601 27.1387 54.2717 27.0678 53.923 26.9262C53.5844 26.7845 53.2955 26.5822 53.0664 26.3292C52.8373 26.0762 52.668 25.7625 52.5485 25.4185C52.429 25.0644 52.3792 24.6799 52.3792 24.265V20.3188C52.3792 20.1872 52.419 20.0759 52.4987 19.995C52.5784 19.914 52.678 19.8735 52.7975 19.8735H53.9728C54.1223 19.8735 54.2318 19.914 54.2916 19.9848C54.3513 20.0557 54.3812 20.167 54.3812 20.2985V23.921C54.3812 24.3156 54.4908 24.6394 54.7199 24.8721C54.949 25.1048 55.2478 25.2263 55.6163 25.2263C55.7658 25.2263 55.945 25.1959 56.1343 25.1352C56.3235 25.0745 56.5028 24.9834 56.6622 24.8822C56.8216 24.7709 56.961 24.6394 57.0806 24.4876C57.2001 24.3358 57.2499 24.1638 57.2499 23.9716V20.2884C57.2499 20.0152 57.3893 19.8837 57.6682 19.8837H58.8336C58.9631 19.8837 59.0727 19.9241 59.1424 20.0051C59.2121 20.086 59.252 20.1771 59.252 20.2985V26.6226C59.252 26.9161 59.1025 27.0577 58.8037 27.0577H58.0268V27.0476Z" fill="white"/>
<path d="M62.6885 20.2884C62.6985 20.339 62.7184 20.4301 62.7582 20.5717C62.7981 20.7134 62.818 20.8045 62.828 20.8551C62.9176 20.7336 63.0172 20.6122 63.1367 20.4908C63.2563 20.3592 63.3957 20.2479 63.5451 20.1468C63.6945 20.0456 63.8639 19.9646 64.0432 19.8938C64.2224 19.823 64.4117 19.7926 64.6209 19.7926C64.6707 19.7926 64.7105 19.7926 64.7603 19.7926C64.8101 19.7926 64.85 19.7926 64.8998 19.8027C65.0293 19.8128 65.1886 19.8533 65.358 19.914C65.5273 19.9747 65.6966 20.0456 65.846 20.1366C65.9954 20.2176 66.1249 20.3087 66.2345 20.3997C66.344 20.4908 66.3939 20.5717 66.3939 20.6527C66.3939 20.7134 66.3739 20.7741 66.3241 20.8551L65.7464 21.8062C65.6568 21.9377 65.5572 22.0086 65.4476 22.0086C65.4078 22.0086 65.348 21.9883 65.2783 21.958C65.1986 21.9276 65.1189 21.8871 65.0293 21.8366C64.8998 21.7354 64.7802 21.6747 64.6806 21.6342C64.581 21.5937 64.4615 21.5735 64.332 21.5735C64.1228 21.5735 63.9336 21.6139 63.7643 21.6949C63.5949 21.7758 63.4555 21.8871 63.336 22.0187C63.2164 22.1502 63.1268 22.3121 63.067 22.4841C63.0073 22.6562 62.9774 22.8181 62.9774 22.9901V26.6834C62.9774 26.9262 62.8479 27.0476 62.5889 27.0476H61.3936C61.1446 27.0476 61.0151 26.9262 61.0151 26.6834V20.2884C61.0151 20.167 61.055 20.0658 61.1347 20.0051C61.2144 19.9444 61.294 19.914 61.3936 19.914H62.31C62.4295 19.914 62.5092 19.9545 62.559 20.0354C62.6088 20.1164 62.6586 20.1872 62.6885 20.2884Z" fill="white"/>
<path d="M70.6771 25.3983C70.9659 25.3882 71.2149 25.3477 71.4241 25.2668C71.6333 25.1858 71.8524 25.0947 72.0815 24.9935C72.1811 24.943 72.2409 24.9227 72.2807 24.9227C72.3504 24.9227 72.4202 24.9733 72.4999 25.0846L73.1174 25.9852C73.1573 26.0661 73.1772 26.1167 73.1772 26.1471C73.1772 26.2381 73.1473 26.2988 73.0875 26.3494C73.0278 26.4 72.978 26.4405 72.9282 26.481C72.6094 26.6935 72.2708 26.8655 71.8923 27.0071C71.5138 27.1488 71.1253 27.2196 70.7169 27.2196C70.2089 27.2196 69.7308 27.1185 69.2826 26.9262C68.8344 26.7339 68.4459 26.4709 68.1072 26.1268C67.7686 25.7929 67.5096 25.3983 67.3204 24.943C67.1311 24.4876 67.0315 24.0019 67.0315 23.4859C67.0315 22.9698 67.1311 22.4841 67.3204 22.0288C67.5096 21.5735 67.7785 21.1687 68.1072 20.8348C68.4459 20.4908 68.8344 20.2277 69.2826 20.0354C69.7308 19.8432 70.2089 19.742 70.7169 19.742C71.1054 19.742 71.4739 19.8027 71.8225 19.9343C72.1712 20.0658 72.5098 20.2378 72.8584 20.4604H72.8485C72.9282 20.511 72.9879 20.5616 73.0377 20.6223C73.0875 20.683 73.1075 20.7437 73.1075 20.8247C73.1075 20.8449 73.1075 20.8753 73.0975 20.9056C73.0975 20.936 73.0776 20.9664 73.0577 20.9866L72.4999 21.9681C72.4799 22.0086 72.4501 22.0389 72.4102 22.0693C72.3704 22.0996 72.3206 22.1098 72.2708 22.1098C72.2309 22.1098 72.1512 22.0794 72.0417 22.0086C71.8823 21.877 71.6731 21.7657 71.4341 21.6747C71.195 21.5937 70.956 21.5532 70.7269 21.5532C70.4579 21.5532 70.2089 21.6038 69.9798 21.7151C69.7507 21.8264 69.5515 21.9681 69.3822 22.1502C69.2129 22.3324 69.0834 22.5448 68.9838 22.7776C68.8842 23.0204 68.8443 23.2734 68.8443 23.5365C68.8443 24.093 69.0236 24.5483 69.3722 24.8924C69.7209 25.2162 70.1591 25.3983 70.6771 25.3983Z" fill="white"/>
<path d="M78.2969 25.4792C78.506 25.4893 78.7152 25.459 78.9144 25.3881C79.1136 25.3173 79.3128 25.2363 79.5021 25.125C79.5818 25.0846 79.6515 25.0441 79.7212 24.9935C79.7909 24.9429 79.8507 24.9227 79.9105 24.9227C80.0001 24.9227 80.0698 24.9631 80.1296 25.0542L80.6575 25.9143C80.7073 25.9952 80.7272 26.056 80.7272 26.1065C80.7272 26.1875 80.7073 26.2482 80.6575 26.2988C80.6077 26.3494 80.5579 26.4 80.4981 26.4506C80.1894 26.6833 79.8607 26.8654 79.5021 27.0071C79.1435 27.1386 78.755 27.2095 78.3467 27.2095C77.8486 27.2095 77.3805 27.1083 76.9323 26.916C76.484 26.7238 76.0956 26.4607 75.7669 26.1167C75.4382 25.7726 75.1692 25.3881 74.98 24.9227C74.7808 24.4673 74.6812 23.9816 74.6812 23.4656C74.6812 22.9597 74.7808 22.4841 74.97 22.0288C75.1593 21.5734 75.4182 21.1788 75.7469 20.8348C76.0756 20.4907 76.4541 20.2175 76.8824 20.0152C77.3108 19.8128 77.7689 19.7116 78.257 19.7116C78.7152 19.7116 79.1535 19.8027 79.5619 19.9747C79.9702 20.1467 80.3388 20.3896 80.6476 20.6931C80.9563 20.9967 81.2053 21.3508 81.3846 21.7556C81.5639 22.1603 81.6536 22.5853 81.6536 23.0507C81.6536 23.4352 81.6237 23.7084 81.5639 23.8805C81.5042 24.0525 81.3647 24.1334 81.1555 24.1334H76.6832C76.7032 24.3459 76.7629 24.5382 76.8725 24.7001C76.9821 24.862 77.1115 25.0036 77.2609 25.125C77.4104 25.2465 77.5896 25.3274 77.7689 25.3881C77.9383 25.4488 78.1176 25.4792 78.2969 25.4792ZM76.6733 22.7168H79.7611C79.7411 22.3526 79.5818 22.0389 79.2929 21.7758C79.0041 21.5228 78.6355 21.3913 78.2072 21.3913C78.0379 21.3913 77.8586 21.4216 77.6893 21.4925C77.5199 21.5633 77.3606 21.6544 77.2111 21.7758C77.0717 21.8972 76.9522 22.0389 76.8526 22.2008C76.7629 22.3627 76.7032 22.5347 76.6733 22.7168Z" fill="white"/>
<path d="M83.7153 26.6834V16.5749C83.7153 16.3321 83.8249 16.2106 84.044 16.2106H85.309C85.5481 16.2106 85.6676 16.3321 85.6676 16.5749V20.6628C85.8668 20.3997 86.1158 20.1872 86.4047 20.0253C86.6935 19.8634 87.0621 19.7825 87.4904 19.7825C87.9785 19.7825 88.4267 19.8837 88.845 20.0759C89.2534 20.2682 89.612 20.5313 89.9009 20.8753C90.1897 21.2092 90.4188 21.6038 90.5881 22.0491C90.7575 22.4943 90.8372 22.98 90.8372 23.496C90.8372 24.0019 90.7475 24.4775 90.5782 24.9328C90.4089 25.3882 90.1698 25.7727 89.871 26.1066C89.5722 26.4405 89.2235 26.7036 88.8152 26.8958C88.4068 27.0881 87.9685 27.1893 87.4904 27.1893C87.0322 27.1893 86.6437 27.1083 86.3449 26.9464C86.0361 26.7845 85.7672 26.5316 85.5282 26.1774C85.5082 26.2887 85.4883 26.3798 85.4684 26.4607C85.4485 26.5417 85.4286 26.6328 85.4086 26.7137C85.3588 26.8857 85.2592 26.9869 85.0899 27.0072C84.9305 27.0274 84.7612 27.0375 84.6018 27.0375H84.054C83.8249 27.0274 83.7153 26.906 83.7153 26.6834ZM85.4784 23.5264C85.4784 23.7894 85.5282 24.0323 85.6178 24.2751C85.7074 24.5079 85.8369 24.7102 85.9963 24.8823C86.1557 25.0543 86.335 25.1858 86.5541 25.287C86.7633 25.3882 86.9824 25.4388 87.2115 25.4388C87.4506 25.4388 87.6697 25.3882 87.8789 25.287C88.088 25.1858 88.2673 25.0441 88.4167 24.8721C88.5661 24.7001 88.6956 24.4876 88.7853 24.2549C88.8749 24.0222 88.9247 23.7692 88.9247 23.5061C88.9247 23.243 88.8849 22.9901 88.7952 22.7573C88.7056 22.5145 88.596 22.3121 88.4466 22.1401C88.2972 21.9681 88.1179 21.8264 87.9187 21.7253C87.7095 21.6241 87.4904 21.5735 87.2613 21.5735C87.0222 21.5735 86.7932 21.6241 86.584 21.7253C86.3748 21.8264 86.1856 21.9681 86.0262 22.1401C85.8668 22.3121 85.7373 22.5246 85.6377 22.7573C85.5381 23.0002 85.4983 23.243 85.4983 23.5061V23.5264H85.4784Z" fill="white"/>
<path d="M97.3813 26.653C97.3614 26.5518 97.3515 26.481 97.3415 26.4101C97.3315 26.3494 97.3216 26.2685 97.3017 26.1673C97.212 26.2887 97.1224 26.4203 97.0128 26.5518C96.9032 26.6833 96.7837 26.7845 96.6343 26.8756C96.4949 26.9667 96.3255 27.0476 96.1363 27.0982C95.947 27.1488 95.7179 27.1893 95.449 27.1893H95.4191C94.9111 27.1893 94.443 27.0982 94.0147 26.9059C93.5864 26.7137 93.2178 26.4506 92.919 26.1167C92.6102 25.7828 92.3712 25.3882 92.2018 24.9429C92.0325 24.4977 91.9429 24.012 91.9429 23.4859C91.9429 22.9597 92.0226 22.474 92.1919 22.0187C92.3612 21.5633 92.6003 21.1788 92.8991 20.8449C93.2079 20.511 93.5764 20.258 93.9947 20.0658C94.4231 19.8735 94.8912 19.7825 95.4091 19.7825C95.9171 19.7825 96.3156 19.8837 96.5945 20.086C96.8734 20.2884 97.1323 20.5312 97.3515 20.8146L97.4909 20.258C97.5308 20.0961 97.5706 19.9848 97.6204 19.9342C97.6702 19.8837 97.7598 19.8533 97.8893 19.8533L98.6961 19.8837C98.8057 19.8837 98.8954 19.9241 98.985 19.995C99.0746 20.0658 99.1145 20.167 99.1145 20.2783V26.6833C99.1145 26.8048 99.0746 26.8857 98.985 26.9565C98.8954 27.0173 98.8057 27.0476 98.6961 27.0476H97.7798C97.6403 27.0476 97.5407 27.0071 97.481 26.9363C97.4411 26.8655 97.4013 26.7643 97.3813 26.653ZM93.8055 23.496C93.8055 23.7692 93.8453 24.0222 93.925 24.2549C94.0047 24.4876 94.1242 24.69 94.2736 24.8721C94.4231 25.0441 94.6123 25.1858 94.8215 25.2769C95.0307 25.378 95.2697 25.4185 95.5287 25.4185C96.0666 25.4185 96.4849 25.2364 96.8036 24.8721C97.1224 24.5078 97.2718 24.0525 97.2718 23.5061C97.2718 23.243 97.2319 22.9901 97.1523 22.7573C97.0726 22.5145 96.963 22.3121 96.8036 22.13C96.6542 21.9478 96.465 21.8062 96.2558 21.705C96.0466 21.6038 95.7976 21.5532 95.5187 21.5532C95.2597 21.5532 95.0207 21.6038 94.8115 21.705C94.5924 21.8062 94.4131 21.9478 94.2637 22.13C94.1143 22.3121 94.0047 22.5145 93.9151 22.7472C93.8453 22.9799 93.8055 23.2329 93.8055 23.496Z" fill="white"/>
<path d="M107.521 21.7657C107.342 21.3609 107.103 21.0068 106.784 20.7032C106.475 20.3997 106.107 20.167 105.698 19.9848C105.29 19.8128 104.852 19.7217 104.393 19.7217C103.905 19.7217 103.447 19.8229 103.019 20.0253C102.591 20.2277 102.212 20.5009 101.883 20.8449C101.555 21.1889 101.296 21.5937 101.106 22.0389C100.917 22.4841 100.818 22.9698 100.818 23.4757C100.818 23.9918 100.917 24.4775 101.116 24.9328C101.316 25.3881 101.575 25.7828 101.903 26.1268C102.232 26.4708 102.62 26.7238 103.069 26.9262C103.517 27.1285 103.985 27.2196 104.483 27.2196C104.892 27.2196 105.28 27.1488 105.639 27.0172C105.997 26.8857 106.326 26.6934 106.635 26.4607C106.694 26.4101 106.744 26.3595 106.794 26.3089C106.844 26.2583 106.864 26.1875 106.864 26.1167C106.864 26.0661 106.844 26.0054 106.794 25.9244L106.266 25.0644C106.206 24.9733 106.137 24.9328 106.047 24.9328C105.987 24.9328 105.927 24.953 105.858 25.0036C105.788 25.0542 105.718 25.0947 105.639 25.1352C105.449 25.2465 105.25 25.3274 105.051 25.3983C104.852 25.4691 104.642 25.4994 104.433 25.4893C104.264 25.4893 104.085 25.459 103.895 25.3983C103.706 25.3375 103.537 25.2566 103.387 25.1352C103.238 25.0138 103.109 24.8822 102.999 24.7102C102.889 24.5483 102.83 24.3561 102.81 24.1436H107.282C107.491 24.1436 107.631 24.0626 107.69 23.8906C107.75 23.7186 107.78 23.4454 107.78 23.0609C107.79 22.5954 107.7 22.1704 107.521 21.7657ZM102.81 22.7168C102.84 22.5347 102.899 22.3627 102.999 22.2008C103.099 22.0389 103.218 21.8972 103.358 21.7758C103.497 21.6544 103.656 21.5633 103.836 21.4925C104.005 21.4217 104.184 21.3913 104.354 21.3913C104.782 21.3913 105.15 21.5228 105.439 21.7758C105.728 22.0389 105.888 22.3526 105.907 22.7168H102.81Z" fill="white"/>
<path d="M106.067 16.6356L105.41 18.1635C105.33 18.3659 105.21 18.4671 105.031 18.4671H103.995C103.896 18.4671 103.836 18.457 103.806 18.4266C103.776 18.3962 103.766 18.3457 103.766 18.2849C103.766 18.2445 103.776 18.204 103.786 18.1635C103.796 18.123 103.816 18.0725 103.836 18.0016L104.463 16.5142C104.573 16.3118 104.702 16.2106 104.852 16.2106H105.928C106.057 16.2106 106.127 16.2612 106.127 16.3523C106.137 16.4332 106.107 16.5243 106.067 16.6356Z" fill="url(#paint0_linear_253_511)"/>
<path d="M20.9936 10.949C19.5494 10.7567 18.115 10.8984 16.7704 11.3133L17.7863 3.32969L16.3022 3.13744C13.6427 2.78329 10.9932 3.51183 8.8716 5.18139C6.75 6.85096 5.3854 9.25918 5.03678 11.971C4.32958 17.5564 8.22417 22.6966 13.7324 23.4151C14.1706 23.4758 14.6089 23.496 15.0372 23.496C16.0333 23.496 17.0194 23.3341 17.9557 23.0407L16.9397 31.0242L18.4238 31.2165C18.8621 31.2772 19.3003 31.2974 19.7286 31.2974C21.9399 31.2974 24.0814 30.5588 25.8544 29.1624C27.986 27.4929 29.3406 25.0846 29.6892 22.3729C30.3964 16.7975 26.4919 11.6674 20.9936 10.949ZM7.99507 12.3555C8.23413 10.4532 9.19034 8.75325 10.6944 7.57949C11.7901 6.71942 13.075 6.2236 14.4197 6.10218L13.5431 13.0031C11.81 14.3691 10.5948 16.2309 10.027 18.3457C8.52298 16.8279 7.70622 14.6524 7.99507 12.3555ZM14.1109 20.3997C13.6228 20.339 13.1547 20.2277 12.7064 20.0658C12.9654 18.204 13.9117 16.5446 15.3858 15.391C16.8799 14.2173 18.7326 13.7114 20.6151 13.9542C21.1032 14.0149 21.5714 14.1262 22.0196 14.2881C21.7606 16.1499 20.8143 17.8094 19.3402 18.9629C17.8361 20.1367 15.9835 20.6527 14.1109 20.3997ZM26.721 21.9985C26.4819 23.9008 25.5257 25.6007 24.0217 26.7744C22.926 27.6345 21.6411 28.1303 20.2964 28.2517L21.1729 21.3509C22.9061 19.9849 24.1213 18.1231 24.689 16.0083C26.1931 17.5261 27.0098 19.7117 26.721 21.9985Z" fill="url(#paint1_linear_253_511)"/>
<path d="M10.1166 33.2907C9.91737 33.2907 9.71816 33.2806 9.51895 33.2503C6.99892 32.9164 5.20602 30.5689 5.53472 28.0089C5.86342 25.4489 8.17427 23.6275 10.6943 23.9614C13.2143 24.2953 15.0072 26.6428 14.6785 29.2028C14.5192 30.4474 13.9016 31.5504 12.9255 32.3092C12.1087 32.9568 11.1326 33.2907 10.1166 33.2907ZM10.1066 26.9565C9.29982 26.9565 8.60258 27.5636 8.49301 28.3934C8.38345 29.2939 9.01096 30.1236 9.89745 30.2349C10.3258 30.2956 10.7541 30.1742 11.0927 29.901C11.4314 29.6278 11.6605 29.2433 11.7103 28.8082C11.8198 27.9077 11.1923 27.0779 10.3058 26.9666C10.2461 26.9565 10.1763 26.9565 10.1066 26.9565Z" fill="#BC56FC"/>
<path d="M24.6788 9.89667C24.4796 9.89667 24.2804 9.88655 24.0812 9.85619C21.5612 9.52228 19.7683 7.17477 20.097 4.61477C20.2563 3.37018 20.8739 2.26726 21.85 1.50837C22.8262 0.739354 24.0314 0.415559 25.2566 0.567338C27.7766 0.901251 29.5695 3.24876 29.2408 5.80876C28.9519 8.16639 26.9598 9.89667 24.6788 9.89667ZM24.6689 3.56244C24.3103 3.56244 23.9716 3.68386 23.6828 3.90647C23.3441 4.17967 23.115 4.56418 23.0652 4.99927C22.9557 5.89983 23.5832 6.72955 24.4697 6.84086C25.3462 6.96228 26.1729 6.31469 26.2925 5.41414C26.402 4.51358 25.7745 3.68386 24.888 3.57256C24.8083 3.56244 24.7386 3.56244 24.6689 3.56244Z" fill="#BC53FF"/>
</g>
<defs>
<filter id="filter0_d_253_511" x="0.953857" y="0.530884" width="110.827" height="40.7599" filterUnits="userSpaceOnUse" color-interpolation-filters="sRGB">
<feFlood flood-opacity="0" result="BackgroundImageFix"/>
<feColorMatrix in="SourceAlpha" type="matrix" values="0 0 0 0 0 0 0 0 0 0 0 0 0 0 0 0 0 0 127 0" result="hardAlpha"/>
<feOffset dy="4"/>
<feGaussianBlur stdDeviation="2"/>
<feComposite in2="hardAlpha" operator="out"/>
<feColorMatrix type="matrix" values="0 0 0 0 0 0 0 0 0 0 0 0 0 0 0 0 0 0 0.25 0"/>
<feBlend mode="normal" in2="BackgroundImageFix" result="effect1_dropShadow_253_511"/>
<feBlend mode="normal" in="SourceGraphic" in2="effect1_dropShadow_253_511" result="shape"/>
</filter>
<linearGradient id="paint0_linear_253_511" x1="103.763" y1="17.3414" x2="106.134" y2="17.3414" gradientUnits="userSpaceOnUse">
<stop stop-color="#F1A0AD"/>
<stop offset="0.1538" stop-color="#E087C7"/>
<stop offset="0.3418" stop-color="#D070E0"/>
<stop offset="0.5394" stop-color="#C560F1"/>
<stop offset="0.7508" stop-color="#BE56FC"/>
<stop offset="1" stop-color="#BC53FF"/>
</linearGradient>
<linearGradient id="paint1_linear_253_511" x1="12.2559" y1="9.94745" x2="27.0199" y2="30.2217" gradientUnits="userSpaceOnUse">
<stop stop-color="#F1A0AD"/>
<stop offset="0.1538" stop-color="#E087C7"/>
<stop offset="0.3418" stop-color="#D070E0"/>
<stop offset="0.5394" stop-color="#C560F1"/>
<stop offset="0.7508" stop-color="#BE56FC"/>
<stop offset="1" stop-color="#BC53FF"/>
</linearGradient>
</defs>
</svg>
