<svg xmlns="http://www.w3.org/2000/svg" xmlns:xlink="http://www.w3.org/1999/xlink" width="1393" height="255" viewBox="0 0 1393 255">
  <defs>
    <filter id="Rectangle_162" x="0" y="0" width="1393" height="255" filterUnits="userSpaceOnUse">
      <feOffset dy="3" input="SourceAlpha"/>
      <feGaussianBlur stdDeviation="3" result="blur"/>
      <feFlood flood-opacity="0.161"/>
      <feComposite operator="in" in2="blur"/>
      <feComposite in="SourceGraphic"/>
    </filter>
    <linearGradient id="linear-gradient" x1="0.991" y1="0.445" x2="0.013" y2="0.434" gradientUnits="objectBoundingBox">
      <stop offset="0" stop-color="#0376ba"/>
      <stop offset="1" stop-color="#fff" stop-opacity="0"/>
    </linearGradient>
  </defs>
  <g id="Group_232" data-name="Group 232" transform="translate(-301 -218)">
    <g transform="matrix(1, 0, 0, 1, 301, 218)" filter="url(#Rectangle_162)">
      <rect id="Rectangle_162-2" data-name="Rectangle 162" width="1375" height="237" rx="5" transform="translate(9 6)" fill="#fff"/>
    </g>
    <g id="Group_134" data-name="Group 134" transform="translate(311 260.879)">
      <path id="Path_101" data-name="Path 101" d="M6402,3016.363s370.893-101.547,576.072-58.811c153.267,35.367,212.6,64.839,484.521-114.942,18.541-11.789,58.078-34.411,87.938-21.512s19.1,8.212,19.1,8.212" transform="translate(-6402 -2817.242)" fill="none" stroke="#015f9a" stroke-width="1" opacity="0.38"/>
      <path id="Path_102" data-name="Path 102" d="M6402,3017.8s425.019-101.3,660.142-58.668c175.633,35.281,243.621,64.682,555.229-114.662,21.246-11.76-5.752-17.211,28.466-4.344" transform="translate(-6306.689 -2817.675)" fill="none" stroke="#015f9a" stroke-width="1" opacity="0.38"/>
    </g>
    <g id="Group_230" data-name="Group 230" transform="translate(-195)">
      <rect id="Rectangle_173" data-name="Rectangle 173" width="940" height="237" transform="translate(940 224)" fill="url(#linear-gradient)"/>
    </g>
  </g>
</svg>
