<svg xmlns="http://www.w3.org/2000/svg" xmlns:xlink="http://www.w3.org/1999/xlink" width="1588" height="255" viewBox="0 0 1588 255">
  <defs>
    <filter id="Rectangle_162" x="0" y="0" width="1588" height="255" filterUnits="userSpaceOnUse">
      <feOffset dy="3" input="SourceAlpha"/>
      <feGaussianBlur stdDeviation="3" result="blur"/>
      <feFlood flood-opacity="0.161"/>
      <feComposite operator="in" in2="blur"/>
      <feComposite in="SourceGraphic"/>
    </filter>
    <linearGradient id="linear-gradient" x1="0.991" y1="0.445" x2="0.013" y2="0.434" gradientUnits="objectBoundingBox">
      <stop offset="0" stop-color="#0376ba"/>
      <stop offset="1" stop-color="#fff" stop-opacity="0"/>
    </linearGradient>
  </defs>
  <g id="Group_232" data-name="Group 232" transform="translate(-301 -218)">
    <g transform="matrix(1, 0, 0, 1, 301, 218)" filter="url(#Rectangle_162)">
      <rect id="Rectangle_162-2" data-name="Rectangle 162" width="1570" height="237" rx="5" transform="translate(9 6)" fill="#fff"/>
    </g>
    <g id="Group_134" data-name="Group 134" transform="translate(269 -3.363)">
      <path id="Path_101" data-name="Path 101" d="M6402,3016.363s432.733-101.547,672.124-58.811c178.821,35.367,248.042,64.839,565.307-114.942,21.632-11.789,67.761-34.411,102.6-21.512s22.287,8.212,22.287,8.212" transform="translate(-6360 -2553)" fill="none" stroke="#015f9a" stroke-width="1" opacity="0.38"/>
      <path id="Path_102" data-name="Path 102" d="M6402,3017.8s491.651-101.3,763.635-58.668c203.168,35.281,281.814,64.682,642.274-114.662,24.577-11.76-6.654-17.211,32.929-4.344" transform="translate(-6264.689 -2553.433)" fill="none" stroke="#015f9a" stroke-width="1" opacity="0.38"/>
    </g>
    <g id="Group_230" data-name="Group 230">
      <rect id="Rectangle_173" data-name="Rectangle 173" width="940" height="237" transform="translate(940 224)" fill="url(#linear-gradient)"/>
    </g>
  </g>
</svg>
