<svg xmlns="http://www.w3.org/2000/svg" xmlns:xlink="http://www.w3.org/1999/xlink" width="1854" height="255" viewBox="0 0 1854 255">
  <defs>
    <filter id="Rectangle_162" x="0" y="0" width="1854" height="255" filterUnits="userSpaceOnUse">
      <feOffset dy="3" input="SourceAlpha"/>
      <feGaussianBlur stdDeviation="3" result="blur"/>
      <feFlood flood-opacity="0.161"/>
      <feComposite operator="in" in2="blur"/>
      <feComposite in="SourceGraphic"/>
    </filter>
    <linearGradient id="linear-gradient" x1="0.991" y1="0.445" x2="0.013" y2="0.434" gradientUnits="objectBoundingBox">
      <stop offset="0" stop-color="#0376ba"/>
      <stop offset="1" stop-color="#fff" stop-opacity="0"/>
    </linearGradient>
  </defs>
  <g id="Group_216" data-name="Group 216" transform="translate(-33 -253)">
    <g transform="matrix(1, 0, 0, 1, 33, 253)" filter="url(#Rectangle_162)">
      <rect id="Rectangle_162-2" data-name="Rectangle 162" width="1836" height="237" rx="5" transform="translate(9 6)" fill="#fff"/>
    </g>
    <rect id="Rectangle_173" data-name="Rectangle 173" width="980" height="237" transform="translate(898 259)" fill="url(#linear-gradient)"/>
    <g id="Group_214" data-name="Group 214">
      <g id="Group_134" data-name="Group 134" transform="translate(0 5)">
        <path id="Path_101" data-name="Path 101" d="M6402,3044s503.56-115.641,782.131-66.974c208.089,40.276,288.64,73.839,657.832-130.895,25.172-13.425,78.852-39.187,119.394-24.5s25.935,9.351,25.935,9.351" transform="translate(-6360 -2553)" fill="none" stroke="#015f9a" stroke-width="1" opacity="0.38"/>
        <path id="Path_102" data-name="Path 102" d="M6402,3044s503.56-115.641,782.131-66.974c208.089,40.276,288.64,73.839,657.832-130.895,25.172-13.425-6.815-19.648,33.727-4.959" transform="translate(-6041.356 -2553)" fill="none" stroke="#015f9a" stroke-width="1" opacity="0.38"/>
      </g>
    </g>
  </g>
</svg>
