<svg width="26" height="26" viewBox="0 0 26 26" fill="none" xmlns="http://www.w3.org/2000/svg">
<path d="M14.1626 13L17.6726 9.49001C17.7909 9.35185 17.8528 9.17413 17.8457 8.99236C17.8387 8.81059 17.7634 8.63817 17.6348 8.50955C17.5061 8.38092 17.3337 8.30557 17.1519 8.29855C16.9702 8.29153 16.7924 8.35336 16.6543 8.47168L13.1443 11.9456L9.61262 8.4139C9.47446 8.29558 9.29674 8.23375 9.11497 8.24077C8.93321 8.24779 8.76078 8.32314 8.63216 8.45177C8.50354 8.58039 8.42818 8.75282 8.42116 8.93458C8.41414 9.11635 8.47597 9.29407 8.59429 9.43223L12.1187 13L8.66651 16.4089C8.59091 16.4736 8.5295 16.5533 8.48615 16.6429C8.4428 16.7325 8.41844 16.8301 8.4146 16.9296C8.41076 17.029 8.42752 17.1282 8.46383 17.2209C8.50014 17.3136 8.55521 17.3978 8.6256 17.4681C8.69598 17.5385 8.78015 17.5936 8.87283 17.6299C8.96551 17.6662 9.0647 17.683 9.16416 17.6791C9.26362 17.6753 9.36122 17.6509 9.45082 17.6076C9.54042 17.5642 9.6201 17.5028 9.68484 17.4272L13.1298 13.9822L16.5532 17.4056C16.6913 17.5239 16.8691 17.5857 17.0508 17.5787C17.2326 17.5717 17.405 17.4963 17.5336 17.3677C17.6623 17.2391 17.7376 17.0666 17.7446 16.8849C17.7517 16.7031 17.6898 16.5254 17.5715 16.3872L14.1626 13Z" fill="black"/>
<path d="M13.0009 24.5555C10.7154 24.5555 8.48125 23.8777 6.58095 22.608C4.68065 21.3382 3.19954 19.5335 2.32493 17.422C1.45032 15.3105 1.22148 12.9871 1.66735 10.7455C2.11323 8.50396 3.21379 6.44496 4.82986 4.82889C6.44594 3.21281 8.50494 2.11225 10.7465 1.66638C12.9881 1.2205 15.3115 1.44934 17.423 2.32396C19.5345 3.19857 21.3392 4.67967 22.609 6.57997C23.8787 8.48028 24.5564 10.7144 24.5564 12.9999C24.5564 16.0646 23.339 19.0038 21.1719 21.1709C19.0048 23.338 16.0656 24.5555 13.0009 24.5555ZM13.0009 2.88879C11.0011 2.88879 9.0462 3.48179 7.38344 4.59282C5.72068 5.70384 4.42471 7.28298 3.65942 9.13054C2.89414 10.9781 2.6939 13.0111 3.08404 14.9725C3.47418 16.9338 4.43717 18.7355 5.85124 20.1495C7.2653 21.5636 9.06693 22.5266 11.0283 22.9167C12.9897 23.3069 15.0227 23.1066 16.8702 22.3413C18.7178 21.5761 20.2969 20.2801 21.408 18.6173C22.519 16.9546 23.112 14.9997 23.112 12.9999C23.112 10.3183 22.0467 7.74646 20.1505 5.85026C18.2543 3.95406 15.6825 2.88879 13.0009 2.88879Z" fill="black"/>
</svg>
