<svg width="36" height="36" viewBox="0 0 36 36" fill="none" xmlns="http://www.w3.org/2000/svg">
<g clip-path="url(#clip0_212_462)">
<path d="M18 0C13.2261 0 8.64773 1.89642 5.27208 5.27208C1.89642 8.64773 0 13.2261 0 18C0 22.7739 1.89642 27.3523 5.27208 30.7279C8.64773 34.1036 13.2261 36 18 36C22.7739 36 27.3523 34.1036 30.7279 30.7279C34.1036 27.3523 36 22.7739 36 18C36 13.2261 34.1036 8.64773 30.7279 5.27208C27.3523 1.89642 22.7739 0 18 0V0ZM18.183 7.7145C18.858 7.7145 19.533 7.7805 20.196 7.9125L18.183 12.1215C14.943 12.12 12.3045 14.76 12.3045 18C12.3045 21.24 14.9445 23.88 18.1845 23.88C19.59 23.88 20.9505 23.373 22.014 22.4535L24.2385 26.3115C22.7047 27.4289 20.8916 28.1001 18.9999 28.2509C17.1083 28.4016 15.2118 28.026 13.5203 27.1656C11.8289 26.3052 10.4086 24.9936 9.41643 23.376C8.4243 21.7583 7.89912 19.8977 7.899 18C7.899 15.2725 8.98249 12.6567 10.9111 10.7281C12.8397 8.79949 15.4555 7.716 18.183 7.716V7.7145ZM23.43 8.4495C23.443 8.44937 23.456 8.44937 23.469 8.4495C24.1095 8.4495 24.657 8.619 25.1205 8.9595C25.5855 9.303 25.8195 9.7785 25.8195 10.3785C25.8195 11.337 25.2795 11.9235 24.267 12.4425L23.7015 12.729C23.097 13.035 22.7985 13.3065 22.716 13.788H25.791V15.063H21.1395V14.847C21.1395 14.058 21.294 13.407 21.6105 12.888C21.927 12.3705 22.4745 11.913 23.2635 11.5125L23.6265 11.337C24.267 11.013 24.4335 10.7355 24.4335 10.3995C24.4335 10.0005 24.0915 9.7125 23.5335 9.7125C22.8735 9.7125 22.374 10.0545 22.0275 10.7535L21.1395 9.861C21.3345 9.4425 21.6465 9.108 22.068 8.8485C22.4751 8.58929 22.9474 8.45093 23.43 8.4495ZM20.289 16.5315H25.38L27.9255 20.937L25.38 25.347L22.8345 20.937H17.745L20.289 16.5315Z" fill="white"/>
</g>
<defs>
<clipPath id="clip0_212_462">
<rect width="36" height="36" fill="white"/>
</clipPath>
</defs>
</svg>
