<svg width="36" height="36" viewBox="0 0 36 36" fill="none" xmlns="http://www.w3.org/2000/svg">
<g clip-path="url(#clip0_212_458)">
<path d="M30.6735 30.6741H25.3394V22.3205C25.3394 20.3286 25.3038 17.7643 22.5652 17.7643C19.787 17.7643 19.3619 19.9347 19.3619 22.1755V30.6735H14.0279V13.4953H19.1485V15.8429H19.2202C19.7327 14.9667 20.4732 14.2459 21.3629 13.7572C22.2526 13.2685 23.2582 13.0303 24.2726 13.068C29.679 13.068 30.6757 16.6241 30.6757 21.2504L30.6735 30.6741ZM8.0092 11.1473C6.29962 11.1476 4.91348 9.76187 4.91319 8.05229C4.91291 6.34272 6.29849 4.95658 8.00807 4.95629C9.71765 4.95587 11.1038 6.34159 11.1041 8.05117C11.1042 8.87214 10.7782 9.65955 10.1978 10.2402C9.61745 10.8208 8.83017 11.1471 8.0092 11.1473ZM10.6763 30.6742H5.33662V13.4953H10.6761V30.6741L10.6763 30.6742ZM33.3327 0.00249804H2.6563C1.20646 -0.0138145 0.0174746 1.14761 -0.000244141 2.59745V33.4018C0.0169121 34.8523 1.20576 36.0149 2.65616 35.9997H33.3327C34.7862 36.0177 35.9797 34.8551 35.9998 33.4018V2.59506C35.9791 1.1424 34.7855 -0.018877 33.3327 0.000107415" fill="white"/>
</g>
<defs>
<clipPath id="clip0_212_458">
<rect width="36" height="36" fill="white"/>
</clipPath>
</defs>
</svg>
