<svg width="18" height="18" viewBox="0 0 18 18" fill="none" xmlns="http://www.w3.org/2000/svg">
<path d="M13.6249 6.42478C13.7376 6.31211 13.8009 6.15931 13.8009 5.99998C13.8009 5.84064 13.7376 5.68784 13.6249 5.57518C13.5122 5.46251 13.3594 5.39922 13.2001 5.39922C13.0408 5.39922 12.888 5.46251 12.7753 5.57518L7.2001 11.1516L5.2249 9.17518C5.11223 9.06251 4.95943 8.99922 4.8001 8.99922C4.64077 8.99922 4.48796 9.06251 4.3753 9.17518C4.26263 9.28784 4.19934 9.44065 4.19934 9.59998C4.19934 9.75931 4.26263 9.91211 4.3753 10.0248L6.7753 12.4248C6.83103 12.4807 6.89724 12.525 6.97014 12.5552C7.04303 12.5855 7.12118 12.601 7.2001 12.601C7.27902 12.601 7.35716 12.5855 7.43006 12.5552C7.50295 12.525 7.56916 12.4807 7.6249 12.4248L13.6249 6.42478ZM3.8185 0.599976C2.96493 0.599976 2.14631 0.939056 1.54275 1.54262C0.939178 2.14619 0.600098 2.9648 0.600098 3.81838V14.1816C0.600098 15.96 2.0401 17.4 3.8185 17.4H14.1817C15.9601 17.4 17.4001 15.96 17.4001 14.1816V3.81838C17.4001 2.03998 15.9601 0.599976 14.1817 0.599976H3.8185ZM1.8001 3.81838C1.8001 2.70358 2.7037 1.79998 3.8185 1.79998H14.1817C15.2965 1.79998 16.2001 2.70358 16.2001 3.81838V14.1816C16.2001 15.2964 15.2965 16.2 14.1817 16.2H3.8185C3.28319 16.2 2.7698 15.9873 2.39127 15.6088C2.01275 15.2303 1.8001 14.7169 1.8001 14.1816V3.81838Z" fill="#BC53FF"/>
</svg>
