<svg width="18" height="18" viewBox="0 0 18 18" fill="none" xmlns="http://www.w3.org/2000/svg">
<path d="M3.8185 0.599976C2.96493 0.599976 2.14631 0.939056 1.54275 1.54262C0.939178 2.14619 0.600098 2.9648 0.600098 3.81838V14.1816C0.600098 15.96 2.0401 17.4 3.8185 17.4H14.1817C15.9601 17.4 17.4001 15.96 17.4001 14.1816V3.81838C17.4001 2.03998 15.9601 0.599976 14.1817 0.599976H3.8185ZM1.8001 3.81838C1.8001 2.70358 2.7037 1.79998 3.8185 1.79998H14.1817C15.2965 1.79998 16.2001 2.70358 16.2001 3.81838V14.1816C16.2001 15.2964 15.2965 16.2 14.1817 16.2H3.8185C3.28319 16.2 2.7698 15.9873 2.39127 15.6088C2.01275 15.2303 1.8001 14.7169 1.8001 14.1816V3.81838Z" fill="#BC53FF"/>
</svg>
