<svg width="44" height="44" viewBox="0 0 44 44" fill="none" xmlns="http://www.w3.org/2000/svg">
<path d="M7.33341 16.5C9.35846 16.5 11.0001 14.8584 11.0001 12.8333C11.0001 10.8083 9.35846 9.16666 7.33341 9.16666C5.30837 9.16666 3.66675 10.8083 3.66675 12.8333C3.66675 14.8584 5.30837 16.5 7.33341 16.5Z" fill="#02044A"/>
<path d="M16.4999 25.6667C18.525 25.6667 20.1666 24.0251 20.1666 22C20.1666 19.975 18.525 18.3333 16.4999 18.3333C14.4749 18.3333 12.8333 19.975 12.8333 22C12.8333 24.0251 14.4749 25.6667 16.4999 25.6667Z" fill="#02044A"/>
<path d="M27.4999 16.5C29.525 16.5 31.1666 14.8584 31.1666 12.8333C31.1666 10.8083 29.525 9.16666 27.4999 9.16666C25.4749 9.16666 23.8333 10.8083 23.8333 12.8333C23.8333 14.8584 25.4749 16.5 27.4999 16.5Z" fill="#02044A"/>
<path d="M27.4999 25.6667C29.525 25.6667 31.1666 24.0251 31.1666 22C31.1666 19.975 29.525 18.3333 27.4999 18.3333C25.4749 18.3333 23.8333 19.975 23.8333 22C23.8333 24.0251 25.4749 25.6667 27.4999 25.6667Z" fill="#02044A"/>
<path d="M27.4999 34.8333C29.525 34.8333 31.1666 33.1917 31.1666 31.1667C31.1666 29.1416 29.525 27.5 27.4999 27.5C25.4749 27.5 23.8333 29.1416 23.8333 31.1667C23.8333 33.1917 25.4749 34.8333 27.4999 34.8333Z" fill="#02044A"/>
<path d="M36.6667 16.5C38.6917 16.5 40.3333 14.8584 40.3333 12.8333C40.3333 10.8083 38.6917 9.16666 36.6667 9.16666C34.6416 9.16666 33 10.8083 33 12.8333C33 14.8584 34.6416 16.5 36.6667 16.5Z" fill="#02044A"/>
<path d="M7.33341 34.8333C9.35846 34.8333 11.0001 33.1917 11.0001 31.1667C11.0001 29.1416 9.35846 27.5 7.33341 27.5C5.30837 27.5 3.66675 29.1416 3.66675 31.1667C3.66675 33.1917 5.30837 34.8333 7.33341 34.8333Z" fill="#02044A"/>
</svg>
