<svg width="37.352" height="30.561" viewBox="4 0 89 79" fill="none" xmlns="http://www.w3.org/2000/svg">
<rect width="89" height="79" rx="12" fill="#0376BA"/>
<path d="M55.9376 39.5C59.6451 39.5 63.2007 40.9728 65.8223 43.5944C68.4439 46.216 69.9167 49.7717 69.9167 53.4792C69.9167 57.1867 68.4439 60.7423 65.8223 63.3639C63.2007 65.9855 59.6451 67.4583 55.9376 67.4583C52.2301 67.4583 48.6744 65.9855 46.0528 63.3639C43.4312 60.7423 41.9584 57.1867 41.9584 53.4792C41.9584 49.7717 43.4312 46.216 46.0528 43.5944C48.6744 40.9728 52.2301 39.5 55.9376 39.5V39.5ZM55.9376 44.5833L55.7088 44.6011C55.4549 44.6475 55.2211 44.7701 55.0386 44.9527C54.8561 45.1352 54.7335 45.369 54.6871 45.6229L54.6667 45.8542V52.2083H48.3075L48.0787 52.2287C47.8248 52.2751 47.591 52.3977 47.4085 52.5802C47.226 52.7627 47.1034 52.9965 47.057 53.2504L47.0367 53.4792L47.057 53.7079C47.1034 53.9619 47.226 54.1956 47.4085 54.3782C47.591 54.5607 47.8248 54.6833 48.0787 54.7297L48.3075 54.75H54.6667V61.1118L54.6871 61.3406C54.7335 61.5945 54.8561 61.8283 55.0386 62.0108C55.2211 62.1933 55.4549 62.3159 55.7088 62.3623L55.9376 62.3826L56.1663 62.3623C56.4203 62.3159 56.654 62.1933 56.8366 62.0108C57.0191 61.8283 57.1417 61.5945 57.1881 61.3406L57.2084 61.1118V54.75L63.5727 54.7526L63.8015 54.7322C64.0554 54.6858 64.2892 54.5632 64.4717 54.3807C64.6542 54.1982 64.7769 53.9644 64.8233 53.7105L64.8436 53.4817L64.8233 53.253C64.7767 52.9987 64.6537 52.7647 64.4707 52.5821C64.2877 52.3995 64.0533 52.2771 63.799 52.2312L63.5702 52.2109H57.2084V45.8567L57.1881 45.628C57.1422 45.3736 57.0198 45.1392 56.8372 44.9562C56.6546 44.7732 56.4206 44.6502 56.1663 44.6037L55.9376 44.5833ZM42.0143 44.5833C40.3136 47.2383 39.4119 50.3262 39.4167 53.4792C39.4167 55.726 39.8641 57.8661 40.6774 59.8206C34.186 59.4699 30.5209 56.7147 30.5209 51.5729V49.0313C30.5209 46.576 32.5136 44.5833 34.9688 44.5833H42.0143ZM32.112 31.875C31.6685 33.6008 31.6856 35.4127 32.1615 37.1298C32.6374 38.8469 33.5554 40.4091 34.824 41.6604L35.2357 42.0442L34.9688 42.0417C33.4434 42.0411 31.9597 42.5396 30.744 43.4611C29.5284 44.3826 28.6475 45.6765 28.236 47.1453L28.1495 47.1479C20.7533 47.1479 16.5417 44.3775 16.5417 38.8646V36.3229C16.5418 35.2067 16.9616 34.1312 17.7177 33.3101C18.4739 32.4889 19.5112 31.9821 20.6237 31.8903L20.9897 31.875H32.112V31.875ZM41.9584 26.7917C43.9807 26.7917 45.9201 27.595 47.3501 29.025C48.7801 30.455 49.5834 32.3944 49.5834 34.4167C49.5834 36.439 48.7801 38.3784 47.3501 39.8084C45.9201 41.2383 43.9807 42.0417 41.9584 42.0417C39.9361 42.0417 37.9967 41.2383 36.5667 39.8084C35.1368 38.3784 34.3334 36.439 34.3334 34.4167C34.3334 32.3944 35.1368 30.455 36.5667 29.025C37.9967 27.595 39.9361 26.7917 41.9584 26.7917V26.7917ZM62.9272 31.875C65.3824 31.875 67.3751 33.8677 67.3751 36.3229L67.3725 38.768C67.4234 39.7059 67.3471 40.565 67.1514 41.3453C64.1016 38.5193 60.0954 36.9521 55.9376 36.9583C54.4855 36.9569 53.0396 37.1466 51.6371 37.5226C52.2248 35.6936 52.283 33.7357 51.8048 31.875H62.9272ZM27.9792 14.0833C30.0015 14.0833 31.941 14.8867 33.3709 16.3167C34.8009 17.7466 35.6042 19.6861 35.6042 21.7083C35.6042 23.7306 34.8009 25.6701 33.3709 27.1C31.941 28.53 30.0015 29.3333 27.9792 29.3333C25.957 29.3333 24.0175 28.53 22.5876 27.1C21.1576 25.6701 20.3542 23.7306 20.3542 21.7083C20.3542 19.6861 21.1576 17.7466 22.5876 16.3167C24.0175 14.8867 25.957 14.0833 27.9792 14.0833V14.0833ZM55.9376 14.0833C57.9599 14.0833 59.8993 14.8867 61.3293 16.3167C62.7592 17.7466 63.5626 19.6861 63.5626 21.7083C63.5626 23.7306 62.7592 25.6701 61.3293 27.1C59.8993 28.53 57.9599 29.3333 55.9376 29.3333C53.9153 29.3333 51.9759 28.53 50.5459 27.1C49.1159 25.6701 48.3126 23.7306 48.3126 21.7083C48.3126 19.6861 49.1159 17.7466 50.5459 16.3167C51.9759 14.8867 53.9153 14.0833 55.9376 14.0833Z" fill="white"/>
</svg>
