<svg xmlns="http://www.w3.org/2000/svg" width="66.998" height="67" viewBox="0 0 66.998 67">
  <g id="Icon_ionic-ios-person-add" data-name="Icon ionic-ios-person-add" transform="translate(-4.501 -4.5)">
    <path id="Path_39" data-name="Path 39" d="M60.559,60.682c-2.722-.96-6.6-1.186-9.09-1.745-1.431-.314-3.507-1.1-4.2-1.937-.611-.733-.366-6.7-.3-8.235a1.808,1.808,0,0,1,.192-.663,25.751,25.751,0,0,0,1.8-3.49,39.6,39.6,0,0,0,1.326-5.81,1.358,1.358,0,0,1,.7-.977,3.176,3.176,0,0,0,1.361-2.338c.541-2.739,1.4-3.8,1.291-5.845a2.468,2.468,0,0,0-.558-1.658,1.317,1.317,0,0,1-.349-1.291,36.79,36.79,0,0,0,.907-7.956C53.789,11.566,48.171,4.5,38.016,4.5c-10.312,0-15.79,7.066-15.633,14.237a38.374,38.374,0,0,0,.89,7.956,1.389,1.389,0,0,1-.349,1.291,2.38,2.38,0,0,0-.558,1.658c-.1,2.041.75,3.106,1.291,5.845a3.216,3.216,0,0,0,1.361,2.338,1.392,1.392,0,0,1,.7.977,39.6,39.6,0,0,0,1.326,5.81,26.742,26.742,0,0,0,1.8,3.49,1.229,1.229,0,0,1,.192.663c.07,1.535.314,7.52-.3,8.235-.7.837-2.774,1.623-4.2,1.937-2.5.558-6.368.785-9.09,1.745-2.478.872-9.649,3.577-10.9,9.125A1.4,1.4,0,0,0,5.912,71.5H70.1a1.392,1.392,0,0,0,1.361-1.692C70.208,64.259,63.037,61.555,60.559,60.682Z" transform="translate(0 0)" fill="#707070"/>
    <path id="Path_40" data-name="Path 40" d="M39.668,24.543H34.957V19.832A1.832,1.832,0,0,0,33.125,18h0a1.832,1.832,0,0,0-1.832,1.832v4.711H26.582a1.832,1.832,0,0,0-1.832,1.832h0a1.832,1.832,0,0,0,1.832,1.832h4.711v4.711a1.832,1.832,0,0,0,1.832,1.832h0a1.832,1.832,0,0,0,1.832-1.832V28.207h4.711A1.832,1.832,0,0,0,41.5,26.375h0A1.832,1.832,0,0,0,39.668,24.543Z" transform="translate(29.999 20)" fill="#707070"/>
  </g>
</svg>
