<svg id="undraw_Publish_article_re_3x8h_1_" data-name="undraw_Publish_article_re_3x8h (1)" xmlns="http://www.w3.org/2000/svg" width="627.543" height="462.932" viewBox="0 0 627.543 462.932">
  <rect id="Rectangle_246" data-name="Rectangle 246" width="495.844" height="292.028" transform="translate(131.395 0.402)" fill="#e6e6e6"/>
  <rect id="Rectangle_264" data-name="Rectangle 264" width="495.844" height="30.182" transform="translate(131.698)" fill="#45a4e4"/>
  <rect id="Rectangle_247" data-name="Rectangle 247" width="472.786" height="238.447" transform="translate(143.322 39.453)" fill="#fff"/>
  <circle id="Ellipse_194" data-name="Ellipse 194" cx="4.993" cy="4.993" r="4.993" transform="translate(575.563 10.021)" fill="#fff"/>
  <circle id="Ellipse_195" data-name="Ellipse 195" cx="4.993" cy="4.993" r="4.993" transform="translate(556.611 10.021)" fill="#fff"/>
  <circle id="Ellipse_246" data-name="Ellipse 246" cx="4.993" cy="4.993" r="4.993" transform="translate(594.564 10.021)" fill="#fff"/>
  <rect id="Rectangle_250" data-name="Rectangle 250" width="362.503" height="9.468" transform="translate(198.464 80.63)" fill="#e6e6e6"/>
  <rect id="Rectangle_251" data-name="Rectangle 251" width="129.25" height="9.468" transform="translate(298.391 95.687)" fill="#e6e6e6"/>
  <rect id="Rectangle_251-2" data-name="Rectangle 251" width="129.25" height="9.468" transform="translate(298.391 139.735)" fill="#e6e6e6"/>
  <rect id="Rectangle_251-3" data-name="Rectangle 251" width="129.25" height="9.468" transform="translate(298.391 162.297)" fill="#e6e6e6"/>
  <rect id="Rectangle_252" data-name="Rectangle 252" width="257.49" height="9.468" transform="translate(235.878 117.402)" fill="#e6e6e6"/>
  <rect id="Rectangle_224" data-name="Rectangle 224" width="68.005" height="16.814" transform="translate(169.443 201.476)" fill="#45a4e4"/>
  <path id="Path_750" data-name="Path 750" d="M513.142,526.129h11.42L530,482.076H513.139Z" transform="translate(-422.107 -73.802)" fill="#9f616a"/>
  <path id="Path_751" data-name="Path 751" d="M517.354,525.861H495.328v13.868h35.894A13.868,13.868,0,0,0,517.354,525.861Z" transform="translate(-400.037 -76.798)" fill="#2f2e41"/>
  <path id="Path_752" data-name="Path 752" d="M559.142,526.129h11.42L576,482.076H559.139Z" transform="translate(-510.96 -73.802)" fill="#9f616a"/>
  <path id="Path_753" data-name="Path 753" d="M563.354,525.861H541.328v13.868h35.894A13.868,13.868,0,0,0,563.354,525.861Z" transform="translate(-495.593 -76.798)" fill="#2f2e41"/>
  <path id="Path_754" data-name="Path 754" d="M866.683,559.2A10.008,10.008,0,0,0,868.6,543.97l7.52-106.719-21.662,2.1-.595,104.511A10.062,10.062,0,0,0,866.683,559.2Z" transform="translate(-817.106 -223.02)" fill="#9f616a"/>
  <path id="Path_755" data-name="Path 755" d="M845.162,675.164l12.573-.6a4.191,4.191,0,0,0,3.993-4.158l.877-127.213a4.193,4.193,0,0,0-4.794-4.178l-50.3,7.3a4.168,4.168,0,0,0-3.59,4.117l-6.469,117.876a4.192,4.192,0,0,0,4.192,4.224H815.2a4.172,4.172,0,0,0,4.141-3.541s10.238-88.418,11.644-88.366c1.414.026,9.816,90.847,9.816,90.847a4.208,4.208,0,0,0,4.163,3.694Q845.061,675.169,845.162,675.164Z" transform="translate(-753.588 -245.03)" fill="#2f2e41"/>
  <path id="Path_756" data-name="Path 756" d="M879.287,472.5a4.175,4.175,0,0,0,1.731-3.168l1.587-28.764a11.55,11.55,0,0,0-22.68-3.658l-6.972,25.716a4.2,4.2,0,0,0,2.949,5.143l19.834,5.378A4.176,4.176,0,0,0,879.287,472.5Z" transform="translate(-825.172 -217.261)" fill="#3f3d56"/>
  <circle id="Ellipse_195-2" data-name="Ellipse 195" cx="22.88" cy="22.88" r="22.88" transform="translate(49.761 147.322)" fill="#9f616a"/>
  <path id="Path_757" data-name="Path 757" d="M787.119,425.5a9.8,9.8,0,0,0-.223,1.528l-40.018,23.086-9.727-5.6-10.37,13.575,20.809,14.831,45.655-36.017a9.778,9.778,0,1,0-6.126-11.4Z" transform="translate(-623.735 -216.126)" fill="#9f616a"/>
  <path id="Path_758" data-name="Path 758" d="M833.491,448.376a4.175,4.175,0,0,0-1.2-3.4L811.919,424.6a11.55,11.55,0,0,0-17.857,14.455l14.5,22.351a4.2,4.2,0,0,0,5.8,1.234L831.6,451.453a4.176,4.176,0,0,0,1.887-3.077Z" transform="translate(-719.606 -216.055)" fill="#3f3d56"/>
  <path id="Path_759" data-name="Path 759" d="M819.139,393.479c4.268,4.547,12.2,2.106,12.752-4.106a7.51,7.51,0,0,0-.01-1.449c-.287-2.751-1.877-5.249-1.5-8.155a4.276,4.276,0,0,1,.783-2c3.4-4.555,11.386,2.037,14.6-2.086,1.968-2.528-.345-6.509,1.165-9.335,1.994-3.73,7.9-1.89,11.6-3.932,4.12-2.273,3.874-8.594,1.162-12.439-3.308-4.689-9.107-7.191-14.834-7.552s-11.414,1.188-16.761,3.271c-6.075,2.367-12.1,5.639-15.837,10.981-4.546,6.5-4.984,15.229-2.71,22.825C810.933,384.121,815.654,389.767,819.139,393.479Z" transform="translate(-762.689 -204.504)" fill="#2f2e41"/>
  <path id="Path_760" data-name="Path 760" d="M720.408,720.051H900.2a.932.932,0,0,0,0-1.863H720.408a.932.932,0,0,0,0,1.863Z" transform="translate(-719.476 -257.292)" fill="#3f3d56"/>
  <path id="Path_761" data-name="Path 761" d="M808.613,418.011q.6-.429,1.216-.842A30.146,30.146,0,0,1,816.9,413.7v-6.012h17.7v5.578a31.04,31.04,0,0,1,22.51,25.792l12.052,89.479a4.171,4.171,0,0,1-.867,3.169,4.116,4.116,0,0,1-2.845,1.558c-4.176.417-12.837,2.035-23.923,8.194a35.518,35.518,0,0,1-17.426,4.448,42.005,42.005,0,0,1-14.184-2.525,4.161,4.161,0,0,1-2.718-3.731c-.434-9.63-2.972-59.2-10.363-89.43a30.907,30.907,0,0,1,11.772-32.208Z" transform="translate(-758.81 -218.954)" fill="#3f3d56"/>
</svg>
