<svg xmlns="http://www.w3.org/2000/svg" width="29.719" height="29.719" viewBox="0 0 29.719 29.719">
  <g id="app-indicator" transform="translate(-2.25)">
    <path id="Path_173" data-name="Path 173" d="M11.166,4.231a6.934,6.934,0,0,0-6.934,6.934v9.906a6.934,6.934,0,0,0,6.934,6.934h9.906a6.934,6.934,0,0,0,6.934-6.934V16.119a.991.991,0,1,1,1.981,0v4.953a8.916,8.916,0,0,1-8.916,8.916H11.166A8.916,8.916,0,0,1,2.25,21.072V11.166A8.916,8.916,0,0,1,11.166,2.25h4.953a.991.991,0,1,1,0,1.981Z" transform="translate(0 -0.269)" fill="#015f9a" fill-rule="evenodd"/>
    <path id="Path_174" data-name="Path 174" d="M34.388,5.944A5.944,5.944,0,1,1,28.444,0,5.944,5.944,0,0,1,34.388,5.944Z" transform="translate(-2.419)" fill="#015f9a"/>
  </g>
</svg>
