<svg xmlns="http://www.w3.org/2000/svg" width="9.664" height="18.746" viewBox="0 0 9.664 18.746">
  <path id="Icon_ionic-ios-attach" data-name="Icon ionic-ios-attach" d="M18.887,7.651a.653.653,0,0,0-.653.653v8.133a3.374,3.374,0,0,1-.92,2.305,3.311,3.311,0,0,1-2.322.991h-.569A3.252,3.252,0,0,1,12.131,18.7a3.359,3.359,0,0,1-1-2.309V5.9a2.274,2.274,0,0,1,.724-1.652,2.489,2.489,0,0,1,1.715-.682A2.328,2.328,0,0,1,15.921,5.9v9.8a1.322,1.322,0,0,1-1.213,1.347,1.286,1.286,0,0,1-1.18-1.347V10.111a.653.653,0,1,0-1.305,0V15.7a2.51,2.51,0,0,0,4.271,1.883,2.643,2.643,0,0,0,.732-1.883V5.9A3.657,3.657,0,0,0,13.558,2.25a3.671,3.671,0,0,0-2.6,1.067,3.609,3.609,0,0,0-1.084,2.59V16.4a4.675,4.675,0,0,0,1.364,3.263A4.522,4.522,0,0,0,14.419,21h.569a4.57,4.57,0,0,0,3.175-1.343,4.7,4.7,0,0,0,1-1.447,4.38,4.38,0,0,0,.372-1.761V8.3A.647.647,0,0,0,18.887,7.651Z" transform="translate(-9.872 -2.25)" fill="#5c6dff"/>
</svg>
