<svg id="undraw_My_answer_re_k4dv" xmlns="http://www.w3.org/2000/svg" width="276.015" height="213.074" viewBox="0 0 276.015 213.074">
  <path id="Path_220" data-name="Path 220" d="M947.361,633.892c-1.16-9.328-6.941-18.519-15.838-21.555a43.31,43.31,0,0,1,0,29.735c-1.367,3.7-3.272,7.668-1.987,11.395a9.68,9.68,0,0,0,4.945,5.2,28.749,28.749,0,0,0,7.014,2.156l.472.39C945.771,652.622,948.52,643.221,947.361,633.892Z" transform="translate(-676.024 -449.037)" fill="#f0f0f0"/>
  <path id="Path_221" data-name="Path 221" d="M935.656,612.146a37.018,37.018,0,0,1,9.2,20.834,15.942,15.942,0,0,1-.181,4.991,9.143,9.143,0,0,1-2.274,4.241,18.922,18.922,0,0,0-2.937,3.515,5.6,5.6,0,0,0-.274,4.57,14.546,14.546,0,0,0,3.223,4.808c1.443,1.6,2.967,3.23,3.58,5.345.074.256.468.126.393-.13-1.067-3.68-4.639-5.77-6.343-9.084a5.67,5.67,0,0,1-.383-4.975,14.683,14.683,0,0,1,2.914-3.625,9.756,9.756,0,0,0,2.378-4.064,14.736,14.736,0,0,0,.373-4.966,35.914,35.914,0,0,0-2.623-10.914,37.675,37.675,0,0,0-6.774-10.856c-.177-.2-.45.114-.274.311Z" transform="translate(-680.246 -448.67)" fill="#fff"/>
  <path id="Path_222" data-name="Path 222" d="M961.259,654.082a5.554,5.554,0,0,0,4.228-5.818.207.207,0,0,0-.414.021,5.143,5.143,0,0,1-3.943,5.4c-.259.062-.128.455.13.393Z" transform="translate(-696.757 -472.278)" fill="#fff"/>
  <path id="Path_223" data-name="Path 223" d="M947.12,685.667a10.705,10.705,0,0,1-4.78-6.165c-.075-.256-.469-.126-.393.13a11.135,11.135,0,0,0,4.987,6.405c.23.136.415-.234.186-.37Z" transform="translate(-684.367 -492.627)" fill="#fff"/>
  <path id="Path_224" data-name="Path 224" d="M944.1,632.408a3.144,3.144,0,0,1-2.979-.151c-.228-.139-.413.232-.186.37a3.523,3.523,0,0,0,3.3.175.214.214,0,0,0,.132-.262A.208.208,0,0,0,944.1,632.408Z" transform="translate(-683.65 -461.971)" fill="#fff"/>
  <path id="Path_225" data-name="Path 225" d="M858.461,658.143c.14.091.28.182.42.276a41.4,41.4,0,0,1,5.294,4.133c.129.115.259.234.385.353a43.649,43.649,0,0,1,9.479,12.976,42.388,42.388,0,0,1,2.322,6.007c.857,2.843,1.559,5.993,3.255,8.318a7.246,7.246,0,0,0,.566.7h15.326c.035-.017.07-.031.1-.049l.612.028c-.025-.108-.052-.22-.077-.329-.014-.063-.031-.126-.046-.189-.01-.042-.021-.084-.028-.122,0-.014-.007-.028-.01-.039-.007-.038-.018-.073-.025-.108q-.231-.939-.476-1.878s0,0,0-.007a62.322,62.322,0,0,0-5.245-13.77c-.07-.129-.14-.262-.217-.392a40.449,40.449,0,0,0-3.633-5.511,35.738,35.738,0,0,0-2.381-2.724,29.733,29.733,0,0,0-7.441-5.574c-5.5-2.9-11.86-4.014-17.735-2.241C858.758,658.049,858.611,658.094,858.461,658.143Z" transform="translate(-630.08 -478.182)" fill="#f0f0f0"/>
  <path id="Path_226" data-name="Path 226" d="M858.225,659.767a37.018,37.018,0,0,1,19.891,11.094,15.943,15.943,0,0,1,2.86,4.095,9.143,9.143,0,0,1,.738,4.755,18.926,18.926,0,0,0-.229,4.575,5.6,5.6,0,0,0,2.533,3.814,14.545,14.545,0,0,0,5.468,1.9c2.112.405,4.313.793,6.076,2.112.214.16.449-.181.236-.341-3.067-2.3-7.178-1.814-10.534-3.435a5.67,5.67,0,0,1-3.3-3.741,14.682,14.682,0,0,1,.144-4.649,9.757,9.757,0,0,0-.548-4.676,14.739,14.739,0,0,0-2.692-4.189,35.916,35.916,0,0,0-8.666-7.135,37.674,37.674,0,0,0-11.945-4.589c-.261-.052-.291.362-.032.413Z" transform="translate(-629.81 -479.611)" fill="#fff"/>
  <path id="Path_227" data-name="Path 227" d="M909.95,673.233a5.554,5.554,0,0,0-.127-7.191c-.177-.2-.5.066-.318.266a5.143,5.143,0,0,1,.1,6.689C909.44,673.2,909.781,673.438,909.95,673.233Z" transform="translate(-663.242 -483.918)" fill="#fff"/>
  <path id="Path_228" data-name="Path 228" d="M911.632,711.531a10.7,10.7,0,0,1-7.529-2.044c-.214-.159-.45.182-.236.34a11.134,11.134,0,0,0,7.839,2.112C911.971,711.909,911.9,711.5,911.632,711.531Z" transform="translate(-659.554 -512.19)" fill="#fff"/>
  <path id="Path_229" data-name="Path 229" d="M877.153,667.59a3.144,3.144,0,0,1-2.47,1.673c-.266.026-.19.434.074.408a3.523,3.523,0,0,0,2.736-1.845.214.214,0,0,0-.052-.288A.208.208,0,0,0,877.153,667.59Z" transform="translate(-640.522 -484.912)" fill="#fff"/>
  <path id="Path_230" data-name="Path 230" d="M641.884,175.045a4.04,4.04,0,0,0,1.218,6.074l-2.362,14.161,6.819-3.026,1.2-12.983a4.062,4.062,0,0,0-6.872-4.225Z" transform="translate(-488.486 -163.646)" fill="#9e616a"/>
  <path id="Path_231" data-name="Path 231" d="M598.843,552.883h-5.576l-2.653-21.506h8.229Z" transform="translate(-384.1 -345.575)" fill="#9e616a"/>
  <path id="Path_232" data-name="Path 232" d="M790.085,740.213H772.106v-.227a7,7,0,0,1,7-7h10.982Z" transform="translate(-573.92 -527.501)" fill="#2f2e41"/>
  <path id="Path_233" data-name="Path 233" d="M491.843,552.883h-5.576l-2.653-21.506h8.229Z" transform="translate(-314.514 -345.575)" fill="#9e616a"/>
  <path id="Path_234" data-name="Path 234" d="M683.085,740.213H665.106v-.227a7,7,0,0,1,7-7h10.981Z" transform="translate(-504.334 -527.501)" fill="#2f2e41"/>
  <path id="Path_235" data-name="Path 235" d="M692.477,451.188l-2.084,2.741s-.189,1.28-3.35,11.709l-1.734,78.385H695.8l14.021-62.717,14.552,63.976,9.093.536-.428-72.715s1.149-14.959-2.922-17.738S692.477,451.188,692.477,451.188Z" transform="translate(-517.472 -344.235)" fill="#2f2e41"/>
  <ellipse id="Ellipse_75" data-name="Ellipse 75" cx="11.007" cy="11.007" rx="11.007" ry="11.007" transform="translate(178.065 19.068)" fill="#9e616a"/>
  <path id="Path_236" data-name="Path 236" d="M733.578,200.068l-.182-.364a65.586,65.586,0,0,1-2.9-6.438l-2.929.345h-7.628l1.06-1.59-2.8.366a6.431,6.431,0,0,0-2.856,1.076,4.375,4.375,0,0,0-1.3,1.335c-1,1.714-2.53,4.518-2.546,4.546l-.146.268-1.271-2.138c-.017-.083-1.592-8.3,3.679-11.084a8.482,8.482,0,0,1,8.063-4.6,3.471,3.471,0,0,1,2.36-1.173,5.134,5.134,0,0,1,3.852,1.96,32.978,32.978,0,0,1,5.537,7.072l.4.564a4.448,4.448,0,0,1,.792,2.762,9.222,9.222,0,0,1-.314,4.7Z" transform="translate(-533.431 -168.27)" fill="#2f2e41"/>
  <path id="Path_237" data-name="Path 237" d="M724.388,268.729l6.091,3.366,11.965,3.35-3.571,31.31.65,30.842s-20.253,13.874-39.672-2.329V296.448l1.149-21s4.647-1.32,6.987.957l4.438-5.765Z" transform="translate(-526.928 -225.575)" fill="#e4e4e4"/>
  <path id="Path_238" data-name="Path 238" d="M449.571,89.451l-2.684-2.885L432.1,84.891l1.388-22.714-8.063-5.752L419.5,88.4l27.364,19.167Z" transform="translate(-272.818 -36.696)" fill="#e4e4e4"/>
  <path id="Path_239" data-name="Path 239" d="M796.41,460.6a4.04,4.04,0,0,1,3.923-4.794l4.553-13.615,4.6,5.87-5.029,12.029a4.062,4.062,0,0,1-8.051.51Z" transform="translate(-589.679 -338.382)" fill="#9e616a"/>
  <path id="Path_240" data-name="Path 240" d="M804.257,291.522l4.5-3.584s4.6,2.535,5.995,7.081,3.846,30.42,3.846,30.42l-6.644,33.218-7.43-5.153,3.583-26.317-6.294-19.231Z" transform="translate(-593.237 -238.067)" fill="#e4e4e4"/>
  <rect id="Rectangle_184" data-name="Rectangle 184" width="113.36" height="27.547" transform="translate(41.31)" fill="#e6e6e6"/>
  <path id="Path_241" data-name="Path 241" d="M331.958,175.417H439.37v-21.6H331.958Z" transform="translate(-287.674 -150.844)" fill="#fff"/>
  <circle id="Ellipse_76" data-name="Ellipse 76" cx="8.228" cy="8.228" r="8.228" transform="translate(56.514 5.545)" fill="#5c6dff"/>
  <rect id="Rectangle_185" data-name="Rectangle 185" width="55.047" height="1.789" transform="translate(84.419 10.554)" fill="#5c6dff"/>
  <rect id="Rectangle_186" data-name="Rectangle 186" width="55.047" height="1.789" transform="translate(84.419 15.205)" fill="#5c6dff"/>
  <path id="Rectangle_1" data-name="Rectangle 1" d="M205.309,265.054l95.917,7v25.184l-95.917-1.781Z" transform="translate(-205.309 -223.185)" fill="#e6e6e6"/>
  <path id="Path_1" data-name="Path 1" d="M213.95,298.727l90.8,2.221V281.111l-90.8-6.09Z" transform="translate(-210.929 -229.667)" fill="#fff"/>
  <path id="Ellipse_1" data-name="Ellipse 1" d="M256.362,286.6a7.219,7.219,0,0,1,2.991.866,8.327,8.327,0,0,1,2.418,1.994,9.418,9.418,0,0,1,1.618,2.822,9.871,9.871,0,0,1,.591,3.372,9.418,9.418,0,0,1-.591,3.318,8.364,8.364,0,0,1-1.618,2.676,7.3,7.3,0,0,1-2.418,1.773,6.786,6.786,0,0,1-2.991.592,7.164,7.164,0,0,1-3.025-.777,8.253,8.253,0,0,1-2.5-1.962,9.38,9.38,0,0,1-1.7-2.864,9.867,9.867,0,0,1-.624-3.461,9.4,9.4,0,0,1,.624-3.406,8.314,8.314,0,0,1,1.7-2.708,7.252,7.252,0,0,1,2.5-1.733A6.782,6.782,0,0,1,256.362,286.6Z" transform="translate(-233.412 -237.186)" fill="#e6e6e6"/>
  <path id="Rectangle_2" data-name="Rectangle 2" d="M322.037,304.444l44.193,2.3v1.674l-44.193-2.147Z" transform="translate(-281.222 -248.802)" fill="#e6e6e6"/>
  <path id="Rectangle_3" data-name="Rectangle 3" d="M322.037,318.051l44.193,1.9v1.674l-44.193-1.741Z" transform="translate(-281.222 -257.651)" fill="#e6e6e6"/>
  <path id="Rectangle_4" data-name="Rectangle 4" d="M205.309,408.055l95.917-1.781v25.184l-95.917,7Z" transform="translate(-205.309 -315.026)" fill="#e6e6e6"/>
  <path id="Path_2" data-name="Path 2" d="M213.95,440.121l90.8-6.09V414.2l-90.8,2.221Z" transform="translate(-210.929 -320.178)" fill="#fff"/>
  <path id="Ellipse_2" data-name="Ellipse 2" d="M248.523,435.589a9.854,9.854,0,0,1,.764-3.434,9.266,9.266,0,0,1,1.807-2.777,8.113,8.113,0,0,1,2.567-1.834,7.078,7.078,0,0,1,3.046-.623,6.8,6.8,0,0,1,2.957.745,7.406,7.406,0,0,1,2.339,1.9,8.5,8.5,0,0,1,1.506,2.759,9.514,9.514,0,0,1,.458,3.35,9.86,9.86,0,0,1-.723,3.346,9.311,9.311,0,0,1-1.727,2.745,8.188,8.188,0,0,1-2.492,1.874,7.129,7.129,0,0,1-3.019.714,6.788,6.788,0,0,1-3-.658,7.352,7.352,0,0,1-2.418-1.863,8.456,8.456,0,0,1-1.581-2.8A9.5,9.5,0,0,1,248.523,435.589Z" transform="translate(-233.407 -328.453)" fill="#e6e6e6"/>
  <path id="Rectangle_5" data-name="Rectangle 5" d="M322.037,436.838,366.23,435.1v1.674l-44.193,1.9Z" transform="translate(-281.222 -333.771)" fill="#e6e6e6"/>
  <path id="Rectangle_6" data-name="Rectangle 6" d="M322.037,449.689l44.193-2.147v1.674l-44.193,2.3Z" transform="translate(-281.222 -341.865)" fill="#e6e6e6"/>
  <path id="Path_242" data-name="Path 242" d="M745.261,753.387H612.041a.35.35,0,0,1,0-.7H745.261a.35.35,0,0,1,0,.7Z" transform="translate(-469.595 -540.313)" fill="#cacaca"/>
</svg>
