<svg xmlns="http://www.w3.org/2000/svg" width="442.364" height="442.38" viewBox="0 0 442.364 442.38">
  <g id="undraw_male_avatar_323b" transform="translate(0)">
    <path id="Path_210" data-name="Path 210" d="M704.363,333.182a220.432,220.432,0,0,1-17.812,87.1l-.733,1.688A221.547,221.547,0,0,1,444.8,551.046q-1.993-.353-3.979-.733a219.2,219.2,0,0,1-40.009-11.8q-3.151-1.266-6.256-2.624c-1.413-.615-2.827-1.25-4.227-1.9A221.453,221.453,0,0,1,262,333.182C262,211.028,361.028,112,483.182,112S704.363,211.028,704.363,333.182Z" transform="translate(-262 -112)" fill="#6c63ff"/>
    <path id="Path_211" data-name="Path 211" d="M491.768,625.82q-1.993-.353-3.979-.733c-.864-25.069-3.828-76.524-13.938-130.412-5.529-29.493-13.205-59.726-23.852-86.752a270.015,270.015,0,0,0-12.479-27.379c-10.758-20.319-23.806-37.424-39.629-49.013l2.33-3.18q19.74,14.468,35.481,40.624,4.721,7.833,9.07,16.713,4.663,9.5,8.893,20.175,2.7,6.792,5.215,14.056,10.954,31.538,18.624,71.969,1.7,8.932,3.233,18.3A928.05,928.05,0,0,1,491.768,625.82Z" transform="translate(-308.966 -186.774)" opacity="0.2"/>
    <path id="Path_212" data-name="Path 212" d="M442.793,702.719c-1.413-.615-2.827-1.25-4.227-1.9-1.368-14.855-3.88-33.282-8.474-50.774a166.576,166.576,0,0,0-7.728-23.034c-5.242-12.27-12.028-22.7-20.8-29.133l2.33-3.174c9.188,6.727,16.275,17.361,21.752,29.8,6.171,14.017,10.287,30.331,13.029,45.918C440.705,681.995,441.988,693.178,442.793,702.719Z" transform="translate(-310.234 -278.829)" opacity="0.2"/>
    <circle id="Ellipse_176" data-name="Ellipse 176" cx="19.689" cy="19.689" r="19.689" transform="translate(47.229 105.286)" opacity="0.2"/>
    <circle id="Ellipse_177" data-name="Ellipse 177" cx="19.689" cy="19.689" r="19.689" transform="translate(53.569 274.777)" opacity="0.2"/>
    <path id="Path_213" data-name="Path 213" d="M483.141,332.174c-4.175,23.556,5.042,44.886,5.042,44.886s15.986-16.862,20.162-40.418-5.042-44.886-5.042-44.886S487.316,308.618,483.141,332.174Z" transform="translate(-338.055 -174.126)" opacity="0.2"/>
    <path id="Path_214" data-name="Path 214" d="M364.536,423.932c22.468,8.216,45.046,2.943,45.046,2.943s-13.851-18.593-36.319-26.809-45.046-2.943-45.046-2.943S342.068,415.716,364.536,423.932Z" transform="translate(-284.886 -209.968)" opacity="0.2"/>
    <path id="Path_215" data-name="Path 215" d="M364.462,657.74c15.748,5.759,31.6,2,31.6,2s-9.686-13.093-25.434-18.852-31.6-2-31.6-2S348.714,651.982,364.462,657.74Z" transform="translate(-288.622 -293.685)" opacity="0.2"/>
    <circle id="Ellipse_178" data-name="Ellipse 178" cx="86.228" cy="86.228" r="86.228" transform="translate(134.499 97.705)" fill="#d0cde1"/>
    <path id="Path_216" data-name="Path 216" d="M547.833,479.733s10.779,51.2,10.779,56.587,51.2,29.641,51.2,29.641l45.809-8.084,16.168-48.5s-26.946-40.419-26.946-56.587Z" transform="translate(-360.789 -229.781)" fill="#d0cde1"/>
    <path id="Path_217" data-name="Path 217" d="M729.836,560.352l-.733,1.688A221.547,221.547,0,0,1,488.087,691.117q-1.993-.353-3.979-.733a219.207,219.207,0,0,1-40.009-11.8q-3.151-1.266-6.256-2.624c-1.413-.615-2.827-1.25-4.227-1.9a220.912,220.912,0,0,1-36.155-21.123l-10.222-29.65,5.745-4.384,11.818-9.024,12.61-9.626,3.278-2.506,49.478-37.771,3.651-2.788,25.717-19.632.007-.007s27.811,45.316,68.233,31.842,39.538-52.109,39.538-52.109Z" transform="translate(-305.285 -252.071)" fill="#2f2e41"/>
    <path id="Path_218" data-name="Path 218" d="M474.324,261.734s27.377-59.317,79.85-45.629,82.132,34.221,84.413,54.754-1.141,51.332-1.141,51.332-5.7-42.206-42.206-33.081-93.538,2.281-93.538,2.281l-9.126,82.132s-10.266-14.829-21.674-5.7S437.821,279.985,474.324,261.734Z" transform="translate(-328.374 -147.272)" fill="#2f2e41"/>
    <path id="Path_219" data-name="Path 219" d="M438.321,734.572q-3.151-1.266-6.256-2.624c-1.413-.615-2.827-1.25-4.227-1.9a221.731,221.731,0,0,1-57.317-38.412,77.546,77.546,0,0,1,10.941-12.361h40.421l6.06,20.378Z" transform="translate(-299.506 -308.058)" fill="#2f2e41"/>
    <path id="Path_220" data-name="Path 220" d="M855.367,576.32l34.676,6.125A221.145,221.145,0,0,1,852.9,640.4Z" transform="translate(-466.225 -272.477)" fill="#2f2e41"/>
  </g>
</svg>
