<svg width="40" height="36" viewBox="0 0 40 36" fill="none" xmlns="http://www.w3.org/2000/svg">
<path d="M29.1285 8.34193C28.3041 6.18038 27.0131 4.49389 25.2552 3.28246C23.4974 2.07104 21.3335 1.46533 18.7635 1.46533C15.4418 1.46533 12.696 2.5283 10.526 4.65422C8.356 6.78015 7.1619 9.45834 6.94369 12.6888C5.31923 13.2114 3.98571 14.2031 2.94315 15.6639C1.90059 17.1247 1.3793 18.7697 1.3793 20.5987C1.3793 22.8315 2.15516 24.7674 3.70689 26.4064C5.25861 28.0454 7.10128 28.8648 9.23491 28.8648H10.2532C10.4229 28.8648 10.5805 28.8351 10.726 28.7758C10.8715 28.7164 10.9927 28.6332 11.0897 28.5264C11.1867 28.4195 11.2655 28.2948 11.3261 28.1522C11.3867 28.0097 11.417 27.8672 11.417 27.7247C11.417 27.4159 11.3079 27.1487 11.0897 26.923C10.8715 26.6973 10.5927 26.5845 10.2532 26.5845H9.23491C7.73167 26.5845 6.42847 25.9907 5.32529 24.803C4.22211 23.6153 3.67052 22.2139 3.67052 20.5987C3.67052 19.1735 4.11907 17.8908 5.01616 16.7506C5.91325 15.6105 7.0043 14.9335 8.28932 14.7197L9.34401 14.5416L9.27127 13.4727H9.23491C9.23491 10.646 10.1077 8.31818 11.8534 6.48917C13.5991 4.66016 15.9025 3.74566 18.7635 3.74566C23.1034 3.74566 25.9038 5.75281 27.1646 9.76713L27.4192 10.551L28.2556 10.5866C29.6861 10.6104 31.0197 10.9667 32.2562 11.6555C33.4927 12.3444 34.4868 13.2886 35.2384 14.4881C35.99 15.6877 36.3658 16.9763 36.3658 18.354C36.3658 19.0191 36.2931 19.6782 36.1476 20.3314C36.0021 20.9847 35.8021 21.6141 35.5475 22.2198C35.293 22.8255 34.9656 23.3956 34.5656 23.9301C34.1655 24.4645 33.7291 24.9277 33.2563 25.3197C32.7835 25.7116 32.2441 26.0204 31.6379 26.246C31.0318 26.4717 30.4014 26.5845 29.7468 26.5845H29.4194C29.274 26.5845 29.1285 26.6142 28.983 26.6736C28.8375 26.733 28.7103 26.8161 28.6011 26.923C28.492 27.0299 28.4072 27.1487 28.3466 27.2793C28.286 27.4099 28.2556 27.5584 28.2556 27.7247C28.2556 28.0335 28.3708 28.3007 28.6011 28.5264C28.8315 28.752 29.1042 28.8648 29.4194 28.8648C30.8257 28.8173 32.1228 28.4788 33.3109 27.8494C34.4989 27.2199 35.4687 26.4004 36.2204 25.3909C36.972 24.3814 37.5599 23.2709 37.9842 22.0595C38.4085 20.8481 38.6207 19.6129 38.6207 18.354C38.6207 15.7649 37.7054 13.5202 35.8749 11.6199C34.0443 9.71963 31.7955 8.62697 29.1285 8.34193ZM24.8734 26.6914C24.7279 26.5251 24.54 26.442 24.3097 26.442C24.0793 26.442 23.8793 26.5251 23.7096 26.6914L21.1638 29.4706V17.9977C21.1638 17.9264 21.1517 17.8492 21.1274 17.7661C21.1032 17.6829 21.0789 17.6117 21.0547 17.5523C21.0304 17.4929 20.9941 17.4276 20.9456 17.3563C20.8971 17.2851 20.8486 17.2257 20.8001 17.1782C20.7516 17.1307 20.6971 17.0891 20.6364 17.0535C20.5758 17.0178 20.5091 16.9822 20.4364 16.9466C20.3637 16.911 20.2909 16.8872 20.2182 16.8753C20.1455 16.8635 20.0727 16.8575 20 16.8575C19.6606 16.8575 19.3817 16.9703 19.1635 17.196C18.9453 17.4217 18.8362 17.6889 18.8362 17.9977V29.4706L16.3631 26.7627C16.1934 26.5964 15.9934 26.5073 15.7631 26.4954C15.5327 26.4836 15.3327 26.5489 15.163 26.6914L14.872 26.8696C14.7023 27.0358 14.6174 27.2377 14.6174 27.4753C14.6174 27.7128 14.7023 27.9147 14.872 28.081L19.0908 32.606V32.6416L19.3817 32.9267C19.5514 33.0929 19.7515 33.1761 19.9818 33.1761C20.2121 33.1761 20.4122 33.0929 20.5819 32.9267L20.8728 32.6416V32.606L25.1643 28.0097C25.528 27.6534 25.528 27.2971 25.1643 26.9408L24.8734 26.6914Z" fill="#BC53FF"/>
<path d="M21.7241 25.8113V16.6415L18.2759 16.6415V25.8113H13.1035L20 34.3019L26.8966 25.8113H21.7241Z" fill="#BC53FF"/>
</svg>
