<svg width="129" height="52" viewBox="0 0 129 52" fill="none" xmlns="http://www.w3.org/2000/svg">
<path d="M0 30L31 30" stroke="white" stroke-opacity="0.87"/>
<path d="M124.2 16.1C118.7 1.29992 100.7 7.89997 99 15.3C96.7 7.39997 79.2 1.49992 73.8 16.1C67.8 32.3 96.9 46.7999 99 49.2C101.1 47.2999 130.2 32 124.2 16.1Z" fill="#FF5A79"/>
<path d="M127 12.4998C126.4 10.5998 125.4 8.8998 124 7.4998C122.7 6.0998 121 4.9998 119.3 4.2998C118.4 3.8998 117.5 3.6998 116.6 3.4998C116.1 3.3998 115.7 3.3998 115.2 3.2998H113.8L115 3.89981L116.2 4.4998C117 4.8998 117.8 5.2998 118.5 5.7998C120 6.6998 121.3 7.7998 122.5 8.9998C123.7 10.1998 124.6 11.5998 125.5 13.1998C125.9 13.9998 126.3 14.7998 126.6 15.5998C126.8 15.9998 126.9 16.4998 127.1 16.8998L127.6 18.1998C127.7 17.6998 127.7 17.1998 127.7 16.7998C127.7 16.2998 127.7 15.7998 127.6 15.3998C127.5 14.3998 127.3 13.3998 127 12.4998Z" fill="#FF5A79"/>
<path d="M129 9.8C128.9 9.1 128.8 8.4 128.6 7.7C128.2 6.3 127.4 5 126.4 3.9C125.4 2.8 124.2 2 122.9 1.6C122.2 1.4 121.6 1.2 120.9 1.1C120.6 1.1 120.2 1 119.9 1C119.6 1 119.2 1 118.9 1.1C119.2 1.3 119.5 1.4 119.8 1.6C120 1.7 120.3 1.9 120.6 2C121.2 2.3 121.7 2.6 122.2 3C123.2 3.7 124.2 4.5 125 5.3C125.8 6.2 126.5 7.2 127.2 8.3C127.5 8.8 127.8 9.4 128.1 10C128.2 10.3 128.4 10.6 128.5 10.9C128.6 11.2 128.8 11.5 128.9 11.9C129 11.5 129 11.2 129 10.8V9.8Z" fill="#FF5A79"/>
<path d="M71.3 15.5998C71.6 14.7998 72 13.8998 72.4 13.1998C73.2 11.5998 74.2 10.1998 75.4 8.9998C76.6 7.7998 77.9 6.6998 79.4 5.7998C80.1 5.2998 80.9 4.8998 81.7 4.4998L82.9 3.89981L84.1 3.2998H82.7C82.2 3.2998 81.8 3.3998 81.3 3.4998C80.4 3.6998 79.5 3.8998 78.6 4.2998C76.9 4.9998 75.3 6.0998 74 7.4998C72.7 8.8998 71.6 10.5998 71 12.4998C70.7 13.3998 70.5 14.3998 70.4 15.2998C70.3 15.7998 70.3 16.2998 70.3 16.6998C70.3 17.1998 70.3 17.6998 70.4 18.0998L70.9 16.7998C71 16.3998 71.1 15.9998 71.3 15.5998Z" fill="#FF5A79"/>
<path d="M73 5.3999C73.8 4.4999 74.8 3.6999 75.8 2.9999C76.3 2.6999 76.9 2.2999 77.4 1.9999C77.7 1.7999 78 1.6999 78.3 1.4999C78.6 1.2999 78.9 1.1999 79.2 0.999902C78.9 0.999902 78.5 0.899902 78.2 0.899902C77.9 0.899902 77.5 0.899902 77.2 0.999902C76.5 1.0999 75.9 1.2999 75.2 1.4999C73.8 2.0999 72.6 2.8999 71.6 3.8999C70.6 4.9999 69.8 6.2999 69.4 7.6999C69.2 8.3999 69.1 9.0999 69 9.7999V10.8999C69 11.2999 69 11.5999 69.1 11.9999C69.2 11.6999 69.4 11.3999 69.5 10.9999C69.7 10.5999 69.8 10.2999 70 9.9999C70.3 9.3999 70.6 8.7999 70.9 8.2999C71.5 7.1999 72.2 6.1999 73 5.3999Z" fill="#FF5A79"/>
<path d="M74.8 34.5L74.7 34.7C75.2 36.2 76 37.4 76.8 38.6C77.6 39.8 78.6 40.8 79.6 41.7C80.6 42.6 81.7 43.5 82.9 44.3C84.1 45.1 85.4 45.7 86.9 46.1L87 45.9C85 43.9 83 42 81 40.1C78.9 38.3 76.9 36.3 74.8 34.5Z" fill="#FF5A79"/>
<path d="M70.6 37.5L70.5 37.7C71.2 39.4 72.1 40.8 73.1 42.1C74.1 43.4 75.2 44.6 76.4 45.7C77.6 46.8 78.8 47.8 80.2 48.8C81.6 49.7 83 50.6 84.7 51.1L84.8 50.9C82.5 48.6 80.1 46.4 77.8 44.1C75.4 41.9 73 39.6 70.6 37.5Z" fill="#FF5A79"/>
<path d="M118.5 41.7C119.5 40.7 120.5 39.7 121.3 38.6C122.1 37.5 122.9 36.2 123.4 34.7L123.3 34.5C121.2 36.3 119.2 38.3 117.1 40.1C115.1 42 113.1 43.9 111.1 45.9L111.2 46.1C112.7 45.7 114 45 115.2 44.3C116.4 43.5 117.4 42.6 118.5 41.7Z" fill="#FF5A79"/>
<path d="M120.2 44.1C117.9 46.4 115.5 48.6 113.2 50.9L113.3 51.1C115 50.5 116.4 49.7 117.8 48.8C119.2 47.9 120.4 46.9 121.6 45.7C122.8 44.6 123.9 43.4 124.9 42.1C125.9 40.8 126.8 39.4 127.5 37.7L127.4 37.5C125 39.6 122.6 41.9 120.2 44.1Z" fill="#FF5A79"/>
</svg>
