<svg width="208" height="153" viewBox="0 0 208 153" fill="none" xmlns="http://www.w3.org/2000/svg">
<path d="M2.23105 75.2068L1.40451 25.1541L51.3671 28.2676L52.1936 78.3203L2.23105 75.2068Z" stroke="white" stroke-opacity="0.22"/>
<path d="M16.8871 51.5253L16.0605 1.47264L66.0231 4.58609L66.8496 54.6388L16.8871 51.5253Z" stroke="white" stroke-opacity="0.22"/>
<path fill-rule="evenodd" clip-rule="evenodd" d="M200.711 93.1399C208.007 93.5803 214.408 96.9412 220.803 100.48C228.166 104.554 236.729 107.694 240.557 115.188C244.645 123.192 245.298 133.212 241.738 141.464C238.299 149.437 229.302 152.715 222.21 157.725C215.239 162.649 209.173 171.566 200.711 170.445C192.175 169.314 189.752 157.858 182.987 152.53C176.651 147.539 165.59 148.014 162.684 140.49C159.791 132.998 166.83 125.56 169.672 118.049C172.34 110.995 172.895 102.663 178.777 97.9433C184.761 93.1412 193.053 92.6776 200.711 93.1399Z" fill="white" fill-opacity="0.12"/>
<g filter="url(#filter0_d_0_1)">
<path fill-rule="evenodd" clip-rule="evenodd" d="M203.711 60.1399C211.007 60.5803 217.408 63.9412 223.803 67.48C231.166 71.5542 239.729 74.6936 243.557 82.1876C247.645 90.1916 248.298 100.212 244.738 108.464C241.299 116.437 232.302 119.715 225.21 124.725C218.239 129.649 212.173 138.566 203.711 137.445C195.175 136.314 192.752 124.858 185.987 119.53C179.651 114.539 168.59 115.014 165.684 107.49C162.791 99.9979 169.83 92.5604 172.672 85.0486C175.34 77.9948 175.895 69.6633 181.777 64.9433C187.761 60.1412 196.053 59.6776 203.711 60.1399Z" fill="white" fill-opacity="0.12" shape-rendering="crispEdges"/>
</g>
<defs>
<filter id="filter0_d_0_1" x="161" y="60" width="90.0564" height="85.5414" filterUnits="userSpaceOnUse" color-interpolation-filters="sRGB">
<feFlood flood-opacity="0" result="BackgroundImageFix"/>
<feColorMatrix in="SourceAlpha" type="matrix" values="0 0 0 0 0 0 0 0 0 0 0 0 0 0 0 0 0 0 127 0" result="hardAlpha"/>
<feOffset dy="4"/>
<feGaussianBlur stdDeviation="2"/>
<feComposite in2="hardAlpha" operator="out"/>
<feColorMatrix type="matrix" values="0 0 0 0 0 0 0 0 0 0 0 0 0 0 0 0 0 0 0.25 0"/>
<feBlend mode="normal" in2="BackgroundImageFix" result="effect1_dropShadow_0_1"/>
<feBlend mode="normal" in="SourceGraphic" in2="effect1_dropShadow_0_1" result="shape"/>
</filter>
</defs>
</svg>
