<svg width="24" height="24" viewBox="0 0 24 24" fill="none" xmlns="http://www.w3.org/2000/svg">
<path d="M16.0642 8.31543C16.0642 8.2123 15.9798 8.12793 15.8767 8.12793L14.3298 8.13496L12.0001 10.9123L9.67275 8.13731L8.12354 8.13027C8.02041 8.13027 7.93604 8.2123 7.93604 8.31777C7.93604 8.3623 7.95244 8.40449 7.98057 8.43965L11.0298 12.0725L7.98057 15.7029C7.95225 15.7373 7.93653 15.7803 7.93604 15.8248C7.93604 15.9279 8.02041 16.0123 8.12354 16.0123L9.67275 16.0053L12.0001 13.2279L14.3274 16.0029L15.8743 16.01C15.9774 16.01 16.0618 15.9279 16.0618 15.8225C16.0618 15.7779 16.0454 15.7357 16.0173 15.7006L12.9728 12.0701L16.022 8.43731C16.0501 8.40449 16.0642 8.35996 16.0642 8.31543Z" fill="#3A3A3A"/>
<path d="M12 1.52344C6.20156 1.52344 1.5 6.225 1.5 12.0234C1.5 17.8219 6.20156 22.5234 12 22.5234C17.7984 22.5234 22.5 17.8219 22.5 12.0234C22.5 6.225 17.7984 1.52344 12 1.52344ZM12 20.7422C7.18594 20.7422 3.28125 16.8375 3.28125 12.0234C3.28125 7.20938 7.18594 3.30469 12 3.30469C16.8141 3.30469 20.7188 7.20938 20.7188 12.0234C20.7188 16.8375 16.8141 20.7422 12 20.7422Z" fill="#3A3A3A"/>
</svg>
