<svg width="412" height="257" viewBox="0 0 412 257" fill="none" xmlns="http://www.w3.org/2000/svg">
<path d="M391.765 187.726C391.5 187.704 391.235 187.683 390.964 187.683H369.298C369.799 187.583 370.292 187.475 370.779 187.361C375.442 186.238 378.983 184.343 381.615 181.567C383.618 179.429 385.513 176.639 386.958 173.842C394.232 173.528 403.646 172.061 405.706 163.785C406.371 161.11 406.485 158.163 406.721 155.431C406.807 154.408 406.879 153.392 406.936 152.377C408.209 152.52 409.218 153.278 409.94 154.666C410.727 156.153 411.142 158.299 411.142 160.867C411.142 171.983 403.781 187.447 391.765 187.726ZM354.992 188.234C354.785 188.234 354.563 188.227 354.341 188.227C353.934 187.983 353.54 187.683 353.161 187.318C349.621 183.828 348.326 175.108 348.326 170.101C348.326 165.717 348.727 160.917 349.714 157.355C358.118 156.289 366.43 154.322 374.491 151.669C379.104 151.719 383.897 151.805 388.31 151.89C389.111 157.505 389.569 162.977 388.274 168.17C387.259 172.24 384.262 177.512 380.978 180.974C378.468 183.627 375.07 185.444 370.564 186.531C366.036 187.619 360.943 188.184 354.992 188.234ZM362.467 240.764C362.467 242.065 360.514 243.21 358.876 243.296C357.431 243.21 356.494 242.216 356.494 240.764V203.083H362.467V240.764ZM362.775 251.15C362.775 253.117 361.18 254.719 359.205 254.719C357.245 254.719 355.636 253.117 355.636 251.15C355.636 249.175 357.245 247.573 359.205 247.573C361.18 247.573 362.775 249.175 362.775 251.15ZM344.392 241.593C343.641 238.496 342.089 235.714 341.052 234.104C342.854 232.788 342.754 231.93 342.439 229.527L342.403 229.148C341.967 225.764 341.702 213.233 341.488 203.083H355.636V240.764C355.636 241.05 355.679 241.329 355.729 241.593H344.392ZM343.891 251.858H303.55V238.94C305.903 237.509 308.485 236.536 311.11 236.122C315.166 237.423 320.044 238.16 324.836 238.16C330.673 238.16 336.381 237.066 340.343 234.577C341.674 236.665 343.956 240.807 343.956 244.927C343.956 247.666 343.927 250.077 343.891 251.858ZM343.82 254.969V255.284C334.006 255.284 306.103 254.726 294.551 254.483H293.807L293.679 254.418L293.715 254.204C293.8 253.725 293.9 253.224 294.008 252.716H302.691V254.425H303.542V252.716H343.877C343.855 253.868 343.827 254.669 343.82 254.969ZM293.321 251.858H293.3C293.257 251.858 293.221 251.872 293.185 251.879C293.185 251.872 293.178 251.858 293.178 251.85C293.35 251.35 293.55 250.785 293.757 250.155C293.6 250.72 293.457 251.3 293.321 251.858ZM292.441 251.364L245.111 236.057C246.435 233.84 248.058 231.579 249.475 230.514C253.452 227.517 258.258 225.879 263.036 225.879C263.887 225.879 264.724 225.943 265.554 226.05C270.568 230.471 277.049 233.303 283.486 234.684C286.998 235.442 290.632 235.635 294.187 235.092C294.387 235.063 294.573 235.027 294.752 234.999C295.302 237.531 295.767 241.286 294.709 244.562C293.829 247.301 293.028 249.662 292.441 251.364ZM291.519 254.018L291.454 254.189C280.997 250.806 248.266 239.512 243.988 238.031L244.017 237.988C244.224 237.602 244.432 237.209 244.668 236.808L292.162 252.172C291.84 253.109 291.612 253.76 291.519 254.018ZM302.691 239.49V251.858H294.194C294.773 249.397 295.617 246.836 296.626 245.413C298.285 243.053 300.374 241.05 302.691 239.49ZM295.932 244.912C295.481 245.549 295.081 246.371 294.709 247.301C294.973 246.522 295.238 245.692 295.517 244.826C296.64 241.357 296.154 237.438 295.567 234.791C297.641 234.162 298.214 232.924 298.822 230.392C299.895 225.879 301.246 221.43 302.691 217.009V238.46C300.088 240.12 297.756 242.323 295.932 244.912ZM302.691 180.466V204.578C301.797 196.266 301.54 187.933 302.691 180.466ZM263.666 223.204C264.91 219.863 265.826 216.366 266.884 212.968C270.84 200.229 274.745 187.475 278.722 174.729C280.067 170.438 281.29 166.661 283.443 162.741C285.331 159.308 288.343 156.69 292.069 155.495C295.496 154.401 299.122 153.836 302.691 153.357V176.031C300.138 186.531 300.953 199.263 302.691 211.351V214.785C302.391 215.7 302.09 216.616 301.804 217.531C300.681 221.022 299.573 224.52 298.571 228.046C298.199 229.326 297.906 230.614 297.577 231.894C296.912 234.476 293.486 234.419 291.297 234.534C285.889 234.827 280.382 233.346 275.461 231.208C273.186 230.228 271.026 229.005 268.98 227.617C267.879 226.887 266.842 226.05 265.84 225.185C265.597 224.963 263.68 223.204 263.666 223.204ZM257.271 144.387L243.337 144.416C248.423 142.935 252.343 141.505 253.781 140.968C256.813 140.961 259.846 140.954 262.872 140.947C263.229 140.947 263.58 140.947 263.938 140.947C263.952 140.947 263.966 140.947 263.98 140.947C264.231 140.947 264.481 140.954 264.731 140.947C278.651 140.925 292.57 140.897 306.489 140.875C306.518 140.875 306.532 140.861 306.554 140.861C307.484 141.397 308.371 141.891 309.236 142.363C310.545 143.064 311.811 143.708 313.07 144.301C294.466 144.33 275.868 144.359 257.271 144.387ZM302.691 150.088L300.281 145.181H302.691V150.088ZM263.093 140.925H263.036C261.391 140.897 257.293 140.825 255.318 140.782C257.3 140.818 261.391 140.897 263.036 140.925H263.093ZM219.161 147.685C211.701 147.685 206.923 144.959 205.628 140.024L205.421 139.151L205.385 139.015L201.873 124.452L205.385 139.015C204.112 133.307 202.545 126.57 200.7 119.596L200.693 119.56L200.514 118.823C204.777 118.043 210.828 115.819 215.942 113.323C215.957 113.33 215.957 113.33 215.957 113.33C217.373 117.478 221.028 128.229 221.028 128.229C221.085 128.401 221.278 128.508 221.436 128.515L252.586 128.072C252.693 128.072 252.786 128.036 252.851 127.979C253.609 127.364 255.798 125.733 256.792 125.64C257.8 125.54 258.981 125.368 259.725 125.246L258.866 127.328C258.795 127.499 258.852 127.693 258.981 127.814C259.124 127.936 259.331 127.95 259.488 127.857L263.58 125.339C264.131 125.382 266.069 125.726 266.048 128.322C266.048 128.458 266.105 128.572 266.212 128.665C266.284 128.723 268.086 130.225 267.078 132.149C266.992 132.313 267.027 132.528 267.163 132.657C267.171 132.671 268.444 133.923 267.442 136.44C267.407 136.548 267.414 136.669 267.464 136.784C267.843 137.578 267.864 138.064 267.571 138.715C266.884 140.188 265.032 140.124 263.544 140.088L263.043 140.067C260.84 140.031 254.231 139.91 254.231 139.91C254.167 139.91 254.117 139.924 254.067 139.938C253.874 140.017 234.332 147.685 219.161 147.685ZM204.927 140.668C204.934 140.675 204.934 140.682 204.941 140.682C204.934 140.682 204.934 140.682 204.934 140.682C204.934 140.682 204.934 140.675 204.927 140.668ZM204.956 144.473L204.791 143.278V141.555C204.934 141.54 205.077 141.526 205.22 141.497C205.664 142.62 206.286 143.607 207.094 144.466C206.386 144.466 205.664 144.473 204.956 144.473ZM217.287 163.278C217.459 163.328 217.638 163.378 217.809 163.421V163.843C217.559 163.6 217.394 163.421 217.287 163.278ZM217.695 196.259C217.237 195.694 217.058 195.479 216.844 195.215C217.759 194.879 217.759 194.879 217.695 196.259ZM213.99 181.968C214.612 182.318 214.955 182.519 215.699 182.933C215.213 183.613 214.962 183.971 214.712 184.321C214.526 184.214 214.34 184.099 214.161 183.992C214.111 183.427 214.068 182.869 213.99 181.968ZM207.903 154.759L207.967 155.038L208.253 155.095C208.303 155.102 213.625 156.018 216.386 156.375C217.323 156.497 218.26 156.618 219.197 156.74C227.108 157.713 235.291 158.721 241.328 162.899C253.895 171.582 250.962 187.311 248.023 196.037C248.001 196.095 247.987 196.152 247.972 196.209V196.216C246.149 201.209 243.194 206.681 240.169 211.888C239.225 213.512 238.28 215.1 237.358 216.645C237.25 216.816 237.15 216.995 237.05 217.167C236.364 218.297 235.705 219.413 235.083 220.471C234.168 222.031 233.138 223.611 232.143 225.156C229.962 228.54 227.709 232.023 226.235 235.7C226.157 235.893 226.235 236.114 226.414 236.229C226.45 236.243 227.866 237.08 229.59 238.189C230.527 239.44 231.285 240.885 231.507 243.088C231.621 244.204 232.301 246.729 231.02 246.729H219.934C218.567 246.729 217.595 244.905 217.044 243.897C216.364 242.645 215.749 241.393 214.655 240.449C213.868 239.762 212.967 239.333 212.015 239.033C210.642 238.596 209.154 238.432 207.745 238.203C206.057 237.924 204.391 237.659 202.681 237.545C202.967 236.236 203.289 234.984 203.668 233.976C204.391 231.987 205.263 229.834 206.186 227.552C209.183 220.157 212.53 211.866 213.124 204.342C216.722 203.948 220.284 203.362 223.703 202.296C226.75 201.359 229.318 199.678 230.648 196.695C232.587 192.339 232.251 186.896 232.236 182.268C232.236 182.261 232.236 182.261 232.236 182.261V181.861C232.251 178.828 232.329 175.802 232.272 172.777C232.251 170.852 232.136 168.878 230.956 167.283C230.026 166.017 228.41 165.438 226.979 164.994C223.739 163.986 220.406 163.278 217.137 162.362C213.16 161.232 209.069 160.023 205.528 157.856C204.584 157.291 203.682 156.668 202.838 155.939C202.037 155.259 201.344 154.487 200.75 153.671C200.678 153.571 200.607 153.478 200.542 153.385C199.148 151.375 198.311 149.036 197.789 146.612H204.491C205.049 147.692 207.38 152.312 207.903 154.759ZM233.989 248.639C233.738 249.44 233.552 249.998 233.345 250.67C232.437 249.483 232.437 249.483 233.989 248.639ZM229.225 248.281C230.026 247.924 230.026 247.924 230.641 248.668C229.969 249.304 229.583 249.104 229.225 248.281ZM214.598 251.693C214.948 250.892 215.156 250.434 215.449 249.783C215.814 250.291 216.021 250.584 216.364 251.057C215.792 251.264 215.377 251.407 214.598 251.693ZM213.525 242.523C213.582 242.945 213.639 243.374 213.718 243.904C213.01 243.339 213.01 243.339 213.525 242.523ZM200.528 254.719C198.554 254.719 196.952 253.117 196.952 251.15C196.952 249.175 198.554 247.573 200.528 247.573C202.488 247.573 204.083 249.175 204.083 251.15C204.083 253.117 202.488 254.719 200.528 254.719ZM200.929 243.861C200.907 244.104 200.893 244.347 200.893 244.548C200.449 244.168 199.977 243.789 199.462 243.389C199.112 243.117 198.661 242.809 198.175 242.466C199.012 242.53 200.457 242.809 200.929 243.861ZM204.562 175.166C204.62 174.5 204.677 173.878 204.763 172.834C205.657 173.12 206.215 173.299 206.887 173.528C206.436 174.744 205.886 175.416 204.562 175.166ZM195.378 240.656C193.046 238.804 189.048 236.372 187.882 235.678C189.327 232.209 191.487 228.861 193.583 225.614C194.577 224.076 195.614 222.474 196.537 220.915L197.202 219.77C200.042 214.971 202.924 210.042 205.349 204.957C207.638 204.814 209.955 204.664 212.266 204.428C211.644 211.781 208.346 219.942 205.399 227.245C204.469 229.527 203.597 231.687 202.867 233.69C201.959 236.15 201.301 239.998 201.029 242.595C200.199 241.88 198.904 241.593 197.653 241.593H196.844C196.372 241.286 195.879 240.971 195.378 240.656ZM191.737 246.729H180.651C179.513 246.729 178.655 245.456 178.083 244.462C177.968 244.254 177.861 244.068 177.768 243.897C177.503 243.41 177.239 242.924 176.96 242.452H192.131C192.167 242.652 192.202 242.867 192.224 243.088C192.331 244.211 193.018 246.729 191.737 246.729ZM176.237 241.386C176.28 241.179 176.309 240.978 176.309 240.764V206.144C176.781 206.123 177.253 206.101 177.732 206.08C186.366 205.686 195.006 205.572 203.64 205.057C203.883 205.05 204.133 205.028 204.369 205.014C202.002 209.921 199.205 214.692 196.472 219.334L195.8 220.471C194.892 222.031 193.855 223.611 192.867 225.156C190.679 228.54 188.426 232.023 186.952 235.7C186.881 235.893 186.952 236.114 187.138 236.229C187.167 236.243 188.583 237.08 190.314 238.189C191.015 239.14 191.616 240.177 191.966 241.593H176.387C176.337 241.522 176.287 241.443 176.237 241.386ZM172.346 254.719C170.372 254.719 168.777 253.117 168.777 251.15C168.777 249.175 170.372 247.573 172.346 247.573C174.306 247.573 175.901 249.175 175.901 251.15C175.901 253.117 174.306 254.719 172.346 254.719ZM166.581 226.086C163.863 225.278 161.045 224.985 158.327 225.249C158.656 224.949 158.978 224.648 159.285 224.341C159.621 224.019 160.515 223.375 160.515 222.853C160.515 221.344 159.543 219.391 159.142 217.932C158.126 214.234 157.175 210.515 156.252 206.781C160.38 206.738 164.5 206.623 168.62 206.466V220.915C167.954 222.667 167.261 224.398 166.581 226.086ZM168.469 238.203C166.781 237.924 165.115 237.667 163.405 237.545C163.684 236.236 164.006 234.984 164.385 233.976C165.115 231.987 165.98 229.834 166.903 227.56C167.475 226.158 168.047 224.727 168.62 223.282V238.224C168.57 238.21 168.519 238.21 168.469 238.203ZM161.882 241.593H160.165L161.96 241.014C161.932 241.207 161.91 241.407 161.882 241.593ZM146.417 246.929V246.035L157.518 242.452H160.301L146.417 246.929ZM145.015 254.719C143.041 254.719 141.446 253.117 141.446 251.15C141.446 249.175 143.041 247.573 145.015 247.573C146.982 247.573 148.577 249.175 148.577 251.15C148.577 253.117 146.982 254.719 145.015 254.719ZM143.828 232.445C139.851 233.761 135.638 234.441 131.447 234.212C129.902 234.119 126.998 234.047 126.075 232.538C125.453 231.522 125.374 230.056 125.066 228.912C123.693 223.733 122.062 218.626 120.388 213.547C120.868 210.336 121.297 207.074 121.619 203.812C121.955 204.056 122.305 204.285 122.684 204.47C124.244 205.236 126.075 205.4 127.784 205.558C130.774 205.837 133.771 206.101 136.768 206.302C142.97 206.731 149.178 206.852 155.387 206.795C156.059 209.513 156.746 212.238 157.454 214.949C158.091 217.36 158.756 219.77 159.45 222.166C159.872 223.633 156.302 225.893 155.315 226.637C151.868 229.219 147.905 231.093 143.828 232.445ZM116.519 230.528C116.261 231.837 116.025 233.103 115.796 234.326C115.761 234.355 115.718 234.369 115.675 234.383V188.491C115.889 189.564 116.118 190.637 116.376 191.696C117.284 195.401 117.928 200.358 120.825 203.147C119.916 212.696 118.092 222.288 116.519 230.528ZM119.408 172.254C119.28 172.319 119.158 172.376 119.029 172.426C118.879 172.14 118.722 171.847 118.564 171.553C118.758 171.482 118.944 171.403 119.144 171.324C119.23 171.632 119.323 171.947 119.408 172.254ZM119.952 147.277C120.832 148.586 121.397 149.401 121.955 150.224C121.862 150.388 121.783 150.553 121.705 150.71C120.667 150.467 119.645 150.21 118.257 149.859C118.815 149.001 119.222 148.393 119.952 147.277ZM127.942 125.153C127.899 125.425 127.62 125.661 127.391 125.99C126.554 125.282 126.525 124.76 127.641 124.009C127.799 124.574 127.977 124.889 127.942 125.153ZM134.093 151.518C134.315 153.135 134.115 153.75 132.484 153.7C133.106 152.863 133.464 152.377 134.093 151.518ZM129.873 108.545C130.138 107.608 130.259 107.178 130.467 106.456C131.068 106.885 131.511 107.193 132.348 107.772C131.368 108.072 130.867 108.237 129.873 108.545ZM130.359 115.819C131.747 114.803 131.747 114.803 132.484 116.541C131.525 116.212 131.032 116.041 130.359 115.819ZM128.428 111.599C128.314 110.941 128.242 110.547 128.113 109.803C128.7 110.19 128.986 110.376 129.394 110.64C129.065 110.977 128.857 111.17 128.428 111.599ZM130.774 169.222C130.438 169.608 130.259 169.815 129.902 170.23C129.63 169.629 129.444 169.214 129.007 168.242C129.866 168.728 130.252 168.935 130.774 169.222ZM128.95 153.972C129.522 153.228 129.801 152.842 130.409 152.048C130.703 152.992 130.831 153.4 131.068 154.151C130.324 154.093 129.844 154.051 128.95 153.972ZM137.97 193.269C137.684 193.555 137.534 193.813 137.369 193.827C136.389 193.934 136.253 193.212 136.203 191.853C136.947 192.454 137.419 192.826 137.97 193.269ZM136.439 149.587V149.137H138.084C138.077 149.323 138.063 149.523 138.049 149.709C137.519 149.68 136.983 149.637 136.439 149.587ZM140.624 140.296H138.921C139.679 139.352 139.679 139.352 140.624 140.296ZM143.456 127.743C142.555 127.65 141.925 127.6 141.224 127.535C142.247 126.591 142.247 126.591 143.456 127.743ZM149.228 204.814C147.948 206.03 147.948 206.03 146.646 204.614C147.519 203.977 148.277 203.984 149.228 204.814ZM148.141 193.212C147.691 194.335 147.033 194.7 145.981 194.092C146.582 192.354 146.582 192.354 148.141 193.212ZM146.095 146.433C146.518 146.59 146.796 146.69 147.49 146.941C146.832 147.549 146.403 147.935 145.974 148.328C145.852 148.221 145.724 148.128 145.609 148.028C145.759 147.52 145.91 147.019 146.095 146.433ZM143.814 124.359C144.98 124.853 145.294 125.418 144.865 126.512C143.821 126.283 143.778 125.554 143.814 124.359ZM145.402 131.534C145.795 131.376 146.21 131.283 146.932 131.062C146.253 132.421 145.552 132.642 144.522 132.077C144.808 131.898 145.094 131.662 145.402 131.534ZM153.42 152.227C154.307 151.54 154.629 152.062 155.022 152.82C154.178 153.342 153.742 153.128 153.42 152.227ZM154.042 155.016C152.848 155.46 152.49 155.052 152.161 153.779C152.919 154.272 153.348 154.551 154.042 155.016ZM153.742 140.217C153.57 140.46 153.406 140.703 153.234 140.939C153.098 140.796 152.969 140.653 152.841 140.503C153.034 140.31 153.234 140.124 153.427 139.931C153.534 140.024 153.635 140.124 153.742 140.217ZM152.755 137.978L152.447 137.52C152.776 137.263 153.105 137.005 153.434 136.748C153.534 136.891 153.635 137.034 153.735 137.191C153.406 137.449 153.077 137.714 152.755 137.978ZM150.766 148.436C150.967 147.785 151.181 147.112 151.446 146.283C152.082 146.562 152.547 146.769 152.991 146.962C152.461 149.251 152.461 149.251 150.766 148.436ZM150.902 197.818C150.859 198.691 150.838 199.063 150.823 199.435C150.709 199.449 150.602 199.471 150.494 199.485C150.43 199.256 150.316 199.013 150.33 198.784C150.337 198.605 150.516 198.441 150.902 197.818ZM150.666 168.478C150.516 168.392 150.38 168.306 150.237 168.22C150.416 167.884 150.587 167.548 150.759 167.219C150.902 167.312 151.045 167.405 151.203 167.498C151.024 167.827 150.838 168.149 150.666 168.478ZM178.233 166.854C178.548 167.233 178.87 167.627 179.37 168.242C178.104 168.571 177.804 168.127 177.775 167.312C177.932 167.154 178.083 167.004 178.233 166.854ZM176.223 120.061H178.104C177.904 120.826 177.747 121.405 177.589 121.977C177.396 121.977 177.217 121.977 177.031 121.97C176.81 121.441 176.581 120.905 176.223 120.061ZM175.007 135.174C175.143 135.131 175.286 135.081 175.422 135.038C175.579 135.46 175.751 135.875 175.93 136.347C175.608 136.397 175.472 136.412 175.222 136.448C175.157 136.026 175.079 135.604 175.007 135.174ZM174.564 161.389C174.521 160.445 174.492 159.866 174.442 158.671C175.365 159.465 175.758 159.809 176.402 160.366C175.758 160.724 175.307 160.974 174.564 161.389ZM171.173 176.424C171.338 178.556 170.401 178.613 169.235 178.549C169.156 178.084 169.092 177.698 168.977 177.082C169.692 176.868 170.308 176.682 171.173 176.424ZM168.219 120.154C168.19 119.996 168.176 119.839 168.147 119.674C168.577 119.567 169.006 119.46 169.421 119.345C169.471 119.567 169.528 119.796 169.564 120.025C169.113 120.061 168.67 120.118 168.219 120.154ZM169.914 105.018C170.2 104.775 170.479 104.525 170.901 104.16C171.195 104.653 171.402 105.011 171.795 105.691C170.98 105.619 170.494 105.576 170.014 105.533C169.979 105.362 169.943 105.19 169.914 105.018ZM171.488 128.801C170.172 129.488 169.886 130.847 168.405 130.668C168.355 129.316 168.856 128.608 169.793 128.358C170.143 128.258 170.579 128.544 171.488 128.801ZM171.574 201.824C171.338 202.217 171.252 202.539 171.102 202.575C170.186 202.797 169.893 202.189 170.093 200.958C170.558 201.23 171.03 201.509 171.574 201.824ZM172.268 136.955C171.76 137.935 171.123 137.771 170.136 137.106C170.901 136.741 171.416 136.49 172.003 136.212C172.139 136.562 172.332 136.834 172.268 136.955ZM173.669 102.787C173.948 102.586 174.227 102.4 174.506 102.214C174.592 102.343 174.671 102.472 174.742 102.601C174.471 102.794 174.192 102.994 173.913 103.187C173.827 103.051 173.748 102.915 173.669 102.787ZM174.935 179.142C174.213 180.602 173.412 181.582 171.588 181.245C172.132 179.965 172.611 178.813 173.276 177.204C174.02 178.07 174.463 178.585 174.935 179.142ZM166.681 154.608C167.16 154.279 167.532 154.015 168.033 153.671C168.441 154.215 168.827 154.709 169.335 155.367C168.798 155.853 168.362 156.246 167.64 156.897C167.218 155.889 166.974 155.295 166.681 154.608ZM167.575 173.106C165.959 173.292 165.959 173.292 165.923 171.747C166.438 172.161 166.824 172.49 167.575 173.106ZM163.441 105.104C164.256 104.425 164.7 104.067 165.358 103.53C165.873 104.839 166.238 105.755 166.667 106.849C165.236 107.021 164.8 105.877 163.441 105.104ZM164.428 113.823C164.728 114.238 164.943 114.446 165.057 114.717C165.215 115.061 165.301 115.44 165.458 115.976C164.557 115.261 164.557 115.261 164.428 113.823ZM164.7 130.475C165.973 131.72 165.973 131.72 164.328 132.635C163.605 131.734 164.242 131.133 164.7 130.475ZM172.039 245.134V245.978C171.788 245.821 171.516 245.642 171.18 245.427C171.552 245.213 171.817 245.134 172.039 245.134ZM172.947 245.992C172.933 246.028 172.911 246.057 172.89 246.092V245.878C172.911 245.914 172.933 245.949 172.947 245.992ZM172.675 243.296C170.966 243.203 169.471 242.023 169.471 240.764V206.43C171.466 206.359 173.462 206.273 175.45 206.187V240.764C175.45 242.101 174.227 243.21 172.675 243.296ZM179.57 133C179.957 132.399 180.193 132.034 180.693 131.247C181.237 132.971 180.779 133.164 179.57 133ZM180.901 125.475C180.25 125.046 179.606 124.595 178.791 124.052C179.199 123.673 179.456 123.444 179.921 123.022C180.429 123.83 180.851 124.488 181.259 125.153C181.137 125.268 181.022 125.368 180.901 125.475ZM183.919 129.037C182.51 127.707 182.51 127.707 183.555 126.319C184.22 127.077 184.656 127.8 183.919 129.037ZM191.923 132.435C192.081 132.449 192.231 132.478 192.381 132.506C192.317 132.95 192.26 133.4 192.195 133.851C192.045 133.822 191.895 133.801 191.73 133.78C191.795 133.329 191.866 132.878 191.923 132.435ZM189.592 106.764C189.448 106.663 189.313 106.57 189.177 106.463C189.506 105.512 189.842 104.553 190.278 103.316C190.457 103.402 190.629 103.48 190.807 103.559C191.208 103.888 191.58 104.26 191.93 104.675C190.951 105.54 190.257 106.163 189.592 106.764ZM191.752 125.947C192.51 127.149 191.895 127.449 191.394 127.807C191.258 127.707 191.115 127.6 190.979 127.499C191.201 127.056 191.423 126.62 191.752 125.947ZM197.874 179.801C198.018 180.387 198.11 180.816 198.246 181.446C197.088 180.788 197.088 180.788 197.874 179.801ZM197.166 142.284C199.362 142.17 201.544 141.998 203.718 141.712L204.262 145.76H197.631C197.417 144.602 197.274 143.443 197.166 142.284ZM130.681 92.6797C133.056 88.5955 135.788 84.3753 139.679 81.2138C142.047 79.2897 144.658 77.7662 147.44 76.6646C148.878 76.0996 150.423 75.7491 151.911 75.4058L152.683 75.2269C153.298 75.0839 153.849 74.8764 154.343 74.6261C154.371 74.6404 154.386 74.669 154.407 74.6762C154.479 74.7119 158.584 76.7505 164.693 76.7505C167.94 76.7505 171.753 76.1711 175.808 74.4044C176.938 75.2341 178.397 75.4272 179.792 75.5059C180.071 75.5202 180.35 75.5345 180.629 75.5417L181.223 75.556C190.328 75.978 198.053 78.9035 204.197 84.2394C211.751 90.82 217.702 100.119 222.695 108.373C217.716 112.185 206.386 117.021 199.899 118.058C199.856 118.072 199.82 118.086 199.784 118.108C199.627 118.187 199.512 118.358 199.548 118.558C199.562 118.616 199.584 118.673 199.613 118.723L204.712 139.881L204.734 139.967L204.712 139.881C204.72 139.902 204.712 139.924 204.72 139.938C204.741 140.038 204.777 140.131 204.798 140.231L204.805 140.239L204.877 140.553C204.884 140.582 204.898 140.61 204.913 140.632C204.913 140.639 204.913 140.639 204.913 140.639C204.913 140.639 204.913 140.639 204.913 140.632C204.913 140.653 204.92 140.668 204.927 140.682C202.331 141.09 199.72 141.311 197.102 141.44C197.066 140.947 197.03 140.46 197.009 139.981C196.737 134.967 196.38 129.974 196.122 124.967C195.879 120.34 195.779 115.697 195.121 111.105C194.556 107.2 193.247 103.752 189.67 101.692C185.851 99.4963 180.779 100.147 176.588 100.262C163.856 100.634 151.138 101.106 138.471 102.472C134.315 102.915 130.173 103.473 126.032 104.01C126.912 100.29 128.464 96.4993 130.681 92.6797ZM174.041 59.6625C175.014 60.6067 175.014 60.6067 174.492 61.7153C173.169 61.2075 173.162 61.1932 174.041 59.6625ZM156.946 71.3072C157.111 70.6205 157.783 67.2158 156.031 66.429C154.972 65.6279 154.014 64.8268 153.112 64.0257C156.202 65.7567 159.593 66.9369 163.191 66.7151C167.404 66.4576 174.299 64.3404 177.46 60.578C178.362 59.4908 178.741 58.189 178.841 57.8886H178.834C178.862 57.8242 178.87 57.7455 178.834 57.6669C178.777 57.488 178.569 57.3879 178.383 57.4523C177.482 57.767 176.23 57.6597 175.522 57.1948C174.227 56.3436 173.519 54.4767 173.812 52.6528C174.063 51.0792 174.957 49.9705 176.28 49.6128H176.287C177.725 49.5628 179.957 48.2538 180.937 47.3096C183.884 44.4485 184.835 38.4688 184.198 35.293C184.527 35.2572 184.871 35.1356 185.207 34.9639C185.879 34.7279 186.552 34.4275 187.167 34.0484C187.603 35.5076 187.961 37.0454 188.275 38.4617L188.404 39.0053C189.198 42.4601 189.348 46.5228 188.848 51.0863C188.619 53.1892 188.261 55.3851 187.746 57.7598C187.138 60.6639 185.958 63.2675 184.363 65.2774C182.567 67.5234 180.35 69.19 177.954 70.0984C175.529 71.0068 173.326 71.343 171.023 71.1427C170.773 71.1284 170.579 71.3001 170.558 71.5361C170.529 71.7793 170.715 71.9796 170.944 72.001C171.395 72.0439 171.838 72.0583 172.296 72.0583C172.31 72.0583 172.332 72.0511 172.36 72.0511C172.725 72.6305 173.426 73.4602 174.206 73.9537C174.27 73.9967 174.335 74.0253 174.399 74.061C165.53 77.4944 158.091 75.2341 155.652 74.2828C155.458 74.2112 155.308 74.1397 155.18 74.0896C156.074 73.3958 156.682 72.4588 156.946 71.3072ZM164.643 20.172C164.728 21.0733 164.779 21.6383 164.864 22.5825C164.163 22.1247 163.784 21.8815 163.255 21.531C163.727 21.0733 164.056 20.7442 164.643 20.172ZM175.179 36.6592C174.099 38.2256 173.39 38.433 172.175 37.4889C173.29 35.9439 174.027 35.7436 175.179 36.6592ZM180.558 30.5364C180.407 30.7295 179.957 30.6437 179.642 30.6937C179.549 30.565 179.449 30.4219 179.356 30.2932C179.613 29.7925 179.864 29.2918 180.207 28.6337C180.922 29.3848 180.98 29.9856 180.558 30.5364ZM182.467 20.78C184.742 22.4323 186.809 24.5853 188.161 27.0673C189.391 29.3276 189.034 31.2087 187.639 32.5606C187.975 31.9955 188.197 31.4162 188.232 30.9012C188.361 27.9614 185.815 24.8428 184.055 22.8257C182.446 20.9731 180.257 19.5068 177.825 18.3767C179.463 18.9703 181.044 19.7357 182.467 20.78ZM244.782 125.547C240.083 120.196 237.072 113.63 233.688 107.436C229.633 100.004 224.669 92.8156 222.952 84.3896C225.298 80.8562 228.703 78.1953 232.809 77.0151C233.488 76.8292 236.006 76.1568 236.299 76.6074C236.693 77.2083 237.086 77.8091 237.487 78.4099C240.977 83.6529 244.654 88.8029 248.688 93.6525C251.456 96.9642 254.181 100.305 256.921 103.645C260.054 107.457 263.222 111.255 266.455 114.982C265.719 116.076 264.982 117.171 264.245 118.244C263.208 119.782 262.149 121.341 261.091 122.922C260.783 123.387 260.483 123.844 260.175 124.316C259.66 124.402 258.044 124.66 256.706 124.789C255.404 124.917 253.044 126.741 252.436 127.22L246.427 127.306C245.862 126.727 245.305 126.148 244.782 125.547ZM218.997 75.4558C218.296 74.6261 217.459 72.8236 217.43 72.7664C217.409 72.7306 215.091 68.6249 214.49 64.6837C214.476 64.648 214.476 64.6194 214.469 64.5836C214.34 64.0829 214.297 63.2746 214.555 63.1101C214.769 62.9885 215.105 62.9027 215.442 63.0458C215.849 63.2317 216.15 63.6895 216.314 64.3905C216.321 64.4334 216.336 64.4763 216.35 64.5192C217.037 67.2158 217.931 69.333 219.047 70.9138C219.125 71.0354 219.261 71.0926 219.397 71.0926C219.483 71.0926 219.569 71.064 219.64 71.0139C219.833 70.878 219.876 70.6134 219.748 70.4274C218.789 69.0541 217.988 67.2087 217.337 64.9126C217.022 63.7896 216.751 62.5737 216.515 61.2361C216.486 61.0501 216.45 60.8498 216.422 60.6424C216.279 59.8556 216.143 59.0402 216.572 58.4894C216.65 58.3964 216.779 58.282 216.958 58.3178C217.13 58.3464 217.351 58.4894 217.48 58.8399C217.602 59.1689 217.688 59.5051 217.795 59.9128C217.917 60.435 218.095 61.093 218.396 61.9657H218.41C218.682 62.8598 219.011 63.7682 219.369 64.6551C219.941 66.0571 220.577 67.4089 221.15 68.6249C221.221 68.7823 221.378 68.8753 221.543 68.8753C221.6 68.8753 221.665 68.861 221.722 68.8324C221.936 68.7322 222.029 68.4747 221.929 68.2601C221.471 67.316 220.985 66.2788 220.527 65.1987C219.705 63.3033 218.968 61.2862 218.675 59.3907C218.41 58.2319 218.596 57.488 219.168 57.1948C219.748 57.0088 220.291 57.2592 220.527 57.8242C220.828 58.5467 221.092 59.2834 221.35 60.0273C221.579 60.8713 221.851 61.6939 222.165 62.4807L222.172 62.5164C222.172 62.5164 222.18 62.5164 222.18 62.5308C222.594 63.5464 223.045 64.5192 223.489 65.4276C223.582 65.6279 223.682 65.8353 223.789 66.0285C224.025 66.5005 224.275 66.9798 224.447 67.4447C224.519 67.6736 224.769 67.7809 224.991 67.6951C225.212 67.6164 225.327 67.3732 225.248 67.1514C225.055 66.6293 224.798 66.1286 224.547 65.6422C224.447 65.4491 224.347 65.2488 224.254 65.0557C223.825 64.1616 223.367 63.196 222.966 62.1874L222.838 61.7869C222.63 61.1288 222.401 60.4564 222.172 59.7912C222.072 59.3907 221.979 58.9758 221.908 58.5681C221.858 58.2248 221.715 57.0589 222.33 56.6583C222.466 56.5725 222.559 56.5796 222.637 56.6011C222.859 56.6583 223.253 56.9516 223.796 57.9816C224.461 59.2619 225.148 60.8355 225.87 62.495C226.7 64.4191 227.566 66.3932 228.417 67.9168H228.424C228.424 67.9168 228.424 67.9168 228.424 67.9311C228.424 67.9311 228.431 67.9383 228.431 67.9454C228.438 67.9526 228.453 67.9597 228.46 67.9669C228.495 68.0098 228.531 68.0599 228.567 68.0885C228.588 68.1028 228.603 68.1028 228.624 68.1171C228.674 68.1385 228.724 68.1528 228.782 68.16C228.789 68.16 228.803 68.1671 228.81 68.1671C228.81 68.1671 228.81 68.16 228.817 68.16C228.875 68.16 228.939 68.1528 228.996 68.1242C228.996 68.1171 228.996 68.1171 229.003 68.1028H229.01C229.039 68.1028 229.053 68.067 229.075 68.0527C229.089 68.0384 229.118 68.0312 229.132 68.0026C229.146 67.9883 229.168 67.9597 229.175 67.9383C229.196 67.9096 229.204 67.881 229.211 67.8596C229.218 67.831 229.218 67.8095 229.225 67.7809C229.225 67.7594 229.239 67.7308 229.225 67.6951C229.225 67.6736 229.218 67.645 229.211 67.6164C229.204 67.5949 229.204 67.5735 229.196 67.552L229.096 67.366C227.208 63.5321 227.33 62.2804 227.566 61.8798C227.63 61.7654 227.752 61.6367 228.081 61.6223C228.088 61.6223 228.102 61.6152 228.109 61.6152C228.531 61.6152 229.082 62.2446 229.561 63.2746C229.983 64.2045 230.462 65.1415 231.07 66.2287C232.358 68.5319 233.13 70.5419 233.424 72.3587C233.624 73.5246 233.552 74.6976 233.238 75.7133L233.152 75.9279C233.152 75.9494 233.152 75.9637 233.145 75.978C232.079 76.2712 231.099 76.6575 230.627 76.8649C229.068 77.5373 227.63 78.4171 226.321 79.4542C225.856 79.8262 225.391 80.2196 224.955 80.6487C224.926 80.6845 224.869 80.7203 224.84 80.7632C224.826 80.7632 224.826 80.756 224.826 80.7417L224.776 80.6845L224.583 80.4342C224.554 80.4127 224.533 80.3841 224.504 80.3626C222.137 78.5601 221.121 77.6946 218.997 75.4558ZM263.015 124.681L260.168 126.434L260.79 124.924C262.164 122.829 263.573 120.754 264.953 118.716C267.042 115.654 269.202 112.479 271.198 109.296C271.412 108.959 271.72 108.895 271.941 108.917C272.299 108.924 272.657 109.138 272.793 109.41C272.886 109.589 272.871 109.768 272.743 109.968L271.813 111.413C269.152 115.561 266.005 120.447 263.015 124.681ZM268 140.088H267.564C267.593 140.06 267.621 140.024 267.657 139.995C267.771 140.024 267.886 140.06 268 140.088ZM283.608 131.677C283.679 131.691 283.736 131.684 283.794 131.677C283.736 131.684 283.672 131.698 283.6 131.677C283.3 131.591 283.007 131.484 282.728 131.326C282.663 131.383 282.599 131.433 282.535 131.491C282.599 131.433 282.663 131.383 282.728 131.326C283.007 131.484 283.3 131.584 283.608 131.677ZM284.216 131.72C284.151 131.662 284.073 131.605 284.015 131.555C284.073 131.605 284.151 131.662 284.216 131.72ZM289.616 121.427C290.982 117.986 292.506 114.524 293.972 111.184C295.467 107.786 297.012 104.274 298.4 100.777C298.543 100.412 298.843 100.29 299.05 100.262C299.408 100.212 299.802 100.347 299.987 100.591C300.116 100.748 300.131 100.941 300.038 101.156L299.408 102.701C296.876 108.874 293.743 116.52 290.925 122.013C290.803 121.956 290.682 121.899 290.546 121.842C290.26 121.706 289.945 121.57 289.616 121.427ZM288.214 120.919C288.514 120.733 288.815 120.561 289.115 120.39C289.022 120.626 288.915 120.869 288.822 121.112C288.622 121.04 288.414 120.976 288.214 120.919ZM285.002 123.573C285.024 123.565 285.052 123.558 285.074 123.551C285.052 123.558 285.024 123.565 285.002 123.573ZM283.658 128.687C284.101 128.751 284.673 128.901 285.303 129.13C285.997 129.388 286.633 129.781 287.377 130.296C287.577 130.425 287.842 130.368 287.978 130.175C288.114 129.989 288.064 129.724 287.864 129.581C287.062 129.037 286.383 128.622 285.603 128.329C285.417 128.258 285.203 128.193 284.981 128.122C284.695 128.036 284.402 127.957 284.101 127.9C284.073 127.893 284.058 127.886 284.03 127.871C283.901 127.85 283.887 127.807 283.865 127.778C283.786 127.6 283.93 127.156 284.058 126.899C284.13 126.763 284.244 126.677 284.423 126.627C285.16 126.412 286.633 126.949 287.928 127.642C288.078 127.728 288.243 127.814 288.386 127.9C288.593 128.022 288.858 127.95 288.979 127.743C289.094 127.542 289.029 127.285 288.822 127.163C288.379 126.899 287.27 126.298 286.147 125.954C285.66 125.811 285.174 125.718 284.738 125.726C284.673 125.547 284.695 125.189 284.831 124.789C284.909 124.588 285.017 124.459 285.217 124.395C285.689 124.209 286.762 124.295 289.165 125.575C289.344 125.668 289.502 125.74 289.695 125.854C289.895 125.969 290.131 125.876 290.245 125.675C290.36 125.468 290.267 125.196 290.059 125.075C288.765 124.345 287.692 123.873 286.819 123.637C286.497 123.558 286.218 123.508 285.954 123.48C285.947 123.48 285.947 123.472 285.932 123.472C285.804 123.208 285.925 122.206 286.09 121.956C286.676 121.012 288.872 122.02 290.188 122.621C290.331 122.678 290.453 122.736 290.582 122.786C290.803 122.893 291.004 122.979 291.161 123.029C291.383 123.115 291.619 122.993 291.697 122.771C291.747 122.65 291.726 122.521 291.669 122.421C292.127 121.534 292.584 120.59 293.056 119.603C294.673 119.896 296.182 120.854 297.505 122.063C297.763 122.299 298.013 122.55 298.257 122.8C298.421 122.972 298.571 123.129 298.729 123.301C299.043 123.651 299.351 124.002 299.644 124.381C299.644 124.381 299.644 124.381 299.651 124.381C299.651 124.388 299.651 124.388 299.651 124.388C299.759 124.531 299.909 124.56 300.03 124.517C301.139 124.517 302.241 124.524 303.349 124.531C303.392 124.645 303.428 124.774 303.449 124.924C303.836 127.342 303.306 130.504 302.119 132.771C301.196 134.523 300.302 135.453 299.444 135.525C298.464 134.924 297.849 134.538 297.849 134.538L297.742 134.466H297.627C297.548 134.466 290.188 134.452 287.785 133.093C285.582 131.841 284.123 130.697 283.665 129.874C283.393 129.388 283.529 128.937 283.658 128.687ZM284.03 124.51C284.08 124.367 284.151 124.245 284.23 124.13C284.151 124.245 284.087 124.367 284.03 124.51C283.93 124.81 283.765 125.425 283.915 125.94C283.794 126.005 283.686 126.069 283.593 126.155C283.686 126.076 283.794 126.005 283.915 125.94C283.765 125.425 283.922 124.817 284.03 124.51ZM281.405 131.984C281.612 131.927 281.998 131.805 282.234 131.684C282.299 131.648 282.356 131.612 282.413 131.569C282.356 131.612 282.299 131.655 282.234 131.684C281.998 131.805 281.612 131.927 281.405 131.984ZM281.254 132.027C281.262 132.027 281.262 132.027 281.269 132.027C281.276 132.02 281.29 132.02 281.312 132.013C281.29 132.02 281.276 132.02 281.269 132.027C281.262 132.027 281.262 132.027 281.254 132.027ZM284.638 132.07C285.353 132.614 286.261 133.207 287.37 133.837C289.816 135.224 296.475 135.317 297.498 135.332C297.727 135.475 298.299 135.832 299.101 136.326L299.208 136.39H299.358C299.372 136.405 299.387 136.433 299.408 136.448L299.501 136.512C299.794 136.748 300.066 136.955 300.266 137.07C301.232 137.685 302.198 138.279 303.163 138.872C303.836 139.273 304.472 139.659 305.109 140.024C294.201 140.045 283.3 140.06 272.392 140.074C271.591 139.251 271.09 138.128 271.09 136.891V136.655C271.09 134.123 273.143 132.07 275.675 132.07H284.638ZM280.747 131.727C280.747 131.72 280.739 131.72 280.739 131.72C280.696 131.555 280.761 131.391 280.882 131.29C280.761 131.391 280.704 131.555 280.747 131.727ZM271.269 75.9494C273.937 72.187 277.542 69.376 281.891 67.8167C284.38 66.9226 286.984 66.7867 289.602 66.7938C289.716 66.851 289.831 66.9011 289.952 66.9512C291.39 67.5091 292.742 67.8667 294.086 68.0384C294.837 68.1385 295.481 68.1814 296.089 68.1814C296.254 68.1814 296.404 68.1671 296.561 68.16C297.434 70.3845 299.487 71.8794 302.562 72.5017C303.578 72.7092 304.687 72.8164 305.824 72.8164C306.99 72.8164 308.17 72.702 309.293 72.4874C312.104 71.9438 314.5 70.4417 316.839 67.7451C318.857 65.4205 320.795 62.8812 321.367 59.9772C321.367 59.9701 321.367 59.9558 321.374 59.9343C326.074 62.3305 331.245 63.761 336.245 65.1415C347.224 68.16 357.603 71.0139 362.546 83.4383C363.232 85.1764 363.776 86.979 364.198 88.853V88.8601C364.198 88.8673 364.198 88.8744 364.212 88.8816C365.6 95.1117 365.543 102.171 364.033 110.662C362.46 119.438 360.135 128.751 353.733 137.356C351.895 139.809 350.221 141.676 348.448 143.228C340.336 150.31 330.094 149.323 322.948 147.241C318.799 146.025 314.45 144.187 309.629 141.605C307.791 140.618 305.817 139.487 303.614 138.143C302.634 137.556 301.668 136.955 300.71 136.347C300.631 136.297 300.531 136.219 300.424 136.133C300.41 136.133 300.402 136.126 300.395 136.119C300.452 136.09 300.517 136.054 300.574 136.011C301.361 135.546 302.126 134.602 302.884 133.164C304.2 130.639 304.744 127.206 304.243 124.56C315.373 124.753 326.46 125.668 337.418 127.642C337.954 127.743 338.183 126.92 337.647 126.813C333.112 126.005 328.549 125.368 323.978 124.889C329.013 113.981 330.744 101.892 335.522 90.8844C335.73 90.3908 335 89.9545 334.779 90.4552C329.958 101.571 328.241 113.809 323.091 124.796C316.661 124.145 310.209 123.787 303.743 123.694C302.548 123.673 301.354 123.666 300.152 123.666C299.837 123.272 299.501 122.872 299.136 122.478C299.129 122.457 299.122 122.45 299.115 122.442C297.584 120.776 295.646 119.166 293.493 118.694C295.81 113.737 298.192 107.922 300.188 103.03L300.824 101.485C301.039 100.984 300.975 100.476 300.667 100.069C300.295 99.5893 299.594 99.3246 298.936 99.4176C298.321 99.5035 297.827 99.8826 297.606 100.462C296.225 103.945 294.68 107.45 293.192 110.841C291.998 113.552 290.768 116.348 289.616 119.145C289.079 119.381 288.565 119.66 288.064 119.982C285.568 114.582 279.559 101.37 279.252 90.3551C279.244 90.119 279.008 89.9402 278.808 89.9402C278.579 89.9473 278.386 90.1405 278.393 90.3765C278.615 97.9871 281.483 106.592 284.094 113.029C285.346 116.119 286.533 118.716 287.341 120.454C287.22 120.547 287.105 120.626 286.984 120.711C286.44 120.711 285.954 120.847 285.596 121.205C285.589 121.212 285.589 121.226 285.582 121.234C285.496 121.298 285.417 121.369 285.346 121.462C285.145 121.741 285.081 122.07 285.081 122.421C285.031 122.743 285.017 123.079 285.052 123.379C285.052 123.429 285.067 123.472 285.074 123.515C285.06 123.472 285.06 123.429 285.052 123.379C284.766 123.472 284.445 123.63 284.173 123.916C283.751 124.367 283.565 125.003 283.608 125.804C283.486 125.94 283.357 126.176 283.243 126.627C283.271 126.57 283.286 126.527 283.3 126.505C283.372 126.376 283.457 126.269 283.565 126.176C283.457 126.269 283.372 126.376 283.307 126.505C283.286 126.527 283.271 126.577 283.25 126.627C283.121 126.884 282.914 127.449 283.028 127.943C283.028 127.986 283.021 128.022 283.021 128.072C282.857 128.329 282.513 129.016 282.735 129.817C282.706 129.846 282.685 129.881 282.663 129.924C282.542 130.332 282.206 130.74 281.834 130.926C281.669 131.019 281.254 131.14 281.04 131.19C281.033 131.197 281.025 131.205 281.018 131.212H275.675C275.096 131.212 274.545 131.305 274.023 131.469C272.979 131.805 272.07 132.449 271.405 133.3C270.675 134.223 270.239 135.389 270.239 136.655V136.891C270.239 137.993 270.568 139.023 271.14 139.881C271.183 139.952 271.233 140.017 271.276 140.081C271.512 140.081 271.741 140.081 271.977 140.081C271.741 140.081 271.512 140.081 271.283 140.088C271.233 140.017 271.176 139.952 271.14 139.881C270.153 139.724 269.173 139.53 268.201 139.309C268.243 139.23 268.301 139.166 268.344 139.073C268.787 138.121 268.665 137.37 268.315 136.576C269.166 134.28 268.372 132.828 267.957 132.285C268.329 131.433 268.286 130.632 268.065 129.939C267.807 129.159 267.321 128.515 266.899 128.136C266.842 125.568 265.118 124.803 264.131 124.574C267.006 120.468 269.989 115.833 272.528 111.878L273.451 110.433C273.751 109.982 273.794 109.482 273.551 109.017C273.279 108.466 272.635 108.08 271.977 108.058C271.341 108.015 270.804 108.316 270.468 108.845C269.338 110.647 268.15 112.464 266.956 114.252C263.752 110.54 260.669 106.713 257.579 102.908C262.257 94.0602 265.461 84.1679 271.269 75.9494ZM283.908 61.2719C282.327 59.2405 281.183 56.6369 280.582 53.7185C280.096 51.3295 279.767 49.1479 279.552 47.0378C279.094 42.4744 279.287 38.4044 280.117 34.9639L280.239 34.4346C280.761 32.253 281.347 29.7996 282.234 27.7897C284.38 27.8469 286.562 28.1903 288.672 28.5336C290.932 28.8984 293.271 29.2775 295.631 29.3061C296.776 29.3204 297.906 29.2346 299.036 29.1058C305.359 30.8082 303.256 38.6047 305.889 43.0752C306.661 42.4887 308.413 42.2669 308.413 42.2669C308.592 42.2383 308.764 42.2312 308.936 42.2312C310.087 42.2526 311.146 42.8892 311.897 44.0623C312.898 45.6001 312.998 47.6101 312.154 48.9047C311.697 49.6128 310.588 50.228 309.644 50.2924C309.529 50.2995 309.451 50.3567 309.386 50.4283C309.336 50.4998 309.3 50.5856 309.315 50.6786C309.329 50.8717 309.501 51.0291 309.694 51.0148C309.923 50.9933 310.166 50.9433 310.402 50.886C310.695 51.6371 310.981 52.381 311.275 53.132C311.568 55.2635 313.356 56.9373 315.28 57.7312C315.995 58.0317 316.611 58.2033 317.168 58.2105C317.583 58.2176 317.97 58.1175 318.327 57.9172C319.028 58.5467 319.815 59.0688 320.595 59.5194C320.566 59.6625 320.53 59.7912 320.523 59.8199C320.001 62.5164 318.134 64.9484 316.196 67.1872C313.985 69.7336 311.74 71.1498 309.129 71.6505C307.012 72.0511 304.68 72.0654 302.734 71.672C301.268 71.3716 299.558 70.7278 298.378 69.4475C300.002 69.4618 301.983 68.8037 303.249 66.0213C303.485 65.8997 303.65 65.8282 303.671 65.8067C303.886 65.7066 303.972 65.4491 303.871 65.2417C303.871 65.2345 303.871 65.2345 303.864 65.2273C303.757 65.0271 303.514 64.9484 303.299 65.0485C303.263 65.0628 299.215 67.0513 297.176 67.273C296.297 67.3732 295.374 67.3446 294.194 67.1944C292.921 67.0298 291.633 66.6865 290.26 66.1644C287.864 65.2202 285.675 63.5393 283.908 61.2719ZM282.127 19.0705C281.991 19.9145 281.862 20.687 281.641 22.0961C280.775 20.9445 280.253 20.2221 279.738 19.5283C280.325 18.1263 280.997 17.9403 282.127 19.0705ZM303.428 16.2952C303.514 16.5169 303.592 16.7387 303.664 16.9676C303.321 17.082 302.977 17.2108 302.641 17.3323C302.57 17.175 302.512 17.0319 302.441 16.8746C302.777 16.6814 303.106 16.4955 303.428 16.2952ZM308.728 18.205C309.043 18.6699 309.358 19.142 309.873 19.9002C309.107 20.0003 308.771 20.0433 308.292 20.1076V18.4196C308.442 18.348 308.585 18.2765 308.728 18.205ZM314.3 11.2024C314.365 11.4098 314.436 11.6244 314.508 11.8319C314.078 12.0178 313.642 12.2181 313.213 12.4041C313.134 12.1466 313.056 11.8962 312.977 11.6459C313.413 11.4957 313.857 11.3526 314.3 11.2024ZM314.973 17.8545C315.151 17.8473 315.337 17.833 315.516 17.8259V19.4281C314.493 18.9846 314.665 18.4339 314.973 17.8545ZM318.864 21.7599C318.806 22.418 318.756 22.8758 318.656 23.9344C318.02 23.076 317.719 22.6612 317.254 22.0246C317.948 21.9101 318.291 21.8529 318.864 21.7599ZM305.96 230.135C306.232 231.522 306.475 232.853 306.718 234.14L306.768 234.355L306.954 234.448C307.741 234.848 308.599 235.22 309.508 235.564C307.448 236.05 305.431 236.858 303.55 237.945V216.866C304.315 221.508 305.166 225.986 305.96 230.135ZM303.757 153.221C304.265 153.149 304.758 153.099 305.266 153.042C307.67 153.95 311.439 155.295 313.835 155.803H313.842C315.416 156.175 316.982 156.497 318.556 156.776C318.184 156.94 317.805 157.105 317.433 157.284C311.396 160.08 307.219 164.1 304.973 169.272C304.437 170.473 303.964 171.725 303.55 173.02V153.242C303.614 153.235 303.693 153.228 303.757 153.221ZM303.55 152.405V152.391C303.557 152.391 303.571 152.398 303.578 152.398C303.571 152.405 303.557 152.405 303.55 152.405ZM340.229 188.212C340.372 190.387 340.487 196.202 340.622 202.875C340.844 213.605 341.102 225.786 341.545 229.233L341.588 229.62C341.917 232.152 341.96 232.488 340.1 233.718C332.082 238.968 316.081 238.053 307.519 233.768C307.29 232.545 307.047 231.272 306.79 229.963C305.71 224.248 304.494 217.875 303.55 211.316V176.117C304.107 173.828 304.837 171.654 305.745 169.615C308.185 164 313.027 159.78 320.13 157.069L320.123 157.033C329.607 158.564 339.249 158.6 348.791 157.462C347.618 161.983 347.475 167.627 347.475 170.101C347.475 174.536 348.541 183.963 352.56 187.926C352.661 188.019 352.754 188.098 352.847 188.184C351.538 188.134 350.164 188.033 348.719 187.976C346.309 187.883 343.577 187.683 340.658 187.683H340.2L340.229 188.212ZM371.794 151.654C364.67 153.85 357.353 155.503 349.971 156.461C350.822 153.836 352.031 152.055 353.691 151.919C357.152 151.633 364.069 151.59 371.794 151.654ZM374.291 113.137C378.174 121.82 382.187 130.797 385.27 139.995L385.549 140.847C385.771 141.505 385.992 142.163 386.2 142.828C386.314 143.157 386.415 143.479 386.515 143.815C386.729 144.523 386.944 145.238 387.151 145.961C382.988 147.763 378.725 149.387 374.391 150.817C365.629 150.732 357.482 150.753 353.619 151.068C351.38 151.254 349.943 153.578 349.041 156.59C337.361 158.013 325.537 157.67 314.043 154.973C314.036 154.973 314.036 154.973 314.021 154.973C310.795 154.272 304.851 151.983 303.55 151.461V145.181C307.312 145.167 311.089 145.16 314.851 145.16C314.872 145.16 314.88 145.152 314.894 145.152C317.612 146.361 320.201 147.32 322.719 148.064C325.73 148.929 329.285 149.623 332.998 149.623C338.355 149.623 344.041 148.2 349.005 143.872C350.829 142.284 352.546 140.374 354.413 137.871C360.929 129.116 363.297 119.696 364.878 110.812C366.058 104.146 366.365 98.3447 365.779 93.116C368.397 99.9398 371.379 106.628 374.291 113.137ZM377.438 85.999C377.695 87.1292 377.845 87.8301 378.003 88.5383C377.86 88.6169 377.717 88.6956 377.567 88.7671C377.109 88.4095 376.637 88.0447 376.014 87.544C376.458 87.0719 376.787 86.7071 377.438 85.999ZM378.039 70.7922C378.504 70.7493 379.004 70.6992 379.541 70.6492C379.634 70.9925 379.812 71.3144 379.734 71.4073C379.433 71.7936 379.054 72.4016 378.718 72.3873C377.946 72.3587 377.795 71.6792 378.039 70.7922ZM380.649 65.5492C381.264 65.5635 381.88 65.585 382.495 65.5993C382.838 65.9998 382.831 66.522 382.202 67.3517C381.529 66.8868 380.921 66.4719 380.327 66.0642C380.435 65.8568 380.542 65.6923 380.649 65.5492ZM388.002 149.78C388.06 150.202 388.117 150.617 388.188 151.039C384.576 150.961 380.735 150.896 376.937 150.846C380.471 149.616 383.954 148.257 387.373 146.79C387.616 147.785 387.838 148.779 388.002 149.78ZM394.662 71.6291C393.789 71.1856 393.074 70.7135 393.124 69.5047C394.733 69.8981 394.733 69.8981 394.662 71.6291ZM396.836 166.267C397.516 166.968 398.016 167.498 398.653 168.149C398.088 168.506 397.773 168.714 397.423 168.928C396.414 168.349 395.999 167.691 396.836 166.267ZM401.264 152.205C401.614 152.212 401.957 152.219 402.279 152.227C402.437 152.606 402.587 153.006 402.787 153.5C402.158 153.657 401.729 153.764 400.863 153.972C401.02 153.242 401.149 152.699 401.264 152.205ZM403.553 134.059C404.239 134.874 404.54 135.232 404.947 135.704C404.54 136.011 404.268 136.226 403.553 136.791V134.059ZM386.536 247.573C388.503 247.573 390.105 249.175 390.105 251.15C390.105 253.117 388.503 254.719 386.536 254.719C384.569 254.719 382.967 253.117 382.967 251.15C382.967 249.175 384.569 247.573 386.536 247.573ZM236.185 244.812C235.934 245.749 235.934 245.749 235.176 245.191C235.555 245.048 235.82 244.948 236.185 244.812ZM114.824 234.777C106.069 238.654 90.9333 239.333 83.2011 234.283C81.3557 233.053 81.3986 232.731 81.7205 230.192L81.7634 229.82C82.2069 226.372 82.4644 213.962 82.6861 203.018C82.822 196.202 82.9436 190.308 83.0795 188.141C83.0867 188.019 83.0437 187.912 82.9722 187.819C82.8792 187.74 82.7719 187.683 82.6575 187.683C77.8294 187.683 72.8367 187.976 67.9872 188.262C64.7684 188.448 61.5783 188.627 58.4453 188.727C58.7887 188.505 59.1177 188.241 59.4324 187.926C63.4594 183.963 64.5252 174.536 64.5252 170.101C64.5252 168.32 64.4465 164.901 63.9673 161.432C64.7899 161.325 65.6053 161.203 66.4278 161.067C73.7022 159.851 80.8765 157.942 87.8075 155.438C88.5872 155.152 89.3525 154.866 90.125 154.566C100.139 155.824 107.513 158.628 112.377 163.02C112.334 162.598 112.284 162.176 112.241 161.754C110.754 160.517 109.044 159.408 107.141 158.435C103 156.311 97.8715 154.809 91.7201 153.915C93.494 153.178 95.2392 152.398 96.9631 151.569C99.724 150.238 100.954 147.32 102.936 145.16H104.509C104.509 145.16 104.509 145.16 104.524 145.16H104.602C106.576 145.167 108.593 145.274 110.611 145.474C111.097 150.91 111.648 156.332 112.241 161.761C112.284 162.176 112.327 162.598 112.377 163.013C112.642 165.445 112.914 167.87 113.2 170.302C113.715 174.729 114.158 179.2 114.824 183.613V234.777ZM79.4745 241.722C79.0239 241.636 78.5661 241.593 78.1012 241.593H56.6214C56.7001 241.329 56.7501 241.05 56.7501 240.764V203.09H81.8349C81.6203 213.462 81.3557 226.322 80.9194 229.705L80.8765 230.085C80.5546 232.638 80.4616 233.439 82.6146 234.906C81.649 236.4 80.2399 238.897 79.4745 241.722ZM55.4269 188.799H55.4054C39.2902 189.013 25.5283 186.224 20.4426 168.742C19.8776 166.761 19.4484 164.601 19.1337 162.291C27.1663 163.07 35.206 162.734 43.2528 162.698C49.9264 162.662 56.5284 162.426 63.1233 161.554C63.5024 164.286 63.6669 167.276 63.6669 170.101C63.6669 175.108 62.3794 183.828 58.8316 187.318C57.8088 188.32 56.6643 188.827 55.4269 188.799ZM55.899 240.764C55.899 242.101 54.6758 243.21 53.1237 243.296C51.4142 243.203 49.9192 242.023 49.9192 240.764V203.083H55.899V240.764ZM56.3496 251.15C56.3496 253.117 54.7545 254.719 52.7875 254.719C50.8205 254.719 49.2183 253.117 49.2183 251.15C49.2183 249.175 50.8205 247.573 52.7875 247.573C54.7545 247.573 56.3496 249.175 56.3496 251.15ZM21.4226 187.683C21.1365 187.683 20.8432 187.704 20.5642 187.747C20.5642 187.747 20.5499 187.747 20.5428 187.747C8.34014 187.719 0.851181 172.083 0.851181 160.867C0.851181 158.299 1.25889 156.153 2.04569 154.666C2.78243 153.278 3.79813 152.52 5.07132 152.377C5.20722 154.458 5.36458 156.547 5.58632 158.628C5.82951 161.01 6.00833 163.507 6.93104 165.745C9.21278 171.274 15.5787 172.984 21.3081 173.578C24.7844 181.396 30.3707 185.566 37.2588 187.683H21.4226ZM9.18417 159.172C9.47743 159.201 9.70632 159.15 9.75639 159.236C10.1498 159.83 11.2084 160.123 10.5503 161.368C9.95667 161.089 9.39875 160.839 8.71924 160.524C8.90521 159.987 9.04826 159.558 9.18417 159.172ZM17.8533 151.168C17.7675 151.168 17.6817 151.168 17.5958 151.175C17.5887 148.15 17.7031 145.024 17.8962 141.855C17.7031 145.024 17.5958 148.15 17.603 151.168C17.6888 151.168 17.7675 151.168 17.8533 151.168ZM15.9722 83.8532C16.6588 84.2037 17.2382 84.5041 18.0107 84.9046C17.6459 85.5055 17.3956 85.9203 17.0951 86.4067C16.0723 85.8345 15.5287 85.2194 15.9722 83.8532ZM62.9945 160.731C56.1708 161.668 49.3113 161.811 42.416 161.847C34.6123 161.876 26.8086 162.19 19.0335 161.425C18.6759 158.471 18.4971 155.317 18.4613 152.012C31.8084 151.704 51.593 151.383 58.2951 151.919C60.7557 152.112 62.2363 155.925 62.9945 160.731ZM22.9819 108.523C23.3967 103.902 24.8774 93.8957 30.0131 86.3424C30.5066 85.3123 31.0645 84.3324 31.6797 83.4312C31.0645 84.3324 30.5137 85.3123 30.0131 86.3424C28.0174 90.4981 26.9731 95.3549 26.7299 98.6165C26.3079 105.712 27.5883 114.067 30.6425 124.145C32.6024 131.512 35.02 139.13 41.014 144.13C46.6719 148.815 54.4255 150.138 61.9216 150.138C67.9585 150.138 73.8381 149.287 78.3658 148.629C78.9595 148.55 79.5603 148.479 80.1612 148.407C80.8908 148.314 81.6203 148.228 82.3428 148.142L85.1109 147.82C89.7387 147.263 94.6956 146.626 99.5023 145.725C100.075 145.61 100.661 145.517 101.276 145.417C101.398 145.389 101.519 145.374 101.648 145.346C100.06 147.32 98.8442 149.58 96.5267 150.832C94.4667 151.933 92.2708 152.849 90.0606 153.686C90.0606 153.686 89.889 153.757 89.6458 153.843C89.2237 154 88.5943 154.244 88.3082 154.344C87.6072 154.594 86.9062 154.852 86.2124 155.095C79.4888 157.477 72.5149 159.193 65.4837 160.352C64.9329 160.452 64.3893 160.524 63.8528 160.602C63.109 155.882 61.564 151.325 58.3738 151.075C51.6287 150.524 31.8156 150.853 18.4542 151.147C18.4113 137.256 20.8217 121.091 22.9819 108.523ZM22.1307 108.409C22.3453 106.048 22.8317 102.293 23.9403 98.1587C22.8317 102.293 22.3453 106.055 22.1378 108.409C21.6515 111.234 21.1508 114.245 20.6715 117.364C21.1508 114.245 21.6515 111.227 22.1307 108.409ZM34.1044 80.5486C34.2117 80.4699 34.3119 80.4055 34.4049 80.3269L34.3977 80.334C34.3047 80.4055 34.2046 80.4771 34.1116 80.5486C29.262 84.4898 26.3437 90.3694 24.5984 95.9056C26.3508 90.3622 29.262 84.4826 34.1044 80.5486ZM33.0387 70.7922C33.5036 70.7493 34.0043 70.6992 34.5408 70.6492C34.6337 70.9925 34.8126 71.3144 34.7339 71.4073C34.4406 71.7936 34.0544 72.4016 33.7182 72.3873C32.9457 72.3587 32.7955 71.6792 33.0387 70.7922ZM35.7567 65.4276C36.2717 65.4276 36.7939 65.4276 37.316 65.4419C37.831 65.8568 37.9169 66.4004 37.2087 67.3517C36.5292 66.8868 35.9212 66.4719 35.3276 66.0642C35.4706 65.7853 35.6065 65.585 35.7567 65.4276ZM42.1012 75.8635C42.3087 75.7849 42.4875 75.7062 42.652 75.6346C42.4875 75.7062 42.3087 75.7849 42.0941 75.8707C41.6578 76.0424 41.2286 76.2426 40.7994 76.4358C41.2286 76.2426 41.6578 76.0424 42.1012 75.8635ZM43.5175 75.2198C43.5318 75.2055 43.5461 75.1983 43.5604 75.1912C43.5461 75.1339 43.5461 75.0767 43.5318 75.0124C43.5461 75.0767 43.5461 75.1411 43.5604 75.1912C43.5461 75.1983 43.5318 75.2055 43.5175 75.2198C43.4817 75.2341 43.4388 75.2555 43.4031 75.277C43.4388 75.2555 43.4817 75.2341 43.5175 75.2198ZM43.9252 75.9708C43.9681 76.0352 44.0039 76.0781 44.011 76.0781C45.1555 77.3799 46.4787 78.5101 47.9093 79.4614L47.9022 79.4685C57.2508 86.092 59.7615 100.054 61.9717 112.378C62.4795 115.254 62.9659 117.958 63.5238 120.454C64.5753 125.733 70.133 126.856 72.0285 127.077C72.4219 127.127 72.6722 127.142 72.6794 127.149C75.2043 127.328 77.9653 127.428 81.37 127.471C87.0135 127.535 93.1792 127.249 100.232 126.598C101.612 126.469 102.95 126.148 104.252 125.84C104.86 125.69 105.461 125.547 106.076 125.418C107.113 125.203 108.207 125.032 109.116 125.225C109.159 125.225 109.187 125.239 109.23 125.246C109.402 130.611 109.788 135.975 110.239 141.319C110.253 141.376 110.26 141.44 110.26 141.497C108.694 142.763 106.634 143.457 104.495 143.937C103.372 144.187 102.235 144.38 101.133 144.566C100.518 144.673 99.9172 144.773 99.3449 144.881C94.5669 145.775 89.6315 146.419 85.0108 146.976L82.2498 147.298C81.4487 147.391 80.6476 147.484 79.8465 147.577C79.31 147.649 78.7878 147.713 78.2514 147.77C68.2447 149.244 51.4928 151.69 41.5576 143.472C35.7639 138.629 33.3963 131.162 31.4579 123.902C28.4466 113.916 27.1734 105.662 27.5811 98.6809C27.9459 93.6883 30.2205 84.9476 34.9413 80.9921C34.9485 80.9921 34.9485 80.9849 34.9556 80.9849C37.2374 79.1753 39.7408 77.7161 42.4088 76.6646C43.0955 76.3928 43.5247 76.1783 43.9109 75.978C43.9109 75.978 43.9181 75.9708 43.9252 75.9708ZM45.1412 73.8536C45.8636 73.4673 46.4931 73.2313 47.0367 73.0883L48.9751 72.9237L49.5187 73.2242C52.9162 75.1554 55.5985 76.6718 59.6399 76.2212C60.6913 76.1353 61.6712 75.978 62.5296 75.8349C65.9415 75.2913 67.8942 74.9837 69.5751 78.9821C69.6681 79.1967 69.7539 79.4185 69.8469 79.6545C69.8469 79.676 69.8612 79.6831 69.8755 79.6974C69.9112 79.7833 69.9756 79.8476 70.0543 79.8905C70.1616 79.9406 70.276 79.9549 70.3905 79.9049C70.4692 79.8762 70.5335 79.8262 70.5836 79.7618C70.5908 79.7403 70.6122 79.726 70.6194 79.7046C70.6265 79.6831 70.6337 79.6617 70.6408 79.6474C70.6551 79.6116 70.6623 79.583 70.6694 79.5472C70.6694 79.5186 70.6623 79.4828 70.6623 79.4542C70.6551 79.4185 70.6551 79.3898 70.648 79.3612C70.3118 78.4528 69.9542 77.7233 69.5822 77.1296C69.9613 77.7233 70.3118 78.4528 70.648 79.3612C70.5765 79.1252 70.5264 78.9035 70.4763 78.6674C70.276 77.8234 70.1473 76.9794 70.1401 76.1139C70.1401 75.6561 70.1687 74.9694 70.6194 74.7119C71.0485 74.4687 71.5778 74.34 72.0428 74.1898C73.4233 73.7606 75.3331 73.6319 75.0255 75.6704C74.8538 76.7719 74.6249 77.9808 73.831 78.7676C73.2444 77.5516 72.4648 76.4644 71.5707 75.4272C71.2059 75.0124 70.6122 75.6203 70.9699 76.0424C71.0199 76.1067 71.07 76.1783 71.1344 76.2355C71.9999 77.2512 72.7581 78.3241 73.2802 79.5544C73.3803 79.7904 73.6522 79.9835 73.9097 79.8119C75.2186 78.8963 75.7336 77.2869 75.891 75.7205C84.7461 75.4844 91.5269 85.5555 95.7185 92.1146C99.6954 98.3447 102.578 105.047 105.668 111.742C106.727 114.024 107.835 116.384 109.066 118.687C109.08 119.746 109.123 120.776 109.144 121.713C109.151 122.593 109.166 123.487 109.194 124.367C108.15 124.181 106.998 124.359 105.904 124.581C105.282 124.71 104.659 124.86 104.044 125.01C102.721 125.325 101.476 125.625 100.153 125.747C94.1234 126.312 88.7374 126.591 83.7805 126.62C83.7948 126.577 83.8091 126.527 83.7948 126.462C82.915 118.752 81.37 111.198 79.074 103.788C76.7278 96.2346 73.738 88.8816 70.9699 81.4713C70.7767 80.9563 69.9542 81.178 70.1401 81.693C72.8367 88.9102 75.705 96.0701 78.0583 103.402C80.4688 110.919 82.0424 118.623 82.9436 126.462C82.9508 126.527 82.9722 126.577 82.9937 126.62H81.3915C78.001 126.577 75.2544 126.469 72.7294 126.291C72.708 126.291 72.3003 126.262 71.6851 126.169C69.6466 125.854 65.2333 124.667 64.3607 120.275C63.8028 117.793 63.3164 115.089 62.8085 112.235C60.8201 101.127 58.5741 88.7242 51.3355 81.3068C52.5228 81.8075 53.7674 82.208 55.0406 82.4942C56.6858 82.8733 58.3881 83.0735 60.1048 83.0735C62.3794 83.0735 64.6826 82.7374 66.9142 82.0292C67.0931 81.972 67.2075 81.8003 67.2075 81.6144C67.2003 80.284 67.5938 78.8462 67.9514 77.7089C67.9728 77.6589 67.98 77.6088 68.0015 77.5587C68.073 77.337 67.9514 77.0938 67.7225 77.0223C67.5008 76.9508 67.2647 77.0723 67.186 77.2941C66.8213 78.4314 66.4064 79.8834 66.3635 81.2996C58.5026 83.6672 49.8119 81.364 44.6476 75.513C44.6476 75.5059 44.3043 75.1125 44.3758 74.6833C44.4259 74.3829 44.6834 74.1039 45.1412 73.8536ZM48.7176 64.7267C48.6031 64.7696 48.503 64.8483 48.4601 64.9698C48.503 64.8483 48.6031 64.7696 48.7176 64.7267ZM49.254 64.9484C49.2755 65.0199 49.3399 65.1701 49.4114 65.3704C49.3399 65.1701 49.2755 65.0199 49.2469 64.9484C49.2111 64.8554 49.1467 64.791 49.0609 64.741C49.1467 64.791 49.2183 64.8554 49.254 64.9484ZM49.8549 72.3014L50.0337 72.1226C50.0694 72.094 50.0909 72.0583 50.1124 72.0153C50.3412 71.5933 50.4342 71.064 50.4557 70.4918C50.47 70.2343 50.4628 69.9768 50.4414 69.7121C50.5058 68.8395 50.4557 67.831 50.0408 67.1228C50.048 67.1157 50.0694 67.1157 50.0766 67.1085C51.4428 66.5506 51.8862 64.5908 51.8505 63.1173C56.2852 60.8928 57.5226 56.9659 54.9977 52.7458C55.0978 52.7386 55.2194 52.7386 55.3196 52.7243C55.5127 52.6957 55.6486 52.5097 55.62 52.3166C55.5914 52.1235 55.4054 51.9876 55.2051 52.0233C54.2681 52.1664 53.0593 51.823 52.4513 51.2365C51.3355 50.1564 50.985 48.1894 51.6073 46.4513C52.1008 45.078 53.0593 44.191 54.261 43.9693C54.168 45.5429 55.198 47.6601 56.743 48.0964C56.9146 48.1322 57.0863 48.168 57.258 48.1966C59.6899 48.683 61.9144 47.8819 63.3879 45.7646C63.5596 45.5214 63.7026 45.2639 63.8242 45.0064H66.4207C66.4207 45.1423 66.4135 45.2854 66.4135 45.4356C66.4135 50.2637 69.3176 54.2049 72.894 54.2049C76.3487 54.2049 79.1741 50.5284 79.3672 45.9363C79.3744 45.9148 79.3887 45.8862 79.3958 45.8505C79.403 45.3784 79.6319 44.985 80.0253 44.7418C81.8707 47.7174 85.8262 54.6484 79.9681 55.1276C79.4316 55.1705 79.4173 56.0217 79.9681 55.9788C80.5188 55.943 80.9981 55.8358 81.4201 55.707C81.2913 56.3865 81.1626 57.0589 81.0124 57.7598C80.9122 58.2105 80.8049 58.6396 80.6833 59.076C79.8536 59.5266 78.7878 59.7912 77.7435 59.7912C76.3487 59.7912 74.9683 59.3263 74.1743 58.2105C73.8596 57.7598 73.1157 58.189 73.4304 58.6396C74.9468 60.7569 78.0082 61.0573 80.34 60.1703C79.6819 62.1016 78.7592 63.8397 77.6148 65.2774C75.8266 67.5234 73.6092 69.19 71.2131 70.1055C68.7883 71.0068 66.5852 71.343 64.2749 71.1427C64.0674 71.1284 63.9029 71.2643 63.8457 71.4431C63.8314 71.4789 63.8171 71.5075 63.8171 71.5361C63.7956 71.7793 63.9744 71.9796 64.2033 72.001C64.654 72.0439 65.0974 72.0583 65.5481 72.0583C66.342 72.0583 67.1431 71.9796 67.9514 71.858C67.9514 72.7235 68.1016 73.6176 68.8455 74.247C69.0672 74.433 69.2961 74.576 69.5393 74.7119C69.2961 75.3056 69.2317 75.9637 69.2675 76.6432C67.4793 74.1969 65.2476 74.5403 62.3937 74.998C61.5067 75.1339 60.584 75.2842 59.554 75.37C56.414 75.7205 54.1751 74.8121 51.5644 73.3887C51.0422 73.1026 50.5058 72.8021 49.9407 72.4803L49.8048 72.4087C49.8262 72.373 49.8406 72.3372 49.8549 72.3014ZM49.9765 67.1371C49.9836 67.1371 49.9836 67.1371 49.9908 67.1371C49.9836 67.1371 49.9836 67.1371 49.9765 67.1443V67.1371ZM62.1505 45.3426C62.2149 45.2425 62.2721 45.1137 62.3293 45.0064H62.7442C62.2935 45.829 61.6355 46.4942 60.8272 46.9162C61.3279 46.4656 61.7785 45.922 62.1505 45.3426ZM63.1376 44.1481H62.6869C63.109 42.8463 63.1662 41.3085 63.2162 39.9208C63.2949 40.4001 63.3593 40.8864 63.4237 41.3657C63.531 42.3742 63.4308 43.3184 63.1376 44.1481ZM63.7527 17.7901C63.9101 19.9217 62.9802 19.9789 61.8143 19.9073C61.7285 19.4424 61.6641 19.0633 61.5497 18.441C62.2721 18.2336 62.8944 18.0476 63.7527 17.7901ZM78.5303 45.4356C78.5303 49.7988 75.9983 53.3466 72.894 53.3466C69.7896 53.3466 67.2647 49.7988 67.2647 45.4356C67.2647 41.0581 69.7896 37.5103 72.894 37.5103C75.9983 37.5103 78.5303 41.0581 78.5303 45.4356ZM66.3849 30.5364C66.6067 32.8539 68.4092 35.3001 70.9985 34.7994C73.3947 34.3417 74.9182 32.1028 75.519 29.8211C76.2844 30.7223 77.7865 30.9298 79.1097 30.7581C79.2099 30.9727 79.3315 31.1658 79.4316 31.3804C80.3972 33.4762 81.0052 36.1227 81.5345 38.4545L81.6633 39.0053C81.6633 39.0196 81.6704 39.0339 81.6704 39.0339C81.6561 39.0696 81.6347 39.1054 81.6203 39.1412C81.5846 39.1769 81.5488 39.2055 81.5131 39.2342C81.2198 39.4917 80.9122 39.7635 80.762 40.1426C80.7048 40.2999 80.6976 40.493 80.7763 40.6433C80.8407 40.7935 80.9766 40.8364 81.1411 40.8292C80.948 41.7662 80.8335 42.8105 80.762 43.8119C80.4974 43.7332 80.2041 43.7333 79.9108 43.8405C79.6819 43.9192 79.4817 44.0337 79.31 44.1839C78.8594 39.928 76.1628 36.652 72.894 36.652C69.6394 36.652 66.95 39.9137 66.4851 44.1481H64.1318C64.9687 41.0367 63.0517 37.4245 63.9101 34.313C63.9172 34.2987 63.9101 34.2701 63.9101 34.2558C64.3249 32.7537 65.0545 31.4019 66.3849 30.5364ZM65.8556 18.5626C66.5995 19.4281 67.043 19.9503 67.5222 20.4939C66.7926 21.9602 65.9915 22.9401 64.1747 22.6039C64.704 21.3308 65.1761 20.172 65.8556 18.5626ZM78.5303 29.6709C78.5876 29.771 78.6376 29.8855 78.6949 29.9856C77.9152 30.0357 77.0783 29.9284 76.5204 29.5779C77.1785 29.7782 77.858 29.7996 78.5303 29.6709ZM82.8935 26.4235C82.5001 27.661 81.649 28.7553 80.433 29.5278C80.2256 29.6637 79.9394 29.771 79.6104 29.8497C79.5317 29.7138 79.4459 29.5708 79.3744 29.4205C80.7906 28.8769 82.0781 27.7325 82.8935 26.4235ZM82.2927 43.3398C81.8778 43.6403 81.5917 44.3341 81.6132 45.1209C81.6347 45.8934 81.9494 46.5371 82.3785 46.8161C82.3785 46.952 82.3714 47.0879 82.3714 47.231C82.1067 46.673 81.8206 46.1437 81.5417 45.6359C81.5703 43.5616 81.7634 41.9665 82.0066 40.8364C82.1353 41.6518 82.2355 42.4815 82.2927 43.3398ZM82.9007 38.7048C83.2726 38.7478 84.2597 41.0581 84.2597 46.0221C84.2597 48.3826 84.038 50.135 83.759 51.3438C83.6517 50.5999 83.43 49.8131 83.1367 49.0335C83.3513 45.7933 83.2369 42.8034 82.7648 40.1354C82.8506 40.0424 82.9078 39.9208 82.9078 39.742C82.9007 39.463 82.8435 39.1197 82.7147 38.8479C82.7791 38.7549 82.8506 38.7048 82.9007 38.7048ZM110.51 144.308C109.166 144.308 107.828 144.308 106.483 144.301C107.892 143.886 109.209 143.321 110.346 142.513C110.403 143.114 110.46 143.715 110.51 144.308ZM113.786 167.863C113.715 167.226 113.643 166.597 113.572 165.96C114.158 166.425 114.187 167.004 113.786 167.863ZM113.751 131.419C113.915 132.177 114.08 132.542 114.044 132.9C114.015 133.164 113.743 133.393 113.479 133.815C112.785 133.007 112.62 132.435 113.751 131.419ZM29.026 251.15C29.026 253.117 27.4237 254.719 25.4639 254.719C23.4897 254.719 21.8947 253.117 21.8947 251.15C21.8947 249.175 23.4897 247.573 25.4639 247.573C27.4237 247.573 29.026 249.175 29.026 251.15ZM43.4031 40.7935C43.2886 40.8078 43.1742 40.8292 43.0669 40.8435C43.0025 40.6146 42.8809 40.3786 42.9024 40.1426C42.9167 39.9637 43.0955 39.7992 43.4746 39.1769C43.4388 40.0567 43.4174 40.4287 43.4031 40.7935ZM39.2187 45.9721C40.0913 45.3355 40.8638 45.3426 41.8008 46.1795C40.5205 47.3883 40.5205 47.3883 39.2187 45.9721ZM40.7136 34.5705C40.263 35.6935 39.6121 36.0655 38.5606 35.4575C39.1543 33.7194 39.1543 33.7194 40.7136 34.5705ZM146.847 5.89505C146.889 5.78776 146.932 5.68762 146.968 5.59464C147.211 5.65186 147.505 5.64471 147.691 5.78776C147.826 5.89506 147.819 6.20978 148.005 6.91075C147.383 6.35998 147.111 6.12394 146.847 5.89505ZM143.592 23.1833C144.3 22.6898 144.822 23.0331 145.616 23.5839C144.608 24.2276 144.014 24.3063 143.592 23.1833ZM133.428 19.2493C132.548 16.8245 132.348 14.2853 132.748 11.8605C132.727 15.0005 133.685 18.2121 135.28 20.8372C136.904 23.541 139.393 26.023 142.262 27.8541C138.084 27.3319 134.937 23.3908 133.428 19.2493ZM141.732 19.7285C141.911 20.3723 142.011 20.7299 142.169 21.2735C141.704 21.2092 141.446 21.1662 141.182 21.1233C141.046 20.9373 140.91 20.7514 140.781 20.5654C141.017 20.3508 141.267 20.1362 141.732 19.7285ZM138.449 45.2926C138.27 44.799 138.113 44.3126 137.97 43.8119C137.705 42.832 137.591 41.8378 137.591 40.8507C137.591 39.6204 137.777 38.3973 138.113 37.1956C138.778 34.9139 139.994 32.7394 141.482 30.8797C139.229 35.3216 137.877 40.4287 138.449 45.2926ZM140.624 48.5685C140.43 48.3182 140.245 48.0678 140.059 47.8103C140.237 47.703 140.402 47.5958 140.574 47.4813C140.702 47.7674 140.845 48.0392 140.967 48.3253C140.852 48.3969 140.738 48.4898 140.624 48.5685ZM412 160.867C412 158.163 411.549 155.882 410.698 154.265C409.833 152.613 408.552 151.683 406.986 151.518C407.107 149.323 407.179 147.12 407.243 144.916C407.401 138.243 407.372 131.555 407.286 124.882C407.136 113.373 406.535 101.878 405.191 90.448C404.668 86.0777 403.989 81.6787 402.658 77.4658C401.45 73.6676 399.382 70.8709 396.092 68.6035C391.815 65.6494 386.958 64.8912 381.937 64.7767C376.3 64.6551 370.671 64.6766 365.035 64.6837C356.215 64.7123 347.403 64.7839 338.591 64.8983C337.89 64.698 337.196 64.5121 336.481 64.3189C332.783 63.2961 328.999 62.2518 325.416 60.8141C324.157 60.3205 322.934 59.7698 321.732 59.1689C321.56 59.0688 321.389 58.9758 321.188 58.8757C320.495 58.4894 319.794 58.0245 319.157 57.5023C320.158 56.2864 320.902 55.1348 321.496 53.9188C329.021 41.6089 331.832 25.1933 322.762 15.7587C316.024 8.74901 302.992 4.62186 294.33 9.65742C291.669 11.2096 286.519 13.6272 283.93 13.9133C283.293 13.9777 282.635 14.0063 281.998 14.0421C279.931 14.1351 277.778 14.228 275.911 15.7158C273.658 17.5255 272.85 19.8144 273.644 22.1605C274.152 23.6554 275.289 25.0073 276.734 26.0158C275.697 28.8984 276.162 32.5177 276.362 35.4861C276.576 38.5546 276.605 42.2383 278.422 44.8348C278.45 44.8777 278.501 44.9063 278.536 44.9349C278.579 45.643 278.629 46.3726 278.708 47.1165C278.915 49.2552 279.259 51.4726 279.745 53.8974C280.375 56.9373 281.576 59.6625 283.229 61.794C284.588 63.5393 286.183 64.9484 287.935 65.9641C286.025 66.0356 284.115 66.243 282.256 66.801C278 68.0742 274.395 70.7278 271.584 74.1397C268.809 77.5087 266.884 81.5357 264.996 85.4411C262.321 91.0131 259.868 96.7139 256.985 102.193C253.823 98.3161 250.462 94.5752 247.357 90.6626C243.667 86.0276 240.262 81.1423 237.029 76.1783C236.585 75.4916 235.376 75.4987 234.103 75.7562C234.411 74.6404 234.468 73.4244 234.275 72.2156C233.96 70.3058 233.152 68.2101 231.822 65.8139C231.228 64.7481 230.756 63.8183 230.334 62.9099C229.869 61.9013 229.125 60.7211 228.038 60.764C227.344 60.7998 227.001 61.1503 226.822 61.4435C226.729 61.6295 226.657 61.8512 226.621 62.0873C225.906 60.435 225.227 58.8685 224.547 57.581C224.19 56.9015 223.624 55.9717 222.845 55.7714C222.516 55.6855 222.172 55.7428 221.858 55.943C221.429 56.222 221.207 56.6512 221.092 57.0946C220.613 56.4008 219.755 56.1147 218.854 56.408C218.41 56.6297 217.945 57.0446 217.766 57.7956C217.573 57.6239 217.337 57.5023 217.08 57.4666C216.636 57.3951 216.2 57.5739 215.907 57.9601C215.241 58.8042 215.427 59.9128 215.585 60.7926C215.606 60.9786 215.642 61.1717 215.663 61.3577C215.728 61.6796 215.785 61.9871 215.849 62.2947C215.828 62.2876 215.806 62.2804 215.785 62.2733C215.249 62.0301 214.626 62.073 214.118 62.3734C213.189 62.9385 213.589 64.6051 213.632 64.7481C214.233 68.8395 216.586 73.0167 216.672 73.1598C216.708 73.2385 217.566 75.0982 218.36 76.0209C220.534 78.3241 221.564 79.2039 223.939 81.0064L224.154 81.271C224.182 81.3139 224.218 81.3354 224.261 81.3569C223.481 82.2009 222.766 83.1093 222.122 84.0892C222.037 84.218 222.037 84.3396 222.087 84.4469C223.775 92.9944 228.796 100.362 232.945 107.858C236.535 114.331 239.675 121.026 244.596 126.634C244.811 126.87 245.033 127.085 245.247 127.313L221.736 127.65C221.128 125.883 217.974 116.584 216.722 112.929C219.454 111.556 221.879 110.118 223.524 108.809C223.682 108.68 223.725 108.444 223.617 108.251C218.56 99.8611 212.502 90.3336 204.748 83.5957C198.468 78.1238 190.557 75.1411 181.259 74.7119L180.665 74.6833C180.243 74.669 179.807 74.6476 179.377 74.6189C178.176 74.5331 176.988 74.3114 176.144 73.589C175.615 73.1455 175.522 72.4445 175.536 71.7006C176.259 71.5433 176.981 71.3287 177.718 71.0783C177.897 71.0139 178.076 70.9639 178.262 70.8923C180.794 69.941 183.14 68.1814 185.028 65.7996C186.709 63.6895 187.939 60.9714 188.583 57.9387C189.098 55.5282 189.463 53.318 189.699 51.1793C190.207 46.5228 190.056 42.3671 189.241 38.8121L189.119 38.2685C188.769 36.7521 188.39 35.1142 187.903 33.5548C189.212 32.5535 190.071 31.1658 189.792 29.2775C189.305 26.1231 186.902 23.4909 184.628 21.438C182.081 19.1277 179.213 17.8688 175.937 16.8746C171.681 15.5871 166.731 14.7001 162.354 15.866C162.268 15.8946 162.211 15.9376 162.161 15.9876C162.125 15.9876 162.082 15.9948 162.039 15.9948C160.88 12.0536 159.521 8.31269 156.653 5.45874C152.025 0.852346 144.329 -2.06599 138.049 1.78221C136.282 2.88374 135.016 4.31429 134.165 5.93082C131.525 9.97929 131.039 15.1364 132.791 19.9646C134.308 24.1633 137.641 27.9614 141.825 28.6552C141.961 28.6838 142.104 28.691 142.24 28.7124C141.639 29.3419 141.053 29.9999 140.516 30.708C137.77 34.3345 136.182 38.8765 137.019 43.44C137.162 44.2268 137.383 45.0208 137.655 45.8004C138.12 47.0951 138.75 48.3754 139.522 49.5771C139.594 49.7702 139.658 49.949 139.73 50.1278C141.739 54.7414 145.216 58.6325 149.25 61.5437C149.407 61.651 149.565 61.7654 149.715 61.8655C151.038 63.339 152.59 64.7839 154.393 66.2287C154.757 66.5292 155.137 66.8224 155.53 67.1228C155.544 67.1371 155.573 67.1371 155.594 67.1443C155.609 67.1658 155.623 67.1729 155.644 67.1801C156.653 67.552 156.395 69.9196 156.117 71.1141C155.723 72.8164 154.514 73.9108 152.497 74.3829L151.725 74.5689C150.201 74.9122 148.628 75.277 147.133 75.8635C144.264 76.9937 141.575 78.5673 139.143 80.5486C135.145 83.796 132.355 88.0948 129.945 92.2505C127.62 96.2418 126.018 100.219 125.131 104.131C124.094 104.26 123.056 104.389 122.019 104.525C118.157 105.004 113.987 105.791 111.333 108.895C109.566 110.955 109.13 113.902 109.066 116.792C108.579 115.833 108.121 114.882 107.678 113.981C104.473 107.422 101.791 100.669 98.0932 94.3678C93.9875 87.3509 88.6015 79.1681 80.8622 75.8206C79.2885 75.1411 77.6076 74.8192 75.891 74.8693C75.7122 73.4602 74.4747 72.9237 72.9869 73.1026C72.2073 73.2027 70.884 73.4459 70.1044 74.0396C69.854 73.9108 69.618 73.7678 69.3962 73.589C68.8741 73.1455 68.7811 72.4445 68.7954 71.7006C69.6824 71.5003 70.5836 71.25 71.5206 70.8923C74.0527 69.9482 76.3917 68.1814 78.28 65.7996C79.9609 63.6895 81.1912 60.9714 81.8421 57.9387C82.0424 57.0231 82.1997 56.1505 82.3571 55.2921C82.9436 54.9273 83.3299 54.4553 83.5587 53.8902C84.7747 52.7386 85.1109 48.4541 85.1109 46.0221C85.1109 43.1968 84.6531 37.8537 82.9007 37.8537C82.6861 37.8537 82.5001 37.9252 82.3213 38.0754C81.792 35.7364 81.184 33.1328 80.2113 31.0228C80.1469 30.8797 80.0682 30.7295 79.9967 30.5864C80.2041 30.5292 80.3901 30.472 80.5689 30.4005C83.7662 29.1487 84.6817 25.043 83.3656 22.1819C82.7648 20.5726 81.4129 19.1635 80.0038 18.298C77.1212 16.5098 73.223 16.145 69.9399 16.7029C69.2818 16.8173 67.9872 15.8589 67.3291 15.6014C66.2919 15.2008 65.1904 14.9505 64.096 14.7645C61.7499 14.3425 59.3394 14.4212 56.9933 14.7144C47.4944 15.8732 38.7251 21.2235 34.319 29.8068C29.1047 39.9637 32.5523 51.2866 39.562 59.6196C41.1356 61.4793 42.9953 63.2031 45.2485 64.1687C45.4917 64.3833 45.7277 64.5979 45.9637 64.8125C41.6506 64.7195 37.3232 64.6623 32.9958 64.6837C30.3993 64.698 27.6956 64.6051 25.1206 65.0414C20.2209 65.8639 15.5144 68.1242 12.1883 71.858C9.77069 74.5903 8.8766 78.6531 8.13271 82.1222C7.22431 86.2923 6.75222 90.5768 6.34451 94.8255C5.14285 107.243 4.69222 119.66 4.66361 132.113C4.65646 138.007 4.66361 143.894 4.92111 149.78C4.94257 150.36 4.99264 150.932 5.0284 151.518C3.44764 151.676 2.16729 152.613 1.29465 154.265C0.443474 155.882 0 158.163 0 160.867C0 171.725 6.88097 186.603 18.2467 188.412C15.7719 189.6 14.0552 192.132 14.0552 195.057V195.701C14.0552 199.771 17.3598 203.083 21.4297 203.083H49.0681V240.757C49.0681 241.05 49.1253 241.322 49.2183 241.593H29.4265C27.1663 241.593 26.0075 242.602 26.0075 244.583V246.765C25.8358 246.751 25.6499 246.715 25.4639 246.715C23.0248 246.715 21.0435 248.703 21.0435 251.15C21.0435 253.589 23.0248 255.57 25.4639 255.57C27.903 255.57 29.8772 253.589 29.8772 251.15C29.8772 249.197 28.6183 247.552 26.8658 246.965V244.583C26.8658 243.088 27.6383 242.445 29.4265 242.445H49.6832C50.3269 243.274 51.3856 243.861 52.4871 244.061V246.751C50.1839 246.901 48.3671 248.803 48.3671 251.15C48.3671 253.589 50.3484 255.57 52.7875 255.57C55.2266 255.57 57.2079 253.589 57.2079 251.15C57.2079 248.889 55.5199 247.051 53.3383 246.765V244.133C54.5828 244.011 55.6415 243.36 56.228 242.445H78.1012C78.3015 242.445 78.7521 242.452 79.2742 242.552C79.0596 243.496 78.9309 244.476 78.9309 245.449C78.9309 246.064 78.9309 246.658 78.9381 247.237C77.5218 247.974 76.549 249.433 76.549 251.15C76.549 252.902 77.579 254.411 79.0597 255.126C79.0668 255.341 79.0668 255.463 79.0668 255.47L79.0811 256.135H79.496C91.3481 256.135 129.229 255.398 129.601 255.391L130.109 255.227L130.023 254.683C129.952 254.318 129.887 253.946 129.809 253.567H115.675V255.277H114.824V253.567H79.0167C79.0239 253.775 79.031 253.961 79.031 254.139C78.0511 253.496 77.4002 252.394 77.4002 251.15C77.4002 249.934 78.0153 248.853 78.9381 248.21C78.9524 249.976 78.981 251.514 78.9953 252.709H114.824V236.83C114.244 236.658 113.65 236.508 113.064 236.393C113.672 236.179 114.258 235.95 114.824 235.707V236.83C115.11 236.915 115.396 237.001 115.675 237.109V235.335C115.918 235.22 116.147 235.113 116.369 234.991C116.483 234.934 116.576 234.82 116.597 234.691C116.841 233.403 117.098 232.066 117.356 230.685C118.257 225.986 119.23 220.865 120.074 215.55C120.281 216.187 120.481 216.816 120.689 217.46C121.805 220.95 122.92 224.448 123.922 227.975C124.594 230.292 124.573 233.361 127.126 234.333C127.463 234.448 127.806 234.555 128.142 234.655C127.577 237.237 127.126 241.05 128.199 244.397C129.093 247.144 129.887 249.512 130.467 251.192L145.566 246.314V246.765C145.387 246.751 145.209 246.715 145.015 246.715C143.549 246.715 142.269 247.43 141.46 248.539L130.738 252.001C131.146 253.159 131.389 253.839 131.397 253.86L131.59 254.425L131.99 254.297C134.122 253.603 137.133 252.602 140.624 251.436C140.774 253.739 142.676 255.57 145.015 255.57C147.447 255.57 149.436 253.589 149.436 251.15C149.436 250.248 149.171 249.411 148.706 248.718C152.969 247.273 157.44 245.749 161.624 244.326C161.61 244.533 161.61 244.719 161.61 244.884C161.603 254.089 163.298 254.425 163.884 255.277H164.027V255.105C164.027 255.105 164.206 255.005 164.521 254.998C166.18 254.998 168.083 254.976 170.136 254.962C170.787 255.341 171.531 255.57 172.346 255.57C173.19 255.57 173.977 255.327 174.642 254.912C179.828 254.84 185.436 254.74 190.228 254.662C192.975 254.64 195.564 254.604 197.76 254.583C198.518 255.198 199.477 255.57 200.528 255.57C201.608 255.57 202.588 255.169 203.361 254.511C203.826 254.504 204.147 254.504 204.319 254.504C204.498 254.504 204.677 254.461 204.848 254.425H218.911C218.968 254.361 219.018 254.304 219.068 254.24C219.082 254.304 219.097 254.368 219.097 254.425H238.059C240.999 254.461 243.073 254.476 243.602 254.476C246.163 254.476 248.487 250.899 238.753 243.396C237.794 242.659 236.249 241.651 234.647 240.649C232.322 238.79 228.331 236.372 227.179 235.678C228.617 232.202 230.777 228.861 232.866 225.614C233.867 224.076 234.897 222.474 235.82 220.908C236.449 219.849 237.1 218.747 237.787 217.603C241.785 210.901 246.306 203.297 248.774 196.495C248.774 196.488 248.774 196.488 248.774 196.488C250.097 192.597 251.442 187.29 251.442 181.796C251.442 174.708 249.203 167.29 241.814 162.198C235.598 157.899 227.322 156.876 219.311 155.882C218.367 155.767 217.423 155.646 216.493 155.531C214.111 155.224 209.805 154.494 208.682 154.294C208.482 153.521 208.16 152.606 207.788 151.662C206.78 149.158 205.406 146.497 205.17 146.054L205.163 145.975L205.07 145.331C206.05 145.331 207.037 145.317 208.017 145.317C210.535 147.413 214.319 148.536 219.161 148.536C226.028 148.536 233.76 146.991 240.226 145.267C247.465 145.26 254.71 145.253 261.949 145.231C274.423 145.217 286.876 145.203 299.337 145.174L302.691 152.026V152.527C301.933 152.62 301.182 152.713 300.424 152.835C296.94 153.364 293.242 153.929 289.988 155.345C286.862 156.711 284.387 159.394 282.714 162.312C280.568 166.039 279.352 169.88 278.086 173.942C275.01 183.749 271.984 193.577 268.959 203.405C266.949 209.899 265.325 216.709 262.822 223.032C262.764 223.175 262.843 223.34 262.929 223.447C263.43 224.012 263.959 224.555 264.495 225.078C264.009 225.042 263.523 225.013 263.036 225.013C258.079 225.013 253.087 226.716 248.967 229.82C246.506 231.672 243.981 236.229 243.259 237.595L242.794 238.525L243.259 238.682C243.624 238.811 280.046 251.393 291.197 254.998L291.998 255.255L292.334 254.268C292.42 254.032 292.642 253.417 292.949 252.516C292.999 252.587 293.064 252.644 293.149 252.68C293.042 253.152 292.949 253.61 292.87 254.054L292.735 254.919L293.529 255.291L294.537 255.341C306.096 255.577 334.006 256.135 343.82 256.135H344.657L344.678 254.955C344.685 254.669 344.707 253.846 344.735 252.652C344.871 252.587 344.964 252.444 344.964 252.287C344.964 252.122 344.878 251.994 344.757 251.922C344.785 250.127 344.814 247.688 344.814 244.927C344.814 244.09 344.721 243.26 344.571 242.445H356.044C356.544 243.389 357.467 244.018 358.662 244.133L359.055 244.161V246.729C356.695 246.822 354.785 248.753 354.785 251.15C354.785 253.589 356.773 255.57 359.212 255.57C361.652 255.57 363.633 253.589 363.633 251.15C363.633 248.939 362.016 247.122 359.913 246.786V243.997C360.958 243.739 361.966 243.181 362.617 242.445H382.566C384.533 242.445 385.528 243.167 385.528 244.583V246.844C383.575 247.308 382.116 249.054 382.116 251.15C382.116 253.589 384.104 255.57 386.536 255.57C388.982 255.57 390.957 253.589 390.957 251.15C390.957 248.703 388.982 246.715 386.536 246.715C386.486 246.715 386.436 246.729 386.379 246.729V244.583C386.379 242.681 384.991 241.593 382.566 241.593H363.154C363.261 241.329 363.325 241.043 363.325 240.764V203.083H390.964C395.034 203.083 398.331 199.771 398.331 195.701V195.065C398.331 192.089 396.564 189.521 394.032 188.362C405.226 186.352 412 171.632 412 160.867Z" fill="black"/>
</svg>
