<svg xmlns="http://www.w3.org/2000/svg" width="16" height="16" viewBox="0 0 16 16">
  <g id="Layer_2" data-name="Layer 2" transform="translate(0.011 0.011)">
    <g id="invisible_box" data-name="invisible box" transform="translate(-0.011 -0.011)">
      <rect id="Rectangle_134" data-name="Rectangle 134" width="16" height="16" fill="none"/>
    </g>
    <g id="icons_Q2" data-name="icons Q2" transform="translate(0.672 0.672)">
      <g id="Group_93" data-name="Group 93">
        <path id="Path_47" data-name="Path 47" d="M14.705,11.047l1.829-.5a7.649,7.649,0,0,0,0-2.461l-1.829-.5a.6.6,0,0,1-.366-.865L15.27,5.06a6.851,6.851,0,0,0-1.7-1.7L11.911,4.3l-.266.067a.6.6,0,0,1-.6-.432l-.5-1.829a7.649,7.649,0,0,0-2.461,0l-.5,1.829a.6.6,0,0,1-.6.432L6.723,4.3,5.06,3.364a6.851,6.851,0,0,0-1.7,1.7L4.3,6.723a.6.6,0,0,1-.366.865l-1.829.5a7.649,7.649,0,0,0,0,2.461l1.829.5a.6.6,0,0,1,.366.865l-.931,1.663a6.851,6.851,0,0,0,1.7,1.7l1.663-.931.266-.067a.6.6,0,0,1,.6.432l.5,1.829a7.649,7.649,0,0,0,2.461,0l.5-1.829a.6.6,0,0,1,.6-.432l.266.067,1.663.931a6.851,6.851,0,0,0,1.7-1.7l-.931-1.663a.6.6,0,0,1,.366-.865Zm-.4-1.3h-.067a2.029,2.029,0,0,0-1.131,1.1,1.9,1.9,0,0,0,.033,1.6h.033v.067l.5.831a1,1,0,0,1-.266.266l-.831-.5h-.1a1.8,1.8,0,0,0-.831-.2,2,2,0,0,0-1.862,1.3v.1h0l-.3,1H9.151l-.266-.964h0v-.067a2,2,0,0,0-1.9-1.33,1.8,1.8,0,0,0-.831.2h-.1l-.831.5a1,1,0,0,1-.266-.266l.5-.831v-.067h.033a1.9,1.9,0,0,0,.033-1.6,2.029,2.029,0,0,0-1.131-1.1H4.3l-.964-.3V9.151L4.3,8.885h.1a2.029,2.029,0,0,0,1.131-1.1,1.9,1.9,0,0,0-.033-1.6H5.459V6.124l-.5-.831.266-.266.831.5h.1a1.8,1.8,0,0,0,.831.2,2,2,0,0,0,1.862-1.3v-.1h0l.3-1h.333L9.75,4.3h0v.067a2,2,0,0,0,1.9,1.33,1.8,1.8,0,0,0,.831-.2h.1l.831-.5a1,1,0,0,1,.266.266l-.5.831v.067h-.033a1.9,1.9,0,0,0-.033,1.6,2.029,2.029,0,0,0,1.131,1.1h.1l.964.266V9.45l-.964.266Z" transform="translate(-2 -2)" fill="#45a4e4"/>
        <path id="Path_48" data-name="Path 48" d="M17.993,15a2.993,2.993,0,1,0,2.993,2.993A2.993,2.993,0,0,0,17.993,15Zm0,4.656a1.663,1.663,0,1,1,1.663-1.663A1.663,1.663,0,0,1,17.993,19.656Z" transform="translate(-10.677 -10.677)" fill="#45a4e4"/>
      </g>
    </g>
  </g>
</svg>
