<svg xmlns="http://www.w3.org/2000/svg" width="28.349" height="26.888" viewBox="0 0 28.349 26.888">
  <path id="developer-board" d="M28.349,8.5H25.494v2.855h2.855v2.788H25.494V17h2.855V19.85H25.494v2.788a2.835,2.835,0,0,1-2.855,2.855H2.855a2.756,2.756,0,0,1-2.025-.83A2.752,2.752,0,0,1,0,22.64V2.855A2.756,2.756,0,0,1,.83.829,2.752,2.752,0,0,1,2.855,0H22.639a2.756,2.756,0,0,1,2.025.83,2.755,2.755,0,0,1,.83,2.024V5.643h2.855V8.5ZM22.639,22.64V2.855H2.855V22.639H22.639Zm-17-8.5h7.1v5.71h-7.1Zm8.5-2.788h5.71V15.6h-5.71Zm-8.5-5.71h7.1v7.1h-7.1Zm8.5,12.747h5.71v8.5h-5.71Z"/>
</svg>
