<svg  width="28.349" height="26.888"  viewBox="0 0 72 67" fill="none" xmlns="http://www.w3.org/2000/svg">
<path d="M14.2743 0.547149C10.6321 0.547149 7.13919 1.99398 4.56382 4.56935C1.98845 7.14472 0.541626 10.6377 0.541626 14.2798V47.2381C0.541626 50.8802 1.98845 54.3732 4.56382 56.9486C7.13919 59.5239 10.6321 60.9708 14.2743 60.9708H37.79C37.9713 59.7843 38.3668 58.6087 39.004 57.5101L40.1795 55.4777H14.2743C12.089 55.4777 9.99322 54.6096 8.448 53.0644C6.90278 51.5192 6.03468 49.4234 6.03468 47.2381V17.0208H55.4722V23.5795C57.2234 22.8871 59.0827 22.5078 60.9652 22.4589V14.2743C60.9652 10.6322 59.5184 7.13922 56.943 4.56385C54.3677 1.98848 50.8747 0.541656 47.2326 0.541656H14.2743V0.547149ZM6.4961 11.5278C7.06431 9.92062 8.117 8.52926 9.50909 7.54546C10.9012 6.56165 12.5641 6.03382 14.2688 6.03471H47.2271C48.9308 6.03496 50.5925 6.56331 51.9835 7.54704C53.3745 8.53077 54.4264 9.9215 54.9943 11.5278H6.4961Z" fill="black"/>
<path d="M46.7712 31.9069L38.1911 23.3158C37.6731 22.8155 36.9793 22.5386 36.2592 22.5449C35.539 22.5512 34.8502 22.84 34.3409 23.3492C33.8317 23.8585 33.5429 24.5473 33.5366 25.2675C33.5303 25.9876 33.8072 26.6814 34.3075 27.1994L43.349 36.2464L34.3075 45.288C34.0452 45.5414 33.8359 45.8444 33.692 46.1795C33.548 46.5146 33.4723 46.875 33.4691 47.2397C33.4659 47.6044 33.5354 47.966 33.6735 48.3036C33.8116 48.6411 34.0156 48.9478 34.2734 49.2056C34.5313 49.4635 34.838 49.6675 35.1755 49.8056C35.513 49.9437 35.8747 50.0131 36.2394 50.01C36.6041 50.0068 36.9645 49.931 37.2996 49.7871C37.6346 49.6432 37.9377 49.4339 38.1911 49.1716L45.7056 41.6571C45.0234 38.3724 45.3963 34.9561 46.7712 31.8959V31.9069Z" fill="black"/>
<path d="M27.1994 23.3211C27.7143 23.8361 28.0035 24.5346 28.0035 25.2629C28.0035 25.9911 27.7143 26.6896 27.1994 27.2046L18.1578 36.2517L27.1994 45.2933C27.4617 45.5466 27.6709 45.8497 27.8149 46.1848C27.9588 46.5199 28.0346 46.8803 28.0377 47.245C28.0409 47.6096 27.9714 47.9713 27.8333 48.3088C27.6952 48.6464 27.4913 48.953 27.2334 49.2109C26.9755 49.4688 26.6689 49.6727 26.3313 49.8108C25.9938 49.9489 25.6321 50.0184 25.2674 50.0152C24.9028 50.0121 24.5424 49.9363 24.2073 49.7924C23.8722 49.6484 23.5691 49.4392 23.3158 49.1769L12.3297 38.1908C11.8148 37.6757 11.5255 36.9772 11.5255 36.249C11.5255 35.5207 11.8148 34.8222 12.3297 34.3072L23.3158 23.3211C23.8308 22.8062 24.5293 22.5169 25.2576 22.5169C25.9858 22.5169 26.6843 22.8062 27.1994 23.3211Z" fill="black"/>
<path d="M58.334 36.6861L63.2778 28.117C61.2183 27.7321 59.0908 27.9726 57.1693 28.8075C55.2477 29.6424 53.6202 31.0335 52.4962 32.8016C51.3722 34.5697 50.8034 36.6338 50.8629 38.728C50.9223 40.8223 51.6075 42.8508 52.83 44.5522L43.7609 60.2623C43.2327 61.2627 43.1128 62.4289 43.4263 63.5159C43.7399 64.6029 44.4625 65.526 45.4425 66.0914C46.4224 66.6567 47.5833 66.8202 48.6812 66.5476C49.7792 66.2749 50.7287 65.5874 51.3304 64.6293L60.4214 48.8917C62.4991 49.0793 64.5855 48.6432 66.4141 47.6392C68.2428 46.6352 69.7306 45.1088 70.6875 43.2551C71.6444 41.4014 72.027 39.3045 71.7864 37.2323C71.5458 35.1601 70.6928 33.2067 69.3366 31.6215L64.3928 40.1852C64.1684 40.5932 63.8648 40.9522 63.4998 41.2413C63.1348 41.5304 62.7158 41.7438 62.2673 41.8689C61.8189 41.994 61.3499 42.0284 60.888 41.9699C60.4261 41.9115 59.9804 41.7614 59.5772 41.5286C59.174 41.2957 58.8213 40.9847 58.5399 40.6139C58.2584 40.243 58.0538 39.8196 57.938 39.3686C57.8222 38.9176 57.7976 38.4481 57.8656 37.9875C57.9336 37.5268 58.0928 37.0844 58.334 36.6861Z" fill="black"/>
</svg>
