<svg width="364" height="813" viewBox="0 0 364 813" fill="none" xmlns="http://www.w3.org/2000/svg">
<path d="M224.079 103.094C224.083 103.007 224.106 102.923 224.145 102.845C224.183 102.768 224.238 102.699 224.304 102.643C224.396 102.558 224.517 102.51 224.642 102.51C224.768 102.51 224.889 102.558 224.98 102.643L402.63 241.514C402.69 241.608 402.722 241.717 402.722 241.829C402.722 241.941 402.69 242.05 402.63 242.144C402.608 242.232 402.563 242.311 402.5 242.375C402.436 242.438 402.356 242.483 402.269 242.505L307.607 273.46C307.48 273.498 307.345 273.492 307.222 273.443C307.099 273.394 306.997 273.304 306.931 273.19L224.124 103.319L224.079 103.094ZM401.007 241.784L226.243 105.031L307.742 272.243L401.007 241.784Z" fill="white"/>
<path d="M289.171 387.503L306.886 273.145C306.892 273.03 306.934 272.919 307.007 272.83C307.08 272.741 307.18 272.678 307.292 272.649C307.379 272.593 307.481 272.563 307.585 272.563C307.688 272.563 307.79 272.593 307.878 272.649L429.812 454.37C429.844 454.441 429.861 454.517 429.861 454.595C429.861 454.673 429.844 454.75 429.812 454.82C429.769 454.903 429.705 454.972 429.625 455.02C429.545 455.068 429.454 455.093 429.361 455.091C429.257 455.118 429.149 455.118 429.045 455.091L289.306 387.503C289.261 387.508 289.215 387.508 289.171 387.503ZM307.787 274.857L290.343 387.503L427.783 453.784L307.787 274.857Z" fill="white"/>
<path d="M306.886 272.919C306.96 272.771 307.09 272.658 307.247 272.604L401.909 241.649C401.984 241.605 402.07 241.582 402.157 241.582C402.244 241.582 402.329 241.605 402.405 241.649C402.542 241.746 402.638 241.89 402.675 242.054L429.721 454.775C429.753 454.83 429.77 454.892 429.77 454.956C429.77 455.019 429.753 455.081 429.721 455.136C429.679 455.219 429.614 455.288 429.535 455.336C429.455 455.384 429.364 455.408 429.271 455.406C429.173 455.403 429.077 455.377 428.991 455.33C428.905 455.283 428.831 455.216 428.775 455.136L306.976 273.235C306.937 273.193 306.909 273.143 306.893 273.088C306.877 273.033 306.875 272.975 306.886 272.919ZM401.819 242.73L308.328 273.235L428.549 452.432L401.819 242.73Z" fill="white"/>
<path d="M283.806 564.853L289.17 387.503C289.173 387.394 289.209 387.288 289.274 387.199C289.338 387.111 289.428 387.044 289.531 387.007C289.616 386.945 289.719 386.912 289.824 386.912C289.929 386.912 290.032 386.945 290.117 387.007L395.733 486.136C395.776 486.283 395.776 486.44 395.733 486.587C395.735 486.68 395.71 486.771 395.662 486.851C395.615 486.931 395.545 486.995 395.463 487.037L284.618 565.574C284.53 565.631 284.429 565.661 284.325 565.661C284.221 565.661 284.119 565.631 284.032 565.574C283.965 565.546 283.906 565.504 283.858 565.451C283.81 565.398 283.774 565.335 283.752 565.266C283.731 565.197 283.724 565.125 283.734 565.054C283.743 564.982 283.768 564.914 283.806 564.853ZM290.117 388.585L284.933 563.727L394.336 486.226L290.117 388.585Z" fill="white"/>
<path d="M289.17 387.503L289.17 387.188C289.273 387.107 289.4 387.064 289.531 387.064C289.662 387.064 289.789 387.107 289.892 387.188L429.631 454.775C429.716 454.808 429.79 454.863 429.845 454.934C429.901 455.006 429.936 455.091 429.947 455.181C429.99 455.256 430.013 455.342 430.013 455.429C430.013 455.516 429.99 455.601 429.947 455.677L395.913 487.218C395.817 487.273 395.708 487.302 395.598 487.302C395.487 487.302 395.378 487.273 395.282 487.218L289.711 388.089C289.636 388.089 289.562 388.074 289.493 388.044C289.425 388.014 289.363 387.97 289.312 387.915C289.261 387.86 289.222 387.795 289.198 387.724C289.173 387.653 289.164 387.578 289.17 387.503ZM428.414 455.091L292.822 389.441L395.327 485.55L428.414 455.091Z" fill="white"/>
<path d="M278.622 685.7L283.806 564.853C283.8 564.736 283.831 564.62 283.896 564.523C283.961 564.425 284.056 564.351 284.167 564.313C284.263 564.257 284.372 564.228 284.482 564.228C284.593 564.228 284.702 564.257 284.798 564.313L381.579 690.972C381.635 691.046 381.674 691.132 381.693 691.223C381.712 691.314 381.711 691.408 381.689 691.498C381.668 691.589 381.626 691.673 381.568 691.746C381.51 691.818 381.437 691.877 381.354 691.918C381.312 691.942 381.266 691.955 381.218 691.955C381.171 691.955 381.124 691.942 381.083 691.918L279.299 686.286C279.214 686.299 279.128 686.294 279.047 686.27C278.965 686.247 278.889 686.206 278.825 686.15C278.76 686.094 278.709 686.025 278.674 685.947C278.639 685.87 278.621 685.785 278.622 685.7ZM284.978 566.43L279.749 685.205L380.136 690.927L284.978 566.43Z" fill="white"/>
<path d="M283.806 564.853C283.811 564.779 283.835 564.708 283.874 564.645C283.913 564.582 283.967 564.53 284.032 564.493L394.877 485.911C394.964 485.855 395.066 485.825 395.17 485.825C395.274 485.825 395.375 485.855 395.463 485.911C395.561 485.962 395.643 486.04 395.699 486.136C395.755 486.231 395.782 486.341 395.778 486.452L381.759 691.693C381.742 691.804 381.695 691.909 381.624 691.996C381.553 692.083 381.459 692.15 381.354 692.189C381.256 692.24 381.148 692.267 381.038 692.267C380.928 692.267 380.82 692.24 380.722 692.189L283.806 565.214C283.765 565.097 283.765 564.97 283.806 564.853ZM394.696 487.443L285.294 564.989L380.858 690.026L394.696 487.443Z" fill="white"/>
<path d="M269.156 794.697L278.622 685.7C278.631 685.579 278.68 685.464 278.762 685.374C278.844 685.284 278.953 685.225 279.073 685.205C279.187 685.172 279.309 685.182 279.416 685.231C279.524 685.281 279.61 685.367 279.659 685.475L366.974 844.577L366.974 844.847C366.976 844.94 366.951 845.031 366.903 845.111C366.856 845.191 366.786 845.255 366.704 845.298C366.626 845.356 366.53 845.388 366.433 845.388C366.335 845.388 366.241 845.356 366.163 845.298L269.427 795.237C269.343 795.175 269.275 795.093 269.228 794.999C269.181 794.905 269.156 794.802 269.156 794.697ZM279.569 687.593L270.283 794.381L364.945 843.45L279.569 687.593Z" fill="white"/>
<path d="M278.622 685.7L278.622 685.43C278.676 685.347 278.749 685.278 278.836 685.231C278.922 685.184 279.02 685.159 279.118 685.16L381.263 690.972C381.42 691.001 381.562 691.08 381.669 691.197C381.714 691.329 381.714 691.471 381.669 691.603L366.793 844.802C366.795 844.875 366.779 844.948 366.749 845.015C366.719 845.082 366.674 845.141 366.618 845.188C366.562 845.236 366.496 845.27 366.425 845.289C366.354 845.308 366.28 845.311 366.207 845.297C366.103 845.298 366.001 845.269 365.913 845.213C365.825 845.157 365.755 845.077 365.712 844.982L278.442 685.926L278.622 685.7ZM380.722 692.099L280.155 686.331L366.072 842.909L380.722 692.099Z" fill="white"/>
<path d="M220.428 976.192L269.201 794.697C269.251 794.551 269.345 794.424 269.472 794.336C269.619 794.291 269.776 794.291 269.923 794.336L405.154 845.117C405.266 845.16 405.364 845.233 405.436 845.329C405.507 845.424 405.551 845.539 405.56 845.658C405.562 845.751 405.537 845.842 405.489 845.922C405.442 846.002 405.372 846.066 405.289 846.108L221.419 976.778C221.327 976.844 221.217 976.88 221.104 976.88C220.991 976.88 220.88 976.844 220.788 976.778C220.724 976.768 220.662 976.744 220.607 976.708C220.553 976.672 220.506 976.625 220.472 976.569C220.438 976.513 220.416 976.451 220.408 976.385C220.401 976.32 220.407 976.255 220.428 976.192ZM270.013 795.463L221.825 974.841L403.577 845.658L270.013 795.463Z" fill="white"/>
<path d="M269.156 794.697L269.156 794.471C269.185 794.406 269.227 794.347 269.279 794.298C269.332 794.249 269.393 794.211 269.46 794.185C269.527 794.16 269.599 794.149 269.67 794.151C269.742 794.154 269.812 794.171 269.877 794.201L405.109 844.982C405.221 845.024 405.319 845.098 405.391 845.193C405.462 845.289 405.506 845.403 405.515 845.523C405.549 845.656 405.549 845.795 405.515 845.928C405.383 845.967 405.242 845.967 405.109 845.928L366.748 845.207C366.66 845.228 366.567 845.228 366.478 845.207L269.742 795.147C269.611 795.137 269.486 795.089 269.382 795.009C269.278 794.929 269.2 794.821 269.156 794.697ZM401.593 844.892L278.442 798.617L366.613 844.216L401.593 844.892Z" fill="white"/>
<path d="M115.894 8.6963C115.865 8.63253 115.85 8.56343 115.85 8.49354C115.85 8.42365 115.865 8.35455 115.894 8.29077C115.993 8.20211 116.121 8.15309 116.254 8.15309C116.387 8.15309 116.516 8.20211 116.615 8.29077L224.8 102.643C224.893 102.683 224.967 102.756 225.008 102.848C225.05 102.939 225.056 103.043 225.026 103.139C225.018 103.235 224.985 103.328 224.929 103.407C224.874 103.487 224.798 103.549 224.71 103.59L180.264 123.28C180.138 123.344 179.992 123.356 179.857 123.314C179.723 123.272 179.61 123.179 179.543 123.055L115.939 9.01171L115.894 8.6963ZM223.628 102.914L118.508 11.2646L180.489 122.063L223.628 102.914Z" fill="white"/>
<path d="M171.609 253.094L179.678 122.739C179.686 122.631 179.725 122.528 179.788 122.441C179.852 122.353 179.939 122.285 180.039 122.244C180.131 122.178 180.241 122.142 180.354 122.142C180.467 122.142 180.578 122.178 180.67 122.244L307.833 272.334C307.876 272.417 307.899 272.51 307.899 272.604C307.899 272.698 307.876 272.791 307.833 272.874C307.798 272.953 307.741 273.021 307.669 273.069C307.598 273.117 307.513 273.143 307.427 273.145L172.195 253.274C172.091 253.307 171.979 253.307 171.874 253.275C171.77 253.243 171.677 253.179 171.609 253.094ZM180.625 124.226L172.646 252.598L305.939 272.153L180.625 124.226Z" fill="white"/>
<path d="M179.678 122.784C179.73 122.615 179.842 122.471 179.994 122.379L224.44 102.688C224.572 102.639 224.718 102.639 224.851 102.688C224.984 102.738 225.094 102.834 225.161 102.959L307.923 272.829C307.981 272.907 308.013 273.002 308.013 273.1C308.013 273.197 307.981 273.292 307.923 273.37C307.888 273.449 307.832 273.517 307.76 273.565C307.688 273.613 307.604 273.639 307.517 273.64C307.446 273.673 307.369 273.689 307.292 273.689C307.214 273.689 307.137 273.673 307.066 273.64L179.813 123.145C179.768 123.097 179.733 123.04 179.709 122.978C179.686 122.916 179.675 122.85 179.678 122.784ZM224.395 103.635L181.166 122.829L304.948 268.954L224.395 103.635Z" fill="white"/>
<path d="M144.653 351.997L171.699 252.868C171.722 252.769 171.772 252.679 171.844 252.607C171.916 252.536 172.006 252.486 172.105 252.463C172.194 252.411 172.295 252.384 172.398 252.384C172.501 252.384 172.602 252.411 172.691 252.463L290.253 386.647L290.253 387.053C290.258 387.142 290.241 387.231 290.203 387.311C290.166 387.392 290.108 387.463 290.037 387.516C289.966 387.57 289.882 387.605 289.794 387.618C289.706 387.632 289.615 387.623 289.531 387.593L145.014 352.267C144.945 352.248 144.881 352.213 144.826 352.167C144.772 352.12 144.728 352.062 144.698 351.997L144.653 351.997ZM172.421 254.265L145.915 351.456L288.314 386.332L172.421 254.265Z" fill="white"/>
<path d="M171.609 253.094L171.609 252.823C171.665 252.721 171.752 252.64 171.857 252.591C171.963 252.542 172.081 252.529 172.195 252.553L307.427 272.379C307.544 272.344 307.67 272.344 307.788 272.379C307.819 272.442 307.836 272.511 307.836 272.581C307.836 272.652 307.819 272.721 307.788 272.784L290.298 387.503C290.287 387.575 290.262 387.643 290.224 387.705C290.186 387.766 290.136 387.82 290.077 387.862C290.018 387.904 289.952 387.933 289.881 387.949C289.811 387.965 289.738 387.967 289.666 387.954C289.536 388.006 289.391 388.006 289.261 387.954L171.744 253.454C171.699 253.406 171.663 253.349 171.64 253.288C171.617 253.226 171.606 253.16 171.609 253.094ZM306.841 273.415L173.638 253.86L289.396 386.016L306.841 273.415Z" fill="white"/>
<path d="M131.31 538.719L144.833 351.997C144.839 351.882 144.882 351.772 144.955 351.683C145.028 351.594 145.127 351.53 145.239 351.501C145.336 351.45 145.444 351.423 145.554 351.423C145.664 351.423 145.773 351.45 145.87 351.501L285.113 564.358C285.17 564.445 285.2 564.547 285.2 564.651C285.2 564.755 285.17 564.856 285.113 564.944C285.064 565.051 284.978 565.137 284.87 565.187C284.763 565.237 284.641 565.246 284.527 565.214L131.896 539.08C131.772 539.097 131.645 539.071 131.538 539.005C131.431 538.939 131.351 538.838 131.31 538.719ZM145.645 353.709L132.437 538.449L283.31 564.313L145.645 353.709Z" fill="white"/>
<path d="M144.653 351.997L144.653 351.682C144.742 351.63 144.843 351.603 144.946 351.603C145.049 351.603 145.15 351.63 145.239 351.682L289.757 387.007C289.822 387.013 289.885 387.032 289.943 387.062C290.001 387.092 290.053 387.134 290.095 387.184C290.136 387.234 290.168 387.292 290.187 387.355C290.207 387.417 290.214 387.483 290.207 387.548L284.978 565.079C284.962 565.19 284.921 565.296 284.858 565.389C284.796 565.483 284.714 565.561 284.618 565.619C284.522 565.675 284.413 565.704 284.302 565.704C284.191 565.704 284.083 565.675 283.987 565.619L144.698 352.763L144.653 351.997ZM289.171 387.773L146.456 352.898L283.806 563.231L289.171 387.773Z" fill="white"/>
<path d="M131.31 538.719C131.305 538.625 131.322 538.53 131.362 538.444C131.401 538.357 131.461 538.282 131.535 538.224C131.635 538.135 131.763 538.086 131.896 538.086C132.029 538.086 132.158 538.135 132.257 538.224L279.299 685.25L279.299 685.52C279.332 685.598 279.349 685.683 279.349 685.768C279.349 685.853 279.332 685.937 279.299 686.016C279.194 686.145 279.053 686.24 278.893 686.286C278.789 686.311 278.681 686.311 278.577 686.286L191.353 659.251C191.277 659.234 191.205 659.202 191.143 659.155C191.081 659.108 191.03 659.049 190.992 658.981L130.995 538.99L131.31 538.719ZM277.135 684.484L133.925 541.558L192.255 658.215L277.135 684.484Z" fill="white"/>
<path d="M131.31 538.719L131.31 538.449C131.364 538.343 131.449 538.256 131.554 538.2C131.659 538.144 131.778 538.121 131.896 538.134L284.528 564.313C284.667 564.334 284.794 564.406 284.885 564.513C284.976 564.621 285.025 564.758 285.023 564.898L279.704 685.745L279.704 686.016C279.6 686.145 279.458 686.24 279.299 686.286C279.139 686.349 278.962 686.349 278.803 686.286L131.445 539.08C131.4 539.032 131.364 538.975 131.341 538.913C131.318 538.851 131.307 538.785 131.31 538.719ZM283.806 565.349L133.429 539.576L278.577 684.439L283.806 565.349Z" fill="white"/>
<path d="M191.308 658.665C191.311 658.544 191.352 658.427 191.425 658.33C191.497 658.234 191.598 658.162 191.714 658.124C191.834 658.097 191.96 658.109 192.073 658.158C192.186 658.206 192.281 658.289 192.345 658.395L270.283 794.426C270.313 794.491 270.33 794.562 270.333 794.633C270.336 794.705 270.324 794.776 270.299 794.843C270.274 794.91 270.235 794.972 270.186 795.024C270.137 795.076 270.078 795.118 270.013 795.147C269.921 795.213 269.81 795.249 269.697 795.249C269.584 795.249 269.474 795.213 269.382 795.147L200.368 738.959C200.32 738.829 200.32 738.685 200.368 738.554L191.353 658.62L191.308 658.665ZM267.939 792.354L192.885 661.324L201.45 738.374L267.939 792.354Z" fill="white"/>
<path d="M191.308 658.665C191.274 658.563 191.274 658.452 191.308 658.35C191.374 658.26 191.464 658.192 191.568 658.152C191.672 658.112 191.785 658.103 191.894 658.124L279.208 685.16C279.336 685.191 279.447 685.268 279.521 685.376C279.596 685.484 279.629 685.615 279.614 685.745L270.148 794.742C270.149 794.846 270.119 794.948 270.063 795.036C270.007 795.124 269.927 795.194 269.832 795.237C269.705 795.291 269.563 795.298 269.431 795.257C269.299 795.215 269.185 795.129 269.111 795.012L191.398 658.981C191.329 658.89 191.297 658.778 191.308 658.665ZM278.577 686.106L192.931 659.656L269.337 793.03L278.577 686.106Z" fill="white"/>
<path d="M149.115 891.302L200.143 738.644C200.19 738.53 200.272 738.433 200.377 738.369C200.483 738.304 200.606 738.274 200.729 738.284C200.86 738.284 200.987 738.336 201.08 738.429C201.172 738.522 201.225 738.648 201.225 738.779L221.509 976.328C221.502 976.516 221.421 976.694 221.284 976.823C221.17 976.919 221.027 976.971 220.878 976.971C220.73 976.971 220.586 976.919 220.473 976.823L149.206 891.933C149.131 891.848 149.083 891.743 149.067 891.631C149.051 891.519 149.068 891.405 149.115 891.302ZM200.413 741.393L150.287 891.167L220.247 974.48L200.413 741.393Z" fill="white"/>
<path d="M200.188 738.644C200.188 738.545 200.212 738.448 200.26 738.361C200.307 738.275 200.375 738.202 200.459 738.148C200.554 738.093 200.663 738.064 200.774 738.064C200.885 738.064 200.994 738.093 201.09 738.148L270.283 794.291C270.327 794.383 270.35 794.483 270.35 794.584C270.35 794.686 270.327 794.786 270.283 794.877L221.51 976.283C221.551 976.399 221.551 976.526 221.51 976.643C221.408 976.707 221.291 976.741 221.172 976.741C221.052 976.741 220.935 976.707 220.833 976.643C220.833 976.643 220.608 976.373 220.608 976.147L200.368 738.689L200.188 738.644ZM269.111 794.922L201.495 739.906L221.374 972.948L269.111 794.922Z" fill="white"/>
<path d="M83.889 68.4438C83.8592 68.3724 83.844 68.2959 83.844 68.2185C83.844 68.1412 83.8592 68.0646 83.889 67.9932C83.9849 67.9379 84.0938 67.9087 84.2046 67.9087C84.3153 67.9087 84.4242 67.9379 84.5201 67.9932L180.264 122.063C180.339 122.118 180.399 122.189 180.441 122.271C180.483 122.353 180.505 122.444 180.505 122.537C180.505 122.629 180.483 122.72 180.441 122.802C180.399 122.884 180.339 122.955 180.264 123.01L108.907 143.241C108.836 143.269 108.76 143.282 108.684 143.278C108.608 143.275 108.534 143.256 108.466 143.222C108.398 143.188 108.337 143.14 108.289 143.081C108.241 143.022 108.206 142.954 108.186 142.88L83.844 68.3087L83.889 68.4438ZM178.777 122.514L85.4667 69.6604L109.177 142.34L178.777 122.514Z" fill="white"/>
<path d="M83.8888 68.4438L83.8888 68.1735L115.894 8.42593C115.939 8.33578 116.011 8.2616 116.099 8.21329C116.188 8.16498 116.289 8.14485 116.389 8.15558C116.488 8.15524 116.585 8.17984 116.672 8.2271C116.759 8.27437 116.832 8.34276 116.885 8.42593L180.67 122.514C180.762 122.62 180.812 122.756 180.812 122.897C180.812 123.038 180.762 123.174 180.67 123.28C180.578 123.324 180.478 123.347 180.377 123.347C180.275 123.347 180.175 123.324 180.084 123.28L84.1592 68.9395C84.076 68.8863 84.0076 68.813 83.9603 68.7264C83.913 68.6397 83.8884 68.5426 83.8888 68.4438ZM116.435 9.86781L85.1961 68.4438L178.776 121.297L116.435 9.86781Z" fill="white"/>
<path d="M27.9028 337.353L27.9028 337.128L108.275 142.79C108.315 142.702 108.378 142.627 108.458 142.571C108.537 142.516 108.63 142.482 108.726 142.475C108.834 142.454 108.945 142.469 109.043 142.518C109.14 142.567 109.219 142.647 109.267 142.745L172.646 252.823C172.738 252.93 172.788 253.066 172.788 253.206C172.788 253.347 172.738 253.483 172.646 253.589L28.7593 337.939C28.6705 338.012 28.5589 338.052 28.4437 338.052C28.3286 338.052 28.217 338.012 28.1282 337.939C28.0343 337.877 27.9622 337.787 27.9218 337.682C27.8814 337.577 27.8747 337.462 27.9028 337.353ZM108.861 144.187L29.6156 335.866L171.384 252.868L108.861 144.187Z" fill="white"/>
<path d="M108.005 143.016C108.027 142.929 108.072 142.849 108.136 142.786C108.199 142.722 108.279 142.677 108.366 142.655L180.129 122.244C180.207 122.21 180.291 122.193 180.377 122.193C180.462 122.193 180.546 122.21 180.624 122.244C180.658 122.322 180.675 122.406 180.675 122.492C180.675 122.577 180.658 122.661 180.624 122.739L172.556 253.049C172.535 253.165 172.481 253.273 172.401 253.361C172.322 253.449 172.219 253.512 172.105 253.544C171.985 253.571 171.859 253.56 171.746 253.511C171.632 253.463 171.537 253.379 171.474 253.274L108.276 143.286L108.005 143.016ZM179.407 123.55L109.403 143.376L171.474 251.201L179.407 123.55Z" fill="white"/>
<path d="M27.9028 337.353C27.8545 337.222 27.8545 337.078 27.9028 336.947C28.0479 336.892 28.2083 336.892 28.3535 336.947L145.194 351.456C145.243 351.432 145.297 351.42 145.352 351.42C145.406 351.42 145.46 351.432 145.509 351.456C145.62 351.536 145.701 351.649 145.742 351.779C145.783 351.909 145.78 352.049 145.735 352.177L40.2539 466.986C40.1689 467.049 40.0663 467.082 39.9609 467.082C39.8555 467.082 39.7529 467.049 39.6679 466.986C39.5656 466.955 39.4738 466.897 39.4023 466.818C39.3308 466.738 39.2823 466.641 39.2622 466.536L28.038 337.038L27.9028 337.353ZM144.067 352.448L29.0747 337.939L40.1638 465.454L144.067 352.448Z" fill="white"/>
<path d="M27.9027 337.353C27.9062 337.255 27.9324 337.159 27.9793 337.073C28.0263 336.987 28.0927 336.913 28.1732 336.857L171.88 252.598C171.975 252.543 172.084 252.513 172.195 252.513C172.306 252.513 172.415 252.543 172.511 252.598C172.567 252.685 172.597 252.787 172.597 252.891C172.597 252.995 172.567 253.096 172.511 253.184L145.464 352.312C145.421 352.436 145.342 352.545 145.238 352.625C145.134 352.705 145.009 352.753 144.878 352.763L28.3985 337.939C28.2855 337.909 28.1814 337.853 28.095 337.775C28.0086 337.696 27.9427 337.598 27.9027 337.488L27.9027 337.353ZM171.113 254.265L30.0663 336.993L144.788 351.456L171.113 254.265Z" fill="white"/>
<path d="M39.127 466.806C39.1368 466.701 39.1748 466.601 39.2368 466.516C39.2989 466.43 39.3827 466.363 39.4796 466.322C39.5766 466.28 39.683 466.266 39.7875 466.28C39.892 466.293 39.9909 466.335 40.0736 466.401L132.211 538.269C132.296 538.379 132.341 538.513 132.341 538.652C132.341 538.79 132.296 538.925 132.211 539.035C132.101 539.119 131.967 539.164 131.828 539.164C131.69 539.164 131.555 539.119 131.445 539.035L67.9764 504.115L39.2623 467.121C39.1811 467.036 39.1331 466.924 39.127 466.806ZM126.036 534.799L43.0036 470.05L68.878 503.349L126.036 534.799Z" fill="white"/>
<path d="M39.1271 466.806C39.0858 466.689 39.0858 466.562 39.1271 466.446L144.788 351.456C144.87 351.378 144.973 351.325 145.084 351.303C145.196 351.282 145.311 351.294 145.416 351.337C145.521 351.379 145.611 351.452 145.676 351.545C145.74 351.638 145.776 351.748 145.78 351.862L132.257 538.539C132.24 538.644 132.198 538.744 132.136 538.83C132.073 538.916 131.991 538.986 131.896 539.035C131.807 539.086 131.706 539.113 131.603 539.113C131.5 539.113 131.399 539.086 131.31 539.035L39.1722 466.941C39.1371 466.824 39.1371 466.698 39.1722 466.581L39.1271 466.806ZM144.518 353.574L40.3892 466.761L131.22 537.593L144.518 353.574Z" fill="white"/>
<path d="M12.4864 720.936L67.8413 503.664C67.8673 503.559 67.9241 503.464 68.0044 503.392C68.0848 503.32 68.185 503.273 68.2921 503.258C68.3766 503.218 68.469 503.198 68.5625 503.198C68.6561 503.198 68.7485 503.218 68.833 503.258L192.3 658.305C192.355 658.374 192.392 658.456 192.409 658.543C192.425 658.63 192.419 658.72 192.393 658.805C192.366 658.889 192.319 658.966 192.255 659.028C192.192 659.09 192.114 659.136 192.029 659.161L13.3429 721.612C13.2594 721.655 13.1666 721.678 13.0724 721.678C12.9783 721.678 12.8855 721.655 12.802 721.612C12.7341 721.592 12.6713 721.558 12.6177 721.512C12.564 721.466 12.5207 721.409 12.4908 721.345C12.4609 721.281 12.4451 721.212 12.4443 721.141C12.4436 721.071 12.4579 721.001 12.4864 720.936ZM68.6526 504.926L13.8387 720.035L190.947 658.395L68.6526 504.926Z" fill="white"/>
<path d="M67.8413 503.799C67.796 503.683 67.796 503.555 67.8413 503.439C67.9372 503.362 68.0565 503.32 68.1794 503.32C68.3023 503.32 68.4215 503.362 68.5174 503.439L131.986 538.359L192.029 658.35C192.083 658.477 192.089 658.62 192.048 658.751C192.007 658.883 191.92 658.996 191.804 659.071C191.704 659.159 191.576 659.208 191.443 659.208C191.31 659.208 191.182 659.159 191.082 659.071L67.6159 504.205C67.6176 504.124 67.639 504.045 67.6783 503.974C67.7175 503.903 67.7735 503.843 67.8413 503.799ZM131.445 539.125L70.591 505.647L189.144 654.114L131.445 539.125Z" fill="white"/>
<path d="M12.4863 720.936C12.4861 720.861 12.5013 720.787 12.5313 720.718C12.5612 720.649 12.6052 720.588 12.6603 720.537C12.7154 720.486 12.7805 720.447 12.8514 720.423C12.9223 720.398 12.9976 720.389 13.0723 720.395L112.918 725.892L200.774 738.013C200.849 738.013 200.923 738.028 200.992 738.058C201.061 738.088 201.122 738.132 201.173 738.187C201.224 738.242 201.263 738.307 201.287 738.378C201.312 738.449 201.321 738.524 201.315 738.599C201.295 738.743 201.225 738.875 201.118 738.974C201.012 739.072 200.874 739.131 200.729 739.14L13.0272 721.522C12.9501 721.53 12.8722 721.52 12.7995 721.493C12.7269 721.466 12.6616 721.422 12.609 721.365C12.5564 721.308 12.5179 721.24 12.4966 721.165C12.4753 721.091 12.4718 721.012 12.4863 720.936ZM175.08 735.535L112.828 726.974L42.1472 723.099L175.08 735.535Z" fill="white"/>
<path d="M12.4863 720.936C12.4797 720.819 12.5112 720.703 12.5763 720.605C12.6413 720.508 12.7364 720.434 12.847 720.395L191.668 658.034C191.744 657.991 191.829 657.968 191.916 657.968C192.003 657.968 192.089 657.991 192.164 658.034C192.302 658.131 192.398 658.276 192.435 658.44L201.45 738.329C201.43 738.472 201.36 738.605 201.253 738.703C201.147 738.802 201.009 738.86 200.864 738.869L13.2076 721.251C13.0761 721.251 12.9499 721.199 12.8569 721.106C12.7639 721.013 12.7117 720.887 12.7117 720.756L12.4863 720.936ZM191.398 659.431L15.5967 720.756L200.053 738.013L191.398 659.431Z" fill="white"/>
<path d="M89.4333 860.617L112.513 726.433C112.542 726.31 112.611 726.199 112.708 726.118C112.806 726.036 112.927 725.989 113.054 725.983C113.183 725.981 113.308 726.025 113.408 726.108C113.507 726.191 113.573 726.306 113.595 726.433L150.423 891.167C150.448 891.269 150.439 891.377 150.399 891.474C150.358 891.571 150.288 891.653 150.197 891.708C150.108 891.759 150.007 891.786 149.904 891.786C149.802 891.786 149.701 891.759 149.611 891.708L89.8841 861.158C89.8189 861.152 89.7555 861.134 89.6975 861.104C89.6394 861.073 89.5879 861.032 89.546 860.982C89.5041 860.931 89.4726 860.873 89.4533 860.811C89.4339 860.748 89.4271 860.682 89.4333 860.617ZM112.964 729.317L90.425 860.302L148.665 890.086L112.964 729.317Z" fill="white"/>
<path d="M112.513 726.568C112.46 726.438 112.46 726.293 112.513 726.163C112.672 726.1 112.849 726.1 113.009 726.163L200.864 738.284C200.949 738.29 201.031 738.318 201.103 738.365C201.174 738.413 201.231 738.478 201.27 738.554C201.302 738.625 201.319 738.701 201.319 738.779C201.319 738.857 201.302 738.934 201.27 739.004L150.197 891.663C150.153 891.769 150.078 891.861 149.981 891.925C149.885 891.989 149.772 892.023 149.656 892.023C149.527 892.025 149.402 891.98 149.303 891.898C149.203 891.815 149.137 891.7 149.115 891.572L112.513 726.658L112.513 726.568ZM199.963 738.959L113.595 727.064L149.656 889.275L199.963 738.959Z" fill="white"/>
<path d="M279.479 387.323C279.479 392.972 284.06 397.551 289.711 397.551C295.363 397.551 299.944 392.972 299.944 387.323C299.944 381.674 295.363 377.095 289.711 377.095C284.06 377.095 279.479 381.674 279.479 387.323Z" fill="#0094FF"/>
<path d="M283.581 387.323C283.581 390.707 286.326 393.451 289.712 393.451C293.097 393.451 295.842 390.707 295.842 387.323C295.842 383.938 293.097 381.195 289.712 381.195C286.326 381.195 283.581 383.938 283.581 387.323Z" fill="#0094FF"/>
<path d="M125.135 8.69628C125.135 6.97632 124.625 5.29498 123.669 3.86488C122.713 2.43478 121.354 1.32016 119.764 0.661954C118.174 0.0037524 116.425 -0.168463 114.738 0.167085C113.05 0.502633 111.5 1.33087 110.283 2.54707C109.066 3.76327 108.238 5.3128 107.902 6.99972C107.566 8.68663 107.739 10.4352 108.397 12.0242C109.056 13.6132 110.171 14.9714 111.601 15.927C113.032 16.8825 114.714 17.3926 116.435 17.3926C118.742 17.3926 120.955 16.4764 122.587 14.8455C124.218 13.2146 125.135 11.0027 125.135 8.69628Z" fill="#0094FF"/>
<path d="M121.528 8.69627C121.528 7.66251 121.222 6.65196 120.647 5.79242C120.072 4.93288 119.256 4.26295 118.3 3.86735C117.345 3.47175 116.294 3.36824 115.279 3.56992C114.265 3.77159 113.333 4.2694 112.602 5.00037C111.87 5.73135 111.373 6.66268 111.171 7.67657C110.969 8.69047 111.073 9.7414 111.468 10.6965C111.864 11.6515 112.534 12.4679 113.394 13.0422C114.254 13.6165 115.265 13.9231 116.299 13.9231C117.686 13.9231 119.016 13.3724 119.997 12.3922C120.977 11.412 121.528 10.0825 121.528 8.69627Z" fill="#0094FF"/>
<path d="M210.06 103.094C210.06 111.157 216.599 117.693 224.665 117.693C232.731 117.693 239.27 111.157 239.27 103.094C239.27 95.0311 232.731 88.4949 224.665 88.4949C216.599 88.4949 210.06 95.0311 210.06 103.094Z" fill="#0094FF"/>
<path d="M215.92 103.094C215.92 107.922 219.835 111.835 224.665 111.835C229.495 111.835 233.41 107.922 233.41 103.094C233.41 98.2661 229.495 94.3525 224.665 94.3525C219.835 94.3525 215.92 98.2661 215.92 103.094Z" fill="#0094FF"/>
<path d="M321.446 272.919C321.446 270.148 320.624 267.439 319.083 265.134C317.543 262.83 315.353 261.033 312.792 259.973C310.23 258.912 307.411 258.635 304.692 259.175C301.973 259.716 299.475 261.051 297.514 263.011C295.553 264.97 294.218 267.467 293.677 270.186C293.136 272.904 293.414 275.721 294.475 278.282C295.536 280.843 297.333 283.031 299.638 284.571C301.944 286.111 304.654 286.933 307.427 286.933C309.27 286.939 311.095 286.58 312.799 285.878C314.502 285.176 316.05 284.144 317.353 282.841C318.656 281.539 319.689 279.992 320.391 278.289C321.094 276.586 321.452 274.761 321.446 272.919Z" fill="#0094FF"/>
<path d="M315.856 272.919C315.856 271.253 315.362 269.624 314.436 268.238C313.51 266.852 312.193 265.773 310.653 265.135C309.113 264.497 307.418 264.33 305.782 264.655C304.147 264.98 302.645 265.783 301.466 266.961C300.288 268.14 299.485 269.641 299.16 271.275C298.834 272.91 299.001 274.604 299.639 276.144C300.277 277.683 301.358 278.999 302.744 279.925C304.13 280.851 305.76 281.345 307.427 281.345C309.663 281.345 311.807 280.457 313.387 278.877C314.968 277.297 315.856 275.154 315.856 272.919Z" fill="#0094FF"/>
<path d="M186.575 253.094C186.575 250.242 185.729 247.454 184.144 245.083C182.559 242.712 180.306 240.864 177.67 239.772C175.034 238.681 172.134 238.396 169.336 238.952C166.538 239.508 163.967 240.882 161.95 242.898C159.933 244.914 158.559 247.484 158.002 250.281C157.446 253.078 157.731 255.977 158.823 258.611C159.915 261.246 161.764 263.498 164.136 265.082C166.508 266.667 169.297 267.512 172.15 267.512C175.976 267.512 179.645 265.993 182.35 263.289C185.055 260.585 186.575 256.918 186.575 253.094Z" fill="#0094FF"/>
<path d="M180.805 253.094C180.805 251.383 180.297 249.71 179.346 248.287C178.395 246.865 177.044 245.756 175.462 245.101C173.881 244.446 172.141 244.275 170.462 244.609C168.783 244.942 167.241 245.766 166.03 246.976C164.82 248.186 163.996 249.728 163.662 251.406C163.328 253.084 163.499 254.823 164.154 256.404C164.809 257.985 165.918 259.336 167.342 260.287C168.765 261.237 170.438 261.745 172.15 261.745C174.446 261.745 176.647 260.833 178.27 259.211C179.893 257.589 180.805 255.388 180.805 253.094Z" fill="#0094FF"/>
<path d="M297.87 564.853C297.87 562.18 297.077 559.566 295.591 557.343C294.105 555.12 291.993 553.388 289.522 552.365C287.051 551.342 284.332 551.074 281.709 551.595C279.086 552.117 276.676 553.404 274.785 555.295C272.894 557.185 271.606 559.594 271.084 562.216C270.562 564.838 270.83 567.556 271.854 570.026C272.877 572.496 274.61 574.607 276.834 576.093C279.058 577.578 281.673 578.371 284.347 578.371C287.934 578.371 291.374 576.947 293.91 574.412C296.446 571.877 297.87 568.438 297.87 564.853Z" fill="#0094FF"/>
<path d="M292.506 564.853C292.506 563.267 292.035 561.716 291.154 560.398C290.272 559.079 289.019 558.051 287.553 557.444C286.087 556.836 284.473 556.678 282.917 556.987C281.361 557.297 279.931 558.06 278.809 559.182C277.687 560.304 276.922 561.733 276.613 563.289C276.303 564.845 276.462 566.457 277.069 567.923C277.677 569.388 278.705 570.641 280.025 571.522C281.344 572.403 282.895 572.874 284.482 572.874C286.61 572.874 288.651 572.029 290.156 570.525C291.661 569.021 292.506 566.981 292.506 564.853Z" fill="#0094FF"/>
<path d="M287.142 685.7C287.097 684.127 286.588 682.603 285.679 681.319C284.769 680.035 283.5 679.048 282.031 678.483C280.562 677.918 278.959 677.8 277.423 678.144C275.887 678.488 274.487 679.278 273.399 680.415C272.312 681.553 271.585 682.986 271.31 684.535C271.035 686.084 271.225 687.68 271.856 689.122C272.487 690.563 273.53 691.786 274.854 692.637C276.178 693.487 277.725 693.927 279.298 693.901C280.356 693.889 281.4 693.667 282.37 693.246C283.341 692.826 284.217 692.215 284.947 691.451C285.678 690.687 286.249 689.785 286.626 688.797C287.002 687.81 287.178 686.757 287.142 685.7Z" fill="#0094FF"/>
<path d="M283.806 685.7C283.806 684.755 283.526 683.832 283.001 683.047C282.476 682.261 281.73 681.649 280.857 681.288C279.984 680.926 279.023 680.831 278.096 681.016C277.169 681.2 276.318 681.655 275.649 682.323C274.981 682.991 274.526 683.842 274.342 684.768C274.157 685.695 274.252 686.655 274.614 687.528C274.975 688.401 275.588 689.147 276.374 689.671C277.159 690.196 278.083 690.476 279.028 690.476C279.657 690.482 280.281 690.363 280.864 690.125C281.446 689.887 281.975 689.536 282.42 689.091C282.865 688.646 283.217 688.117 283.455 687.535C283.693 686.953 283.812 686.329 283.806 685.7Z" fill="#0094FF"/>
<path d="M209.384 738.644C209.384 736.933 208.876 735.26 207.925 733.838C206.974 732.415 205.622 731.306 204.041 730.651C202.46 729.997 200.719 729.825 199.041 730.159C197.362 730.493 195.819 731.317 194.609 732.527C193.399 733.737 192.574 735.278 192.24 736.956C191.907 738.634 192.078 740.374 192.733 741.955C193.388 743.535 194.497 744.887 195.921 745.837C197.344 746.788 199.017 747.295 200.729 747.295C201.866 747.295 202.991 747.071 204.041 746.637C205.091 746.202 206.045 745.565 206.849 744.761C207.652 743.958 208.29 743.004 208.725 741.955C209.16 740.905 209.384 739.78 209.384 738.644Z" fill="#0094FF"/>
<path d="M205.913 738.644C205.913 737.619 205.609 736.617 205.039 735.765C204.469 734.913 203.66 734.249 202.712 733.857C201.765 733.465 200.723 733.362 199.717 733.562C198.712 733.762 197.788 734.255 197.063 734.98C196.338 735.705 195.845 736.628 195.645 737.633C195.444 738.638 195.547 739.68 195.939 740.627C196.332 741.574 196.996 742.383 197.849 742.952C198.701 743.522 199.703 743.826 200.729 743.826C201.411 743.832 202.088 743.702 202.72 743.443C203.351 743.185 203.925 742.804 204.408 742.321C204.89 741.839 205.272 741.265 205.53 740.634C205.789 740.003 205.919 739.326 205.913 738.644Z" fill="#0094FF"/>
<path d="M279.298 794.697C279.298 792.814 278.739 790.975 277.692 789.41C276.645 787.846 275.157 786.627 273.416 785.909C271.676 785.191 269.761 785.005 267.915 785.376C266.069 785.746 264.374 786.656 263.046 787.99C261.717 789.324 260.815 791.023 260.453 792.87C260.091 794.717 260.286 796.63 261.013 798.366C261.74 800.103 262.966 801.585 264.536 802.624C266.106 803.663 267.949 804.213 269.832 804.204C271.079 804.204 272.314 803.958 273.465 803.48C274.617 803.001 275.662 802.3 276.542 801.417C277.421 800.533 278.118 799.485 278.591 798.332C279.064 797.178 279.304 795.943 279.298 794.697Z" fill="#0094FF"/>
<path d="M275.422 794.697C275.422 793.563 275.085 792.455 274.454 791.513C273.823 790.571 272.926 789.838 271.877 789.406C270.829 788.974 269.675 788.863 268.564 789.088C267.452 789.312 266.432 789.862 265.633 790.667C264.834 791.471 264.293 792.495 264.077 793.608C263.861 794.721 263.981 795.873 264.421 796.918C264.861 797.963 265.602 798.853 266.55 799.477C267.497 800.1 268.608 800.428 269.742 800.419C270.492 800.419 271.234 800.271 271.926 799.983C272.618 799.695 273.246 799.272 273.774 798.74C274.302 798.208 274.72 797.577 275.003 796.883C275.285 796.189 275.428 795.446 275.422 794.697Z" fill="#0094FF"/>
<path d="M122.791 143.016C122.791 140.244 121.968 137.535 120.428 135.23C118.887 132.926 116.698 131.13 114.136 130.069C111.575 129.009 108.756 128.731 106.037 129.272C103.317 129.812 100.819 131.147 98.8585 133.107C96.8979 135.067 95.5628 137.564 95.0218 140.282C94.4809 143 94.7585 145.818 95.8196 148.378C96.8806 150.939 98.6775 153.127 100.983 154.667C103.288 156.207 105.999 157.029 108.772 157.029C110.614 157.035 112.44 156.676 114.143 155.974C115.847 155.272 117.395 154.24 118.698 152.938C120.001 151.635 121.033 150.088 121.736 148.385C122.438 146.682 122.797 144.858 122.791 143.016Z" fill="#0094FF"/>
<path d="M117.021 143.016C117.021 141.358 116.529 139.738 115.608 138.36C114.686 136.981 113.377 135.907 111.845 135.273C110.313 134.638 108.627 134.472 107.001 134.796C105.374 135.119 103.88 135.917 102.708 137.09C101.535 138.262 100.736 139.755 100.413 141.381C100.089 143.006 100.255 144.692 100.89 146.223C101.525 147.754 102.599 149.063 103.978 149.984C105.357 150.905 106.978 151.397 108.636 151.397C110.86 151.397 112.993 150.514 114.565 148.942C116.137 147.37 117.021 145.238 117.021 143.016Z" fill="#0094FF"/>
<path d="M90.6954 68.4439C90.6954 67.2051 90.328 65.9942 89.6395 64.9643C88.951 63.9343 87.9724 63.1315 86.8275 62.6575C85.6826 62.1834 84.4227 62.0594 83.2072 62.3011C81.9918 62.5427 80.8754 63.1392 79.9991 64.0152C79.1228 64.8911 78.5261 66.0071 78.2843 67.222C78.0426 68.4369 78.1667 69.6962 78.6409 70.8407C79.1151 71.9851 79.9183 72.9633 80.9487 73.6515C81.9791 74.3397 83.1904 74.707 84.4296 74.707C86.0914 74.707 87.6851 74.0471 88.8602 72.8726C90.0352 71.698 90.6954 70.105 90.6954 68.4439Z" fill="#0094FF"/>
<path d="M88.2162 68.4438C88.2043 67.4478 87.8003 66.4967 87.0915 65.7966C86.3826 65.0965 85.4262 64.7039 84.4297 64.704C83.4374 64.704 82.4858 65.098 81.7842 65.7994C81.0825 66.5007 80.6884 67.452 80.6884 68.4438C80.6884 69.4357 81.0825 70.387 81.7842 71.0883C82.4858 71.7897 83.4374 72.1837 84.4297 72.1837C85.4262 72.1838 86.3826 71.7912 87.0915 71.0911C87.8003 70.391 88.2043 69.4398 88.2162 68.4438Z" fill="#0094FF"/>
<path d="M194.779 122.784C194.779 119.91 193.927 117.1 192.331 114.708C190.735 112.317 188.466 110.451 185.811 109.347C183.156 108.243 180.233 107.95 177.411 108.504C174.589 109.058 171.995 110.435 169.955 112.462C167.915 114.488 166.522 117.073 165.95 119.89C165.378 122.707 165.653 125.631 166.742 128.292C167.83 130.953 169.682 133.232 172.064 134.842C174.447 136.452 177.253 137.321 180.129 137.338C182.048 137.35 183.951 136.983 185.728 136.256C187.505 135.53 189.121 134.46 190.482 133.108C191.844 131.755 192.924 130.147 193.662 128.375C194.399 126.603 194.779 124.703 194.779 122.784Z" fill="#0094FF"/>
<path d="M171.474 122.784C171.474 127.612 175.389 131.526 180.219 131.526C185.049 131.526 188.964 127.612 188.964 122.784C188.964 117.957 185.049 114.043 180.219 114.043C175.389 114.043 171.474 117.957 171.474 122.784Z" fill="#0094FF"/>
<path d="M131.265 351.997C131.265 359.687 137.501 365.92 145.194 365.92C152.887 365.92 159.123 359.687 159.123 351.997C159.123 344.308 152.887 338.074 145.194 338.074C137.501 338.074 131.265 344.308 131.265 351.997Z" fill="#0094FF"/>
<path d="M136.854 351.997C136.854 356.601 140.588 360.333 145.194 360.333C149.8 360.333 153.533 356.601 153.533 351.997C153.533 347.393 149.8 343.661 145.194 343.661C140.588 343.661 136.854 347.393 136.854 351.997Z" fill="#0094FF"/>
<path d="M19.4286 337.353C19.4286 342.355 23.485 346.41 28.489 346.41C33.493 346.41 37.5496 342.355 37.5496 337.353C37.5496 332.351 33.493 328.296 28.489 328.296C23.485 328.296 19.4286 332.351 19.4286 337.353Z" fill="#0094FF"/>
<path d="M33.898 337.353C33.9069 336.271 33.5935 335.211 32.9977 334.307C32.4018 333.404 31.5504 332.698 30.5519 332.28C29.5534 331.861 28.453 331.75 27.3908 331.959C26.3286 332.168 25.3527 332.688 24.5872 333.453C23.8216 334.218 23.3013 335.194 23.0922 336.255C22.8832 337.317 22.9951 338.417 23.4135 339.415C23.8319 340.413 24.5379 341.264 25.4417 341.86C26.3455 342.456 27.4062 342.769 28.4887 342.76C29.9197 342.748 31.2887 342.175 32.3006 341.163C33.3125 340.152 33.8862 338.783 33.898 337.353Z" fill="#0094FF"/>
<path d="M142.309 538.719C142.309 536.652 141.696 534.631 140.546 532.912C139.397 531.193 137.764 529.853 135.853 529.062C133.942 528.27 131.839 528.063 129.811 528.467C127.782 528.87 125.919 529.866 124.456 531.328C122.993 532.79 121.998 534.652 121.594 536.68C121.19 538.708 121.398 540.81 122.189 542.72C122.981 544.63 124.321 546.263 126.041 547.411C127.761 548.56 129.783 549.173 131.851 549.173C134.625 549.173 137.285 548.072 139.246 546.111C141.207 544.151 142.309 541.492 142.309 538.719Z" fill="#0094FF"/>
<path d="M138.117 538.719C138.117 537.481 137.749 536.27 137.061 535.24C136.372 534.21 135.394 533.407 134.249 532.933C133.104 532.459 131.844 532.335 130.629 532.577C129.413 532.818 128.297 533.415 127.42 534.291C126.544 535.167 125.947 536.283 125.706 537.498C125.464 538.712 125.588 539.972 126.062 541.116C126.536 542.261 127.34 543.239 128.37 543.927C129.4 544.615 130.612 544.983 131.851 544.983C133.509 544.971 135.096 544.307 136.268 543.135C137.441 541.963 138.105 540.377 138.117 538.719Z" fill="#0094FF"/>
<path d="M77.7584 503.799C77.7584 501.945 77.2084 500.133 76.1782 498.592C75.148 497.051 73.6836 495.85 71.9704 495.14C70.2572 494.431 68.3719 494.245 66.5531 494.607C64.7344 494.969 63.0638 495.861 61.7526 497.172C60.4413 498.483 59.5482 500.153 59.1865 501.971C58.8247 503.789 59.0104 505.673 59.7201 507.386C60.4297 509.098 61.6315 510.562 63.1733 511.592C64.7152 512.622 66.5279 513.171 68.3823 513.171C70.869 513.171 73.2539 512.184 75.0122 510.426C76.7705 508.669 77.7584 506.285 77.7584 503.799Z" fill="#0094FF"/>
<path d="M62.7474 503.799C62.7474 506.91 65.2702 509.431 68.3821 509.431C71.494 509.431 74.0167 506.91 74.0167 503.799C74.0167 500.688 71.494 498.167 68.3821 498.167C65.2702 498.167 62.7474 500.688 62.7474 503.799Z" fill="#0094FF"/>
<path d="M45.3929 466.806C45.3929 465.683 45.0599 464.586 44.4358 463.652C43.8117 462.718 42.9247 461.991 41.8868 461.561C40.849 461.131 39.707 461.019 38.6052 461.238C37.5034 461.457 36.4914 461.998 35.6971 462.792C34.9027 463.586 34.3617 464.597 34.1426 465.698C33.9234 466.8 34.036 467.941 34.4658 468.979C34.8957 470.016 35.6238 470.903 36.5578 471.527C37.4918 472.15 38.5899 472.483 39.7133 472.483C41.2196 472.483 42.6643 471.885 43.7295 470.821C44.7947 469.756 45.3929 468.312 45.3929 466.806Z" fill="#0094FF"/>
<path d="M43.0938 466.806C43.0938 465.91 42.7377 465.05 42.1037 464.416C41.4697 463.783 40.6098 463.427 39.7132 463.427C39.0318 463.418 38.3633 463.612 37.7931 463.985C37.2229 464.358 36.7768 464.892 36.512 465.52C36.2471 466.147 36.1755 466.839 36.3062 467.508C36.4369 468.176 36.7642 468.791 37.246 469.272C37.7278 469.754 38.3423 470.081 39.011 470.212C39.6797 470.342 40.3722 470.271 41 470.006C41.6278 469.741 42.1624 469.295 42.5353 468.725C42.9083 468.155 43.1027 467.487 43.0938 466.806Z" fill="#0094FF"/>
<path d="M207.175 658.665C207.175 655.635 206.276 652.673 204.592 650.154C202.908 647.635 200.514 645.671 197.714 644.511C194.913 643.352 191.832 643.049 188.859 643.64C185.886 644.231 183.155 645.69 181.011 647.832C178.868 649.975 177.408 652.705 176.817 655.676C176.226 658.648 176.529 661.729 177.689 664.528C178.849 667.327 180.814 669.72 183.334 671.403C185.854 673.087 188.818 673.985 191.849 673.985C195.914 673.985 199.812 672.371 202.686 669.498C205.56 666.625 207.175 662.728 207.175 658.665Z" fill="#0094FF"/>
<path d="M182.653 658.665C182.653 663.742 186.77 667.857 191.849 667.857C196.927 667.857 201.044 663.742 201.044 658.665C201.044 653.589 196.927 649.473 191.849 649.473C186.77 649.473 182.653 653.589 182.653 658.665Z" fill="#0094FF"/>
<path d="M19.338 720.936C19.347 719.686 18.9845 718.462 18.2965 717.419C17.6086 716.376 16.6261 715.56 15.4737 715.076C14.3214 714.592 13.0511 714.46 11.824 714.698C10.5969 714.937 9.46819 715.534 8.58109 716.414C7.694 717.295 7.0885 718.419 6.84133 719.644C6.59415 720.869 6.71651 722.139 7.1928 723.294C7.66909 724.45 8.47791 725.438 9.51667 726.133C10.5554 726.828 11.7772 727.199 13.0273 727.199C14.6932 727.199 16.2917 726.541 17.4739 725.367C18.6561 724.194 19.3261 722.601 19.338 720.936Z" fill="#0094FF"/>
<path d="M16.814 720.936C16.814 719.932 16.4151 718.97 15.705 718.26C14.9949 717.55 14.0318 717.151 13.0276 717.151C12.0234 717.151 11.0603 717.55 10.3502 718.26C9.64009 718.97 9.24115 719.932 9.24115 720.936C9.24115 721.94 9.64009 722.902 10.3502 723.612C11.0603 724.322 12.0234 724.721 13.0276 724.721C14.0318 724.721 14.9949 724.322 15.705 723.612C16.4151 722.902 16.814 721.94 16.814 720.936Z" fill="#0094FF"/>
<path d="M106.518 726.568C106.518 730.077 109.363 732.922 112.873 732.922C116.384 732.922 119.229 730.077 119.229 726.568C119.229 723.06 116.384 720.215 112.873 720.215C109.363 720.215 106.518 723.06 106.518 726.568Z" fill="#0094FF"/>
<path d="M116.705 726.568C116.714 725.809 116.497 725.064 116.081 724.428C115.666 723.793 115.071 723.295 114.371 722.998C113.672 722.701 112.9 722.619 112.154 722.761C111.408 722.904 110.721 723.265 110.181 723.799C109.64 724.333 109.271 725.015 109.119 725.759C108.968 726.503 109.041 727.276 109.33 727.978C109.618 728.681 110.109 729.282 110.74 729.704C111.371 730.127 112.114 730.353 112.874 730.353C113.882 730.353 114.85 729.956 115.567 729.247C116.284 728.539 116.693 727.576 116.705 726.568Z" fill="#0094FF"/>
</svg>
