<svg width="84" height="87" viewBox="0 0 84 87" fill="none" xmlns="http://www.w3.org/2000/svg">
<path d="M72.1449 0.00153888C71.3506 -0.0164098 70.5856 0.122693 69.8474 0.416603C69.1115 0.710513 68.4587 1.1368 67.8955 1.69545L60.8798 8.70442L69.2978 17.257L76.2619 10.331C76.8183 9.77013 77.2468 9.12397 77.5474 8.39256C77.8481 7.66115 77.9984 6.90058 78.0006 6.11083C78.0006 5.30987 77.8526 4.54032 77.5542 3.79769C77.2558 3.05731 76.8295 2.39769 76.2731 1.82333L76.2305 1.78071C75.692 1.22654 75.0705 0.795769 74.3638 0.488398C73.6548 0.178782 72.9167 0.0172442 72.1449 0.00153888ZM60.8708 14.3515L60.8439 14.3785L57.3058 17.9144L48.8833 14.9842C48.6926 14.9169 48.4952 14.8788 48.2933 14.8721C48.0869 14.8653 47.8827 14.89 47.683 14.9461C47.4833 15.0022 47.2994 15.0874 47.1266 15.2019C46.9516 15.3163 46.8013 15.4531 46.6712 15.6147C46.541 15.7762 46.4378 15.9535 46.3638 16.1464L38.1365 37.3147C37.993 37.6826 37.9615 38.0618 38.0401 38.4499C38.1208 38.8381 38.3003 39.1724 38.5785 39.4528C38.8567 39.7355 39.1888 39.9172 39.5769 40.0003C39.9628 40.0855 40.342 40.0563 40.7099 39.915L61.6987 31.9278C61.9388 31.8381 62.1519 31.7057 62.3426 31.5329C62.5311 31.3579 62.6814 31.156 62.7913 30.9249C62.9035 30.6938 62.9663 30.4515 62.9843 30.1958C63.0022 29.94 62.9731 29.6887 62.8946 29.4442L60.1215 20.7547L63.6551 17.2301L63.6708 17.2144L60.8708 14.3515ZM29.999 48.0547C29.7343 48.0547 29.4808 48.1063 29.234 48.2073C28.9894 48.3083 28.774 48.4541 28.5856 48.6403C28.3994 48.8288 28.2535 49.0464 28.1526 49.291C28.0516 49.5355 28 49.7913 28 50.0583V58.0679H56V50.0583C56 49.7913 55.9484 49.5355 55.8474 49.291C55.7465 49.0464 55.6006 48.8288 55.4144 48.6403C55.226 48.4541 55.0106 48.3083 54.766 48.2073C54.5192 48.1063 54.2657 48.0547 54.001 48.0547H29.999ZM15.999 62.0727C15.7343 62.0727 15.4808 62.1243 15.234 62.2253C14.9894 62.3262 14.774 62.472 14.5856 62.6583C14.3994 62.8467 14.2535 63.0644 14.1526 63.3089C14.0516 63.5535 14 63.8092 14 64.0762V72.0858H40.001V62.0727H15.999ZM43.999 62.0727V72.0858H70V64.0762C70 63.8092 69.9484 63.5535 69.8474 63.3089C69.7465 63.0644 69.6006 62.8467 69.4144 62.6583C69.226 62.472 69.0106 62.3262 68.766 62.2253C68.5192 62.1243 68.2657 62.0727 68.001 62.0727H43.999ZM1.99904 76.0906C1.73429 76.0906 1.48077 76.1422 1.23397 76.2432C0.989423 76.3442 0.774038 76.49 0.585577 76.6762C0.399359 76.8647 0.253526 77.0823 0.152564 77.3269C0.0516027 77.5714 0 77.8272 0 78.0942V84.1003C0 84.3672 0.0516027 84.623 0.152564 84.8676C0.253526 85.1121 0.399359 85.3297 0.585577 85.516C0.774038 85.7044 0.989423 85.8503 1.23397 85.9512C1.48077 86.0522 1.73429 86.1038 1.99904 86.1038H26.001V76.0906H1.99904ZM29.999 76.0906V86.1038H54.001V76.0906H29.999ZM57.999 76.0906V86.1038H82.001C82.2657 86.1038 82.5192 86.0522 82.766 85.9512C83.0106 85.8503 83.226 85.7044 83.4144 85.516C83.6006 85.3297 83.7465 85.1121 83.8474 84.8676C83.9484 84.623 84 84.3672 84 84.1003V78.0942C84 77.8272 83.9484 77.5714 83.8474 77.3269C83.7465 77.0823 83.6006 76.8647 83.4144 76.6762C83.226 76.49 83.0106 76.3442 82.766 76.2432C82.5192 76.1422 82.2657 76.0906 82.001 76.0906H57.999Z" fill="#554DDE"/>
</svg>
