<svg width="70" height="70" viewBox="0 0 70 70" fill="none" xmlns="http://www.w3.org/2000/svg">
<path d="M11.8055 8.78498C18.1989 3.1128 26.4531 -0.0134852 35 -1.77044e-05C54.3305 -1.77044e-05 70 15.6695 70 35C70.0114 42.1536 67.8203 49.1374 63.7245 55.0025L54.25 35H63C63.0001 29.4327 61.3406 23.9918 58.2334 19.3723C55.1263 14.7528 50.7125 11.1644 45.5561 9.06553C40.3996 6.96666 34.7345 6.4526 29.2845 7.58901C23.8345 8.72542 18.8469 11.4607 14.959 15.4455L11.809 8.78848L11.8055 8.78498ZM58.1945 61.215C51.8011 66.8872 43.5469 70.0134 35 70C15.6695 70 0 54.3305 0 35C0 27.5625 2.3205 20.6675 6.2755 14.9975L15.75 35H7C6.9999 40.5672 8.65942 46.0081 11.7666 50.6277C14.8737 55.2472 19.2875 58.8356 24.4439 60.9344C29.6004 63.0333 35.2655 63.5474 40.7155 62.4109C46.1655 61.2745 51.1531 58.5392 55.041 54.5545L58.191 61.2115L58.1945 61.215ZM39.949 44.898L30.051 35L20.1495 44.898L15.2005 39.949L30.051 25.102L39.949 35L49.8505 25.102L54.7995 30.051L39.949 44.898Z" fill="#554DDE"/>
</svg>
