<?xml version="1.0" encoding="UTF-8"?><svg xmlns="http://www.w3.org/2000/svg" xmlns:xlink="http://www.w3.org/1999/xlink" version="1.1" id="Layer_1" x="0px" y="0px" viewBox="0 0 24 24" xml:space="preserve"><path fill="#2D98D4" d="M21 3H5c-1.103 0-2 .897-2 2v16c0 1.103.897 2 2 2h16c1.103 0 2-.897 2-2V5c0-1.103-.897-2-2-2z"/><path opacity="0.2" fill="#FFF" d="M21 3H5c-1.103 0-2 .897-2 2v.25c0-1.103.897-2 2-2h16c1.103 0 2 .897 2 2V5c0-1.103-.897-2-2-2z"/><path fill="#E6E6E5" d="M23 18l-6.5-6.5L5 23h16c1.103 0 2-.897 2-2v-3z"/><path fill="#F3F3F3" d="M16.5 23l-8-8L3 20.5v.5c0 1.103.897 2 2 2h11.5z"/><path opacity="0.1" fill="#010101" d="M21 22.75H5c-1.103 0-2-.897-2-2V21c0 1.103.897 2 2 2h16c1.103 0 2-.897 2-2v-.25c0 1.103-.897 2-2 2z"/><circle fill="#FFCF51" cx="10.5" cy="9.5" r="2.5"/><path opacity="0.2" fill="#FFF" d="M10.5 7.25a2.62 2.62 0 0 1 2.394 1.53C12.588 7.744 11.632 7 10.5 7s-2.087.744-2.394 1.778A2.62 2.62 0 0 1 10.5 7.25z"/><path opacity="0.1" fill="#010101" d="M10.5 11.75a2.62 2.62 0 0 1-2.394-1.53C8.412 11.256 9.368 12 10.5 12s2.087-.744 2.394-1.778A2.62 2.62 0 0 1 10.5 11.75z"/><linearGradient id="SVGID_1_" gradientUnits="userSpaceOnUse" x1="10.7120895" y1="9.7120895" x2="13.8911467" y2="12.8911467"><stop offset="0" stop-color="#3E2823" stop-opacity="0.2"/><stop offset="1" stop-color="#3E2823" stop-opacity="0"/></linearGradient><path fill="url(#SVGID_1_)" d="M16.283 11.748l-4.015-4.016-.001.001C12.72 8.186 13 8.811 13 9.5c0 1.379-1.121 2.5-2.5 2.5-.69 0-1.314-.28-1.767-.733l4.015 4.016 3.535-3.535z"/><path opacity="0.1" fill="#010101" d="M21 3H5c-1.103 0-2 .897-2 2v16c0 1.103.897 2 2 2h16c1.103 0 2-.897 2-2V5c0-1.103-.897-2-2-2z"/><path fill="#2D98D4" d="M19 1H3c-1.103 0-2 .897-2 2v16c0 1.103.897 2 2 2h16c1.103 0 2-.897 2-2V3c0-1.103-.897-2-2-2z"/><path opacity="0.2" fill="#FFF" d="M19 1H3c-1.103 0-2 .897-2 2v.25c0-1.103.897-2 2-2h16c1.103 0 2 .897 2 2V3c0-1.103-.897-2-2-2z"/><path fill="#E6E6E5" d="M21 16l-6.5-6.5L3 21h16c1.103 0 2-.897 2-2v-3z"/><path fill="#F3F3F3" d="M14.5 21l-8-8L1 18.5v.5c0 1.103.897 2 2 2h11.5z"/><path opacity="0.1" fill="#010101" d="M19 20.75H3c-1.103 0-2-.897-2-2V19c0 1.103.897 2 2 2h16c1.103 0 2-.897 2-2v-.25c0 1.103-.897 2-2 2z"/><circle fill="#FFCF51" cx="8.5" cy="7.5" r="2.5"/><path opacity="0.2" fill="#FFF" d="M8.5 5.25a2.62 2.62 0 0 1 2.394 1.53C10.588 5.744 9.632 5 8.5 5s-2.087.744-2.394 1.778A2.62 2.62 0 0 1 8.5 5.25z"/><path opacity="0.1" fill="#010101" d="M8.5 9.75a2.62 2.62 0 0 1-2.394-1.53C6.412 9.256 7.368 10 8.5 10s2.087-.744 2.394-1.778A2.62 2.62 0 0 1 8.5 9.75z"/><linearGradient id="SVGID_2_" gradientUnits="userSpaceOnUse" x1="8.7120895" y1="7.7120891" x2="11.8911467" y2="10.8911467"><stop offset="0" stop-color="#3E2823" stop-opacity="0.2"/><stop offset="1" stop-color="#3E2823" stop-opacity="0"/></linearGradient><path fill="url(#SVGID_2_)" d="M14.283 9.748l-4.015-4.016-.001.001C10.72 6.186 11 6.811 11 7.5 11 8.879 9.879 10 8.5 10c-.69 0-1.314-.28-1.767-.733l4.015 4.016 3.535-3.535z"/><linearGradient id="SVGID_3_" gradientUnits="userSpaceOnUse" x1="-0.6523309" y1="6.100121" x2="24.6523304" y2="17.8998795"><stop offset="0" stop-color="#FFF" stop-opacity="0.2"/><stop offset="1" stop-color="#FFF" stop-opacity="0"/></linearGradient><path fill="url(#SVGID_3_)" d="M21 3c0-1.103-.897-2-2-2H3c-1.103 0-2 .897-2 2v16c0 1.103.897 2 2 2 0 1.103.897 2 2 2h16c1.103 0 2-.897 2-2V5c0-1.103-.897-2-2-2z"/><metadata><rdf:RDF xmlns:rdf="http://www.w3.org/1999/02/22-rdf-syntax-ns#" xmlns:rdfs="http://www.w3.org/2000/01/rdf-schema#" xmlns:dc="http://purl.org/dc/elements/1.1/"><rdf:Description about="https://iconscout.com/legal#licenses" dc:title="photo,photography,image,picture,images,stack" dc:description="photo,photography,image,picture,images,stack" dc:publisher="Iconscout" dc:date="2017-10-30" dc:format="image/svg+xml" dc:language="en"><dc:creator><rdf:Bag><rdf:li>Those Icons</rdf:li></rdf:Bag></dc:creator></rdf:Description></rdf:RDF></metadata></svg>