<svg width="32" height="32" viewBox="0 0 32 32" fill="none" xmlns="http://www.w3.org/2000/svg">
<path d="M16.8001 15C17.7549 15 18.6705 15.3793 19.3457 16.0544C20.0208 16.7296 20.4001 17.6452 20.4001 18.6V21.3C20.4001 24.9972 16.6417 27.6 10.5001 27.6C4.3585 27.6 0.600098 24.9972 0.600098 21.3V18.6C0.600098 17.6452 0.979382 16.7296 1.65451 16.0544C2.32964 15.3793 3.24532 15 4.2001 15H16.8001ZM4.2001 16.8C3.72271 16.8 3.26487 16.9896 2.92731 17.3272C2.58974 17.6648 2.4001 18.1226 2.4001 18.6V21.3C2.4001 23.8326 5.2423 25.8 10.5001 25.8C15.7579 25.8 18.6001 23.8326 18.6001 21.3V18.6C18.6001 18.1226 18.4105 17.6648 18.0729 17.3272C17.7353 16.9896 17.2775 16.8 16.8001 16.8H4.2001Z" fill="#407BFF"/>
<path d="M24.2916 23.712L24.1548 23.667C24.235 23.6456 24.3149 23.6228 24.3942 23.5986C24.3606 23.6369 24.3264 23.6747 24.2916 23.712Z" fill="#407BFF"/>
<path d="M23.8274 16.6164L23.7608 16.7982H21.8924C21.6568 16.1342 21.2936 15.5227 20.8232 14.9982H24.5132L23.8274 16.6182V16.6164Z" fill="#407BFF"/>
<path d="M10.5001 0.600006C11.3274 0.600006 12.1467 0.76296 12.911 1.07956C13.6754 1.39617 14.3699 1.86022 14.9549 2.44523C15.5399 3.03024 16.0039 3.72475 16.3205 4.4891C16.6371 5.25345 16.8001 6.07268 16.8001 6.90001C16.8001 7.72733 16.6371 8.54656 16.3205 9.31091C16.0039 10.0753 15.5399 10.7698 14.9549 11.3548C14.3699 11.9398 13.6754 12.4038 12.911 12.7204C12.1467 13.0371 11.3274 13.2 10.5001 13.2C8.82923 13.2 7.2268 12.5363 6.04533 11.3548C4.86385 10.1733 4.2001 8.57087 4.2001 6.90001C4.2001 5.22914 4.86385 3.62671 6.04533 2.44523C7.2268 1.26375 8.82923 0.600006 10.5001 0.600006ZM10.5001 2.40001C9.30662 2.40001 8.16203 2.87411 7.31812 3.71803C6.4742 4.56194 6.0001 5.70653 6.0001 6.90001C6.0001 8.09348 6.4742 9.23807 7.31812 10.082C8.16203 10.9259 9.30662 11.4 10.5001 11.4C11.6936 11.4 12.8382 10.9259 13.6821 10.082C14.526 9.23807 15.0001 8.09348 15.0001 6.90001C15.0001 5.70653 14.526 4.56194 13.6821 3.71803C12.8382 2.87411 11.6936 2.40001 10.5001 2.40001Z" fill="#407BFF"/>
<path d="M23.1001 4.20001C24.2936 4.20001 25.4382 4.67411 26.2821 5.51803C27.126 6.36194 27.6001 7.50653 27.6001 8.70001C27.6001 9.89348 27.126 11.0381 26.2821 11.882C25.4382 12.7259 24.2936 13.2 23.1001 13.2C21.9066 13.2 20.762 12.7259 19.9181 11.882C19.0742 11.0381 18.6001 9.89348 18.6001 8.70001C18.6001 7.50653 19.0742 6.36194 19.9181 5.51803C20.762 4.67411 21.9066 4.20001 23.1001 4.20001ZM23.1001 6.00001C22.384 6.00001 21.6973 6.28447 21.1909 6.79082C20.6846 7.29717 20.4001 7.98392 20.4001 8.70001C20.4001 9.41609 20.6846 10.1028 21.1909 10.6092C21.6973 11.1155 22.384 11.4 23.1001 11.4C23.8162 11.4 24.5029 11.1155 25.0093 10.6092C25.5156 10.1028 25.8001 9.41609 25.8001 8.70001C25.8001 7.98392 25.5156 7.29717 25.0093 6.79082C24.5029 6.28447 23.8162 6.00001 23.1001 6.00001Z" fill="#407BFF"/>
<path d="M25.5031 17.277L26.2213 15.5832C26.5579 14.7876 27.3643 14.3556 28.1563 14.5212L28.3255 14.5644L29.2255 14.8524C30.1183 15.1386 30.8005 15.9018 31.0219 16.8612C31.5457 19.1418 30.9175 21.9192 29.1337 25.1916C27.3535 28.4604 25.4041 30.4242 23.2819 31.0866C22.4575 31.344 21.5719 31.1586 20.9059 30.5988L20.7313 30.4368L20.0473 29.751C19.76 29.4551 19.5743 29.0755 19.5174 28.667C19.4604 28.2585 19.5351 27.8425 19.7305 27.4794L19.8313 27.3138L20.8609 25.8018C21.0481 25.5163 21.3166 25.2936 21.6317 25.1624C21.9468 25.0311 22.294 24.9974 22.6285 25.0656L22.8085 25.1142L24.7111 25.7496C25.4689 25.1736 26.1025 24.4536 26.6083 23.5806C27.0421 22.8336 27.3283 22.0776 27.4597 21.3108L27.5137 20.9256L25.9315 19.4226C25.6761 19.1737 25.4946 18.8591 25.4069 18.5134C25.3192 18.1678 25.3289 17.8047 25.4347 17.4642L25.5013 17.277H25.5031Z" fill="#407BFF"/>
</svg>
