<svg xmlns="http://www.w3.org/2000/svg" width="32" height="32" viewBox="0 0 32 32"><g stroke="#586597" transform="translate(-1389.316 -1007.049)"><g transform="translate(1390.816 -14.06)"><g transform="translate(0 2)"><path fill="#a2dcec" fill-rule="evenodd" stroke="none" d="M23.999951 1049.8552v-21.486L26 1028.3552v21.486zM8.000051 1049.8551v-3.486L10 1046.3552v3.486zM14 1049.8414v-7.9862l-1.999949.014v7.9862zM18 1049.8411v-12.4859l-1.999949.014v12.4859zM22 1049.841v-16.9858l-1.999949.014v16.9858z"/><path fill="none" stroke-linecap="round" stroke-linejoin="round" d="M23.999951 1049.8552v-21.486L26 1028.3552v21.486zM8.000051 1049.8551v-3.486L10 1046.3552v3.486zM14 1049.8414v-7.9862l-1.999949.014v7.9862zM18 1049.8411v-12.4859l-1.999949.014v12.4859zM22 1049.841v-16.9858l-1.999949.014v16.9858z"/></g><path fill="none" stroke-linecap="round" stroke-linejoin="round" d="M2.5657 1048.2911l10.442556-11.3128M15.991844 1033.7461L26.4344 1022.4333M24.007121 1022.3623h2.492829v2.4928M4.992879 1048.3622H2.50005v-2.4927"/></g><path fill="#586597" stroke="none" d="m 1405.8157,1021.3019 c 0,0.2761 -0.2239,0.5 -0.5,0.5 -0.2761,0 -0.5,-0.2239 -0.5,-0.5 0,-0.2761 0.2239,-0.5 0.5,-0.5 0.2761,0 0.5,0.2239 0.5,0.5 z"/></g></svg>