<svg xmlns="http://www.w3.org/2000/svg" fill="none" viewBox="14.71 17.71 221.92 118.98">
<path d="M14.9118 135.334C14 120.18 16.2074 105.001 21.3976 90.7345C26.5878 76.4682 34.6503 63.4187 45.0862 52.3935C55.5222 41.3682 68.1095 32.6018 82.0695 26.6365C96.0295 20.6712 111.065 17.6341 126.246 17.713C141.427 17.7919 156.43 20.9851 170.327 27.0951C184.224 33.2051 196.72 42.102 207.041 53.2351C217.362 64.3682 225.288 77.5008 230.33 91.8202C235.371 106.14 237.421 121.341 236.352 136.485L228.997 135.965C229.996 121.828 228.082 107.637 223.376 94.2687C218.669 80.9007 211.269 68.6407 201.634 58.2473C191.999 47.8539 180.334 39.5483 167.36 33.8442C154.386 28.1402 140.38 25.1591 126.208 25.0855C112.035 25.0118 97.9989 27.8472 84.9665 33.4161C71.9341 38.985 60.1831 47.1689 50.4406 57.4616C40.6981 67.7543 33.1713 79.9367 28.326 93.2551C23.4806 106.573 21.4199 120.744 22.2711 134.891L14.9118 135.334Z" fill="#C4C4C4"/>
<path d="M15.002 136.694C13.4777 115.672 17.9726 94.65 27.9606 76.0894C37.9487 57.5287 53.0167 42.1968 71.4011 31.8881C89.7856 21.5794 110.726 16.7202 131.772 17.8794C152.817 19.0386 173.097 26.1681 190.238 38.4335L185.948 44.4293C169.946 32.9788 151.013 26.323 131.366 25.2408C111.719 24.1587 92.1699 28.695 75.007 38.3187C57.8441 47.9425 43.7773 62.2557 34.4529 79.5831C25.1285 96.9104 20.9323 116.535 22.3553 136.161L15.002 136.694Z" fill="#0276BA"/>
<circle cx="185" cy="39" r="8" fill="#045687"/>
<path d="M110.852 94.1875V94.1406C108.836 93.2031 107.828 91.8438 107.828 90.0625C107.828 88.8516 108.289 87.8594 109.211 87.0859C110.133 86.3047 111.32 85.9141 112.773 85.9141C114.086 85.9141 115.164 86.2773 116.008 87.0039C116.852 87.7305 117.273 88.6641 117.273 89.8047C117.273 91.6641 116.234 93.1094 114.156 94.1406V94.1875C116.609 95.0625 117.836 96.5781 117.836 98.7344C117.836 100.125 117.336 101.23 116.336 102.051C115.336 102.871 113.945 103.281 112.164 103.281C110.727 103.281 109.543 102.875 108.613 102.062C107.684 101.25 107.219 100.195 107.219 98.8984C107.219 96.7422 108.43 95.1719 110.852 94.1875ZM115.305 90.0391C115.305 89.2656 115.062 88.6562 114.578 88.2109C114.094 87.7656 113.434 87.543 112.598 87.543C111.816 87.543 111.152 87.7773 110.605 88.2461C110.066 88.707 109.797 89.2969 109.797 90.0156C109.797 91.4766 110.707 92.5781 112.527 93.3203C114.379 92.5547 115.305 91.4609 115.305 90.0391ZM112.398 95.1016C110.258 95.9531 109.188 97.1875 109.188 98.8047C109.188 99.6406 109.496 100.328 110.113 100.867C110.738 101.398 111.559 101.664 112.574 101.664C113.543 101.664 114.332 101.402 114.941 100.879C115.559 100.348 115.867 99.6797 115.867 98.875C115.867 97.1875 114.711 95.9297 112.398 95.1016ZM121 102.719V100.867C121.938 101.398 122.93 101.664 123.977 101.664C125.5 101.664 126.684 101.051 127.527 99.8242C128.379 98.5977 128.805 96.8555 128.805 94.5977C128.789 94.6055 128.773 94.6055 128.758 94.5977C128.039 96.043 126.789 96.7656 125.008 96.7656C123.57 96.7656 122.391 96.2773 121.469 95.3008C120.547 94.3242 120.086 93.0664 120.086 91.5273C120.086 89.8867 120.59 88.543 121.598 87.4961C122.613 86.4414 123.91 85.9141 125.488 85.9141C127.145 85.9141 128.434 86.5703 129.355 87.8828C130.285 89.1875 130.75 91.0898 130.75 93.5898C130.75 96.6914 130.148 99.082 128.945 100.762C127.742 102.441 126.07 103.281 123.93 103.281C122.805 103.281 121.828 103.094 121 102.719ZM125.312 87.543C124.383 87.543 123.605 87.8945 122.98 88.5977C122.363 89.293 122.055 90.1797 122.055 91.2578C122.055 92.4375 122.359 93.3672 122.969 94.0469C123.578 94.7188 124.402 95.0547 125.441 95.0547C126.348 95.0547 127.113 94.7461 127.738 94.1289C128.371 93.5117 128.688 92.7578 128.688 91.8672C128.688 90.5938 128.375 89.5547 127.75 88.75C127.125 87.9453 126.312 87.543 125.312 87.543ZM136.656 94.6211C135.5 94.6211 134.578 94.2422 133.891 93.4844C133.203 92.7188 132.859 91.6992 132.859 90.4258C132.859 89.0352 133.223 87.9414 133.949 87.1445C134.676 86.3398 135.656 85.9375 136.891 85.9375C138.086 85.9375 139.012 86.3086 139.668 87.0508C140.332 87.793 140.664 88.8359 140.664 90.1797C140.664 91.5234 140.293 92.6016 139.551 93.4141C138.816 94.2188 137.852 94.6211 136.656 94.6211ZM136.82 87.2266C136.078 87.2266 135.492 87.5039 135.062 88.0586C134.633 88.6055 134.418 89.3594 134.418 90.3203C134.418 91.2656 134.629 92.0039 135.051 92.5352C135.473 93.0586 136.047 93.3203 136.773 93.3203C137.508 93.3203 138.082 93.0469 138.496 92.5C138.91 91.9531 139.117 91.1953 139.117 90.2266C139.117 89.2812 138.91 88.5469 138.496 88.0234C138.09 87.4922 137.531 87.2266 136.82 87.2266ZM147.906 86.1953L137.125 103.117H135.449L146.219 86.1953H147.906ZM146.664 103.258C145.508 103.258 144.586 102.875 143.898 102.109C143.211 101.344 142.867 100.328 142.867 99.0625C142.867 97.6719 143.234 96.5742 143.969 95.7695C144.703 94.957 145.68 94.5508 146.898 94.5508C148.086 94.5508 149.012 94.9258 149.676 95.6758C150.34 96.4258 150.672 97.4766 150.672 98.8281C150.672 100.164 150.301 101.238 149.559 102.051C148.824 102.855 147.859 103.258 146.664 103.258ZM146.828 95.875C146.078 95.875 145.488 96.1484 145.059 96.6953C144.637 97.2422 144.426 98 144.426 98.9688C144.426 99.8984 144.637 100.629 145.059 101.16C145.48 101.684 146.055 101.945 146.781 101.945C147.516 101.945 148.09 101.672 148.504 101.125C148.918 100.57 149.125 99.8125 149.125 98.8516C149.125 97.8984 148.918 97.1641 148.504 96.6484C148.098 96.1328 147.539 95.875 146.828 95.875ZM84.8438 125.844H84.8125V130.68H83.5312V119H84.8125V120.406H84.8438C85.474 119.344 86.3958 118.812 87.6094 118.812C88.6406 118.812 89.4453 119.172 90.0234 119.891C90.6016 120.604 90.8906 121.562 90.8906 122.766C90.8906 124.104 90.5651 125.177 89.9141 125.984C89.263 126.786 88.3724 127.188 87.2422 127.188C86.2057 127.188 85.4062 126.74 84.8438 125.844ZM84.8125 122.617V123.734C84.8125 124.396 85.026 124.958 85.4531 125.422C85.8854 125.88 86.4323 126.109 87.0938 126.109C87.8698 126.109 88.4766 125.812 88.9141 125.219C89.3568 124.625 89.5781 123.799 89.5781 122.742C89.5781 121.852 89.3724 121.154 88.9609 120.648C88.5495 120.143 87.9922 119.891 87.2891 119.891C86.5443 119.891 85.9453 120.151 85.4922 120.672C85.0391 121.188 84.8125 121.836 84.8125 122.617ZM99.3672 123.32H93.7188C93.7396 124.211 93.9792 124.898 94.4375 125.383C94.8958 125.867 95.526 126.109 96.3281 126.109C97.2292 126.109 98.0573 125.812 98.8125 125.219V126.422C98.1094 126.932 97.1797 127.188 96.0234 127.188C94.8932 127.188 94.0052 126.826 93.3594 126.102C92.7135 125.372 92.3906 124.349 92.3906 123.031C92.3906 121.786 92.7422 120.773 93.4453 119.992C94.1536 119.206 95.0312 118.812 96.0781 118.812C97.125 118.812 97.9349 119.151 98.5078 119.828C99.0807 120.505 99.3672 121.445 99.3672 122.648V123.32ZM98.0547 122.234C98.0495 121.495 97.8698 120.919 97.5156 120.508C97.1667 120.096 96.6797 119.891 96.0547 119.891C95.4505 119.891 94.9375 120.107 94.5156 120.539C94.0938 120.971 93.8333 121.536 93.7344 122.234H98.0547ZM104.656 127.188C103.474 127.188 102.529 126.815 101.82 126.07C101.117 125.32 100.766 124.328 100.766 123.094C100.766 121.75 101.133 120.701 101.867 119.945C102.602 119.19 103.594 118.812 104.844 118.812C106.036 118.812 106.966 119.18 107.633 119.914C108.305 120.648 108.641 121.667 108.641 122.969C108.641 124.245 108.279 125.268 107.555 126.039C106.836 126.805 105.87 127.188 104.656 127.188ZM104.75 119.891C103.927 119.891 103.276 120.172 102.797 120.734C102.318 121.292 102.078 122.062 102.078 123.047C102.078 123.995 102.32 124.742 102.805 125.289C103.289 125.836 103.938 126.109 104.75 126.109C105.578 126.109 106.214 125.841 106.656 125.305C107.104 124.768 107.328 124.005 107.328 123.016C107.328 122.016 107.104 121.245 106.656 120.703C106.214 120.161 105.578 119.891 104.75 119.891ZM112 125.844H111.969V130.68H110.688V119H111.969V120.406H112C112.63 119.344 113.552 118.812 114.766 118.812C115.797 118.812 116.602 119.172 117.18 119.891C117.758 120.604 118.047 121.562 118.047 122.766C118.047 124.104 117.721 125.177 117.07 125.984C116.419 126.786 115.529 127.188 114.398 127.188C113.362 127.188 112.562 126.74 112 125.844ZM111.969 122.617V123.734C111.969 124.396 112.182 124.958 112.609 125.422C113.042 125.88 113.589 126.109 114.25 126.109C115.026 126.109 115.633 125.812 116.07 125.219C116.513 124.625 116.734 123.799 116.734 122.742C116.734 121.852 116.529 121.154 116.117 120.648C115.706 120.143 115.148 119.891 114.445 119.891C113.701 119.891 113.102 120.151 112.648 120.672C112.195 121.188 111.969 121.836 111.969 122.617ZM121.375 127H120.094V115.156H121.375V127ZM130.398 123.32H124.75C124.771 124.211 125.01 124.898 125.469 125.383C125.927 125.867 126.557 126.109 127.359 126.109C128.26 126.109 129.089 125.812 129.844 125.219V126.422C129.141 126.932 128.211 127.188 127.055 127.188C125.924 127.188 125.036 126.826 124.391 126.102C123.745 125.372 123.422 124.349 123.422 123.031C123.422 121.786 123.773 120.773 124.477 119.992C125.185 119.206 126.062 118.812 127.109 118.812C128.156 118.812 128.966 119.151 129.539 119.828C130.112 120.505 130.398 121.445 130.398 122.648V123.32ZM129.086 122.234C129.081 121.495 128.901 120.919 128.547 120.508C128.198 120.096 127.711 119.891 127.086 119.891C126.482 119.891 125.969 120.107 125.547 120.539C125.125 120.971 124.865 121.536 124.766 122.234H129.086ZM138.016 127H136.734V115.156H138.016V127ZM141.266 116.969C141.036 116.969 140.841 116.891 140.68 116.734C140.518 116.578 140.438 116.38 140.438 116.141C140.438 115.901 140.518 115.703 140.68 115.547C140.841 115.385 141.036 115.305 141.266 115.305C141.5 115.305 141.698 115.385 141.859 115.547C142.026 115.703 142.109 115.901 142.109 116.141C142.109 116.37 142.026 116.565 141.859 116.727C141.698 116.888 141.5 116.969 141.266 116.969ZM141.891 127H140.609V119H141.891V127ZM151.125 127H149.328L145.797 123.156H145.766V127H144.484V115.156H145.766V122.664H145.797L149.156 119H150.836L147.125 122.859L151.125 127ZM158.867 123.32H153.219C153.24 124.211 153.479 124.898 153.938 125.383C154.396 125.867 155.026 126.109 155.828 126.109C156.729 126.109 157.557 125.812 158.312 125.219V126.422C157.609 126.932 156.68 127.188 155.523 127.188C154.393 127.188 153.505 126.826 152.859 126.102C152.214 125.372 151.891 124.349 151.891 123.031C151.891 121.786 152.242 120.773 152.945 119.992C153.654 119.206 154.531 118.812 155.578 118.812C156.625 118.812 157.435 119.151 158.008 119.828C158.581 120.505 158.867 121.445 158.867 122.648V123.32ZM157.555 122.234C157.549 121.495 157.37 120.919 157.016 120.508C156.667 120.096 156.18 119.891 155.555 119.891C154.951 119.891 154.438 120.107 154.016 120.539C153.594 120.971 153.333 121.536 153.234 122.234H157.555ZM171.672 127H170.391V125.734H170.359C169.828 126.703 169.005 127.188 167.891 127.188C165.984 127.188 165.031 126.052 165.031 123.781V119H166.305V123.578C166.305 125.266 166.951 126.109 168.242 126.109C168.867 126.109 169.38 125.88 169.781 125.422C170.188 124.958 170.391 124.354 170.391 123.609V119H171.672V127ZM173.781 126.711V125.336C174.479 125.852 175.247 126.109 176.086 126.109C177.211 126.109 177.773 125.734 177.773 124.984C177.773 124.771 177.724 124.591 177.625 124.445C177.531 124.294 177.401 124.161 177.234 124.047C177.073 123.932 176.88 123.831 176.656 123.742C176.438 123.648 176.201 123.552 175.945 123.453C175.591 123.312 175.279 123.172 175.008 123.031C174.742 122.885 174.518 122.724 174.336 122.547C174.159 122.365 174.023 122.159 173.93 121.93C173.841 121.701 173.797 121.432 173.797 121.125C173.797 120.75 173.883 120.419 174.055 120.133C174.227 119.841 174.456 119.599 174.742 119.406C175.029 119.208 175.354 119.06 175.719 118.961C176.089 118.862 176.469 118.812 176.859 118.812C177.552 118.812 178.172 118.932 178.719 119.172V120.469C178.13 120.083 177.453 119.891 176.688 119.891C176.448 119.891 176.232 119.919 176.039 119.977C175.846 120.029 175.68 120.104 175.539 120.203C175.404 120.302 175.297 120.422 175.219 120.562C175.146 120.698 175.109 120.849 175.109 121.016C175.109 121.224 175.146 121.398 175.219 121.539C175.297 121.68 175.409 121.805 175.555 121.914C175.701 122.023 175.878 122.122 176.086 122.211C176.294 122.299 176.531 122.396 176.797 122.5C177.151 122.635 177.469 122.776 177.75 122.922C178.031 123.062 178.271 123.224 178.469 123.406C178.667 123.583 178.818 123.789 178.922 124.023C179.031 124.258 179.086 124.536 179.086 124.859C179.086 125.255 178.997 125.599 178.82 125.891C178.648 126.182 178.417 126.424 178.125 126.617C177.833 126.81 177.497 126.953 177.117 127.047C176.737 127.141 176.339 127.188 175.922 127.188C175.099 127.188 174.385 127.029 173.781 126.711Z" fill="black"/>
</svg>