<svg width="60" height="52" viewBox="0 0 60 52" fill="none" xmlns="http://www.w3.org/2000/svg">
<path d="M55.2 16.1C49.7 1.29998 31.7 7.89998 30 15.3C27.7 7.39998 10.2 1.49998 4.80003 16.1C-1.19997 32.3 27.9 46.8 30 49.2C32.1 47.3 61.2 32 55.2 16.1Z" fill="#FF5A79"/>
<path d="M58 12.5C57.4 10.6 56.4 8.89999 55 7.49999C53.7 6.09999 52 4.99999 50.3 4.29999C49.4 3.89999 48.5 3.69999 47.6 3.49999C47.1 3.39999 46.7001 3.39999 46.2001 3.29999H44.8L46 3.89999L47.2001 4.49999C48.0001 4.89999 48.8 5.29999 49.5 5.79999C51 6.69999 52.3 7.79999 53.5 8.99999C54.7 10.2 55.6 11.6 56.5 13.2C56.9 14 57.3 14.8 57.6 15.6C57.8 16 57.9 16.5 58.1 16.9L58.6 18.2C58.7 17.7 58.7001 17.2 58.7001 16.8C58.7001 16.3 58.7 15.8 58.6 15.4C58.5 14.4 58.3 13.4 58 12.5Z" fill="#FF5A79"/>
<path d="M60 9.8C59.9 9.1 59.8 8.4 59.6 7.7C59.2 6.3 58.4 5 57.4 3.9C56.4 2.8 55.2 2 53.9 1.6C53.2 1.4 52.6 1.2 51.9 1.1C51.6 1.1 51.2 1 50.9 1C50.6 1 50.2 1 49.9 1.1C50.2 1.3 50.5 1.4 50.8 1.6C51 1.7 51.3 1.9 51.6 2C52.2 2.3 52.7 2.6 53.2 3C54.2 3.7 55.2 4.5 56 5.3C56.8 6.2 57.5 7.2 58.2 8.3C58.5 8.8 58.8 9.4 59.1 10C59.2 10.3 59.4 10.6 59.5 10.9C59.6 11.2 59.8 11.5 59.9 11.9C60 11.5 60 11.2 60 10.8V9.8Z" fill="#FF5A79"/>
<path d="M2.30005 15.6C2.60005 14.8 3.00005 13.9 3.40005 13.2C4.20005 11.6 5.20005 10.2 6.40005 8.99999C7.60005 7.79999 8.90005 6.69999 10.4 5.79999C11.1 5.29999 11.9 4.89999 12.7 4.49999L13.9 3.89999L15.1 3.29999H13.7C13.2 3.29999 12.8 3.39999 12.3 3.49999C11.4 3.69999 10.5 3.89999 9.60005 4.29999C7.90005 4.99999 6.30005 6.09999 5.00005 7.49999C3.70005 8.89999 2.60005 10.6 2.00005 12.5C1.70005 13.4 1.50005 14.4 1.40005 15.3C1.30005 15.8 1.30005 16.3 1.30005 16.7C1.30005 17.2 1.30005 17.7 1.40005 18.1L1.90005 16.8C2.00005 16.4 2.10005 16 2.30005 15.6Z" fill="#FF5A79"/>
<path d="M4 5.39999C4.8 4.49999 5.8 3.69999 6.8 2.99999C7.3 2.69999 7.9 2.29999 8.4 1.99999C8.7 1.79999 9 1.69999 9.3 1.49999C9.6 1.29999 9.9 1.19999 10.2 0.999994C9.9 0.999994 9.5 0.899994 9.2 0.899994C8.9 0.899994 8.5 0.899994 8.2 0.999994C7.5 1.09999 6.9 1.29999 6.2 1.49999C4.8 2.09999 3.6 2.89999 2.6 3.89999C1.6 4.99999 0.8 6.29999 0.4 7.69999C0.2 8.39999 0.1 9.09999 0 9.79999V10.9C0 11.3 -9.68575e-08 11.6 0.0999999 12C0.2 11.7 0.4 11.4 0.5 11C0.7 10.6 0.8 10.3 1 9.99999C1.3 9.39999 1.6 8.79999 1.9 8.29999C2.5 7.19999 3.2 6.19999 4 5.39999Z" fill="#FF5A79"/>
<path d="M5.79995 34.5L5.69995 34.7C6.19995 36.2 6.99995 37.4 7.79995 38.6C8.59995 39.8 9.59995 40.8 10.6 41.7C11.6 42.6 12.7 43.5 13.9 44.3C15.1 45.1 16.4 45.7 17.9 46.1L18 45.9C16 43.9 14 42 12 40.1C9.89995 38.3 7.89995 36.3 5.79995 34.5Z" fill="#FF5A79"/>
<path d="M1.6 37.5L1.5 37.7C2.2 39.4 3.1 40.8 4.1 42.1C5.1 43.4 6.2 44.6 7.4 45.7C8.6 46.8 9.8 47.8 11.2 48.8C12.6 49.7 14 50.6 15.7 51.1L15.8 50.9C13.5 48.6 11.1 46.4 8.8 44.1C6.4 41.9 4 39.6 1.6 37.5Z" fill="#FF5A79"/>
<path d="M49.5 41.7C50.5 40.7 51.5 39.7 52.3 38.6C53.1 37.5 53.9 36.2 54.4 34.7L54.3 34.5C52.2 36.3 50.2 38.3 48.1 40.1C46.1 42 44.1 43.9 42.1 45.9L42.2 46.1C43.7 45.7 45 45 46.2 44.3C47.4 43.5 48.4 42.6 49.5 41.7Z" fill="#FF5A79"/>
<path d="M51.2 44.1C48.9 46.4 46.5 48.6 44.2 50.9L44.2999 51.1C45.9999 50.5 47.3999 49.7 48.7999 48.8C50.1999 47.9 51.3999 46.9 52.5999 45.7C53.7999 44.6 54.9 43.4 55.9 42.1C56.9 40.8 57.8 39.4 58.5 37.7L58.4 37.5C56 39.6 53.6 41.9 51.2 44.1Z" fill="#FF5A79"/>
</svg>
