<svg id="icons_Q2" data-name="icons Q2" xmlns="http://www.w3.org/2000/svg" width="37.352" height="30.561" viewBox="0 0 37.352 30.561">
  <path id="Path_60" data-name="Path 60" d="M37.655,6H3.7A1.7,1.7,0,0,0,2,7.7V34.863a1.7,1.7,0,0,0,1.7,1.7H18.978v-12.9l-3.056,3.056a1.7,1.7,0,0,1-2.632-.17,1.783,1.783,0,0,1,.34-2.292l5.858-5.858a1.613,1.613,0,0,1,2.377,0l5.858,5.858a1.783,1.783,0,0,1,.34,2.292,1.7,1.7,0,0,1-2.632.17l-3.056-3.056v12.9H37.655a1.7,1.7,0,0,0,1.7-1.7V7.7A1.7,1.7,0,0,0,37.655,6ZM8.791,14.489a1.7,1.7,0,1,1,1.7-1.7A1.7,1.7,0,0,1,8.791,14.489Zm5.094,0a1.7,1.7,0,1,1,1.7-1.7A1.7,1.7,0,0,1,13.885,14.489Zm5.094,0a1.7,1.7,0,1,1,1.7-1.7A1.7,1.7,0,0,1,18.978,14.489Z" transform="translate(-2 -6)" fill="#0376ba"/>
</svg>
