<svg width="20" height="19" viewBox="0 0 20 19" fill="none" xmlns="http://www.w3.org/2000/svg">
<path d="M5.37498 14.031L6.62498 12.469L2.60098 9.24998L6.62498 6.03098L5.37498 4.46898L0.374981 8.46898C0.257826 8.56267 0.163249 8.6815 0.098254 8.8167C0.033259 8.95189 -0.000488281 9.09998 -0.000488281 9.24998C-0.000488281 9.39999 0.033259 9.54807 0.098254 9.68327C0.163249 9.81846 0.257826 9.9373 0.374981 10.031L5.37498 14.031ZM14.625 4.46898L13.375 6.03098L17.399 9.24998L13.375 12.469L14.625 14.031L19.625 10.031C19.7421 9.9373 19.8367 9.81846 19.9017 9.68327C19.9667 9.54807 20.0005 9.39999 20.0005 9.24998C20.0005 9.09998 19.9667 8.95189 19.9017 8.8167C19.8367 8.6815 19.7421 8.56267 19.625 8.46898L14.625 4.46898ZM12.976 0.465982L8.97598 18.466L7.02298 18.032L11.023 0.0319824L12.976 0.465982Z" fill="white"/>
</svg>
