<svg xmlns="http://www.w3.org/2000/svg" width="31.106" height="31.106" viewBox="0 0 31.106 31.106">
  <path id="Icon_awesome-hire-a-helper" data-name="Icon awesome-hire-a-helper" d="M26.92,0H4.368A4.959,4.959,0,0,1,0,4.356v22.57a5.01,5.01,0,0,1,4.368,4.18H26.981a4.713,4.713,0,0,1,4.125-4.241V4.356A5,5,0,0,1,26.92,0ZM24.673,24.6c-2.205,0-1.142-.122-3.348-.122-2.175,0-1.276.122-3.408.122-.358,0-.3-.5,0-.6,1.385-.462,1.391-.62,1.495-.778.632-.948.358-5.043.358-6.865a.9.9,0,0,0-.838-.778H12.175a.9.9,0,0,0-.838.778c0,1.823-.273,5.918.358,6.865.1.152.109.316,1.495.778.3.1.365.6,0,.6-2.132,0-1.233-.122-3.408-.122-2.205,0-1.142.122-3.348.122-.48,0-.352-.656,0-.656a2.015,2.015,0,0,0,1.318-.838c.468-.784.48-2.7.48-7.764V9.192c0-1.349-.741-1.719-1.738-1.968-.535-.134-.243-.717.061-.717,2.218,0,1.252.122,3.469.122,1.987,0,1-.122,2.989-.122.2,0,.516.5.061.656-.3.1-1.677.225-1.677,2.388,0,2.77-.012,3.39.061,4.18,0,.079.14.778.778.778H18.87c.638,0,.778-.7.778-.778.073-.79.061-1.41.061-4.18,0-2.163-1.379-2.29-1.677-2.388-.456-.152-.14-.656.061-.656,1.987,0,1,.122,2.989.122,2.218,0,1.252-.122,3.469-.122.3,0,.6.583.061.717-1,.249-1.738.626-1.738,1.968v6.148c0,5.067.006,6.981.48,7.764a2.024,2.024,0,0,0,1.318.838c.352,0,.474.656,0,.656Z" fill="#0376ba"/>
</svg>
