<svg width="37.352" height="30.561" viewBox="4 0 89 79" fill="none" xmlns="http://www.w3.org/2000/svg">
<rect width="89" height="79" rx="12" fill="#0376BA"/>
<rect width="61" height="61" transform="translate(17 7)" fill="#0376BA"/>
<mask id="path-2-inside-1_122_81" fill="white">
<path d="M38.0052 51.2149C37.6292 50.839 37.1121 50.6196 36.5783 50.6196C36.0445 50.6196 35.5274 50.839 35.1514 51.2149L32.562 53.8261L29.9739 51.2149C29.598 50.839 29.0796 50.6273 28.5471 50.6273C27.441 50.6273 26.5312 51.537 26.5312 52.6418C26.5312 53.1756 26.743 53.6927 27.1189 54.0699L29.7314 56.6568L27.1189 59.2449C26.743 59.6221 26.5312 60.1392 26.5312 60.673C26.5312 61.7778 27.441 62.6876 28.5471 62.6876C29.0796 62.6876 29.598 62.4758 29.9739 62.0999L32.562 59.4887L35.1514 62.0999C35.5274 62.4758 36.0445 62.6953 36.5783 62.6953C37.1121 62.6953 37.6292 62.4758 38.0052 62.0999C38.3824 61.7226 38.6018 61.2055 38.6018 60.673C38.6018 60.1392 38.3824 59.6221 38.0052 59.2449L35.394 56.6568L38.0052 54.0699C38.3824 53.6927 38.6018 53.1756 38.6018 52.6418C38.6018 52.1093 38.3824 51.5909 38.0052 51.2149Z"/>
<path d="M44.6096 30.8874C47.9125 30.8874 50.634 33.6089 50.634 36.9105V44.9404C50.634 46.0388 51.5438 46.9485 52.6409 46.9485C53.7392 46.9485 54.649 46.0388 54.649 44.9404V36.9105C54.649 33.7501 53.1593 30.7783 50.634 28.8805C53.1593 26.9827 54.649 24.011 54.649 20.8506C54.649 15.3446 50.1156 10.8125 44.6096 10.8125C39.1037 10.8125 34.5703 15.3446 34.5703 20.8506C34.5703 24.011 36.0613 26.9827 38.5865 28.8805C36.0613 30.7783 34.5703 33.7501 34.5703 36.9105V44.9404C34.5703 46.0388 35.48 46.9485 36.5784 46.9485H44.6096C45.708 46.9485 46.6178 46.0388 46.6178 44.9404C46.6178 43.8433 45.708 42.9336 44.6096 42.9336H38.5865V36.9105C38.5865 33.6089 41.3081 30.8874 44.6096 30.8874ZM38.5865 20.8506C38.5865 17.549 41.3081 14.8275 44.6096 14.8275C47.9125 14.8275 50.634 17.549 50.634 20.8506C50.634 24.1521 47.9125 26.8724 44.6096 26.8724C41.3081 26.8724 38.5865 24.1521 38.5865 20.8506Z"/>
<path d="M66.1164 51.5434C65.7392 51.1675 65.222 50.948 64.6883 50.948C64.1557 50.948 63.6374 51.1675 63.2614 51.5434L56.657 58.1696L54.0689 55.5584C53.6917 55.1824 53.1746 54.9707 52.6408 54.9707C51.536 54.9707 50.6249 55.8805 50.6249 56.9853C50.6249 57.5191 50.838 58.0362 51.2139 58.4134L55.2302 62.4284C55.6061 62.8043 56.1232 63.0238 56.657 63.0238C57.1908 63.0238 57.7079 62.8043 58.0839 62.4284L66.1164 54.3984C66.4924 54.0212 66.7118 53.5041 66.7118 52.9703C66.7118 52.4378 66.4924 51.9194 66.1164 51.5434Z"/>
</mask>
<path d="M38.0052 51.2149L35.3549 53.8652L35.3594 53.8697L38.0052 51.2149ZM35.1514 51.2149L32.5012 48.5647L32.4956 48.5702L32.4901 48.5758L35.1514 51.2149ZM32.562 53.8261L29.9001 56.4646L32.5614 59.1497L35.2234 56.4653L32.562 53.8261ZM29.9739 51.2149L32.6359 48.5765L32.6301 48.5706L32.6242 48.5647L29.9739 51.2149ZM27.1189 54.0699L24.4642 56.7157L24.473 56.7245L24.4818 56.7332L27.1189 54.0699ZM29.7314 56.6568L32.3692 59.3194L35.0576 56.6561L32.3686 53.9935L29.7314 56.6568ZM27.1189 59.2449L24.4811 56.5822L24.4726 56.5907L24.4642 56.5992L27.1189 59.2449ZM29.9739 62.0999L32.6242 64.7501L32.6301 64.7442L32.6359 64.7383L29.9739 62.0999ZM32.562 59.4887L35.2234 56.8496L32.5614 54.1651L29.9001 56.8502L32.562 59.4887ZM35.1514 62.0999L32.4901 64.739L32.4956 64.7446L32.5012 64.7501L35.1514 62.0999ZM38.0052 62.0999L35.3549 59.4496L35.3549 59.4496L38.0052 62.0999ZM38.0052 59.2449L40.6554 56.5946L40.6495 56.5887L40.6436 56.5829L38.0052 59.2449ZM35.394 56.6568L32.7562 53.9941L30.0691 56.6561L32.7555 59.3188L35.394 56.6568ZM38.0052 54.0699L40.643 56.7326L40.6492 56.7264L40.6554 56.7202L38.0052 54.0699ZM50.634 28.8805L48.3823 25.8843L44.3954 28.8805L48.3823 31.8767L50.634 28.8805ZM38.5865 28.8805L40.8383 31.8767L44.8251 28.8805L40.8383 25.8843L38.5865 28.8805ZM38.5865 42.9336H34.8385V46.6816H38.5865V42.9336ZM66.1164 51.5434L68.7667 48.8932L68.7621 48.8887L66.1164 51.5434ZM63.2614 51.5434L60.6111 48.8932L60.6068 48.8976L63.2614 51.5434ZM56.657 58.1696L53.995 60.8081L56.6496 63.4863L59.3116 60.8155L56.657 58.1696ZM54.0689 55.5584L56.7309 52.9199L56.7228 52.9118L56.7147 52.9036L54.0689 55.5584ZM51.2139 58.4134L48.5592 61.0591L48.5641 61.0641L51.2139 58.4134ZM55.2302 62.4284L57.8804 59.7781L57.88 59.7777L55.2302 62.4284ZM58.0839 62.4284L55.4341 59.7777L55.4336 59.7781L58.0839 62.4284ZM66.1164 54.3984L68.7662 57.0491L68.7712 57.0442L66.1164 54.3984ZM40.6554 48.5647C39.5927 47.502 38.1287 46.8715 36.5783 46.8715V54.3676C36.0955 54.3676 35.6657 54.176 35.3549 53.8652L40.6554 48.5647ZM36.5783 46.8715C35.0279 46.8715 33.5639 47.502 32.5012 48.5647L37.8017 53.8652C37.4909 54.176 37.0611 54.3676 36.5783 54.3676V46.8715ZM32.4901 48.5758L29.9007 51.187L35.2234 56.4653L37.8128 53.854L32.4901 48.5758ZM35.224 51.1877L32.6359 48.5765L27.3119 53.8534L29.9001 56.4646L35.224 51.1877ZM32.6242 48.5647C31.5347 47.4752 30.0585 46.8792 28.5471 46.8792V54.3753C28.1007 54.3753 27.6612 54.2027 27.3237 53.8652L32.6242 48.5647ZM28.5471 46.8792C25.3726 46.8792 22.7832 49.4655 22.7832 52.6418H30.2793C30.2793 53.6085 29.5094 54.3753 28.5471 54.3753V46.8792ZM22.7832 52.6418C22.7832 54.1569 23.3807 55.6285 24.4642 56.7157L29.7737 51.4242C30.1052 51.7569 30.2793 52.1943 30.2793 52.6418H22.7832ZM24.4818 56.7332L27.0943 59.3201L32.3686 53.9935L29.7561 51.4066L24.4818 56.7332ZM27.0936 53.9941L24.4811 56.5822L29.7567 61.9075L32.3692 59.3194L27.0936 53.9941ZM24.4642 56.5992C23.3807 57.6863 22.7832 59.1579 22.7832 60.673H30.2793C30.2793 61.1206 30.1052 61.5579 29.7737 61.8906L24.4642 56.5992ZM22.7832 60.673C22.7832 63.8493 25.3726 66.4356 28.5471 66.4356V58.9395C29.5094 58.9395 30.2793 59.7063 30.2793 60.673H22.7832ZM28.5471 66.4356C30.0585 66.4356 31.5347 65.8396 32.6242 64.7501L27.3237 59.4496C27.6612 59.1121 28.1007 58.9395 28.5471 58.9395V66.4356ZM32.6359 64.7383L35.224 62.1271L29.9001 56.8502L27.3119 59.4614L32.6359 64.7383ZM29.9007 62.1278L32.4901 64.739L37.8128 59.4608L35.2234 56.8496L29.9007 62.1278ZM32.5012 64.7501C33.5639 65.8128 35.0279 66.4433 36.5783 66.4433V58.9473C37.0612 58.9473 37.4909 59.1389 37.8017 59.4496L32.5012 64.7501ZM36.5783 66.4433C38.1287 66.4433 39.5927 65.8128 40.6554 64.7501L35.3549 59.4496C35.6657 59.1389 36.0954 58.9473 36.5783 58.9473V66.4433ZM40.6554 64.7501C41.7172 63.6883 42.3498 62.2252 42.3498 60.673H34.8538C34.8538 60.1859 35.0476 59.757 35.3549 59.4496L40.6554 64.7501ZM42.3498 60.673C42.3498 59.1209 41.7181 57.6574 40.6554 56.5946L35.3549 61.8951C35.0467 61.5869 34.8538 61.1576 34.8538 60.673H42.3498ZM40.6436 56.5829L38.0324 53.9948L32.7555 59.3188L35.3667 61.9069L40.6436 56.5829ZM38.0317 59.3194L40.643 56.7326L35.3674 51.4073L32.7562 53.9941L38.0317 59.3194ZM40.6554 56.7202C41.7181 55.6575 42.3498 54.194 42.3498 52.6418H34.8538C34.8538 52.1572 35.0467 51.7279 35.3549 51.4197L40.6554 56.7202ZM42.3498 52.6418C42.3498 51.0933 41.7197 49.6253 40.6509 48.5602L35.3594 53.8697C35.0452 53.5565 34.8538 53.1253 34.8538 52.6418H42.3498ZM44.6096 34.6354C45.843 34.6354 46.886 35.6794 46.886 36.9105H54.382C54.382 31.5384 49.9819 27.1393 44.6096 27.1393V34.6354ZM46.886 36.9105V44.9404H54.382V36.9105H46.886ZM46.886 44.9404C46.886 48.1072 49.4723 50.6965 52.6409 50.6965V43.2005C53.6153 43.2005 54.382 43.9704 54.382 44.9404H46.886ZM52.6409 50.6965C55.8092 50.6965 58.397 48.1087 58.397 44.9404H50.901C50.901 43.9688 51.6693 43.2005 52.6409 43.2005V50.6965ZM58.397 44.9404V36.9105H50.901V44.9404H58.397ZM58.397 36.9105C58.397 32.5673 56.3496 28.4875 52.8858 25.8843L48.3823 31.8767C49.9689 33.0691 50.901 34.9328 50.901 36.9105H58.397ZM52.8858 31.8767C56.3496 29.2736 58.397 25.1937 58.397 20.8506H50.901C50.901 22.8283 49.9689 24.6919 48.3823 25.8843L52.8858 31.8767ZM58.397 20.8506C58.397 13.274 52.185 7.06448 44.6096 7.06448V14.5605C48.0463 14.5605 50.901 17.4152 50.901 20.8506H58.397ZM44.6096 7.06448C37.0343 7.06448 30.8223 13.274 30.8223 20.8506H38.3183C38.3183 17.4152 41.173 14.5605 44.6096 14.5605V7.06448ZM30.8223 20.8506C30.8223 25.1947 32.8718 29.2742 36.3348 31.8767L40.8383 25.8843C39.2508 24.6913 38.3183 22.8272 38.3183 20.8506H30.8223ZM36.3348 25.8843C32.8718 28.4868 30.8223 32.5663 30.8223 36.9105H38.3183C38.3183 34.9338 39.2508 33.0697 40.8383 31.8767L36.3348 25.8843ZM30.8223 36.9105V44.9404H38.3183V36.9105H30.8223ZM30.8223 44.9404C30.8223 48.1087 33.4101 50.6965 36.5784 50.6965V43.2005C37.55 43.2005 38.3183 43.9688 38.3183 44.9404H30.8223ZM36.5784 50.6965H44.6096V43.2005H36.5784V50.6965ZM44.6096 50.6965C47.778 50.6965 50.3658 48.1087 50.3658 44.9404H42.8698C42.8698 43.9688 43.638 43.2005 44.6096 43.2005V50.6965ZM50.3658 44.9404C50.3658 41.7718 47.7764 39.1855 44.6096 39.1855V46.6816C43.6396 46.6816 42.8698 45.9148 42.8698 44.9404H50.3658ZM44.6096 39.1855H38.5865V46.6816H44.6096V39.1855ZM42.3346 42.9336V36.9105H34.8385V42.9336H42.3346ZM42.3346 36.9105C42.3346 35.6789 43.3781 34.6354 44.6096 34.6354V27.1393C39.2381 27.1393 34.8385 31.5389 34.8385 36.9105H42.3346ZM42.3346 20.8506C42.3346 19.619 43.3781 18.5755 44.6096 18.5755V11.0795C39.2381 11.0795 34.8385 15.4791 34.8385 20.8506H42.3346ZM44.6096 18.5755C45.843 18.5755 46.886 19.6195 46.886 20.8506H54.382C54.382 15.4785 49.9819 11.0795 44.6096 11.0795V18.5755ZM46.886 20.8506C46.886 22.0806 45.8441 23.1244 44.6096 23.1244V30.6204C49.9809 30.6204 54.382 26.2236 54.382 20.8506H46.886ZM44.6096 23.1244C43.377 23.1244 42.3346 22.0811 42.3346 20.8506H34.8385C34.8385 26.2231 39.2392 30.6204 44.6096 30.6204V23.1244ZM68.7621 48.8887C67.7009 47.8311 66.2397 47.2 64.6883 47.2V54.6961C64.2043 54.6961 63.7774 54.5039 63.4707 54.1982L68.7621 48.8887ZM64.6883 47.2C63.1404 47.2 61.6748 47.8296 60.6111 48.8932L65.9116 54.1937C65.5999 54.5054 65.1711 54.6961 64.6883 54.6961V47.2ZM60.6068 48.8976L54.0024 55.5237L59.3116 60.8155L65.916 54.1893L60.6068 48.8976ZM59.319 55.5312L56.7309 52.9199L51.4069 58.1968L53.995 60.8081L59.319 55.5312ZM56.7147 52.9036C55.6275 51.8202 54.1559 51.2227 52.6408 51.2227V58.7187C52.1932 58.7187 51.7559 58.5447 51.4232 58.2132L56.7147 52.9036ZM52.6408 51.2227C49.4691 51.2227 46.8769 53.8074 46.8769 56.9853H54.373C54.373 57.9535 53.6029 58.7187 52.6408 58.7187V51.2227ZM46.8769 56.9853C46.8769 58.5065 47.48 59.9763 48.5592 61.0591L53.8687 55.7677C54.1959 56.096 54.373 56.5316 54.373 56.9853H46.8769ZM48.5641 61.0641L52.5803 65.079L57.88 59.7777L53.8637 55.7627L48.5641 61.0641ZM52.5799 65.0786C53.6426 66.1413 55.1066 66.7718 56.657 66.7718V59.2757C57.1399 59.2757 57.5696 59.4673 57.8804 59.7781L52.5799 65.0786ZM56.657 66.7718C58.2075 66.7718 59.6714 66.1413 60.7341 65.0786L55.4336 59.7781C55.7444 59.4674 56.1742 59.2757 56.657 59.2757V66.7718ZM60.7337 65.079L68.7662 57.0491L63.4666 51.7478L55.4341 59.7777L60.7337 65.079ZM68.7712 57.0442C69.8288 55.9829 70.4598 54.5218 70.4598 52.9703H62.9638C62.9638 52.4864 63.156 52.0594 63.4616 51.7527L68.7712 57.0442ZM70.4598 52.9703C70.4598 51.4224 69.8303 49.9568 68.7667 48.8932L63.4662 54.1937C63.1544 53.882 62.9638 53.4532 62.9638 52.9703H70.4598Z" fill="white" mask="url(#path-2-inside-1_122_81)"/>
</svg>
