<svg xmlns="http://www.w3.org/2000/svg" width="381.8" height="290.185" viewBox="0 0 381.8 290.185">
  <g id="undraw_Instant_information_re_c5v5_1_" data-name="undraw_Instant_information_re_c5v5 (1)" transform="translate(0)">
    <path id="Path_438" data-name="Path 438" d="M286.65,649.49a12.634,12.634,0,0,0,12.2-2.149c4.273-3.587,5.613-9.493,6.7-14.964l3.224-16.182-6.75,4.648c-4.855,3.342-9.818,6.792-13.179,11.633s-4.827,11.45-2.128,16.689" transform="translate(-258.596 -384.394)" fill="#e6e6e6"/>
    <path id="Path_439" data-name="Path 439" d="M288.656,682.86c-.85-6.19-1.724-12.459-1.126-18.715a29.438,29.438,0,0,1,5.676-15.432,25.674,25.674,0,0,1,6.587-5.969c.658-.416,1.265.628.609,1.042a24.406,24.406,0,0,0-9.654,11.648c-2.1,5.346-2.439,11.173-2.077,16.852.219,3.434.684,6.846,1.151,10.253a.625.625,0,0,1-.422.742.607.607,0,0,1-.742-.422Z" transform="translate(-259.56 -397.046)" fill="#f2f2f2"/>
    <path id="Path_442" data-name="Path 442" d="M301.59,691.458a9.3,9.3,0,0,0,8.1,4.184c4.1-.195,7.522-3.057,10.6-5.776l9.105-8.039-6.026-.288c-4.334-.208-8.779-.4-12.907.936s-7.934,4.553-8.689,8.825" transform="translate(-266.379 -415.575)" fill="#e6e6e6"/>
    <path id="Path_443" data-name="Path 443" d="M285.193,709.421c4.09-7.237,8.834-15.28,17.311-17.851a19.316,19.316,0,0,1,7.281-.752c.773.067.58,1.258-.191,1.192a17.947,17.947,0,0,0-11.62,3.074,30.2,30.2,0,0,0-7.987,8.618c-1.323,2.014-2.507,4.114-3.692,6.21C285.917,710.583,284.81,710.1,285.193,709.421Z" transform="translate(-258.499 -420.049)" fill="#f2f2f2"/>
    <path id="Path_585" data-name="Path 585" d="M486.319,431.5a5.5,5.5,0,0,0-.746.437l-24.1-9.42-.955-6.213-9.565.216.623,11.163a4.174,4.174,0,0,0,3.224,3.834l28.675,6.652a5.477,5.477,0,1,0,2.843-6.669Z" transform="translate(-337.816 -288.789)" fill="#9f616a"/>
    <path id="Path_586" data-name="Path 586" d="M215.286,519.944h6.4l3.043-24.671h-9.44Z" transform="translate(-102.965 -236.875)" fill="#9f616a"/>
    <path id="Path_587" data-name="Path 587" d="M446.26,710.456h12.6a8.028,8.028,0,0,1,8.027,8.027v.261H446.26Z" transform="translate(-335.571 -429.477)" fill="#2f2e41"/>
    <path id="Path_588" data-name="Path 588" d="M156.286,519.944h6.4l3.043-24.671h-9.44Z" transform="translate(-74.747 -236.875)" fill="#9f616a"/>
    <path id="Path_589" data-name="Path 589" d="M387.26,710.456h12.6a8.028,8.028,0,0,1,8.027,8.027v.261H387.26Z" transform="translate(-307.353 -429.477)" fill="#2f2e41"/>
    <path id="Path_590" data-name="Path 590" d="M395.687,327.983c-1.822-7.521-3.365-16,.07-22.932,2.384-4.807,11.2-6.425,16.257-4.694s8.71,6.43,10.317,11.552,1.421,10.642.72,15.967C413.754,327.7,404.458,327.52,395.687,327.983Z" transform="translate(-310.439 -233.015)" fill="#2f2e41"/>
    <circle id="Ellipse_175" data-name="Ellipse 175" cx="10.841" cy="10.841" r="10.841" transform="translate(90.095 73.285)" fill="#9f616a"/>
    <path id="Path_591" data-name="Path 591" d="M402.162,316.146a13.616,13.616,0,1,1,27.217.359C420.1,316.524,410.82,316.544,402.162,316.146Z" transform="translate(-314.479 -234.253)" fill="#2f2e41"/>
    <path id="Path_592" data-name="Path 592" d="M393.628,430.582l-4.534,7.556s-12.417,23.288-11.678,42.591l2.748,24.043-3.016,5.9,2.019,10.381-3.749,7.436,6.776,35.9.288,7.786H393.44l-.577-7.93,4.614-34.974,7.786-37.342,4.037,32.235-1.442,8.074,1.874,6.776,2.6,20.906.288,10.093,9.948,1.153,3.749-37.342,2.163-17.817-11.59-79Z" transform="translate(-301.689 -295.62)" fill="#2f2e41"/>
    <path id="Path_593" data-name="Path 593" d="M397.9,360.649l-6.75,2.867-3.791,15.689,7.982,20.442-2.984,10.214c9.033,15.451,20.213,17.7,33.369,7.787-2.784-7.818-2.382-15.856.393-24.059,0,0,6.921-6.444,2.086-14.823L423.6,366.249l-5.71-2.855Z" transform="translate(-307.401 -262.173)" fill="#cbcbcb"/>
    <path id="Path_594" data-name="Path 594" d="M454.263,374l1.532-2.846a7.777,7.777,0,0,1,5.691,5.473c1.65,4.865,2.08,24.517,2.08,24.517l-8.647.438Z" transform="translate(-339.398 -267.2)" fill="#cbcbcb"/>
    <path id="Path_595" data-name="Path 595" d="M381.84,459.233a5.6,5.6,0,0,0,2-8.357l4.191-40.976h-9.057l-3.331,40.011a5.635,5.635,0,0,0,6.193,9.322Z" transform="translate(-300.849 -285.729)" fill="#9f616a"/>
    <path id="Path_596" data-name="Path 596" d="M392.335,370.163l-3.174-4.487s-5.582-3.784-8.428,4.925-2.408,24.845-2.408,24.845l10.836,4.487Z" transform="translate(-303.068 -264.186)" fill="#cbcbcb"/>
    <rect id="Rectangle_215" data-name="Rectangle 215" width="50.086" height="28.173" transform="translate(228.411 39.13)" fill="#f1f1f1"/>
    <rect id="Rectangle_216" data-name="Rectangle 216" width="50.086" height="28.173" transform="translate(331.713 17.217)" fill="#f1f1f1"/>
    <rect id="Rectangle_217" data-name="Rectangle 217" width="50.086" height="28.173" transform="translate(316.062 90.259)" fill="#f1f1f1"/>
    <rect id="Rectangle_218" data-name="Rectangle 218" width="50.086" height="28.173" transform="translate(297.279)" fill="#e5e5e5"/>
    <rect id="Rectangle_219" data-name="Rectangle 219" width="82.433" height="46.368" transform="translate(266.497 51.944)" fill="#45a4e4"/>
    <path id="Path_597" data-name="Path 597" d="M349.472,209.5h86.462V172.35h1.351v38.5H349.472Z" transform="translate(-167.143 -82.43)" fill="#3f3d56"/>
    <circle id="Ellipse_176" data-name="Ellipse 176" cx="7.43" cy="7.43" r="7.43" transform="translate(262.036 88.728)" fill="#3f3d56"/>
    <rect id="Rectangle_220" data-name="Rectangle 220" width="40.529" height="1.351" transform="translate(163.04 140.384)" fill="#45a4e4"/>
    <rect id="Rectangle_221" data-name="Rectangle 221" width="40.529" height="1.351" transform="translate(163.04 144.436)" fill="#45a4e4"/>
    <rect id="Rectangle_222" data-name="Rectangle 222" width="40.529" height="1.351" transform="translate(163.04 148.49)" fill="#45a4e4"/>
    <path id="Path_598" data-name="Path 598" d="M408.879,726.943H234.622a.522.522,0,0,1,0-1.043H408.879a.522.522,0,0,1,0,1.043Z" transform="translate(-234.1 -436.863)" fill="#cbcbcb"/>
    <path id="Path_461" data-name="Path 461" d="M535.914,695.689a5.718,5.718,0,0,1-5.521-.972c-1.934-1.623-2.541-4.3-3.034-6.774l-1.459-7.324,3.055,2.1a22.251,22.251,0,0,1,5.965,5.265c1.521,2.191,2.185,5.183.963,7.554" transform="translate(-373.66 -415.206)" fill="#e6e6e6"/>
    <path id="Path_462" data-name="Path 462" d="M540.582,713.087a29.563,29.563,0,0,0,.41-6.81,10.711,10.711,0,0,0-2.065-5.616,9.341,9.341,0,0,0-2.4-2.172c-.24-.151-.46.229-.222.379a8.881,8.881,0,0,1,3.513,4.239,14.219,14.219,0,0,1,.755,6.132c-.08,1.25-.249,2.491-.419,3.731a.227.227,0,0,0,.153.27.221.221,0,0,0,.27-.154Z" transform="translate(-378.59 -423.737)" fill="#f2f2f2"/>
  </g>
</svg>
