<svg id="akash_bhaiya_ne_diya" data-name="akash bhaiya ne diya" xmlns="http://www.w3.org/2000/svg" width="554.513" height="476.748" viewBox="0 0 554.513 476.748">
  <rect id="Rectangle_246" data-name="Rectangle 246" width="469.268" height="276.376" transform="translate(0.287 0.381)" fill="#e6e6e6"/>
  <rect id="Rectangle_264" data-name="Rectangle 264" width="469.268" height="28.565" fill="#015f9a"/>
  <rect id="Rectangle_247" data-name="Rectangle 247" width="447.446" height="225.667" transform="translate(10.821 37.338)" fill="#fff"/>
  <circle id="Ellipse_194" data-name="Ellipse 194" cx="4.725" cy="4.725" r="4.725" transform="translate(39.743 9.484)" fill="#fff"/>
  <circle id="Ellipse_195" data-name="Ellipse 195" cx="4.725" cy="4.725" r="4.725" transform="translate(57.679 9.484)" fill="#fff"/>
  <circle id="Ellipse_246" data-name="Ellipse 246" cx="4.725" cy="4.725" r="4.725" transform="translate(21.761 9.484)" fill="#fff"/>
  <rect id="Rectangle_250" data-name="Rectangle 250" width="343.074" height="8.961" transform="translate(63.007 76.308)" fill="#e6e6e6"/>
  <rect id="Rectangle_251" data-name="Rectangle 251" width="122.322" height="8.961" transform="translate(173.383 98.709)" fill="#e6e6e6"/>
  <rect id="Rectangle_251-2" data-name="Rectangle 251" width="122.322" height="8.961" transform="translate(173.383 144.149)" fill="#e6e6e6"/>
  <rect id="Rectangle_251-3" data-name="Rectangle 251" width="122.322" height="8.961" transform="translate(173.383 167.424)" fill="#e6e6e6"/>
  <rect id="Rectangle_252" data-name="Rectangle 252" width="243.689" height="8.961" transform="translate(112.7 121.111)" fill="#e6e6e6"/>
  <rect id="Rectangle_243" data-name="Rectangle 243" width="64.36" height="15.912" transform="translate(341.721 208.123)" fill="#015f9a"/>
  <path id="Path_221" data-name="Path 221" d="M529.09,523.768H518.282l-5.143-41.691h15.953Z" transform="translate(-60.732 -57.056)" fill="#9f616a"/>
  <path id="Path_222" data-name="Path 222" d="M508.453,525.861H529.3v13.125H495.328A13.125,13.125,0,0,1,508.453,525.861Z" transform="translate(-58.624 -62.238)" fill="#2f2e41"/>
  <path id="Path_223" data-name="Path 223" d="M575.09,523.768H564.282l-5.143-41.691h15.953Z" transform="translate(-66.177 -57.056)" fill="#9f616a"/>
  <path id="Path_224" data-name="Path 224" d="M554.452,525.861H575.3v13.125h-33.97A13.125,13.125,0,0,1,554.452,525.861Z" transform="translate(-64.069 -62.238)" fill="#2f2e41"/>
  <path id="Path_225" data-name="Path 225" d="M860.059,552.659a9.471,9.471,0,0,1-1.818-14.409l-7.117-101,20.5,1.988.563,98.909a9.523,9.523,0,0,1-12.129,14.511Z" transform="translate(-352.465 -210.117)" fill="#9f616a"/>
  <path id="Path_226" data-name="Path 226" d="M813.96,667.864l-11.9-.567a3.966,3.966,0,0,1-3.779-3.935l-.83-120.395a3.968,3.968,0,0,1,4.537-3.954l47.6,6.91a3.944,3.944,0,0,1,3.4,3.9l6.122,111.558a3.968,3.968,0,0,1-3.967,4H842.317a3.949,3.949,0,0,1-3.919-3.351s-9.69-83.679-11.02-83.63c-1.338.025-9.29,85.978-9.29,85.978a3.983,3.983,0,0,1-3.94,3.5Q814.055,667.869,813.96,667.864Z" transform="translate(-346.113 -222.156)" fill="#2f2e41"/>
  <path id="Path_227" data-name="Path 227" d="M855.963,470.139a3.951,3.951,0,0,1-1.639-3l-1.5-27.222a10.931,10.931,0,0,1,21.465-3.462l6.6,24.338a3.972,3.972,0,0,1-2.791,4.867l-18.771,5.089A3.953,3.953,0,0,1,855.963,470.139Z" transform="translate(-352.665 -209.067)" fill="#3f3d56"/>
  <circle id="Ellipse_179" data-name="Ellipse 179" cx="21.654" cy="21.654" r="21.654" transform="translate(464.11 153.067)" fill="#9f616a"/>
  <path id="Path_228" data-name="Path 228" d="M745.043,425.1a9.277,9.277,0,0,1,.211,1.446l37.873,21.849,9.206-5.3,9.814,12.848-19.693,14.036L739.246,435.89a9.254,9.254,0,1,1,5.8-10.793Z" transform="translate(-337.749 -207.833)" fill="#9f616a"/>
  <path id="Path_229" data-name="Path 229" d="M792.223,446.92a3.951,3.951,0,0,1,1.14-3.221l19.276-19.28a10.931,10.931,0,0,1,16.9,13.68l-13.727,21.153a3.972,3.972,0,0,1-5.488,1.168l-16.314-10.587a3.953,3.953,0,0,1-1.786-2.912Z" transform="translate(-345.492 -208.219)" fill="#3f3d56"/>
  <path id="Path_230" data-name="Path 230" d="M848.475,390.74c-4.04,4.3-11.542,1.993-12.068-3.886a7.1,7.1,0,0,1,.009-1.372c.272-2.6,1.776-4.968,1.416-7.718a4.047,4.047,0,0,0-.741-1.895c-3.219-4.311-10.776,1.928-13.814-1.974-1.863-2.393.327-6.16-1.1-8.835-1.887-3.53-7.475-1.789-10.98-3.722-3.9-2.151-3.666-8.133-1.1-11.772,3.13-4.438,8.619-6.806,14.039-7.147s10.8,1.124,15.863,3.1c5.749,2.241,11.451,5.337,14.989,10.392,4.3,6.148,4.717,14.413,2.565,21.6C856.24,381.884,851.773,387.226,848.475,390.74Z" transform="translate(-347.386 -198.887)" fill="#2f2e41"/>
  <path id="Path_231" data-name="Path 231" d="M890.515,719.951H720.358a.882.882,0,1,1,0-1.763H890.515a.882.882,0,0,1,0,1.763Z" transform="translate(-336.884 -243.367)" fill="#3f3d56"/>
  <path id="Path_232" data-name="Path 232" d="M853.317,417.458q-.564-.406-1.151-.8a28.531,28.531,0,0,0-6.7-3.283v-5.69H828.718v5.279a29.376,29.376,0,0,0-21.3,24.409l-11.406,84.683a3.947,3.947,0,0,0,.82,3,3.9,3.9,0,0,0,2.692,1.475c3.952.394,12.149,1.926,22.64,7.755a33.614,33.614,0,0,0,16.492,4.209,39.752,39.752,0,0,0,13.424-2.39,3.938,3.938,0,0,0,2.573-3.531c.411-9.114,2.813-56.023,9.807-84.637a29.251,29.251,0,0,0-11.141-30.481Z" transform="translate(-345.938 -206.618)" fill="#3f3d56"/>
</svg>
