<svg width="23" height="28" viewBox="0 0 23 28" fill="none" xmlns="http://www.w3.org/2000/svg">
<path d="M0.333008 3.99984C0.333008 3.11578 0.684197 2.26794 1.30932 1.64281C1.93444 1.01769 2.78229 0.666504 3.66634 0.666504H18.9997C19.4374 0.666504 19.8709 0.752723 20.2753 0.920239C20.6797 1.08775 21.0472 1.33329 21.3567 1.64281C21.6662 1.95234 21.9118 2.31981 22.0793 2.72423C22.2468 3.12864 22.333 3.5621 22.333 3.99984V22.9998C22.333 23.2651 22.2277 23.5194 22.0401 23.7069C21.8526 23.8945 21.5982 23.9998 21.333 23.9998H2.33301C2.33301 24.3535 2.47348 24.6926 2.72353 24.9426C2.97358 25.1927 3.31272 25.3332 3.66634 25.3332H21.333C21.5982 25.3332 21.8526 25.4385 22.0401 25.6261C22.2277 25.8136 22.333 26.068 22.333 26.3332C22.333 26.5984 22.2277 26.8527 22.0401 27.0403C21.8526 27.2278 21.5982 27.3332 21.333 27.3332H3.66634C2.78229 27.3332 1.93444 26.982 1.30932 26.3569C0.684197 25.7317 0.333008 24.8839 0.333008 23.9998V3.99984ZM20.333 21.9998V3.99984C20.333 3.64621 20.1925 3.30708 19.9425 3.05703C19.6924 2.80698 19.3533 2.6665 18.9997 2.6665H3.66634C3.31272 2.6665 2.97358 2.80698 2.72353 3.05703C2.47348 3.30708 2.33301 3.64621 2.33301 3.99984V21.9998H20.333Z" fill="#02044A"/>
</svg>
