<svg width="37.352" height="30.561" viewBox="4 0 89 79" fill="none" xmlns="http://www.w3.org/2000/svg">
<rect width="89" height="79" rx="12" fill="#0376BA"/>
<rect width="61" height="61" transform="translate(14 9)" fill="#0376BA"/>
<path d="M44.5778 44.3366V42.4015C47.2572 42.159 49.3628 39.9069 49.3628 37.1698C49.3628 34.2719 47.0027 31.9142 44.1 31.9142H43.1432C41.2957 31.9142 39.7927 30.4148 39.7927 28.5697C39.7927 26.7257 41.2957 25.2252 43.1432 25.2252H44.1C45.9463 25.2252 47.4493 26.7257 47.4493 28.5697V29.0474H49.3628V28.5697C49.3628 25.8338 47.2572 23.5805 44.5778 23.338V21.4029H42.6642V23.338C39.986 23.5805 37.8792 25.8338 37.8792 28.5697C37.8792 31.4688 40.2405 33.8253 43.1432 33.8253H44.1C45.9463 33.8253 47.4493 35.3259 47.4493 37.1698C47.4493 39.0149 45.9463 40.5143 44.1 40.5143H43.1432C41.2957 40.5143 39.7927 39.0149 39.7927 37.1698V36.692H37.8792V37.1698C37.8792 39.9069 39.986 42.159 42.6642 42.4015V44.3366H44.5778Z" fill="white"/>
<path d="M34.0509 51.0256H25.4375V51.9812C25.4375 57.777 30.1601 62.4925 35.9644 62.4925H51.2776C57.0818 62.4925 61.8045 57.777 61.8045 51.9812V51.0256H53.1911C49.6317 51.0256 46.4841 52.8047 44.5778 55.513V49.0665C53.1035 48.5671 59.8909 41.5059 59.8909 32.8697C59.8909 23.913 52.5921 16.625 43.621 16.625C34.6499 16.625 27.3522 23.913 27.3522 32.8697C27.3522 41.5059 34.1385 48.5671 42.6642 49.0665V55.513C40.7579 52.8047 37.6114 51.0256 34.0509 51.0256ZM35.9644 60.5813C31.5383 60.5813 27.8817 57.232 27.4039 52.9368H34.0509C38.4758 52.9368 42.1336 56.2873 42.6114 60.5813H35.9644ZM53.1911 52.9368H59.8381C59.3603 57.232 55.7037 60.5813 51.2776 60.5813H44.6306C45.1084 56.2873 48.765 52.9368 53.1911 52.9368ZM29.2658 32.8697C29.2658 24.9671 35.7051 18.5361 43.621 18.5361C51.5369 18.5361 57.9762 24.9671 57.9762 32.8697C57.9762 40.7736 51.5369 47.2033 43.621 47.2033C35.7051 47.2033 29.2658 40.7736 29.2658 32.8697Z" fill="white"/>
</svg>
