<svg xmlns="http://www.w3.org/2000/svg" width="64" height="64" viewBox="0 0 64 64">
  <g id="Group_285" data-name="Group 285" transform="translate(-814.079 -328.079)">
    <rect id="Rectangle_244" data-name="Rectangle 244" width="64" height="64" rx="20" transform="translate(814.079 328.079)" fill="#015f9a"/>
    <path id="Icon_map-locksmith" data-name="Icon map-locksmith" d="M35.083,17.22H33.3V10.1C33.3,5.414,28.6.72,23.917.72H16.095C11.413.72,6.9,5.414,6.9,10.1V17.22H4.928A1.769,1.769,0,0,0,3.6,18.59v21c0,.493.77.728,1.328.728H35.083c.56,0,1.518-.234,1.518-.728v-21a2.016,2.016,0,0,0-1.518-1.37Zm-11.094,19.8H16.026L17.7,28.8a4.266,4.266,0,0,1-1.671-3.387,4.042,4.042,0,0,1,3.981-4.038,3.928,3.928,0,0,1,3.982,3.9,4.587,4.587,0,0,1-1.669,3.545Zm3.537-19.8H12.675V10.1a3.373,3.373,0,0,1,3.5-3.6h7.664a3.524,3.524,0,0,1,3.688,3.6Z" transform="translate(826.115 339.416)" fill="#fff"/>
  </g>
</svg>
