<svg  width="26" height="26"  viewBox="0 0 101 102" fill="none" xmlns="http://www.w3.org/2000/svg">
<path d="M79.4688 10.8834C92.1426 19.9361 100.391 34.7424 100.391 51.5C100.391 79.0203 78.1008 101.33 50.6006 101.391C23.1407 101.451 0.649646 79.0605 0.609412 51.5805C0.589295 34.8229 8.83734 19.9764 21.4911 10.9035C23.8448 9.23379 27.1239 9.93789 28.5321 12.4525L31.7106 18.1055C32.8975 20.2178 32.3342 22.8934 30.3828 24.3418C22.0342 30.5379 16.7032 40.3551 16.7032 51.4799C16.683 70.048 31.6905 85.2969 50.5 85.2969C68.9274 85.2969 84.4176 70.3699 84.2969 51.2787C84.2366 40.858 79.328 30.7994 70.5971 24.3217C68.6457 22.8732 68.1026 20.1977 69.2895 18.1055L72.468 12.4525C73.8762 9.95801 77.1352 9.21367 79.4688 10.8834ZM58.5469 53.1094V4.82812C58.5469 2.15254 56.3944 0 53.7188 0H47.2813C44.6057 0 42.4532 2.15254 42.4532 4.82812V53.1094C42.4532 55.785 44.6057 57.9375 47.2813 57.9375H53.7188C56.3944 57.9375 58.5469 55.785 58.5469 53.1094Z" fill="black"/>
</svg>
