<svg xmlns="http://www.w3.org/2000/svg" width="21.527" height="24.692" viewBox="0 0 21.527 24.692">
  <path id="Icon_material-notifications-off" data-name="Icon material-notifications-off" d="M26.26,24.251,10.862,8.359,7.608,5,6,6.612l3.546,3.546v.013A9.3,9.3,0,0,0,8.533,14.5v6.331L6,23.365v1.266H23.386l2.533,2.533,1.608-1.608ZM16.13,28.442a2.524,2.524,0,0,0,2.533-2.533H13.6A2.524,2.524,0,0,0,16.13,28.442Zm7.6-9.269v-4.66c0-3.9-2.077-7.142-5.7-8V5.649a1.9,1.9,0,0,0-3.8,0V6.51a5.33,5.33,0,0,0-.532.152c-.127.038-.253.089-.38.139h-.013c-.013,0-.013,0-.025.013-.291.114-.582.253-.861.393a.012.012,0,0,0-.013.013Z" transform="translate(-6 -3.75)"/>
</svg>
