<svg xmlns="http://www.w3.org/2000/svg" width="478" height="296" viewBox="0 0 478 296">
  <g id="Group_253" data-name="Group 253" transform="translate(-721 -302)">
    <g id="Ellipse_168" data-name="Ellipse 168" transform="translate(721 506)" fill="#fff" stroke="#707070" stroke-width="1">
      <ellipse cx="239" cy="46" rx="239" ry="46" stroke="none"/>
      <ellipse cx="239" cy="46" rx="238.5" ry="45.5" fill="none"/>
    </g>
    <g id="undraw_not_found_60pq" transform="translate(761 302)">
      <circle id="Ellipse_141" data-name="Ellipse 141" cx="22.732" cy="22.732" r="22.732" transform="translate(52.778 13.852)" fill="#ff6584"/>
      <path id="Path_534" data-name="Path 534" d="M305.09,182.914c0,53.637-31.887,72.365-71.221,72.365s-71.22-18.728-71.22-72.365S233.87,61.042,233.87,61.042,305.09,129.277,305.09,182.914Z" transform="translate(-118.981 -61.042)" fill="#f2f2f2"/>
      <path id="Path_535" data-name="Path 535" d="M264.19,186.033l.73-44.89,30.356-55.535L265.034,134.1l.328-20.184,20.921-40.179-20.835,34.837h0l.59-36.3,22.4-31.987-22.31,26.279L266.5,0l-2.316,88.12.19-3.635L241.6,49.621l22.412,41.842-2.122,40.543-.063-1.076L235.565,94.241l26.179,40.491-.265,5.07-.048.076.022.416-5.384,102.862h7.194l.863-53.13,26.114-40.392Z" transform="translate(-151.895)" fill="#3f3d56"/>
      <path id="Path_536" data-name="Path 536" d="M948.631,284.91c0,43.9-26.1,59.234-58.3,59.234s-58.3-15.33-58.3-59.234,58.3-99.758,58.3-99.758S948.631,241.006,948.631,284.91Z" transform="translate(-550.61 -141.07)" fill="#f2f2f2"/>
      <path id="Path_537" data-name="Path 537" d="M907.945,276.387l.6-36.744,24.848-45.458-24.754,39.694.269-16.522,17.126-32.889-17.055,28.516h0l.483-29.715L927.8,157.086,909.533,178.6l.3-54.487-1.9,72.131.156-2.975-18.644-28.538,18.345,34.25-1.737,33.187-.052-.881-21.493-30.032,21.428,33.144-.217,4.15-.039.063.018.341-4.408,84.2h5.889l.706-43.489,21.374-33.063Z" transform="translate(-570.346 -80.028)" fill="#3f3d56"/>
      <ellipse id="Ellipse_142" data-name="Ellipse 142" cx="196.984" cy="9.957" rx="196.984" ry="9.957" transform="translate(0 231.74)" fill="#3f3d56"/>
      <ellipse id="Ellipse_143" data-name="Ellipse 143" cx="33.739" cy="1.705" rx="33.739" ry="1.705" transform="translate(283.246 256.443)" fill="#3f3d56"/>
      <ellipse id="Ellipse_144" data-name="Ellipse 144" cx="33.739" cy="1.705" rx="33.739" ry="1.705" transform="translate(161.159 272.894)" fill="#3f3d56"/>
      <ellipse id="Ellipse_145" data-name="Ellipse 145" cx="77.08" cy="3.896" rx="77.08" ry="3.896" transform="translate(25.193 256.91)" fill="#3f3d56"/>
      <circle id="Ellipse_146" data-name="Ellipse 146" cx="28.06" cy="28.06" r="28.06" transform="translate(6.423 173.072)" fill="#2f2e41"/>
      <rect id="Rectangle_187" data-name="Rectangle 187" width="8.524" height="15.273" transform="translate(21.438 223.001) rotate(0.675)" fill="#2f2e41"/>
      <rect id="Rectangle_188" data-name="Rectangle 188" width="8.524" height="15.273" transform="translate(38.486 223.202) rotate(0.675)" fill="#2f2e41"/>
      <ellipse id="Ellipse_147" data-name="Ellipse 147" cx="2.664" cy="7.104" rx="2.664" ry="7.104" transform="translate(21.224 241.113) rotate(-89.325)" fill="#2f2e41"/>
      <ellipse id="Ellipse_148" data-name="Ellipse 148" cx="2.664" cy="7.104" rx="2.664" ry="7.104" transform="translate(38.276 240.959) rotate(-89.325)" fill="#2f2e41"/>
      <circle id="Ellipse_149" data-name="Ellipse 149" cx="9.59" cy="9.59" r="9.59" transform="translate(25.687 184.447)" fill="#fff"/>
      <circle id="Ellipse_150" data-name="Ellipse 150" cx="3.197" cy="3.197" r="3.197" transform="translate(32.08 190.84)" fill="#3f3d56"/>
      <path id="Path_538" data-name="Path 538" d="M60.351,510.819C58.2,500.646,65.568,490.479,76.8,488.11s22.071,3.958,24.217,14.131-5.32,13.827-16.549,16.2S62.5,520.991,60.351,510.819Z" transform="translate(-52.778 -336.101)" fill="#5c6dff"/>
      <path id="Path_539" data-name="Path 539" d="M162.986,590.692c0,19.562-11.629,26.393-25.975,26.393q-.5,0-1-.011c-.665-.014-1.323-.046-1.973-.09-12.947-.916-23.006-8.1-23.006-26.291,0-18.828,24.06-42.585,25.867-44.344l0,0,.1-.1S162.986,571.13,162.986,590.692Z" transform="translate(-85.7 -373.907)" fill="#5c6dff"/>
      <path id="Path_540" data-name="Path 540" d="M162.548,614.092l9.5-13.275-9.524,14.732-.025,1.524c-.665-.014-1.323-.046-1.973-.09l1.024-19.572-.008-.152.017-.029.1-1.848-9.548-14.769L161.686,594l.022.392.774-14.788-8.174-15.261,8.274,12.665.806-30.658,0-.1v.1l-.135,24.175,8.138-9.584L163.223,572.6l-.215,13.24,7.6-12.707-7.63,14.655-.12,7.361,11.031-17.685L162.814,597.72Z" transform="translate(-112.184 -373.907)" fill="#3f3d56"/>
      <circle id="Ellipse_151" data-name="Ellipse 151" cx="28.06" cy="28.06" r="28.06" transform="translate(225.005 172.768)" fill="#2f2e41"/>
      <rect id="Rectangle_189" data-name="Rectangle 189" width="8.524" height="15.273" transform="matrix(0.956, -0.294, 0.294, 0.956, 247.311, 225.636)" fill="#2f2e41"/>
      <rect id="Rectangle_190" data-name="Rectangle 190" width="8.524" height="15.273" transform="matrix(0.956, -0.294, 0.294, 0.956, 263.608, 220.628)" fill="#2f2e41"/>
      <ellipse id="Ellipse_152" data-name="Ellipse 152" cx="7.104" cy="2.664" rx="7.104" ry="2.664" transform="matrix(0.956, -0.294, 0.294, 0.956, 251.068, 237.858)" fill="#2f2e41"/>
      <ellipse id="Ellipse_153" data-name="Ellipse 153" cx="7.104" cy="2.664" rx="7.104" ry="2.664" transform="matrix(0.956, -0.294, 0.294, 0.956, 267.26, 232.511)" fill="#2f2e41"/>
      <circle id="Ellipse_154" data-name="Ellipse 154" cx="9.59" cy="9.59" r="9.59" transform="translate(242.068 184.239)" fill="#fff"/>
      <circle id="Ellipse_155" data-name="Ellipse 155" cx="3.197" cy="3.197" r="3.197" transform="translate(248.461 190.632)" fill="#3f3d56"/>
      <path id="Path_541" data-name="Path 541" d="M653.239,524.988c-5.147-9.034-1.236-20.962,8.735-26.642s22.226-2.962,27.373,6.071-.849,14.791-10.82,20.472S658.386,534.022,653.239,524.988Z" transform="translate(-433.857 -341.108)" fill="#5c6dff"/>
      <path id="Path_542" data-name="Path 542" d="M524.723,587.227c0,17.957-10.675,24.227-23.844,24.227q-.458,0-.914-.01c-.61-.013-1.214-.042-1.812-.083-11.885-.841-21.118-7.434-21.118-24.134,0-17.283,22.086-39.092,23.745-40.705l0,0,.1-.093S524.723,569.27,524.723,587.227Z" transform="translate(-321.701 -374.024)" fill="#5c6dff"/>
      <path id="Path_543" data-name="Path 543" d="M524.322,608.707l8.721-12.186L524.3,610.045l-.023,1.4c-.61-.013-1.214-.042-1.812-.083l.94-17.966-.007-.139.016-.026.089-1.7-8.764-13.557,8.792,12.284.02.36.71-13.574-7.5-14.009,7.595,11.626.739-28.142,0-.1v.093l-.123,22.192,7.47-8.8-7.5,10.709-.2,12.154,6.975-11.664-7,13.452-.11,6.757,10.126-16.234-10.163,18.592Z" transform="translate(-346.012 -374.024)" fill="#3f3d56"/>
      <path id="Path_544" data-name="Path 544" d="M780.985,601.692c0,19.562-11.629,26.393-25.975,26.393q-.5,0-1-.011c-.665-.014-1.323-.046-1.974-.09-12.947-.916-23.006-8.1-23.006-26.291,0-18.828,24.06-42.586,25.867-44.344l0,0,.1-.1S780.985,582.13,780.985,601.692Z" transform="translate(-484.194 -381)" fill="#5c6dff"/>
      <path id="Path_545" data-name="Path 545" d="M780.548,625.092l9.5-13.275-9.524,14.732-.025,1.524c-.665-.014-1.323-.046-1.974-.09l1.024-19.572-.008-.152.017-.028.1-1.848-9.548-14.769L779.686,605l.022.392.774-14.787-8.174-15.261,8.274,12.665.805-30.658,0-.1v.1l-.134,24.175,8.138-9.584L781.222,583.6l-.215,13.24,7.6-12.707-7.63,14.655-.12,7.36,11.031-17.685L780.814,608.72Z" transform="translate(-510.678 -381)" fill="#3f3d56"/>
      <ellipse id="Ellipse_156" data-name="Ellipse 156" cx="4.404" cy="14.03" rx="4.404" ry="14.03" transform="translate(227.608 209.58) rotate(-64.626)" fill="#2f2e41"/>
      <ellipse id="Ellipse_157" data-name="Ellipse 157" cx="4.404" cy="14.03" rx="4.404" ry="14.03" transform="translate(11.202 208.705) rotate(-68.159)" fill="#2f2e41"/>
    </g>
  </g>
</svg>
