<svg width="214" height="177" viewBox="0 0 214 177" fill="none" xmlns="http://www.w3.org/2000/svg">
<rect x="51.5185" y="39.6296" width="120.21" height="10.5679" rx="5.28395" fill="#ECECEC"/>
<rect x="23.1173" y="39.6296" width="21.7963" height="10.5679" rx="5.28395" fill="#ECECEC"/>
<path d="M26.1908 173.053H184.049C186.25 165.127 188.672 155.308 172.82 148.615C167.867 146.523 165.885 132.763 174.472 132.763C180.086 136.396 219.187 128.139 213.111 92.4727C210.469 85.3174 201.684 71.0727 187.682 71.3369H142.107H22.8883C15.7329 73.3184 1.2241 80.9141 0.431504 95.445C-1.10965 104.692 0.629652 124.573 19.9161 130.121C27.2916 131.002 35.083 132.433 35.7679 141.68C35.9881 144.652 29.8235 147.624 22.8883 151.257C17.9346 155.77 11.6599 166.448 26.1908 173.053Z" fill="#ECECEC"/>
<path d="M149.617 48.6323C149.184 48.5911 148.772 48.5293 148.38 48.4468C147.989 48.3644 147.71 48.1274 147.546 47.7359C147.36 47.3031 147.36 46.8291 147.546 46.314C147.731 45.7988 147.927 45.4381 148.133 45.2321C148.483 44.8611 148.854 44.4593 149.246 44.0265C149.637 43.5938 150.101 43.1095 150.637 42.5737C151.193 42.0173 151.873 41.3579 152.677 40.5954C153.481 39.8123 154.48 38.8953 155.675 37.8443C156.5 37.1437 157.159 36.5667 157.654 36.1133C158.148 35.6393 158.591 35.2066 158.983 34.815C159.374 34.4235 159.807 33.9804 160.281 33.4858C161.002 32.744 161.61 32.1052 162.105 31.5694C162.599 31.013 162.898 30.5287 163.001 30.1165C163.125 29.7044 163.156 29.4159 163.094 29.251C163.053 29.0656 162.867 28.9419 162.537 28.8801C162.208 28.7977 161.682 28.7358 160.961 28.6946C159.683 28.5916 158.509 28.6019 157.437 28.7255C156.386 28.8286 155.407 28.9625 154.501 29.1274C154.356 29.1686 154.181 29.0965 153.975 28.911C153.79 28.7255 153.697 28.5916 153.697 28.5092C153.779 28.4061 153.821 28.2619 153.821 28.0764C153.821 27.8909 153.738 27.7364 153.573 27.6127C153.491 27.4067 153.491 27.2109 153.573 27.0254C153.656 26.8194 153.738 26.6751 153.821 26.5927C153.985 26.5102 154.295 26.4381 154.748 26.3763C155.201 26.3145 155.665 26.2423 156.139 26.1599C156.448 26.0981 156.901 26.0569 157.499 26.0363C158.117 26.0157 158.735 26.0054 159.354 26.0054C159.992 26.0054 160.497 26.026 160.868 26.0672C161.61 26.129 162.373 26.2217 163.156 26.3454C163.959 26.4484 164.66 26.6236 165.258 26.8709C165.876 27.0976 166.278 27.4376 166.463 27.8909C166.69 28.3649 166.731 28.7874 166.587 29.1583C166.463 29.5292 166.288 30.0238 166.061 30.642C165.814 31.0954 165.392 31.7033 164.794 32.4658C164.217 33.2076 163.547 33.9907 162.785 34.815C162.043 35.6187 161.28 36.3812 160.497 37.1024C159.343 38.174 158.303 39.1323 157.375 39.9772C156.469 40.8015 155.562 41.6052 154.655 42.3882C154.078 42.8828 153.542 43.3568 153.048 43.8102C152.553 44.2429 152.017 44.7272 151.44 45.263C151.234 45.5309 151.193 45.7473 151.317 45.9121C151.461 46.077 151.956 46.1388 152.8 46.0976C153.274 46.077 153.645 46.0358 153.913 45.9739C154.181 45.9121 154.47 45.8503 154.779 45.7885C155.088 45.7266 155.521 45.6854 156.077 45.6648C157.149 45.603 158.035 45.5515 158.735 45.5103C159.457 45.4691 160.106 45.4484 160.683 45.4484C160.848 45.4484 160.982 45.4691 161.085 45.5103C161.208 45.5515 161.373 45.7163 161.579 46.0049C161.765 46.0667 161.868 46.2212 161.888 46.4685C161.909 46.6952 161.868 46.9322 161.765 47.1795C161.662 47.4474 161.517 47.6534 161.332 47.7977C161.188 47.7977 160.93 47.8286 160.559 47.8904C160.209 47.9729 159.817 48.0347 159.385 48.0759C158.972 48.1377 158.601 48.1583 158.272 48.1377C158.004 48.1171 157.489 48.1274 156.726 48.1686C155.984 48.2305 155.181 48.3129 154.315 48.4159C153.553 48.5396 152.718 48.6117 151.811 48.6323C150.905 48.6529 150.173 48.6529 149.617 48.6323Z" fill="#02446E"/>
<path d="M175.892 28.9801C175.633 28.9554 175.387 28.9184 175.152 28.8691C174.918 28.8198 174.752 28.678 174.653 28.4437C174.542 28.1848 174.542 27.9012 174.653 27.593C174.764 27.2848 174.881 27.069 175.005 26.9457C175.214 26.7238 175.436 26.4834 175.67 26.2245C175.905 25.9656 176.182 25.6758 176.503 25.3553C176.835 25.0224 177.242 24.6278 177.723 24.1717C178.204 23.7031 178.802 23.1545 179.517 22.5257C180.01 22.1065 180.405 21.7613 180.701 21.4901C180.997 21.2065 181.262 20.9476 181.496 20.7133C181.73 20.4791 181.989 20.214 182.273 19.9181C182.704 19.4742 183.068 19.092 183.364 18.7715C183.66 18.4386 183.838 18.1488 183.9 17.9022C183.974 17.6557 183.993 17.4831 183.956 17.3844C183.931 17.2735 183.82 17.1995 183.623 17.1625C183.425 17.1132 183.111 17.0762 182.679 17.0515C181.915 16.9899 181.212 16.996 180.571 17.07C179.942 17.1317 179.357 17.2118 178.814 17.3104C178.728 17.3351 178.623 17.292 178.5 17.181C178.389 17.07 178.333 16.9899 178.333 16.9406C178.383 16.8789 178.407 16.7926 178.407 16.6817C178.407 16.5707 178.358 16.4782 178.259 16.4042C178.21 16.281 178.21 16.1638 178.259 16.0529C178.309 15.9296 178.358 15.8433 178.407 15.794C178.506 15.7446 178.691 15.7015 178.962 15.6645C179.233 15.6275 179.511 15.5844 179.794 15.535C179.979 15.498 180.251 15.4734 180.608 15.4611C180.978 15.4487 181.348 15.4426 181.718 15.4426C182.1 15.4426 182.402 15.4549 182.624 15.4796C183.068 15.5165 183.524 15.572 183.993 15.646C184.473 15.7076 184.893 15.8124 185.25 15.9604C185.62 16.096 185.86 16.2994 185.971 16.5707C186.107 16.8543 186.132 17.107 186.045 17.3289C185.971 17.5509 185.867 17.8468 185.731 18.2166C185.583 18.4879 185.33 18.8516 184.973 19.3078C184.627 19.7516 184.227 20.2201 183.771 20.7133C183.327 21.1941 182.871 21.6503 182.402 22.0819C181.712 22.723 181.089 23.2963 180.534 23.8018C179.992 24.2949 179.449 24.7758 178.907 25.2443C178.562 25.5402 178.241 25.8238 177.945 26.095C177.649 26.3539 177.329 26.6437 176.983 26.9642C176.86 27.1245 176.835 27.254 176.909 27.3526C176.996 27.4512 177.292 27.4882 177.797 27.4636C178.081 27.4512 178.303 27.4266 178.463 27.3896C178.623 27.3526 178.796 27.3156 178.981 27.2786C179.166 27.2416 179.425 27.217 179.757 27.2046C180.399 27.1677 180.929 27.1368 181.348 27.1122C181.779 27.0875 182.168 27.0752 182.513 27.0752C182.612 27.0752 182.692 27.0875 182.753 27.1122C182.827 27.1368 182.926 27.2355 183.049 27.4081C183.16 27.4451 183.222 27.5375 183.234 27.6855C183.247 27.8211 183.222 27.9629 183.16 28.1108C183.099 28.2711 183.012 28.3944 182.901 28.4807C182.815 28.4807 182.661 28.4992 182.439 28.5362C182.229 28.5855 181.995 28.6225 181.736 28.6472C181.49 28.6842 181.268 28.6965 181.071 28.6842C180.91 28.6718 180.602 28.678 180.146 28.7026C179.702 28.7396 179.221 28.7889 178.703 28.8506C178.247 28.9246 177.748 28.9677 177.205 28.9801C176.663 28.9924 176.225 28.9924 175.892 28.9801Z" fill="#02446E"/>
<circle cx="28.4013" cy="117.568" r="4.62346" fill="#02446E"/>
<circle cx="186.59" cy="88.8364" r="7.59568" fill="#02446E"/>
<circle cx="206.404" cy="168.756" r="7.59568" fill="#02446E"/>
<circle cx="44.5833" cy="7.59568" r="7.59568" fill="#02446E"/>
<path d="M116.247 38.6389C116.247 35.5734 115.029 32.6334 112.862 30.4657C110.694 28.298 107.754 27.0803 104.688 27.0803C101.623 27.0803 98.6828 28.298 96.5151 30.4657C94.3475 32.6334 93.1297 35.5734 93.1297 38.6389L104.688 38.6389H116.247Z" fill="#015F9A"/>
<path d="M150.593 75.9567C150.593 76.0943 150.592 76.2318 150.59 76.369C150.592 76.4516 150.593 76.5343 150.593 76.6172V123.512H153.565C158.125 123.512 161.821 127.209 161.821 131.768C161.821 136.328 158.125 140.025 153.565 140.025H127.671C126.439 140.025 125.494 141.105 125.494 142.336C125.494 152.733 117.066 161.16 106.67 161.16C96.2734 161.16 87.8457 152.733 87.8457 142.336C87.8457 141.105 86.9004 140.025 85.6688 140.025H59.7747C55.2149 140.025 51.5185 136.328 51.5185 131.768C51.5185 127.209 55.2149 123.512 59.7747 123.512C60.6866 123.512 61.4259 122.773 61.4259 121.861V76.6172C61.4259 76.5343 61.4267 76.4516 61.4282 76.369C61.4267 76.2318 61.4259 76.0943 61.4259 75.9567C61.4259 53.7051 81.3865 35.6666 106.009 35.6666C130.632 35.6666 150.593 53.7051 150.593 75.9567Z" fill="#015F9A"/>
<path d="M86.2862 123.182C77.5706 123.371 69.2209 123.373 62.7468 123.182H86.2862C107.654 122.719 131.222 121.139 134.741 118.559C142.006 114.596 146.497 107.462 140.685 65.7191C139.694 60.2149 133.354 45.574 122.522 38.9691C131.438 40.6203 149.602 56.8024 149.602 73.3147L150.593 123.182H86.2862Z" fill="#02446E"/>
<path d="M72.654 48.8765C58.4536 66.0493 61.4254 74.7631 61.4254 110.43C61.4254 115.651 74.9658 114.926 74.9658 114.926C57.0537 88.5104 75.2878 57.9388 97.0923 51.1882C115.836 45.3853 102.707 36.9876 97.0923 36.9876C89.1664 36.9876 78.2684 43.2623 72.654 48.8765Z" fill="#067CC6"/>
<path d="M123.764 143.327C123.764 145.322 123.333 147.297 122.497 149.141C121.661 150.984 120.436 152.658 118.891 154.069C117.346 155.48 115.511 156.599 113.493 157.362C111.474 158.126 109.311 158.518 107.126 158.518C104.941 158.518 102.777 158.126 100.758 157.362C98.7399 156.599 96.9057 155.48 95.3607 154.069C93.8157 152.658 92.5901 150.984 91.754 149.141C90.9178 147.297 90.4875 145.322 90.4875 143.327L107.126 143.327H123.764Z" fill="#067CC6"/>
<rect x="54.1605" y="125.984" width="62.0864" height="10.2473" rx="5.12364" fill="#02446E"/>
<g filter="url(#filter0_d_53_3)">
<path d="M79.2592 81.2407C82.1214 85.0935 90.0913 90.4876 99.074 81.2407" stroke="black" stroke-width="0.660494"/>
</g>
<g filter="url(#filter1_d_53_3)">
<path d="M112.614 81.2407C115.476 85.0935 123.446 90.4876 132.429 81.2407" stroke="black" stroke-width="0.660494"/>
</g>
<g filter="url(#filter2_d_53_3)">
<ellipse cx="106.009" cy="100.725" rx="4.62346" ry="1.65123" fill="#02446E"/>
</g>
<path d="M115.356 34.2936C112.961 26.9908 104.559 26.3858 101.208 27.6794C101.105 27.7189 101.018 27.7866 100.952 27.8742C99.4746 29.8332 100.75 30.7798 102.81 30.7231C102.957 30.719 103.099 30.6565 103.213 30.5636C106.866 27.5851 111.435 31.2967 114.288 34.7694C114.729 35.3059 115.572 34.9535 115.356 34.2936Z" fill="#02446E"/>
<defs>
<filter id="filter0_d_53_3" x="76.3521" y="81.0106" width="25.6008" height="10.9501" filterUnits="userSpaceOnUse" color-interpolation-filters="sRGB">
<feFlood flood-opacity="0" result="BackgroundImageFix"/>
<feColorMatrix in="SourceAlpha" type="matrix" values="0 0 0 0 0 0 0 0 0 0 0 0 0 0 0 0 0 0 127 0" result="hardAlpha"/>
<feOffset dy="2.64198"/>
<feGaussianBlur stdDeviation="1.32099"/>
<feComposite in2="hardAlpha" operator="out"/>
<feColorMatrix type="matrix" values="0 0 0 0 0 0 0 0 0 0 0 0 0 0 0 0 0 0 0.25 0"/>
<feBlend mode="normal" in2="BackgroundImageFix" result="effect1_dropShadow_53_3"/>
<feBlend mode="normal" in="SourceGraphic" in2="effect1_dropShadow_53_3" result="shape"/>
</filter>
<filter id="filter1_d_53_3" x="109.707" y="81.0106" width="25.6008" height="10.9501" filterUnits="userSpaceOnUse" color-interpolation-filters="sRGB">
<feFlood flood-opacity="0" result="BackgroundImageFix"/>
<feColorMatrix in="SourceAlpha" type="matrix" values="0 0 0 0 0 0 0 0 0 0 0 0 0 0 0 0 0 0 127 0" result="hardAlpha"/>
<feOffset dy="2.64198"/>
<feGaussianBlur stdDeviation="1.32099"/>
<feComposite in2="hardAlpha" operator="out"/>
<feColorMatrix type="matrix" values="0 0 0 0 0 0 0 0 0 0 0 0 0 0 0 0 0 0 0.25 0"/>
<feBlend mode="normal" in2="BackgroundImageFix" result="effect1_dropShadow_53_3"/>
<feBlend mode="normal" in="SourceGraphic" in2="effect1_dropShadow_53_3" result="shape"/>
</filter>
<filter id="filter2_d_53_3" x="98.7439" y="97.0925" width="14.5309" height="8.58644" filterUnits="userSpaceOnUse" color-interpolation-filters="sRGB">
<feFlood flood-opacity="0" result="BackgroundImageFix"/>
<feColorMatrix in="SourceAlpha" type="matrix" values="0 0 0 0 0 0 0 0 0 0 0 0 0 0 0 0 0 0 127 0" result="hardAlpha"/>
<feOffset dy="0.660494"/>
<feGaussianBlur stdDeviation="1.32099"/>
<feComposite in2="hardAlpha" operator="out"/>
<feColorMatrix type="matrix" values="0 0 0 0 0 0 0 0 0 0 0 0 0 0 0 0 0 0 0.25 0"/>
<feBlend mode="normal" in2="BackgroundImageFix" result="effect1_dropShadow_53_3"/>
<feBlend mode="normal" in="SourceGraphic" in2="effect1_dropShadow_53_3" result="shape"/>
</filter>
</defs>
</svg>
