<svg width="16" height="16" viewBox="0 0 16 16" fill="none" xmlns="http://www.w3.org/2000/svg">
<path d="M4.3097 8.95526L9.9253 3.20347C9.98546 3.14185 10.4668 2.64884 11.2289 2.38179C12.2919 2.03257 13.3749 2.32016 14.2373 3.20347C15.1197 4.08678 15.3804 5.17551 15.0395 6.26424C14.7988 7.04484 14.2974 7.57894 14.2373 7.64056L8.20051 13.8237C7.15761 14.8919 4.55037 16.2682 2.14368 13.8237C-0.242947 11.3792 1.12084 8.68821 2.14368 7.64056L8.62168 0.984928C8.86234 0.738423 9.2434 0.738423 9.48407 0.984928C9.72474 1.23143 9.72474 1.62173 9.48407 1.86824L3.02613 8.52387C2.92585 8.60604 0.900228 10.763 3.02613 12.9404C5.09187 15.0563 7.1175 13.1664 7.33811 12.9404L13.3749 6.73671C13.3749 6.73671 13.7158 6.3875 13.8763 5.89449C14.0768 5.23714 13.9364 4.66196 13.3749 4.08678C12.1715 2.85426 11.0083 3.88136 10.7877 4.08678L5.17209 9.81802C4.97154 10.0234 4.83115 10.3727 5.17209 10.7219C5.51304 11.0711 5.83393 10.9068 6.03449 10.7219L9.9253 6.73671C10.166 6.51075 10.5671 6.51075 10.7877 6.73671C11.0284 6.98322 11.0284 7.39406 10.7877 7.64056L6.89688 11.6052C6.35538 12.1393 5.25232 12.5707 4.3097 11.6052C3.34702 10.6397 3.76819 9.48935 4.3097 8.95526Z" fill="white"/>
</svg>
