<svg xmlns="http://www.w3.org/2000/svg" width="55" height="55" viewBox="0 0 55 55">
  <path id="Icon_material-group-work" data-name="Icon material-group-work" d="M30.5,3A27.5,27.5,0,1,0,58,30.5,27.51,27.51,0,0,0,30.5,3Zm-11,42.625a6.875,6.875,0,1,1,6.875-6.875A6.878,6.878,0,0,1,19.5,45.625ZM23.625,19.5A6.875,6.875,0,1,1,30.5,26.375,6.878,6.878,0,0,1,23.625,19.5ZM41.5,45.625a6.875,6.875,0,1,1,6.875-6.875A6.878,6.878,0,0,1,41.5,45.625Z" transform="translate(58 58) rotate(180)" fill="#45a4e4"/>
</svg>
