<svg width="24" height="24" viewBox="0 0 24 24" fill="none" xmlns="http://www.w3.org/2000/svg">
<path d="M12 0C10.3636 0 9.08523 0.630952 8.16477 1.89286C7.24432 3.15476 6.78409 4.76786 6.78409 6.73214C6.77273 9.17262 7.52273 11.1071 9.03409 12.5357C9.40998 12.9063 9.12766 13.5105 8.90809 13.9906L8.84659 14.125C8.72159 14.4107 8.53693 14.6339 8.29261 14.7946C8.0483 14.9554 7.53409 15.1845 6.75 15.4821C6.71591 15.494 5.99716 15.7381 4.59375 16.2143C3.19034 16.6905 2.44318 16.9524 2.35227 17C1.65017 17.3065 1.12636 17.6226 0.780831 17.9484C0.554056 18.1622 0.495265 18.2127 0.402525 18.5102C-0.463414 21.2887 2.35925 24 5.26954 24H18.7305C21.6407 24 24.4634 21.2887 23.5975 18.5102C23.5047 18.2127 23.4459 18.1622 23.2192 17.9484C22.8736 17.6226 22.3498 17.3065 21.6477 17C21.5568 16.9524 20.8097 16.6905 19.4062 16.2143C18.0028 15.7381 17.2841 15.494 17.25 15.4821C16.4659 15.1845 15.9517 14.9554 15.7074 14.7946C15.4631 14.6339 15.2784 14.4107 15.1534 14.125L15.0919 13.9906C14.8723 13.5105 14.59 12.9063 14.9659 12.5357C16.4773 11.1071 17.2273 9.17262 17.2159 6.73214C17.2159 4.76786 16.7557 3.15476 15.8352 1.89286C14.9148 0.630952 13.6364 0 12 0Z" fill="#1D2434"/>
</svg>
