<svg xmlns="http://www.w3.org/2000/svg" width="18.405" height="18.44" viewBox="0 0 18.405 18.44">
  <path id="Icon_feather-phone-call" data-name="Icon feather-phone-call" d="M13.16,4.358a4.406,4.406,0,0,1,3.48,3.48m-3.48-7a7.93,7.93,0,0,1,7,7m-.881,7.031V17.5a1.762,1.762,0,0,1-1.921,1.762,17.437,17.437,0,0,1-7.6-2.705,17.182,17.182,0,0,1-5.287-5.287A17.437,17.437,0,0,1,1.767,3.635,1.762,1.762,0,0,1,3.52,1.714H6.164A1.762,1.762,0,0,1,7.926,3.23a11.313,11.313,0,0,0,.617,2.476,1.762,1.762,0,0,1-.4,1.859L7.027,8.684a14.1,14.1,0,0,0,5.287,5.287l1.119-1.119a1.762,1.762,0,0,1,1.859-.4,11.314,11.314,0,0,0,2.476.617,1.762,1.762,0,0,1,1.516,1.789Z" transform="translate(-1.76 -0.833)" fill="#0376ba"/>
</svg>
