<svg width="218" height="78" viewBox="0 0 218 78" fill="none" xmlns="http://www.w3.org/2000/svg">
<path d="M66.1085 74.4425C65.1051 76.0927 62.4763 75.1391 60.7764 75.7113C61.1164 73.8869 64.5744 74.9815 66.1085 74.4425ZM172.851 58.5871C172.9 58.4627 172.95 58.33 173.033 58.1973C173.099 58.2637 173.174 58.2885 173.249 58.3051C173.29 58.2305 173.332 58.1476 173.39 58.0729C173.439 58.1061 173.481 58.0895 173.531 58.1061C173.655 58.0232 173.771 57.9651 173.895 57.9485C174.211 57.6832 174.517 57.4759 174.866 58.1559C174.783 58.529 174.633 58.7612 174.459 58.9188C174.119 59.6568 173.738 59.2505 173.398 59.748C173.381 59.7646 173.373 59.7729 173.365 59.7895C173.332 59.831 173.315 59.8973 173.282 59.9471C173.282 60.0051 173.274 60.0631 173.29 60.1378C173.696 59.491 174.153 60.0549 174.575 59.9968C174.484 60.1046 174.393 60.1544 174.31 60.2207C174.376 60.3036 174.451 60.4031 174.526 60.569C173.696 61.4895 172.801 60.8841 171.955 61.4148C171.947 59.2919 172.453 60.0797 172.394 58.6285C172.544 58.7032 172.701 58.67 172.851 58.5871ZM67.9329 73.7044C64.6905 73.9366 61.4729 74.9152 58.131 74.1688C61.4812 73.5966 64.6656 72.6098 67.9329 73.7044ZM67.0373 74.6498C67.4519 73.4059 68.8533 74.8405 68.6709 73.6464C68.5216 72.4025 69.0026 74.0693 69.2348 74.4591C68.7041 75.3215 68.1402 74.9649 67.5929 74.8903C67.427 75.1805 67.6841 75.4542 67.7919 75.7278C67.3192 76.4659 66.83 76.5073 66.3324 75.8605C67.0207 75.5371 67.1865 75.8522 67.0373 74.6498ZM52.1521 72.3196C49.8219 73.2235 49.059 71.225 47.359 69.8981C49.0009 70.9347 51.7872 69.6991 52.1521 72.3196ZM5.04195 54.7476C6.59265 53.9018 7.57947 53.4125 8.86482 54.3661C9.52823 54.2998 10.2082 54.5237 10.8882 54.6481C9.62775 55.4856 8.37556 56.4227 7.05704 55.6349C7.08192 55.5934 7.11508 55.5686 7.13997 55.5354C6.11169 56.0247 5.14975 56.2154 5.04195 54.7476ZM20.0515 70.2381C18.3349 70.404 14.8852 72.6513 13.7574 70.1138C15.9633 71.4737 17.2818 69.6328 20.0515 70.2381ZM75.1308 76.9966C75.1474 78.4644 74.0611 77.3366 73.5055 78C73.3313 77.6683 74.6747 76.2751 75.1308 76.9966ZM16.693 52.9398C17.373 52.9398 17.9949 51.5135 18.6998 51.9862C18.1608 52.7076 16.6847 53.9018 16.693 52.9398ZM172.469 69.1684C172.054 68.4221 170.753 69.1104 170.927 67.9162C173.406 67.7918 175.852 66.9792 178.324 66.6475C176.541 68.9943 173.63 66.5977 172.469 69.1684ZM78.8044 73.0245C79.0283 74.3761 77.5854 73.7044 77.1376 73.4723C76.383 73.5883 78.3483 72.7259 78.8044 73.0245ZM176.673 58.6866C177.486 58.9271 178.232 57.3432 179.045 57.6003C178.407 58.7032 176.814 60.1958 176.673 58.6866ZM175.139 70.6279C173.705 70.4123 171.316 71.084 170.462 70.1303C171.88 69.9147 174.277 69.4172 175.139 70.6279ZM81.3586 73.6381C80.72 74.9069 79.8991 73.2318 79.2357 74.1274C79.1279 72.9581 80.7034 73.0493 81.3586 73.6381ZM95.6467 75.7361C96.0779 75.2469 96.7164 75.9351 97.1393 75.4625C97.5954 76.1093 96.6915 76.7478 97.7281 77.3946C97.3301 78.3897 96.3432 76.3332 95.854 76.839C95.0911 76.0595 96.9569 76.7478 95.6467 75.7361ZM6.10352e-05 67.5679C1.55907 64.7568 4.27902 66.0836 5.16634 62.0451C4.8761 62.4846 4.55269 62.2607 4.25415 62.6339C5.07512 62.7997 4.61073 62.6256 4.11317 63.5709C3.92244 62.1446 2.60393 63.5294 2.19759 62.4431C3.62392 62.3021 4.9839 60.71 6.45998 61.9041C6.78339 60.6602 8.6658 59.8558 9.39555 60.9339C12.6628 56.8456 16.2121 61.4314 19.9023 58.3383C19.4379 57.8988 19.413 57.3266 19.8276 56.5969C20.2588 56.9451 19.9852 57.5256 20.0681 57.9817C20.4827 57.4178 20.9388 58.0066 21.3203 56.6881C20.6071 57.4095 19.7696 55.1705 19.0896 56.8456C18.9237 54.7725 18.0115 56.5305 17.3481 55.3613C19.0647 53.4374 20.9305 51.7291 23.1529 51.6794C21.9754 50.7755 19.4627 51.132 17.6881 50.2613C18.2935 48.4121 19.0979 51.1486 19.7032 49.3077C18.5754 48.4452 17.5471 49.7803 16.4608 49.7886C15.4491 50.9413 14.396 51.2979 13.3594 52.0774C14.1472 50.8916 15.1506 49.8135 15.4906 50.195C15.6233 49.9711 15.6896 49.7555 15.7311 49.5647C15.5072 49.4072 15.275 49.175 15.0345 48.8184C15.0096 48.8433 14.993 48.8599 14.9682 48.9013C14.8355 49.1584 14.7028 49.3989 14.5369 49.6311C14.4872 49.7389 14.4291 49.855 14.3794 49.9877C14.3545 49.9628 14.3047 49.9711 14.2716 49.9545C13.0443 51.4223 11.1702 52.2267 9.81018 53.1637C10.3326 52.5832 11.336 51.5798 11.8916 50.7838C11.3526 51.1072 10.8799 51.3974 10.6394 51.4389C11.0706 50.593 11.5433 50.8418 11.9745 49.9794C10.1502 49.8467 8.44189 52.5998 6.60095 52.1686C7.67068 49.7804 9.47847 50.7589 9.92627 47.2511C13.7906 45.8745 16.7013 44.0585 20.7481 43.3785C20.0266 42.3834 19.413 44.1746 18.6915 43.1712C19.0315 42.4829 18.3764 42.1014 18.9818 41.3136C19.9437 43.8512 21.03 41.5209 22.3651 41.9604C22.0583 42.5492 22.0749 43.0385 22.2408 43.4697C23.9076 44.6141 26.3788 41.4712 27.407 42.3419C26.8266 42.0931 27.6558 43.7931 28.0456 44.1912C28.4104 43.5775 28.2031 43.1629 28.5348 42.5575C29.2397 44.4399 29.3475 46.0404 30.9065 45.8828C29.5963 45.2277 31.7606 43.2375 32.0592 42.2673C30.8319 42.1512 30.8484 44.8629 29.7124 43.9341C29.7953 42.1097 31.3046 42.3917 31.5948 40.078C32.3992 39.68 32.1421 41.6453 32.9133 40.5175C32.2499 39.9205 33.9084 40.0946 33.2284 39.2405C32.8967 40.0449 32.5235 40.1693 32.1338 39.6054C32.8221 38.8507 33.046 38.3781 33.3279 37.159C34.1157 38.1044 34.8206 37.242 35.5255 36.4293C37.9054 38.0215 40.0449 37.3083 42.3171 36.96C42.6985 36.8605 43.0883 36.8108 43.478 36.819C44.6722 36.7444 45.9244 36.8771 47.2678 37.5903C48.3043 36.8688 47.2595 35.7078 48.039 35.542C48.0721 36.081 47.9726 36.6366 48.097 37.1756C48.3707 37.1093 48.636 37.1093 48.918 37.1176C48.8434 37.101 48.7687 37.0761 48.6941 37.0512C48.7853 36.8771 48.8848 36.7361 48.9843 36.6117C48.9677 36.5703 48.9429 36.5371 48.9263 36.5039C49.0672 36.3464 49.2165 36.2635 49.3658 36.2137C49.4238 36.1722 49.4736 36.1308 49.5233 36.0893C49.4155 35.9732 49.258 35.8571 49.3824 35.7244C49.457 35.8571 49.5233 35.9566 49.5897 36.0395C49.7224 35.94 49.8633 35.8405 49.996 35.741C49.457 35.6083 48.8019 35.4342 48.8102 34.9283C47.7819 34.862 46.7619 35.2766 45.717 34.9532C45.518 34.8454 45.4268 34.721 45.3853 34.5966C45.2858 34.6215 45.1946 34.6298 45.0951 34.6547C45.3688 33.983 43.9176 34.381 44.5478 33.6762C44.8214 33.784 45.0951 33.7757 45.3605 33.7259C45.3356 33.6762 45.3107 33.6264 45.261 33.5849C44.4234 33.6264 43.561 33.2532 42.7068 33.0045C42.1512 33.021 41.6205 33.0542 41.5044 32.7806C41.3966 32.7806 41.2971 32.7806 41.1893 32.7889C41.0235 32.8718 40.8576 32.9547 40.6917 33.0376C41.3303 33.4025 42.201 34.4805 42.1595 34.8122C41.8195 34.5718 41.4878 34.4557 41.1561 34.3893C41.1478 34.3976 41.1395 34.4142 41.123 34.4308C41.1064 34.4059 41.0898 34.3893 41.0815 34.3727C40.2439 34.2318 39.4313 34.4225 38.5937 33.9415C38.9088 33.5601 39.0996 33.2781 39.1908 33.0708C38.6435 32.9547 38.0962 33.0128 37.5489 33.0957C37.8142 33.2615 38.0381 33.4108 38.1957 33.4854C36.6781 34.2069 35.1025 33.7176 33.5187 32.9796C33.7591 32.5898 34.0411 32.3576 34.3396 32.2167C33.7509 32.0591 32.7558 32.8884 32.9465 32.1006C33.5767 31.545 34.6962 30.7074 36.023 30.724C35.965 30.6908 35.9152 30.6328 35.882 30.5747C36.3298 30.8401 36.0977 30.1933 36.4874 29.8118C36.985 30.384 37.4576 30.0772 37.9552 30.3757C37.5323 30.5084 37.0679 30.7157 36.6781 30.7986C36.8689 30.8401 37.0762 30.8981 37.2835 30.9977C36.4791 32.1337 34.4474 30.8069 34.5718 32.1337C34.9533 32.0259 35.3596 32.0591 35.7577 32.1835C35.7079 32.0674 35.7162 31.9596 35.8489 31.8352C36.8025 31.346 37.7976 32.0177 38.7596 31.5698C38.4942 31.2464 37.2835 31.6196 37.6898 30.9562C38.7679 30.8484 39.8625 30.9811 40.9322 30.7323C40.7498 30.666 40.5591 30.5913 40.3683 30.4752C40.3932 30.4586 40.4264 30.4338 40.4595 30.4089C38.3367 29.9694 36.2137 29.3143 34.0909 28.684C35.3347 28.2362 36.6035 28.5099 37.8723 28.9328C37.7811 28.8416 37.6898 28.7504 37.6069 28.6426C37.7645 28.6757 37.9303 28.7006 38.1045 28.7338C37.6898 28.3855 37.6732 27.9875 38.0547 27.5728C38.4196 27.9792 40.161 27.5894 40.4264 28.2528C39.6552 28.2528 38.884 28.4518 38.1293 28.7421C38.9586 28.9162 39.8625 29.1567 40.7747 29.3143C41.3966 28.1948 40.5259 26.7436 41.38 26.5197C41.4132 27.3904 41.2722 28.2777 41.4215 29.1318C41.7615 29.0323 42.1015 29.0489 42.4498 29.0738L42.4912 29.0157C42.4995 29.0406 42.4995 29.0572 42.5161 29.0738C42.74 29.0904 42.9639 29.0987 43.1795 29.0738C42.8976 28.8748 42.6488 28.5348 42.4912 28.1533C42.4249 28.1284 42.3668 28.0953 42.3088 28.0538C42.2839 28.4518 42.1927 28.7587 41.6454 28.626C41.8278 27.946 41.4215 26.2875 42.6322 26.8845C42.3586 27.0919 42.3337 27.4816 42.3171 27.8465C42.4249 27.8631 42.5327 27.8797 42.6322 27.8879C42.8478 27.6806 43.0551 27.606 43.279 27.5314C43.1546 27.3075 42.8561 27.1001 43.0468 26.8431C43.2458 27.3489 43.4283 27.5894 43.6024 27.7138C43.9839 27.5811 44.1166 27.5977 44.3902 27.7138C44.4317 27.7055 44.4649 27.6889 44.5063 27.6806C44.5727 27.5728 44.6473 27.465 44.7136 27.3738C44.3902 27.4153 44.0668 27.4567 43.7351 27.3738C44.2327 27.0504 44.7385 26.8099 45.2112 26.6192C44.7385 26.5611 44.2576 26.5114 43.7766 26.4284C43.8098 26.5445 43.8429 26.6606 43.8761 26.7684C43.9839 26.6275 44.2824 26.6523 44.0917 26.9841C43.3122 26.7187 42.0849 26.4284 42.3751 25.2509C42.9059 26.5694 45.2195 24.7285 43.8512 25.8231C43.76 25.9889 43.7434 26.1465 43.76 26.2958C44.1746 26.0636 44.6805 26.0636 45.2029 26.105C44.6058 25.0933 45.7917 25.7899 46.3307 25.6821C46.3722 25.6738 46.4136 25.6655 46.4551 25.6572C46.6044 25.425 46.7619 25.2509 46.9526 25.309C46.878 25.4002 46.8614 25.4914 46.8697 25.5743C47.1517 25.5246 47.4585 25.4748 47.7819 25.425C47.8731 25.2675 47.956 25.0851 48.0224 24.8694C47.9478 24.7451 47.8648 24.6621 47.7819 24.5875C47.4253 24.6207 47.0604 24.6373 46.7039 24.6373C46.5712 24.886 46.4053 25.1265 46.1234 25.3836C45.8 25.0187 45.7502 24.8031 45.7917 24.6373C43.0966 24.5875 40.4015 24.2392 37.723 25.0353C38.0713 23.9656 36.2718 24.5626 37.0513 23.4514C38.1127 23.9987 39.1161 22.9373 40.1527 22.929C39.3898 22.6222 38.6352 23.2026 37.8723 22.9041C40.2854 22.3236 43.2127 21.6105 45.6922 21.5027C45.5844 21.4114 45.4268 21.3285 45.1614 21.2124C45.9492 20.3085 46.1234 20.8475 46.3224 21.4861C46.5463 21.4861 46.7536 21.4944 46.9609 21.5027C46.9112 21.1129 46.7785 20.7812 47.2429 21.0217C47.4336 22.4978 49.2165 19.5622 49.5316 21.0549C49.4819 21.0797 49.457 21.1212 49.4238 21.1544C49.5565 21.1212 49.6892 21.0714 49.8385 21.0466C49.8468 20.8227 49.8468 20.5988 49.8219 20.3749C48.9346 20.3749 48.3209 20.2754 48.379 19.811C44.5561 19.5124 40.7166 18.4095 36.9103 18.7329C37.7396 19.7446 34.323 19.0646 34.4806 20.8475C35.7411 20.6485 35.6001 21.9753 36.1889 22.5807C35.3347 22.0002 33.4357 22.7465 33.2616 21.9007C33.8918 21.9422 34.5221 22.2241 35.1274 21.4944C34.0743 21.0963 33.0543 21.8758 32.0343 22.4812C30.9148 21.6022 29.3309 20.5324 28.8997 22.0583C27.7139 20.3915 30.5499 19.7778 31.3128 19.471C31.0392 20.5075 29.7207 20.1758 30.1187 20.9968C30.9397 20.7563 31.7938 21.3949 32.6231 21.2539C32.9133 20.831 32.2333 20.4993 32.7889 20.0515C33.2948 20.69 33.784 20.889 34.2484 20.151C33.7343 19.7363 32.2001 20.1344 32.3494 19.1476C33.1787 19.0481 34.0328 19.8939 34.8372 18.9154C32.366 16.1291 30.4421 18.2934 28.4851 15.2418C28.6841 15.2915 28.8914 15.3413 29.107 15.3993C28.6012 14.8188 28.5763 14.1969 29.0573 13.5335C29.5051 14.1886 31.6777 13.6081 32.0094 14.6862C31.0392 14.6613 30.0855 14.9681 29.1319 15.4076C32.0343 16.2286 35.6333 18.0281 38.0381 14.8437C37.3996 14.4291 34.6547 15.4408 34.066 14.0228C35.6664 14.3545 37.2669 14.4291 38.8342 13.3593C37.922 13.0691 37.043 13.6496 36.1225 13.3593C37.7645 11.9994 39.5474 11.6428 40.2191 11.0955C39.5142 10.8301 38.8093 10.4818 38.1542 11.7589C37.0181 9.55305 38.6601 10.8799 39.3732 10.7057C41.7449 10.1169 46.7204 9.52817 49.515 9.07208C49.2248 8.59941 48.6692 8.88964 48.8765 8.42526C50.6843 8.6077 52.4672 8.18478 54.2169 6.51797C54.9135 7.44674 54.416 7.4882 55.0462 6.43504C55.8174 7.67064 56.9286 6.99894 56.4891 6.07017C57.0447 6.09504 57.2603 6.31894 57.3515 6.94089C57.6998 6.23602 59.0764 5.53115 58.7944 6.56772C57.8988 6.1448 57.8905 7.72039 56.7545 7.69551C57.7081 8.11014 58.6369 7.53795 58.0481 9.00574C63.2641 7.45503 68.5797 9.31257 73.7874 7.09845C74.3016 7.94429 74.0611 7.69551 74.8572 8.18478C80.3883 7.65405 85.9361 7.72039 91.4921 8.08526C96.9071 7.39698 101.65 8.47502 107.497 7.8199C116.652 6.78333 126.926 10.714 136.04 9.71061C131.421 8.28429 126.877 9.15501 122.241 7.18137C126.86 6.21114 131.545 7.74527 136.189 7.57112C135.857 7.13162 134.912 6.74187 135.725 6.19456C136.571 7.19796 138.453 6.34382 137.989 5.28237C139.83 6.67553 141.579 4.72677 143.379 4.78482C145.85 6.33553 148.263 5.68042 150.676 5.30725C150.452 5.63895 150.262 5.97895 150.701 6.2526C156.73 5.51457 162.526 7.09845 167.552 6.3687C167.626 6.9326 168.057 7.18967 168.655 7.32235C168.696 7.18137 168.754 7.01552 168.887 6.88284C169.061 7.18137 169.218 7.32235 169.393 7.42186C169.608 7.43844 169.824 7.43844 170.056 7.43844C170.562 7.21454 171.068 6.65065 171.59 6.87455C171.167 7.24771 171.175 7.36381 171.325 7.42186C171.715 7.43015 172.071 7.43844 172.386 7.47991C172.411 7.36381 172.411 7.24771 172.411 7.13162C172.038 7.00723 171.607 7.18137 171.93 6.68382C172.071 6.78333 172.212 6.73358 172.361 6.65894C172.32 6.4848 172.278 6.31895 172.245 6.15309C172.063 6.11163 171.88 6.07846 171.706 5.99553C171.889 5.9209 172.038 5.8131 172.162 5.68042C172.162 5.64725 172.171 5.60579 172.162 5.57261C174.973 6.07017 177.81 6.44333 180.654 6.74187C180.637 6.78333 180.612 6.80821 180.596 6.85796C181.79 7.3804 182.785 7.33064 183.847 7.4882C184.07 7.52966 184.286 7.57942 184.51 7.62088C184.999 7.74527 185.505 7.92771 186.069 8.25941C185.853 8.2677 185.663 8.32575 185.513 8.48331C185.911 8.56624 186.318 8.64087 186.724 8.69892C186.94 8.86477 187.172 9.02232 187.412 9.23793C187.487 9.10525 187.421 8.94769 187.271 8.78184C188.051 8.91452 188.822 9.0472 189.635 9.28769C189.709 8.85648 189.187 9.0472 188.731 8.53306C188.93 8.45843 189.112 8.39209 189.278 8.31746C191.642 8.63258 194.055 8.97257 196.625 9.7189C200.614 10.8633 205.009 11.0457 209.429 11.1452C209.454 11.195 209.479 11.253 209.504 11.3111C208.791 10.8301 208.144 12.1403 207.456 12.4389C207.082 11.4603 206.577 11.1369 205.764 11.6511C207.19 11.5184 204.993 12.9115 205.822 13.5335C206.693 14.4374 207.588 15.1257 208.417 16.61C207.439 15.7144 207.671 16.6515 206.983 17.4476C206.237 17.8125 206.585 16.1042 205.706 16.6183C205.905 17.6466 205.905 18.6998 205.996 19.7446C204.785 19.6119 203.624 19.6617 202.671 20.35C204.313 20.2754 206.27 20.748 208.036 20.8393C208.517 20.9553 208.898 21.171 208.981 21.7514C208.534 21.4944 208.774 22.1329 208.376 22.5226C207.165 22.5144 206.693 20.7563 205.855 21.3368C205.648 22.3817 205.93 23.3768 204.901 24.4963C205.515 25.5577 206.784 27.0421 207.265 26.8845C207.497 26.4616 207.248 26.0967 207.439 25.6821C208.301 26.1548 207.074 26.8182 207.696 27.3158C209.238 27.9377 210.773 28.087 212.307 28.3192C211.444 27.6392 208.616 27.2162 209.114 26.0055C209.869 26.4699 210.358 26.8762 210.54 25.168C210.98 25.9889 211.627 26.8016 212.066 27.6226C212.315 27.3572 212.066 26.9094 212.473 27.1167C212.016 28.0206 213.128 27.3406 213.335 27.9875C212.033 29.9943 211.054 28.9826 209.421 29.5216C210.366 30.8484 213.857 28.6592 215.3 31.3542C213.277 33.1371 211.154 31.5035 209.097 32.3908C212.016 32.8718 214.944 33.2201 217.854 33.021C216.038 35.0776 213.235 33.3362 212.066 34.4888C211.403 33.3776 208.998 33.7259 207.679 33.7093C207.878 34.1571 207.887 34.6298 207.721 35.1191C206.759 34.4971 206.941 33.7674 206.203 33.1206C205.432 33.8254 205.382 33.1454 204.959 33.2449C204.702 34.6961 204.495 34.0245 203.989 34.8371C204.072 34.8454 204.163 34.8537 204.246 34.8786C204.13 35.0859 203.998 35.1937 203.873 35.2683C206.062 36.0976 209.18 35.4591 210.714 37.6898C208.542 38.7927 205.465 40.5839 203.89 39.0166C203.624 39.4312 203.069 39.8707 203.301 40.2522C204.553 40.1527 206.933 41.4712 207.522 42.2341C206.245 42.8063 203.956 41.5375 203.384 43.0799C201.244 41.098 199.188 41.8361 197.098 41.2887C197.081 42.7731 198.591 46.8697 196.211 46.3389C198.209 44.9458 196.178 40.2688 194.303 40.5258C194.163 40.7414 194.055 40.9819 194.038 41.1727C193.74 41.0648 193.665 40.9488 193.673 40.8161C193.557 40.9073 193.449 41.0151 193.342 41.1561C192.338 40.4429 193.665 40.758 193.391 40.3185C192.438 41.1312 191.169 41.7614 189.875 41.0731C190.058 40.7083 190.282 40.0863 190.58 39.7049C190.074 39.5556 189.577 39.5058 189.087 39.5556C189.386 40.1444 190.049 39.8293 189.452 40.6419C188.847 40.3268 188.913 39.9536 188.913 39.5805C188.184 39.6717 187.487 39.8956 186.807 40.078C186.857 40.1775 186.907 40.2854 186.948 40.4014C187.288 39.9536 187.628 39.9122 187.976 40.0697C187.777 40.418 188.092 40.4678 188.407 40.5093C187.744 40.7 186.583 40.8161 186.102 40.2273C185.953 40.2605 185.795 40.2936 185.654 40.3102C185.43 40.5922 185.165 40.4512 184.875 40.2605C184.576 40.2107 184.286 40.0946 184.004 39.9039C183.905 39.9122 183.813 39.9454 183.722 40.0034C183.929 40.1278 184.12 40.2854 184.294 40.4678C183.896 40.6336 183.457 40.8161 183.009 40.9985C183.183 41.1478 183.374 41.2722 183.581 41.3302C183.158 41.5127 182.727 41.438 182.296 41.2722C180.986 41.7365 179.642 42.0102 178.813 41.38C178.606 41.6453 178.166 41.9273 178.349 42.1595C179.352 42.0848 181.276 42.8809 181.757 43.3453C180.737 43.7185 178.888 42.9556 178.431 43.9258C177.544 43.3038 176.665 43.1297 175.803 43.0634C175.844 43.1048 175.894 43.1463 175.935 43.2126L175.139 44.2326C174.352 44.299 174.866 43.6853 174.07 43.1463C174.086 43.0882 174.111 43.0385 174.144 42.9804C174.061 42.9721 173.987 42.9721 173.904 42.9639C173.821 43.2375 173.713 43.5195 173.531 43.8097C173.788 44.896 174.128 46.2809 172.685 46.0487C173.63 45.5263 173.431 44.299 172.809 43.4282C172.759 43.5029 172.718 43.5526 172.676 43.5609C172.652 43.4199 172.618 43.279 172.569 43.138C172.345 42.8892 172.079 42.6819 171.797 42.5575C171.781 42.5907 171.773 42.6156 171.764 42.6487C171.706 42.5907 171.656 42.5409 171.607 42.4912C171.441 42.4414 171.275 42.4248 171.109 42.4414C171.001 42.5741 170.918 42.7317 170.91 42.8478C170.869 42.8395 170.835 42.8229 170.811 42.8146C170.811 43.2126 170.827 43.6356 170.844 44.0834C171.532 43.9838 172.229 44.0419 172.909 43.959C172.254 44.556 171.565 44.6307 170.877 44.6058C170.902 45.2277 170.952 45.8994 171.01 46.6126C171.126 47.0853 171.3 47.4999 171.557 47.7487C171.391 48.0721 171.275 48.3789 171.184 48.6857C171.275 49.2911 171.433 49.8052 171.607 50.2696C171.996 50.2116 172.394 50.4023 172.776 50.2779C172.146 50.7589 171.482 50.8252 170.844 51.2896C170.446 51.8369 170.089 52.1935 170.155 52.8652C170.512 52.832 170.91 52.7408 170.67 53.3213C170.023 53.4706 169.351 53.3545 168.713 53.9266C168.663 54.0842 168.638 54.2666 168.638 54.4408C169.177 54.4905 169.716 54.5486 170.255 54.6066C170.296 54.5983 170.338 54.5983 170.379 54.5983C171.847 54.4491 173.307 54.2003 174.783 54.1257C175.272 53.9101 175.77 53.6364 176.259 53.2384C176.657 53.8769 177.038 54.0593 177.412 54.0344C175.479 58.189 173.315 57.0364 171.292 58.9934C171.457 58.5373 171.806 58.0315 171.607 57.7164C171.209 58.5373 170.769 58.3549 170.388 59.5822C169.276 58.7032 171.275 58.6037 170.678 57.7246C169.558 57.509 168.356 58.6783 167.593 56.9949C167.452 57.0115 167.336 57.0529 167.228 57.1193C167.112 57.2603 166.979 57.3929 166.855 57.5256C166.722 57.7744 166.639 58.131 166.623 58.6202C166.838 58.5622 167.054 58.5539 167.286 58.5954C168.53 58.2222 169.077 59.3832 170.918 60.6436C170.827 60.7846 170.786 60.9173 170.744 61.0417C170.835 61.1744 170.935 61.2905 171.026 61.4314C170.172 64.2426 168.29 62.6421 167.717 63.7119C167.684 63.8031 167.651 63.9192 167.626 64.0436C167.834 64.1514 168.033 64.2426 168.215 64.3421C168.306 64.168 168.389 63.9938 168.464 63.7948C170.504 64.7899 170.305 65.4616 172.22 65.445C172.137 65.6441 172.046 65.7933 171.963 65.9426C172.021 65.9758 172.079 66.0089 172.154 66.0504C171.399 66.8465 170.695 67.5596 170.164 68.3557C170.155 68.4055 170.139 68.4304 170.139 68.4718C170.122 68.4718 170.114 68.4635 170.106 68.4552C169.948 68.704 169.807 68.9528 169.683 69.2182C168.033 67.5928 166.54 69.5996 164.981 70.1718C165.354 70.6362 166.15 70.9596 165.843 71.6562C165.785 71.6479 165.727 71.623 165.669 71.6064C165.678 71.6396 165.686 71.6728 165.694 71.7142C165.056 72.7923 164.359 72.5435 163.687 72.6679C163.853 71.4903 164.998 72.4771 164.566 71.4986C163.049 70.9762 161.573 71.4074 160.105 72.0128C160.063 72.021 160.022 72.0459 159.98 72.0625C158.148 72.8337 156.315 73.862 154.433 73.7376C154.308 73.8371 154.184 73.9532 154.068 74.0776L153.72 74.7908C151.033 73.0576 146.563 75.3298 145.203 75.8522C145.551 74.7659 146.895 75.2469 146.629 74.2103C130.003 74.4093 113.244 71.4323 96.7081 73.7127L95.7876 72.643C95.6798 72.643 95.5637 72.6264 95.4476 72.5932C89.1204 73.3313 82.6605 71.0176 76.3333 71.6811C76.2503 71.7142 76.1674 71.7391 76.0928 71.7723C76.0679 71.7557 76.0596 71.7391 76.0347 71.7142C74.2767 71.9298 72.5352 72.3693 70.8021 73.1903C69.9231 72.1454 68.8616 72.4025 67.8748 72.5518C67.8914 72.5601 67.8997 72.5601 67.908 72.5684C67.2446 72.8586 66.5729 72.9415 65.9012 73.0327C65.8763 72.6679 66.0256 72.4523 66.2495 72.3362C65.9758 72.1537 65.7188 71.8967 65.5197 71.4157C66.3573 70.7274 67.228 70.9098 68.0904 70.5616C64.9558 68.7952 60.8427 69.5913 56.9203 70.7357C56.7462 69.4752 59.0018 68.7952 58.2637 67.3523C55.6516 68.0406 53.4872 67.427 51.1321 67.3026C51.0077 67.2943 50.8833 67.2943 50.7755 67.2777C50.1204 67.2611 49.4404 67.286 48.7438 67.3938L48.4785 67.9328C48.1385 67.5016 47.956 67.6923 47.84 67.5679C47.6907 67.6094 47.5414 67.6509 47.3922 67.7006C47.1019 68.0655 46.7204 68.1318 46.48 68.0157C46.3887 68.0572 46.2975 68.0821 46.198 68.1235C46.0653 68.4221 46.1648 68.6377 46.2312 68.8782C46.5048 68.8284 46.7702 68.7952 47.0522 68.9943C46.7287 69.2679 46.4468 69.384 46.1814 69.4586C46.1483 69.5167 46.1234 69.5747 46.0819 69.6328C44.979 69.6245 43.8761 69.5084 42.7898 69.7903C42.7483 69.8318 42.7068 69.8401 42.6571 69.8816C43.5444 69.5664 43.4283 70.8933 43.4615 71.7059C44.3571 72.1289 45.2692 72.4191 45.4931 73.3479C44.9375 73.0659 44.4068 73.1654 43.8761 73.323C43.8429 73.6381 43.7683 73.8454 43.5527 73.6547C43.5776 73.5552 43.5776 73.4888 43.5858 73.4142C43.3537 73.4888 43.1298 73.5635 42.8976 73.6215C43.1629 73.5054 44.3736 74.1191 44.0751 74.9898C42.9556 74.9317 42.7151 74.3264 41.4547 74.683C41.5376 74.2683 41.579 73.862 41.579 73.4723C41.5542 73.4723 41.5459 73.4723 41.521 73.464C41.5376 73.3976 41.5293 73.3479 41.5376 73.2898C40.7249 76.4493 37.7479 72.4025 35.8655 74.7742C35.5835 74.5503 35.6084 74.2269 35.6333 73.8952C35.3596 74.2518 35.1274 74.7908 34.9699 75.6615C34.5884 75.6698 34.2235 75.6698 33.8669 75.6366C33.8669 75.6781 33.8587 75.6947 33.8587 75.7278C30.9314 75.4459 28.0456 76.1259 25.0271 73.6713C25.2841 72.4191 25.6905 71.5898 26.3953 70.8684C25.251 69.865 23.3437 70.4869 22.7715 68.8367C22.4066 70.2133 19.5125 70.064 19.0481 68.8947C20.0018 69.5333 20.3583 69.0606 20.8808 68.2811C19.2969 67.7835 17.6633 67.6757 16.013 67.7752C14.9101 68.903 13.7243 68.3308 12.5716 68.1982C10.9214 68.4967 9.27945 68.8616 7.68727 69.1269C7.68727 69.2099 7.67068 69.3011 7.62923 69.4089C7.29753 68.8616 7.01558 69.4338 6.70045 69.4255C6.71704 69.3674 6.72534 69.3177 6.73363 69.2679C5.12486 69.4918 3.57416 69.5664 2.11467 69.3011C2.28052 69.2099 2.42978 68.845 2.28052 68.5796C1.55077 68.9611 0.76297 67.8913 6.10352e-05 67.5679ZM40.0449 33.4191C40.0532 33.4357 40.0532 33.444 40.0532 33.4606C40.0532 33.444 40.0532 33.4357 40.0532 33.4274C40.0532 33.4274 40.0532 33.4274 40.0449 33.4191ZM45.5263 26.1299C45.7419 26.1465 45.9575 26.1714 46.1648 26.1797C46.2395 26.047 46.3058 25.906 46.3887 25.7733C46.0902 25.7485 45.8083 25.8148 45.5263 26.1299ZM46.9609 25.8977C46.9609 25.9143 46.9692 25.9226 46.9692 25.9309C46.9775 25.9309 47.0024 25.9226 47.0107 25.9143C46.9941 25.906 46.9775 25.906 46.9609 25.8977ZM49.059 34.9532C49.1668 35.0113 49.2994 35.0361 49.4404 35.0361C49.3077 34.9947 49.1833 34.9698 49.059 34.9532ZM192.147 40.6336C192.562 40.6502 192.894 40.4429 193.143 40.1029C192.803 39.9205 192.479 40.1112 192.156 40.3932C192.156 40.4761 192.139 40.559 192.147 40.6336ZM190.705 40.9985C190.87 41.04 191.003 40.9985 191.111 40.9239C191.21 40.5839 191.277 40.2522 191.227 39.9288C191.219 39.9205 191.21 39.9205 191.202 39.9205C190.837 40.2936 190.34 40.6917 190.705 40.9985ZM182.893 39.6468C183.001 39.6302 183.109 39.6551 183.216 39.7629C183.316 39.7961 183.415 39.8458 183.515 39.8956C183.656 39.7215 183.639 39.5722 183.589 39.4229C183.017 39.3649 182.47 39.3151 182.006 39.3566C181.997 39.3898 181.997 39.4229 181.989 39.4561C182.296 39.5058 182.603 39.5639 182.893 39.6468ZM162.095 65.6358C163.239 65.3704 164.682 65.9011 165.959 65.8182L165.968 65.7933C165.976 65.8016 165.984 65.8099 165.993 65.8099C166.606 65.6192 167.212 65.3206 167.817 64.8397C165.495 64.3504 164.118 63.8777 162.037 63.3719C162.029 63.3802 162.02 63.3885 162.004 63.3885C162.228 64.0768 161.216 65.1797 162.095 65.6358ZM142.674 14.2632C142.997 14.1057 143.321 13.9896 143.652 13.8735C142.939 13.8403 142.218 13.7574 141.496 13.6081C141.496 13.7574 141.455 13.8984 141.422 14.0476C141.845 14.1306 142.251 14.2052 142.674 14.2632ZM139.979 13.6662C140.153 13.5915 140.352 13.5252 140.592 13.4754C140.601 13.6247 140.584 13.7408 140.559 13.832C140.75 13.8901 140.941 13.9315 141.123 13.9813C141.123 13.8403 141.107 13.691 141.115 13.5418C139.946 13.2847 138.76 12.9281 137.591 12.6462C138.378 13.0774 139.174 13.4008 139.979 13.6662ZM140.501 12.8535C139.888 12.0408 142.417 13.0111 144.142 13.6745C144.482 13.5252 144.822 13.3511 145.153 13.0608C146.464 13.575 148.197 13.691 149.971 13.5667C145.767 12.6628 141.206 12.0077 137.134 11.7423C137.549 12.8867 139.44 12.132 140.501 12.8535ZM37.6732 16.2949C38.1045 16.9169 38.5025 16.3032 38.9503 17.1242C39.3732 16.2452 39.8293 16.3778 40.2688 15.8969C39.8708 16.0213 38.3118 16.1457 37.6732 16.2949ZM43.5195 17.1822C44.4566 18.1027 47.1102 16.7178 48.719 17.4144C47.7819 15.9881 45.12 17.2154 43.5195 17.1822ZM48.6858 13.7989C49.8053 14.031 49.2912 13.5086 48.4702 13.5832C48.6029 13.492 48.719 13.4506 48.8351 13.4008C48.2712 13.5667 47.6907 13.7159 47.1434 13.9067C47.3175 14.031 47.4253 14.1637 47.4419 14.3047C48.1965 14.5203 49.1419 14.6198 50.0955 14.5701C50.0789 14.454 50.0292 14.3213 49.9463 14.1554C49.6146 13.5915 48.3458 15.0593 48.6858 13.7989ZM49.9546 35.3679C49.996 35.3513 50.0375 35.343 50.0789 35.3264C50.0375 35.3015 49.996 35.2766 49.9546 35.2518C49.9546 35.2932 49.9463 35.3347 49.9546 35.3679ZM54.0677 8.18478C54.4408 9.1633 56.5886 9.51159 57.6169 8.57453C56.4311 8.49989 55.2369 8.01063 54.0677 8.18478ZM102.165 14.6198C102.107 14.4706 102.04 14.3213 101.941 14.1554C101.775 14.313 101.65 14.4623 101.551 14.6198C101.75 14.6198 101.957 14.6115 102.165 14.6198ZM83.2824 13.7491C83.3902 13.691 83.5063 13.6164 83.6141 13.4589C83.5395 13.3593 83.4317 13.2515 83.3239 13.152C83.0502 13.2018 82.7766 13.293 82.5112 13.633C82.7683 13.6164 83.0254 13.691 83.2824 13.7491ZM50.5682 14.3379C50.875 13.9813 51.7789 13.9979 52.3428 14.0559C52.575 13.9481 52.8072 13.8237 53.0062 13.6828C53.0394 13.8154 53.1057 13.8984 53.1887 13.9564C53.6613 13.575 54.1257 13.1769 54.275 13.0525C54.4657 13.8984 53.5204 13.4008 53.8935 14.031C54.7311 13.8237 54.8638 14.2549 55.3116 14.0393C55.4277 13.5667 55.9418 13.5998 56.5555 13.7242C56.5389 13.293 56.6218 12.9115 56.9701 12.5716C56.4642 13.6745 57.874 13.1769 58.0398 13.6579C58.2388 13.4008 58.0979 13.1769 58.2223 12.9281C58.5042 13.2598 58.4959 13.633 58.3632 13.9398C58.3715 13.9398 58.3798 13.9398 58.3964 13.9398C58.5954 13.8901 58.8276 13.8486 59.0764 13.8071V13.7989C59.1013 13.7989 59.1179 13.7989 59.1344 13.7989C60.1047 13.6662 61.3817 13.6247 62.808 13.5915C62.8827 13.4671 62.9656 13.3593 63.0154 13.2018C63.2724 13.3428 63.4798 13.4671 63.6539 13.5667C64.1183 13.5584 64.5744 13.5418 65.0553 13.5252C65.0719 13.5086 65.0885 13.5003 65.1051 13.4837C65.13 13.5003 65.1548 13.5086 65.1797 13.5252C66.888 13.4671 68.6792 13.3511 70.3377 13.0691C70.3626 12.812 70.1138 12.5798 69.8484 12.3394C70.3875 11.7174 70.9431 11.676 71.5153 12.1901C71.5318 12.4803 71.4157 12.7125 71.2499 12.895C71.5318 12.8369 71.8138 12.7706 72.0791 12.6876C70.6445 13.4257 70.6943 13.3262 71.8221 13.293C72.046 12.9281 72.585 12.6213 72.9913 12.4306C72.9582 12.3394 72.9333 12.2398 72.8918 12.1486C73.0245 12.2067 73.1655 12.2481 73.2899 12.2979C73.323 12.2813 73.3645 12.2647 73.3811 12.2564C73.3728 12.273 73.3645 12.2979 73.3479 12.3145C73.945 12.5135 74.6167 12.5881 75.3133 12.5964C76.2006 11.394 77.1045 10.4735 77.3201 11.6677C76.582 10.8467 76.8225 12.3311 75.8937 12.5052C76.0762 12.4886 76.2089 12.5135 76.325 12.5633C76.9386 12.5135 77.5688 12.4306 78.2157 12.3559C78.0166 11.7755 78.2157 11.0706 78.9786 11.5184C78.4396 11.8086 78.622 12.0325 78.8376 12.2564C80.7366 12.0077 82.6107 11.7838 84.1283 12.3394C84.1532 12.2979 84.178 12.273 84.2029 12.2233C84.2278 12.2813 84.2775 12.3477 84.3107 12.4057C84.3853 12.4306 84.4766 12.4637 84.5512 12.4969C84.518 12.555 84.4849 12.5798 84.4434 12.6296C84.659 12.953 84.8829 13.2515 85.0985 13.5086C85.3805 13.7076 85.6956 13.832 86.0273 13.8735C86.2843 13.5998 86.7902 13.5584 86.5165 13.1935C85.9692 13.2267 85.48 13.5335 85.8697 12.5384C86.6741 13.5003 88.4819 12.2233 88.598 13.4754C88.1253 13.0028 88.1585 13.2184 88.2414 13.6164C89.3443 13.3511 90.4721 13.0857 91.4506 13.5335C91.1438 13.832 90.8204 13.8652 90.5136 13.8403C92.9848 14.1388 95.4311 14.3213 97.8691 14.4457C97.9105 14.3876 97.9603 14.3462 97.9852 14.2715C97.952 14.3379 97.9603 14.3959 97.952 14.4457C98.2257 14.4623 98.4993 14.4788 98.7647 14.4871C98.8642 14.2301 98.9803 14.1306 99.4447 14.3793C99.3949 14.4291 99.3617 14.4706 99.3286 14.5203C99.5359 14.5203 99.7432 14.5369 99.9588 14.5452C100.564 13.8818 101.418 13.4008 102.123 13.4257C101.866 13.8818 102.455 14.0808 102.762 14.0808C102.513 14.2715 102.455 14.4457 102.48 14.6198C102.712 14.6198 102.944 14.6198 103.185 14.6198C103.226 14.5037 103.284 14.3876 103.392 14.2632C103.516 14.653 103.972 14.5535 104.213 14.6198C105.017 14.6198 105.83 14.6364 106.634 14.6198C106.692 14.6032 106.759 14.6032 106.842 14.6198C111.593 14.5535 116.345 14.2301 121.18 13.8071C121.445 13.5418 121.801 13.4506 122.282 13.7159C124.596 13.5086 126.901 13.2764 129.256 13.0276C129.265 12.895 129.281 12.754 129.339 12.613C129.447 12.812 129.547 12.9198 129.655 12.9945C131.446 12.7954 133.254 12.6047 135.086 12.4057C134.24 12.5218 134.323 11.8169 134.705 11.593C134.962 11.6925 135.235 11.7755 135.493 11.8999C135.202 11.4935 134.912 11.4769 134.705 11.593C130.948 10.1916 125.857 10.0921 121.719 10.3077C116.809 8.70721 111.991 9.7189 107.107 8.79843C101.543 10.4901 95.8872 9.00574 90.2731 9.14672C86.3507 10.1335 82.4034 10.0755 78.4313 9.51159C76.9635 11.3608 75.3713 9.13842 73.9201 11.3442C73.1074 10.0174 72.386 11.2199 71.5816 9.90134C64.5412 11.5101 56.6135 11.4438 50.0872 13.0359C49.8468 13.5003 50.0541 13.9315 50.5682 14.3379ZM50.1536 35.6166C50.2033 35.5752 50.2531 35.5337 50.3028 35.4839C50.195 35.4757 50.0872 35.4674 49.9711 35.4508C49.996 35.5254 50.0209 35.5918 50.0541 35.6664C50.0789 35.6332 50.1204 35.6166 50.1536 35.6166ZM24.0734 48.5116C26.1631 49.4818 28.9494 47.334 31.1553 47.2677C30.5499 46.256 28.3607 45.6507 27.208 46.5214C26.5363 45.6755 28.1948 45.8497 27.5314 45.2443C27.3324 45.1116 27.4153 44.8877 27.5065 44.6555C26.7022 44.1248 26.8597 45.5594 26.6524 46.4136C26.7519 45.4433 25.931 45.7087 26.2875 46.5297C25.4914 47.0687 24.6539 46.5131 23.8495 46.8282C24.1729 47.3423 24.4549 46.795 24.7534 46.8033C24.3222 47.2262 24.1978 47.9643 24.0734 48.5116ZM23.7583 48.3457C23.8993 47.9892 24.032 47.6409 23.8578 47.3921C23.75 47.2428 23.6671 47.0853 23.8163 46.8448C23.6505 46.9194 23.4763 47.0189 23.3105 47.1931C23.3022 47.4336 23.2939 47.6823 23.2524 47.9311C23.4183 48.097 23.5759 48.2379 23.7583 48.3457ZM16.0794 56.0827C16.4774 55.4608 16.154 55.071 16.1955 54.5735C16.5935 55.0213 16.9169 53.9101 17.3233 54.7891C16.9169 55.2783 16.5189 56.1242 16.0794 56.0827ZM15.5652 52.7242C14.7857 53.4042 14.0394 54.7393 13.1853 53.8023C13.6248 52.5501 14.0891 53.1471 14.0477 52.0525C14.5038 53.7193 15.7145 51.0077 15.5652 52.7242ZM170.943 6.21943C170.835 5.87115 170.894 5.59749 171.018 5.35701C171.242 5.39847 171.457 5.43993 171.681 5.48139C171.35 5.83797 171.258 6.30236 170.943 6.21943ZM179.891 5.53115C177.395 4.42824 174.799 3.82288 172.137 3.49947C171.955 3.16777 171.839 2.71167 171.665 2.37168C171.623 2.4629 171.632 2.53753 171.615 2.62046C171.59 2.39655 171.383 2.18924 171.109 1.99022C171.283 1.92388 171.457 1.82437 171.632 1.42632C172.958 1.74144 174.501 2.6785 175.77 2.83606C176.367 3.34191 175.778 3.73995 176.698 4.27068C178.531 5.01701 179.791 4.15458 181.865 5.60578C181.782 5.68871 181.69 5.74676 181.599 5.80481C181.027 5.73017 180.463 5.63895 179.891 5.53115ZM164.168 0.630236C163.994 0.829258 163.845 0.937063 163.696 1.01999C163.646 0.912184 163.621 0.779502 163.629 0.580481C163.696 0.588773 163.762 0.588773 163.828 0.588773C163.812 0.679992 163.754 0.754625 163.77 0.854136C163.895 0.721454 163.994 0.646821 164.094 0.580481C164.259 0.580481 164.442 0.563897 164.633 0.555603C164.848 0.771211 165.031 1.19413 165.868 0.920476C165.86 0.903892 165.852 0.8956 165.843 0.879013C166.042 0.912184 166.241 0.928768 166.432 0.945354C166.498 1.02828 166.548 1.12779 166.565 1.26047C166.067 1.39315 165.561 1.30194 165.072 1.74144C164.732 1.55071 164.425 1.21901 164.168 0.630236ZM171.574 2.81118C171.565 3.01021 171.574 3.20923 171.532 3.41654C171.375 3.39166 171.209 3.37508 171.043 3.35849C171.225 2.95216 171.466 2.57899 170.413 2.48777C170.504 2.33021 170.595 2.25558 170.678 2.19753C170.952 2.40485 171.234 2.63704 171.532 2.92728C171.557 2.88582 171.557 2.85265 171.574 2.81118ZM210.109 17.8705C210.242 17.4642 210.333 17.0661 210.283 16.6681C209.943 16.9086 209.595 16.9086 209.247 16.5354C210.433 15.3661 210.905 17.5969 211.768 17.7212C211.245 18.7246 210.673 18.2851 210.109 17.8705ZM215.649 28.9577C216.395 28.6757 215.839 27.4401 216.445 27.9377C216.047 29.0157 217.232 27.5065 217.465 27.1333C218.369 27.5231 217.672 28.0621 217.921 28.5182C217.183 29.2894 216.411 28.9743 215.649 28.9577ZM207.895 9.17159C208.061 9.44525 208.252 9.63598 208.467 9.80183C208.069 9.81012 207.679 9.81841 207.29 9.79354C207.323 9.45354 207.356 9.10525 207.389 8.76526C207.713 8.76526 208.044 8.78184 208.359 8.78184C208.467 8.97257 208.558 9.1633 208.65 9.35403C208.426 9.42037 208.061 9.36232 207.895 9.17159ZM194.826 8.01063C197.886 8.24282 200.962 8.4999 203.998 8.64916C203.981 8.66575 203.973 8.68233 203.956 8.69062C204.321 9.18818 204.503 9.15501 204.653 9.01403C204.694 9.20476 204.76 9.37891 204.852 9.56134C202.049 9.21305 199.304 8.63258 196.418 8.69062C195.896 8.42526 195.357 8.20965 194.826 8.01063ZM211.751 44.6804C210.69 46.1731 209.529 44.5726 208.434 44.9872C209.52 44.2409 210.648 44.8629 211.751 44.6804ZM39.4727 7.1482C40.0035 6.24431 40.5591 6.37699 41.1147 6.52626L40.1196 7.79502L39.4727 7.1482ZM60.652 6.16139C61.4564 5.71359 61.9705 5.88773 62.269 4.59409C62.7998 5.53944 64.3256 4.43653 64.1763 5.60578C62.9822 5.1414 61.8461 6.67553 60.652 6.16139ZM106.12 10.5399C108.525 11.933 110.839 10.5979 113.235 11.7838C110.665 12.9779 107.082 11.875 104.909 11.2862C105.482 11.3277 105.573 10.7721 106.12 10.5399ZM135.07 5.06677C134.083 4.49458 133.162 6.2609 132.159 4.86774C132.963 3.9141 134.895 4.08824 135.07 5.06677ZM138.586 1.18584C138.669 1.62535 138.776 2.06485 138.868 2.50436C136.927 1.90729 135.028 0.970233 133.668 0C136.67 0.522433 140.75 0.223899 143.08 1.74144C142.939 1.85754 142.798 1.90729 142.657 1.97363C141.355 1.4512 140.111 0.630238 138.586 1.18584ZM88.2414 3.88922C86.6492 3.67361 85.0736 4.30385 83.4732 4.08824C84.9078 3.37508 87.4453 2.80289 88.2414 3.88922ZM83.0088 2.71167C84.999 1.81607 88.117 2.05656 89.4604 2.82777C87.3043 2.70338 85.1814 3.29216 83.0088 2.71167ZM140.045 2.81948C140.012 2.56241 140.004 2.30534 140.103 2.07314C140.667 2.1229 141.389 2.33021 142.102 2.49607C142.093 2.52094 142.077 2.52094 142.069 2.54582C142.193 2.6785 142.433 2.66192 142.682 2.62046C142.972 2.67021 143.263 2.70338 143.528 2.70338C143.578 2.78631 143.586 2.9107 143.536 3.11801C142.475 3.2424 141.272 3.10142 140.045 2.81948ZM33.2367 27.8133C33.7674 27.1997 34.323 27.1416 34.8952 27.664C34.3562 28.286 33.8006 28.3274 33.2367 27.8133ZM42.2093 33.8669C42.6985 33.5518 43.1795 33.1537 43.702 33.5932C43.2127 33.9084 42.7317 34.3064 42.2093 33.8669ZM45.4683 35.5171C44.8712 35.8322 44.2576 35.7742 43.6356 35.5254C44.2161 34.9947 44.8463 35.2186 45.4683 35.5171ZM34.1406 23.7085C34.7625 23.2109 35.3596 22.589 36.0064 23.3021C35.4011 23.7997 34.7874 24.4299 34.1406 23.7085ZM38.1791 26.4202C37.4328 26.9177 36.6698 26.8016 35.8986 26.3953C36.6284 25.566 37.4079 25.9226 38.1791 26.4202ZM48.8102 6.53455C49.1502 5.63066 49.6063 4.72677 49.7721 3.83946C48.1799 3.88922 46.6292 5.33213 45.0122 4.51116C47.3507 3.84776 50.7506 1.69169 52.4672 3.36679C51.5716 3.64873 50.2199 4.8014 50.4604 5.91261C51.8535 6.01212 54.3165 5.33213 55.0462 6.43504C52.9482 5.74676 50.9331 7.73698 48.8102 6.53455ZM49.059 35.7493C48.5282 36.0561 49.1668 37.0015 48.2712 36.8522C48.4121 36.421 48.0804 35.3927 49.059 35.7493ZM41.5044 36.4459C41.9273 36.0561 42.3668 36.0147 42.8395 36.3298C42.4083 36.7278 41.9605 36.761 41.5044 36.4459ZM204.271 44.8877C203.865 45.7004 202.372 45.2941 202.596 44.5726C203.168 45.1116 203.682 43.7102 204.271 44.8877ZM93.4491 10.9877C92.6696 11.8418 92.8521 12.215 94.353 13.2681C93.6233 14.2964 92.794 12.1735 92.0311 12.2979C92.0062 11.933 92.8521 9.95109 93.4491 10.9877ZM34.0079 18.99C33.3113 18.932 32.6148 18.7993 31.9016 18.2437C32.4489 17.5803 34.0991 18.0778 34.0079 18.99ZM177.81 44.8711C178.274 45.2029 178.68 44.3155 179.161 45.0453C178.83 45.5594 177.635 45.3272 177.81 44.8711ZM192.388 43.8429C193.74 42.7565 195.141 43.1878 196.518 42.997C195.182 44.5146 193.773 43.8677 192.388 43.8429ZM188.64 43.7102C189.278 43.7019 190.472 43.4863 190.746 44.4648C188.864 44.5229 186.998 44.8629 185.115 44.8794C184.286 45.7253 183.366 44.7965 182.511 45.0619C182.835 44.8794 183.175 44.8131 183.507 44.8048C182.661 44.7136 181.815 44.5229 180.961 44.1746C183.291 44.2409 186.251 43.7351 188.64 43.7102ZM129.878 12.1652C129.248 11.9911 128.651 12.9447 128.004 12.0989C128.485 11.4852 130.036 11.2282 129.878 12.1652ZM75.645 11.3442C74.7577 12.0491 75.023 12.2233 74.0113 12.4389C73.6465 11.9994 73.4308 11.5433 73.5635 11.0623C74.5421 12.3974 74.285 10.6145 75.645 11.3442ZM69.3675 12.2233C68.0738 13.0691 66.7222 12.0906 65.4202 12.3477C66.7056 11.394 68.049 12.2896 69.3675 12.2233Z" fill="#F44E77"/>
</svg>
