<svg xmlns="http://www.w3.org/2000/svg" width="64" height="64"><g transform="translate(395.22 -653.337)" stroke="#000"><path d="M-353.111 682.068v-3.78a.686.686 0 00-.688-.688h-6.408a.686.686 0 00-.687.688v3.78h-2.438v-5.67c0-.616.496-1.111 1.111-1.111h10.437c.615 0 1.11.495 1.11 1.11v5.67zM-348.04 675.317l.003-5.946 7.638-.01-.004 5.91" fill="#f7931e" stroke-linecap="round" stroke-linejoin="round"/><path d="M-374.842 661.005h6.156M-367.085 661.005h2.563M-364.956 659.006h-9.047M-375.632 659.006h-3.17" fill="none" stroke-linecap="round"/><circle r="1.471" cy="678.114" cx="-335.731" fill="#f9d015" stroke-linecap="round" stroke-linejoin="round"/><path d="M-385.888 703.318l1.812-1.812M-390.13 707.561l1.812-1.812M-388.318 703.318l-1.812-1.812M-384.076 707.561l-1.812-1.812" fill="none" stroke-linecap="round"/><circle cx="-385.576" cy="712.63" r="1.471" fill="#f9d015" stroke-linecap="round" stroke-linejoin="round"/><path d="M-336.633 660.113v5.063M-336.633 666.673v1.745M-334.633 668.418v-5.063M-334.633 661.858v-1.745M-374.04 713.018h6.158M-366.282 713.018h2.563M-364.153 711.018h-9.047M-374.829 711.018h-3.17" fill="none" stroke-linecap="round"/><circle r="1.471" cy="658.147" cx="-387.641" fill="#f9d015" stroke-linecap="round" stroke-linejoin="round"/><path d="M-345.357 658.39l1.813-1.812M-349.6 662.632l1.813-1.812M-347.787 658.39l-1.812-1.812M-343.545 662.633l-1.812-1.813" fill="none" stroke-linecap="round"/><path d="M-365.716 689.94l6.714 3.948h4l6.897-4.055 7.696-4.526 2.406-1.414v-.48c0-1.108-.892-2-2-2h-25.711" fill="#cfddf7" stroke-linecap="round" stroke-linejoin="round"/><path d="M-376.003 697.206v8.207c0 1.108.892 2 2 2H-340.003c1.108 0 2-.892 2-2v-19.246l-2.25 1.323-7.837 4.608-6.913 4.065h-4l-6.92-4.07" fill="#79a1e8" fill-rule="evenodd" stroke-linejoin="round"/><path style="isolation:auto;mix-blend-mode:normal;solid-color:#000;solid-opacity:1" d="M-372.733 665.419h-19.447v31.779h26.254v-25.594z" color="#000" overflow="visible" fill="#cfddf7" stroke-linecap="round"/><path d="M-373.35 665.417v6.472h7.11" fill="#483db6" fill-rule="evenodd"/><path d="M-389.917 687.393h21.728M-389.917 690.86h21.728M-377.719 694.328h9.53M-389.906 670.758h13.946" fill="none"/><path d="M-357.713 662.791v5.063M-357.713 669.35v1.746" fill="none" stroke-linecap="round"/><circle r="1.471" cy="712.276" cx="-350.751" fill="#f9d015" stroke-linecap="round" stroke-linejoin="round"/><path d="M-379.09 679.427v-5.039a5.038 5.038 0 015.038 5.039z" fill="#f7931e" fill-rule="evenodd" stroke-linecap="round" stroke-linejoin="round"/><path d="M-382.904 682.718a5.04 5.04 0 012.12-8.037" fill="none" stroke-linecap="round" stroke-linejoin="round"/><path d="M-374.052 679.427a5.038 5.038 0 01-7.58 4.352l2.542-4.352z" fill="#7693dd" fill-rule="evenodd" stroke-linecap="round" stroke-linejoin="round"/><rect width="3.624" height="6.629" x="-358.815" y="691.678" ry=".705" fill="#f7931e" stroke-linecap="round" stroke-linejoin="round"/><path d="M-340.42 705.465l.018-31.028-7.638.01-.004 31.024" fill="#f9d015" stroke-linecap="round"/><path d="M-348.044 705.47l3.8 7.042 3.823-7.047" fill="#cfddf7" stroke-linecap="round" stroke-linejoin="round"/><path d="M-340.421 705.254l-7.457.01" fill="none" stroke-linecap="round" stroke-linejoin="round"/></g></svg>