<svg xmlns="http://www.w3.org/2000/svg" width="31.196" height="31.195" viewBox="0 0 31.196 31.195">
  <path id="post" d="M26.048,23.4H19.5l-7.8,7.8V23.4H5.151A4.906,4.906,0,0,1,1.708,21.66,5.062,5.062,0,0,1,0,18.157V5.24a5.062,5.062,0,0,1,1.706-3.5A4.906,4.906,0,0,1,5.151,0h20.9a4.906,4.906,0,0,1,3.443,1.736A5.062,5.062,0,0,1,31.2,5.24V18.157a5.062,5.062,0,0,1-1.706,3.5A4.906,4.906,0,0,1,26.049,23.4ZM27.3,6.915a2.906,2.906,0,0,0-.884-2.133,2.871,2.871,0,0,0-2.1-.884H6.886a2.855,2.855,0,0,0-2.117.884A2.933,2.933,0,0,0,3.9,6.915v9.565a2.933,2.933,0,0,0,.868,2.133,2.855,2.855,0,0,0,2.117.884H24.312a2.869,2.869,0,0,0,2.1-.884,2.911,2.911,0,0,0,.884-2.133V6.915Z" transform="translate(-0.002)"/>
</svg>
