<svg xmlns="http://www.w3.org/2000/svg" width="546.15" height="323.931" viewBox="0 0 546.15 323.931">
  <g id="undraw_Our_solution_re_8yk6" transform="translate(0 0)">
    <path id="Path_638" data-name="Path 638" d="M314.732,694.329l8.771-2.782a29.69,29.69,0,0,0-.211-14.284c-3.524,7.835-13.862,9.755-19.753,16.008a17.858,17.858,0,0,0-4.568,14.79l-1.845,6.26A29.925,29.925,0,0,0,318.9,701.932a28.9,28.9,0,0,0,3.387-6.412C318.551,695.146,314.732,694.329,314.732,694.329Z" transform="translate(-188.86 -391.631)" fill="#f2f2f2"/>
    <path id="Path_639" data-name="Path 639" d="M892.716,694.329l-8.771-2.782a29.691,29.691,0,0,1,.211-14.284c3.524,7.835,13.862,9.755,19.753,16.008a17.859,17.859,0,0,1,4.568,14.79l1.845,6.26a29.925,29.925,0,0,1-21.779-12.389,28.9,28.9,0,0,1-3.387-6.412C888.9,695.146,892.716,694.329,892.716,694.329Z" transform="translate(-456.008 -391.631)" fill="#f2f2f2"/>
    <path id="Path_640" data-name="Path 640" d="M302.865,671.359l6.61-6.4a29.689,29.689,0,0,0-6.559-12.69c.34,8.584-8.057,14.913-10.54,23.138a17.859,17.859,0,0,0,2.507,15.275l1.14,6.426a29.925,29.925,0,0,0,13.968-20.8,28.908,28.908,0,0,0,.172-7.25C306.647,670.387,302.865,671.359,302.865,671.359Z" transform="translate(-186.365 -380.237)" fill="#f2f2f2"/>
    <path id="Path_641" data-name="Path 641" d="M313.318,431.72a4.983,4.983,0,0,1-5.64-5.155L275.819,394.24l8.894-6.192,28.52,33.722a5.01,5.01,0,0,1,.086,9.95Z" transform="translate(-179.148 -259.794)" fill="#ffb6b6"/>
    <path id="Path_642" data-name="Path 642" d="M257.244,369.174s-2.258,1.353,1.5,5.474c3.009,3.3,16.138,19.162,21.378,22.474a3.915,3.915,0,0,0,1.538,4.546l8.057-10.055c-.46-2.883-2.4-2.736-3.5-2.385l-5.055-6.284-11.454-19.212-10.855,4.434Z" transform="translate(-170.374 -248.709)" fill="#6c63ff"/>
    <path id="Path_643" data-name="Path 643" d="M113.4,555.928h6.006l2.858-23.167H113.4Z" transform="translate(-51.695 -242.856)" fill="#ffb6b6"/>
    <path id="Path_644" data-name="Path 644" d="M206.955,719.649l9.6-.573v4.111l9.123,6.3a2.568,2.568,0,0,1-1.459,4.681H212.79l-1.969-4.067-.769,4.067h-4.307Z" transform="translate(-147.205 -410.691)" fill="#2f2e41"/>
    <path id="Path_645" data-name="Path 645" d="M175.4,555.928h6.006l2.858-23.167H175.4Z" transform="translate(-79.957 -242.856)" fill="#ffb6b6"/>
    <path id="Path_646" data-name="Path 646" d="M268.955,719.649l9.6-.573v4.111l9.123,6.3a2.568,2.568,0,0,1-1.459,4.681H274.79l-1.969-4.067-.769,4.067h-4.307Z" transform="translate(-175.467 -410.691)" fill="#2f2e41"/>
    <path id="Path_647" data-name="Path 647" d="M205.478,564.807h.065l1.155-37.668a9.85,9.85,0,0,1,.129-9.308l.165-.3-.429-1.988a12.661,12.661,0,0,1,.723-7.62l1.078-35.138c-3.85-24.95,14.5-41.222,14.5-41.222l-3.353-14.1L252.7,414.2l-2.356,17.369,5.9,20.273c3.9,38,3.193,75.038-3,110.917l.169.085a1.426,1.426,0,0,1,.582,1.88c-.286.829-1.01,1.33-1.618,1.121l-14.515-.5a1.426,1.426,0,0,1-.582-1.88c.286-.829,1.01-1.33,1.618-1.121l.987.5-2.1-36.348.234-6.639-.481-7.532-2.225-33.88L226.893,520.1l-8.6,45.128a1.582,1.582,0,0,1-1.067,2.755H205.478a1.587,1.587,0,0,1,0-3.175Z" transform="translate(-146.36 -271.713)" fill="#2f2e41"/>
    <path id="Path_648" data-name="Path 648" d="M597.964,305.65H392.672a26.064,26.064,0,0,1-26.035-26.035V191.371a26.064,26.064,0,0,1,25.96-26.035,368.627,368.627,0,0,1,100.634-12.974c33.207.206,68.465,4.571,104.8,12.974A26.065,26.065,0,0,1,624,191.371v88.245a26.064,26.064,0,0,1-26.035,26.035ZM392.672,166.424a24.975,24.975,0,0,0-24.946,24.947v88.245a24.975,24.975,0,0,0,24.946,24.947H597.965a24.975,24.975,0,0,0,24.946-24.947V191.371a24.975,24.975,0,0,0-24.946-24.947l-.123-.014c-75.18-17.4-142.244-17.4-205.025-.006Z" transform="translate(-220.546 -152.354)" fill="#e6e6e6"/>
    <path id="Path_649" data-name="Path 649" d="M407.311,312.787a.616.616,0,0,1-.616-.616V219.148a.616.616,0,1,1,1.232,0v93.023a.616.616,0,0,1-.616.616Z" transform="translate(-238.807 -182.521)" fill="#e6e6e6"/>
    <path id="Path_650" data-name="Path 650" d="M506.311,312.787a.616.616,0,0,1-.616-.616V219.148a.616.616,0,1,1,1.232,0v93.023a.616.616,0,0,1-.616.616Z" transform="translate(-283.935 -182.521)" fill="#e6e6e6"/>
    <path id="Path_651" data-name="Path 651" d="M605.311,312.787a.616.616,0,0,1-.616-.616V219.148a.616.616,0,1,1,1.232,0v93.023a.616.616,0,0,1-.616.616Z" transform="translate(-329.064 -182.521)" fill="#e6e6e6"/>
    <path id="Path_652" data-name="Path 652" d="M704.311,312.787a.616.616,0,0,1-.616-.616V219.148a.616.616,0,1,1,1.232,0v93.023a.616.616,0,0,1-.616.616Z" transform="translate(-374.193 -182.521)" fill="#e6e6e6"/>
    <path id="Path_653" data-name="Path 653" d="M399.009,244.623a.616.616,0,0,1,.616-.616h220.9a.616.616,0,1,1,0,1.232h-220.9a.616.616,0,0,1-.616-.616Z" transform="translate(-235.303 -194.133)" fill="#e6e6e6"/>
    <path id="Path_654" data-name="Path 654" d="M399.009,370.623a.616.616,0,0,1,.616-.616h220.9a.616.616,0,1,1,0,1.232h-220.9a.616.616,0,0,1-.616-.616Z" transform="translate(-235.303 -251.57)" fill="#e6e6e6"/>
    <path id="Path_655" data-name="Path 655" d="M399.009,307.623a.616.616,0,0,1,.616-.616h220.9a.616.616,0,1,1,0,1.232h-220.9a.616.616,0,0,1-.616-.616Z" transform="translate(-235.303 -222.852)" fill="#e6e6e6"/>
    <path id="Path_656" data-name="Path 656" d="M800.153,312.787a.616.616,0,0,0,.616-.616V219.148a.616.616,0,1,0-1.232,0v93.023a.616.616,0,0,0,.616.616Z" transform="translate(-417.882 -182.521)" fill="#e6e6e6"/>
    <path id="Path_657" data-name="Path 657" d="M453.04,276.189H437.523a3.545,3.545,0,0,1-3.507-3.047,78.9,78.9,0,0,1,0-21.248,3.545,3.545,0,0,1,3.448-3.047c4.882-2.188,10.139-2.188,15.629,0a3.5,3.5,0,0,1,2.666,1.286,3.585,3.585,0,0,1,.74,2.988,47.7,47.7,0,0,0,0,18.794,3.585,3.585,0,0,1-.74,2.988,3.5,3.5,0,0,1-2.719,1.286Z" transform="translate(-250.933 -195.592)" fill="#6c63ff"/>
    <path id="Path_658" data-name="Path 658" d="M454.967,263.741h-13.06a.816.816,0,0,1,0-1.632h13.06a.816.816,0,0,1,0,1.632Z" transform="translate(-254.486 -202.385)" fill="#fff"/>
    <path id="Path_659" data-name="Path 659" d="M454.967,275.741h-13.06a.816.816,0,0,1,0-1.632h13.06a.816.816,0,0,1,0,1.632Z" transform="translate(-254.486 -207.855)" fill="#fff"/>
    <path id="Path_660" data-name="Path 660" d="M454.967,287.741h-13.06a.816.816,0,0,1,0-1.632h13.06a.816.816,0,0,1,0,1.632Z" transform="translate(-254.486 -213.325)" fill="#fff"/>
    <path id="Path_661" data-name="Path 661" d="M658.04,342.189H642.523a3.545,3.545,0,0,1-3.507-3.047,78.9,78.9,0,0,1,0-21.248,3.545,3.545,0,0,1,3.448-3.047c4.882-2.188,10.139-2.188,15.629,0a3.5,3.5,0,0,1,2.666,1.286,3.584,3.584,0,0,1,.74,2.988,47.7,47.7,0,0,0,0,18.794,3.585,3.585,0,0,1-.74,2.988A3.5,3.5,0,0,1,658.04,342.189Z" transform="translate(-344.382 -225.678)" fill="#6c63ff"/>
    <path id="Path_662" data-name="Path 662" d="M659.967,329.741h-13.06a.816.816,0,0,1,0-1.632h13.06a.816.816,0,0,1,0,1.632Z" transform="translate(-347.934 -232.471)" fill="#fff"/>
    <path id="Path_663" data-name="Path 663" d="M659.967,341.741h-13.06a.816.816,0,0,1,0-1.632h13.06a.816.816,0,0,1,0,1.632Z" transform="translate(-347.934 -237.941)" fill="#fff"/>
    <path id="Path_664" data-name="Path 664" d="M745.04,276.189H729.523a3.545,3.545,0,0,1-3.507-3.047,78.89,78.89,0,0,1,0-21.248,3.545,3.545,0,0,1,3.448-3.047c4.882-2.188,10.139-2.188,15.629,0a3.5,3.5,0,0,1,2.666,1.286,3.585,3.585,0,0,1,.74,2.988,47.7,47.7,0,0,0,0,18.794,3.584,3.584,0,0,1-.74,2.988,3.5,3.5,0,0,1-2.719,1.286Z" transform="translate(-384.04 -195.592)" fill="#fd6584"/>
    <path id="Path_665" data-name="Path 665" d="M746.967,275.741h-13.06a.816.816,0,0,1,0-1.632h13.06a.816.816,0,0,1,0,1.632Z" transform="translate(-387.593 -207.855)" fill="#fff"/>
    <path id="Path_666" data-name="Path 666" d="M746.967,287.741h-13.06a.816.816,0,0,1,0-1.632h13.06a.816.816,0,0,1,0,1.632Z" transform="translate(-387.593 -213.325)" fill="#fff"/>
    <path id="Path_667" data-name="Path 667" d="M253.042,288.7c-3.087-4.731-8.128-8.449-13.741-8.763s-12.36,4.466-15.131,9.385c-5.068,9-5.134,19.316,1.846,25.574.948-.322,4.891-.782,5.855-1.093l.611-1.1.754.671c8.626.861,11.282-5,25.085-8.7C257.513,299.077,256.13,293.432,253.042,288.7Z" transform="translate(-153.954 -210.506)" fill="#2f2e41"/>
    <circle id="Ellipse_180" data-name="Ellipse 180" cx="11.407" cy="11.407" r="11.407" transform="translate(75.832 77.663)" fill="#ffb7b7"/>
    <path id="Path_668" data-name="Path 668" d="M255.642,350.615l-6.528-3.917-13.056-1.306-11.539,5.876.116,17.951,7.32,18.618,28.519,5.878,3.327-16.362s8.486-11.4-.653-17.926Z" transform="translate(-155.763 -240.35)" fill="#6c63ff"/>
    <path id="Path_669" data-name="Path 669" d="M251.08,283.756a14.328,14.328,0,0,0-17.585,17.935c6.948.555,13.815-.094,19.229-5.01l.482-4.216,1.975,3.528q2.988-.841,5.986-1.692a14.63,14.63,0,0,0-10.087-10.545Z" transform="translate(-159.576 -212.01)" fill="#2f2e41"/>
    <path id="Path_670" data-name="Path 670" d="M225.911,453.231a4.983,4.983,0,0,1-1.1-7.561l-4.21-45.19,10.8.834.74,44.158a5.01,5.01,0,0,1-6.23,7.758Z" transform="translate(-153.975 -265.461)" fill="#ffb6b6"/>
    <path id="Path_671" data-name="Path 671" d="M222.649,356.518s-2.6-.381-2.3,5.188c.242,4.459-.906,31.94,1.055,37.821a3.915,3.915,0,0,0-1.686,4.493l12.6-2.686c1.468-2.523,1.164-5.114.1-5.534l.063-8.064,2.785-26.582-10.725-4.393Z" transform="translate(-153.493 -245.419)" fill="#6c63ff"/>
    <path id="Path_672" data-name="Path 672" d="M342.934,481.9a3.584,3.584,0,0,1-.74-2.988,47.7,47.7,0,0,0,0-18.794,3.585,3.585,0,0,1,.74-2.988,3.5,3.5,0,0,1,2.666-1.286c5.49-2.188,10.747-2.188,15.629,0a3.545,3.545,0,0,1,3.447,3.047,78.9,78.9,0,0,1,0,21.248,3.545,3.545,0,0,1-3.507,3.047H345.653A3.5,3.5,0,0,1,342.934,481.9Z" transform="translate(-209.371 -289.952)" fill="#6c63ff"/>
    <path id="Path_673" data-name="Path 673" d="M350.914,470.741h13.06a.816.816,0,0,0,0-1.632h-13.06a.816.816,0,0,0,0,1.632Z" transform="translate(-213.007 -296.745)" fill="#fff"/>
    <path id="Path_674" data-name="Path 674" d="M350.914,482.741h13.06a.816.816,0,1,0,0-1.632h-13.06a.816.816,0,1,0,0,1.632Z" transform="translate(-213.007 -302.215)" fill="#fff"/>
    <path id="Path_675" data-name="Path 675" d="M350.914,494.741h13.06a.816.816,0,0,0,0-1.632h-13.06a.816.816,0,0,0,0,1.632Z" transform="translate(-213.007 -307.685)" fill="#fff"/>
    <path id="Path_676" data-name="Path 676" d="M904.817,560.911h-6.693L894.941,535.1h9.878Z" transform="translate(-407.954 -243.92)" fill="#a0616a"/>
    <path id="Path_677" data-name="Path 677" d="M996.312,737.042h-21.58v-.273a8.4,8.4,0,0,1,8.4-8.4h0l3.942-2.99,7.355,2.991h1.884Z" transform="translate(-497.743 -413.564)" fill="#2f2e41"/>
    <path id="Path_678" data-name="Path 678" d="M847.677,560.911h-6.693L837.8,535.1h9.878Z" transform="translate(-381.907 -243.92)" fill="#a0616a"/>
    <path id="Path_679" data-name="Path 679" d="M939.175,737.042h-21.58v-.273a8.4,8.4,0,0,1,8.4-8.4h0l3.942-2.99,7.355,2.991h1.884Z" transform="translate(-471.698 -413.564)" fill="#2f2e41"/>
    <path id="Path_680" data-name="Path 680" d="M892.1,278.806l-8.848,27.206-27.892-.914,8.571-26.292Z" transform="translate(-389.913 -127.092)" fill="#2f2e41"/>
    <path id="Path_681" data-name="Path 681" d="M937.243,475.275l52.584,1.372-.914,25.606s.914,6.859-.915,8.688-2.743,1.829-1.829,5.03-3.917,8.429-3.33,9.015a23.666,23.666,0,0,1,1.959,3.788l-4.573,26.063s-3.2,45.268-4.115,46.182-1.829,0-.915,2.286,1.829,1.372.915,2.286a33.664,33.664,0,0,0-2.286,2.743H962.768s-.833-4.572-.833-5.03-.915-3.2-.915-3.658.808-1.266.808-1.266a15.049,15.049,0,0,0,.563-2.85c0-.914,2.743-36.123,2.743-36.123l-5.487-45.725-13.26,44.811s0,39.324-.914,40.238-.915.457-.457,2.286,2.286,1.372.914,2.743-1.829-.915-1.372,1.372l.457,2.286-13.718.2s-1.829-3.854-.914-5.226.86-1-.256-3.242-1.573-2.7-1.116-3.159.457-2.889.457-2.889l2.286-43.75s.457-46.183.457-47.554a4.561,4.561,0,0,0-.38-2.057v-1.862l1.752-6.6Z" transform="translate(-476.822 -299.556)" fill="#2f2e41"/>
    <path id="Path_682" data-name="Path 682" d="M944.106,348.032l16-5.944,26.521,1.829,6.141,2.866a10.626,10.626,0,0,1,5.922,11.732l-7.947,39.358L992.8,416.81S959.424,442,933.361,434.225c0,0,.457-7.316.914-10.06s1.372-2.744,1.829-4.115,1.372,0,.457-2.743,7.316-21.948,7.316-21.948Z" transform="translate(-478.885 -238.843)" fill="#e6e6e6"/>
    <path id="Path_683" data-name="Path 683" d="M892.566,193.986l13.046-7.883-4.277-7.713h-13.86l-5.491,6.651Z" transform="translate(-402.048 -81.318)" fill="#e6e6e6"/>
    <path id="Path_684" data-name="Path 684" d="M1003.759,463.054a5.106,5.106,0,0,0,5.364-5.7l16.316-7.94-8.112-4.806-14.25,8.277a5.134,5.134,0,0,0,.683,10.173Z" transform="translate(-508.755 -285.574)" fill="#a0616a"/>
    <path id="Path_685" data-name="Path 685" d="M1017.239,417.358l-2.843-10.423,15.491-20.522c-5.014-6.045-6.774-14.972-5.536-28.061a5.679,5.679,0,0,1,10.947-2.927c3.505,10.223,9.6,32.225,8.809,33.417-.915,1.372-1.229,1.981.21,3.292,1.706,1.554.8,8.177.023,9.128C1043.63,402.127,1017.239,417.358,1017.239,417.358Z" transform="translate(-515.824 -243.174)" fill="#e6e6e6"/>
    <path id="Path_686" data-name="Path 686" d="M866.138,437.535a5.106,5.106,0,0,0,6.855-3.783l17.965-2.552-6.246-7.063-16.1,3.506a5.134,5.134,0,0,0-2.472,9.892Z" transform="translate(-446.732 -276.245)" fill="#a0616a"/>
    <path id="Path_687" data-name="Path 687" d="M883.078,402.889l2.728-10.454,22.584-12.724c1.632-10.339,2.656-13.71,10.249-24.443a5.679,5.679,0,0,1,10.95,2.916c-2.053,10.611-11.344,39.048-12.492,39.484C916.051,398.065,883.078,402.889,883.078,402.889Z" transform="translate(-455.963 -243.1)" fill="#e6e6e6"/>
    <circle id="Ellipse_181" data-name="Ellipse 181" cx="14.175" cy="14.175" r="14.175" transform="translate(478.025 63.921)" fill="#a0616a"/>
    <path id="Path_688" data-name="Path 688" d="M974.992,269.117c.377-3.39,5.273-6.78,13.937-9.04s13.184,7.534,13.184,7.534c6.027,3.013,2.448,19.022.565,17.516l-.057-.044a11.221,11.221,0,0,1-4.482-7.656l-.434-3.9c-1.984,1.52-4.22,2.808-6.621,2.425l2.938-2.893-8.353,3.634,2.765-3.8-.131-.129a13.661,13.661,0,0,1-4.382,2.481,5.163,5.163,0,0,1-5.268-1.19,3.886,3.886,0,0,1-.749-1.348c-2.273,1.557-2.725,4.891-2.725,4.891A48.391,48.391,0,0,1,974.992,269.117Z" transform="translate(-497.803 -201.304)" fill="#2f2e41"/>
    <path id="Path_689" data-name="Path 689" d="M854.04,441.4H838.523a3.545,3.545,0,0,1-3.507-3.047,78.893,78.893,0,0,1,0-21.248,3.545,3.545,0,0,1,3.448-3.047c4.882-2.188,10.139-2.188,15.629,0a3.5,3.5,0,0,1,2.666,1.286,3.585,3.585,0,0,1,.74,2.988,47.7,47.7,0,0,0,0,18.794,3.585,3.585,0,0,1-.74,2.988A3.5,3.5,0,0,1,854.04,441.4Z" transform="translate(-433.727 -270.901)" fill="#3f3d56"/>
    <path id="Path_690" data-name="Path 690" d="M855.967,428.95h-13.06a.816.816,0,0,1,0-1.632h13.06a.816.816,0,0,1,0,1.632Z" transform="translate(-437.28 -277.695)" fill="#fff"/>
    <path id="Path_691" data-name="Path 691" d="M855.967,440.95h-13.06a.816.816,0,0,1,0-1.632h13.06a.816.816,0,0,1,0,1.632Z" transform="translate(-437.28 -283.165)" fill="#fff"/>
    <path id="Path_692" data-name="Path 692" d="M855.967,452.95h-13.06a.816.816,0,0,1,0-1.632h13.06a.816.816,0,0,1,0,1.632Z" transform="translate(-437.28 -288.635)" fill="#fff"/>
    <circle id="Ellipse_182" data-name="Ellipse 182" cx="10.339" cy="10.339" r="10.339" transform="translate(343.596 18.96)" fill="#e6e6e6"/>
    <path id="Path_693" data-name="Path 693" d="M750.152,198.084a.836.836,0,0,0-1.154,0,34.243,34.243,0,0,0-5.867,5.993l-1.254-2.427c-.482-.934-1.892-.109-1.41.824l1.834,3.549a.826.826,0,0,0,1.41,0,33.057,33.057,0,0,1,6.441-6.785A.821.821,0,0,0,750.152,198.084Z" transform="translate(-390.91 -173.094)" fill="#fff"/>
    <circle id="Ellipse_183" data-name="Ellipse 183" cx="10.339" cy="10.339" r="10.339" transform="translate(292.99 18.96)" fill="#e6e6e6"/>
    <path id="Path_694" data-name="Path 694" d="M657.152,198.084a.836.836,0,0,0-1.154,0,34.245,34.245,0,0,0-5.867,5.993l-1.254-2.427c-.482-.934-1.892-.109-1.41.824l1.834,3.549a.826.826,0,0,0,1.41,0,33.059,33.059,0,0,1,6.441-6.785A.821.821,0,0,0,657.152,198.084Z" transform="translate(-348.516 -173.094)" fill="#fff"/>
    <circle id="Ellipse_184" data-name="Ellipse 184" cx="10.339" cy="10.339" r="10.339" transform="translate(186.335 17.871)" fill="#e6e6e6"/>
    <path id="Path_695" data-name="Path 695" d="M461.152,196.084a.836.836,0,0,0-1.154,0,34.246,34.246,0,0,0-5.867,5.993l-1.254-2.427c-.483-.934-1.892-.109-1.41.824l1.834,3.549a.826.826,0,0,0,1.41,0,33.058,33.058,0,0,1,6.441-6.785.821.821,0,0,0,0-1.154Z" transform="translate(-259.171 -172.183)" fill="#fff"/>
    <circle id="Ellipse_185" data-name="Ellipse 185" cx="7.074" cy="7.074" r="7.074" transform="translate(66.077 66.845)" fill="#2f2e41"/>
    <path id="Path_696" data-name="Path 696" d="M251.981,745.914a.646.646,0,0,1-.648.648H98.813a.648.648,0,0,1,0-1.3H251.334a.646.646,0,0,1,.648.648Z" transform="translate(-98.165 -422.63)" fill="#ccc"/>
    <path id="Path_697" data-name="Path 697" d="M972.979,745.914a.646.646,0,0,1-.648.648H819.812a.648.648,0,0,1,0-1.3H972.334a.646.646,0,0,1,.645.648Z" transform="translate(-426.829 -422.63)" fill="#ccc"/>
    <path id="Path_698" data-name="Path 698" d="M222.224,275.071a5.339,5.339,0,0,0-3.641.786l-4.065,1.978,8.443.741.311-.585C224.246,277.174,223.448,275.412,222.224,275.071Z" transform="translate(-151.204 -208.247)" fill="#2f2e41"/>
  </g>
</svg>
