<svg id="undraw_Usability_testing_re_uu1g" xmlns="http://www.w3.org/2000/svg" width="557.04" height="364.538" viewBox="0 0 557.04 364.538">
  <path id="Path_724" data-name="Path 724" d="M965.437,536.9A5.759,5.759,0,0,1,967,528.208l-3.77-20.115,9.8,4.119,2.076,18.47a5.79,5.79,0,0,1-9.674,6.217Z" transform="translate(-476.693 -292.555)" fill="#ffb6b6"/>
  <rect id="Rectangle_62" data-name="Rectangle 62" width="430.436" height="204.249" transform="translate(35.013 11.801)" fill="#e6e6e6"/>
  <rect id="Rectangle_75" data-name="Rectangle 75" width="405.819" height="170.411" transform="translate(47.321 29.315)" fill="#fff"/>
  <rect id="Rectangle_80" data-name="Rectangle 80" width="430.436" height="18.286" transform="translate(34.829)" fill="#6c63ff"/>
  <circle id="Ellipse_90" data-name="Ellipse 90" cx="3.389" cy="3.389" r="3.389" transform="translate(45.029 5.069)" fill="#fff"/>
  <circle id="Ellipse_91" data-name="Ellipse 91" cx="3.389" cy="3.389" r="3.389" transform="translate(57.894 5.069)" fill="#fff"/>
  <circle id="Ellipse_92" data-name="Ellipse 92" cx="3.389" cy="3.389" r="3.389" transform="translate(70.758 5.069)" fill="#fff"/>
  <path id="Path_142" data-name="Path 142" d="M236.407,374.365a1.778,1.778,0,1,0,0,3.557H334a1.778,1.778,0,1,0,0-3.557Z" transform="translate(-165.353 -235.412)" fill="#e6e6e6"/>
  <path id="Path_143" data-name="Path 143" d="M236.407,393a1.778,1.778,0,1,0,0,3.557h49.821a1.779,1.779,0,1,0,0-3.557Z" transform="translate(-165.353 -243.374)" fill="#e6e6e6"/>
  <path id="Path_154" data-name="Path 154" d="M379.343,421.047H342.272a1.813,1.813,0,0,1-1.811-1.811V413.3a1.813,1.813,0,0,1,1.811-1.811h37.071a1.813,1.813,0,0,1,1.811,1.811v5.939A1.813,1.813,0,0,1,379.343,421.047Z" transform="translate(-210.576 -251.274)" fill="#6c63ff"/>
  <path id="Path_154-2" data-name="Path 154" d="M379.343,313.047H342.272a1.813,1.813,0,0,1-1.811-1.811V305.3a1.813,1.813,0,0,1,1.811-1.811h37.071a1.813,1.813,0,0,1,1.811,1.811v5.939A1.813,1.813,0,0,1,379.343,313.047Z" transform="translate(-210.576 -205.124)" fill="#6c63ff"/>
  <path id="Path_142-2" data-name="Path 142" d="M520.718,234.962a2.321,2.321,0,0,0,0,4.641h194.09a2.321,2.321,0,0,0,0-4.641Z" transform="translate(-286.611 -175.843)" fill="#e6e6e6"/>
  <path id="Path_143-2" data-name="Path 143" d="M520.718,259.277a2.321,2.321,0,0,0,0,4.641H652.479a2.321,2.321,0,1,0,0-4.641Z" transform="translate(-286.611 -186.233)" fill="#e6e6e6"/>
  <path id="Path_142-3" data-name="Path 142" d="M520.718,283.042a2.321,2.321,0,0,0,0,4.641h194.09a2.321,2.321,0,0,0,0-4.641Z" transform="translate(-286.611 -196.388)" fill="#e6e6e6"/>
  <path id="Path_143-3" data-name="Path 143" d="M520.718,307.358a2.321,2.321,0,0,0,0,4.641H652.479a2.321,2.321,0,0,0,0-4.641Z" transform="translate(-286.611 -206.779)" fill="#e6e6e6"/>
  <path id="Path_154-3" data-name="Path 154" d="M833.343,352.813H796.272A1.813,1.813,0,0,1,794.461,351v-5.94a1.813,1.813,0,0,1,1.811-1.811h37.071a1.813,1.813,0,0,1,1.811,1.811V351A1.813,1.813,0,0,1,833.343,352.813Z" transform="translate(-404.575 -222.117)" fill="#6c63ff"/>
  <path id="Path_155" data-name="Path 155" d="M310.239,239.351c-.659,0-1.192.857-1.19,1.91s.533,1.9,1.19,1.9h56.226c.659,0,1.192-.857,1.19-1.91s-.533-1.9-1.19-1.9Z" transform="translate(-197.153 -177.719)" fill="#e4e4e4"/>
  <path id="Path_156" data-name="Path 156" d="M310.239,258.643c-.659,0-1.192.857-1.19,1.91s.533,1.9,1.19,1.9h56.226c.659,0,1.192-.857,1.19-1.91s-.533-1.9-1.19-1.9Z" transform="translate(-197.153 -185.962)" fill="#e4e4e4"/>
  <path id="Path_157" data-name="Path 157" d="M310.239,277.7c-.659,0-1.192.857-1.19,1.91s.533,1.9,1.19,1.9h24.194c.659,0,1.192-.857,1.19-1.91s-.533-1.9-1.19-1.9Z" transform="translate(-197.153 -194.106)" fill="#e4e4e4"/>
  <circle id="Ellipse_192" data-name="Ellipse 192" cx="15.258" cy="15.258" r="15.258" transform="translate(69.28 59.119)" fill="#e4e4e4"/>
  <path id="Path_725" data-name="Path 725" d="M812.9,350.877a5.759,5.759,0,0,0,5.987,6.491l7.626,18.991,6.057-8.741-8.17-16.694a5.79,5.79,0,0,0-11.5-.047Z" transform="translate(-412.434 -223.202)" fill="#ffb6b6"/>
  <path id="Path_726" data-name="Path 726" d="M841.666,601.558h-7.021L831.3,574.477h10.363Z" transform="translate(-355.226 -245.481)" fill="#ffb6b6"/>
  <path id="Path_727" data-name="Path 727" d="M949.294,758.592H926.655V758.3a8.812,8.812,0,0,1,8.811-8.812h13.828Z" transform="translate(-461.064 -395.708)" fill="#2f2e41"/>
  <path id="Path_728" data-name="Path 728" d="M804.285,599.778l-6.694-2.12,4.989-26.826,9.879,3.128Z" transform="translate(-340.82 -243.923)" fill="#ffb6b6"/>
  <path id="Path_729" data-name="Path 729" d="M906.232,755.487l-21.583-6.833.086-.273a8.812,8.812,0,0,1,11.06-5.742h0l13.182,4.173Z" transform="translate(-443.114 -392.603)" fill="#2f2e41"/>
  <path id="Path_730" data-name="Path 730" d="M902.807,522.127s-10.417,16.357-6.736,30.956,7.69,42.661,7.69,42.661l19.959,47.5,14.878-.607-14.775-56,.584-37.446s10.269-17.9,8.27-23.467S902.807,522.127,902.807,522.127Z" transform="translate(-447.658 -298.406)" fill="#2f2e41"/>
  <path id="Path_731" data-name="Path 731" d="M944.021,531.947s1.282,16.227-2.727,23.1-8.28,33.029-8.28,33.029L926.2,640.388,912.087,635.8l12.035-58.61,9.459-46.1Z" transform="translate(-454.838 -302.378)" fill="#2f2e41"/>
  <path id="Path_732" data-name="Path 732" d="M944.252,389.416l-11.012-7.569-16.757-.487-5.835,5.721-8.905,4.547-.825,74.085s26.667,12.782,41.014,6.612l6.9-57.712C951.7,403.161,944.252,389.416,944.252,389.416Z" transform="translate(-450.066 -238.401)" fill="#3f3d56"/>
  <path id="Path_733" data-name="Path 733" d="M869.949,405.368H840.577l-19.3-33.217,12.548-4.97,10.627,18.9,15.381-1.392,9.6-.464a10.576,10.576,0,0,1,11.008,11.853h0a10.589,10.589,0,0,1-10.5,9.288Z" transform="translate(-416.035 -232.341)" fill="#3f3d56"/>
  <circle id="Ellipse_193" data-name="Ellipse 193" cx="14.529" cy="14.529" r="14.529" transform="translate(461.634 107.801)" fill="#ffb6b6"/>
  <path id="Path_734" data-name="Path 734" d="M951.2,328.211a8.773,8.773,0,0,0-5.679-7.185,12.283,12.283,0,0,0-8.025-7.291,15.676,15.676,0,0,0-18.021,6.573c-.273.43-1.114,1.486-1.09,2,.03.651,1.026,1.324,1.527,1.734a22.39,22.39,0,0,0,3.992,2.464c5.224,2.709,3.485,6.965,3.414,11.789a6.283,6.283,0,0,0,2.747,5.685c2.885,1.932,7.013,1.164,10.152.388,3.562-.88,6.523-4.009,8.554-7.026A13.351,13.351,0,0,0,951.2,328.211Z" transform="translate(-457.529 -209.187)" fill="#2f2e41"/>
  <path id="Path_735" data-name="Path 735" d="M852.862,296.725l5.654,62.012-18.164-.974Z" transform="translate(-359.092 -126.794)" fill="#3f3d56"/>
  <path id="Path_736" data-name="Path 736" d="M918.717,767.251H696.344a.682.682,0,0,1,0-1.364H918.716a.682.682,0,0,1,0,1.364Z" transform="translate(-362.358 -402.714)" fill="#cacaca"/>
  <path id="Path_737" data-name="Path 737" d="M84.088,608.993h5.446l2.591-21.006H84.087Z" transform="translate(-35.931 -251.254)" fill="#9e616a"/>
  <path id="Path_738" data-name="Path 738" d="M195.326,753.293h10.725a6.835,6.835,0,0,1,6.835,6.834v.222h-17.56Z" transform="translate(-148.558 -397.332)" fill="#2f2e41"/>
  <path id="Path_739" data-name="Path 739" d="M171.737,608.993h5.446l2.591-21.006h-8.038Z" transform="translate(-73.385 -251.254)" fill="#9e616a"/>
  <path id="Path_740" data-name="Path 740" d="M282.974,753.293H293.7a6.835,6.835,0,0,1,6.835,6.834v.222h-17.56Z" transform="translate(-186.011 -397.332)" fill="#2f2e41"/>
  <path id="Path_741" data-name="Path 741" d="M137.718,330l3.554,22.654-33.759.444,4.442-21.766Z" transform="translate(-45.941 -141.011)" fill="#9e616a"/>
  <path id="Path_742" data-name="Path 742" d="M242.851,491.627l10.752,28.63,1.333,118.649h-9.106l-21.766-95.328-19.989,92.84H195.19l6.219-104.389s-1.834-20.952,7.552-33.316l2.285-6.6Z" transform="translate(-148.5 -285.519)" fill="#2f2e41"/>
  <path id="Path_743" data-name="Path 743" d="M191.532,487.172a6.664,6.664,0,0,0,4.27-9.284l14.362-46.823L199.6,428.971l-13.135,45.9a6.7,6.7,0,0,0,5.067,12.3Z" transform="translate(-143.303 -258.745)" fill="#9e616a"/>
  <path id="Path_744" data-name="Path 744" d="M224.576,446.325a3.023,3.023,0,0,1-.587-.058h0a3.036,3.036,0,0,1-2.432-2.75c-.334-4.572-1.989-12.531-4.918-23.655a18.722,18.722,0,0,1,29.563-19.55,18.48,18.48,0,0,1,7.13,12.638c1.456,12.821-1.289,25.694-2.536,30.633a3.042,3.042,0,0,1-2.884,2.292l-23.271.449Z" transform="translate(-157.405 -244.829)" fill="#3f3d56"/>
  <path id="Path_745" data-name="Path 745" d="M311.925,408.906a6.531,6.531,0,0,0-.343.969l-29.129,9.9-5.629-4.917-8.531,7.525,9.118,9.673a4.963,4.963,0,0,0,5.869,1.015l31.17-15.922a6.512,6.512,0,1,0-2.525-8.242Z" transform="translate(-179.737 -248.539)" fill="#9e616a"/>
  <path id="Path_746" data-name="Path 746" d="M273.114,419.753l-10.619,9.275a2.792,2.792,0,0,1-4.185-.594l-7.6-11.828a7.753,7.753,0,1,1,11.708-10.166l10.666,9.085a2.792,2.792,0,0,1,.026,4.227Z" transform="translate(-171.415 -247.977)" fill="#3f3d56"/>
  <path id="Path_747" data-name="Path 747" d="M216.369,433.988l-13.123-5.155a2.792,2.792,0,0,1-1.4-3.989l7-12.188a7.753,7.753,0,1,1,14.415,5.712l-3.154,13.651a2.792,2.792,0,0,1-3.74,1.969Z" transform="translate(-151.186 -249.68)" fill="#3f3d56"/>
  <circle id="Ellipse_194" data-name="Ellipse 194" cx="14.274" cy="14.274" r="14.274" transform="translate(60.637 120.152)" fill="#9e616a"/>
  <path id="Path_748" data-name="Path 748" d="M336.716,767.251H114.344a.682.682,0,0,1,0-1.364H336.716a.682.682,0,1,1,0,1.364Z" transform="translate(-113.662 -402.714)" fill="#cacaca"/>
  <path id="Path_749" data-name="Path 749" d="M237.03,346.85l9.188-.052a7.924,7.924,0,0,0-2.065-5.767,23.514,23.514,0,0,0-4.837-4,11.956,11.956,0,0,0-10.993-2.722l-7.036.978c-2.574.358-5.268.763-7.359,2.307-2.828,2.088-3.909,5.746-4.818,9.141l-5.029,18.793,29.706,3.116a8.166,8.166,0,0,0,3.237-.094,2.783,2.783,0,0,0,2.07-2.263c.086-1.212-.876-2.2-1.656-3.134a14.639,14.639,0,0,1-1.263-16.554Z" transform="translate(-152.3 -218.161)" fill="#2f2e41"/>
</svg>
