<svg xmlns="http://www.w3.org/2000/svg" width="18.75" height="15" viewBox="0 0 18.75 15">
  <path id="Icon_awesome-tags" data-name="Icon awesome-tags" d="M14.588,6.619,8.381.412A1.406,1.406,0,0,0,7.386,0H1.406A1.406,1.406,0,0,0,0,1.406v5.98a1.406,1.406,0,0,0,.412.994l6.207,6.207a1.406,1.406,0,0,0,1.989,0l5.98-5.98a1.406,1.406,0,0,0,0-1.989ZM3.281,4.688A1.406,1.406,0,1,1,4.688,3.281,1.406,1.406,0,0,1,3.281,4.688ZM18.338,8.608l-5.98,5.98a1.406,1.406,0,0,1-1.989,0l-.011-.011,5.1-5.1a2.637,2.637,0,0,0,0-3.729L9.709,0h1.427a1.406,1.406,0,0,1,.994.412l6.207,6.207a1.406,1.406,0,0,1,0,1.989Z" fill="#015f9a"/>
</svg>
