<svg xmlns="http://www.w3.org/2000/svg" width="567.252" height="404.759" viewBox="0 0 567.252 404.759">
  <g id="undraw_Upload_image_re_svxx" transform="translate(0)">
    <path id="Path_699" data-name="Path 699" d="M240.09,683.843l-10.826,9.967,8.6-14.437C231.089,667.081,220,656.457,220,656.457s-23,22.036-23,39.358,10.3,23.371,23,23.371,23-6.048,23-23.37A30.384,30.384,0,0,0,240.09,683.843Z" transform="translate(-183.416 -315.736)" fill="#f2f2f2"/>
    <path id="Path_700" data-name="Path 700" d="M237.74,693.877v.854c-.051,9.925-1.725,17.668-5.009,23.121-.046.08-.1.156-.144.237l-.368-.224-.351-.22c3.644-5.888,4.933-14.211,4.979-22.867,0-.279.008-.562,0-.845-.013-3.665-.237-7.372-.6-10.973-.025-.279-.055-.562-.085-.845-.5-4.751-1.217-9.291-1.953-13.234-.051-.279-.106-.558-.161-.833-1.272-6.67-2.57-11.5-2.866-12.571-.034-.131-.055-.2-.059-.22l.4-.114,0,0,.406-.114c0,.017.076.258.194.706.452,1.674,1.627,6.218,2.781,12.211.051.271.106.55.156.828.6,3.2,1.188,6.776,1.653,10.529q.178,1.414.317,2.79c.034.283.063.566.089.845Q237.719,688.773,237.74,693.877Z" transform="translate(-194.677 -315.263)" fill="#fff"/>
    <path id="Path_701" data-name="Path 701" d="M230.1,673.323c-.283.038-.571.076-.862.106a23.313,23.313,0,0,1-2.384.123,22.683,22.683,0,0,1-9.806-2.215l-.537.676a23.523,23.523,0,0,0,10.343,2.384,24.123,24.123,0,0,0,2.545-.135c.287-.03.575-.068.858-.11a23.324,23.324,0,0,0,6.742-2.042q-.273-.349-.533-.685A22.6,22.6,0,0,1,230.1,673.323Z" transform="translate(-189.851 -320.645)" fill="#fff"/>
    <path id="Path_702" data-name="Path 702" d="M229.932,690.615q-.437.025-.875.025c-.089,0-.182,0-.271,0a22.8,22.8,0,0,1-18.717-9.777c-.169.25-.338.5-.5.753a23.65,23.65,0,0,0,19.22,9.87c.118,0,.237,0,.355,0,.3,0,.588-.013.879-.025a23.525,23.525,0,0,0,12.533-4.4c-.135-.249-.271-.5-.41-.748a22.646,22.646,0,0,1-12.211,4.3Z" transform="translate(-187.561 -323.789)" fill="#fff"/>
    <path id="Path_703" data-name="Path 703" d="M229.018,704.945c-.3.025-.592.042-.888.055-.317.013-.634.021-.951.021a22.865,22.865,0,0,1-21.92-16.451c-.19.342-.38.681-.562,1.023a23.7,23.7,0,0,0,22.483,16.273c.317,0,.634,0,.947-.021s.6-.025.892-.047a23.633,23.633,0,0,0,15.6-7.613c-.089-.313-.19-.621-.292-.934A22.791,22.791,0,0,1,229.018,704.945Z" transform="translate(-185.955 -326.33)" fill="#fff"/>
    <rect id="Rectangle_223" data-name="Rectangle 223" width="207.724" height="125.843" transform="translate(359.528 51.089)" fill="#f0f0f0"/>
    <path id="Path_704" data-name="Path 704" d="M875.2,183.316H585.73a.67.67,0,1,1,0-1.34H875.2a.67.67,0,1,1,0,1.34Z" transform="translate(-311.445 -159.194)" fill="#cacaca"/>
    <circle id="Ellipse_186" data-name="Ellipse 186" cx="7.371" cy="7.371" r="7.371" transform="translate(281.995)" fill="#3f3d56"/>
    <circle id="Ellipse_187" data-name="Ellipse 187" cx="7.371" cy="7.371" r="7.371" transform="translate(307.457)" fill="#3f3d56"/>
    <circle id="Ellipse_188" data-name="Ellipse 188" cx="7.371" cy="7.371" r="7.371" transform="translate(332.92)" fill="#3f3d56"/>
    <path id="Path_705" data-name="Path 705" d="M875.3,309l-12.645-13.031a2.874,2.874,0,0,0-2.114-.849h-.038a2.874,2.874,0,0,0-2.114.849L845.747,309a2.79,2.79,0,0,0-.133,3.944q.064.068.133.133a3.121,3.121,0,0,0,4.265,0l7.492-7.832v20.193a3.023,3.023,0,0,0,6.039,0V305.242l7.492,7.832a3.121,3.121,0,0,0,4.265,0,2.79,2.79,0,0,0,.132-3.944Q875.369,309.061,875.3,309Z" transform="translate(-397.16 -196.521)" fill="#fff"/>
    <path id="Path_706" data-name="Path 706" d="M853.663,335.235a29.675,29.675,0,1,1,29.675-29.675,29.675,29.675,0,0,1-29.675,29.675Zm0-58.251a28.576,28.576,0,1,0,28.576,28.576,28.576,28.576,0,0,0-28.576-28.576Z" transform="translate(-390.273 -190.177)" fill="#fff"/>
    <path id="Path_138" data-name="Path 138" d="M795.62,456.614H601.61c-1.983-.005-3.59-3.292-3.593-7.351v-98.47c0-4.058,1.61-7.344,3.593-7.351H795.62c1.983.005,3.59,3.292,3.593,7.351v98.47C799.21,453.32,797.6,456.609,795.62,456.614Z" transform="translate(-315.72 -212.465)" fill="#fff"/>
    <g id="Group_38" data-name="Group 38" transform="translate(317.949 152.639)">
      <circle id="Ellipse_7" data-name="Ellipse 7" cx="16.965" cy="16.965" r="16.965" transform="translate(13.37 0.36)" fill="#3f3d56"/>
      <path id="Path_63" data-name="Path 63" d="M734.758,445.373H651.533a1.7,1.7,0,0,1-.311-.025l39.363-68.178a2.755,2.755,0,0,1,4.8,0L721.8,422.923l1.266,2.189Z" transform="translate(-651.222 -375.769)" fill="#6c63ff"/>
      <path id="Path_65" data-name="Path 65" d="M809.6,455.267H737.614l13.948-20.26,1-1.46,18.176-26.4a3.678,3.678,0,0,1,5.463-.326,3.289,3.289,0,0,1,.262.326Z" transform="translate(-679.725 -385.663)" fill="#6c63ff"/>
    </g>
    <path id="Path_138-2" data-name="Path 138" d="M795.62,456.614H601.61c-1.983-.005-3.59-3.292-3.593-7.351v-98.47c0-4.058,1.61-7.344,3.593-7.351H795.62c1.983.005,3.59,3.292,3.593,7.351v98.47C799.21,453.32,797.6,456.609,795.62,456.614ZM601.61,346.382c-1.19,0-2.154,1.976-2.156,4.411v98.47c0,2.435.966,4.408,2.156,4.411H795.62c1.19,0,2.154-1.975,2.156-4.411v-98.47c0-2.435-.966-4.408-2.156-4.411Z" transform="translate(-315.72 -212.465)" fill="#e6e6e6"/>
    <path id="Path_707" data-name="Path 707" d="M432.7,751.364H177.4a.67.67,0,1,1,0-1.34H432.7a.67.67,0,1,1,0,1.34Z" transform="translate(-176.726 -346.606)" fill="#cacaca"/>
    <path id="Path_708" data-name="Path 708" d="M424.31,350.743c-6.309-8.885-18.792-9.3-18.792-9.3s-12.164-1.3-19.967,12.236c-7.273,12.613,2.975,28.291,2.975,28.291,2.025.121,10.782.174,36.843-3.045l1.168-6.3,3.35,5.742,4.355-.529C433.556,371.16,430.381,359.292,424.31,350.743Z" transform="translate(-244.762 -211.795)" fill="#2f2e41"/>
    <path id="Path_709" data-name="Path 709" d="M460.448,512.555l-1.671-57.5-11.38,4.979,5.491,53.141a6.95,6.95,0,1,0,7.56-.623Z" transform="translate(-266.027 -249.29)" fill="#ffb8b8"/>
    <path id="Path_710" data-name="Path 710" d="M444.743,447.992c7.422.718,12.752-2.348,16.358-8.535l-2.489-11.4a17.443,17.443,0,0,0-12.19-16.633l-1.323-.418Z" transform="translate(-265.151 -234.757)" fill="#e6e6e6"/>
    <path id="Path_711" data-name="Path 711" d="M345.437,427.339a1.409,1.409,0,0,1-.29-.03l-13.729-.232-.03-.341v-.015l1.139-28.288a2.2,2.2,0,0,1,2.3-2.1l11,.49a2.2,2.2,0,0,1,2.1,2.3l-1.082,26.868a1.409,1.409,0,0,1-1.406,1.352Z" transform="translate(-227.753 -229.913)" fill="#6c63ff"/>
    <path id="Path_712" data-name="Path 712" d="M343.675,427.46l-.105,0-10.78-.481a2.313,2.313,0,0,1-2.205-2.411l1.152-25.828a2.2,2.2,0,0,1,2.3-2.1l11,.49a2.2,2.2,0,0,1,2.1,2.3l-1.151,25.829a2.311,2.311,0,0,1-2.306,2.208Z" transform="translate(-227.487 -230.014)" fill="#2f2e41"/>
    <circle id="Ellipse_189" data-name="Ellipse 189" cx="1.574" cy="1.574" r="1.574" transform="translate(109.787 171.794)" fill="#6c63ff"/>
    <path id="Path_713" data-name="Path 713" d="M351.5,445.576v10.382l-10.03-15.8a6.548,6.548,0,1,0-6.37,3.2L349.124,468.2a6.985,6.985,0,0,0,13.037-2.781l1.735-18.5Z" transform="translate(-227.055 -241.121)" fill="#ffb8b8"/>
    <path id="Path_714" data-name="Path 714" d="M375.356,447.942c-6.99.676-12.01-2.211-15.406-8.038l2.344-10.735A16.427,16.427,0,0,1,373.774,413.5l1.246-.394Z" transform="translate(-237.176 -235.45)" fill="#e6e6e6"/>
    <path id="Path_715" data-name="Path 715" d="M226.633,579.333l-7.648-1.241,1.147-30.087,11.287,1.831Z" transform="translate(-72.248 -180.799)" fill="#ffb6b6"/>
    <path id="Path_716" data-name="Path 716" d="M397.388,746.419l-24.981.025v-.316a9.724,9.724,0,0,1,9.713-9.733h0l15.257-.015Z" transform="translate(-241.286 -342.104)" fill="#2f2e41"/>
    <path id="Path_717" data-name="Path 717" d="M273.283,555.476l-6.917,3.49-16.752-25.019,10.209-5.15Z" transform="translate(-82.353 -174.462)" fill="#ffb6b6"/>
    <path id="Path_718" data-name="Path 718" d="M457.779,720.852l-22.3,11.253-.142-.282a9.724,9.724,0,0,1,4.3-13.061h0l13.622-6.873Z" transform="translate(-261.702 -334.024)" fill="#2f2e41"/>
    <circle id="Ellipse_190" data-name="Ellipse 190" cx="13.599" cy="13.599" r="13.599" transform="translate(146.3 140.382)" fill="#ffb8b8"/>
    <path id="Path_719" data-name="Path 719" d="M424.323,354.133l-12.332-6.46-17.031,2.643-3.524,15.563c17.393,2.5,29.431,3.936,33.474-.294Z" transform="translate(-247.564 -213.861)" fill="#2f2e41"/>
    <path id="Path_720" data-name="Path 720" d="M380.508,502.041s-10.367,21.2,1.119,52.578l31.727,80.9,15.167-8.966-15.461-34.829,12.576-42.631a74.091,74.091,0,0,0,2.624-29.831c-.906-7.5-3.01-15.121-7.586-18.964C409.909,491.252,380.508,502.041,380.508,502.041Z" transform="translate(-242.542 -263.023)" fill="#2f2e41"/>
    <path id="Path_721" data-name="Path 721" d="M226.115,481.348l-11.5,58.314,15.318,2.888,9.636-50.476Z" transform="translate(-70.806 -158.808)" fill="#2f2e41"/>
    <path id="Path_722" data-name="Path 722" d="M414.088,407.977l-17.583.234-15.391,3.54.912,61.647s27.827,7.873,40.05-3.014l8.062-57.7A41.911,41.911,0,0,0,414.088,407.977Z" transform="translate(-244.159 -233.756)" fill="#e4e4e4"/>
    <circle id="Ellipse_191" data-name="Ellipse 191" cx="8.711" cy="8.711" r="8.711" transform="translate(159.662 122.64)" fill="#2f2e41"/>
    <path id="Path_723" data-name="Path 723" d="M414.01,336.384a8.706,8.706,0,0,1,10.411-8.543,8.707,8.707,0,1,0-5.411,16.415A8.7,8.7,0,0,1,414.01,336.384Z" transform="translate(-254.348 -207.043)" fill="#2f2e41"/>
  </g>
</svg>
