<svg  width="31.205" height="23.404"  viewBox="0 0 95 89" fill="none" xmlns="http://www.w3.org/2000/svg">
<path d="M73.0669 44.6585C85.158 44.6585 94.9513 34.8652 94.9513 22.774C94.9513 10.6828 85.158 0.889526 73.0669 0.889526C70.4954 0.889526 68.0882 1.43664 65.7903 2.20259C70.3313 7.83785 73.0669 15.005 73.0669 22.774C73.0669 30.543 70.3313 37.7102 65.7903 43.3454C68.0882 44.1114 70.4954 44.6585 73.0669 44.6585Z" fill="black"/>
<path d="M44.2408 44.6585C56.332 44.6585 66.1253 34.8652 66.1253 22.774C66.1253 10.6828 56.332 0.889526 44.2408 0.889526C32.1496 0.889526 22.3563 10.6828 22.3563 22.774C22.3563 34.8652 32.1496 44.6585 44.2408 44.6585ZM44.2408 11.8318C50.259 11.8318 55.183 16.7558 55.183 22.774C55.183 28.7922 50.259 33.7162 44.2408 33.7162C38.2226 33.7162 33.2986 28.7922 33.2986 22.774C33.2986 16.7558 38.2226 11.8318 44.2408 11.8318Z" fill="black"/>
<path d="M44.2405 50.1309C29.6326 50.1309 0.471558 57.4622 0.471558 72.0153V88.4287H88.0095V72.0153C88.0095 57.4622 58.8484 50.1309 44.2405 50.1309ZM77.0672 77.4865H11.4138V72.07C12.508 68.1308 29.4685 61.0731 44.2405 61.0731C59.0125 61.0731 75.973 68.1308 77.0672 72.0153V77.4865Z" fill="black"/>
</svg>
