<svg width="84" height="115" viewBox="0 0 84 115" fill="none" xmlns="http://www.w3.org/2000/svg">
<path d="M61.04 95.4643C60.2495 96.1445 59.0562 96.0461 58.379 95.2645L54.6708 90.9387C53.9846 90.1333 52.7854 90.0438 51.9799 90.7299C51.1804 91.4161 51.0849 92.6243 51.7711 93.4208L55.4763 97.7465C56.1564 98.5371 56.067 99.7244 55.2764 100.402C54.4858 101.073 53.2985 100.992 52.6123 100.202L50.1452 97.314C49.459 96.5174 48.2508 96.4279 47.4513 97.1141C46.6458 97.8002 46.5563 98.9995 47.2425 99.799L49.7126 102.684C50.3898 103.474 50.3003 104.668 49.5038 105.348C49.1219 105.676 48.6237 105.825 48.1374 105.795C47.6392 105.757 47.1768 105.527 46.8487 105.145L45.6166 103.698C44.9245 102.902 43.7222 102.812 42.9167 103.498C42.1202 104.175 42.0307 105.384 42.7079 106.183L43.946 107.63C44.2741 108.009 44.4322 108.486 44.3785 109.032C44.3487 109.515 44.125 109.963 43.7371 110.291C43.3642 110.619 42.8809 110.777 42.3738 110.733C41.8666 110.694 41.4102 110.464 41.082 110.082L38.3822 106.944C39.5546 104.906 39.3965 102.29 37.7855 100.411C36.8309 99.2978 35.5421 98.6654 34.1997 98.4864C34.2295 97.0753 33.773 95.7179 32.8482 94.6439C31.8936 93.5342 30.6048 92.8987 29.2534 92.7197C29.2832 91.3624 28.8507 89.9901 27.905 88.8713C26.9503 87.7675 25.6586 87.1351 24.3101 86.9561C24.3459 85.5987 23.9134 84.2174 22.9587 83.1136C21.3627 81.2342 18.806 80.6823 16.6282 81.5027L15.1963 79.7873L31.998 65.3722L36.4431 66.5416L29.1281 72.8154C26.7326 74.8649 26.4581 78.4687 28.5076 80.8553C29.6353 82.1739 31.2313 82.8541 32.8423 82.8541C34.1549 82.8541 35.4825 82.3977 36.5475 81.4728L45.193 74.0684L61.2429 92.8033C61.5711 93.1821 61.7262 93.6595 61.6814 94.2054C61.6516 94.6887 61.4219 95.1362 61.04 95.4643ZM32.0219 105.348C31.3417 104.557 31.4401 103.364 32.2307 102.684C32.5797 102.386 33.0213 102.23 33.4538 102.23C33.9819 102.23 34.5189 102.46 34.8918 102.893C35.563 103.683 35.4735 104.877 34.6829 105.557C33.8924 106.228 32.6991 106.138 32.0219 105.348ZM27.2845 96.9202C27.6365 96.6218 28.075 96.4637 28.5076 96.4637C29.0446 96.4637 29.5756 96.6964 29.9485 97.129C30.2767 97.5079 30.4318 97.9941 30.396 98.5013C30.3572 98.9995 30.1275 99.4619 29.7456 99.7901C29.3578 100.118 28.8596 100.276 28.3674 100.238C27.8662 100.202 27.4038 99.9631 27.0756 99.5812C26.4044 98.7907 26.4939 97.5974 27.2845 96.9202ZM21.6908 92.4453C21.7296 91.9441 21.9593 91.4817 22.3412 91.1535C22.6992 90.8552 23.1318 90.706 23.5703 90.706C24.1013 90.706 24.6294 90.9238 25.0023 91.3564C25.6824 92.1529 25.5929 93.3462 24.7934 94.0264C24.4146 94.3456 23.9223 94.5037 23.4301 94.4739C22.9229 94.4351 22.4665 94.2054 22.1383 93.8176C21.8102 93.4357 21.655 92.9435 21.6908 92.4453ZM17.4039 85.3899C17.7529 85.0826 18.1945 84.9334 18.627 84.9334C19.164 84.9334 19.6921 85.1572 20.065 85.5987C20.7362 86.3803 20.6467 87.5826 19.8561 88.2538C19.0656 88.931 17.8723 88.8415 17.1951 88.0509C16.5238 87.2604 16.6133 86.0671 17.4039 85.3899ZM3.81514 69.5338L24.7934 51.5507L32.186 60.1813V60.1873L11.2196 78.1614L3.81514 69.5338ZM11.4523 17.1836H20.9987C23.1019 17.1836 24.8173 15.4682 24.8173 13.365V3.81857H72.5495V59.2923L63.7846 49.0687C62.4123 47.4726 59.9959 47.2847 58.3999 48.651L49.7723 56.0555C48.3552 57.2726 48.0479 59.3013 48.9519 60.8675L44.477 61.1568C43.2538 61.2404 42.0665 61.7237 41.1357 62.5142L39.9633 63.5226L35.3393 62.3054C35.7062 61.7624 35.9449 61.1509 35.9956 60.4796C36.0791 59.4653 35.7509 58.4719 35.0857 57.6963L27.7021 49.0687C26.3298 47.4726 23.9134 47.2847 22.3173 48.651L11.4523 57.9648V17.1836ZM20.9987 6.51842V13.365H14.1521L20.9987 6.51842ZM80.1866 74.0594L71.5501 81.443L52.2543 58.9582L60.8849 51.5597L80.1866 74.0594ZM48.0867 71.5833C48.8833 70.8972 48.9728 69.7039 48.2866 68.8984C47.6005 68.1019 46.3922 68.0124 45.5957 68.6985L44.1548 69.9366C44.1548 69.9366 44.1548 69.9366 44.1488 69.9366L34.0654 78.5791C33.2748 79.2593 32.0815 79.1608 31.4014 78.3703C30.7242 77.5886 30.8196 76.3953 31.6102 75.7152L43.6178 65.4169C43.931 65.1484 44.3129 64.9903 44.7216 64.9695L51.9709 64.4981L67.4183 82.4961L61.6665 87.4245L48.0867 71.5833ZM70.312 85.0468C70.6163 85.1512 70.9296 85.2318 71.2577 85.2616C71.3621 85.2616 71.4606 85.2705 71.565 85.2705C72.4749 85.2705 73.34 84.9483 74.0411 84.3517L82.6687 76.9622C84.2647 75.5958 84.4527 73.1794 83.0863 71.5774L76.368 63.7463V3.81857C76.368 1.71537 74.6527 0 72.5495 0H23.6986C22.6902 0 21.7058 0.41169 20.9987 1.11872L8.75244 13.365C8.04242 14.075 7.63372 15.0595 7.63372 16.0649V61.2404L1.33009 66.6401C-0.265957 68.0034 -0.45092 70.4199 0.912431 72.0249L8.31987 80.6525C9.0806 81.5325 10.1546 81.98 11.2285 81.98C11.4821 81.98 11.7357 81.9502 11.9893 81.8995L13.7106 83.9728C12.5322 86.0074 12.6814 88.6476 14.3013 90.536C15.247 91.6458 16.5387 92.2723 17.8872 92.4453C17.8514 93.8623 18.3138 95.2197 19.2386 96.2997C20.1634 97.3826 21.4313 98.0449 22.8334 98.2239C22.8036 99.5812 23.2272 100.954 24.1819 102.066C25.1067 103.146 26.3746 103.803 27.7707 103.991C27.7409 105.348 28.1735 106.72 29.1281 107.83C30.2468 109.152 31.8488 109.823 33.4598 109.823C34.1549 109.823 34.8411 109.689 35.4974 109.441L38.1823 112.567C39.1727 113.722 40.554 114.423 42.0755 114.542C42.2246 114.551 42.3798 114.557 42.5289 114.557C43.8863 114.557 45.184 114.08 46.2282 113.185C47.3171 112.254 48.0032 110.977 48.1613 109.62C49.6082 109.629 50.9208 109.166 51.9948 108.248C53.0986 107.302 53.7549 106.019 53.9339 104.677C55.3062 104.706 56.6547 104.25 57.7585 103.304C58.8623 102.356 59.5186 101.073 59.6976 99.7304C60.9804 99.7453 62.4213 99.3068 63.5251 98.3671C64.6945 97.3527 65.3956 95.9655 65.4851 94.4888C65.6194 92.9733 65.151 91.4966 64.1516 90.3272L70.312 85.0468Z" fill="#554DDE"/>
<path d="M19.6471 29.9907C20.0051 30.3486 20.4914 30.5485 20.9985 30.5485C21.0433 30.5485 21.088 30.5485 21.1328 30.5426C21.6847 30.5038 22.1918 30.2293 22.526 29.7818L28.2538 22.1447C28.8893 21.3004 28.7162 20.1071 27.866 19.4747C27.0307 18.8392 25.8314 19.0123 25.196 19.8625L20.7897 25.7306L20.4377 25.3815C19.6919 24.6357 18.4836 24.6357 17.7378 25.3815C16.992 26.1273 16.992 27.3355 17.7378 28.0814L19.6471 29.9907Z" fill="#554DDE"/>
<path d="M45.8197 22.9114H64.9126C65.9627 22.9114 66.8218 22.0552 66.8218 21.0021C66.8218 19.952 65.9627 19.0928 64.9126 19.0928H45.8197C44.7666 19.0928 43.9104 19.952 43.9104 21.0021C43.9104 22.0552 44.7666 22.9114 45.8197 22.9114Z" fill="#554DDE"/>
<path d="M36.2731 22.9114H38.1823C39.2325 22.9114 40.0916 22.0552 40.0916 21.0021C40.0916 19.952 39.2325 19.0928 38.1823 19.0928H36.2731C35.22 19.0928 34.3638 19.952 34.3638 21.0021C34.3638 22.0552 35.22 22.9114 36.2731 22.9114Z" fill="#554DDE"/>
<path d="M36.2731 30.5485H49.6381C50.6882 30.5485 51.5474 29.6923 51.5474 28.6392C51.5474 27.5891 50.6882 26.7299 49.6381 26.7299H36.2731C35.22 26.7299 34.3638 27.5891 34.3638 28.6392C34.3638 29.6923 35.22 30.5485 36.2731 30.5485Z" fill="#554DDE"/>
<path d="M28.2538 37.419C28.8893 36.5748 28.7162 35.3815 27.866 34.749C27.0307 34.1136 25.8314 34.2866 25.196 35.1368L20.7897 41.0049L20.4377 40.6559C19.6919 39.9101 18.4836 39.9101 17.7378 40.6559C16.992 41.4017 16.992 42.6099 17.7378 43.3557L19.6471 45.265C20.0051 45.623 20.4914 45.8229 20.9985 45.8229C21.0433 45.8229 21.088 45.8229 21.1328 45.8169C21.6847 45.7781 22.1918 45.5037 22.526 45.0562L28.2538 37.419Z" fill="#554DDE"/>
<path d="M64.9126 34.3672H45.8197C44.7666 34.3672 43.9104 35.2263 43.9104 36.2764C43.9104 37.3295 44.7666 38.1857 45.8197 38.1857H64.9126C65.9627 38.1857 66.8218 37.3295 66.8218 36.2764C66.8218 35.2263 65.9627 34.3672 64.9126 34.3672Z" fill="#554DDE"/>
<path d="M36.2731 38.1857H38.1823C39.2325 38.1857 40.0916 37.3295 40.0916 36.2764C40.0916 35.2263 39.2325 34.3672 38.1823 34.3672H36.2731C35.22 34.3672 34.3638 35.2263 34.3638 36.2764C34.3638 37.3295 35.22 38.1857 36.2731 38.1857Z" fill="#554DDE"/>
<path d="M36.2731 45.8228H49.6381C50.6882 45.8228 51.5474 44.9667 51.5474 43.9136C51.5474 42.8635 50.6882 42.0043 49.6381 42.0043H36.2731C35.22 42.0043 34.3638 42.8635 34.3638 43.9136C34.3638 44.9667 35.22 45.8228 36.2731 45.8228Z" fill="#554DDE"/>
</svg>
