<svg width="37.352" height="30.561" viewBox="4 0 89 79" fill="none" xmlns="http://www.w3.org/2000/svg">
<rect width="89" height="79" rx="12" fill="#0376BA"/>
<path d="M72.4584 47.125H67.3751V52.2083H72.4584V47.125ZM72.4584 36.9583H67.3751V42.0417H72.4584V36.9583ZM72.4584 57.2917H67.3751V62.375C69.9167 62.375 72.4584 59.8333 72.4584 57.2917ZM52.1251 16.625H47.0417V21.7083H52.1251V16.625ZM72.4584 26.7917H67.3751V31.875H72.4584V26.7917ZM67.3751 16.625V21.7083H72.4584C72.4584 19.1667 69.9167 16.625 67.3751 16.625ZM21.6251 62.375H41.9584V52.2083C41.9584 49.4125 39.6709 47.125 36.8751 47.125H16.5417V57.2917C16.5417 60.0875 18.8292 62.375 21.6251 62.375ZM21.6251 26.7917H16.5417V31.875H21.6251V26.7917ZM52.1251 57.2917H47.0417V62.375H52.1251V57.2917ZM62.2917 16.625H57.2084V21.7083H62.2917V16.625ZM62.2917 57.2917H57.2084V62.375H62.2917V57.2917ZM21.6251 16.625C19.0834 16.625 16.5417 19.1667 16.5417 21.7083H21.6251V16.625ZM21.6251 36.9583H16.5417V42.0417H21.6251V36.9583ZM41.9584 16.625H36.8751V21.7083H41.9584V16.625ZM31.7917 16.625H26.7084V21.7083H31.7917V16.625Z" fill="white"/>
<path d="M45.9042 37.9052C43.7251 40.0853 40.1909 40.0853 38.0108 37.9052C35.8307 35.7251 35.8307 32.1909 38.0108 30.0108C40.1909 27.8307 43.7251 27.8307 45.9042 30.0108C48.0843 32.1909 48.0843 35.7251 45.9042 37.9052ZM37.0379 29.0379C34.3207 31.7551 34.3207 36.1609 37.0379 38.8781C39.5108 41.351 43.3836 41.5724 46.1077 39.5432L47.8003 41.2349L47.5978 41.4374C47.4023 41.633 47.3923 41.9457 47.574 42.1522L57.4479 53.4081C57.8252 53.8389 58.4844 53.8637 58.8944 53.4686C59.3908 53.8985 59.9547 54.0484 60.2058 53.7972L61.002 53.002L61.7972 52.2058C62.0484 51.9547 61.8985 51.3908 61.4686 50.8944C61.8637 50.4844 61.8379 49.8252 61.4081 49.448L50.1522 39.574C49.9457 39.3923 49.632 39.4023 49.4374 39.5978L49.2349 39.8003L47.5422 38.1077C49.5724 35.3836 49.351 31.5118 46.8771 29.0379C44.1599 26.3207 39.7551 26.3207 37.0379 29.0379Z" fill="white"/>
<path d="M44.5352 36.4935C44.699 36.4935 44.8618 36.4309 44.9879 36.3059C46.3251 34.9736 46.5296 32.8699 45.4733 31.3024C45.2748 31.0085 44.8767 30.9311 44.5818 31.1286C44.288 31.3272 44.2105 31.7253 44.4091 32.0191C45.1219 33.0774 44.9849 34.498 44.0825 35.3965C43.8303 35.6467 43.8303 36.0527 44.0805 36.3039C44.2056 36.4299 44.3704 36.4935 44.5352 36.4935Z" fill="white"/>
</svg>
