<svg xmlns="http://www.w3.org/2000/svg" xmlns:xlink="http://www.w3.org/1999/xlink" width="191" height="105" viewBox="0 0 191 105">
  <defs>
    <clipPath id="clip-path">
      <rect id="Rectangle_196" data-name="Rectangle 196" width="191" height="105" transform="translate(247 1212)" fill="#fff" stroke="#707070" stroke-width="1" stroke-dasharray="3 2"/>
    </clipPath>
  </defs>
  <g id="Mask_Group_5" data-name="Mask Group 5" transform="translate(-247 -1212)" clip-path="url(#clip-path)">
    <g id="upload" transform="translate(318.325 1234.157)">
      <path id="Path_144" data-name="Path 144" d="M1.511,31.32a1.511,1.511,0,0,1,1.511,1.511V43.407a3.022,3.022,0,0,0,3.022,3.022H42.306a3.022,3.022,0,0,0,3.022-3.022V32.831a1.511,1.511,0,1,1,3.022,0V43.407a6.044,6.044,0,0,1-6.044,6.044H6.044A6.044,6.044,0,0,1,0,43.407V32.831A1.511,1.511,0,0,1,1.511,31.32Zm13.6-9.507a1.511,1.511,0,0,0,2.137,0l6.929-6.931L31.1,21.81a1.511,1.511,0,1,0,2.137-2.135l-8-8a1.511,1.511,0,0,0-2.139,0l-8,8a1.511,1.511,0,0,0,0,2.139Z" fill-rule="evenodd"/>
      <path id="Path_145" data-name="Path 145" d="M63.779,16.6a1.511,1.511,0,0,1,1.511,1.511V42.291a1.511,1.511,0,1,1-3.022,0V18.116A1.511,1.511,0,0,1,63.779,16.6Z" transform="translate(-39.604 -3.416)" fill-rule="evenodd"/>
    </g>
    <g id="Path_146" data-name="Path 146" transform="translate(247 1212)" fill="none" stroke-dasharray="3 2">
      <path d="M0,0H191V105H0Z" stroke="none"/>
      <path d="M 5 0 L 8 0 L 8 1 L 5 1 L 5 0 Z M 10 0 L 13 0 L 13 1 L 10 1 L 10 0 Z M 15 0 L 18 0 L 18 1 L 15 1 L 15 0 Z M 20 0 L 23 0 L 23 1 L 20 1 L 20 0 Z M 25 0 L 28 0 L 28 1 L 25 1 L 25 0 Z M 30 0 L 33 0 L 33 1 L 30 1 L 30 0 Z M 35 0 L 38 0 L 38 1 L 35 1 L 35 0 Z M 40 0 L 43 0 L 43 1 L 40 1 L 40 0 Z M 45 0 L 48 0 L 48 1 L 45 1 L 45 0 Z M 50 0 L 53 0 L 53 1 L 50 1 L 50 0 Z M 55 0 L 58 0 L 58 1 L 55 1 L 55 0 Z M 60 0 L 63 0 L 63 1 L 60 1 L 60 0 Z M 65 0 L 68 0 L 68 1 L 65 1 L 65 0 Z M 70 0 L 73 0 L 73 1 L 70 1 L 70 0 Z M 75 0 L 78 0 L 78 1 L 75 1 L 75 0 Z M 80 0 L 83 0 L 83 1 L 80 1 L 80 0 Z M 85 0 L 88 0 L 88 1 L 85 1 L 85 0 Z M 90 0 L 93 0 L 93 1 L 90 1 L 90 0 Z M 95 0 L 98 0 L 98 1 L 95 1 L 95 0 Z M 100 0 L 103 0 L 103 1 L 100 1 L 100 0 Z M 105 0 L 108 0 L 108 1 L 105 1 L 105 0 Z M 110 0 L 113 0 L 113 1 L 110 1 L 110 0 Z M 115 0 L 118 0 L 118 1 L 115 1 L 115 0 Z M 120 0 L 123 0 L 123 1 L 120 1 L 120 0 Z M 125 0 L 128 0 L 128 1 L 125 1 L 125 0 Z M 130 0 L 133 0 L 133 1 L 130 1 L 130 0 Z M 135 0 L 138 0 L 138 1 L 135 1 L 135 0 Z M 140 0 L 143 0 L 143 1 L 140 1 L 140 0 Z M 145 0 L 148 0 L 148 1 L 145 1 L 145 0 Z M 150 0 L 153 0 L 153 1 L 150 1 L 150 0 Z M 155 0 L 158 0 L 158 1 L 155 1 L 155 0 Z M 160 0 L 163 0 L 163 1 L 160 1 L 160 0 Z M 165 0 L 168 0 L 168 1 L 165 1 L 165 0 Z M 170 0 L 173 0 L 173 1 L 170 1 L 170 0 Z M 175 0 L 178 0 L 178 1 L 175 1 L 175 0 Z M 180 0 L 183 0 L 183 1 L 180 1 L 180 0 Z M 185 0 L 188 0 L 188 1 L 185 1 L 185 0 Z M 190 0 L 191 0 L 191 1 C 191 1.5 191 2 191 2 L 190 2 L 190 0 Z M 190 4 L 191 4 C 191 4 191 7 191 7 L 190 7 L 190 4 Z M 190 9 L 191 9 C 191 9 191 12 191 12 L 190 12 L 190 9 Z M 190 14 L 191 14 C 191 14 191 17 191 17 L 190 17 L 190 14 Z M 190 19 L 191 19 C 191 19 191 22 191 22 L 190 22 L 190 19 Z M 190 24 L 191 24 C 191 24 191 27 191 27 L 190 27 L 190 24 Z M 190 29 L 191 29 C 191 29 191 32 191 32 L 190 32 L 190 29 Z M 190 34 L 191 34 C 191 34 191 37 191 37 L 190 37 L 190 34 Z M 190 39 L 191 39 C 191 39 191 42 191 42 L 190 42 L 190 39 Z M 190 44 L 191 44 C 191 44 191 47 191 47 L 190 47 L 190 44 Z M 190 49 L 191 49 C 191 49 191 52 191 52 L 190 52 L 190 49 Z M 190 54 L 191 54 C 191 54 191 57 191 57 L 190 57 L 190 54 Z M 190 59 L 191 59 C 191 59 191 62 191 62 L 190 62 L 190 59 Z M 190 64 L 191 64 C 191 64 191 67 191 67 L 190 67 L 190 64 Z M 190 69 L 191 69 C 191 69 191 72 191 72 L 190 72 L 190 69 Z M 190 74 L 191 74 C 191 74 191 77 191 77 L 190 77 L 190 74 Z M 190 79 L 191 79 C 191 79 191 82 191 82 L 190 82 L 190 79 Z M 190 84 L 191 84 C 191 84 191 87 191 87 L 190 87 L 190 84 Z M 190 89 L 191 89 C 191 89 191 92 191 92 L 190 92 L 190 89 Z M 190 94 L 191 94 C 191 94 191 97 191 97 L 190 97 L 190 94 Z M 190 99 L 191 99 C 191 99 191 102 191 102 L 190 102 L 190 99 Z M 189 104 L 191 104 C 191 104 191 105 191 105 L 190 105 C 189.5 105 189 105 189 105 L 189 104 Z M 184 104 L 187 104 L 187 105 C 187 105 184 105 184 105 L 184 104 Z M 179 104 L 182 104 L 182 105 C 182 105 179 105 179 105 L 179 104 Z M 174 104 L 177 104 L 177 105 C 177 105 174 105 174 105 L 174 104 Z M 169 104 L 172 104 L 172 105 C 172 105 169 105 169 105 L 169 104 Z M 164 104 L 167 104 L 167 105 C 167 105 164 105 164 105 L 164 104 Z M 159 104 L 162 104 L 162 105 C 162 105 159 105 159 105 L 159 104 Z M 154 104 L 157 104 L 157 105 C 157 105 154 105 154 105 L 154 104 Z M 149 104 L 152 104 L 152 105 C 152 105 149 105 149 105 L 149 104 Z M 144 104 L 147 104 L 147 105 C 147 105 144 105 144 105 L 144 104 Z M 139 104 L 142 104 L 142 105 C 142 105 139 105 139 105 L 139 104 Z M 134 104 L 137 104 L 137 105 C 137 105 134 105 134 105 L 134 104 Z M 129 104 L 132 104 L 132 105 C 132 105 129 105 129 105 L 129 104 Z M 124 104 L 127 104 L 127 105 C 127 105 124 105 124 105 L 124 104 Z M 119 104 L 122 104 L 122 105 C 122 105 119 105 119 105 L 119 104 Z M 114 104 L 117 104 L 117 105 C 117 105 114 105 114 105 L 114 104 Z M 109 104 L 112 104 L 112 105 C 112 105 109 105 109 105 L 109 104 Z M 104 104 L 107 104 L 107 105 C 107 105 104 105 104 105 L 104 104 Z M 99 104 L 102 104 L 102 105 C 102 105 99 105 99 105 L 99 104 Z M 94 104 L 97 104 L 97 105 C 97 105 94 105 94 105 L 94 104 Z M 89 104 L 92 104 L 92 105 C 92 105 89 105 89 105 L 89 104 Z M 84 104 L 87 104 L 87 105 C 87 105 84 105 84 105 L 84 104 Z M 79 104 L 82 104 L 82 105 C 82 105 79 105 79 105 L 79 104 Z M 74 104 L 77 104 L 77 105 C 77 105 74 105 74 105 L 74 104 Z M 69 104 L 72 104 L 72 105 C 72 105 69 105 69 105 L 69 104 Z M 64 104 L 67 104 L 67 105 C 67 105 64 105 64 105 L 64 104 Z M 59 104 L 62 104 L 62 105 C 62 105 59 105 59 105 L 59 104 Z M 54 104 L 57 104 L 57 105 C 57 105 54 105 54 105 L 54 104 Z M 49 104 L 52 104 L 52 105 C 52 105 49 105 49 105 L 49 104 Z M 44 104 L 47 104 L 47 105 C 47 105 44 105 44 105 L 44 104 Z M 39 104 L 42 104 L 42 105 C 42 105 39 105 39 105 L 39 104 Z M 34 104 L 37 104 L 37 105 C 37 105 34 105 34 105 L 34 104 Z M 29 104 L 32 104 L 32 105 C 32 105 29 105 29 105 L 29 104 Z M 24 104 L 27 104 L 27 105 C 27 105 24 105 24 105 L 24 104 Z M 19 104 L 22 104 L 22 105 C 22 105 19 105 19 105 L 19 104 Z M 14 104 L 17 104 L 17 105 C 17 105 14 105 14 105 L 14 104 Z M 9 104 L 12 104 L 12 105 C 12 105 9 105 9 105 L 9 104 Z M 4 104 L 7 104 L 7 105 C 7 105 4 105 4 105 L 4 104 Z M 0 104 L 2 104 L 2 105 C 2 105 0 105 0 105 L 0 104 Z M 0 99 L 1 99 L 1 102 L 0 102 L 0 99 Z M 0 94 L 1 94 L 1 97 L 0 97 L 0 94 Z M 0 89 L 1 89 L 1 92 L 0 92 L 0 89 Z M 0 84 L 1 84 L 1 87 L 0 87 L 0 84 Z M 0 79 L 1 79 L 1 82 L 0 82 L 0 79 Z M 0 74 L 1 74 L 1 77 L 0 77 L 0 74 Z M 0 69 L 1 69 L 1 72 L 0 72 L 0 69 Z M 0 64 L 1 64 L 1 67 L 0 67 L 0 64 Z M 0 59 L 1 59 L 1 62 L 0 62 L 0 59 Z M 0 54 L 1 54 L 1 57 L 0 57 L 0 54 Z M 0 49 L 1 49 L 1 52 L 0 52 L 0 49 Z M 0 44 L 1 44 L 1 47 L 0 47 L 0 44 Z M 0 39 L 1 39 L 1 42 L 0 42 L 0 39 Z M 0 34 L 1 34 L 1 37 L 0 37 L 0 34 Z M 0 29 L 1 29 L 1 32 L 0 32 L 0 29 Z M 0 24 L 1 24 L 1 27 L 0 27 L 0 24 Z M 0 19 L 1 19 L 1 22 L 0 22 L 0 19 Z M 0 14 L 1 14 L 1 17 L 0 17 L 0 14 Z M 0 9 L 1 9 L 1 12 L 0 12 L 0 9 Z M 0 4 L 1 4 L 1 7 L 0 7 L 0 4 Z M 0 0 L 3 0 L 3 1 L 1 1 L 1 2 L 0 2 L 0 0 Z" stroke="none" fill="#707070"/>
    </g>
  </g>
</svg>
