<?xml version="1.0" encoding="utf-8"?>
<!-- Generator: Adobe Illustrator 23.0.3, SVG Export Plug-In . SVG Version: 6.00 Build 0)  -->
<svg version="1.1" id="Layer_1" xmlns="http://www.w3.org/2000/svg" xmlns:xlink="http://www.w3.org/1999/xlink" x="0px" y="0px"
	 viewBox="0 0 139.55 63.25" style="enable-background:new 0 0 139.55 63.25;" xml:space="preserve">
<style type="text/css">
	.st0{fill:#438FE5;}
	.st1{fill:none;stroke:#1337BC;stroke-miterlimit:10;}
	.st2{fill:none;stroke:#212121;stroke-width:7;stroke-linecap:round;stroke-linejoin:round;stroke-miterlimit:10;}
	.st3{fill:none;stroke:#212121;stroke-width:5;stroke-linecap:round;stroke-linejoin:round;stroke-miterlimit:10;}
	.st4{fill:url(#SVGID_1_);}
	.st5{fill:url(#SVGID_2_);}
	.st6{fill:url(#SVGID_3_);}
	.st7{fill:none;stroke:#EFEFEF;stroke-width:5;stroke-linecap:round;stroke-linejoin:round;stroke-miterlimit:10;}
	.st8{fill:#EFEFEF;}
	.st9{fill:none;stroke:#544DD6;stroke-width:5;stroke-miterlimit:10;}
	.st10{fill:none;stroke:#F7F7F7;stroke-width:5;stroke-linecap:round;stroke-linejoin:round;stroke-miterlimit:10;}
	.st11{fill:#FFFFFF;}
	.st12{fill:url(#SVGID_4_);}
	.st13{fill:#2E3192;}
	.st14{fill:url(#SVGID_5_);}
	.st15{fill:none;stroke:#1A1A1E;stroke-width:11;stroke-linecap:round;stroke-miterlimit:10;}
	.st16{fill:none;stroke:#FFFFFF;stroke-width:5;stroke-linecap:round;stroke-miterlimit:10;}
	.st17{fill:url(#SVGID_6_);}
	.st18{fill:none;stroke:#FFFFFF;stroke-width:3;stroke-linecap:round;stroke-linejoin:round;stroke-miterlimit:10;}
	.st19{fill:url(#SVGID_7_);}
	.st20{fill:none;stroke:#1E1E1E;stroke-width:5;stroke-linecap:round;stroke-linejoin:round;stroke-miterlimit:10;}
	.st21{fill:url(#SVGID_8_);}
	.st22{fill:none;stroke:#2E3192;stroke-width:5;stroke-linecap:round;stroke-linejoin:round;stroke-miterlimit:10;}
	.st23{fill:none;stroke:#2E3192;stroke-width:8;stroke-linecap:round;stroke-linejoin:round;stroke-miterlimit:10;}
	.st24{fill:none;stroke:#2E3192;stroke-width:8;stroke-linecap:square;stroke-linejoin:round;stroke-miterlimit:10;}
	.st25{fill:#491A40;}
	.st26{fill:none;stroke:#FDC332;stroke-width:8;stroke-miterlimit:10;}
	.st27{fill:#FD6A65;}
	.st28{fill:#FDC332;}
	.st29{fill:none;stroke:#FDC332;stroke-width:6;stroke-linecap:round;stroke-linejoin:round;stroke-miterlimit:10;}
	.st30{fill:#000A4A;}
	.st31{fill:#29B7EB;}
	.st32{fill:none;stroke:#020202;stroke-width:7;stroke-linecap:square;stroke-linejoin:round;stroke-miterlimit:10;}
	.st33{fill:#020202;}
	.st34{fill:none;stroke:#3C9BF1;stroke-width:5;stroke-miterlimit:10;}
	.st35{fill:#FDFFFF;}
	.st36{fill:#414041;}
	.st37{fill:url(#SVGID_9_);}
	.st38{fill:#BC56FC;}
	.st39{fill:url(#SVGID_10_);}
	.st40{fill:url(#SVGID_11_);}
	.st41{fill:url(#SVGID_12_);}
	.st42{fill:url(#SVGID_13_);}
	.st43{fill:#BC53FF;}
</style>
<path class="st36" d="M50.55,36.96c-0.08-0.09-0.13-0.17-0.17-0.26c-0.04-0.09,0-0.18,0.1-0.29l0.97-0.95
	c0.09-0.08,0.17-0.1,0.25-0.08c0.08,0.02,0.17,0.07,0.25,0.15c0.14,0.14,0.3,0.29,0.48,0.44c0.18,0.15,0.37,0.28,0.58,0.4
	s0.43,0.22,0.67,0.29c0.24,0.07,0.5,0.11,0.76,0.11c0.29,0,0.54-0.04,0.76-0.12s0.41-0.18,0.57-0.31c0.16-0.13,0.28-0.28,0.36-0.45
	c0.08-0.17,0.12-0.34,0.12-0.53c0-0.23-0.07-0.43-0.21-0.58c-0.14-0.16-0.31-0.29-0.51-0.4s-0.42-0.2-0.66-0.27
	c-0.24-0.07-0.45-0.13-0.64-0.18c-1.16-0.35-2.05-0.77-2.66-1.28c-0.61-0.5-0.92-1.17-0.92-1.98c0-0.44,0.09-0.85,0.28-1.21
	s0.45-0.68,0.79-0.95c0.34-0.26,0.75-0.47,1.23-0.61c0.48-0.14,1.01-0.22,1.59-0.22c0.63,0,1.24,0.15,1.83,0.45
	c0.58,0.3,1.09,0.66,1.52,1.1c0.17,0.18,0.17,0.37-0.01,0.56l-0.79,0.85c-0.1,0.09-0.19,0.11-0.27,0.08
	c-0.09-0.03-0.18-0.09-0.27-0.17c-0.12-0.1-0.25-0.2-0.4-0.32s-0.31-0.22-0.49-0.33c-0.18-0.1-0.37-0.18-0.56-0.25
	s-0.4-0.1-0.61-0.1c-0.18,0-0.37,0.01-0.57,0.04c-0.2,0.03-0.38,0.08-0.53,0.17c-0.16,0.08-0.29,0.2-0.4,0.35
	c-0.11,0.15-0.16,0.35-0.16,0.6c0,0.18,0.05,0.34,0.15,0.48c0.1,0.13,0.25,0.25,0.43,0.35c0.19,0.1,0.41,0.19,0.66,0.28
	s0.54,0.17,0.84,0.26c0.49,0.14,0.95,0.31,1.38,0.48c0.43,0.18,0.81,0.4,1.13,0.66s0.58,0.57,0.77,0.92
	c0.19,0.36,0.29,0.78,0.29,1.28c0,0.5-0.11,0.96-0.33,1.36c-0.22,0.41-0.52,0.76-0.89,1.05c-0.37,0.29-0.8,0.51-1.28,0.66
	c-0.49,0.15-0.99,0.23-1.51,0.23c-0.75,0-1.47-0.16-2.16-0.49S51.05,37.48,50.55,36.96z"/>
<path class="st36" d="M59.59,35.07c0-0.51,0.1-0.99,0.29-1.44s0.46-0.85,0.8-1.18c0.34-0.34,0.74-0.6,1.19-0.79s0.94-0.29,1.46-0.29
	s1.01,0.1,1.46,0.29s0.85,0.46,1.18,0.79c0.34,0.34,0.6,0.73,0.8,1.18c0.2,0.45,0.29,0.93,0.29,1.44s-0.1,0.99-0.29,1.44
	c-0.2,0.45-0.46,0.84-0.8,1.17s-0.73,0.59-1.18,0.79s-0.94,0.29-1.46,0.29s-1-0.1-1.46-0.29s-0.85-0.45-1.19-0.79
	c-0.34-0.33-0.61-0.72-0.8-1.17S59.59,35.58,59.59,35.07z M61.51,35.08c0,0.26,0.04,0.5,0.14,0.73c0.09,0.23,0.22,0.43,0.38,0.6
	c0.16,0.17,0.36,0.31,0.58,0.4c0.22,0.1,0.46,0.14,0.72,0.14s0.5-0.05,0.72-0.14c0.22-0.1,0.41-0.23,0.58-0.4
	c0.16-0.17,0.29-0.37,0.39-0.6c0.1-0.23,0.14-0.47,0.14-0.73s-0.05-0.5-0.14-0.73c-0.1-0.23-0.23-0.43-0.39-0.6
	c-0.16-0.17-0.36-0.31-0.58-0.41c-0.22-0.1-0.46-0.15-0.72-0.15s-0.5,0.05-0.72,0.15c-0.22,0.1-0.41,0.24-0.58,0.41
	c-0.16,0.17-0.29,0.37-0.38,0.6C61.55,34.58,61.51,34.82,61.51,35.08z"/>
<path class="st36" d="M74.32,38.59c-0.14,0-0.25-0.02-0.33-0.06c-0.08-0.04-0.13-0.1-0.17-0.18c-0.04-0.08-0.07-0.17-0.09-0.27
	c-0.02-0.11-0.05-0.22-0.08-0.35c-0.22,0.25-0.54,0.47-0.95,0.66c-0.41,0.19-0.85,0.29-1.32,0.29c-0.44,0-0.83-0.07-1.18-0.21
	c-0.34-0.14-0.63-0.34-0.86-0.59c-0.23-0.25-0.4-0.56-0.52-0.9c-0.12-0.35-0.17-0.73-0.17-1.14v-3.9c0-0.13,0.04-0.24,0.12-0.32
	c0.08-0.08,0.18-0.12,0.3-0.12h1.18c0.15,0,0.26,0.04,0.32,0.11s0.09,0.18,0.09,0.31v3.58c0,0.39,0.11,0.71,0.34,0.94
	c0.23,0.23,0.53,0.35,0.9,0.35c0.15,0,0.33-0.03,0.52-0.09s0.37-0.15,0.53-0.25c0.16-0.11,0.3-0.24,0.42-0.39
	c0.12-0.15,0.17-0.32,0.17-0.51v-3.64c0-0.27,0.14-0.4,0.42-0.4h1.17c0.13,0,0.24,0.04,0.31,0.12c0.07,0.08,0.11,0.17,0.11,0.29
	v6.25c0,0.29-0.15,0.43-0.45,0.43H74.32z"/>
<path class="st36" d="M79,31.91c0.01,0.05,0.03,0.14,0.07,0.28c0.04,0.14,0.06,0.23,0.07,0.28c0.09-0.12,0.19-0.24,0.31-0.36
	c0.12-0.13,0.26-0.24,0.41-0.34c0.15-0.1,0.32-0.18,0.5-0.25s0.37-0.1,0.58-0.1c0.05,0,0.09,0,0.14,0s0.09,0,0.14,0.01
	c0.13,0.01,0.29,0.05,0.46,0.11s0.34,0.13,0.49,0.22c0.15,0.08,0.28,0.17,0.39,0.26c0.11,0.09,0.16,0.17,0.16,0.25
	c0,0.06-0.02,0.12-0.07,0.2l-0.58,0.94c-0.09,0.13-0.19,0.2-0.3,0.2c-0.04,0-0.1-0.02-0.17-0.05c-0.08-0.03-0.16-0.07-0.25-0.12
	c-0.13-0.1-0.25-0.16-0.35-0.2c-0.1-0.04-0.22-0.06-0.35-0.06c-0.21,0-0.4,0.04-0.57,0.12c-0.17,0.08-0.31,0.19-0.43,0.32
	c-0.12,0.13-0.21,0.29-0.27,0.46c-0.06,0.17-0.09,0.33-0.09,0.5v3.65c0,0.24-0.13,0.36-0.39,0.36h-1.2c-0.25,0-0.38-0.12-0.38-0.36
	v-6.32c0-0.12,0.04-0.22,0.12-0.28s0.16-0.09,0.26-0.09h0.92c0.12,0,0.2,0.04,0.25,0.12S78.97,31.81,79,31.91z"/>
<path class="st36" d="M87.02,36.96c0.29-0.01,0.54-0.05,0.75-0.13c0.21-0.08,0.43-0.17,0.66-0.27c0.1-0.05,0.16-0.07,0.2-0.07
	c0.07,0,0.14,0.05,0.22,0.16l0.62,0.89c0.04,0.08,0.06,0.13,0.06,0.16c0,0.09-0.03,0.15-0.09,0.2s-0.11,0.09-0.16,0.13
	c-0.32,0.21-0.66,0.38-1.04,0.52c-0.38,0.14-0.77,0.21-1.18,0.21c-0.51,0-0.99-0.1-1.44-0.29s-0.84-0.45-1.18-0.79
	c-0.34-0.33-0.6-0.72-0.79-1.17s-0.29-0.93-0.29-1.44s0.1-0.99,0.29-1.44s0.46-0.85,0.79-1.18c0.34-0.34,0.73-0.6,1.18-0.79
	s0.93-0.29,1.44-0.29c0.39,0,0.76,0.06,1.11,0.19c0.35,0.13,0.69,0.3,1.04,0.52H89.2c0.08,0.05,0.14,0.1,0.19,0.16
	s0.07,0.12,0.07,0.2c0,0.02,0,0.05-0.01,0.08c0,0.03-0.02,0.06-0.04,0.08l-0.56,0.97c-0.02,0.04-0.05,0.07-0.09,0.1
	c-0.04,0.03-0.09,0.04-0.14,0.04c-0.04,0-0.12-0.03-0.23-0.1c-0.16-0.13-0.37-0.24-0.61-0.33c-0.24-0.08-0.48-0.12-0.71-0.12
	c-0.27,0-0.52,0.05-0.75,0.16c-0.23,0.11-0.43,0.25-0.6,0.43s-0.3,0.39-0.4,0.62c-0.1,0.24-0.14,0.49-0.14,0.75
	c0,0.55,0.18,1,0.53,1.34C86.06,36.78,86.5,36.96,87.02,36.96z"/>
<path class="st36" d="M94.67,37.04c0.21,0.01,0.42-0.02,0.62-0.09s0.4-0.15,0.59-0.26c0.08-0.04,0.15-0.08,0.22-0.13
	c0.07-0.05,0.13-0.07,0.19-0.07c0.09,0,0.16,0.04,0.22,0.13l0.53,0.85c0.05,0.08,0.07,0.14,0.07,0.19c0,0.08-0.02,0.14-0.07,0.19
	s-0.1,0.1-0.16,0.15c-0.31,0.23-0.64,0.41-1,0.55c-0.36,0.13-0.75,0.2-1.16,0.2c-0.5,0-0.97-0.1-1.42-0.29s-0.84-0.45-1.17-0.79
	s-0.6-0.72-0.79-1.18c-0.2-0.45-0.3-0.93-0.3-1.44c0-0.5,0.1-0.97,0.29-1.42s0.45-0.84,0.78-1.18c0.33-0.34,0.71-0.61,1.14-0.81
	s0.89-0.3,1.38-0.3c0.46,0,0.9,0.09,1.31,0.26c0.41,0.17,0.78,0.41,1.09,0.71c0.31,0.3,0.56,0.65,0.74,1.05
	c0.18,0.4,0.27,0.82,0.27,1.28c0,0.38-0.03,0.65-0.09,0.82c-0.06,0.17-0.2,0.25-0.41,0.25h-4.49c0.02,0.21,0.08,0.4,0.19,0.56
	c0.11,0.16,0.24,0.3,0.39,0.42c0.15,0.12,0.33,0.2,0.51,0.26C94.31,37.01,94.49,37.04,94.67,37.04z M93.04,34.31h3.1
	c-0.02-0.36-0.18-0.67-0.47-0.93C95.38,33.13,95.01,33,94.58,33c-0.17,0-0.35,0.03-0.52,0.1c-0.17,0.07-0.33,0.16-0.48,0.28
	c-0.14,0.12-0.26,0.26-0.36,0.42C93.13,33.96,93.07,34.13,93.04,34.31z"/>
<path class="st36" d="M100.11,38.23v-9.99c0-0.24,0.11-0.36,0.33-0.36h1.27c0.24,0,0.36,0.12,0.36,0.36v4.04
	c0.2-0.26,0.45-0.47,0.74-0.63c0.29-0.16,0.66-0.24,1.09-0.24c0.49,0,0.94,0.1,1.36,0.29c0.41,0.19,0.77,0.45,1.06,0.79
	c0.29,0.33,0.52,0.72,0.69,1.16c0.17,0.44,0.25,0.92,0.25,1.43c0,0.5-0.09,0.97-0.26,1.42s-0.41,0.83-0.71,1.16
	c-0.3,0.33-0.65,0.59-1.06,0.78c-0.41,0.19-0.85,0.29-1.33,0.29c-0.46,0-0.85-0.08-1.15-0.24c-0.31-0.16-0.58-0.41-0.82-0.76
	c-0.02,0.11-0.04,0.2-0.06,0.28c-0.02,0.08-0.04,0.17-0.06,0.25c-0.05,0.17-0.15,0.27-0.32,0.29c-0.16,0.02-0.33,0.03-0.49,0.03
	h-0.55C100.22,38.57,100.11,38.45,100.11,38.23z M101.88,35.11c0,0.26,0.05,0.5,0.14,0.74c0.09,0.23,0.22,0.43,0.38,0.6
	c0.16,0.17,0.34,0.3,0.56,0.4c0.21,0.1,0.43,0.15,0.66,0.15c0.24,0,0.46-0.05,0.67-0.15c0.21-0.1,0.39-0.24,0.54-0.41
	c0.15-0.17,0.28-0.38,0.37-0.61c0.09-0.23,0.14-0.48,0.14-0.74s-0.04-0.51-0.13-0.74c-0.09-0.24-0.2-0.44-0.35-0.61
	c-0.15-0.17-0.33-0.31-0.53-0.41c-0.21-0.1-0.43-0.15-0.66-0.15c-0.24,0-0.47,0.05-0.68,0.15c-0.21,0.1-0.4,0.24-0.56,0.41
	c-0.16,0.17-0.29,0.38-0.39,0.61c-0.1,0.24-0.14,0.48-0.14,0.74V35.11z"/>
<path class="st36" d="M113.83,38.2c-0.02-0.1-0.03-0.17-0.04-0.24c-0.01-0.06-0.02-0.14-0.04-0.24c-0.09,0.12-0.18,0.25-0.29,0.38
	s-0.23,0.23-0.38,0.32c-0.14,0.09-0.31,0.17-0.5,0.22s-0.42,0.09-0.69,0.09h-0.03c-0.51,0-0.98-0.09-1.41-0.28s-0.8-0.45-1.1-0.78
	c-0.31-0.33-0.55-0.72-0.72-1.16c-0.17-0.44-0.26-0.92-0.26-1.44s0.08-1,0.25-1.45c0.17-0.45,0.41-0.83,0.71-1.16
	c0.31-0.33,0.68-0.58,1.1-0.77c0.43-0.19,0.9-0.28,1.42-0.28c0.51,0,0.91,0.1,1.19,0.3c0.28,0.2,0.54,0.44,0.76,0.72l0.14-0.55
	c0.04-0.16,0.08-0.27,0.13-0.32c0.05-0.05,0.14-0.08,0.27-0.08l0.81,0.03c0.11,0,0.2,0.04,0.29,0.11c0.09,0.07,0.13,0.17,0.13,0.28
	v6.33c0,0.12-0.04,0.2-0.13,0.27c-0.09,0.06-0.18,0.09-0.29,0.09h-0.92c-0.14,0-0.24-0.04-0.3-0.11
	C113.89,38.41,113.85,38.31,113.83,38.2z M110.24,35.08c0,0.27,0.04,0.52,0.12,0.75c0.08,0.23,0.2,0.43,0.35,0.61
	c0.15,0.17,0.34,0.31,0.55,0.4c0.21,0.1,0.45,0.14,0.71,0.14c0.54,0,0.96-0.18,1.28-0.54s0.47-0.81,0.47-1.35
	c0-0.26-0.04-0.51-0.12-0.74c-0.08-0.24-0.19-0.44-0.35-0.62c-0.15-0.18-0.34-0.32-0.55-0.42c-0.21-0.1-0.46-0.15-0.74-0.15
	c-0.26,0-0.5,0.05-0.71,0.15c-0.22,0.1-0.4,0.24-0.55,0.42s-0.26,0.38-0.35,0.61C110.28,34.57,110.24,34.82,110.24,35.08z"/>
<path class="st36" d="M124.01,33.37c-0.18-0.4-0.42-0.75-0.74-1.05c-0.31-0.3-0.68-0.53-1.09-0.71c-0.41-0.17-0.85-0.26-1.31-0.26
	c-0.49,0-0.95,0.1-1.38,0.3s-0.81,0.47-1.14,0.81c-0.33,0.34-0.59,0.74-0.78,1.18s-0.29,0.92-0.29,1.42c0,0.51,0.1,0.99,0.3,1.44
	c0.2,0.45,0.46,0.84,0.79,1.18s0.72,0.59,1.17,0.79s0.92,0.29,1.42,0.29c0.41,0,0.8-0.07,1.16-0.2c0.36-0.13,0.69-0.32,1-0.55
	c0.06-0.05,0.11-0.1,0.16-0.15s0.07-0.12,0.07-0.19c0-0.05-0.02-0.11-0.07-0.19l-0.53-0.85c-0.06-0.09-0.13-0.13-0.22-0.13
	c-0.06,0-0.12,0.02-0.19,0.07c-0.07,0.05-0.14,0.09-0.22,0.13c-0.19,0.11-0.39,0.19-0.59,0.26s-0.41,0.1-0.62,0.09
	c-0.17,0-0.35-0.03-0.54-0.09c-0.19-0.06-0.36-0.14-0.51-0.26c-0.15-0.12-0.28-0.25-0.39-0.42c-0.11-0.16-0.17-0.35-0.19-0.56h4.49
	c0.21,0,0.35-0.08,0.41-0.25c0.06-0.17,0.09-0.44,0.09-0.82C124.28,34.19,124.19,33.77,124.01,33.37z M119.28,34.31
	c0.03-0.18,0.09-0.35,0.19-0.51c0.1-0.16,0.22-0.3,0.36-0.42c0.14-0.12,0.3-0.21,0.48-0.28c0.17-0.07,0.35-0.1,0.52-0.1
	c0.43,0,0.8,0.13,1.09,0.38c0.29,0.26,0.45,0.57,0.47,0.93H119.28z"/>
<linearGradient id="SVGID_1_" gradientUnits="userSpaceOnUse" x1="120.2364" y1="28.9975" x2="122.6172" y2="28.9975">
	<stop  offset="0" style="stop-color:#F1A0AD"/>
	<stop  offset="0.1538" style="stop-color:#E087C7"/>
	<stop  offset="0.3418" style="stop-color:#D070E0"/>
	<stop  offset="0.5394" style="stop-color:#C560F1"/>
	<stop  offset="0.7508" style="stop-color:#BE56FC"/>
	<stop  offset="1" style="stop-color:#BC53FF"/>
</linearGradient>
<path class="st4" d="M122.55,28.3l-0.66,1.51c-0.08,0.2-0.2,0.3-0.38,0.3h-1.04c-0.1,0-0.16-0.01-0.19-0.04
	c-0.03-0.03-0.04-0.08-0.04-0.14c0-0.04,0.01-0.08,0.02-0.12c0.01-0.04,0.03-0.09,0.05-0.16l0.63-1.47c0.11-0.2,0.24-0.3,0.39-0.3
	h1.08c0.13,0,0.2,0.05,0.2,0.14C122.62,28.1,122.59,28.19,122.55,28.3z"/>
<linearGradient id="SVGID_2_" gradientUnits="userSpaceOnUse" x1="28.3677" y1="21.6902" x2="42.8867" y2="41.9443">
	<stop  offset="0" style="stop-color:#F1A0AD"/>
	<stop  offset="0.1538" style="stop-color:#E087C7"/>
	<stop  offset="0.3418" style="stop-color:#D070E0"/>
	<stop  offset="0.5394" style="stop-color:#C560F1"/>
	<stop  offset="0.7508" style="stop-color:#BE56FC"/>
	<stop  offset="1" style="stop-color:#BC53FF"/>
</linearGradient>
<path class="st5" d="M37.14,22.68c-1.45-0.19-2.89-0.05-4.24,0.36l1.02-7.89l-1.49-0.19c-2.67-0.35-5.33,0.37-7.46,2.02
	s-3.5,4.03-3.85,6.71c-0.71,5.52,3.2,10.6,8.73,11.31c0.44,0.06,0.88,0.08,1.31,0.08c1,0,1.99-0.16,2.93-0.45l-1.02,7.89l1.49,0.19
	c0.44,0.06,0.88,0.08,1.31,0.08c2.22,0,4.37-0.73,6.15-2.11c2.14-1.65,3.5-4.03,3.85-6.71C46.58,28.46,42.66,23.39,37.14,22.68z
	 M24.09,24.07c0.24-1.88,1.2-3.56,2.71-4.72c1.1-0.85,2.39-1.34,3.74-1.46l-0.88,6.82c-1.74,1.35-2.96,3.19-3.53,5.28
	C24.62,28.49,23.8,26.34,24.09,24.07z M30.23,32.02c-0.49-0.06-0.96-0.17-1.41-0.33c0.26-1.84,1.21-3.48,2.69-4.62
	c1.5-1.16,3.36-1.66,5.25-1.42c0.49,0.06,0.96,0.17,1.41,0.33c-0.26,1.84-1.21,3.48-2.69,4.62C33.97,31.76,32.11,32.27,30.23,32.02z
	 M42.89,33.6c-0.24,1.88-1.2,3.56-2.71,4.72c-1.1,0.85-2.39,1.34-3.74,1.46l0.88-6.82c1.74-1.35,2.96-3.19,3.53-5.28
	C42.36,29.18,43.18,31.34,42.89,33.6z"/>
<path class="st38" d="M26.22,44.76c-0.2,0-0.4-0.01-0.6-0.04c-2.53-0.33-4.33-2.65-4-5.18c0.33-2.53,2.65-4.33,5.18-4
	c2.53,0.33,4.33,2.65,4,5.18c-0.16,1.23-0.78,2.32-1.76,3.07C28.22,44.43,27.24,44.76,26.22,44.76z M26.21,38.5
	c-0.81,0-1.51,0.6-1.62,1.42c-0.11,0.89,0.52,1.71,1.41,1.82c0.43,0.06,0.86-0.06,1.2-0.33c0.34-0.27,0.57-0.65,0.62-1.08
	c0.11-0.89-0.52-1.71-1.41-1.82h0C26.35,38.5,26.28,38.5,26.21,38.5z"/>
<path class="st43" d="M40.84,21.64c-0.2,0-0.4-0.01-0.6-0.04c-2.53-0.33-4.33-2.65-4-5.18c0.16-1.23,0.78-2.32,1.76-3.07
	c0.98-0.76,2.19-1.08,3.42-0.93h0c2.53,0.33,4.33,2.65,4,5.18C45.13,19.93,43.13,21.64,40.84,21.64z M40.83,15.38
	c-0.36,0-0.7,0.12-0.99,0.34c-0.34,0.27-0.57,0.65-0.62,1.08c-0.11,0.89,0.52,1.71,1.41,1.82c0.88,0.12,1.71-0.52,1.83-1.41
	c0.11-0.89-0.52-1.71-1.41-1.82C40.97,15.38,40.9,15.38,40.83,15.38z"/>
</svg>
