<svg xmlns="http://www.w3.org/2000/svg" fill-rule="evenodd" stroke-linejoin="round" stroke-miterlimit="2" clip-rule="evenodd" viewBox="0 0 64 64"><path fill="none" d="M0 0h64v64H0z"/><path fill="#c1d5e4" d="M11 60a.997.997 0 01-1-1V41a.997.997 0 011-1h3a.997.997 0 011 1v13a1 1 0 001 1h32a1 1 0 001-1V41a.997.997 0 011-1h3a.997.997 0 011 1v18a.997.997 0 01-1 1H11z"/><path fill="#9bb9c1" d="M13 40a.997.997 0 00-1 1v18a.997.997 0 001 1h40-42a.997.997 0 01-1-1V41a.997.997 0 011-1h2zm39 0a.997.997 0 00-1 1v13a1 1 0 01-1 1h-2a1 1 0 001-1V41a.997.997 0 011-1h2z"/><path d="M11 60.5h42a1.503 1.503 0 001.5-1.5V41a1.503 1.503 0 00-1.5-1.5h-3a1.503 1.503 0 00-1.5 1.5v13a.5.5 0 01-.5.5H16a.5.5 0 01-.5-.5V41a1.503 1.503 0 00-1.5-1.5h-3A1.503 1.503 0 009.5 41v18a1.503 1.503 0 001.5 1.5zm0-1a.504.504 0 01-.354-.146A.504.504 0 0110.5 59V41c0-.133.053-.26.146-.354A.504.504 0 0111 40.5h3c.133 0 .26.053.354.146A.504.504 0 0114.5 41v13a1.5 1.5 0 001.5 1.5h32a1.5 1.5 0 001.5-1.5V41c0-.133.053-.26.146-.354A.504.504 0 0150 40.5h3c.133 0 .26.053.354.146A.504.504 0 0153.5 41v18c0 .133-.053.26-.146.354A.504.504 0 0153 59.5H11z"/><path fill="#fcb860" d="M21 45a.997.997 0 00-1 1v3a1 1 0 001 1h22a.997.997 0 001-1v-3a1 1 0 00-1-1H21z"/><path d="M21 44.5c-.398 0-.78.158-1.061.439-.281.282-.44.663-.44 1.061v3a1.504 1.504 0 001.5 1.5H43c.398 0 .78-.158 1.061-.439.281-.282.44-.663.44-1.061v-3a1.504 1.504 0 00-1.5-1.5H21zm0 1h22a.502.502 0 01.5.5v3a.501.501 0 01-.5.5H21a.502.502 0 01-.5-.5v-3a.501.501 0 01.5-.5z"/><path fill="#fcb860" d="M43.233 4.79a.997.997 0 00-1.402-.18L39.455 6.44a1 1 0 00-.182 1.403l13.434 17.423a.997.997 0 001.402.181l2.376-1.831a1 1 0 00.181-1.403L43.233 4.791z"/><path d="M43.63 4.485a1.504 1.504 0 00-2.104-.272l-2.377 1.832a1.504 1.504 0 00-.272 2.104l13.434 17.424c.242.314.6.52.995.572.395.05.793-.057 1.108-.3l2.376-1.832a1.504 1.504 0 00.272-2.104L43.63 4.485zm-.793.611c2.384 3.092 11.05 14.331 13.433 17.424a.502.502 0 01-.09.7l-2.377 1.832a.501.501 0 01-.7-.09L39.669 7.538a.502.502 0 01.091-.7l2.376-1.832a.501.501 0 01.701.09z"/><path fill="#fcb860" d="M34.256 12.728a.997.997 0 00-1.406.144L30.956 15.2a1 1 0 00.143 1.406l17.06 13.892a.997.997 0 001.407-.144l1.894-2.326a1 1 0 00-.143-1.407l-17.06-13.892z"/><path d="M34.572 12.34a1.504 1.504 0 00-1.1-.329c-.395.041-.759.237-1.01.545l-1.894 2.327c-.252.308-.37.704-.33 1.1.041.396.238.76.546 1.01l17.06 13.892c.308.25.703.37 1.1.33.395-.042.759-.237 1.01-.546l1.894-2.326c.252-.309.37-.704.33-1.1a1.504 1.504 0 00-.546-1.01L34.572 12.34zm-.631.776L51 27.008a.502.502 0 01.071.703l-1.894 2.326a.501.501 0 01-.703.073l-17.06-13.892a.502.502 0 01-.071-.703l1.894-2.327a.501.501 0 01.703-.072z"/><path fill="#fcb860" d="M27.158 22.825a.997.997 0 00-1.333.47l-1.294 2.708a1 1 0 00.471 1.333l19.851 9.486a.997.997 0 001.333-.472l1.294-2.707a1 1 0 00-.471-1.333l-19.851-9.485z"/><path d="M27.373 22.373a1.504 1.504 0 00-1.146-.06 1.504 1.504 0 00-.854.767l-1.293 2.707a1.504 1.504 0 00.707 2l19.85 9.486a1.504 1.504 0 002-.707l1.294-2.707a1.504 1.504 0 00-.707-2l-19.85-9.486zm-.43.903l19.85 9.485a.502.502 0 01.235.667l-1.293 2.706a.501.501 0 01-.666.236l-19.851-9.485a.502.502 0 01-.235-.666l1.293-2.707a.501.501 0 01.666-.236z"/><path fill="#fcb860" d="M22.765 33.834a.997.997 0 00-1.192.76l-.647 2.93a1 1 0 00.76 1.192c3.813.843 17.67 3.906 21.482 4.75a.997.997 0 001.192-.761l.647-2.93a1 1 0 00-.76-1.192l-21.482-4.749z"/><path d="M22.873 33.346a1.504 1.504 0 00-1.13.2 1.504 1.504 0 00-.658.94l-.648 2.93c-.086.389-.013.795.2 1.13.215.336.553.573.94.658l21.483 4.75a1.504 1.504 0 001.788-1.14l.648-2.93a1.504 1.504 0 00-.2-1.131 1.504 1.504 0 00-.94-.658l-21.483-4.75zm-.216.976c3.813.843 17.67 3.906 21.482 4.75a.502.502 0 01.38.595l-.648 2.93a.501.501 0 01-.595.38l-21.482-4.749a.502.502 0 01-.38-.596l.648-2.93a.501.501 0 01.595-.38z"/></svg>