<svg width="53" height="54" viewBox="0 0 53 54" fill="none" xmlns="http://www.w3.org/2000/svg">
<path d="M27.3625 0.999974C12.74 0.802474 0.802536 12.74 1.00004 27.3625C1.19504 41.3862 12.6138 52.805 26.6375 53C41.2625 53.2 53.1975 41.2625 52.9975 26.64C52.805 12.6137 41.3863 1.19497 27.3625 0.999974ZM25.2638 25.0587L31.7075 17.6837C32.0566 17.2842 32.5501 17.0398 33.0794 17.0042C33.6088 16.9685 34.1306 17.1446 34.53 17.4937C34.9295 17.8428 35.174 18.3363 35.2096 18.8656C35.2452 19.3949 35.0691 19.9167 34.72 20.3162L28.2763 27.6912C28.1034 27.889 27.8933 28.0508 27.6579 28.1674C27.4225 28.284 27.1665 28.3531 26.9044 28.3708C26.6423 28.3884 26.3793 28.3543 26.1304 28.2703C25.8815 28.1863 25.6516 28.0541 25.4538 27.8812C25.256 27.7084 25.0942 27.4983 24.9776 27.2629C24.861 27.0275 24.7919 26.7714 24.7742 26.5093C24.7566 26.2472 24.7907 25.9842 24.8747 25.7353C24.9587 25.4864 25.0909 25.2565 25.2638 25.0587ZM20.4063 36.415C20.0313 36.7898 19.5227 37.0003 18.9925 37.0003C18.4623 37.0003 17.9538 36.7898 17.5788 36.415L11.585 30.415C11.3994 30.2292 11.2521 30.0086 11.1517 29.7659C11.0513 29.5231 10.9997 29.263 10.9998 29.0003C10.9999 28.7377 11.0518 28.4776 11.1524 28.235C11.253 27.9923 11.4005 27.7719 11.5863 27.5862C11.7721 27.4006 11.9927 27.2533 12.2354 27.1529C12.4781 27.0525 12.7382 27.0009 13.0009 27.001C13.2636 27.0011 13.5237 27.053 13.7663 27.1536C14.0089 27.2542 14.2294 27.4017 14.415 27.5875L20.415 33.5875C20.7887 33.9637 20.9976 34.4728 20.996 35.003C20.9943 35.5332 20.7822 36.0411 20.4063 36.415ZM42.5063 20.3162L28.5213 36.3162C28.3411 36.5227 28.1204 36.6899 27.8729 36.8075C27.6254 36.9251 27.3564 36.9906 27.0825 37H27.015C26.7522 37 26.492 36.9483 26.2492 36.8477C26.0064 36.7471 25.7858 36.5996 25.6 36.4137L19.6075 30.4137C19.2326 30.0384 19.0221 29.5296 19.0223 28.9991C19.0225 28.4686 19.2335 27.9599 19.6088 27.585C19.9841 27.21 20.4929 26.9995 21.0234 26.9997C21.5539 27 22.0626 27.2109 22.4375 27.5862L26.1625 31.315C26.2594 31.4118 26.3751 31.4878 26.5025 31.5381C26.6299 31.5884 26.7662 31.612 26.9031 31.6074C27.04 31.6028 27.1745 31.5702 27.2982 31.5115C27.422 31.4528 27.5324 31.3693 27.6225 31.2662L39.4975 17.6837C39.8466 17.2842 40.3401 17.0398 40.8694 17.0042C41.3988 16.9685 41.9206 17.1446 42.32 17.4937C42.7195 17.8428 42.964 18.3363 42.9996 18.8656C43.0352 19.3949 42.8591 19.9167 42.51 20.3162H42.5063Z" fill="#4DDE9E"/>
</svg>
