<svg width="50" height="64" viewBox="0 0 50 64" fill="none" xmlns="http://www.w3.org/2000/svg">
<path d="M49.0443 31.2889C45.8443 27.9111 41.5777 25.6 37.1332 24.7111C35.1777 24.1778 33.2221 23.8222 31.2666 23.6445C36.2443 17.7778 35.3554 8.88891 29.4888 3.91114C23.6221 -1.06664 14.7332 -0.177752 9.75545 5.68891C4.77767 11.5556 5.66656 20.4445 11.5332 25.4222C12.5999 26.3111 13.6666 27.0222 14.7332 27.3778V31.2889L11.8888 28.6222C9.39989 26.1334 5.311 26.1334 2.64434 28.6222C0.155447 31.1111 -0.0223311 35.0222 2.46656 37.5111L10.6443 47.1111C10.9999 49.6 11.8888 51.9111 13.1332 54.0445C14.0221 55.6445 15.2666 57.2445 16.511 58.4889V61.8667C16.511 62.9334 17.2221 63.6445 18.2888 63.6445H42.4666C43.3554 63.6445 44.2443 62.7556 44.2443 61.8667V57.2445C47.6221 53.1556 49.3999 48 49.3999 42.8445V32.5334C49.5777 31.8222 49.3999 31.4667 49.0443 31.2889ZM9.93322 14.5778C9.93322 8.71114 14.7332 4.08891 20.5999 4.26669C26.4666 4.26669 31.0888 9.06669 30.911 14.9334C30.911 18.1334 29.4888 20.9778 26.9999 22.9334V14.0445C26.9091 12.5038 26.2324 11.0562 25.1086 9.99845C23.9847 8.9407 22.4988 8.35291 20.9554 8.35558C17.7554 8.1778 14.911 10.8445 14.911 14.0445V23.2889C11.8888 21.5111 10.111 18.1334 9.93322 14.5778ZM46.0221 42.6667C46.1999 47.2889 44.5999 51.7334 41.5777 55.2889C41.2221 55.6445 40.8666 56 40.8666 56.5334V60.2667H20.2443V57.7778C20.2443 57.2445 19.8888 56.7111 19.5332 56.3556C18.2888 55.2889 17.2221 54.0445 16.3332 52.4445C15.2666 50.6667 14.5554 48.5334 14.1999 46.4C14.1999 46.0445 14.0221 45.6889 13.8443 45.3334L5.311 35.2C4.77767 34.6667 4.42211 33.9556 4.42211 33.0667C4.42211 32.3556 4.77767 31.4667 5.311 30.9334C6.55545 29.8667 8.33322 29.8667 9.57767 30.9334L14.7332 36.0889V41.4222L18.111 39.6445V14.0445C18.2888 12.8 19.3554 11.7334 20.7777 11.9111C22.0221 11.9111 23.2666 12.8 23.2666 14.0445V34.4889L26.8221 35.2V27.0222C26.9999 26.8445 27.1777 26.8445 27.3554 26.6667C28.5999 26.6667 29.8443 26.8445 31.0888 27.0222V36.0889L33.9332 36.6222V27.3778L36.0666 27.9111C36.9554 28.0889 37.8443 28.4445 38.7332 28.8V37.6889L41.5777 38.2222V30.0445C43.1777 30.7556 44.5999 31.8222 45.8443 33.0667L46.0221 42.6667Z" fill="#FAAD13"/>
</svg>
