<svg width="53" height="54" viewBox="0 0 53 54" fill="none" xmlns="http://www.w3.org/2000/svg">
<path d="M27.3625 1C12.74 0.802501 0.802536 12.74 1.00004 27.3625C1.19504 41.3862 12.6138 52.805 26.6375 53C41.2625 53.2 53.1975 41.2625 52.9975 26.64C52.805 12.6138 41.3863 1.195 27.3625 1ZM25.2638 25.0588L31.7075 17.6838C32.0566 17.2843 32.5501 17.0398 33.0794 17.0042C33.6088 16.9686 34.1306 17.1447 34.53 17.4938C34.9295 17.8428 35.174 18.3363 35.2096 18.8657C35.2452 19.395 35.0691 19.9168 34.72 20.3163L28.2763 27.6913C28.1034 27.8891 27.8933 28.0509 27.6579 28.1675C27.4225 28.2841 27.1665 28.3532 26.9044 28.3708C26.6423 28.3885 26.3793 28.3543 26.1304 28.2703C25.8815 28.1863 25.6516 28.0541 25.4538 27.8813C25.256 27.7084 25.0942 27.4983 24.9776 27.2629C24.861 27.0275 24.7919 26.7714 24.7742 26.5094C24.7566 26.2473 24.7907 25.9843 24.8747 25.7354C24.9587 25.4865 25.0909 25.2566 25.2638 25.0588ZM20.4063 36.415C20.0313 36.7898 19.5227 37.0003 18.9925 37.0003C18.4623 37.0003 17.9538 36.7898 17.5788 36.415L11.585 30.415C11.3994 30.2292 11.2521 30.0086 11.1517 29.7659C11.0513 29.5232 10.9997 29.263 10.9998 29.0004C10.9999 28.7377 11.0518 28.4776 11.1524 28.235C11.253 27.9923 11.4005 27.7719 11.5863 27.5863C11.7721 27.4006 11.9927 27.2534 12.2354 27.1529C12.4781 27.0525 12.7382 27.0009 13.0009 27.001C13.2636 27.0011 13.5237 27.053 13.7663 27.1536C14.0089 27.2542 14.2294 27.4017 14.415 27.5875L20.415 33.5875C20.7887 33.9637 20.9976 34.4729 20.996 35.0031C20.9943 35.5333 20.7822 36.0411 20.4063 36.415ZM42.5063 20.3163L28.5213 36.3162C28.3411 36.5227 28.1204 36.6899 27.8729 36.8075C27.6254 36.9252 27.3564 36.9907 27.0825 37H27.015C26.7522 37 26.492 36.9483 26.2492 36.8477C26.0064 36.7471 25.7858 36.5996 25.6 36.4137L19.6075 30.4138C19.2326 30.0385 19.0221 29.5296 19.0223 28.9991C19.0225 28.4686 19.2335 27.96 19.6088 27.585C19.9841 27.2101 20.4929 26.9995 21.0234 26.9998C21.5539 27 22.0626 27.211 22.4375 27.5863L26.1625 31.315C26.2594 31.4119 26.3751 31.4878 26.5025 31.5381C26.6299 31.5884 26.7662 31.612 26.9031 31.6074C27.04 31.6029 27.1745 31.5702 27.2982 31.5115C27.422 31.4528 27.5324 31.3694 27.6225 31.2663L39.4975 17.6838C39.8466 17.2843 40.3401 17.0398 40.8694 17.0042C41.3988 16.9686 41.9206 17.1447 42.32 17.4938C42.7195 17.8428 42.964 18.3363 42.9996 18.8657C43.0352 19.395 42.8591 19.9168 42.51 20.3163H42.5063Z" fill="#FAAD13"/>
</svg>
