<svg width="51" height="50" viewBox="0 0 51 50" fill="none" xmlns="http://www.w3.org/2000/svg">
<path d="M24.775 29.995L44.3825 30C45.8743 30 47.3051 30.5926 48.36 31.6475C49.4149 32.7024 50.0075 34.1332 50.0075 35.625V37.8875C50.0075 39.2385 49.7155 40.5735 49.1515 41.8011C48.5876 43.0287 47.7649 44.1199 46.74 45C42.825 48.36 37.225 50 30 50H29.5525C30.1375 48.825 30.1575 47.4375 29.6175 46.245L30 46.2525C36.4 46.2525 41.145 44.86 44.2975 42.1525C44.9121 41.6247 45.4053 40.9703 45.7436 40.2342C46.0819 39.4981 46.2572 38.6976 46.2575 37.8875V35.625C46.2575 35.1277 46.06 34.6508 45.7083 34.2992C45.3567 33.9476 44.8798 33.75 44.3825 33.75H24.9425C25.056 32.4964 24.9988 31.2332 24.7725 29.995H24.775ZM11.25 21.25C13.3867 21.2505 15.4791 21.8595 17.2823 23.0056C19.0856 24.1518 20.5251 25.7879 21.4325 27.7223C22.34 29.6567 22.6777 31.8096 22.4063 33.929C22.1349 36.0484 21.2656 38.0466 19.9 39.69L26.9575 46.725C27.2947 47.0587 27.4929 47.5079 27.5121 47.9819C27.5313 48.456 27.3701 48.9197 27.0609 49.2795C26.7518 49.6394 26.3177 49.8687 25.8462 49.9212C25.3746 49.9737 24.9007 49.8456 24.52 49.5625L24.3075 49.38L17.05 42.14C15.564 43.034 13.8915 43.5723 12.1631 43.7129C10.4347 43.8536 8.69716 43.5928 7.08622 42.9509C5.47527 42.3089 4.03453 41.3033 2.87652 40.0125C1.71851 38.7216 0.874586 37.1806 0.410663 35.5097C-0.0532607 33.8387 -0.124624 32.0832 0.202146 30.3801C0.528916 28.6771 1.24497 27.0726 2.29439 25.692C3.34381 24.3115 4.69817 23.1922 6.2517 22.4216C7.80523 21.6511 9.51587 21.2501 11.25 21.25ZM11.25 25C9.26087 25 7.35322 25.7902 5.9467 27.1967C4.54018 28.6032 3.75 30.5109 3.75 32.5C3.75 34.4891 4.54018 36.3968 5.9467 37.8033C7.35322 39.2098 9.26087 40 11.25 40C13.2391 40 15.1468 39.2098 16.5533 37.8033C17.9598 36.3968 18.75 34.4891 18.75 32.5C18.75 30.5109 17.9598 28.6032 16.5533 27.1967C15.1468 25.7902 13.2391 25 11.25 25ZM30 0.0100098C33.3152 0.0100098 36.4946 1.32697 38.8388 3.67118C41.183 6.01538 42.5 9.1948 42.5 12.51C42.5 15.8252 41.183 19.0046 38.8388 21.3488C36.4946 23.693 33.3152 25.01 30 25.01C26.6848 25.01 23.5054 23.693 21.1612 21.3488C18.817 19.0046 17.5 15.8252 17.5 12.51C17.5 9.1948 18.817 6.01538 21.1612 3.67118C23.5054 1.32697 26.6848 0.0100098 30 0.0100098ZM30 3.76001C28.8509 3.76001 27.7131 3.98634 26.6515 4.42606C25.5899 4.86579 24.6253 5.51031 23.8128 6.32283C23.0003 7.13534 22.3558 8.09993 21.916 9.16153C21.4763 10.2231 21.25 11.3609 21.25 12.51C21.25 13.6591 21.4763 14.7969 21.916 15.8585C22.3558 16.9201 23.0003 17.8847 23.8128 18.6972C24.6253 19.5097 25.5899 20.1542 26.6515 20.594C27.7131 21.0337 28.8509 21.26 30 21.26C32.3206 21.26 34.5462 20.3381 36.1872 18.6972C37.8281 17.0563 38.75 14.8307 38.75 12.51C38.75 10.1894 37.8281 7.96377 36.1872 6.32283C34.5462 4.68188 32.3206 3.76001 30 3.76001Z" fill="#FAAD13"/>
</svg>
