<svg width="64" height="64" viewBox="0 0 64 64" fill="none" xmlns="http://www.w3.org/2000/svg">
<path d="M17.7778 35.4142C24.5525 35.4142 30.0444 29.9143 30.0444 23.1298C30.0444 16.3453 24.5525 10.8453 17.7778 10.8453C11.0031 10.8453 5.51111 16.3453 5.51111 23.1298C5.51111 29.9143 11.0031 35.4142 17.7778 35.4142Z" fill="#FAAD13" stroke="#FAAD13" stroke-width="2" stroke-miterlimit="10"/>
<path d="M16.3538 35.4756C13.5502 39.3316 9.77779 40.8889 4.44446 40.8889C6.99912 39.1858 9.55379 35.8507 10.5458 33.2293L16.3538 35.4756Z" fill="#FAAD13"/>
<path d="M46.2222 48.96C52.9969 48.96 58.4889 43.468 58.4889 36.6933C58.4889 29.9186 52.9969 24.4267 46.2222 24.4267C39.4475 24.4267 33.9556 29.9186 33.9556 36.6933C33.9556 43.468 39.4475 48.96 46.2222 48.96Z" fill="#FAAD13" stroke="#FAAD13" stroke-width="2" stroke-miterlimit="10"/>
<path d="M47.6462 49.0578C50.4498 52.9138 54.2222 54.4711 59.5556 54.4711C57.0009 52.768 54.4462 49.4329 53.4542 46.8116L47.6462 49.0578Z" fill="#FAAD13"/>
<path d="M11.5556 24.8889C12.5374 24.8889 13.3334 24.093 13.3334 23.1111C13.3334 22.1293 12.5374 21.3333 11.5556 21.3333C10.5738 21.3333 9.77783 22.1293 9.77783 23.1111C9.77783 24.093 10.5738 24.8889 11.5556 24.8889Z" fill="black"/>
<path d="M17.7778 24.8889C18.7596 24.8889 19.5556 24.093 19.5556 23.1111C19.5556 22.1293 18.7596 21.3333 17.7778 21.3333C16.7959 21.3333 16 22.1293 16 23.1111C16 24.093 16.7959 24.8889 17.7778 24.8889Z" fill="black"/>
<path d="M23.9999 24.8889C24.9818 24.8889 25.7777 24.093 25.7777 23.1111C25.7777 22.1293 24.9818 21.3333 23.9999 21.3333C23.0181 21.3333 22.2222 22.1293 22.2222 23.1111C22.2222 24.093 23.0181 24.8889 23.9999 24.8889Z" fill="black"/>
<path d="M10.5458 33.2293C9.55379 35.8516 6.99912 39.1858 4.44446 40.8889C9.77779 40.8889 13.5502 39.3316 16.3538 35.4756" stroke="black" stroke-width="2" stroke-miterlimit="10" stroke-linecap="round" stroke-linejoin="round"/>
<path d="M19.8 35.392C25.7112 34.4267 30.2223 29.2951 30.2223 23.1111C30.2223 16.2382 24.6507 10.6667 17.7778 10.6667C10.9049 10.6667 5.33337 16.2382 5.33337 23.1111C5.33337 26.0747 6.36893 28.7956 8.09782 30.9333" stroke="black" stroke-width="2" stroke-miterlimit="10" stroke-linecap="round"/>
<path d="M52.4444 38.4711C53.4262 38.4711 54.2222 37.6752 54.2222 36.6933C54.2222 35.7115 53.4262 34.9156 52.4444 34.9156C51.4626 34.9156 50.6666 35.7115 50.6666 36.6933C50.6666 37.6752 51.4626 38.4711 52.4444 38.4711Z" fill="black"/>
<path d="M46.2222 38.4711C47.2041 38.4711 48 37.6752 48 36.6933C48 35.7115 47.2041 34.9156 46.2222 34.9156C45.2404 34.9156 44.4445 35.7115 44.4445 36.6933C44.4445 37.6752 45.2404 38.4711 46.2222 38.4711Z" fill="black"/>
<path d="M39.9999 38.4711C40.9818 38.4711 41.7777 37.6752 41.7777 36.6933C41.7777 35.7115 40.9818 34.9156 39.9999 34.9156C39.0181 34.9156 38.2222 35.7115 38.2222 36.6933C38.2222 37.6752 39.0181 38.4711 39.9999 38.4711Z" fill="black"/>
<path d="M53.4542 46.8116C54.4462 49.4338 57.0009 52.768 59.5556 54.4711C54.2222 54.4711 50.4498 52.9138 47.6462 49.0578" stroke="black" stroke-width="2" stroke-miterlimit="10" stroke-linecap="round" stroke-linejoin="round"/>
<path d="M44.2001 48.9742C38.2889 48.0089 33.7778 42.8773 33.7778 36.6933C33.7778 29.8204 39.3494 24.2489 46.2223 24.2489C53.0952 24.2489 58.6667 29.8204 58.6667 36.6933C58.6667 39.6569 57.6312 42.3778 55.9023 44.5156" stroke="black" stroke-width="2" stroke-miterlimit="10" stroke-linecap="round"/>
</svg>
