<svg width="64" height="64" viewBox="0 0 64 64" fill="none" xmlns="http://www.w3.org/2000/svg">
<path d="M17.7778 35.4142C24.5525 35.4142 30.0444 29.9143 30.0444 23.1298C30.0444 16.3453 24.5525 10.8453 17.7778 10.8453C11.0031 10.8453 5.51111 16.3453 5.51111 23.1298C5.51111 29.9143 11.0031 35.4142 17.7778 35.4142Z" fill="#4DDE9E" stroke="#4DDE9E" stroke-width="2" stroke-miterlimit="10"/>
<path d="M16.3538 35.4756C13.5502 39.3316 9.77778 40.8889 4.44444 40.8889C6.99911 39.1858 9.55378 35.8507 10.5458 33.2294L16.3538 35.4756Z" fill="#4DDE9E"/>
<path d="M46.2222 48.96C52.9969 48.96 58.4889 43.468 58.4889 36.6933C58.4889 29.9186 52.9969 24.4266 46.2222 24.4266C39.4475 24.4266 33.9556 29.9186 33.9556 36.6933C33.9556 43.468 39.4475 48.96 46.2222 48.96Z" fill="#4DDE9E" stroke="#4DDE9E" stroke-width="2" stroke-miterlimit="10"/>
<path d="M47.6462 49.0577C50.4498 52.9137 54.2222 54.4711 59.5555 54.4711C57.0009 52.768 54.4462 49.4329 53.4542 46.8115L47.6462 49.0577V49.0577Z" fill="#4DDE9E"/>
<path d="M11.5555 24.8889C12.5374 24.8889 13.3333 24.093 13.3333 23.1112C13.3333 22.1293 12.5374 21.3334 11.5555 21.3334C10.5737 21.3334 9.77777 22.1293 9.77777 23.1112C9.77777 24.093 10.5737 24.8889 11.5555 24.8889Z" fill="black"/>
<path d="M17.7778 24.8889C18.7596 24.8889 19.5556 24.093 19.5556 23.1112C19.5556 22.1293 18.7596 21.3334 17.7778 21.3334C16.7959 21.3334 16 22.1293 16 23.1112C16 24.093 16.7959 24.8889 17.7778 24.8889Z" fill="black"/>
<path d="M24 24.8889C24.9818 24.8889 25.7778 24.093 25.7778 23.1112C25.7778 22.1293 24.9818 21.3334 24 21.3334C23.0182 21.3334 22.2222 22.1293 22.2222 23.1112C22.2222 24.093 23.0182 24.8889 24 24.8889Z" fill="black"/>
<path d="M10.5458 33.2294C9.55378 35.8516 6.99911 39.1858 4.44444 40.8889C9.77778 40.8889 13.5502 39.3316 16.3538 35.4756" stroke="black" stroke-width="2" stroke-miterlimit="10" stroke-linecap="round" stroke-linejoin="round"/>
<path d="M19.8 35.392C25.7111 34.4266 30.2222 29.2951 30.2222 23.1111C30.2222 16.2382 24.6507 10.6666 17.7778 10.6666C10.9049 10.6666 5.33333 16.2382 5.33333 23.1111C5.33333 26.0746 6.36888 28.7955 8.09777 30.9333" stroke="black" stroke-width="2" stroke-miterlimit="10" stroke-linecap="round"/>
<path d="M52.4444 38.4711C53.4263 38.4711 54.2222 37.6751 54.2222 36.6933C54.2222 35.7115 53.4263 34.9155 52.4444 34.9155C51.4626 34.9155 50.6667 35.7115 50.6667 36.6933C50.6667 37.6751 51.4626 38.4711 52.4444 38.4711Z" fill="black"/>
<path d="M46.2222 38.4711C47.2041 38.4711 48 37.6751 48 36.6933C48 35.7115 47.2041 34.9155 46.2222 34.9155C45.2404 34.9155 44.4445 35.7115 44.4445 36.6933C44.4445 37.6751 45.2404 38.4711 46.2222 38.4711Z" fill="black"/>
<path d="M40 38.4711C40.9818 38.4711 41.7778 37.6751 41.7778 36.6933C41.7778 35.7115 40.9818 34.9155 40 34.9155C39.0182 34.9155 38.2222 35.7115 38.2222 36.6933C38.2222 37.6751 39.0182 38.4711 40 38.4711Z" fill="black"/>
<path d="M53.4542 46.8115C54.4462 49.4337 57.0009 52.768 59.5555 54.4711C54.2222 54.4711 50.4498 52.9137 47.6462 49.0577" stroke="black" stroke-width="2" stroke-miterlimit="10" stroke-linecap="round" stroke-linejoin="round"/>
<path d="M44.2 48.9742C38.2889 48.0089 33.7778 42.8773 33.7778 36.6933C33.7778 29.8205 39.3493 24.2489 46.2222 24.2489C53.0951 24.2489 58.6667 29.8205 58.6667 36.6933C58.6667 39.6569 57.6311 42.3778 55.9022 44.5156" stroke="black" stroke-width="2" stroke-miterlimit="10" stroke-linecap="round"/>
</svg>
