<svg width="84" height="80" viewBox="0 0 84 80" fill="none" 
  xmlns="http://www.w3.org/2000/svg">
  <rect width="84" height="80" rx="25" fill="#FFFAE7"/>
  <path d="M53.715 43.7021C53.9126 43.7782 54.1239 43.8111 54.335 43.7988C54.5461 43.8111 54.7574 43.7782 54.955 43.7021C55.1525 43.6261 55.332 43.5087 55.4815 43.3576C55.631 43.2065 55.7472 43.0251 55.8225 42.8255C55.8977 42.6258 55.9303 42.4123 55.9181 42.199V38.9993H59.0844C59.2955 39.0116 59.5067 38.9786 59.7043 38.9026C59.9019 38.8265 60.0814 38.7091 60.2309 38.558C60.3804 38.4069 60.4966 38.2256 60.5718 38.0259C60.6471 37.8262 60.6797 37.6127 60.6675 37.3994C60.6797 37.1861 60.6471 36.9726 60.5718 36.7729C60.4966 36.5732 60.3804 36.3919 60.2309 36.2408C60.0814 36.0897 59.9019 35.9723 59.7043 35.8962C59.5067 35.8202 59.2955 35.7872 59.0844 35.7996H55.9181V32.5999C55.9181 32.1755 55.7513 31.7686 55.4544 31.4686C55.1575 31.1686 54.7549 31 54.335 31C53.9151 31 53.5124 31.1686 53.2156 31.4686C52.9187 31.7686 52.7519 32.1755 52.7519 32.5999V35.7996H49.5856C49.3745 35.7872 49.1633 35.8202 48.9657 35.8962C48.7681 35.9723 48.5886 36.0897 48.4391 36.2408C48.2896 36.3919 48.1734 36.5732 48.0982 36.7729C48.0229 36.9726 47.9903 37.1861 48.0025 37.3994C47.9903 37.6127 48.0229 37.8262 48.0982 38.0259C48.1734 38.2256 48.2896 38.4069 48.4391 38.558C48.5886 38.7091 48.7681 38.8265 48.9657 38.9026C49.1633 38.9786 49.3745 39.0116 49.5856 38.9993H52.7519V42.199C52.7397 42.4123 52.7723 42.6258 52.8475 42.8255C52.9228 43.0251 53.039 43.2065 53.1885 43.3576C53.338 43.5087 53.5174 43.6261 53.715 43.7021Z" fill="#FFD012" fill-opacity="0.4"/>
  <path d="M48.3325 55.9975C48.1214 56.0098 47.9101 55.9768 47.7125 55.9008C47.5149 55.8248 47.3355 55.7073 47.186 55.5562C47.0365 55.4052 46.9203 55.2238 46.845 55.0241C46.7698 54.8245 46.7372 54.6109 46.7494 54.3976V51.1979C46.7608 50.5645 46.6457 49.9352 46.411 49.3477C46.1764 48.7602 45.827 48.2265 45.3837 47.7785C44.9404 47.3305 44.4122 46.9774 43.8309 46.7403C43.2495 46.5032 42.6268 46.3869 42 46.3984H30.9181C30.2913 46.3869 29.6686 46.5032 29.0872 46.7403C28.5059 46.9774 27.9778 47.3305 27.5345 47.7785C27.0912 48.2265 26.7417 48.7602 26.5071 49.3477C26.2724 49.9352 26.1574 50.5645 26.1687 51.1979V54.3976C26.1809 54.6109 26.1483 54.8245 26.0731 55.0241C25.9978 55.2238 25.8816 55.4052 25.7321 55.5562C25.5826 55.7073 25.4032 55.8248 25.2056 55.9008C25.008 55.9768 24.7967 56.0098 24.5856 55.9975C24.3745 56.0098 24.1633 55.9768 23.9657 55.9008C23.7681 55.8248 23.5886 55.7073 23.4391 55.5562C23.2896 55.4052 23.1734 55.2238 23.0982 55.0241C23.0229 54.8245 22.9903 54.6109 23.0025 54.3976V51.1979C22.9913 50.1443 23.1883 49.099 23.5822 48.1234C23.976 47.1477 24.5586 46.2614 25.2959 45.5163C26.0332 44.7712 26.9103 44.1824 27.8757 43.7845C28.8411 43.3865 29.8755 43.1873 30.9181 43.1987H42C43.0426 43.1873 44.077 43.3865 45.0424 43.7845C46.0079 44.1824 46.8849 44.7712 47.6222 45.5163C48.3595 46.2614 48.9421 47.1477 49.336 48.1234C49.7298 49.099 49.9269 50.1443 49.9156 51.1979V54.3976C49.9278 54.6109 49.8952 54.8245 49.82 55.0241C49.7447 55.2238 49.6285 55.4052 49.479 55.5562C49.3295 55.7073 49.1501 55.8248 48.9525 55.9008C48.7549 55.9768 48.5436 56.0098 48.3325 55.9975ZM36.4591 39.999C35.4164 40.0105 34.3819 39.8115 33.4164 39.4136C32.4509 39.0157 31.5737 38.4269 30.8364 37.6818C30.099 36.9367 29.5164 36.0503 29.1227 35.0745C28.7289 34.0988 28.532 33.0534 28.5434 31.9997C28.5322 30.9461 28.7293 29.9008 29.1231 28.9252C29.5169 27.9495 30.0996 27.0632 30.8368 26.3181C31.5741 25.573 32.4512 24.9842 33.4166 24.5862C34.3821 24.1883 35.4164 23.9891 36.4591 24.0005C37.5017 23.9891 38.536 24.1883 39.5015 24.5862C40.4669 24.9842 41.344 25.573 42.0813 26.3181C42.8186 27.0632 43.4012 27.9495 43.795 28.9252C44.1888 29.9008 44.3859 30.9461 44.3747 31.9997C44.3859 33.0533 44.1888 34.0986 43.795 35.0743C43.4012 36.0499 42.8186 36.9363 42.0813 37.6813C41.344 38.4264 40.4669 39.0152 39.5015 39.4132C38.536 39.8112 37.5017 40.0103 36.4591 39.999ZM36.4591 27.2002C35.3835 27.22 34.3479 27.6148 33.5273 28.3178C32.7068 29.0207 32.1519 29.9886 31.9564 31.0576C31.761 32.1265 31.9371 33.2309 32.4549 34.1837C32.9727 35.1365 33.8005 35.8793 34.798 36.2862C35.7955 36.6931 36.9014 36.7391 37.9287 36.4165C38.9559 36.094 39.8413 35.4226 40.4349 34.5161C41.0286 33.6095 41.294 32.5236 41.1863 31.442C41.0786 30.3604 40.6043 29.3496 39.8438 28.5808C39.398 28.1359 38.8693 27.7848 38.2883 27.5478C37.7073 27.3108 37.0856 27.1926 36.4591 27.2002Z" fill="#FFD012"/>
</svg>
