<svg width="70" height="64" viewBox="0 0 70 64" fill="none" xmlns="http://www.w3.org/2000/svg">
<path d="M44.639 25C48.02 25 50.764 27.744 50.764 31.125V47.7465C50.764 51.9246 49.1043 55.9316 46.1499 58.8859C43.1956 61.8403 39.1886 63.5 35.0105 63.5C30.8324 63.5 26.8254 61.8403 23.8711 58.8859C20.9167 55.9316 19.257 51.9246 19.257 47.7465V31.125C19.257 27.744 21.9975 25 25.382 25H44.639ZM17.9585 25C16.6979 26.5171 15.9396 28.3883 15.7885 30.355L15.7535 31.125V47.7465C15.7535 50.711 16.4255 53.518 17.6225 56.024C15.548 56.579 13.3736 56.6494 11.2675 56.2298C9.16145 55.8103 7.18007 54.912 5.47661 53.6043C3.77316 52.2967 2.39326 50.6148 1.44362 48.6888C0.493981 46.7627 4.30492e-05 44.644 0 42.4965V31.125C5.7416e-05 29.5878 0.578098 28.1069 1.61938 26.9761C2.66066 25.8454 4.08905 25.1475 5.621 25.021L6.125 25H17.9585ZM52.0625 25H63.875C67.256 25 70 27.744 70 31.125V42.5C70.0005 44.6461 69.5076 46.7635 68.5594 48.6888C67.6112 50.614 66.233 52.2955 64.5315 53.6033C62.8299 54.9111 60.8505 55.8102 58.7461 56.2311C56.6417 56.6521 54.4687 56.5836 52.395 56.031C53.445 53.833 54.089 51.411 54.2325 48.849L54.264 47.7465V31.125C54.264 28.7975 53.438 26.6625 52.059 25H52.0625ZM35 0.5C37.7848 0.5 40.4555 1.60625 42.4246 3.57538C44.3938 5.54451 45.5 8.21523 45.5 11C45.5 13.7848 44.3938 16.4555 42.4246 18.4246C40.4555 20.3938 37.7848 21.5 35 21.5C32.2152 21.5 29.5445 20.3938 27.5754 18.4246C25.6062 16.4555 24.5 13.7848 24.5 11C24.5 8.21523 25.6062 5.54451 27.5754 3.57538C29.5445 1.60625 32.2152 0.5 35 0.5ZM57.75 4C60.0706 4 62.2962 4.92187 63.9372 6.56282C65.5781 8.20376 66.5 10.4294 66.5 12.75C66.5 15.0706 65.5781 17.2962 63.9372 18.9372C62.2962 20.5781 60.0706 21.5 57.75 21.5C55.4294 21.5 53.2038 20.5781 51.5628 18.9372C49.9219 17.2962 49 15.0706 49 12.75C49 10.4294 49.9219 8.20376 51.5628 6.56282C53.2038 4.92187 55.4294 4 57.75 4ZM12.25 4C14.5706 4 16.7962 4.92187 18.4372 6.56282C20.0781 8.20376 21 10.4294 21 12.75C21 15.0706 20.0781 17.2962 18.4372 18.9372C16.7962 20.5781 14.5706 21.5 12.25 21.5C9.92936 21.5 7.70376 20.5781 6.06282 18.9372C4.42187 17.2962 3.5 15.0706 3.5 12.75C3.5 10.4294 4.42187 8.20376 6.06282 6.56282C7.70376 4.92187 9.92936 4 12.25 4Z" fill="#554DDE"/>
</svg>
