<svg id="undraw_contact_us_15o2" xmlns="http://www.w3.org/2000/svg" xmlns:xlink="http://www.w3.org/1999/xlink" width="271.502" height="142.464" viewBox="0 0 271.502 142.464">
  <defs>
    <linearGradient id="linear-gradient" x1="0.5" y1="1" x2="0.5" gradientUnits="objectBoundingBox">
      <stop offset="0" stop-color="gray" stop-opacity="0.251"/>
      <stop offset="0.54" stop-color="gray" stop-opacity="0.122"/>
      <stop offset="1" stop-color="gray" stop-opacity="0.102"/>
    </linearGradient>
    <linearGradient id="linear-gradient-2" x1="0.5" y1="1" x2="0.5" y2="-0.001" xlink:href="#linear-gradient"/>
  </defs>
  <g id="Group_244" data-name="Group 244" transform="translate(105.318 9.909)" opacity="0.1">
    <ellipse id="Ellipse_110" data-name="Ellipse 110" cx="2.819" cy="3.691" rx="2.819" ry="3.691" transform="translate(10.625 76.194)" fill="#3f3d56"/>
    <path id="Path_407" data-name="Path 407" d="M525.06,442.938a4.459,4.459,0,0,0,.59-2.257c0-2.039-1.263-3.691-2.822-3.691s-2.829,1.657-2.829,3.7a4.459,4.459,0,0,0,.59,2.257,4.61,4.61,0,0,0,0,4.511,4.61,4.61,0,0,0,0,4.511,4.444,4.444,0,0,0-.59,2.257c0,2.036,1.263,3.691,2.819,3.691s2.822-1.655,2.822-3.691a4.444,4.444,0,0,0-.59-2.257,4.61,4.61,0,0,0,0-4.511,4.61,4.61,0,0,0,0-4.511Z" transform="translate(-509.384 -378.845)" fill="#3f3d56"/>
    <ellipse id="Ellipse_111" data-name="Ellipse 111" cx="2.819" cy="3.691" rx="2.819" ry="3.691" transform="translate(10.625 53.639)" fill="#3f3d56"/>
    <ellipse id="Ellipse_112" data-name="Ellipse 112" cx="2.819" cy="3.691" rx="2.819" ry="3.691" transform="translate(10.625 49.128)" fill="#3f3d56"/>
    <path id="Path_408" data-name="Path 408" d="M480.04,224.216a13.152,13.152,0,0,1-1.05-1.546l7.407-1.216-8.011.059a13.531,13.531,0,0,1-.248-10.7l10.749,5.576-9.909-7.288a13.508,13.508,0,1,1,22.295,15.111,13.51,13.51,0,0,1,1.541,2.462l-9.619,5.009,10.253-3.441a13.508,13.508,0,0,1-2.177,12.683,13.506,13.506,0,1,1-21.23,0,13.506,13.506,0,0,1,0-16.7Z" transform="translate(-477.149 -202.271)" fill="#5c6dff"/>
    <path id="Path_409" data-name="Path 409" d="M504.161,323.966a13.444,13.444,0,0,1-2.891,8.351,13.506,13.506,0,1,1-21.23,0C478.229,330.017,504.161,322.449,504.161,323.966Z" transform="translate(-477.149 -293.67)" opacity="0.1"/>
  </g>
  <g id="Group_245" data-name="Group 245" transform="translate(141.627 22.253)" opacity="0.1">
    <ellipse id="Ellipse_113" data-name="Ellipse 113" cx="2.108" cy="2.757" rx="2.108" ry="2.757" transform="translate(7.939 56.891)" fill="#3f3d56"/>
    <path id="Path_410" data-name="Path 410" d="M659.535,431.764a3.326,3.326,0,0,0,.438-1.684c0-1.523-.944-2.76-2.106-2.76s-2.108,1.239-2.108,2.76a3.3,3.3,0,0,0,.441,1.684,3.443,3.443,0,0,0,0,3.371,3.443,3.443,0,0,0,0,3.371,3.3,3.3,0,0,0-.441,1.685c0,1.523.944,2.76,2.108,2.76s2.106-1.239,2.106-2.76a3.327,3.327,0,0,0-.438-1.685,3.468,3.468,0,0,0,0-3.371,3.468,3.468,0,0,0,0-3.371Z" transform="translate(-647.823 -383.915)" fill="#3f3d56"/>
    <ellipse id="Ellipse_114" data-name="Ellipse 114" cx="2.108" cy="2.757" rx="2.108" ry="2.757" transform="translate(7.939 40.036)" fill="#3f3d56"/>
    <ellipse id="Ellipse_115" data-name="Ellipse 115" cx="2.108" cy="2.757" rx="2.108" ry="2.757" transform="translate(7.939 36.664)" fill="#3f3d56"/>
    <path id="Path_411" data-name="Path 411" d="M625.88,268.454a9.664,9.664,0,0,1-.785-1.154l5.537-.909-5.987.045a10.117,10.117,0,0,1-.193-8l8.034,4.169-7.409-5.45a10.095,10.095,0,1,1,16.669,11.3,10.2,10.2,0,0,1,1.152,1.841l-7.184,3.733,7.662-2.571a10.1,10.1,0,0,1-1.628,9.478,10.092,10.092,0,1,1-15.854,0,10.092,10.092,0,0,1,0-12.48Z" transform="translate(-623.72 -252.103)" fill="#5c6dff"/>
    <path id="Path_412" data-name="Path 412" d="M643.919,342.849a10.05,10.05,0,0,1-2.16,6.24,10.092,10.092,0,1,1-15.854,0C624.547,347.372,643.919,341.717,643.919,342.849Z" transform="translate(-623.735 -320.257)" opacity="0.1"/>
  </g>
  <g id="Group_246" data-name="Group 246" transform="translate(243.644 0)" opacity="0.1">
    <ellipse id="Ellipse_116" data-name="Ellipse 116" cx="2.819" cy="3.691" rx="2.819" ry="3.691" transform="translate(10.815 76.194)" fill="#3f3d56"/>
    <path id="Path_413" data-name="Path 413" d="M1079.779,402.938a4.46,4.46,0,0,1-.589-2.257c0-2.039,1.263-3.691,2.822-3.691s2.819,1.652,2.819,3.691a4.459,4.459,0,0,1-.589,2.257,4.61,4.61,0,0,1,0,4.511,4.61,4.61,0,0,1,0,4.511,4.443,4.443,0,0,1,.589,2.257c0,2.036-1.263,3.691-2.819,3.691s-2.822-1.655-2.822-3.691a4.444,4.444,0,0,1,.589-2.257,4.61,4.61,0,0,1,0-4.511A4.61,4.61,0,0,1,1079.779,402.938Z" transform="translate(-1068.377 -338.845)" fill="#3f3d56"/>
    <ellipse id="Ellipse_117" data-name="Ellipse 117" cx="2.819" cy="3.691" rx="2.819" ry="3.691" transform="translate(10.815 53.639)" fill="#3f3d56"/>
    <ellipse id="Ellipse_118" data-name="Ellipse 118" cx="2.819" cy="3.691" rx="2.819" ry="3.691" transform="translate(10.815 49.128)" fill="#3f3d56"/>
    <path id="Path_414" data-name="Path 414" d="M1059.728,184.217a13.147,13.147,0,0,0,1.051-1.546l-7.407-1.216,8.011.059a13.53,13.53,0,0,0,.248-10.7l-10.749,5.576,9.909-7.288a13.508,13.508,0,1,0-22.295,15.111,13.516,13.516,0,0,0-1.541,2.462l9.619,5.009-10.253-3.441a13.508,13.508,0,0,0,2.177,12.683,13.506,13.506,0,1,0,21.23,0,13.505,13.505,0,0,0,0-16.7Z" transform="translate(-1035.541 -162.271)" fill="#5c6dff"/>
    <path id="Path_415" data-name="Path 415" d="M1035.809,283.965a13.444,13.444,0,0,0,2.891,8.351,13.506,13.506,0,1,0,21.23,0C1061.741,290.017,1035.809,282.449,1035.809,283.965Z" transform="translate(-1035.743 -253.67)" opacity="0.1"/>
  </g>
  <g id="Group_247" data-name="Group 247" transform="translate(219.916 20.767)" opacity="0.1">
    <ellipse id="Ellipse_119" data-name="Ellipse 119" cx="2.108" cy="2.757" rx="2.108" ry="2.757" transform="translate(8.039 56.891)" fill="#3f3d56"/>
    <path id="Path_416" data-name="Path 416" d="M972.668,425.764a3.326,3.326,0,0,1-.438-1.684c0-1.523.944-2.76,2.106-2.76s2.108,1.239,2.108,2.76a3.3,3.3,0,0,1-.441,1.684,3.443,3.443,0,0,1,0,3.371,3.443,3.443,0,0,1,0,3.371,3.3,3.3,0,0,1,.441,1.685c0,1.523-.944,2.76-2.108,2.76s-2.106-1.239-2.106-2.76a3.326,3.326,0,0,1,.438-1.685,3.468,3.468,0,0,1,0-3.371A3.468,3.468,0,0,1,972.668,425.764Z" transform="translate(-964.185 -377.915)" fill="#3f3d56"/>
    <ellipse id="Ellipse_120" data-name="Ellipse 120" cx="2.108" cy="2.757" rx="2.108" ry="2.757" transform="translate(8.039 40.036)" fill="#3f3d56"/>
    <ellipse id="Ellipse_121" data-name="Ellipse 121" cx="2.108" cy="2.757" rx="2.108" ry="2.757" transform="translate(8.039 36.664)" fill="#3f3d56"/>
    <path id="Path_417" data-name="Path 417" d="M957.791,262.454a9.649,9.649,0,0,0,.785-1.154l-5.537-.909,5.987.045a10.116,10.116,0,0,0,.193-8l-8.034,4.169,7.409-5.45a10.095,10.095,0,1,0-16.669,11.3,10.207,10.207,0,0,0-1.152,1.841l7.184,3.733-7.647-2.569a10.1,10.1,0,0,0,1.628,9.478,10.092,10.092,0,1,0,15.854,0,10.092,10.092,0,0,0,0-12.48Z" transform="translate(-939.756 -246.103)" fill="#5c6dff"/>
    <path id="Path_418" data-name="Path 418" d="M939.784,336.849a10.05,10.05,0,0,0,2.16,6.24,10.092,10.092,0,1,0,15.854,0C959.156,341.372,939.784,335.717,939.784,336.849Z" transform="translate(-939.774 -314.257)" opacity="0.1"/>
  </g>
  <g id="Group_248" data-name="Group 248" transform="translate(1.811 0.041)" opacity="0.1">
    <ellipse id="Ellipse_122" data-name="Ellipse 122" cx="2.819" cy="3.691" rx="2.819" ry="3.691" transform="translate(10.627 76.152)" fill="#3f3d56"/>
    <path id="Path_419" data-name="Path 419" d="M107.258,402.938a4.459,4.459,0,0,0,.59-2.257c0-2.039-1.263-3.691-2.819-3.691s-2.819,1.652-2.819,3.691a4.459,4.459,0,0,0,.587,2.257,4.625,4.625,0,0,0,0,4.511,4.625,4.625,0,0,0,0,4.511,4.442,4.442,0,0,0-.587,2.257c0,2.036,1.261,3.691,2.819,3.691s2.826-1.65,2.826-3.686a4.444,4.444,0,0,0-.59-2.257,4.61,4.61,0,0,0,0-4.511,4.61,4.61,0,0,0,0-4.511Z" transform="translate(-91.582 -338.887)" fill="#3f3d56"/>
    <ellipse id="Ellipse_123" data-name="Ellipse 123" cx="2.819" cy="3.691" rx="2.819" ry="3.691" transform="translate(10.627 53.597)" fill="#3f3d56"/>
    <ellipse id="Ellipse_124" data-name="Ellipse 124" cx="2.819" cy="3.691" rx="2.819" ry="3.691" transform="translate(10.627 49.086)" fill="#3f3d56"/>
    <path id="Path_420" data-name="Path 420" d="M62.205,184.342a13.456,13.456,0,0,1-1.05-1.546l7.409-1.216-8.019.072a13.531,13.531,0,0,1-.248-10.7l10.751,5.576-9.909-7.288A13.506,13.506,0,1,1,83.435,184.35a13.51,13.51,0,0,1,1.541,2.462l-9.621,5,10.256-3.441a13.523,13.523,0,0,1-2.18,12.683,13.506,13.506,0,1,1-21.23,0,13.506,13.506,0,0,1,0-16.7Z" transform="translate(-59.309 -162.439)" fill="#5c6dff"/>
    <path id="Path_421" data-name="Path 421" d="M86.321,283.965a13.444,13.444,0,0,1-2.891,8.351,13.506,13.506,0,1,1-21.23,0C60.389,290.017,86.321,282.449,86.321,283.965Z" transform="translate(-59.309 -253.711)" opacity="0.1"/>
  </g>
  <g id="Group_249" data-name="Group 249" transform="translate(32.422 20.767)" opacity="0.1">
    <ellipse id="Ellipse_125" data-name="Ellipse 125" cx="2.108" cy="2.757" rx="2.108" ry="2.757" transform="translate(7.939 56.891)" fill="#3f3d56"/>
    <path id="Path_422" data-name="Path 422" d="M218.7,425.764a3.327,3.327,0,0,0,.438-1.684c0-1.523-.941-2.76-2.106-2.76s-2.108,1.239-2.108,2.76a3.327,3.327,0,0,0,.441,1.684,3.443,3.443,0,0,0,0,3.371,3.443,3.443,0,0,0,0,3.371,3.327,3.327,0,0,0-.441,1.685c0,1.523.944,2.76,2.108,2.76s2.106-1.239,2.106-2.76a3.327,3.327,0,0,0-.438-1.685,3.468,3.468,0,0,0,0-3.371,3.468,3.468,0,0,0,0-3.371Z" transform="translate(-206.99 -377.915)" fill="#3f3d56"/>
    <ellipse id="Ellipse_126" data-name="Ellipse 126" cx="2.108" cy="2.757" rx="2.108" ry="2.757" transform="translate(7.939 40.036)" fill="#3f3d56"/>
    <ellipse id="Ellipse_127" data-name="Ellipse 127" cx="2.108" cy="2.757" rx="2.108" ry="2.757" transform="translate(7.939 36.664)" fill="#3f3d56"/>
    <path id="Path_423" data-name="Path 423" d="M185.04,262.454a9.962,9.962,0,0,1-.785-1.154l5.537-.909-5.987.045a10.117,10.117,0,0,1-.193-8l8.034,4.169-7.409-5.45a10.095,10.095,0,1,1,16.669,11.3,9.939,9.939,0,0,1,1.152,1.841l-7.184,3.733,7.662-2.571a10.1,10.1,0,0,1-1.628,9.478,10.092,10.092,0,1,1-15.854,0,10.092,10.092,0,0,1,0-12.48Z" transform="translate(-182.88 -246.103)" fill="#5c6dff"/>
    <path id="Path_424" data-name="Path 424" d="M203.079,336.849a10.05,10.05,0,0,1-2.16,6.24,10.092,10.092,0,1,1-15.854,0C183.7,341.372,203.079,335.717,203.079,336.849Z" transform="translate(-182.895 -314.257)" opacity="0.1"/>
  </g>
  <ellipse id="Ellipse_128" data-name="Ellipse 128" cx="135.751" cy="2.195" rx="135.751" ry="2.195" transform="translate(0 120.053)" fill="#5c6dff" opacity="0.1"/>
  <ellipse id="Ellipse_129" data-name="Ellipse 129" cx="135.751" cy="2.195" rx="135.751" ry="2.195" transform="translate(0 138.074)" fill="#5c6dff" opacity="0.1"/>
  <ellipse id="Ellipse_130" data-name="Ellipse 130" cx="135.751" cy="2.195" rx="135.751" ry="2.195" transform="translate(0 82.441)" fill="#5c6dff" opacity="0.1"/>
  <ellipse id="Ellipse_131" data-name="Ellipse 131" cx="135.751" cy="2.195" rx="135.751" ry="2.195" transform="translate(0 101.246)" fill="#5c6dff" opacity="0.1"/>
  <path id="Path_425" data-name="Path 425" d="M819.542,254.674a4.533,4.533,0,0,0-2.626.287,3.877,3.877,0,0,1-3.156,0,4.429,4.429,0,0,0-3.716.072,2.289,2.289,0,0,1-1.068.268c-1.506,0-2.757-1.516-3.017-3.515a2.943,2.943,0,0,0,.743-.81,4.228,4.228,0,0,1,7.548-.027,2.893,2.893,0,0,0,2.5,1.372h.04A3.117,3.117,0,0,1,819.542,254.674Z" transform="translate(-619.188 -227.245)" fill="#5c6dff" opacity="0.1"/>
  <path id="Path_426" data-name="Path 426" d="M824.113,231.408l-2.433,1.541,1.486-2.685a2.4,2.4,0,0,0-1.471-.523h-.04a2.811,2.811,0,0,1-.5-.037l-.837.523.354-.644a2.921,2.921,0,0,1-1.444-1.095l-1.486.936.931-1.694a4.317,4.317,0,0,0-3.3-1.67,4.533,4.533,0,0,0-3.785,2.334,2.826,2.826,0,0,1-2.5,1.348h-.082c-1.694,0-3.067,1.92-3.067,4.288s1.372,4.291,3.067,4.291a2.326,2.326,0,0,0,1.068-.268,4.424,4.424,0,0,1,3.716-.074,3.852,3.852,0,0,0,3.156,0,4.439,4.439,0,0,1,3.681.072,2.3,2.3,0,0,0,1.055.263c1.694,0,3.067-1.922,3.067-4.291A5.432,5.432,0,0,0,824.113,231.408Z" transform="translate(-619.173 -210.258)" fill="#5c6dff" opacity="0.1"/>
  <path id="Path_427" data-name="Path 427" d="M414.4,254.764a3.181,3.181,0,0,0-1.841.2,2.705,2.705,0,0,1-2.207,0,3.092,3.092,0,0,0-2.6.052,1.64,1.64,0,0,1-.743.186c-1.053,0-1.93-1.06-2.113-2.46a2.061,2.061,0,0,0,.528-.567,2.96,2.96,0,0,1,5.284-.02,2.029,2.029,0,0,0,1.751.961h.027A2.2,2.2,0,0,1,414.4,254.764Z" transform="translate(-317.479 -228.674)" fill="#5c6dff" opacity="0.1"/>
  <path id="Path_428" data-name="Path 428" d="M417.6,238.486l-1.7,1.08,1.033-1.88a1.672,1.672,0,0,0-1.028-.367h-.03a1.856,1.856,0,0,1-.352-.027l-.577.367.248-.451a2.056,2.056,0,0,1-1.011-.765l-1.033.654.654-1.184a3.025,3.025,0,0,0-2.314-1.172,3.168,3.168,0,0,0-2.648,1.635,1.982,1.982,0,0,1-1.751.944h-.057c-1.187,0-2.148,1.343-2.148,3s.961,3,2.148,3a1.61,1.61,0,0,0,.743-.188,3.1,3.1,0,0,1,2.6-.05,2.661,2.661,0,0,0,2.21.015,3.106,3.106,0,0,1,2.576.05,1.605,1.605,0,0,0,.743.183c1.184,0,2.145-1.345,2.145-3A3.8,3.8,0,0,0,417.6,238.486Z" transform="translate(-317.464 -216.788)" fill="#5c6dff" opacity="0.1"/>
  <path id="Path_429" data-name="Path 429" d="M321.59,333.174a3.176,3.176,0,0,1,1.838.2,2.71,2.71,0,0,0,2.21,0,3.1,3.1,0,0,1,2.6.05,1.6,1.6,0,0,0,.743.188c1.053,0,1.93-1.063,2.111-2.462a2.019,2.019,0,0,1-.525-.567,2.963,2.963,0,0,0-5.286-.017,2.029,2.029,0,0,1-1.749.961H323.5A2.211,2.211,0,0,0,321.59,333.174Z" transform="translate(-254.807 -287.66)" fill="#5c6dff" opacity="0.1"/>
  <path id="Path_430" data-name="Path 430" d="M307.3,316.933l1.7,1.08-1.035-1.878a1.682,1.682,0,0,1,1.031-.369h.027a2.111,2.111,0,0,0,.354-.025l.577.364-.248-.448a2.054,2.054,0,0,0,1.008-.765l1.033.654-.644-1.187a3.022,3.022,0,0,1,2.314-1.169,3.172,3.172,0,0,1,2.648,1.635,1.982,1.982,0,0,0,1.749.944h.059c1.184,0,2.145,1.345,2.145,3s-.961,3-2.145,3a1.608,1.608,0,0,1-.743-.186,3.092,3.092,0,0,0-2.6-.052,2.69,2.69,0,0,1-1.11.248,2.726,2.726,0,0,1-1.1-.233,3.1,3.1,0,0,0-2.574.049,1.605,1.605,0,0,1-.743.183c-1.187,0-2.148-1.343-2.148-3A3.825,3.825,0,0,1,307.3,316.933Z" transform="translate(-243.724 -275.804)" fill="#5c6dff" opacity="0.1"/>
  <path id="Path_431" data-name="Path 431" d="M707.868,572.787c.647-1.2-.087-2.666-.929-3.733s-1.873-2.18-1.85-3.54c.032-1.955,2.108-3.111,3.765-4.147a18.4,18.4,0,0,0,3.381-2.725,4.986,4.986,0,0,0,1.038-1.392,5.631,5.631,0,0,0,.312-2.477q-.107-4.184-.414-8.363" transform="translate(-543.305 -451.251)" fill="none" stroke="#3f3d56" stroke-miterlimit="10" stroke-width="4"/>
  <path id="Path_432" data-name="Path 432" d="M731.939,537.017a3.049,3.049,0,0,0-1.523-2.5l-.684,1.35.022-1.635a3.049,3.049,0,1,0,2.185,2.784Z" transform="translate(-558.918 -441.996)" fill="#5c6dff"/>
  <path id="Path_433" data-name="Path 433" d="M710.994,615.752a3.049,3.049,0,0,1-5.757-1.239,2.973,2.973,0,0,1,.2-1.239,3.052,3.052,0,0,1,5.7.032l-1.905,1.551,2.1-.5A3.031,3.031,0,0,1,710.994,615.752Z" transform="translate(-543.413 -500.092)" fill="#5c6dff"/>
  <path id="Path_434" data-name="Path 434" d="M712.713,586.754a3.049,3.049,0,0,1-.966-5.982l-.017,1.256.691-1.367h0a3.05,3.05,0,1,1,.285,6.094Z" transform="translate(-546.638 -477.014)" fill="#5c6dff"/>
  <path id="Path_435" data-name="Path 435" d="M742.561,566.871a3.049,3.049,0,1,1,1.348-5.7l-.538,1.486,1.1-1.085a3.049,3.049,0,0,1-1.917,5.294Z" transform="translate(-569.082 -462.058)" fill="#5c6dff"/>
  <path id="Path_436" data-name="Path 436" d="M731.513,542.909c-.7.077-1.387.295-2.1.339a2.267,2.267,0,0,1-1.927-.674,9.782,9.782,0,0,1-.565-.991,2.17,2.17,0,0,0-.768-.723,3.049,3.049,0,1,0,5.7,2.026C731.743,542.889,731.627,542.9,731.513,542.909Z" transform="translate(-558.904 -447.076)" opacity="0.1"/>
  <path id="Path_437" data-name="Path 437" d="M742.6,572.17a3.049,3.049,0,0,1-2.9-4.35,2.256,2.256,0,0,1,.612.614,10.331,10.331,0,0,0,.6,1.008,2.488,2.488,0,0,0,2.024.706c.736-.037,1.447-.248,2.18-.31.1,0,.2-.015.307-.017A3.05,3.05,0,0,1,742.6,572.17Z" transform="translate(-569.122 -467.357)" opacity="0.1"/>
  <path id="Path_438" data-name="Path 438" d="M712.716,592.233a3.049,3.049,0,0,1-2.926-4.293,2.477,2.477,0,0,1,.647.619,10.219,10.219,0,0,0,.661,1.028,2.762,2.762,0,0,0,2.158.743c.778-.032,1.486-.2,2.229-.248a3.054,3.054,0,0,1-2.769,2.15Z" transform="translate(-546.641 -482.493)" opacity="0.1"/>
  <path id="Path_439" data-name="Path 439" d="M710.994,621.647a3.049,3.049,0,0,1-5.757-1.239,2.972,2.972,0,0,1,.2-1.239,3.042,3.042,0,0,1,.669.6c.29.352.481.743.817,1.083a3.811,3.811,0,0,0,2.524.887,12.8,12.8,0,0,0,1.548-.089Z" transform="translate(-543.413 -505.987)" opacity="0.1"/>
  <path id="Path_440" data-name="Path 440" d="M97.868,500.787c.647-1.2-.087-2.665-.929-3.733s-1.873-2.185-1.85-3.54c.032-1.955,2.108-3.111,3.765-4.147a18.408,18.408,0,0,0,3.381-2.725,4.987,4.987,0,0,0,1.038-1.392,5.631,5.631,0,0,0,.312-2.477q-.109-4.184-.414-8.363" transform="translate(-84.415 -397.087)" fill="none" stroke="#3f3d56" stroke-miterlimit="10" stroke-width="4"/>
  <path id="Path_441" data-name="Path 441" d="M121.939,465.017a3.049,3.049,0,0,0-1.523-2.5l-.684,1.35.022-1.635a3.049,3.049,0,1,0,2.185,2.784Z" transform="translate(-100.028 -387.832)" fill="#5c6dff"/>
  <path id="Path_442" data-name="Path 442" d="M100.994,543.752a3.049,3.049,0,0,1-5.757-1.239,2.973,2.973,0,0,1,.2-1.239,3.052,3.052,0,0,1,5.7.032l-1.9,1.551,2.1-.5a3.032,3.032,0,0,1-.329,1.39Z" transform="translate(-84.523 -445.928)" fill="#5c6dff"/>
  <path id="Path_443" data-name="Path 443" d="M102.713,514.754a3.049,3.049,0,0,1-.966-5.982l-.017,1.256.691-1.367h0a3.05,3.05,0,1,1,.285,6.094Z" transform="translate(-87.748 -422.849)" fill="#5c6dff"/>
  <path id="Path_444" data-name="Path 444" d="M132.561,494.871a3.049,3.049,0,1,1,1.348-5.7l-.538,1.486,1.1-1.085a3.049,3.049,0,0,1-1.917,5.294Z" transform="translate(-110.192 -407.894)" fill="#5c6dff"/>
  <path id="Path_445" data-name="Path 445" d="M121.513,470.909c-.7.077-1.387.295-2.1.339a2.267,2.267,0,0,1-1.927-.674,9.781,9.781,0,0,1-.565-.991,2.17,2.17,0,0,0-.768-.723,3.049,3.049,0,1,0,5.7,2.026C121.744,470.889,121.627,470.9,121.513,470.909Z" transform="translate(-100.013 -392.912)" opacity="0.1"/>
  <path id="Path_446" data-name="Path 446" d="M132.6,500.17a3.049,3.049,0,0,1-2.9-4.35,2.257,2.257,0,0,1,.612.614,10.334,10.334,0,0,0,.6,1.008,2.488,2.488,0,0,0,2.024.706c.736-.037,1.447-.248,2.18-.31.1,0,.2-.015.307-.017A3.049,3.049,0,0,1,132.6,500.17Z" transform="translate(-110.232 -413.193)" opacity="0.1"/>
  <path id="Path_447" data-name="Path 447" d="M102.716,520.233a3.049,3.049,0,0,1-2.926-4.293,2.477,2.477,0,0,1,.647.619,10.217,10.217,0,0,0,.661,1.028,2.761,2.761,0,0,0,2.158.743c.778-.032,1.486-.2,2.229-.248A3.054,3.054,0,0,1,102.716,520.233Z" transform="translate(-87.751 -428.329)" opacity="0.1"/>
  <path id="Path_448" data-name="Path 448" d="M100.994,549.647a3.049,3.049,0,0,1-5.757-1.239,2.973,2.973,0,0,1,.2-1.239,3.045,3.045,0,0,1,.669.6c.29.352.481.743.817,1.083a3.811,3.811,0,0,0,2.524.887A12.8,12.8,0,0,0,100.994,549.647Z" transform="translate(-84.523 -451.822)" opacity="0.1"/>
  <path id="Path_449" data-name="Path 449" d="M495.133,418.432c-.647-1.2.087-2.663.931-3.731s1.87-2.18,1.848-3.54c-.03-1.957-2.106-3.111-3.765-4.147a18.332,18.332,0,0,1-3.379-2.725,4.9,4.9,0,0,1-1.04-1.39,5.709,5.709,0,0,1-.312-2.477q.111-4.184.414-8.363" transform="translate(-381.053 -335.137)" fill="none" stroke="#3f3d56" stroke-miterlimit="10" stroke-width="4"/>
  <path id="Path_450" data-name="Path 450" d="M478.38,382.657a3.047,3.047,0,0,1,1.521-2.5l.684,1.35-.02-1.635a3.126,3.126,0,0,1,1-.121,3.049,3.049,0,1,1-3.188,2.906Z" transform="translate(-372.754 -325.875)" fill="#5c6dff"/>
  <path id="Path_451" data-name="Path 451" d="M499.317,461.318a3.049,3.049,0,1,0-.146-2.455l1.9,1.551-2.1-.5A3.032,3.032,0,0,0,499.317,461.318Z" transform="translate(-388.254 -383.895)" fill="#5c6dff"/>
  <path id="Path_452" data-name="Path 452" d="M497.592,432.393a3.049,3.049,0,0,0,.969-5.982l.015,1.256-.691-1.367h0a3.049,3.049,0,0,0-3.2,2.9,3.011,3.011,0,0,0,.131,1.04A3.047,3.047,0,0,0,497.592,432.393Z" transform="translate(-385.023 -360.891)" fill="#5c6dff"/>
  <path id="Path_453" data-name="Path 453" d="M467.688,412.491a3.049,3.049,0,1,0-1.35-5.7l.54,1.486-1.11-1.063a3.025,3.025,0,0,0-.991,2.106,2.949,2.949,0,0,0,.077.84,3.047,3.047,0,0,0,2.834,2.329Z" transform="translate(-362.521 -345.921)" fill="#5c6dff"/>
  <path id="Path_454" data-name="Path 454" d="M479.012,388.549c.7.077,1.387.295,2.093.339a2.278,2.278,0,0,0,1.93-.674,9.756,9.756,0,0,0,.562-.991,2.177,2.177,0,0,1,.77-.723,3.049,3.049,0,1,1-5.7,2.024C478.781,388.526,478.9,388.536,479.012,388.549Z" transform="translate(-372.975 -330.954)" opacity="0.1"/>
  <path id="Path_455" data-name="Path 455" d="M467.956,417.79a3.052,3.052,0,0,0,2.9-4.35,2.266,2.266,0,0,0-.614.614,10.331,10.331,0,0,1-.6,1.008,2.479,2.479,0,0,1-2.021.706c-.736-.037-1.447-.248-2.18-.31-.1,0-.206-.015-.307-.017a3.047,3.047,0,0,0,2.826,2.348Z" transform="translate(-362.789 -351.22)" opacity="0.1"/>
  <path id="Path_456" data-name="Path 456" d="M498.01,437.873a3.047,3.047,0,0,0,2.926-4.293,2.435,2.435,0,0,0-.644.619,10.212,10.212,0,0,1-.661,1.028,2.767,2.767,0,0,1-2.16.743c-.78-.032-1.486-.2-2.229-.248A3.047,3.047,0,0,0,498.01,437.873Z" transform="translate(-385.44 -366.371)" opacity="0.1"/>
  <path id="Path_457" data-name="Path 457" d="M500.34,467.287a3.049,3.049,0,0,0,5.561-2.477,2.928,2.928,0,0,0-.669.6c-.29.352-.5.743-.817,1.083a3.817,3.817,0,0,1-2.527.887A13.358,13.358,0,0,1,500.34,467.287Z" transform="translate(-389.277 -389.865)" opacity="0.1"/>
  <circle id="Ellipse_132" data-name="Ellipse 132" cx="24.762" cy="24.762" r="24.762" transform="translate(168.393 34.329)" fill="#3f3d56"/>
  <path id="Path_458" data-name="Path 458" d="M808.086,372.921a18.764,18.764,0,0,0-3.964-2.648c-1.187-.57-1.623-.56-2.462.047-.7.5-1.152.974-1.955.8a11.765,11.765,0,0,1-3.931-2.908c-1.538-1.533-2.732-3.114-2.9-3.929s.3-1.258.8-1.957c.6-.84.622-1.276.047-2.462a19,19,0,0,0-2.651-3.964c-.87-.867-1.058-.676-1.533-.5a8.869,8.869,0,0,0-1.4.743,4.238,4.238,0,0,0-1.685,1.781c-.339.723-.723,2.066,1.251,5.581a31.134,31.134,0,0,0,5.475,7.3h0a31.183,31.183,0,0,0,7.325,5.485c3.513,1.982,4.858,1.588,5.581,1.251a4.159,4.159,0,0,0,1.779-1.685,8.755,8.755,0,0,0,.743-1.4C808.762,373.979,808.955,373.786,808.086,372.921Z" transform="translate(-604.301 -307.444)" fill="#5c6dff"/>
  <path id="Path_459" data-name="Path 459" d="M756.464,300.86a24.772,24.772,0,1,0,24.76,24.764A24.772,24.772,0,0,0,756.464,300.86Zm0,46.23a21.47,21.47,0,1,1,21.47-21.47,21.47,21.47,0,0,1-21.47,21.47Z" transform="translate(-563.309 -266.529)" opacity="0.1"/>
  <circle id="Ellipse_133" data-name="Ellipse 133" cx="24.762" cy="24.762" r="24.762" transform="translate(111.504 71.94)" fill="#3f3d56"/>
  <path id="Path_460" data-name="Path 460" d="M572.651,522.28l-7.414,7.543a.134.134,0,0,0,0,.193l5.2,5.532a.9.9,0,1,1-1.266,1.266L564,531.3a.141.141,0,0,0-.2,0l-1.261,1.273a5.541,5.541,0,0,1-3.964,1.667,5.663,5.663,0,0,1-4.033-1.714l-1.211-1.239a.141.141,0,0,0-.2,0l-5.163,5.5a.9.9,0,1,1-1.266-1.266L551.887,530a.149.149,0,0,0,0-.193l-7.414-7.543a.136.136,0,0,0-.233.1v15.094a2.21,2.21,0,0,0,2.2,2.2h24.245a2.21,2.21,0,0,0,2.2-2.2V522.377a.136.136,0,0,0-.238-.1Z" transform="translate(-422.302 -433.059)" fill="#5c6dff"/>
  <path id="Path_461" data-name="Path 461" d="M561.133,525.232a3.751,3.751,0,0,0,2.705-1.115l10.8-10.991a2.155,2.155,0,0,0-1.362-.5H549.013a2.14,2.14,0,0,0-1.362.5l10.8,10.991A3.736,3.736,0,0,0,561.133,525.232Z" transform="translate(-424.867 -425.839)" fill="#5c6dff"/>
  <path id="Path_462" data-name="Path 462" d="M525.555,452.69a24.772,24.772,0,1,0,24.76,24.764A24.772,24.772,0,0,0,525.555,452.69Zm0,46.23a21.47,21.47,0,1,1,21.47-21.47A21.47,21.47,0,0,1,525.555,498.92Z" transform="translate(-389.6 -380.747)" opacity="0.1"/>
  <circle id="Ellipse_134" data-name="Ellipse 134" cx="24.762" cy="24.762" r="24.762" transform="translate(52.737 53.448)" fill="#3f3d56"/>
  <path id="Path_463" data-name="Path 463" d="M334.872,430.16,325,452.935l.922.922,8.953-3.949,8.953,3.949.922-.922Z" transform="translate(-257.372 -363.798)" fill="#5c6dff"/>
  <path id="Path_464" data-name="Path 464" d="M289.584,378a24.772,24.772,0,1,0,24.76,24.768A24.772,24.772,0,0,0,289.584,378Zm0,46.23a17.669,17.669,0,1,1,0,.01Z" transform="translate(-212.085 -324.559)" opacity="0.1"/>
  <path id="Path_465" data-name="Path 465" d="M805.021,571.216q-.337-.822-.691-1.64a4.868,4.868,0,0,0-.845-1.459,1.545,1.545,0,0,0-.5-.372,2.112,2.112,0,0,0-.647-.129,5.159,5.159,0,0,0-1.016-.027c-.131-.04-.28-.092-.426-.151a3.537,3.537,0,0,0,2.636-3.282V564a3.53,3.53,0,0,0-3.515-3.545,3.468,3.468,0,0,0-1.846.528,3.312,3.312,0,0,0-3.716,1.791,4.1,4.1,0,0,0-1.263,3.047v.156a3.547,3.547,0,0,0,2.879,3.624,1.651,1.651,0,0,0-.456.3,2.819,2.819,0,0,0-.612,1.868l-.037.5-.832.3a.154.154,0,0,0-.037.27l.8.567v.141a.617.617,0,0,0,.015.161,1.137,1.137,0,0,0-.307.439,2.025,2.025,0,0,0-.072.8l.03.691a5.427,5.427,0,0,0,.21,1.538c.1.307.555,1.048.88,1.053a32.038,32.038,0,0,0-.379,4.236c-.037.037.067.072.248.1.178,1.367.76,5.2,1.794,6.889a14.544,14.544,0,0,1,.389,1.675,32.071,32.071,0,0,0,.684,4.727,24.057,24.057,0,0,1,.666,3.855.379.379,0,0,0-.275.282c-.2.59-1.464,1.486-1.464,1.486a6.13,6.13,0,0,0-1.095.7c-.4.359-.384.684,1.387.481,3.419-.394,4-1.486,4-1.486s-.054-.183-.136-.421a4.576,4.576,0,0,0-.448-1.058c-.05-.047-.1.032-.159.156a21.216,21.216,0,0,1-.233-4.783,7.761,7.761,0,0,0-.391-2.856,5.407,5.407,0,0,1,0-1.87c.2-.788-.78-4.63-.78-4.63l-.56-2.829a.811.811,0,0,1,.156.329l.015.057.015.082a.154.154,0,0,0,.04.077c.381,1.585,1.427,5.977,1.427,6.622a10.507,10.507,0,0,0,.976,2.757,18.557,18.557,0,0,0,1.073,4.528,6.566,6.566,0,0,1,.508,3.03h0a2.806,2.806,0,0,1-.312,1.006,2.392,2.392,0,0,0-.369.642l-.022.047s-.292.592-.1.691a4.8,4.8,0,0,0,2.343.295s.391-.5.391-.689a3.114,3.114,0,0,0-.045-.352c-.072-.466-.206-1.2-.208-1.206a3.381,3.381,0,0,0-.248-1.2l-.1-2.757a12.728,12.728,0,0,0-.684-5.517,9.153,9.153,0,0,1-.389-2.264c.106-.493-.2-5.712-.2-5.712l-.03-.074a5.639,5.639,0,0,1,.03-1.107,14.708,14.708,0,0,0-.391-3.741,3.244,3.244,0,0,1-.139-.815c.022-.206.089-.808.181-1.556a27.969,27.969,0,0,0,2.879-.248.359.359,0,0,0,.248-.1.346.346,0,0,0,.057-.2A9.607,9.607,0,0,0,805.021,571.216Zm-1.964,3.124c.1-.706.211-1.39.32-1.9l.015.045a13.782,13.782,0,0,1,.471,1.561A5.3,5.3,0,0,1,803.057,574.34Z" transform="translate(-609.586 -461.82)" fill="url(#linear-gradient)"/>
  <path id="Path_466" data-name="Path 466" d="M802.37,648.093s.585,5.259,1.85,7.3a14.184,14.184,0,0,1,.389,1.655,31.28,31.28,0,0,0,.681,4.672,25.775,25.775,0,0,1,.681,3.993s1.362,1.556,1.85.292a20.517,20.517,0,0,1-.292-5.063,7.624,7.624,0,0,0-.389-2.824,5.281,5.281,0,0,1,0-1.848c.193-.78-.78-4.575-.78-4.575l-.778-3.8Z" transform="translate(-616.488 -527.599)" fill="#be6f72"/>
  <path id="Path_467" data-name="Path 467" d="M810.168,720.447s-.585,1.07-3.991,1.459c-1.769.2-1.781-.119-1.382-.476a6.169,6.169,0,0,1,1.09-.694s1.266-.874,1.459-1.459.877-.1.877-.1c.974,1.459,1.169-.391,1.362-.2a4.4,4.4,0,0,1,.448,1.043C810.113,720.264,810.168,720.447,810.168,720.447Z" transform="translate(-618.152 -581.065)" fill="#ff6f61"/>
  <path id="Path_468" data-name="Path 468" d="M810.168,723.659s-.585,1.07-3.991,1.459c-1.769.2-1.781-.119-1.382-.476.277.176.837.248,1.964-.206,1.623-.664,2.8-1.048,3.272-1.2C810.113,723.475,810.168,723.659,810.168,723.659Z" transform="translate(-618.152 -584.276)" opacity="0.1"/>
  <path id="Path_469" data-name="Path 469" d="M815.241,660.945a7.624,7.624,0,0,0-.389-2.824,5.28,5.28,0,0,1,0-1.848c.193-.78-.78-4.575-.78-4.575l-.778-3.8-.674.04.77,3.758s.974,3.8.78,4.575a5.283,5.283,0,0,0,0,1.848,7.4,7.4,0,0,1,.389,2.824,20.517,20.517,0,0,0,.292,5.063.853.853,0,0,1-.282.4.636.636,0,0,0,.964-.4A20.518,20.518,0,0,1,815.241,660.945Z" transform="translate(-624.198 -527.6)" opacity="0.1"/>
  <path id="Path_470" data-name="Path 470" d="M799.942,562.42a3.468,3.468,0,0,0-1.838.523,3.307,3.307,0,0,0-3.716,1.771,4.033,4.033,0,0,0-1.261,3.012c0,2.071,1.395,3.748,3.114,3.748a3.145,3.145,0,0,0,2.822-2.158,3.418,3.418,0,0,0,.877.114,3.505,3.505,0,0,0,0-7.01Z" transform="translate(-609.534 -463.295)" fill="#3f3d56"/>
  <path id="Path_471" data-name="Path 471" d="M820.369,650.65l.292.778s.292,5.16.193,5.648a9.2,9.2,0,0,0,.391,2.229,12.462,12.462,0,0,1,.681,5.45l.1,2.725s.389,1.07.2,1.266-1.662-.173-1.662-.173a6.942,6.942,0,0,0-.5-3.31,17.815,17.815,0,0,1-1.07-4.479,10.333,10.333,0,0,1-.974-2.725c0-.778-1.558-7.107-1.558-7.107Z" transform="translate(-627.087 -529.668)" fill="#be6f72"/>
  <path id="Path_472" data-name="Path 472" d="M801.557,631.649a24.551,24.551,0,0,1,.5-4.575,7.268,7.268,0,0,0,.433-1.553s5.893,1.065,6.381.676a8.449,8.449,0,0,0,.2,1.459,14.006,14.006,0,0,1,.389,3.7c-.107,1.169,0,1.167,0,1.167s-3.993.585-4.09,0-.389-.582-.389-.582S801.364,631.832,801.557,631.649Z" transform="translate(-615.871 -510.764)" fill="#3f3d56"/>
  <g id="Group_250" data-name="Group 250" transform="translate(185.687 115.433)" opacity="0.1">
    <path id="Path_473" data-name="Path 473" d="M804.793,649.651s-2.462-.067-3.206-.2v.2c-.193.193,3.409.292,3.409.292a.248.248,0,0,1,.134.054C805,649.651,804.793,649.651,804.793,649.651Z" transform="translate(-801.58 -644.198)"/>
    <path id="Path_474" data-name="Path 474" d="M820.521,629.709a8.45,8.45,0,0,1-.2-1.459.419.419,0,0,1-.166.059,4.918,4.918,0,0,0,.166,1.107,15.468,15.468,0,0,1,.389,3.7c-.107,1.169,0,1.167,0,1.167s-3.158.463-3.924.154a1.172,1.172,0,0,0,.03.139c.1.585,4.09,0,4.09,0s-.1,0,0-1.167A14.474,14.474,0,0,0,820.521,629.709Z" transform="translate(-813.022 -628.25)"/>
    <path id="Path_475" data-name="Path 475" d="M804.793,649.651s-2.462-.067-3.206-.2v.2c-.193.193,3.409.292,3.409.292a.248.248,0,0,1,.134.054C805,649.651,804.793,649.651,804.793,649.651Z" transform="translate(-801.58 -644.198)"/>
    <path id="Path_476" data-name="Path 476" d="M820.521,629.709a8.45,8.45,0,0,1-.2-1.459.419.419,0,0,1-.166.059,4.918,4.918,0,0,0,.166,1.107,15.468,15.468,0,0,1,.389,3.7c-.107,1.169,0,1.167,0,1.167s-3.158.463-3.924.154a1.172,1.172,0,0,0,.03.139c.1.585,4.09,0,4.09,0s-.1,0,0-1.167A14.474,14.474,0,0,0,820.521,629.709Z" transform="translate(-813.022 -628.25)"/>
  </g>
  <path id="Path_477" data-name="Path 477" d="M812.536,584.14a1.291,1.291,0,0,0,.372.481.833.833,0,0,0,.349.151c-.218.126-.456.22-.674.347a11.987,11.987,0,0,0-.991.743,2.016,2.016,0,0,1-1.137.441,1.392,1.392,0,0,0,.159-1.385,1.293,1.293,0,0,1-.173-.481.863.863,0,0,1,.478-.644c.186-.126.377-.248.57-.369.151-.094.379-.292.57-.285s.213.176.248.349A2.745,2.745,0,0,0,812.536,584.14Z" transform="translate(-622.559 -478.881)" fill="#be6f72"/>
  <path id="Path_478" data-name="Path 478" d="M812.536,584.14a1.291,1.291,0,0,0,.372.481.833.833,0,0,0,.349.151c-.218.126-.456.22-.674.347a11.987,11.987,0,0,0-.991.743,2.016,2.016,0,0,1-1.137.441,1.392,1.392,0,0,0,.159-1.385,1.293,1.293,0,0,1-.173-.481.863.863,0,0,1,.478-.644c.186-.126.377-.248.57-.369.151-.094.379-.292.57-.285s.213.176.248.349A2.745,2.745,0,0,0,812.536,584.14Z" transform="translate(-622.559 -478.881)" opacity="0.1"/>
  <circle id="Ellipse_135" data-name="Ellipse 135" cx="2.239" cy="2.239" r="2.239" transform="translate(190.019 106.525)" fill="#be6f72"/>
  <path id="Path_479" data-name="Path 479" d="M832.4,722.607c0,.2-.389.681-.389.681a4.821,4.821,0,0,1-2.336-.292c-.2-.1.1-.681.1-.681l.022-.047a2.362,2.362,0,0,1,.369-.634,2.772,2.772,0,0,0,.31-.991c.6-.991,1.677.429,1.677.429s.136.743.208,1.194A3.419,3.419,0,0,1,832.4,722.607Z" transform="translate(-636.978 -582.058)" fill="#ff6f61"/>
  <path id="Path_480" data-name="Path 480" d="M832.4,728.587c0,.2-.389.681-.389.681a4.821,4.821,0,0,1-2.336-.292c-.2-.1.1-.681.1-.681l.022-.047a4.706,4.706,0,0,0,2.12.436l.443-.443C832.383,728.406,832.4,728.537,832.4,728.587Z" transform="translate(-636.978 -588.038)" opacity="0.1"/>
  <circle id="Ellipse_136" data-name="Ellipse 136" cx="2.19" cy="2.19" r="2.19" transform="translate(185.59 101.9)" fill="#be6f72"/>
  <path id="Path_481" data-name="Path 481" d="M800.746,598.361a2.75,2.75,0,0,0-.609,1.846l-.074.969a4.889,4.889,0,0,0-.017.785c0,.161.04.325.055.5s.02.386.022.582v1.432a1.689,1.689,0,0,0,.159.86.585.585,0,0,0,.743.268.847.847,0,0,0,.307-.476,7.392,7.392,0,0,0,.5-1.813c.02-.216.022-.431.042-.647s.057-.441.089-.659c.139-.912.2-1.833.263-2.752.017-.272.263-1.345-.094-1.464-.173-.057-.533.121-.7.181A1.967,1.967,0,0,0,800.746,598.361Z" transform="translate(-614.732 -489.892)" fill="#be6f72"/>
  <path id="Path_482" data-name="Path 482" d="M800.746,598.361a2.75,2.75,0,0,0-.609,1.846l-.074.969a4.889,4.889,0,0,0-.017.785c0,.161.04.325.055.5s.02.386.022.582v1.432a1.689,1.689,0,0,0,.159.86.585.585,0,0,0,.743.268.847.847,0,0,0,.307-.476,7.392,7.392,0,0,0,.5-1.813c.02-.216.022-.431.042-.647s.057-.441.089-.659c.139-.912.2-1.833.263-2.752.017-.272.263-1.345-.094-1.464-.173-.057-.533.121-.7.181A1.967,1.967,0,0,0,800.746,598.361Z" transform="translate(-614.732 -489.892)" opacity="0.1"/>
  <path id="Path_483" data-name="Path 483" d="M808.622,588.16a12.01,12.01,0,0,1-2.628,1.558s-.577.659-.676.817-.3,1.907-.5,2.3a1.86,1.86,0,0,0,0,2.14,3.711,3.711,0,0,1,.1,1.169c-.1.292-.451,1.362-.129,1.412s1.3.728,2.172.535,4.139.743,4.139.743a47.312,47.312,0,0,1,.931-5.9l-.877-.292s-2.433-1.459-.974-3.7C810.18,588.94,808.812,588.648,808.622,588.16Z" transform="translate(-618.067 -482.658)" fill="#ff6f61"/>
  <path id="Path_484" data-name="Path 484" d="M796.651,609.914l2.012,1.424a.149.149,0,0,0,.176,0l.545-.409a.153.153,0,0,0,0-.233l-1.548-1.375a.149.149,0,0,0-.151-.03l-.993.357a.151.151,0,0,0-.04.265Z" transform="translate(-612.139 -498.549)" fill="#3f3d56"/>
  <path id="Path_485" data-name="Path 485" d="M798.8,617.509a5.39,5.39,0,0,1-.211-1.519l-.03-.686a1.982,1.982,0,0,1,.072-.793,1.3,1.3,0,0,1,.835-.731,2.884,2.884,0,0,1,1.137-.082.293.293,0,0,1,.146.04.272.272,0,0,1,.079.134.9.9,0,0,1,.045.716.744.744,0,0,1-.228.235c-.27.193-.585.322-.84.533a.305.305,0,0,0-.114.144.335.335,0,0,0,0,.156,2.491,2.491,0,0,0,.129.4.393.393,0,0,0,.111.168c.047.04.109.055.159.092.107.087.329.2.317.337a11.1,11.1,0,0,1-.451,1.541C799.737,619.151,798.946,617.928,798.8,617.509Z" transform="translate(-613.614 -501.853)" fill="#be6f72"/>
  <g id="Group_251" data-name="Group 251" transform="translate(188.263 110.127)" opacity="0.1">
    <path id="Path_486" data-name="Path 486" d="M812.035,628.179h-.055a1.667,1.667,0,0,0,.637,0h.062A2.228,2.228,0,0,0,812.035,628.179Z" transform="translate(-811.98 -622.873)"/>
    <path id="Path_487" data-name="Path 487" d="M829.926,606.83a44.947,44.947,0,0,0-.956,5.883c.342.089.567.154.567.154a47.013,47.013,0,0,1,.927-5.891Z" transform="translate(-824.761 -606.83)"/>
  </g>
  <path id="Path_488" data-name="Path 488" d="M816,593.5a.743.743,0,0,0,.32.483,4.285,4.285,0,0,1,.567.575,4.07,4.07,0,0,1,.562,1.127,13.8,13.8,0,0,1,.468,1.541c-1.239.575-2.646.547-3.964.926a3.164,3.164,0,0,0-1.486.879,2.048,2.048,0,0,0-.547,1.613.169.169,0,0,0,.2.166,1.487,1.487,0,0,0,.909-.312,4.323,4.323,0,0,0,.7-.684,1.12,1.12,0,0,1,.5-.367,8.108,8.108,0,0,1,2.229-.218,28.1,28.1,0,0,0,3.322-.263.268.268,0,0,0,.3-.3,9.53,9.53,0,0,0-.991-4.243q-.334-.815-.689-1.623a4.806,4.806,0,0,0-.842-1.442,1.486,1.486,0,0,0-.5-.367,2.1,2.1,0,0,0-.664-.124,4.707,4.707,0,0,0-1.088-.02,2.317,2.317,0,0,0-.1.562,4.872,4.872,0,0,0,.6,1.9C815.834,593.406,815.941,593.411,816,593.5Z" transform="translate(-623.662 -484.667)" fill="#be6f72"/>
  <path id="Path_489" data-name="Path 489" d="M811.657,606.67a1.817,1.817,0,0,0-.248.946,1.273,1.273,0,0,0,.062.386,1.253,1.253,0,0,0,.79.743" transform="translate(-623.287 -496.583)" fill="none" stroke="#000" stroke-miterlimit="10" stroke-width="1" opacity="0.1"/>
  <path id="Path_490" data-name="Path 490" d="M803.884,571.45a1.137,1.137,0,0,0-.359.057,2.375,2.375,0,0,0-1.982-.837c-1.184,0-2.143.612-2.143,1.365s.959,1.362,2.143,1.362a3.014,3.014,0,0,0,1.286-.273,1.167,1.167,0,1,0,1.05-1.675Z" transform="translate(-614.253 -469.501)" fill="#3f3d56"/>
  <path id="Path_491" data-name="Path 491" d="M803.965,576.338a1.164,1.164,0,0,1-1.05-.662,3.014,3.014,0,0,1-1.286.273c-1.182,0-2.14-.609-2.14-1.362a.819.819,0,0,1,0-.136.924.924,0,0,0-.109.429c0,.743.959,1.362,2.143,1.362a3.014,3.014,0,0,0,1.286-.273,1.167,1.167,0,0,0,2.2-.29A1.162,1.162,0,0,1,803.965,576.338Z" transform="translate(-614.238 -472.345)" opacity="0.1"/>
  <path id="Path_492" data-name="Path 492" d="M794.361,565.289a3.307,3.307,0,0,1,3.716-1.771,3.5,3.5,0,0,1,5.331,2.69v-.292a3.5,3.5,0,0,0-5.343-2.973,3.307,3.307,0,0,0-3.716,1.771,4.033,4.033,0,0,0-1.261,3.012v.292A3.964,3.964,0,0,1,794.361,565.289Z" transform="translate(-609.504 -463.295)" opacity="0.1"/>
  <path id="Path_493" data-name="Path 493" d="M879.948,496.9c.647-1.2-.087-2.665-.931-3.733s-1.87-2.177-1.848-3.54c.03-1.954,2.106-3.109,3.765-4.147a18.307,18.307,0,0,0,3.379-2.725,4.936,4.936,0,0,0,1.04-1.39,5.708,5.708,0,0,0,.312-2.477q-.109-4.186-.414-8.363" transform="translate(-672.757 -394.168)" fill="none" stroke="#3f3d56" stroke-miterlimit="10" stroke-width="4"/>
  <path id="Path_494" data-name="Path 494" d="M904.009,461.1a3.045,3.045,0,0,0-1.521-2.5l-.684,1.35.02-1.635a2.993,2.993,0,0,0-1-.121,3.049,3.049,0,1,0,3.188,2.9Z" transform="translate(-688.363 -384.889)" fill="#5c6dff"/>
  <path id="Path_495" data-name="Path 495" d="M883.073,539.764a3.049,3.049,0,1,1,.146-2.457l-1.9,1.551,2.1-.5A3.032,3.032,0,0,1,883.073,539.764Z" transform="translate(-672.865 -442.908)" fill="#5c6dff"/>
  <path id="Path_496" data-name="Path 496" d="M884.784,510.842a3.049,3.049,0,0,1-.969-5.982l-.015,1.256.691-1.365h0a3.05,3.05,0,1,1,.285,6.094Z" transform="translate(-676.081 -419.908)" fill="#5c6dff"/>
  <path id="Path_497" data-name="Path 497" d="M914.638,490.961a3.049,3.049,0,1,1,1.35-5.7l-.54,1.486,1.11-1.065a3.032,3.032,0,0,1,.991,2.106,2.943,2.943,0,0,1-.077.84A3.049,3.049,0,0,1,914.638,490.961Z" transform="translate(-698.534 -404.952)" fill="#5c6dff"/>
  <path id="Path_498" data-name="Path 498" d="M903.59,466.989c-.7.079-1.39.3-2.1.342a2.272,2.272,0,0,1-1.93-.676,9.454,9.454,0,0,1-.562-.991,2.192,2.192,0,0,0-.768-.723,3.049,3.049,0,1,0,5.7,2.024C903.818,466.969,903.7,466.976,903.59,466.989Z" transform="translate(-688.353 -389.963)" opacity="0.1"/>
  <path id="Path_499" data-name="Path 499" d="M914.676,496.26a3.052,3.052,0,0,1-2.9-4.35,2.256,2.256,0,0,1,.614.612,9.782,9.782,0,0,0,.6,1.008,2.481,2.481,0,0,0,2.021.708c.736-.035,1.447-.248,2.18-.31.1,0,.206-.017.307-.02A3.049,3.049,0,0,1,914.676,496.26Z" transform="translate(-698.572 -410.252)" opacity="0.1"/>
  <path id="Path_500" data-name="Path 500" d="M884.785,516.3a3.047,3.047,0,0,1-2.926-4.3,2.514,2.514,0,0,1,.644.619c.248.334.384.721.661,1.028a2.822,2.822,0,0,0,2.16.758c.78-.017,1.486-.2,2.229-.26A3.05,3.05,0,0,1,884.785,516.3Z" transform="translate(-676.082 -425.365)" opacity="0.1"/>
  <path id="Path_501" data-name="Path 501" d="M883.126,545.737a3.052,3.052,0,0,1-5.561-2.477,2.987,2.987,0,0,1,.669.6c.292.354.483.743.818,1.085a3.83,3.83,0,0,0,2.527.887A13.353,13.353,0,0,0,883.126,545.737Z" transform="translate(-672.918 -448.881)" opacity="0.1"/>
  <path id="Path_502" data-name="Path 502" d="M1038.948,648.9c.647-1.2-.087-2.665-.931-3.733s-1.87-2.177-1.848-3.54c.03-1.955,2.106-3.109,3.765-4.147a18.308,18.308,0,0,0,3.379-2.725,4.938,4.938,0,0,0,1.04-1.39,5.708,5.708,0,0,0,.312-2.477q-.107-4.187-.414-8.363" transform="translate(-792.369 -508.514)" fill="none" stroke="#3f3d56" stroke-miterlimit="10" stroke-width="4"/>
  <path id="Path_503" data-name="Path 503" d="M1063.047,613.1a3.045,3.045,0,0,0-1.521-2.5l-.684,1.35.02-1.635a2.991,2.991,0,0,0-.991-.121,3.049,3.049,0,1,0,3.188,2.9Z" transform="translate(-808.013 -499.237)" fill="#5c6dff"/>
  <path id="Path_504" data-name="Path 504" d="M1042.073,691.765a3.049,3.049,0,1,1,.146-2.457l-1.9,1.551,2.1-.5A3.031,3.031,0,0,1,1042.073,691.765Z" transform="translate(-792.477 -557.255)" fill="#5c6dff"/>
  <path id="Path_505" data-name="Path 505" d="M1043.783,662.841a3.049,3.049,0,0,1-.969-5.982l-.015,1.256.691-1.365h0a3.05,3.05,0,1,1,.285,6.094Z" transform="translate(-795.693 -534.255)" fill="#5c6dff"/>
  <path id="Path_506" data-name="Path 506" d="M1073.638,642.961a3.049,3.049,0,1,1,1.35-5.7l-.54,1.486,1.11-1.065a3.032,3.032,0,0,1,.991,2.106,2.949,2.949,0,0,1-.077.84A3.05,3.05,0,0,1,1073.638,642.961Z" transform="translate(-818.146 -519.299)" fill="#5c6dff"/>
  <path id="Path_507" data-name="Path 507" d="M1062.59,618.989c-.7.079-1.39.3-2.1.342a2.272,2.272,0,0,1-1.93-.676,9.45,9.45,0,0,1-.562-.991,2.192,2.192,0,0,0-.768-.723,3.049,3.049,0,1,0,5.7,2.024C1062.818,618.969,1062.7,618.976,1062.59,618.989Z" transform="translate(-807.965 -504.309)" opacity="0.1"/>
  <path id="Path_508" data-name="Path 508" d="M1073.676,648.26a3.052,3.052,0,0,1-2.9-4.35,2.256,2.256,0,0,1,.614.612,9.786,9.786,0,0,0,.6,1.008,2.481,2.481,0,0,0,2.021.708c.736-.035,1.447-.248,2.18-.31.1,0,.206-.017.307-.02A3.05,3.05,0,0,1,1073.676,648.26Z" transform="translate(-818.184 -524.598)" opacity="0.1"/>
  <path id="Path_509" data-name="Path 509" d="M1043.785,668.3a3.047,3.047,0,0,1-2.926-4.3,2.515,2.515,0,0,1,.644.619c.248.334.384.721.661,1.028a2.823,2.823,0,0,0,2.16.758c.78-.017,1.486-.2,2.229-.26A3.049,3.049,0,0,1,1043.785,668.3Z" transform="translate(-795.695 -539.711)" opacity="0.1"/>
  <path id="Path_510" data-name="Path 510" d="M1042.126,697.737a3.052,3.052,0,0,1-5.561-2.477,2.988,2.988,0,0,1,.669.6c.292.354.5.743.818,1.085a3.83,3.83,0,0,0,2.527.887A13.367,13.367,0,0,0,1042.126,697.737Z" transform="translate(-792.53 -563.227)" opacity="0.1"/>
  <path id="Path_511" data-name="Path 511" d="M429.138,566.786a2.43,2.43,0,0,0-.969-1.962,134.195,134.195,0,0,0-4.276-4.912h0a2.42,2.42,0,0,0-.352-.082h-.419a2.789,2.789,0,0,0-2.7,2.383c-.869-.2-1.665.059-1.811.609a.743.743,0,0,0,.025.441,1.917,1.917,0,0,0,1.278,1.035l.084.025.126.032h.027a2.19,2.19,0,0,0-.208.939,2.165,2.165,0,0,0,1.167,1.932l-.057.035a.772.772,0,0,0-.188.263,3.93,3.93,0,0,0-.364.877c-.062.263-.072.535-.149.8-.144.478-.51.882-.552,1.38-.02.223.017.5-.141.639a.773.773,0,0,1-.126.089,1.022,1.022,0,0,0-.275.29.962.962,0,0,1-.193.277c-.144.107-.379.1-.448.263s.111.362.069.542-.2.216-.307.317a1.1,1.1,0,0,0-.265.5,1.625,1.625,0,0,1-1.338-.342,2.5,2.5,0,0,1,.139.5,2.171,2.171,0,0,0-.721-.362,2.276,2.276,0,0,1-.768-.57l.411-.057-1.816-2.772-.538-.111.481.924a.3.3,0,0,0-.163.2.84.84,0,0,0-.017.315,5.634,5.634,0,0,0,.124.743l.139.649c.012.059.027.121.045.181a1.705,1.705,0,0,0-.538.059,4.676,4.676,0,0,0-1.117-.265.62.62,0,0,0-.248,0,.642.642,0,0,0-.235.191,7.618,7.618,0,0,0-.83,1.169,40.815,40.815,0,0,1-3.5,4.719c-.842.342-1.692.666-2.542.991l-1.828.7a2.772,2.772,0,0,1-1.135.248c-.173,0-.389-.037-.5.112a1.043,1.043,0,0,0-.112.248l-.188.02h0a2.165,2.165,0,0,0-.438-.808.277.277,0,0,0-.206.159c-.045.082-.072.171-.124.248-.1.144-.268.213-.389.334s-.2.31-.332.434a1.313,1.313,0,0,1-.622.248,3.921,3.921,0,0,0-.974.369,1.568,1.568,0,0,1-.359.166,1.348,1.348,0,0,1-.424.015l-.966-.072a.762.762,0,0,0-.26.012.5.5,0,0,0-.307.5.78.78,0,0,0,.307.533,1.968,1.968,0,0,0,.55.285,16.142,16.142,0,0,0,2.576.763v.2a4.4,4.4,0,0,0,1.982.471.308.308,0,0,0,.149-.027.327.327,0,0,0,.124-.193,7.969,7.969,0,0,0,.386-1.9h0a.99.99,0,0,0,.349-.089c.332-.092.664.136,1.008.173a2.754,2.754,0,0,0,1.216-.352l.173-.057a1.9,1.9,0,0,1-.4.384c-.166.119-.352.208-.513.332a3.538,3.538,0,0,1-.436.337,2.74,2.74,0,0,1-.334.129,2.208,2.208,0,0,0-.478.248.969.969,0,0,0-.325.317.476.476,0,0,0-.027.446.471.471,0,0,0,.32.223,1.307,1.307,0,0,0,.394,0c.525-.04,1.048-.087,1.571-.134a4.185,4.185,0,0,0,.656-.094c.114-.027.228-.064.342-.1a3.05,3.05,0,0,1,.6-.089.5.5,0,0,1,.173.017c.121.04.208.163.332.188a.5.5,0,0,0,.248-.032,5.523,5.523,0,0,1,1.162-.124.48.48,0,0,0,.451-.2c.079-.159-.064-.414-.129-.624a1.913,1.913,0,0,1-.055-.411,2.573,2.573,0,0,0-.287-.976,2.548,2.548,0,0,1-.216-.446,11.264,11.264,0,0,0,2.138-1.085,3.823,3.823,0,0,1,1.219-.587,3.315,3.315,0,0,1,1.531.178,34.837,34.837,0,0,1,3.51,1.224c.547.225,1.092.463,1.657.634a2.584,2.584,0,0,0,.59.572,2.725,2.725,0,0,0,1.276.349,16.706,16.706,0,0,0,1.8.067,3.029,3.029,0,0,0,1.338-.248,1.375,1.375,0,0,0,.28-.186,1.11,1.11,0,0,0,.882-.325,2.138,2.138,0,0,0,.671-1.06c.146-.565.035-1.239.381-1.689.092-.124.213-.223.3-.347a.976.976,0,0,0,.159-.572.113.113,0,0,1,.015-.022,2.1,2.1,0,0,0,.149-.57,3.258,3.258,0,0,1,.161-.451,13.915,13.915,0,0,0,.461-1.335,7.8,7.8,0,0,0,.213-.917c.037-.248.059-.5.079-.743a4.617,4.617,0,0,1,.225-1.147,9.333,9.333,0,0,0,.52-2.745v-.055a1.841,1.841,0,0,0,1.63-1.873,1.954,1.954,0,0,0-.171-.8A2.477,2.477,0,0,0,429.138,566.786Zm-8.863,10.768c.027.1.059.191.092.285-.146-.141-.287-.287-.434-.431.057.02.116.037.171.06a.924.924,0,0,1,.163.087Zm-.7-.476c-.857-.743-1.848-1.32-2.725-2.041.478.235.944.51,1.4.773q.82.468,1.662.9a1.36,1.36,0,0,1-.349.369Zm.364-1.873.042-.042v.295l-.23-.079a2.051,2.051,0,0,0,.181-.173Zm-7.538,2.007a7.09,7.09,0,0,0,.912-1.3,8.754,8.754,0,0,0,1.36,1.519C413.915,577.334,413.157,577.252,412.4,577.213Z" transform="translate(-310.727 -461.346)" fill="url(#linear-gradient-2)"/>
  <path id="Path_512" data-name="Path 512" d="M415.35,438.25l.54.109,1.841,2.722-.81.109Z" transform="translate(-312.459 -329.597)" fill="#2f2e41"/>
  <path id="Path_513" data-name="Path 513" d="M414.49,645.378a10.6,10.6,0,0,0,.54,1.4,13.371,13.371,0,0,0,1.8-.513,5.659,5.659,0,0,0-.374-.5,1.848,1.848,0,0,0-.508-.389,1.4,1.4,0,0,0-.617,0C415.05,645.378,414.77,645.383,414.49,645.378Z" transform="translate(-324.694 -525.682)" fill="#fbbebe"/>
  <path id="Path_514" data-name="Path 514" d="M401.893,643.733a1.12,1.12,0,0,1-.614-.7,2.249,2.249,0,0,0-.468-.835.268.268,0,0,0-.208.156c-.045.079-.072.168-.121.248-.1.141-.272.211-.4.329s-.2.3-.332.426a1.318,1.318,0,0,1-.627.248,4.065,4.065,0,0,0-.991.364,1.71,1.71,0,0,1-.364.164,1.441,1.441,0,0,1-.426,0l-.976-.069a.76.76,0,0,0-.248,0,.473.473,0,0,0-.31.5.743.743,0,0,0,.31.525,2.056,2.056,0,0,0,.555.282,16.317,16.317,0,0,0,2.616.743v.193a4.528,4.528,0,0,0,1.994.463.337.337,0,0,0,.149-.025.327.327,0,0,0,.124-.193,7.727,7.727,0,0,0,.409-2.12,1.688,1.688,0,0,0-.042-.547c-.055-.176.129-.1-.04-.171" transform="translate(-310.64 -523.312)" fill="#2f2e41"/>
  <path id="Path_515" data-name="Path 515" d="M437.585,631.2c-2.893.173-5.752-.674-8.65-.763a4.226,4.226,0,0,0-1.075.067,5.419,5.419,0,0,0-1.065.414c-1.553.723-3.161,1.323-4.766,1.92l-1.846.686a2.793,2.793,0,0,1-1.142.248c-.176,0-.391-.037-.5.109a1.807,1.807,0,0,0,.04,1.6c.064.161.173.337.347.354a1.009,1.009,0,0,0,.352-.089c.334-.089.669.136,1.016.173a2.854,2.854,0,0,0,1.226-.347,10.641,10.641,0,0,1,2.1-.357,9.411,9.411,0,0,0,3.29-1.365,3.841,3.841,0,0,1,1.226-.58,3.394,3.394,0,0,1,1.543.176,35.424,35.424,0,0,1,3.54,1.2,16.511,16.511,0,0,0,1.848.676,6.689,6.689,0,0,0,4.144-.248c.463-.183.966-.5.991-1.006.017-.285-.206-.535-.352-.78-.094-.156-.191-.312-.292-.463C439.069,632.1,438.465,631.143,437.585,631.2Z" transform="translate(-327.614 -514.452)" fill="#2f2e41"/>
  <path id="Path_516" data-name="Path 516" d="M437.585,631.2c-2.893.173-5.752-.674-8.65-.763a4.226,4.226,0,0,0-1.075.067,5.419,5.419,0,0,0-1.065.414c-1.553.723-3.161,1.323-4.766,1.92l-1.846.686a2.793,2.793,0,0,1-1.142.248c-.176,0-.391-.037-.5.109a1.807,1.807,0,0,0,.04,1.6c.064.161.173.337.347.354a1.009,1.009,0,0,0,.352-.089c.334-.089.669.136,1.016.173a2.854,2.854,0,0,0,1.226-.347,10.641,10.641,0,0,1,2.1-.357,9.411,9.411,0,0,0,3.29-1.365,3.841,3.841,0,0,1,1.226-.58,3.394,3.394,0,0,1,1.543.176,35.424,35.424,0,0,1,3.54,1.2,16.511,16.511,0,0,0,1.848.676,6.689,6.689,0,0,0,4.144-.248c.463-.183.966-.5.991-1.006.017-.285-.206-.535-.352-.78-.094-.156-.191-.312-.292-.463C439.069,632.1,438.465,631.143,437.585,631.2Z" transform="translate(-327.614 -514.452)" opacity="0.1"/>
  <path id="Path_517" data-name="Path 517" d="M436.92,642.342q.679.23,1.37.426c.248-.424.743-.718.85-1.2a.114.114,0,0,0,0-.064.12.12,0,0,0-.052-.047,2.6,2.6,0,0,0-1.075-.315c-.3-.017-.434.292-.567.51C437.393,641.745,437.041,642.389,436.92,642.342Z" transform="translate(-341.567 -522.512)" fill="#fbbebe"/>
  <path id="Path_518" data-name="Path 518" d="M425.893,642.693a.991.991,0,0,1-.666-.438c-.062-.112-.131-.263-.26-.248s-.171.149-.2.265a7.428,7.428,0,0,1-.374,1.286,2.413,2.413,0,0,1-.8,1.053c-.168.116-.354.2-.52.327a3.569,3.569,0,0,1-.438.332,2.6,2.6,0,0,1-.337.124,2.332,2.332,0,0,0-.481.248.954.954,0,0,0-.329.315.453.453,0,0,0-.025.438.468.468,0,0,0,.32.218,1.348,1.348,0,0,0,.4,0c.528-.037,1.055-.084,1.583-.131a4.565,4.565,0,0,0,.661-.092l.344-.094a2.741,2.741,0,0,1,.6-.089.467.467,0,0,1,.176.017c.121.04.208.161.334.186a.56.56,0,0,0,.248-.032,5.474,5.474,0,0,1,1.172-.121.5.5,0,0,0,.456-.2c.1-.193-.064-.409-.131-.617a1.984,1.984,0,0,1-.055-.4,2.462,2.462,0,0,0-.29-.961c-.134-.248-.317-.52-.223-.783a.744.744,0,0,0,.089-.27C427.111,642.6,426.135,642.748,425.893,642.693Z" transform="translate(-329.906 -523.166)" fill="#2f2e41"/>
  <path id="Path_519" data-name="Path 519" d="M471.017,607.074a2.259,2.259,0,0,1-1.154-1.144c-.047-.109-.087-.225-.134-.334a2.542,2.542,0,0,0-.689-.959.339.339,0,0,0-.248-.107.27.27,0,0,0-.186.2.765.765,0,0,0-.02.31,5.518,5.518,0,0,0,.124.723l.141.639a1.4,1.4,0,0,0,.087.285.991.991,0,0,0,.235.28c.129.119.26.233.391.347a1.345,1.345,0,0,0,.248.171,1.438,1.438,0,0,0,.438.129,3.731,3.731,0,0,1,1.645.634s0-.429,0-.476a.629.629,0,0,0-.124-.344A2.2,2.2,0,0,0,471.017,607.074Z" transform="translate(-365.384 -494.973)" fill="#fbbebe"/>
  <path id="Path_520" data-name="Path 520" d="M471.017,607.074a2.259,2.259,0,0,1-1.154-1.144c-.047-.109-.087-.225-.134-.334a2.542,2.542,0,0,0-.689-.959.339.339,0,0,0-.248-.107.27.27,0,0,0-.186.2.765.765,0,0,0-.02.31,5.518,5.518,0,0,0,.124.723l.141.639a1.4,1.4,0,0,0,.087.285.991.991,0,0,0,.235.28c.129.119.26.233.391.347a1.345,1.345,0,0,0,.248.171,1.438,1.438,0,0,0,.438.129,3.731,3.731,0,0,1,1.645.634s0-.429,0-.476a.629.629,0,0,0-.124-.344A2.2,2.2,0,0,0,471.017,607.074Z" transform="translate(-365.384 -494.973)" opacity="0.1"/>
  <ellipse id="Ellipse_137" data-name="Ellipse 137" cx="0.704" cy="0.708" rx="0.704" ry="0.708" transform="translate(110.82 105.794)" fill="#2f2e41"/>
  <path id="Path_521" data-name="Path 521" d="M485.658,590.416a.76.76,0,0,0-.555.079.77.77,0,0,0-.191.26,3.778,3.778,0,0,0-.367.862c-.062.248-.072.528-.151.783-.144.471-.513.869-.555,1.36-.02.221.017.478-.144.627a.911.911,0,0,1-.126.092.951.951,0,0,0-.277.285.933.933,0,0,1-.2.27c-.144.107-.381.1-.451.248s.111.357.069.535-.2.213-.31.312a1.083,1.083,0,0,0-.268.5,1.652,1.652,0,0,1-1.348-.334,4.291,4.291,0,0,1,.211,1.541.629.629,0,0,1-.124.476,8.58,8.58,0,0,1,1.652.287,1.14,1.14,0,0,0,.721,0,1.2,1.2,0,0,0,.332-.263,2.116,2.116,0,0,0,.681-1.05,6.168,6.168,0,0,0,.012-.711,4.009,4.009,0,0,1,.181-.865,10.286,10.286,0,0,0,.315-1.779c.032-.372.354-.669.523-.991a4.852,4.852,0,0,0,.666-1.982C485.97,590.726,485.891,590.441,485.658,590.416Z" transform="translate(-374.57 -484.34)" fill="#2f2e41"/>
  <path id="Path_522" data-name="Path 522" d="M485.658,590.416a.76.76,0,0,0-.555.079.77.77,0,0,0-.191.26,3.778,3.778,0,0,0-.367.862c-.062.248-.072.528-.151.783-.144.471-.513.869-.555,1.36-.02.221.017.478-.144.627a.911.911,0,0,1-.126.092.951.951,0,0,0-.277.285.933.933,0,0,1-.2.27c-.144.107-.381.1-.451.248s.111.357.069.535-.2.213-.31.312a1.083,1.083,0,0,0-.268.5,1.652,1.652,0,0,1-1.348-.334,4.291,4.291,0,0,1,.211,1.541.629.629,0,0,1-.124.476,8.58,8.58,0,0,1,1.652.287,1.14,1.14,0,0,0,.721,0,1.2,1.2,0,0,0,.332-.263,2.116,2.116,0,0,0,.681-1.05,6.168,6.168,0,0,0,.012-.711,4.009,4.009,0,0,1,.181-.865,10.286,10.286,0,0,0,.315-1.779c.032-.372.354-.669.523-.991a4.852,4.852,0,0,0,.666-1.982C485.97,590.726,485.891,590.441,485.658,590.416Z" transform="translate(-374.57 -484.34)" opacity="0.1"/>
  <path id="Path_523" data-name="Path 523" d="M453.9,617.9a6.53,6.53,0,0,1-1.531-1.278c-.929-.875-2.066-1.486-3.044-2.311a21.452,21.452,0,0,0-1.94-1.63,4.848,4.848,0,0,0-2.078-.726.553.553,0,0,0-.248,0,.57.57,0,0,0-.235.186,7.491,7.491,0,0,0-.84,1.152,67.729,67.729,0,0,1-4.459,5.831.372.372,0,0,0-.072.139.345.345,0,0,0,.055.216l.3.58c.166.327.433.706.79.642a.864.864,0,0,0,.414-.265l1.333-1.276,1.4-1.335a10.716,10.716,0,0,0,2.185-2.581,19.246,19.246,0,0,0,1.662,1.858c.193.248.352.528.525.8.275.426.59.827.9,1.239l1.6,2.044a3.065,3.065,0,0,0,.743.743,2.837,2.837,0,0,0,1.286.344,16.982,16.982,0,0,0,1.811.064,3.122,3.122,0,0,0,1.35-.248,1.224,1.224,0,0,0,.731-1.087,1.6,1.6,0,0,0-.23-.676A5.521,5.521,0,0,0,453.9,617.9Z" transform="translate(-343.475 -500.55)" fill="#2f2e41"/>
  <ellipse id="Ellipse_138" data-name="Ellipse 138" cx="0.543" cy="0.545" rx="0.543" ry="0.545" transform="translate(111.415 106.448)" fill="#e8e8f0"/>
  <path id="Path_524" data-name="Path 524" d="M501.213,587.362a1.043,1.043,0,0,1,.059.783,3.173,3.173,0,0,1-.349.721,3.43,3.43,0,0,1-.453.644,4.665,4.665,0,0,0,2.383-.684,3.46,3.46,0,0,0,1.5-1.31.694.694,0,0,1-.555-.1,1.983,1.983,0,0,1-.424-.394l-.419-.471a1.885,1.885,0,0,1-.248-.339.937.937,0,0,1-.112-.547,3.19,3.19,0,0,1-.555.461c-.3.2-.629.337-.931.53-.1.069-.342.178-.28.317S501.129,587.213,501.213,587.362Z" transform="translate(-389.375 -480.778)" fill="#fbbebe"/>
  <path id="Path_525" data-name="Path 525" d="M501.213,587.362a1.043,1.043,0,0,1,.059.783,3.173,3.173,0,0,1-.349.721,3.43,3.43,0,0,1-.453.644,4.665,4.665,0,0,0,2.383-.684,3.46,3.46,0,0,0,1.5-1.31.694.694,0,0,1-.555-.1,1.983,1.983,0,0,1-.424-.394l-.419-.471a1.885,1.885,0,0,1-.248-.339.937.937,0,0,1-.112-.547,3.19,3.19,0,0,1-.555.461c-.3.2-.629.337-.931.53-.1.069-.342.178-.28.317S501.129,587.213,501.213,587.362Z" transform="translate(-389.375 -480.778)" opacity="0.1"/>
  <path id="Path_526" data-name="Path 526" d="M493.5,592.593a.706.706,0,0,0,0,.817c.025.03.114.216.151.218a.136.136,0,0,0,.094-.05,6.215,6.215,0,0,0,.53-.632,1.179,1.179,0,0,1,.674-.441,1.457,1.457,0,0,1,.929.29.882.882,0,0,1,.32.248.864.864,0,0,1,.1.354,17.065,17.065,0,0,1,.094,2.252,8.875,8.875,0,0,1-.107,1.623c-.055.275-.134.545-.171.825a5.267,5.267,0,0,0-.035.743v1.036a2.726,2.726,0,0,0,.04.567c.05.225.156.436.228.656a4.294,4.294,0,0,1,.151.775l.141,1.07a1.353,1.353,0,0,1-.126.991c-.092.121-.213.221-.307.342-.349.456-.248,1.107-.384,1.665a2.076,2.076,0,0,1-.679,1.04,1.122,1.122,0,0,1-.894.32,1.225,1.225,0,0,1-.815-.964,3.853,3.853,0,0,0-.419-1.256,3.332,3.332,0,0,0-.827-.691,1.429,1.429,0,0,1-.647-.84c-.027-.156,0-.317-.027-.476a1.122,1.122,0,0,0-.691-.909c-.223-.087-.5-.119-.624-.322a1.5,1.5,0,0,0,.652-.875,4.492,4.492,0,0,0,.159-1.1l.074-1.239a4.137,4.137,0,0,1,.295-1.608c.109-.223.248-.434.359-.654a7.1,7.1,0,0,0,.384-.959c.178-.51.357-1.021.515-1.536a2.893,2.893,0,0,1,.282-.716C493.054,592.923,493.247,592.643,493.5,592.593Z" transform="translate(-381.649 -485.928)" fill="#e8e8f0"/>
  <path id="Path_527" data-name="Path 527" d="M492.253,600h.329l.069-.5a1.034,1.034,0,0,1,.069-.29,1.733,1.733,0,0,1,.191-.277,3.621,3.621,0,0,0,.379-1.623,8.256,8.256,0,0,1,.723-2.12l.639-1.424a1.966,1.966,0,0,0,.139-.364,2.181,2.181,0,0,0,.04-.421c0-.22.069-1.023.077-1.239,0-.082-.181-.037-.218-.109-.079-.159-.188.27-.339.364a.832.832,0,0,0-.295.431c-.139.357-.223.743-.352,1.1a2.242,2.242,0,0,1-.6.971c-.131.114-.282.206-.406.329a2.223,2.223,0,0,0-.448,1.573C492.243,596.742,492.178,600,492.253,600Z" transform="translate(-383.166 -485.246)" fill="#2f2e41"/>
  <path id="Path_528" data-name="Path 528" d="M502.375,590.368a1.124,1.124,0,0,0-.587.805,4.073,4.073,0,0,1-.3.991c-.4.7-1.424.9-1.709,1.657a3.046,3.046,0,0,0-.114.78c-.05.542-.228,1.065-.282,1.605a7.151,7.151,0,0,0,.03,1.261l.359,4.266a5.7,5.7,0,0,1-.107,1.878,1.809,1.809,0,0,0,1.075-.178c.334-.154.642-.364.966-.543a9.953,9.953,0,0,0,1.657-.931,1.013,1.013,0,0,0,.223-.248,2.142,2.142,0,0,0,.149-.56,3.023,3.023,0,0,1,.161-.441,12.982,12.982,0,0,0,.466-1.318,7.566,7.566,0,0,0,.213-.9c.04-.248.062-.5.082-.743a4.361,4.361,0,0,1,.228-1.127,9.079,9.079,0,0,0,.523-2.705,1.414,1.414,0,0,0-.027-.4,2.122,2.122,0,0,0-.218-.453c-.149-.28-.248-.587-.377-.872a4.288,4.288,0,0,0-1.464-1.538A1.115,1.115,0,0,0,502.375,590.368Z" transform="translate(-388.547 -484.294)" fill="#2f2e41"/>
  <path id="Path_529" data-name="Path 529" d="M469.512,614.2a2.583,2.583,0,0,1-.681-.518c-.089-.1-.164-.22-.248-.325a1.687,1.687,0,0,0-.857-.5,4.188,4.188,0,0,0-.991-.1,1.8,1.8,0,0,0-.661.079.674.674,0,0,0-.438.471.78.78,0,0,0,.334.694,1.575,1.575,0,0,0,.666.322,5.321,5.321,0,0,0,.6.072,8.765,8.765,0,0,1,3.28,1.355q1.367.778,2.789,1.447a5.8,5.8,0,0,0,.047-.855c0-.213-.017-.54-.218-.666a4.378,4.378,0,0,0-.887-.265,13.948,13.948,0,0,1-1.786-.723A8.885,8.885,0,0,1,469.512,614.2Z" transform="translate(-363.167 -501.167)" fill="#fbbebe"/>
  <ellipse id="Ellipse_139" data-name="Ellipse 139" cx="2.111" cy="2.123" rx="2.111" ry="2.123" transform="translate(109.413 102.095)" fill="#fbbebe"/>
  <path id="Path_530" data-name="Path 530" d="M498.127,599.363a3.385,3.385,0,0,0-.409.765c-.248.535-.669.991-.874,1.558s-.208,1.3-.632,1.759a.616.616,0,0,0-.186.268,1.279,1.279,0,0,1-.02.193c-.062.168-.337.176-.389.349-.015.05,0,.1-.025.154-.042.111-.191.129-.287.2-.206.139-.164.461-.31.661a.557.557,0,0,1-.528.186,1.858,1.858,0,0,1-.547-.206.528.528,0,0,0-.2-.062.409.409,0,0,0-.228.079,1.4,1.4,0,0,0-.57,1.2,3.924,3.924,0,0,0,.327,1.345.54.54,0,0,0,.107.2.473.473,0,0,0,.525.04,2.476,2.476,0,0,1,.513-.23c.327-.059.647.166.978.146a1.36,1.36,0,0,0,.659-.29,3.643,3.643,0,0,0,.887-.743c.144-.191.248-.406.377-.609a7.816,7.816,0,0,1,.533-.711l1.219-1.486a3.422,3.422,0,0,0,.327-.451,3.178,3.178,0,0,0,.248-.681,5.22,5.22,0,0,0,.248-1.211,4.653,4.653,0,0,0-.089-1.016,3.589,3.589,0,0,0-.248-.969C499.269,599.239,498.625,598.783,498.127,599.363Z" transform="translate(-383.697 -490.884)" fill="#2f2e41"/>
  <path id="Path_531" data-name="Path 531" d="M498.78,568.083a2.378,2.378,0,0,0-.976-1.932,2.827,2.827,0,0,0-2.4-2.752,2.742,2.742,0,0,0-5.4.146c-.877-.2-1.68.059-1.826.6s.473,1.239,1.4,1.486a2.6,2.6,0,0,0,.9.089,2.745,2.745,0,0,0,1.888,1.177,2.817,2.817,0,0,0,2.061,2.125,2.366,2.366,0,0,0,.637.879v.206a1.786,1.786,0,0,0,3.572,0,1.908,1.908,0,0,0-.171-.79A2.388,2.388,0,0,0,498.78,568.083Z" transform="translate(-380.109 -462.373)" fill="#f86d70"/>
  <path id="Path_532" data-name="Path 532" d="M488.762,564.254c.146-.54.949-.8,1.826-.6a2.789,2.789,0,0,1,2.725-2.348h.181a2.683,2.683,0,0,0-.778-.116,2.789,2.789,0,0,0-2.725,2.348c-.877-.2-1.68.059-1.826.6s.473,1.239,1.4,1.486a2.725,2.725,0,0,0,.53.092C489.208,565.451,488.616,564.807,488.762,564.254Z" transform="translate(-380.102 -462.37)" opacity="0.1"/>
  <path id="Path_533" data-name="Path 533" d="M502.835,584.23a1.856,1.856,0,0,1,0-.2,2.313,2.313,0,0,1-.637-.879,2.809,2.809,0,0,1-2.061-2.128,2.737,2.737,0,0,1-1.89-1.174,2.373,2.373,0,0,1-.528-.015,2.752,2.752,0,0,0,1.821,1.083,2.816,2.816,0,0,0,2.061,2.125,2.365,2.365,0,0,0,.637.879v.206a1.818,1.818,0,0,0,1.776,1.848A1.848,1.848,0,0,1,502.835,584.23Z" transform="translate(-387.306 -476.392)" opacity="0.1"/>
  <ellipse id="Ellipse_140" data-name="Ellipse 140" cx="0.325" cy="0.434" rx="0.325" ry="0.434" transform="translate(111.71 104.503) rotate(-37.22)" fill="#fbbebe"/>
</svg>
