<svg id="calendar-day" xmlns="http://www.w3.org/2000/svg" width="22" height="22" viewBox="0 0 22 22">
  <path id="Path_175" data-name="Path 175" d="M9.941,21.094V17.931h3.109v-.839H9.941V14.6h3.388v-.839H9v7.332h.941Zm4.532,0h.93V17.6c0-.762.312-1.385,1.31-1.385a3.606,3.606,0,0,1,.452.021V15.39a2.484,2.484,0,0,0-.35-.027,1.474,1.474,0,0,0-1.391.78H15.4V15.45h-.923Zm3.857-7a.586.586,0,1,0,.172-.42.585.585,0,0,0-.172.42Zm.129,7h.924V15.45h-.924Z" transform="translate(-3.5 -5.25)" fill="#707070"/>
  <path id="Path_176" data-name="Path 176" d="M1.375,6.375v13.75A1.375,1.375,0,0,0,2.75,21.5h16.5a1.375,1.375,0,0,0,1.375-1.375V6.375ZM2.75,2.25A2.75,2.75,0,0,0,0,5V20.125a2.75,2.75,0,0,0,2.75,2.75h16.5A2.75,2.75,0,0,0,22,20.125V5a2.75,2.75,0,0,0-2.75-2.75Z" transform="translate(0 -0.875)" fill="#707070" fill-rule="evenodd"/>
  <path id="Path_177" data-name="Path 177" d="M7.438,0a.687.687,0,0,1,.688.688v.688a.688.688,0,0,1-1.375,0V.688A.688.688,0,0,1,7.438,0ZM19.813,0A.687.687,0,0,1,20.5.688v.688a.688.688,0,0,1-1.375,0V.688A.687.687,0,0,1,19.813,0Z" transform="translate(-2.625)" fill="#707070" fill-rule="evenodd"/>
</svg>
