<svg xmlns="http://www.w3.org/2000/svg" width="12.197" height="13.553" viewBox="0 0 12.197 13.553">
  <path id="Icon_material-date-range" data-name="Icon material-date-range" d="M8.566,9.1H7.211v1.355H8.566Zm2.711,0H9.921v1.355h1.355Zm2.711,0H12.632v1.355h1.355Zm1.355-4.743h-.678V3H13.309V4.355H7.888V3H6.533V4.355H5.855A1.349,1.349,0,0,0,4.507,5.711L4.5,15.2a1.355,1.355,0,0,0,1.355,1.355h9.487A1.359,1.359,0,0,0,16.7,15.2V5.711A1.359,1.359,0,0,0,15.342,4.355Zm0,10.842H5.855V7.743h9.487Z" transform="translate(16.697 16.553) rotate(180)" fill="#45a4e4"/>
</svg>
