<svg xmlns="http://www.w3.org/2000/svg" width="62.706" height="56.234" viewBox="0 0 62.706 56.234">
  <g id="Group_266" data-name="Group 266" transform="translate(-1390 -488.147)">
    <path id="Icon_awesome-comment-dollar" data-name="Icon awesome-comment-dollar" d="M22.042,2.25C9.869,2.25,0,10.268,0,20.159A15.913,15.913,0,0,0,4.91,31.416c-1.081,4.332-4.677,8.2-4.72,8.245a.688.688,0,0,0,.5,1.162A19.687,19.687,0,0,0,12.795,36.4a26.232,26.232,0,0,0,9.247,1.669c12.173,0,22.042-8.018,22.042-17.909S34.215,2.25,22.042,2.25Zm2.066,26.041V29.8a1.377,1.377,0,0,1-1.378,1.378H21.353A1.377,1.377,0,0,1,19.976,29.8V28.276a6.289,6.289,0,0,1-2.736-.987,1.032,1.032,0,0,1-.133-1.583L18.614,24.2a1.063,1.063,0,0,1,1.215-.175,2.111,2.111,0,0,0,.883.191h2.822a.725.725,0,0,0,.2-1.423L19.424,21.56a5.042,5.042,0,0,1-3.695-4.1,4.845,4.845,0,0,1,4.247-5.429V10.516a1.377,1.377,0,0,1,1.378-1.378h1.378a1.377,1.377,0,0,1,1.378,1.378v1.527a6.289,6.289,0,0,1,2.736.987,1.032,1.032,0,0,1,.133,1.583L25.47,16.12a1.063,1.063,0,0,1-1.215.175,2.111,2.111,0,0,0-.883-.191H20.549a.725.725,0,0,0-.2,1.423l4.311,1.231a5.044,5.044,0,0,1,3.695,4.1A4.845,4.845,0,0,1,24.109,28.291Z" transform="translate(1399.754 529.097) rotate(-71)" fill="#45a4e4"/>
    <path id="Icon_awesome-dolly-flatbed" data-name="Icon awesome-dolly-flatbed" d="M59.475,36.6H12.2V1.525A1.529,1.529,0,0,0,10.675,0H1.525A1.529,1.529,0,0,0,0,1.525v3.05A1.529,1.529,0,0,0,1.525,6.1H6.1V41.175A1.529,1.529,0,0,0,7.625,42.7h7.9a4.506,4.506,0,0,0-.276,1.525,4.575,4.575,0,1,0,9.15,0,4.751,4.751,0,0,0-.276-1.525H42.986a4.506,4.506,0,0,0-.276,1.525,4.575,4.575,0,1,0,9.15,0,4.751,4.751,0,0,0-.276-1.525h7.892A1.529,1.529,0,0,0,61,41.175v-3.05A1.529,1.529,0,0,0,59.475,36.6Z" transform="translate(1390 495.581)" fill="#45a4e4"/>
  </g>
</svg>
