<svg width="1129" height="1106" viewBox="0 0 1129 1106" fill="none" xmlns="http://www.w3.org/2000/svg">
<path opacity="0.44" d="M301.526 312.558C377.737 257.192 486.376 328.054 578.358 307.736C671.005 287.272 740.952 173.974 833.459 195.062C924.183 215.744 948.005 334.499 1007.95 405.669C1072.66 482.49 1203.86 529.669 1199.83 630.03C1195.68 733.605 1048.19 765.178 990.088 851.021C940.092 924.884 952.541 1031.52 887.073 1092.09C815.089 1158.7 711.567 1224.56 617.948 1195.35C520.828 1165.04 510.134 1029.17 442.342 953.308C392.25 897.252 312.346 874.911 273.881 810.32C231.092 738.469 210.427 655.16 215.064 571.662C220.217 478.873 226.34 367.179 301.526 312.558Z" fill="#6842FF"/>
</svg>
