<svg width="1111" height="1297" viewBox="0 0 1111 1297" fill="none" xmlns="http://www.w3.org/2000/svg">
<path opacity="0.44" d="M102.526 287.558C178.737 232.192 287.376 303.054 379.358 282.736C472.005 262.272 541.952 148.974 634.459 170.062C725.183 190.744 749.005 309.499 808.951 380.669C873.657 457.49 1004.86 504.669 1000.83 605.03C996.676 708.605 849.193 740.178 791.088 826.021C741.092 899.884 753.541 1006.52 688.073 1067.09C616.089 1133.7 512.567 1199.56 418.948 1170.35C321.828 1140.04 311.134 1004.17 243.342 928.308C193.25 872.252 113.346 849.911 74.8811 785.32C32.0924 713.469 11.4265 630.16 16.0639 546.662C21.2172 453.873 27.34 342.179 102.526 287.558Z" fill="#6842FF"/>
</svg>
