<svg width="84" height="80" viewBox="0 0 84 80" fill="none" 
  xmlns="http://www.w3.org/2000/svg">
  <rect width="84" height="80" rx="25" fill="#EFEDFC"/>
  <path d="M42 57.9976C41.8095 58.0092 41.6189 57.9783 41.4406 57.907C41.2623 57.8357 41.1003 57.7256 40.9654 57.584C40.8305 57.4424 40.7257 57.2724 40.6578 57.0852C40.5899 56.898 40.5604 56.6978 40.5714 56.4978V51.9984H33.4286C33.0497 51.9984 32.6863 51.8404 32.4184 51.5591C32.1505 51.2779 32 50.8964 32 50.4986C32 50.1009 32.1505 49.7194 32.4184 49.4381C32.6863 49.1568 33.0497 48.9988 33.4286 48.9988H40.5714V41.4998H38.4286C36.7236 41.4998 35.0885 40.7887 33.8829 39.523C32.6773 38.2573 32 36.5407 32 34.7507C32 32.9607 32.6773 31.244 33.8829 29.9783C35.0885 28.7126 36.7236 28.0016 38.4286 28.0016H40.5714V23.5022C40.5604 23.3022 40.5899 23.102 40.6578 22.9148C40.7257 22.7276 40.8305 22.5576 40.9654 22.416C41.1003 22.2744 41.2623 22.1643 41.4406 22.093C41.6189 22.0217 41.8095 21.9908 42 22.0024C42.1905 21.9908 42.3811 22.0217 42.5594 22.093C42.7377 22.1643 42.8997 22.2744 43.0346 22.416C43.1695 22.5576 43.2743 22.7276 43.3422 22.9148C43.4101 23.102 43.4396 23.3022 43.4286 23.5022V28.0016H49.1429C49.3333 27.99 49.524 28.0209 49.7023 28.0922C49.8806 28.1635 50.0425 28.2736 50.1774 28.4152C50.3123 28.5569 50.4172 28.7269 50.4851 28.914C50.553 29.1012 50.5824 29.3014 50.5714 29.5014C50.5824 29.7014 50.553 29.9015 50.4851 30.0887C50.4172 30.2759 50.3123 30.4459 50.1774 30.5875C50.0425 30.7292 49.8806 30.8393 49.7023 30.9105C49.524 30.9818 49.3333 31.0127 49.1429 31.0012H43.4286V38.5002H45.5714C47.2764 38.5002 48.9115 39.2113 50.1171 40.477C51.3227 41.7427 52 43.4593 52 45.2493C52 47.0393 51.3227 48.756 50.1171 50.0217C48.9115 51.2874 47.2764 51.9984 45.5714 51.9984H43.4286V56.4978C43.4396 56.6978 43.4101 56.898 43.3422 57.0852C43.2743 57.2724 43.1695 57.4424 43.0346 57.584C42.8997 57.7256 42.7377 57.8357 42.5594 57.907C42.3811 57.9783 42.1905 58.0092 42 57.9976ZM43.4286 41.4998V48.9988H45.5714C46.5186 48.9988 47.427 48.6038 48.0968 47.9006C48.7666 47.1974 49.1429 46.2437 49.1429 45.2493C49.1429 44.2549 48.7666 43.3012 48.0968 42.598C47.427 41.8948 46.5186 41.4998 45.5714 41.4998H43.4286ZM38.4286 31.0012C37.4814 31.0012 36.573 31.3962 35.9032 32.0994C35.2334 32.8026 34.8571 33.7563 34.8571 34.7507C34.8571 35.7451 35.2334 36.6988 35.9032 37.402C36.573 38.1052 37.4814 38.5002 38.4286 38.5002H40.5714V31.0012H38.4286Z" fill="#624DE3"/>
</svg>
