<svg xmlns="http://www.w3.org/2000/svg" enable-background="new 0 0 64 64" viewBox="0 0 64 64"><path fill="#526273" d="M59.355,18.693C59.499,18.285,59.869,18,60.302,18H62v-6h-1.698c-0.433,0-0.803-0.285-0.947-0.693
	c-0.124-0.349-0.264-0.69-0.421-1.021c-0.185-0.391-0.125-0.852,0.181-1.158l1.199-1.199l-4.243-4.243l-1.199,1.199
	c-0.306,0.306-0.767,0.366-1.158,0.181c-0.332-0.157-0.672-0.297-1.021-0.421C52.285,4.501,52,4.131,52,3.698V2h-6v1.698
	c0,0.433-0.285,0.803-0.693,0.947c-0.349,0.124-0.69,0.264-1.021,0.421c-0.391,0.185-0.852,0.125-1.158-0.181l-1.199-1.199
	l-4.243,4.243l1.199,1.199c0.306,0.306,0.366,0.767,0.181,1.158c-0.157,0.332-0.297,0.672-0.421,1.021
	C38.501,11.715,38.131,12,37.698,12H36v3l3,1l2,5l-1.385,3l2.314,2.314l1.199-1.199c0.306-0.306,0.767-0.366,1.158-0.181
	c0.332,0.157,0.672,0.297,1.021,0.421C45.715,25.499,46,25.869,46,26.302V28h6v-1.698c0-0.433,0.285-0.803,0.693-0.947
	c0.349-0.124,0.69-0.264,1.021-0.421c0.391-0.185,0.852-0.125,1.158,0.181l1.199,1.199l4.243-4.243l-1.199-1.199
	c-0.306-0.306-0.366-0.767-0.181-1.158C59.091,19.383,59.231,19.042,59.355,18.693z M49,22c-3.866,0-7-3.134-7-7
	c0-3.866,3.134-7,7-7s7,3.134,7,7C56,18.866,52.866,22,49,22z"/><path fill="#ffe38f" d="M27.929,30.62c-0.618-5.994-5.455-10.874-11.445-11.537C15.984,19.027,15.489,19,15,19
	s-0.984,0.027-1.484,0.082C7.527,19.746,2.69,24.626,2.071,30.62C1.6,35.185,3.497,39.326,6.68,41.979
	C8.103,43.166,9,44.864,9,46.717V50h12v-3.283c0-1.853,0.897-3.552,2.32-4.738C26.503,39.326,28.4,35.185,27.929,30.62z"/><circle cx="10" cy="35" r="2" fill="#e6e6e6"/><circle cx="20" cy="34" r="2" fill="#e6e6e6"/><path fill="#526273" d="M12,58v1c0,1.657,1.343,3,3,3s3-1.343,3-3v-1H12z"/><path fill="#405d80" d="M22,52c0-1.105-0.895-2-2-2H10c-1.105,0-2,0.895-2,2c0,1.105,0.895,2,2,2h1c-1.105,0-2,0.895-2,2
	c0,1.105,0.895,2,2,2h8c1.105,0,2-0.895,2-2c0-1.105-0.895-2-2-2h1C21.105,54,22,53.105,22,52z"/><path d="M28.325,27.692l-1.903,0.615C26.805,29.495,27,30.737,27,32c0,3.625-1.619,7.019-4.44,9.31
	C20.933,42.631,20,44.664,20,46.889V49h-2V38.303l0.991-1.49C19.308,36.927,19.644,37,20,37c1.654,0,3-1.346,3-3s-1.346-3-3-3
	s-3,1.346-3,3c0,0.564,0.166,1.086,0.438,1.537l-1.27,1.909C16.058,37.61,16,37.803,16,38v11h-2V39c0-0.197-0.059-0.391-0.168-0.555
	l-1.271-1.906C12.834,36.088,13,35.565,13,35c0-1.654-1.346-3-3-3s-3,1.346-3,3s1.346,3,3,3c0.355,0,0.691-0.073,1.007-0.187
	L12,39.303V49h-2v-2.282c0-2.08-0.977-4.087-2.68-5.507c-3.077-2.564-4.667-6.485-4.254-10.488
	c0.573-5.555,5.014-10.033,10.56-10.646c3.167-0.352,6.279,0.524,8.758,2.465l1.232-1.576c-2.894-2.263-6.523-3.283-10.21-2.877
	c-6.476,0.717-11.661,5.944-12.33,12.43c-0.481,4.666,1.374,9.238,4.963,12.23C7.286,43.786,8,45.233,8,46.718v3.062
	C7.391,50.33,7,51.117,7,52c0,1.065,0.562,1.997,1.401,2.529C8.153,54.966,8,55.463,8,56c0,1.654,1.346,3,3,3c0,2.206,1.794,4,4,4
	s4-1.794,4-4c1.654,0,3-1.346,3-3c0-0.537-0.153-1.034-0.401-1.471C22.438,53.997,23,53.065,23,52c0-0.883-0.391-1.67-1-2.22v-2.892
	c0-1.619,0.664-3.087,1.82-4.026C27.112,40.189,29,36.23,29,32C29,30.528,28.773,29.079,28.325,27.692z M20,33c0.551,0,1,0.448,1,1
	s-0.449,1-1,1s-1-0.448-1-1S19.449,33,20,33z M10,36c-0.551,0-1-0.448-1-1s0.449-1,1-1s1,0.448,1,1S10.551,36,10,36z M15,61
	c-1.103,0-2-0.897-2-2h4C17,60.103,16.103,61,15,61z M19,57h-8c-0.551,0-1-0.448-1-1s0.449-1,1-1h8c0.551,0,1,0.448,1,1
	S19.551,57,19,57z M20,53H10c-0.551,0-1-0.448-1-1s0.449-1,1-1h10c0.551,0,1,0.448,1,1S20.551,53,20,53z"/><rect width="2" height="2" x="27" y="18"/><rect width="2" height="2" x="25" y="23"/><rect width="2" height="2" x="35" y="23"/><rect width="2" height="2" x="30" y="24"/><rect width="2" height="2" x="37" y="18"/><rect width="2" height="2" x="32" y="19"/><rect width="2" height="2" x="31" y="15"/><rect width="2" height="2" x="27" y="13"/><path d="M49,23c4.411,0,8-3.589,8-8s-3.589-8-8-8s-8,3.589-8,8S44.589,23,49,23z M49,9c3.309,0,6,2.691,6,6s-2.691,6-6,6
	s-6-2.691-6-6S45.691,9,49,9z"/><path d="M62,11l-1.703-0.027c-0.135-0.38-0.288-0.752-0.475-1.138l1.199-1.199c0.391-0.391,0.391-1.023,0-1.414l-4.242-4.242
	c-0.391-0.391-1.023-0.391-1.414,0l-1.221,1.184C53.78,3.991,53.407,3.837,53,3.698V2c0-0.553-0.448-1-1-1h-6c-0.552,0-1,0.447-1,1
	l-0.025,1.702c-0.382,0.135-0.755,0.289-1.14,0.476l-1.199-1.198c-0.391-0.391-1.023-0.391-1.414,0l-4.242,4.242
	c-0.391,0.391-0.391,1.023,0,1.414l1.182,1.223c-0.171,0.362-0.324,0.734-0.463,1.142H36c-0.552,0-1,0.447-1,1v3h2v-2h0.698
	c0.842,0,1.602-0.546,1.89-1.359c0.112-0.317,0.24-0.627,0.382-0.928c0.368-0.777,0.216-1.698-0.377-2.292l-0.492-0.492l2.829-2.828
	l0.491,0.49c0.592,0.595,1.514,0.747,2.294,0.379c0.3-0.143,0.609-0.27,0.927-0.382C46.454,5.301,47,4.541,47,3.698V3h4v0.698
	c0,0.843,0.546,1.603,1.36,1.891c0.316,0.111,0.625,0.238,0.927,0.382c0.777,0.367,1.699,0.214,2.292-0.379l0.492-0.491l2.829,2.828
	l-0.492,0.492c-0.594,0.594-0.746,1.515-0.378,2.291c0.143,0.302,0.27,0.611,0.382,0.929C58.7,12.454,59.459,13,60.302,13H61v4
	h-0.698c-0.842,0-1.602,0.546-1.89,1.359c-0.112,0.317-0.24,0.627-0.382,0.928c-0.368,0.777-0.216,1.698,0.377,2.292l0.492,0.492
	l-2.829,2.828l-0.491-0.49c-0.592-0.596-1.514-0.747-2.294-0.379c-0.3,0.143-0.609,0.27-0.927,0.382
	C51.546,24.699,51,25.459,51,26.302V27h-4v-0.698c0-0.843-0.546-1.603-1.36-1.891c-0.316-0.111-0.625-0.238-0.927-0.382
	c-0.779-0.369-1.7-0.216-2.292,0.379l-0.492,0.491l-1.607-1.606l-1.414,1.414l2.313,2.313c0.391,0.391,1.023,0.391,1.414,0
	l1.221-1.184c0.363,0.172,0.736,0.326,1.143,0.465V28c0,0.553,0.448,1,1,1h6c0.552,0,1-0.447,1-1l0.025-1.702
	c0.382-0.135,0.755-0.289,1.14-0.476l1.199,1.198c0.391,0.391,1.023,0.391,1.414,0l4.242-4.242c0.391-0.391,0.391-1.023,0-1.414
	l-1.182-1.223c0.171-0.362,0.324-0.734,0.463-1.142H62c0.552,0,1-0.447,1-1v-6C63,11.447,62.552,11,62,11z"/></svg>