<svg width="84" height="80" viewBox="0 0 84 80" fill="none" 
  xmlns="http://www.w3.org/2000/svg">
  <rect width="84" height="80" rx="25" fill="#6FCF97" fill-opacity="0.1"/>
  <path d="M41.3046 50.1865C41.4772 50.3592 41.6499 50.3592 41.9953 50.3592V50.3506C42.2939 50.3769 42.5938 50.3163 42.8587 50.1761L60.1272 41.5308C60.4509 41.3506 60.7069 41.0695 60.8561 40.7304C61.0053 40.3912 61.0396 40.0126 60.9537 39.6522C60.8679 39.2917 60.6666 38.9692 60.3805 38.7338C60.0945 38.4983 59.7393 38.3628 59.3691 38.3479C59.2542 38.345 59.1399 38.365 59.0328 38.4068C58.9258 38.4486 58.8282 38.5114 58.7457 38.5914L42.168 46.8914L25.5903 38.5914C25.3301 38.433 25.0315 38.3488 24.7269 38.3479C24.4294 38.3478 24.1387 38.437 23.8924 38.6039C23.6462 38.7707 23.4556 39.0076 23.3454 39.284C23.2222 39.4832 23.1437 39.7069 23.1154 39.9395C23.087 40.172 23.1095 40.408 23.1813 40.631C23.2501 40.834 23.3621 41.0196 23.5097 41.175C23.6573 41.3303 23.837 41.4517 24.0361 41.5308L41.3046 50.1865Z" fill="#6FCF97" fill-opacity="0.4"/>
  <path d="M41.9953 58.9937C41.6499 58.9937 41.4773 58.9937 41.3046 58.821L24.0361 50.1757C23.837 50.0966 23.6573 49.9752 23.5097 49.8199C23.3622 49.6645 23.2501 49.4789 23.1813 49.2759C23.1092 49.0531 23.0863 48.8171 23.1143 48.5846C23.1424 48.352 23.2206 48.1282 23.3437 47.9289C23.454 47.6523 23.6448 47.4152 23.8914 47.2483C24.1381 47.0814 24.4291 46.9924 24.7269 46.9928C25.0315 46.9937 25.3301 47.0779 25.5903 47.2364L42.168 55.5397L58.7457 47.2398C58.8282 47.1598 58.9258 47.097 59.0328 47.0552C59.1399 47.0134 59.2542 46.9934 59.3691 46.9963C59.7393 47.0112 60.0945 47.1467 60.3805 47.3821C60.6666 47.6176 60.8679 47.9401 60.9538 48.3005C61.0396 48.661 61.0053 49.0396 60.8561 49.3787C60.7069 49.7179 60.4509 49.999 60.1272 50.1792L42.8587 58.821C42.5936 58.9606 42.2937 59.0206 41.9953 58.9937ZM41.9953 41.7134C41.6499 41.7134 41.4773 41.7134 41.3046 41.5407L24.0361 32.9058C23.7282 32.7794 23.4651 32.564 23.2805 32.287C23.0958 32.0101 22.9982 31.6843 23 31.3515C22.9984 31.04 23.0769 30.7334 23.2282 30.4612C23.3794 30.189 23.5982 29.9603 23.8634 29.7972L41.1319 21.1294C41.6356 20.9569 42.1823 20.9569 42.686 21.1294L59.9545 29.7747C60.26 29.9038 60.5207 30.1201 60.704 30.3965C60.8873 30.673 60.9851 30.9973 60.9851 31.329C60.9851 31.6607 60.8873 31.9851 60.704 32.2615C60.5207 32.538 60.26 32.7542 59.9545 32.8833L42.686 41.5183C42.5134 41.7048 42.3407 41.7048 41.9953 41.7048V41.7134ZM41.9953 24.5955L28.5259 31.3307L41.9953 38.0746L55.4647 31.3307L41.9953 24.5868V24.5955Z" fill="#6FCF97"/>
</svg>
