<svg width="28" height="28" viewBox="0 0 28 28" fill="none" xmlns="http://www.w3.org/2000/svg">
<path d="M15.8666 0.79466C13.6681 0.493743 11.4293 0.741847 9.35009 1.51683C7.27084 2.29181 5.41582 3.56955 3.95061 5.23599C2.69661 6.68024 1.76619 8.3761 1.22184 10.2097C0.677492 12.0433 0.53182 13.9721 0.794611 15.8667C1.50128 21.0587 5.40528 25.476 10.5079 26.8613C11.6454 27.1726 12.8193 27.3313 13.9986 27.3333L14.1879 27.332C14.862 27.3233 15.5229 27.1445 16.1094 26.8121C16.6959 26.4797 17.1889 26.0045 17.5426 25.4307C17.8975 24.8599 18.1024 24.2087 18.138 23.5375C18.1737 22.8664 18.039 22.1971 17.7466 21.592L17.4813 21.0373C17.2772 20.6386 17.1814 20.1933 17.2034 19.7459C17.2254 19.2985 17.3644 18.8648 17.6066 18.488C17.9532 17.925 18.4961 17.5105 19.1305 17.3246C19.7649 17.1387 20.4457 17.1945 21.0413 17.4813L21.5906 17.744C22.1399 18.008 22.7239 18.1427 23.3253 18.1427C24.3776 18.1373 25.3861 17.7204 26.1351 16.9811C26.8841 16.2418 27.3141 15.2389 27.3333 14.1867C27.3498 12.944 27.1913 11.7052 26.8626 10.5067C25.4759 5.40533 21.0586 1.50133 15.8666 0.79466ZM22.7439 15.34L22.1946 15.0773C19.7573 13.9067 16.7679 14.8133 15.3479 17.0693C14.3639 18.6373 14.2639 20.504 15.0759 22.192L15.3413 22.7467C15.4407 22.9482 15.4867 23.1718 15.4748 23.3962C15.4629 23.6206 15.3935 23.8382 15.2733 24.028C15.1561 24.2219 14.9911 24.3825 14.794 24.4943C14.597 24.6062 14.3745 24.6655 14.1479 24.6667H13.9986C13.055 24.664 12.1158 24.5372 11.2053 24.2893C7.12128 23.1813 4.00128 19.6507 3.43728 15.508C3.00928 12.368 3.90661 9.34399 5.96128 6.98933C7.13026 5.6483 8.61602 4.62086 10.2834 4.0005C11.9507 3.38013 13.7467 3.18654 15.5079 3.43733C19.6506 4.00133 23.1813 7.12266 24.2893 11.2053C24.5533 12.1787 24.6799 13.1707 24.6653 14.148C24.6493 15.224 23.5386 15.7253 22.7439 15.34Z" fill="#5BC0DE"/>
<path d="M7.99997 19.3333C9.10454 19.3333 9.99997 18.4379 9.99997 17.3333C9.99997 16.2288 9.10454 15.3333 7.99997 15.3333C6.8954 15.3333 5.99997 16.2288 5.99997 17.3333C5.99997 18.4379 6.8954 19.3333 7.99997 19.3333Z" fill="#5BC0DE"/>
<path d="M7.99997 14C9.10454 14 9.99997 13.1046 9.99997 12C9.99997 10.8954 9.10454 9.99999 7.99997 9.99999C6.8954 9.99999 5.99997 10.8954 5.99997 12C5.99997 13.1046 6.8954 14 7.99997 14Z" fill="#5BC0DE"/>
<path d="M12 9.99999C13.1045 9.99999 14 9.10456 14 7.99999C14 6.89542 13.1045 5.99999 12 5.99999C10.8954 5.99999 9.99997 6.89542 9.99997 7.99999C9.99997 9.10456 10.8954 9.99999 12 9.99999Z" fill="#5BC0DE"/>
<path d="M17.3333 9.99999C18.4379 9.99999 19.3333 9.10456 19.3333 7.99999C19.3333 6.89542 18.4379 5.99999 17.3333 5.99999C16.2287 5.99999 15.3333 6.89542 15.3333 7.99999C15.3333 9.10456 16.2287 9.99999 17.3333 9.99999Z" fill="#5BC0DE"/>
</svg>
