<svg width="38" height="38" viewBox="0 0 38 38" fill="none" xmlns="http://www.w3.org/2000/svg">
<path d="M33.6667 0.666656H9.83342C4.77891 0.666656 0.666748 4.77882 0.666748 9.83332V28.1667C0.666748 33.2212 4.77891 37.3333 9.83342 37.3333H31.8334C34.8657 37.3333 37.3334 34.8657 37.3334 31.8333C37.3334 28.801 34.8657 26.3333 31.8334 26.3333H8.00008V30H31.8334C32.8454 30 33.6667 30.8213 33.6667 31.8333C33.6667 32.8453 32.8454 33.6667 31.8334 33.6667H9.83342C6.80108 33.6667 4.33341 31.199 4.33341 28.1667C4.33341 25.1343 6.80108 22.6667 9.83342 22.6667H33.6667C35.6889 22.6667 37.3334 21.0222 37.3334 19V4.33332C37.3334 2.31116 35.6889 0.666656 33.6667 0.666656ZM4.33341 20.8333H4.33891C4.33708 20.8352 4.33525 20.8352 4.33341 20.837V20.8333Z" fill="#02044A"/>
</svg>
