<svg width="44" height="44" viewBox="0 0 44 44" fill="none" xmlns="http://www.w3.org/2000/svg">
<path d="M21.9999 18.3333C29.2892 18.3333 36.6666 15.8143 36.6666 11C36.6666 6.18566 29.2892 3.66666 21.9999 3.66666C14.7106 3.66666 7.33325 6.18566 7.33325 11C7.33325 15.8143 14.7106 18.3333 21.9999 18.3333Z" fill="#02044A"/>
<path d="M7.33325 18.3333C7.33325 23.1477 14.7106 25.6667 21.9999 25.6667C29.2892 25.6667 36.6666 23.1477 36.6666 18.3333V14.6667C36.6666 19.481 29.2892 22 21.9999 22C14.7106 22 7.33325 19.481 7.33325 14.6667V18.3333Z" fill="#02044A"/>
<path d="M7.33325 25.6667C7.33325 30.481 14.7106 33 21.9999 33C29.2892 33 36.6666 30.481 36.6666 25.6667V22C36.6666 26.8143 29.2892 29.3333 21.9999 29.3333C14.7106 29.3333 7.33325 26.8143 7.33325 22V25.6667Z" fill="#02044A"/>
<path d="M7.33325 33C7.33325 37.8143 14.7106 40.3333 21.9999 40.3333C29.2892 40.3333 36.6666 37.8143 36.6666 33V29.3333C36.6666 34.1477 29.2892 36.6667 21.9999 36.6667C14.7106 36.6667 7.33325 34.1477 7.33325 29.3333V33Z" fill="#02044A"/>
</svg>
