<svg width="141" height="107" viewBox="0 0 141 107" fill="none" xmlns="http://www.w3.org/2000/svg">
<path opacity="0.27" d="M44.6193 13.6853C30.6321 17.8165 21.7703 31.9387 24.5268 46.3378C25.9862 53.9117 30.5757 61.0172 41.535 64.3676C70.7572 73.3044 101.231 67.2992 110.272 53.3651C119.314 39.431 112.024 9.55047 82.1042 8.62059C67.4472 8.16629 54.2602 10.8424 44.6193 13.6853Z" fill="#E6E6E6"/>
<path opacity="0.45" d="M73.225 99.0538C98.6327 99.0538 119.23 96.0362 119.23 92.3139C119.23 88.5915 98.6327 85.574 73.225 85.574C47.8173 85.574 27.2202 88.5915 27.2202 92.3139C27.2202 96.0362 47.8173 99.0538 73.225 99.0538Z" fill="#E6E6E6"/>
<path d="M93.9589 75.15H93.2151V73.9432C93.2151 73.6138 93.0852 73.2978 92.8538 73.0649C92.6224 72.8319 92.3086 72.701 91.9814 72.701H87.5928C87.2652 72.701 86.951 72.8318 86.7191 73.0646C86.4872 73.2975 86.3564 73.6135 86.3555 73.9432V75.15H85.6152V73.9432C85.6152 73.6818 85.6664 73.4228 85.7658 73.1813C85.8651 72.9397 86.0108 72.7202 86.1944 72.5353C86.3781 72.3504 86.5961 72.2038 86.836 72.1037C87.0759 72.0036 87.3331 71.9521 87.5928 71.9521H91.9814C92.2411 71.9521 92.4982 72.0036 92.7381 72.1037C92.9781 72.2038 93.1961 72.3504 93.3797 72.5353C93.5633 72.7202 93.709 72.9397 93.8084 73.1813C93.9078 73.4228 93.9589 73.6818 93.9589 73.9432V75.15Z" fill="#FFD200"/>
<path opacity="0.51" d="M93.9589 75.15H93.2151V73.9432C93.2151 73.6138 93.0852 73.2978 92.8538 73.0649C92.6224 72.8319 92.3086 72.701 91.9814 72.701H87.5928C87.2652 72.701 86.951 72.8318 86.7191 73.0646C86.4872 73.2975 86.3564 73.6135 86.3555 73.9432V75.15H85.6152V73.9432C85.6152 73.6818 85.6664 73.4228 85.7658 73.1813C85.8651 72.9397 86.0108 72.7202 86.1944 72.5353C86.3781 72.3504 86.5961 72.2038 86.836 72.1037C87.0759 72.0036 87.3331 71.9521 87.5928 71.9521H91.9814C92.2411 71.9521 92.4982 72.0036 92.7381 72.1037C92.9781 72.2038 93.1961 72.3504 93.3797 72.5353C93.5633 72.7202 93.709 72.9397 93.8084 73.1813C93.9078 73.4228 93.9589 73.6818 93.9589 73.9432V75.15Z" fill="white"/>
<path d="M65.4253 16.6141L61.9946 14.3804L57.6552 21.1367L61.0858 23.3705L65.4253 16.6141Z" fill="#FFD200"/>
<path d="M43.6891 36.5385C43.6891 36.5385 50.7214 28.6912 62.2129 26.6256L56.8831 41.7877C56.8831 41.7877 49.4489 45.8018 42.48 45.525L43.6891 36.5385Z" fill="#68E1FD"/>
<path opacity="0.08" d="M43.6891 36.5385C43.6891 36.5385 50.7214 28.6912 62.2129 26.6256L56.8831 41.7877C56.8831 41.7877 49.4489 45.8018 42.48 45.525L43.6891 36.5385Z" fill="black"/>
<path d="M65.47 90.5144C65.47 90.5144 65.2408 91.8667 64.1164 92.1683C62.9919 92.47 62.8967 93.6483 63.9718 93.7584C65.047 93.8684 67.4581 92.0583 67.4581 92.0583L67.1056 90.415L65.47 90.5144Z" fill="#68E1FD"/>
<path d="M83.5706 90.8906C83.5706 90.8906 84.1064 92.1541 85.2696 92.1861C86.4329 92.218 86.7995 93.336 85.7772 93.6945C84.755 94.0529 81.9949 92.864 81.9949 92.864L81.9702 91.1781L83.5706 90.8906Z" fill="#68E1FD"/>
<path d="M122.969 27.6406C122.969 26.8367 122.652 26.0658 122.088 25.4974C121.523 24.9289 120.757 24.6096 119.959 24.6096C119.797 24.6111 119.636 24.6254 119.476 24.6522C119.129 24.0019 118.613 23.4586 117.984 23.0799C117.355 22.7012 116.635 22.5012 115.902 22.5014H115.754C115.85 22.116 115.899 21.7204 115.902 21.323C115.902 20.0363 115.394 18.8022 114.49 17.8924C113.587 16.9825 112.361 16.4713 111.083 16.4713C109.805 16.4713 108.579 16.9825 107.676 17.8924C106.772 18.8022 106.264 20.0363 106.264 21.323C106.266 21.7206 106.317 22.1165 106.416 22.5014H106.264C105.718 22.4784 105.172 22.567 104.661 22.7618C104.149 22.9565 103.682 23.2535 103.287 23.6348C102.892 24.016 102.578 24.4737 102.363 24.9804C102.149 25.487 102.038 26.0321 102.038 26.5829C102.038 27.1337 102.149 27.6788 102.363 28.1855C102.578 28.6921 102.892 29.1499 103.287 29.5311C103.682 29.9124 104.149 30.2093 104.661 30.4041C105.172 30.5989 105.718 30.6875 106.264 30.6645H120.364V30.6432C121.086 30.5452 121.748 30.1868 122.227 29.6346C122.706 29.0824 122.97 28.3738 122.969 27.6406Z" fill="#E6E6E6"/>
<path d="M37.0125 57.2054C37.0125 56.5154 36.7403 55.8537 36.2557 55.3658C35.7712 54.8779 35.1139 54.6038 34.4287 54.6038C34.2903 54.6042 34.1523 54.6173 34.0162 54.6429C33.7186 54.0848 33.2762 53.6185 32.7361 53.2935C32.1961 52.9685 31.5786 52.797 30.9495 52.7973H30.8191C30.9038 52.468 30.9477 52.1295 30.9495 51.7893C30.9181 50.7067 30.4689 49.679 29.6972 48.9244C28.9255 48.1698 27.8922 47.7477 26.8164 47.7477C25.7407 47.7477 24.7073 48.1698 23.9357 48.9244C23.164 49.679 22.7148 50.7067 22.6834 51.7893C22.6841 52.1293 22.7267 52.4679 22.8103 52.7973H22.6658C22.1993 52.7824 21.7346 52.8619 21.2993 53.0314C20.864 53.2008 20.467 53.4565 20.1318 53.7835C19.7966 54.1104 19.5301 54.5018 19.3481 54.9345C19.1661 55.3672 19.0723 55.8322 19.0723 56.3021C19.0723 56.772 19.1661 57.2371 19.3481 57.6698C19.5301 58.1024 19.7966 58.4939 20.1318 58.8208C20.467 59.1477 20.864 59.4035 21.2993 59.5729C21.7346 59.7423 22.1993 59.8219 22.6658 59.8069H34.7494V59.7821C35.3741 59.7049 35.9491 59.4003 36.366 58.9256C36.7829 58.4509 37.0129 57.839 37.0125 57.2054Z" fill="#E6E6E6"/>
<path d="M79.3548 18.9878C83.3029 18.9878 86.5035 16.3055 86.5035 12.9968C86.5035 9.68801 83.3029 7.00574 79.3548 7.00574C75.4066 7.00574 72.2061 9.68801 72.2061 12.9968C72.2061 16.3055 75.4066 18.9878 79.3548 18.9878Z" fill="#FFD200"/>
<path d="M74.3703 15.7332L71.8218 20.0915L76.013 16.9612L74.3703 15.7332Z" fill="#FFD200"/>
<path d="M76.5385 13.8841C77.0252 13.8841 77.4197 13.4868 77.4197 12.9968C77.4197 12.5068 77.0252 12.1095 76.5385 12.1095C76.0518 12.1095 75.6572 12.5068 75.6572 12.9968C75.6572 13.4868 76.0518 13.8841 76.5385 13.8841Z" fill="#24285B"/>
<path d="M79.3725 13.8841C79.8592 13.8841 80.2537 13.4868 80.2537 12.9968C80.2537 12.5068 79.8592 12.1095 79.3725 12.1095C78.8858 12.1095 78.4912 12.5068 78.4912 12.9968C78.4912 13.4868 78.8858 13.8841 79.3725 13.8841Z" fill="#24285B"/>
<path d="M82.1713 13.8841C82.658 13.8841 83.0525 13.4868 83.0525 12.9968C83.0525 12.5068 82.658 12.1095 82.1713 12.1095C81.6846 12.1095 81.29 12.5068 81.29 12.9968C81.29 13.4868 81.6846 13.8841 82.1713 13.8841Z" fill="#24285B"/>
<path d="M61.906 16.01C61.906 16.01 61.5324 18.5973 61.8708 20.3542C61.9037 20.5237 61.9695 20.685 62.0644 20.8289C62.1593 20.9728 62.2815 21.0964 62.4239 21.1927C62.5663 21.2889 62.7263 21.356 62.8945 21.3899C63.0627 21.4239 63.2359 21.4241 63.4042 21.3905C64.2819 21.206 65.4099 20.702 65.7765 19.3391L66.6824 17.1031C66.8167 16.6363 66.8037 16.139 66.6452 15.68C66.4867 15.221 66.1905 14.8228 65.7976 14.5406C64.3982 13.3942 62.04 14.4235 61.906 16.01Z" fill="#F4A28C"/>
<path d="M66.6434 18.0756L68.2755 26.4871L63.6084 27.0585L64.2782 20.8688L66.6434 18.0756Z" fill="#F4A28C"/>
<path d="M67.042 15.9709L66.894 19.3249C66.5049 19.4524 66.0838 19.4396 65.7031 19.2887C65.3223 19.1378 65.0056 18.8582 64.8072 18.4979C64.5957 18.13 64.4957 17.7079 64.5195 17.2835C64.5433 16.8591 64.6898 16.4509 64.9411 16.1093C63.631 16.2286 62.3143 16.2583 61.0002 16.1981C60.7323 16.1697 60.1365 16.2619 60.1718 15.0765C60.1718 15.0765 59.8404 13.1422 61.187 12.766C62.5335 12.3898 67.3628 13.2593 67.042 15.9709Z" fill="#24285B"/>
<path d="M60.383 25.8412C60.383 25.8412 79.9044 22.072 86.5773 25.8412C93.2501 29.6105 79.2558 64.6657 79.2558 64.6657L58.691 64.0091C58.691 64.0091 40.6959 29.4437 60.383 25.8412Z" fill="#68E1FD"/>
<path opacity="0.08" d="M79.1717 30.6716C79.1717 30.6716 80.0811 40.0273 78.3468 49.3829C76.6125 58.7386 68.2759 64.3143 68.2759 64.3143L79.2563 64.6693C79.2563 64.6693 83.5885 53.1415 84.6248 49.3297C85.6612 45.5179 79.1717 30.6716 79.1717 30.6716Z" fill="black"/>
<path d="M62.2128 25.5218L70.6094 24.166L64.2643 53.0031C64.2643 53.0031 58.5327 37.2377 62.2128 25.5218Z" fill="white"/>
<path d="M70.546 24.4677L74.0252 34.6609L69.1783 38.7354L70.546 43.8959L64.2539 53.0031C64.2539 53.0031 67.6978 31.2359 70.546 24.4677Z" fill="#68E1FD"/>
<path opacity="0.08" d="M70.546 24.4677L74.0252 34.6609L69.1783 38.7354L70.546 43.8959L64.2539 53.0031C64.2539 53.0031 67.6978 31.2359 70.546 24.4677Z" fill="black"/>
<path d="M62.2129 25.5217L63.9225 24.1659L67.5744 22.8705L69.1783 24.638L64.5958 26.7391L62.2129 25.5217Z" fill="white"/>
<path d="M63.3335 26.0933L64.2535 24.8049L65.6952 26.2353L63.8517 28.2938L63.3335 26.0933Z" fill="#24285B"/>
<path d="M63.6721 27.5306C63.6721 27.5306 61.4866 36.8862 62.1106 45.0068C62.1106 45.0068 63.3514 51.6296 64.2538 53.0031L66.4287 40.7726C66.4287 40.7726 64.6662 31.2856 65.0187 26.551L63.6721 27.5306Z" fill="#24285B"/>
<path d="M87.9031 26.9237C92.401 31.6228 95.8943 42.9483 91.7136 69.5139L87.0183 70.6638C87.0183 70.6638 87.0712 62.1458 84.9033 50.689C83.9114 45.5816 82.4711 40.573 80.5993 35.7221C80.1144 34.4445 79.699 33.1412 79.355 31.818C78.0084 26.7462 84.2723 23.1332 87.9031 26.9237Z" fill="#68E1FD"/>
<path opacity="0.46" d="M87.9031 26.9237C92.401 31.6228 95.8943 42.9483 91.7136 69.5139L87.0183 70.6638C87.0183 70.6638 87.0712 62.1458 84.9033 50.689C83.9114 45.5816 82.4711 40.573 80.5993 35.7221C80.1144 34.4445 79.699 33.1412 79.355 31.818C78.0084 26.7462 84.2723 23.1332 87.9031 26.9237Z" fill="white"/>
<path d="M58.6914 64.0092L64.2539 90.5535H68.2759L67.3559 74.2273C67.2693 72.6839 67.6869 71.1545 68.545 69.8727C69.403 68.5909 70.6543 67.6272 72.1076 67.1289L79.2563 64.68L58.6914 64.0092Z" fill="#24285B"/>
<path d="M79.2562 64.6656L84.7376 91.4265H80.8248L74.582 76.4809C73.0191 72.7461 70.1044 69.7493 66.4287 68.0977L79.2562 64.6656Z" fill="#24285B"/>
<path d="M55.0676 21.0747L57.0205 23.6869C57.0205 23.6869 48.6556 42.9448 43.9145 45.2304C39.1734 47.5161 32.2045 37.2199 55.0676 21.0747Z" fill="#68E1FD"/>
<path d="M57.0203 20.2087C57.0203 20.2087 57.972 17.4794 60.0976 18.8742C62.2232 20.2691 57.0203 23.6869 57.0203 23.6869L55.5327 22.2318L57.0203 20.2087Z" fill="#F4A28C"/>
<path d="M88.3787 70.3338C88.3787 70.3338 87.1344 72.3391 88.3787 73.5884C89.623 74.8377 91.8191 76.0515 91.7134 69.5175L88.3787 70.3338Z" fill="#F4A28C"/>
<path d="M99.3484 74.8802H81.103V85.2687H99.3484V74.8802Z" fill="#FFD200"/>
<path opacity="0.08" d="M95.6331 74.8802C95.6331 74.8802 98.7316 84.9102 84.48 85.2687H99.3484V74.8802H95.6331Z" fill="black"/>
<path opacity="0.08" d="M62.2128 25.5219C62.2128 25.5219 58.078 29.9867 57.0205 35.133L60.1366 39.1259L58.071 41.9652C58.071 41.9652 60.0309 49.3972 64.2538 53.0032C64.2538 53.0032 58.3389 37.44 62.2128 25.5219Z" fill="black"/>
<path opacity="0.08" d="M64.5145 57.9081C65.0012 57.9081 65.3958 57.5109 65.3958 57.0208C65.3958 56.5308 65.0012 56.1335 64.5145 56.1335C64.0278 56.1335 63.6333 56.5308 63.6333 57.0208C63.6333 57.5109 64.0278 57.9081 64.5145 57.9081Z" fill="black"/>
<path opacity="0.08" d="M64.913 62.1672C65.3997 62.1672 65.7942 61.7699 65.7942 61.2799C65.7942 60.7898 65.3997 60.3926 64.913 60.3926C64.4263 60.3926 64.0317 60.7898 64.0317 61.2799C64.0317 61.7699 64.4263 62.1672 64.913 62.1672Z" fill="black"/>
</svg>
