<svg width="145" height="110" viewBox="0 0 145 110" fill="none" xmlns="http://www.w3.org/2000/svg">
<path d="M144.761 93.4449H7.24192C7.17841 93.4449 7.11749 93.4196 7.07258 93.3747C7.02767 93.3298 7.00244 93.2689 7.00244 93.2054C7.00244 93.1419 7.02767 93.081 7.07258 93.036C7.11749 92.9911 7.17841 92.9659 7.24192 92.9659H144.761C144.824 92.9659 144.885 92.9911 144.93 93.036C144.975 93.081 145 93.1419 145 93.2054C144.999 93.2685 144.973 93.3287 144.929 93.3734C144.884 93.418 144.824 93.4436 144.761 93.4449Z" fill="#231F20"/>
<path d="M122.187 4.54529H29.2932V74.2386H122.187V4.54529Z" fill="white"/>
<path d="M122.192 74.4876H29.274C29.2079 74.4876 29.1446 74.4614 29.0978 74.4147C29.0511 74.368 29.0249 74.3046 29.0249 74.2385V4.54525C29.0249 4.51276 29.0314 4.4806 29.0439 4.45065C29.0565 4.4207 29.0749 4.39356 29.0981 4.37081C29.1213 4.34806 29.1488 4.33017 29.179 4.31818C29.2092 4.30619 29.2415 4.30034 29.274 4.30098H122.192C122.257 4.30098 122.319 4.32672 122.365 4.37253C122.411 4.41834 122.436 4.48046 122.436 4.54525V74.2385C122.437 74.271 122.431 74.3033 122.419 74.3335C122.407 74.3637 122.389 74.3912 122.366 74.4144C122.344 74.4376 122.317 74.456 122.287 74.4686C122.257 74.4811 122.224 74.4876 122.192 74.4876ZM29.547 74.0087H121.938V4.79431H29.5422L29.547 74.0087Z" fill="#231F20"/>
<path d="M52.7812 68.0073H45.6352C45.5742 68.0073 45.5157 67.9831 45.4726 67.94C45.4295 67.8969 45.4053 67.8384 45.4053 67.7774V33.7139C45.4065 33.6533 45.4311 33.5955 45.474 33.5527C45.5168 33.5098 45.5746 33.4852 45.6352 33.484H52.7812C52.8418 33.4852 52.8996 33.5098 52.9425 33.5527C52.9853 33.5955 53.0099 33.6533 53.0111 33.7139V67.7774C53.0111 67.8384 52.9869 67.8969 52.9438 67.94C52.9007 67.9831 52.8422 68.0073 52.7812 68.0073ZM45.8651 67.5523H52.5705V33.9438H45.8651V67.5523Z" fill="#D1D3D4"/>
<path d="M65.9624 68.0073H58.8163C58.7554 68.0073 58.6969 67.9831 58.6538 67.9399C58.6107 67.8968 58.5864 67.8384 58.5864 67.7774V47.8C58.5877 47.7399 58.6125 47.6826 58.6554 47.6405C58.6984 47.5984 58.7562 47.5749 58.8163 47.5749H65.9624C66.0225 47.5749 66.0803 47.5984 66.1233 47.6405C66.1663 47.6826 66.191 47.7399 66.1923 47.8V67.7774C66.1923 67.8384 66.1681 67.8968 66.125 67.9399C66.0818 67.9831 66.0234 68.0073 65.9624 68.0073ZM59.0462 67.5523H65.7517V48.0299H59.0462V67.5523Z" fill="#D1D3D4"/>
<path d="M79.143 68.0073H71.9969C71.9669 68.0073 71.9373 68.0014 71.9096 67.9897C71.882 67.9781 71.857 67.9611 71.836 67.9397C71.815 67.9183 71.7985 67.8929 71.7875 67.865C71.7765 67.8372 71.7711 67.8074 71.7718 67.7774V38.6232C71.7718 38.5635 71.7955 38.5062 71.8377 38.464C71.8799 38.4218 71.9372 38.3981 71.9969 38.3981H79.143C79.1729 38.3975 79.2027 38.4028 79.2306 38.4138C79.2584 38.4249 79.2838 38.4413 79.3052 38.4623C79.3267 38.4833 79.3437 38.5083 79.3553 38.5359C79.3669 38.5636 79.3729 38.5932 79.3729 38.6232V67.7774C79.3735 67.8078 79.368 67.838 79.3567 67.8662C79.3454 67.8944 79.3285 67.92 79.307 67.9414C79.2855 67.9629 79.2599 67.9798 79.2317 67.9912C79.2035 68.0025 79.1733 68.008 79.143 68.0073ZM72.2268 67.5523H78.9322V38.8531H72.2268V67.5523Z" fill="#D1D3D4"/>
<path d="M92.3241 68.0073H85.178C85.1481 68.0073 85.1184 68.0013 85.0908 67.9897C85.0631 67.9781 85.0381 67.9611 85.0172 67.9397C84.9962 67.9183 84.9797 67.8929 84.9687 67.865C84.9576 67.8372 84.9523 67.8074 84.9529 67.7774V55.2718C84.9529 55.2116 84.9765 55.1539 85.0186 55.1109C85.0607 55.0679 85.1179 55.0432 85.178 55.0419H92.3241C92.3851 55.0419 92.4436 55.0661 92.4867 55.1092C92.5298 55.1523 92.554 55.2108 92.554 55.2718V67.7774C92.5547 67.8078 92.5492 67.838 92.5378 67.8662C92.5265 67.8943 92.5096 67.92 92.4881 67.9414C92.4666 67.9629 92.441 67.9798 92.4129 67.9911C92.3847 68.0025 92.3545 68.008 92.3241 68.0073ZM85.4079 67.5523H92.1134V55.5017H85.4079V67.5523Z" fill="#D1D3D4"/>
<path d="M105.51 68.0073H98.364C98.3336 68.008 98.3034 68.0025 98.2752 67.9912C98.2471 67.9798 98.2214 67.9629 98.2 67.9414C98.1785 67.92 98.1616 67.8944 98.1503 67.8662C98.1389 67.838 98.1334 67.8078 98.1341 67.7774V38.6232C98.1341 38.5932 98.1401 38.5636 98.1517 38.5359C98.1633 38.5083 98.1803 38.4833 98.2017 38.4623C98.2231 38.4413 98.2485 38.4249 98.2764 38.4138C98.3042 38.4028 98.334 38.3975 98.364 38.3981H105.51C105.57 38.3981 105.627 38.4218 105.669 38.464C105.711 38.5062 105.735 38.5635 105.735 38.6232V67.7774C105.736 67.8074 105.73 67.8372 105.719 67.865C105.708 67.8929 105.692 67.9183 105.671 67.9397C105.65 67.9611 105.625 67.9781 105.597 67.9897C105.57 68.0014 105.54 68.0073 105.51 68.0073ZM98.5891 67.5523H105.295V38.8531H98.5891V67.5523Z" fill="#D1D3D4"/>
<path d="M105.337 22.0417H93.2485C93.185 22.0417 93.1241 22.0165 93.0792 21.9716C93.0343 21.9267 93.009 21.8658 93.009 21.8023C93.009 21.7387 93.0343 21.6778 93.0792 21.6329C93.1241 21.588 93.185 21.5628 93.2485 21.5628H105.337C105.401 21.5628 105.462 21.588 105.507 21.6329C105.552 21.6778 105.577 21.7387 105.577 21.8023C105.577 21.8658 105.552 21.9267 105.507 21.9716C105.462 22.0165 105.401 22.0417 105.337 22.0417Z" fill="#D1D3D4"/>
<path d="M105.338 24.7095H93.2486C93.2159 24.7142 93.1827 24.7119 93.151 24.7026C93.1193 24.6934 93.09 24.6774 93.0651 24.6558C93.0401 24.6343 93.0201 24.6076 93.0064 24.5776C92.9927 24.5476 92.9856 24.515 92.9856 24.482C92.9856 24.449 92.9927 24.4164 93.0064 24.3864C93.0201 24.3564 93.0401 24.3297 93.0651 24.3081C93.09 24.2865 93.1193 24.2706 93.151 24.2613C93.1827 24.2521 93.2159 24.2497 93.2486 24.2545H105.338C105.37 24.2497 105.403 24.2521 105.435 24.2613C105.467 24.2706 105.496 24.2865 105.521 24.3081C105.546 24.3297 105.566 24.3564 105.58 24.3864C105.593 24.4164 105.601 24.449 105.601 24.482C105.601 24.515 105.593 24.5476 105.58 24.5776C105.566 24.6076 105.546 24.6343 105.521 24.6558C105.496 24.6774 105.467 24.6934 105.435 24.7026C105.403 24.7119 105.37 24.7142 105.338 24.7095Z" fill="#D1D3D4"/>
<path d="M101.118 27.4012H93.2485C93.185 27.4012 93.1241 27.376 93.0792 27.3311C93.0343 27.2861 93.009 27.2252 93.009 27.1617C93.009 27.0982 93.0343 27.0373 93.0792 26.9924C93.1241 26.9475 93.185 26.9222 93.2485 26.9222H101.118C101.181 26.9222 101.242 26.9475 101.287 26.9924C101.332 27.0373 101.357 27.0982 101.357 27.1617C101.357 27.2252 101.332 27.2861 101.287 27.3311C101.242 27.376 101.181 27.4012 101.118 27.4012Z" fill="#D1D3D4"/>
<path d="M58.3275 16.0595H46.2386C46.2059 16.0642 46.1727 16.0619 46.141 16.0526C46.1093 16.0434 46.08 16.0274 46.0551 16.0059C46.0301 15.9843 46.0101 15.9576 45.9964 15.9276C45.9827 15.8976 45.9756 15.865 45.9756 15.832C45.9756 15.799 45.9827 15.7664 45.9964 15.7364C46.0101 15.7064 46.0301 15.6797 46.0551 15.6581C46.08 15.6365 46.1093 15.6206 46.141 15.6113C46.1727 15.6021 46.2059 15.5997 46.2386 15.6045H58.3275C58.3602 15.5997 58.3934 15.6021 58.4251 15.6113C58.4568 15.6206 58.4861 15.6365 58.511 15.6581C58.536 15.6797 58.556 15.7064 58.5697 15.7364C58.5834 15.7664 58.5905 15.799 58.5905 15.832C58.5905 15.865 58.5834 15.8976 58.5697 15.9276C58.556 15.9576 58.536 15.9843 58.511 16.0059C58.4861 16.0274 58.4568 16.0434 58.4251 16.0526C58.3934 16.0619 58.3602 16.0642 58.3275 16.0595Z" fill="#D1D3D4"/>
<path d="M54.1224 18.7273H46.2387C46.1752 18.7273 46.1143 18.7021 46.0694 18.6572C46.0245 18.6123 45.9993 18.5513 45.9993 18.4878C45.9993 18.4243 46.0245 18.3634 46.0694 18.3185C46.1143 18.2736 46.1752 18.2484 46.2387 18.2484H54.1224C54.1859 18.2484 54.2468 18.2736 54.2917 18.3185C54.3367 18.3634 54.3619 18.4243 54.3619 18.4878C54.3619 18.5513 54.3367 18.6123 54.2917 18.6572C54.2468 18.7021 54.1859 18.7273 54.1224 18.7273Z" fill="#D1D3D4"/>
<path d="M89.6225 43.1781C85.8867 43.1781 82.5962 38.9633 79.9428 35.5627C78.1706 33.2924 76.4943 31.1515 75.3065 31.1515H75.2777C73.9845 31.1898 72.2555 32.1908 70.4163 33.2541C67.9736 34.691 65.2004 36.2667 62.6188 36.1278C57.7814 35.8644 48.6141 25.0831 48.2501 24.6328C48.2288 24.6119 48.2119 24.5869 48.2003 24.5594C48.1888 24.5318 48.1829 24.5022 48.1829 24.4724C48.1829 24.4425 48.1888 24.4129 48.2003 24.3854C48.2119 24.3578 48.2288 24.3329 48.2501 24.3119C48.2974 24.2734 48.3579 24.2549 48.4188 24.2602C48.4796 24.2656 48.5359 24.2945 48.5758 24.3407C48.6668 24.4508 58.0017 35.4286 62.6428 35.6776C65.0903 35.8213 67.8012 34.2407 70.1912 32.8613C72.0735 31.7741 73.8552 30.7396 75.2634 30.6964H75.3113C76.7194 30.6964 78.3047 32.7272 80.302 35.2849C82.9171 38.6041 86.1309 42.7279 89.6225 42.7279H89.8333C92.98 42.5746 94.4552 39.8829 96.0214 37.0331C97.4583 34.3749 98.9862 31.6304 101.965 31.0605C102.025 31.0492 102.087 31.062 102.137 31.0961C102.187 31.1302 102.222 31.1828 102.234 31.2425C102.245 31.3021 102.232 31.3638 102.198 31.4141C102.164 31.4644 102.111 31.4991 102.052 31.5107C99.2831 32.0375 97.8271 34.691 96.4238 37.2582C94.8671 40.0936 93.2578 43.0057 89.8572 43.1877L89.6225 43.1781Z" fill="#D1D3D4"/>
<path d="M111.621 68.0073H39.8589C39.8263 68.0121 39.793 68.0098 39.7613 68.0005C39.7297 67.9912 39.7004 67.9753 39.6754 67.9537C39.6505 67.9321 39.6305 67.9054 39.6168 67.8754C39.603 67.8454 39.5959 67.8128 39.5959 67.7798C39.5959 67.7468 39.603 67.7142 39.6168 67.6842C39.6305 67.6542 39.6505 67.6275 39.6754 67.606C39.7004 67.5844 39.7297 67.5684 39.7613 67.5592C39.793 67.5499 39.8263 67.5476 39.8589 67.5523H111.621C111.676 67.5603 111.726 67.5876 111.762 67.6294C111.798 67.6712 111.818 67.7246 111.818 67.7798C111.818 67.8351 111.798 67.8885 111.762 67.9302C111.726 67.972 111.676 67.9994 111.621 68.0073Z" fill="#D1D3D4"/>
<path d="M48.5953 25.8637C48.3111 25.8637 48.0333 25.7795 47.797 25.6216C47.5607 25.4637 47.3766 25.2393 47.2678 24.9767C47.1591 24.7142 47.1306 24.4253 47.1861 24.1465C47.2415 23.8678 47.3783 23.6118 47.5793 23.4108C47.7802 23.2099 48.0363 23.073 48.315 23.0176C48.5937 22.9622 48.8826 22.9906 49.1452 23.0994C49.4077 23.2081 49.6322 23.3923 49.79 23.6286C49.9479 23.8649 50.0322 24.1427 50.0322 24.4269C50.0322 24.808 49.8808 25.1734 49.6113 25.4429C49.3419 25.7124 48.9764 25.8637 48.5953 25.8637ZM48.5953 23.469C48.4059 23.469 48.2207 23.5251 48.0631 23.6304C47.9056 23.7356 47.7828 23.8853 47.7103 24.0603C47.6378 24.2353 47.6189 24.4279 47.6558 24.6138C47.6928 24.7996 47.784 24.9703 47.918 25.1042C48.0519 25.2382 48.2226 25.3294 48.4084 25.3664C48.5943 25.4033 48.7869 25.3844 48.9619 25.3119C49.1369 25.2394 49.2865 25.1166 49.3918 24.9591C49.4971 24.8015 49.5532 24.6163 49.5532 24.4269C49.552 24.1736 49.4505 23.9312 49.271 23.7526C49.0915 23.574 48.8486 23.4737 48.5953 23.4737V23.469Z" fill="#D1D3D4"/>
<path d="M102.028 32.6938C101.744 32.6938 101.466 32.6095 101.23 32.4516C100.993 32.2937 100.809 32.0693 100.7 31.8068C100.592 31.5442 100.563 31.2553 100.619 30.9766C100.674 30.6978 100.811 30.4418 101.012 30.2409C101.213 30.0399 101.469 29.9031 101.748 29.8476C102.026 29.7922 102.315 29.8206 102.578 29.9294C102.84 30.0381 103.065 30.2223 103.223 30.4586C103.381 30.6949 103.465 30.9727 103.465 31.2569C103.465 31.638 103.313 32.0034 103.044 32.2729C102.775 32.5424 102.409 32.6938 102.028 32.6938ZM102.028 30.299C101.838 30.299 101.653 30.3551 101.496 30.4604C101.338 30.5657 101.215 30.7153 101.143 30.8903C101.07 31.0653 101.051 31.2579 101.088 31.4438C101.125 31.6296 101.217 31.8003 101.351 31.9342C101.485 32.0682 101.655 32.1594 101.841 32.1964C102.027 32.2334 102.219 32.2144 102.395 32.1419C102.57 32.0694 102.719 31.9466 102.824 31.7891C102.93 31.6315 102.986 31.4463 102.986 31.2569C102.983 31.0045 102.881 30.7633 102.702 30.5857C102.523 30.4081 102.28 30.3085 102.028 30.3085V30.299Z" fill="#D1D3D4"/>
<path d="M122.187 4.54529H29.2932V10.1731H122.187V4.54529Z" fill="white"/>
<path d="M122.192 10.4221H29.274C29.2415 10.4227 29.2092 10.4169 29.179 10.4049C29.1488 10.3929 29.1213 10.375 29.0981 10.3522C29.0749 10.3295 29.0565 10.3024 29.0439 10.2724C29.0314 10.2425 29.0249 10.2103 29.0249 10.1778V4.54525C29.0249 4.51276 29.0314 4.4806 29.0439 4.45065C29.0565 4.4207 29.0749 4.39356 29.0981 4.37081C29.1213 4.34806 29.1488 4.33017 29.179 4.31818C29.2092 4.30619 29.2415 4.30034 29.274 4.30098H122.192C122.257 4.30098 122.319 4.32672 122.365 4.37253C122.411 4.41834 122.436 4.48046 122.436 4.54525V10.1586C122.439 10.1923 122.435 10.2261 122.423 10.258C122.412 10.2899 122.395 10.3191 122.372 10.3439C122.349 10.3686 122.321 10.3884 122.29 10.4018C122.259 10.4153 122.226 10.4222 122.192 10.4221ZM29.547 9.94312H121.938V4.79431H29.5422L29.547 9.94312Z" fill="#231F20"/>
<path d="M109.672 0.239441H70.0764V28.0286H109.672V0.239441Z" fill="white"/>
<path d="M109.672 28.2729H70.0767C70.0115 28.2729 69.9488 28.2473 69.9023 28.2017C69.8557 28.156 69.8289 28.0939 69.8276 28.0286V0.249028C69.8276 0.216321 69.8341 0.183934 69.8466 0.153717C69.8591 0.1235 69.8775 0.096043 69.9006 0.0729158C69.9237 0.0497886 69.9512 0.0314437 69.9814 0.0189273C70.0116 0.00641094 70.044 -3.05131e-05 70.0767 -3.05131e-05H109.672C109.705 -3.67584e-05 109.737 0.00643543 109.767 0.0190095C109.797 0.0315836 109.824 0.0500068 109.847 0.073199C109.869 0.0963912 109.887 0.123887 109.899 0.154078C109.911 0.18427 109.917 0.21655 109.916 0.249028V28.0286C109.916 28.0934 109.891 28.1556 109.845 28.2014C109.799 28.2472 109.737 28.2729 109.672 28.2729ZM70.3258 27.794H109.423V0.493297H70.3258V27.794Z" fill="#231F20"/>
<path d="M81.4805 7.54831L88.775 14.8381C88.8116 14.879 88.8567 14.9114 88.9072 14.9329C88.9577 14.9544 89.0123 14.9646 89.0672 14.9626C92.7264 14.9626 96.3889 14.9626 100.055 14.9626H100.237C100.176 16.6893 99.7015 18.3762 98.8525 19.881C98.0036 21.3859 96.8053 22.6645 95.3586 23.6092C93.912 24.5539 92.2594 25.1368 90.5402 25.309C88.821 25.4811 87.0857 25.2374 85.4804 24.5983C83.8752 23.9592 82.4471 22.9435 81.3167 21.6369C80.1863 20.3303 79.3865 18.771 78.985 17.0905C78.5835 15.4101 78.5919 13.6577 79.0095 11.9811C79.4271 10.3046 80.2418 8.75304 81.3847 7.45731L81.4805 7.54831Z" fill="#68E1FD"/>
<path d="M89.8335 3.79333V14.1963H89.9389H99.997C100.217 14.1963 100.217 14.1963 100.203 13.9664C100.079 11.9872 99.4154 10.0798 98.285 8.45042C97.1546 6.82108 95.6001 5.53194 93.7897 4.72252C92.6846 4.24154 91.5085 3.94388 90.3077 3.84123L89.8335 3.79333Z" fill="#D1D3D4"/>
<path d="M89.067 14.0573V3.80283C87.8574 3.86577 86.665 4.11622 85.5323 4.54521C84.1787 5.08229 82.9436 5.87964 81.897 6.89211L89.067 14.0573Z" fill="#D1D3D4"/>
<path d="M105.582 20.2169H100.979C100.915 20.2169 100.855 20.1916 100.81 20.1467C100.765 20.1018 100.74 20.0409 100.74 19.9774C100.74 19.9139 100.765 19.853 100.81 19.8081C100.855 19.7631 100.915 19.7379 100.979 19.7379H105.582C105.645 19.7379 105.706 19.7631 105.751 19.8081C105.796 19.853 105.821 19.9139 105.821 19.9774C105.821 20.0409 105.796 20.1018 105.751 20.1467C105.706 20.1916 105.645 20.2169 105.582 20.2169Z" fill="#D1D3D4"/>
<path d="M105.582 22.2763H100.979C100.915 22.2763 100.855 22.2511 100.81 22.2062C100.765 22.1613 100.74 22.1004 100.74 22.0368C100.74 21.9733 100.765 21.9124 100.81 21.8675C100.855 21.8226 100.915 21.7974 100.979 21.7974H105.582C105.645 21.7974 105.706 21.8226 105.751 21.8675C105.796 21.9124 105.821 21.9733 105.821 22.0368C105.821 22.1004 105.796 22.1613 105.751 22.2062C105.706 22.2511 105.645 22.2763 105.582 22.2763Z" fill="#D1D3D4"/>
<path d="M104.207 24.331H100.979C100.915 24.331 100.855 24.3058 100.81 24.2609C100.765 24.216 100.74 24.155 100.74 24.0915C100.74 24.028 100.765 23.9671 100.81 23.9222C100.855 23.8773 100.915 23.8521 100.979 23.8521H104.207C104.271 23.8521 104.332 23.8773 104.377 23.9222C104.421 23.9671 104.447 24.028 104.447 24.0915C104.447 24.155 104.421 24.216 104.377 24.2609C104.332 24.3058 104.271 24.331 104.207 24.331Z" fill="#D1D3D4"/>
<path d="M81.0781 3.13234H76.1352C76.0717 3.13234 76.0108 3.10711 75.9659 3.0622C75.921 3.01729 75.8958 2.95637 75.8958 2.89286C75.8958 2.82935 75.921 2.76843 75.9659 2.72352C76.0108 2.67861 76.0717 2.65338 76.1352 2.65338H81.0781C81.1416 2.65338 81.2025 2.67861 81.2474 2.72352C81.2923 2.76843 81.3176 2.82935 81.3176 2.89286C81.3176 2.95637 81.2923 3.01729 81.2474 3.0622C81.2025 3.10711 81.1416 3.13234 81.0781 3.13234Z" fill="#D1D3D4"/>
<path d="M81.0781 4.45909H76.1352C76.0717 4.45909 76.0108 4.43386 75.9659 4.38895C75.921 4.34404 75.8958 4.28313 75.8958 4.21961C75.8958 4.1561 75.921 4.09519 75.9659 4.05027C76.0108 4.00536 76.0717 3.98013 76.1352 3.98013H81.0781C81.1416 3.98013 81.2025 4.00536 81.2474 4.05027C81.2923 4.09519 81.3176 4.1561 81.3176 4.21961C81.3176 4.28313 81.2923 4.34404 81.2474 4.38895C81.2025 4.43386 81.1416 4.45909 81.0781 4.45909Z" fill="#D1D3D4"/>
<path d="M79.6029 5.78096H76.1352C76.0717 5.78096 76.0108 5.75573 75.9659 5.71082C75.921 5.66591 75.8958 5.605 75.8958 5.54148C75.8958 5.47797 75.921 5.41705 75.9659 5.37214C76.0108 5.32723 76.0717 5.302 76.1352 5.302H79.6029C79.6664 5.302 79.7273 5.32723 79.7722 5.37214C79.8171 5.41705 79.8424 5.47797 79.8424 5.54148C79.8424 5.605 79.8171 5.66591 79.7722 5.71082C79.7273 5.75573 79.6664 5.78096 79.6029 5.78096Z" fill="#D1D3D4"/>
<path d="M31.113 96.8119C31.113 96.8119 31.3813 102.646 31.6495 102.789C31.9177 102.933 35.6871 103.268 36.3576 102.262L36.8366 98.0955L31.113 96.8119Z" fill="white"/>
<path d="M33.5845 103.216C32.9026 103.241 32.2206 103.17 31.5585 103.005C31.41 102.928 31.1658 102.799 30.8928 96.8263C30.8905 96.7884 30.8971 96.7505 30.9121 96.7155C30.9271 96.6806 30.95 96.6497 30.979 96.6252C31.007 96.5997 31.041 96.5815 31.0777 96.5724C31.1145 96.5632 31.153 96.5632 31.1897 96.5725L36.9037 97.8561C36.9634 97.8688 37.0161 97.9034 37.0516 97.953C37.087 98.0026 37.1026 98.0637 37.0953 98.1243L36.6163 102.286C36.6139 102.326 36.6007 102.364 36.578 102.397C36.1374 103.034 34.7675 103.216 33.5845 103.216ZM31.8219 102.598C32.3775 102.732 35.5004 102.928 36.1326 102.176L36.5732 98.3015L31.3909 97.1329C31.4393 98.9608 31.5832 100.785 31.8219 102.598Z" fill="#231F20"/>
<path d="M12.8024 100.428C12.8024 100.428 12.175 103.608 12.4001 103.833C12.6252 104.059 15.6666 104.312 16.1599 104.188C16.6532 104.063 17.7261 103.024 17.7261 103.024L18.7128 98.9529L12.8024 100.428Z" fill="white"/>
<path d="M15.6523 104.466C14.5842 104.466 12.5103 104.293 12.2229 103.987C12.1319 103.891 11.9068 103.671 12.5582 100.361C12.5684 100.315 12.5913 100.272 12.6243 100.239C12.6573 100.205 12.6991 100.181 12.745 100.169L18.6506 98.6942C18.6918 98.6846 18.7348 98.6852 18.7757 98.6961C18.8166 98.7069 18.8542 98.7276 18.8853 98.7564C18.9156 98.7865 18.9378 98.8239 18.9495 98.865C18.9613 98.9061 18.9622 98.9495 18.9523 98.9911L17.9657 103.077C17.955 103.122 17.9317 103.164 17.8986 103.196C17.7837 103.307 16.7635 104.274 16.227 104.418C16.0375 104.453 15.845 104.469 15.6523 104.466ZM12.6013 103.671C13.7506 103.898 14.9221 103.992 16.0929 103.953C16.6241 103.677 17.1089 103.32 17.5298 102.895L18.4015 99.2929L13.0372 100.629C12.8084 101.629 12.6626 102.646 12.6013 103.671Z" fill="#231F20"/>
<path d="M14.6034 56.062C14.6034 56.062 13.5306 83.6261 11.8398 100.342C11.8398 100.342 14.7136 102.258 20.0971 100.667C20.0971 100.667 25.471 79.6364 24.7286 62.0155C24.7286 62.0155 29.9589 85.2306 29.7769 99.8245C32.4377 99.9547 35.0897 99.4266 37.4977 98.287C37.4977 98.287 36.3769 64.4438 34.3653 55.3101C32.3537 46.1763 32.277 47.436 32.277 47.436L15.8631 52.5896L14.6034 56.062Z" fill="#231F20"/>
<path d="M16.0022 101.554C13.2577 101.554 11.7921 100.596 11.6915 100.538C11.6558 100.514 11.6272 100.481 11.6086 100.442C11.5901 100.404 11.5823 100.361 11.5862 100.318C13.2577 83.7986 14.3402 56.3303 14.3497 56.0525C14.3452 56.0288 14.3452 56.0044 14.3497 55.9806L15.6238 52.5082C15.6367 52.4736 15.6572 52.4424 15.6837 52.4167C15.7102 52.391 15.7421 52.3716 15.777 52.3597L32.0616 47.2301C32.0832 47.2014 32.1105 47.1776 32.1419 47.1603C32.1732 47.143 32.2079 47.1325 32.2436 47.1295C32.5214 47.1295 32.7561 47.0864 34.557 55.2718C36.5495 64.3193 37.6846 97.947 37.6942 98.2871C37.6968 98.3325 37.686 98.3776 37.663 98.4169C37.6399 98.4561 37.6058 98.4876 37.5649 98.5074C35.1308 99.6676 32.4459 100.203 29.7531 100.064C29.6921 100.059 29.6353 100.031 29.5943 99.9857C29.5534 99.9403 29.5313 99.8809 29.5327 99.8197C29.6764 88.2385 26.3572 71.0056 25.0305 64.5875C25.1886 81.4708 20.3798 100.509 20.3272 100.725C20.3173 100.765 20.2971 100.803 20.2686 100.833C20.24 100.863 20.2041 100.885 20.1643 100.897C18.8163 101.318 17.4141 101.539 16.0022 101.554ZM12.0938 100.203C12.683 100.524 15.3891 101.779 19.9009 100.466C20.3511 98.6559 25.1694 78.6785 24.4893 62.0155C24.4865 61.9551 24.5066 61.8958 24.5457 61.8496C24.5848 61.8034 24.6399 61.7737 24.7 61.7665C24.7593 61.7591 24.8192 61.7742 24.868 61.8088C24.9167 61.8433 24.9508 61.8949 24.9635 61.9533C25.0162 62.1832 30.141 85.1205 30.0213 99.5899C32.5133 99.665 34.9888 99.1617 37.2536 98.1194C37.1673 95.6289 36.0466 64.0367 34.1307 55.3436C32.8855 49.7063 32.4065 48.1209 32.2149 47.6803L16.0644 52.786L14.8383 56.1148C14.7952 57.2834 13.7271 83.9471 12.0938 100.203Z" fill="#231F20"/>
<path d="M19.6946 17.5059C19.4647 16.4857 18.8995 15.6571 18.6648 14.6321C18.4108 13.5061 18.4587 12.333 18.8037 11.2315C18.9232 10.7782 19.1612 10.3649 19.4934 10.0341C19.8143 9.74193 20.1448 9.89041 20.5088 9.78025C20.8728 9.67009 20.9878 9.51682 21.2847 9.30129C21.9649 8.78491 22.773 8.46367 23.622 8.37211C24.71 8.19933 25.8235 8.28966 26.8694 8.63554C27.3942 8.81009 27.8776 9.09062 28.2896 9.45973C28.7015 9.82884 29.0333 10.2787 29.2642 10.7813C29.7431 11.8781 29.4797 13.0467 29.4653 14.1915C29.4391 15.3151 28.9931 16.3881 28.2153 17.1993C27.4487 17.9813 26.4515 18.4967 25.3702 18.6697C24.2947 18.8375 23.1976 18.8082 22.1325 18.5835C21.5646 18.5058 21.0168 18.3205 20.5184 18.0375C20.0203 17.7118 19.8287 18.0614 19.6946 17.5059Z" fill="white"/>
<path d="M24.0628 19.0099C23.4003 19.0033 22.7397 18.9359 22.0895 18.8087C21.4921 18.721 20.9158 18.5246 20.3892 18.2292C20.2845 18.1577 20.1615 18.1178 20.0347 18.1142C19.7474 18.0807 19.5558 17.9849 19.4792 17.5587C19.366 17.0794 19.2055 16.6125 19.0002 16.1649C18.7782 15.691 18.6018 15.197 18.4733 14.6897C18.2048 13.5214 18.2545 12.3024 18.617 11.1598C18.7525 10.666 19.0132 10.2157 19.3738 9.85221C19.5921 9.66686 19.8733 9.57254 20.1593 9.58878C20.2705 9.58843 20.3814 9.57557 20.4898 9.55046C20.6618 9.50464 20.8178 9.41176 20.94 9.28224C21.007 9.22477 21.0837 9.15771 21.1842 9.08587C21.9007 8.54866 22.7503 8.21742 23.6413 8.12795C24.765 7.95017 25.9149 8.04545 26.994 8.40575C27.5473 8.59253 28.0562 8.89138 28.4889 9.28364C28.9215 9.67591 29.2686 10.1532 29.5085 10.6856C29.8034 11.5471 29.8904 12.4662 29.7624 13.3678C29.7624 13.6408 29.7289 13.9186 29.7241 14.1964C29.6875 15.3773 29.2069 16.501 28.3782 17.3431C27.5758 18.1637 26.5318 18.7058 25.3991 18.8902C24.9582 18.9701 24.5109 19.0102 24.0628 19.0099ZM20.0108 17.6161H20.0731C20.2808 17.6336 20.4804 17.7045 20.6526 17.8221C21.1255 18.0877 21.6435 18.2631 22.1805 18.3394C23.2174 18.5575 24.2853 18.5851 25.332 18.4208C26.3597 18.2569 27.308 17.7685 28.0381 17.027C28.775 16.2604 29.1972 15.2451 29.2212 14.182C29.2212 13.8994 29.2451 13.6168 29.2595 13.3294C29.3781 12.5048 29.3043 11.6638 29.044 10.8724C28.8297 10.4025 28.5209 9.98186 28.1369 9.63659C27.7529 9.29132 27.3019 9.02885 26.812 8.86555C25.8046 8.53294 24.7323 8.44591 23.6844 8.6117C22.8772 8.69746 22.1087 9.0022 21.462 9.49299L21.2274 9.67978C21.0506 9.85594 20.8311 9.98304 20.5903 10.0486C20.4434 10.0871 20.292 10.1064 20.1401 10.1061C20.0551 10.0963 19.9689 10.1036 19.8867 10.1275C19.8045 10.1513 19.7278 10.1912 19.6612 10.245C19.3625 10.5462 19.1493 10.9215 19.0433 11.3322C18.7092 12.3916 18.6645 13.521 18.914 14.6035C19.0293 15.0806 19.1897 15.5457 19.3929 15.9925C19.6149 16.4697 19.7913 16.9668 19.9198 17.4772C19.9485 17.6065 19.9725 17.6401 19.9773 17.6401L20.0108 17.6161Z" fill="#231F20"/>
<path d="M34.3652 51.627C33.0145 45.3239 30.5335 24.9107 29.9205 24.6425C28.4836 23.9767 20.8202 23.2295 19.0673 26.1799C18.526 27.1043 18.1716 47.2254 18.8661 52.5897L34.3652 51.627Z" fill="white"/>
<path d="M18.8664 52.8386C18.8066 52.838 18.749 52.8159 18.7041 52.7764C18.6593 52.7368 18.6302 52.6824 18.6221 52.6231C17.9276 47.2588 18.2629 27.0659 18.8568 26.0553C20.72 22.875 28.6372 23.785 30.0214 24.4172C30.3949 24.5849 30.7302 26.4672 32.2725 36.9947C33.1106 42.7422 33.9776 48.6334 34.605 51.5742C34.6127 51.6088 34.6128 51.6447 34.6052 51.6793C34.5976 51.714 34.5826 51.7465 34.5612 51.7748C34.5398 51.8031 34.5125 51.8263 34.4812 51.843C34.4498 51.8596 34.4153 51.8692 34.3799 51.8711L18.8856 52.8291L18.8664 52.8386ZM25.4808 24.2927C22.9663 24.2927 20.1835 24.7717 19.2831 26.3043C18.8041 27.2622 18.3922 46.3871 19.0867 52.3262L34.0638 51.397C33.4363 48.3604 32.5982 42.6224 31.7839 37.0665C30.9889 31.6447 30.0932 25.514 29.7627 24.8435C28.3733 24.4357 26.9282 24.2499 25.4808 24.2927Z" fill="#231F20"/>
<path d="M27.0038 27.5497L26.0267 29.8487L28.3928 43.5373L26.7116 46.3871L23.9912 44.3899L24.9443 29.7385L22.5208 26.7354L27.0038 27.5497Z" fill="#231F20"/>
<path d="M26.7116 46.6266C26.6611 46.6274 26.6119 46.6104 26.5727 46.5787L23.8474 44.5814C23.815 44.5583 23.7891 44.5272 23.7723 44.4911C23.7555 44.455 23.7484 44.4152 23.7516 44.3755L24.7095 29.8151L22.3435 26.8839C22.3154 26.8448 22.3003 26.7979 22.3003 26.7498C22.3003 26.7017 22.3154 26.6548 22.3435 26.6157C22.3682 26.5733 22.4054 26.5396 22.4499 26.519C22.4944 26.4985 22.5442 26.4921 22.5925 26.5007L27.0756 27.3102C27.1109 27.3176 27.1441 27.3325 27.1731 27.354C27.202 27.3755 27.2259 27.4031 27.2432 27.4347C27.2585 27.4669 27.2665 27.5021 27.2665 27.5377C27.2665 27.5733 27.2585 27.6085 27.2432 27.6407L26.2853 29.8774L28.637 43.4942C28.647 43.5502 28.6369 43.6079 28.6082 43.657L26.9271 46.5308C26.91 46.5593 26.8871 46.5839 26.8599 46.6028C26.8326 46.6218 26.8017 46.6348 26.769 46.641L26.7116 46.6266ZM24.2353 44.2749L26.6301 46.0375L28.1293 43.4894L25.7824 29.887C25.7681 29.8434 25.7681 29.7964 25.7824 29.7529L26.6445 27.7317L23.0858 27.0851L25.1071 29.5852C25.1436 29.6332 25.1623 29.6926 25.1597 29.7529L24.2353 44.2749Z" fill="#231F20"/>
<path d="M23.2344 58.8784L21.0648 25.1118L28.4503 24.8484L28.2444 58.3468H36.0418C34.9594 48.8011 34.854 26.1991 33.9488 25.2172C30.5481 21.5244 21.8359 22.7601 21.8359 22.7601C21.8359 22.7601 15.5567 23.0619 13.5691 26.7355C13.0901 27.6599 12.8698 55.473 12.9368 59.4627L23.2344 58.8784Z" fill="#68E1FD"/>
<path d="M27.8703 22.6548L28.2678 25.2316C28.2678 25.2316 27.8607 28.9818 25.0253 28.3256C24.1728 28.1063 23.3776 27.7056 22.6941 27.151C22.0105 26.5963 21.4546 25.9008 21.0643 25.1118L20.7051 18.301C20.7051 18.301 22.7885 17.1611 22.142 12.611C24.4638 13.5849 27.005 13.9158 29.4988 13.5689C29.4988 13.5689 30.5094 18.2483 30.1885 20.442C30.1376 21.0298 29.8741 21.5788 29.4473 21.9862C29.0206 22.3936 28.4598 22.6313 27.8703 22.6548Z" fill="white"/>
<path d="M25.6671 28.6466C25.4317 28.6468 25.197 28.6195 24.9679 28.5651C24.0769 28.3409 23.2458 27.9247 22.5326 27.3456C21.8194 26.7664 21.2415 26.0384 20.8392 25.2124C20.8338 25.1839 20.8338 25.1547 20.8392 25.1262L20.4561 18.301C20.4539 18.2545 20.4649 18.2082 20.4878 18.1676C20.5107 18.1269 20.5445 18.0935 20.5854 18.0711C20.5854 18.0711 22.5012 16.9312 21.8882 12.6398C21.8808 12.5954 21.8859 12.5498 21.9028 12.5082C21.9197 12.4665 21.9477 12.4303 21.9839 12.4035C22.02 12.3768 22.0629 12.3605 22.1077 12.3566C22.1525 12.3526 22.1975 12.3611 22.2378 12.3811C24.5167 13.3332 27.0074 13.6638 29.4557 13.339C29.5179 13.3278 29.582 13.3417 29.6341 13.3776C29.6861 13.4135 29.7219 13.4685 29.7335 13.5306C29.7718 13.7222 30.7489 18.2819 30.4232 20.4947C30.3708 21.0915 30.1178 21.6531 29.7056 22.0879C29.2934 22.5227 28.7462 22.8053 28.1529 22.8895L28.5122 25.2124C28.5169 25.2329 28.5169 25.2542 28.5122 25.2747C28.5122 25.3609 28.2727 27.3486 27.013 28.2442C26.6186 28.5182 26.1472 28.6591 25.6671 28.6466ZM21.3086 25.0496C21.6876 25.7931 22.2199 26.4477 22.8705 26.9704C23.5211 27.493 24.2751 27.8716 25.0828 28.0814C25.3589 28.1614 25.6491 28.1798 25.933 28.1351C26.2169 28.0904 26.4876 27.9837 26.7256 27.8227C27.7315 27.1139 27.9853 25.4759 28.0188 25.2316L27.6261 22.6883C27.6215 22.6534 27.6243 22.6179 27.6342 22.5841C27.6441 22.5503 27.6609 22.5189 27.6836 22.4919C27.7056 22.465 27.7334 22.4432 27.7648 22.4283C27.7963 22.4134 27.8307 22.4057 27.8656 22.4057C28.3952 22.3838 28.8983 22.1684 29.2797 21.8003C29.661 21.4322 29.8941 20.9369 29.9347 20.4085C30.2077 18.5501 29.4892 14.7903 29.2929 13.8419C26.9732 14.1307 24.6182 13.8529 22.4294 13.0325C22.8509 16.7444 21.4188 18.1143 20.959 18.4495L21.3086 25.0496Z" fill="#231F20"/>
<path d="M26.4001 16.3085C26.4001 16.3085 27.746 18.7799 27.358 19.1487C26.9701 19.5175 25.9211 19.1487 25.9211 19.1487" fill="white"/>
<path d="M26.788 19.5559C26.4617 19.5483 26.1385 19.4902 25.8301 19.3834C25.7704 19.3618 25.7217 19.3174 25.6948 19.2599C25.6678 19.2024 25.6648 19.1366 25.6864 19.0769C25.6965 19.047 25.7126 19.0194 25.7337 18.9958C25.7548 18.9722 25.7804 18.9532 25.809 18.9398C25.8376 18.9263 25.8687 18.9188 25.9003 18.9177C25.9319 18.9166 25.9634 18.9219 25.9929 18.9332C26.2803 19.0338 26.9508 19.1775 27.1711 18.9715C27.2621 18.7656 26.8071 17.5682 26.1845 16.4235C26.1685 16.3963 26.1581 16.3661 26.154 16.3348C26.1499 16.3035 26.1522 16.2717 26.1607 16.2413C26.1692 16.2109 26.1837 16.1825 26.2035 16.1578C26.2232 16.1332 26.2477 16.1128 26.2755 16.0978C26.3031 16.0826 26.3335 16.0731 26.3649 16.0697C26.3962 16.0663 26.428 16.0691 26.4582 16.078C26.4885 16.0869 26.5167 16.1017 26.5412 16.1215C26.5658 16.1414 26.5861 16.1658 26.6012 16.1936C27.2573 17.3958 27.9423 18.9141 27.492 19.326C27.2921 19.4837 27.0425 19.5652 26.788 19.5559Z" fill="#231F20"/>
<path d="M25.1038 16.4956C25.2571 16.4892 25.3694 16.199 25.3546 15.8475C25.3398 15.496 25.2035 15.2163 25.0503 15.2227C24.897 15.2292 24.7847 15.5194 24.7995 15.8709C24.8143 16.2224 24.9505 16.5021 25.1038 16.4956Z" fill="#231F20"/>
<path d="M28.7503 16.4956C28.9036 16.4892 29.0159 16.199 29.0011 15.8475C28.9863 15.496 28.85 15.2163 28.6967 15.2227C28.5435 15.2292 28.4312 15.5194 28.446 15.8709C28.4608 16.2224 28.597 16.5021 28.7503 16.4956Z" fill="#231F20"/>
<path d="M22.5207 17.1275C22.2738 16.7017 21.9488 16.3263 21.5628 16.0211C21.3583 15.8427 21.1044 15.7307 20.8348 15.7002C20.6141 15.7046 20.3988 15.7691 20.2121 15.887C19.9326 16.0502 19.6908 16.2707 19.5026 16.534C19.3144 16.7974 19.184 17.0975 19.1201 17.4148C19.0553 17.7075 19.0619 18.0114 19.1393 18.3009C19.3007 18.7456 19.6124 19.12 20.0205 19.3594C20.428 19.5966 20.862 19.7847 21.3137 19.9198" fill="white"/>
<path d="M21.3138 20.1688H21.2324C20.7644 20.0263 20.3144 19.8302 19.8913 19.5845C19.4317 19.314 19.0823 18.8899 18.9046 18.3871C18.8075 18.0588 18.7943 17.7113 18.8663 17.3765C18.9371 17.025 19.0812 16.6923 19.2892 16.4002C19.4971 16.108 19.7643 15.863 20.0733 15.681C20.2987 15.5359 20.562 15.4609 20.8301 15.4655C21.1502 15.4959 21.453 15.6247 21.697 15.8343C22.1142 16.1584 22.4668 16.5581 22.7363 17.0125C22.7693 17.0697 22.7782 17.1376 22.7612 17.2014C22.7441 17.2651 22.7024 17.3195 22.6453 17.3526C22.6174 17.3688 22.5865 17.3793 22.5544 17.3835C22.5224 17.3877 22.4899 17.3855 22.4587 17.3771C22.4275 17.3686 22.3983 17.354 22.3728 17.3342C22.3473 17.3144 22.3259 17.2897 22.31 17.2616C22.0726 16.8625 21.7623 16.5115 21.3952 16.227C21.2331 16.0789 21.0289 15.9851 20.8109 15.9588C20.6397 15.9617 20.4731 16.015 20.3319 16.1121C20.0857 16.2588 19.8731 16.4557 19.708 16.6901C19.543 16.9245 19.4292 17.191 19.374 17.4723C19.3134 17.7242 19.3134 17.9868 19.374 18.2386C19.5263 18.6284 19.809 18.9534 20.1739 19.1582C20.5664 19.3809 20.9825 19.5592 21.4144 19.6899C21.445 19.7001 21.4732 19.7163 21.4975 19.7376C21.5218 19.7588 21.5417 19.7847 21.5559 19.8136C21.5702 19.8425 21.5785 19.874 21.5805 19.9062C21.5826 19.9384 21.5782 19.9707 21.5677 20.0012C21.5498 20.0533 21.5152 20.098 21.4693 20.1283C21.4234 20.1586 21.3687 20.1729 21.3138 20.1688Z" fill="#231F20"/>
<path d="M27.8706 22.6547C26.242 22.9041 24.5764 22.629 23.1145 21.8692C23.1145 21.8692 25.538 25.5955 28.2442 25.0686L27.8706 22.6547Z" fill="#231F20"/>
<path d="M27.7077 25.3609C25.1309 25.3609 23.0091 22.147 22.9181 22.0081C22.8866 21.9659 22.8696 21.9147 22.8696 21.8621C22.8696 21.8094 22.8866 21.7582 22.9181 21.716C22.9535 21.6767 23.0009 21.6503 23.0528 21.6407C23.1048 21.6312 23.1585 21.6391 23.2055 21.6633C24.63 22.4003 26.252 22.6653 27.837 22.42C27.8689 22.4124 27.9021 22.4115 27.9343 22.4174C27.9666 22.4233 27.9972 22.436 28.0243 22.4545C28.0514 22.473 28.0743 22.4969 28.0915 22.5248C28.1088 22.5527 28.12 22.5839 28.1244 22.6164L28.498 25.0112C28.5077 25.0721 28.4931 25.1344 28.4572 25.1846C28.4214 25.2348 28.3672 25.2689 28.3064 25.2794C28.1101 25.3268 27.9095 25.3541 27.7077 25.3609ZM23.876 22.4584C24.6807 23.4163 26.2708 25.0352 27.9903 24.8532L27.6886 22.9373C26.3914 23.094 25.0756 22.9295 23.8569 22.4584H23.876Z" fill="#231F20"/>
<path d="M24.2733 18.1908C23.8116 18.1917 23.36 18.0556 22.9757 17.7997C22.5914 17.5437 22.2916 17.1795 22.1145 16.7531C21.9374 16.3267 21.8908 15.8573 21.9806 15.4044C22.0705 14.9515 22.2927 14.5354 22.6192 14.2089C22.9457 13.8824 23.3618 13.6602 23.8147 13.5703C24.2676 13.4805 24.737 13.5271 25.1634 13.7042C25.5898 13.8813 25.954 14.181 26.21 14.5654C26.4659 14.9497 26.602 15.4013 26.6011 15.863C26.5998 16.48 26.3542 17.0713 25.9179 17.5076C25.4817 17.9439 24.8903 18.1895 24.2733 18.1908ZM24.2733 14.0238C23.9094 14.0229 23.5533 14.13 23.2502 14.3315C22.9472 14.533 22.7107 14.8199 22.5707 15.1559C22.4308 15.4919 22.3937 15.8618 22.4641 16.2189C22.5345 16.576 22.7093 16.9042 22.9664 17.1619C23.2234 17.4195 23.5511 17.5952 23.908 17.6665C24.2649 17.7379 24.6349 17.7018 24.9713 17.5627C25.3076 17.4236 25.5952 17.1879 25.7975 16.8853C25.9998 16.5828 26.1078 16.227 26.1078 15.863C26.1078 15.3761 25.9147 14.909 25.5708 14.5642C25.2269 14.2194 24.7603 14.0251 24.2733 14.0238Z" fill="#231F20"/>
<path d="M28.7665 18.1908C28.3048 18.1917 27.8531 18.0556 27.4688 17.7997C27.0845 17.5437 26.7848 17.1795 26.6077 16.7531C26.4305 16.3267 26.3839 15.8573 26.4738 15.4044C26.5636 14.9515 26.7859 14.5354 27.1124 14.2089C27.4389 13.8824 27.8549 13.6602 28.3078 13.5703C28.7608 13.4805 29.2302 13.5271 29.6566 13.7042C30.083 13.8813 30.4472 14.181 30.7031 14.5654C30.9591 14.9497 31.0952 15.4013 31.0943 15.863C31.093 16.48 30.8473 17.0713 30.4111 17.5076C29.9748 17.9439 29.3835 18.1895 28.7665 18.1908ZM28.7665 14.0238C28.4026 14.0229 28.0465 14.13 27.7434 14.3315C27.4403 14.533 27.2038 14.8199 27.0639 15.1559C26.924 15.4919 26.8869 15.8618 26.9573 16.2189C27.0277 16.576 27.2025 16.9042 27.4595 17.1619C27.7165 17.4195 28.0443 17.5952 28.4012 17.6665C28.7581 17.7379 29.1281 17.7018 29.4644 17.5627C29.8008 17.4236 30.0883 17.1879 30.2906 16.8853C30.4929 16.5828 30.6009 16.227 30.6009 15.863C30.6009 15.3761 30.4078 14.909 30.0639 14.5642C29.72 14.2194 29.2535 14.0251 28.7665 14.0238Z" fill="#231F20"/>
<path d="M55.6646 31.6832C55.6646 31.3622 57.2547 30.4905 57.5133 30.2463L60.3536 27.497C60.6108 27.1907 60.9694 26.9868 61.3642 26.9223C61.4357 26.9142 61.5079 26.9293 61.5701 26.9654C61.7521 27.0851 61.6659 27.3677 61.5701 27.5545C61.143 28.3016 60.6628 29.0171 60.1332 29.6955C61.5094 28.8333 62.908 28.0127 64.3289 27.2336C64.5492 27.1139 64.8079 26.9941 65.0426 27.1283C65.1076 27.1784 65.1619 27.2412 65.2022 27.3128C65.2425 27.3844 65.268 27.4633 65.2773 27.5449C65.3539 28.234 65.1842 28.9279 64.7983 29.5039C63.735 31.3862 61.9245 32.665 60.1093 33.7475C59.228 34.2695 58.4665 34.8778 57.6091 35.443C57.4415 35.5579 55.8753 36.4009 55.8801 36.5877L55.6646 31.6832Z" fill="white"/>
<path d="M55.8801 36.808C55.817 36.8081 55.7562 36.7836 55.7107 36.7399C55.6652 36.6961 55.6383 36.6364 55.6358 36.5733L55.4155 31.7119C55.4155 31.391 55.8226 31.0844 56.7806 30.4666C56.9742 30.3474 57.1612 30.2179 57.3409 30.0786L59.2185 28.2634L60.1764 27.3055C60.479 26.9491 60.9015 26.7158 61.3642 26.6493C61.49 26.6394 61.6158 26.6696 61.7234 26.7355C61.9821 26.9127 62.0108 27.2719 61.7857 27.6551C61.5606 28.0383 61.3067 28.431 61.0672 28.8046C62.1018 28.182 63.1555 27.5737 64.2092 26.9941C64.3458 26.8943 64.5064 26.8324 64.6746 26.8147C64.8429 26.797 65.0128 26.8242 65.1671 26.8936C65.2625 26.9601 65.3425 27.0463 65.402 27.1462C65.4614 27.2461 65.4989 27.3576 65.512 27.4731C65.6163 28.2181 65.4461 28.9757 65.033 29.6045C63.9218 31.573 61.9916 32.8997 60.2434 33.9151C59.7166 34.2264 59.2424 34.5665 58.7443 34.9209C58.4186 35.1508 58.0977 35.3999 57.7576 35.6058C57.7193 35.6346 57.6092 35.6968 57.4607 35.7782C56.9963 36.0279 56.5497 36.3096 56.1244 36.6212C56.1089 36.6682 56.0796 36.7093 56.0403 36.7393C56.0009 36.7692 55.9534 36.7865 55.9041 36.7888L55.8801 36.808ZM55.9136 31.7023L56.1052 36.0129C56.3447 35.8501 56.6944 35.6441 57.2068 35.3472C57.3409 35.2753 57.4415 35.2179 57.4751 35.1939C57.8103 34.9736 58.1264 34.7485 58.433 34.5186C58.9119 34.1737 59.4244 33.8145 59.9656 33.4888C61.6516 32.4878 63.5147 31.209 64.5684 29.341C64.9235 28.8154 65.0782 28.1798 65.0043 27.5497C64.9982 27.4516 64.9554 27.3593 64.8845 27.2911C64.7648 27.2192 64.5062 27.3629 64.4056 27.406C62.9927 28.182 61.5845 29.0058 60.2243 29.8631C60.1749 29.894 60.1162 29.9067 60.0584 29.8988C60.0006 29.8909 59.9475 29.863 59.9082 29.82C59.8698 29.7763 59.8486 29.7201 59.8486 29.6619C59.8486 29.6038 59.8698 29.5476 59.9082 29.5039C60.4404 28.8367 60.9269 28.1342 61.3642 27.4013C61.4153 27.3206 61.445 27.2283 61.4504 27.133C61.4504 27.133 61.4504 27.133 61.4073 27.133C61.0725 27.2028 60.7726 27.3875 60.5595 27.6551L59.6016 28.613L57.7241 30.4283C57.5241 30.5936 57.3111 30.7426 57.0871 30.8737C56.6666 31.1096 56.2731 31.3906 55.9136 31.7119V31.7023Z" fill="#231F20"/>
<path d="M33.9486 25.2171C33.9486 25.2171 41.9616 31.8028 43.499 32.5643C45.0365 33.3259 56.4309 29.8774 56.4309 29.8774L59.4723 35.2465C59.4723 35.2465 47.6851 41.0946 42.9434 40.9126C38.2017 40.7306 32.2722 32.5691 32.2722 32.5691" fill="#68E1FD"/>
<path d="M59.5346 32.5596C59.4827 32.56 59.4322 32.5431 59.3909 32.5117C59.3379 32.4733 59.3022 32.4156 59.2915 32.3511C59.2807 32.2866 59.2958 32.2204 59.3334 32.1669C60.368 30.73 59.9225 29.8248 59.9034 29.7721C59.8805 29.7152 59.8794 29.652 59.9003 29.5944C59.9211 29.5368 59.9624 29.4889 60.0164 29.4599C60.0703 29.4308 60.133 29.4227 60.1926 29.437C60.2522 29.4513 60.3044 29.487 60.3392 29.5374C60.3392 29.5805 60.9619 30.7204 59.7357 32.4111C59.7183 32.4514 59.6905 32.4864 59.6551 32.5125C59.6198 32.5385 59.5782 32.5548 59.5346 32.5596Z" fill="#231F20"/>
<path d="M26.4958 20.9688C25.9552 20.9683 25.4238 20.8283 24.9531 20.5623C24.4824 20.2963 24.0883 19.9134 23.8089 19.4505C23.7907 19.4245 23.7779 19.3951 23.7713 19.3641C23.7646 19.3331 23.7641 19.301 23.7699 19.2698C23.7757 19.2386 23.7876 19.2089 23.805 19.1824C23.8224 19.1558 23.8449 19.133 23.8711 19.1152C23.9247 19.0803 23.9898 19.0678 24.0525 19.0803C24.1151 19.0928 24.1704 19.1294 24.2064 19.1823C24.5396 19.7382 25.0615 20.1559 25.677 20.359C26.2925 20.5621 26.9605 20.5371 27.5591 20.2887C27.6161 20.2671 27.6792 20.2681 27.7355 20.2914C27.7919 20.3148 27.8372 20.3587 27.8622 20.4143C27.8872 20.4699 27.8901 20.5329 27.8703 20.5905C27.8505 20.6482 27.8094 20.6961 27.7555 20.7245C27.3551 20.8857 26.9275 20.9686 26.4958 20.9688Z" fill="#231F20"/>
<path d="M34.8154 43.3313C34.7832 43.3283 34.752 43.319 34.7235 43.3039C34.695 43.2887 34.6698 43.2681 34.6493 43.2432C34.6288 43.2182 34.6134 43.1895 34.6041 43.1586C34.5948 43.1277 34.5917 43.0952 34.595 43.0631L35.8212 30.4569C35.8405 30.4055 35.8763 30.362 35.9229 30.333C35.9695 30.3041 36.0244 30.2913 36.0791 30.2968C36.1337 30.3023 36.185 30.3256 36.2249 30.3632C36.2649 30.4008 36.2914 30.4506 36.3001 30.5048L35.074 43.111C35.0657 43.1732 35.0347 43.2301 34.987 43.2708C34.9392 43.3115 34.8781 43.3331 34.8154 43.3313Z" fill="#231F20"/>
<path d="M20.9832 49.213L24.0054 34.734L37.4977 35.7686L33.7714 50.5876L20.9832 49.213Z" fill="white"/>
<path d="M33.7714 50.8367H33.7426L20.9544 49.4621C20.8862 49.452 20.8244 49.4159 20.782 49.3615C20.7613 49.3337 20.7468 49.3018 20.7393 49.2679C20.7319 49.2341 20.7318 49.199 20.7389 49.1651L23.7659 34.6862C23.7775 34.6274 23.8102 34.575 23.8579 34.5388C23.9056 34.5026 23.9649 34.4852 24.0246 34.4898L37.5168 35.5435C37.5526 35.5462 37.5874 35.5565 37.6188 35.5739C37.6503 35.5913 37.6775 35.6152 37.6988 35.6441C37.7201 35.6734 37.7346 35.7071 37.7412 35.7428C37.7478 35.7784 37.7464 35.815 37.7372 35.8501L34.0109 50.669C33.9937 50.7187 33.9613 50.7616 33.9183 50.7917C33.8753 50.8218 33.8239 50.8375 33.7714 50.8367ZM21.2801 48.9975L33.5846 50.3194L37.1864 35.9937L24.2018 34.9975L21.2801 48.9975Z" fill="#231F20"/>
<path d="M18.0425 42.5458C18.0425 42.5458 21.2659 40.3762 22.4297 39.9499C24.0103 39.3751 25.4711 39.2027 25.6771 40.0217C25.883 40.8407 25.2891 42.8955 24.6569 43.3744C24.0247 43.8534 22.6501 44.2653 21.8837 45.0125C21.1174 45.7597 18.0521 46.7176 18.0521 46.7176L18.0425 42.5458Z" fill="white"/>
<path d="M18.0422 46.9523C17.9778 46.9487 17.917 46.9212 17.8718 46.8751C17.8266 46.829 17.8003 46.7677 17.798 46.7032V42.5458C17.7967 42.5054 17.8057 42.4653 17.8241 42.4293C17.8426 42.3933 17.8698 42.3625 17.9033 42.3399C18.0374 42.2489 21.165 40.151 22.3481 39.72C23.1719 39.4134 24.6758 38.968 25.4565 39.3847C25.5738 39.4392 25.6776 39.519 25.7604 39.6184C25.8432 39.7178 25.903 39.8342 25.9355 39.9594C26.1558 40.8359 25.5715 42.9865 24.8243 43.5564C24.4753 43.796 24.103 43.9998 23.7131 44.1647C23.1123 44.4149 22.5534 44.7557 22.0559 45.1753C21.2513 45.956 18.2242 46.8996 18.1189 46.9379C18.0944 46.9473 18.0684 46.9522 18.0422 46.9523ZM18.2913 42.6751V46.3631C19.2875 46.0326 21.165 45.3382 21.7111 44.8209C22.2467 44.3645 22.8493 43.993 23.4976 43.7193C23.85 43.5658 24.1882 43.3815 24.5082 43.1685C25.0446 42.7566 25.6242 40.8264 25.4374 40.0792C25.4237 40.0231 25.3977 39.9708 25.3612 39.9261C25.3248 39.8813 25.2788 39.8453 25.2266 39.8205C24.786 39.5859 23.7897 39.7248 22.5157 40.1846C21.5099 40.5534 18.8613 42.2968 18.2913 42.6751Z" fill="#231F20"/>
<path d="M14.8142 25.2171C14.8142 25.2171 0 40.9174 0 47.8287C0 54.7401 18.5118 47.5174 18.5118 47.5174L18.8662 41.0611L9.43549 43.6858L18.5357 34.7484L14.8142 25.2171Z" fill="#68E1FD"/>
<path d="M7.2421 44.5384C7.1876 44.5391 7.13442 44.5216 7.09102 44.4886C7.04763 44.4556 7.01651 44.4091 7.00262 44.3564C6.99324 44.3252 6.99029 44.2925 6.99396 44.2602C6.99764 44.2279 7.00785 44.1967 7.02398 44.1684C7.04012 44.1402 7.06183 44.1156 7.0878 44.096C7.11377 44.0764 7.14346 44.0623 7.17505 44.0546L18.8042 40.8121C18.8356 40.8036 18.8684 40.8014 18.9007 40.8056C18.933 40.8097 18.9642 40.8203 18.9924 40.8365C19.0207 40.8527 19.0455 40.8744 19.0653 40.9002C19.0852 40.926 19.0998 40.9554 19.1083 40.9869C19.1168 41.0183 19.119 41.0512 19.1148 41.0835C19.1106 41.1158 19.1001 41.1469 19.0839 41.1752C19.0677 41.2034 19.046 41.2282 19.0202 41.2481C18.9944 41.2679 18.9649 41.2825 18.9335 41.291L7.28042 44.5384H7.2421Z" fill="#231F20"/>
<path d="M11.7681 42.3878C11.72 42.3874 11.6731 42.373 11.633 42.3465C11.5929 42.32 11.5613 42.2825 11.5421 42.2384C11.5228 42.1944 11.5167 42.1457 11.5246 42.0982C11.5324 42.0508 11.5538 42.0066 11.5861 41.9711L17.1181 35.9027C17.1644 35.8627 17.2237 35.8412 17.2849 35.8421C17.346 35.8431 17.4046 35.8665 17.4496 35.908C17.4946 35.9494 17.5228 36.0059 17.5288 36.0668C17.5347 36.1276 17.5181 36.1886 17.4821 36.238L11.9501 42.3064C11.927 42.3317 11.8989 42.3521 11.8676 42.3661C11.8363 42.3801 11.8024 42.3875 11.7681 42.3878Z" fill="#231F20"/>
<path d="M12.4002 103.833C12.2823 104.61 12.2662 105.399 12.3523 106.18C12.5104 107.191 24.2305 110.491 24.4317 108.331C24.6328 106.171 17.7263 103.024 17.7263 103.024C17.7263 103.024 13.6982 104.514 12.4002 103.833Z" fill="#231F20"/>
<path d="M22.6837 109.303C19.6567 109.303 12.2903 107.344 12.1131 106.238C12.0244 105.431 12.0421 104.616 12.1658 103.814C12.1704 103.777 12.1842 103.741 12.2059 103.71C12.2276 103.679 12.2566 103.654 12.2903 103.637C12.3247 103.621 12.3624 103.612 12.4005 103.612C12.4386 103.612 12.4763 103.621 12.5107 103.637C13.4973 104.15 16.5531 103.22 17.6451 102.818C17.7038 102.796 17.7684 102.796 17.8271 102.818C18.5503 103.149 24.8774 106.109 24.6666 108.364C24.6139 108.944 24.0153 109.255 22.8849 109.289L22.6837 109.303ZM12.6256 104.178C12.5451 104.838 12.5451 105.506 12.6256 106.166C12.9561 106.827 20.7679 109.27 23.5411 108.762C23.9769 108.681 24.2116 108.532 24.2308 108.326C24.3793 106.726 19.6903 104.202 17.7553 103.302C17.0512 103.522 14.0529 104.542 12.6017 104.159L12.6256 104.178Z" fill="#231F20"/>
<path d="M31.6688 102.789C31.6688 102.789 30.4618 105.352 31.6688 106.425C32.8757 107.498 43.9636 109.447 43.6954 107.9C43.4272 106.353 36.3769 102.263 36.3769 102.263C36.3769 102.263 33.1296 103.182 31.6688 102.789Z" fill="#231F20"/>
<path d="M41.8467 108.709C38.6233 108.709 32.4878 107.488 31.4916 106.602C30.1649 105.424 31.3815 102.799 31.4341 102.689C31.458 102.638 31.4989 102.598 31.5496 102.574C31.6004 102.55 31.6578 102.545 31.7119 102.559C33.1105 102.933 36.262 102.042 36.2908 102.033C36.3202 102.02 36.352 102.013 36.3842 102.013C36.4164 102.013 36.4482 102.02 36.4776 102.033C37.2104 102.459 43.6332 106.233 43.911 107.842C43.9336 107.963 43.9141 108.088 43.8557 108.196C43.7973 108.304 43.7035 108.389 43.5901 108.436C43.0357 108.653 42.4408 108.746 41.8467 108.709ZM31.7886 103.067C31.5539 103.637 30.9121 105.462 31.7886 106.243C32.8662 107.201 41.9329 108.819 43.3363 108.039C43.4273 107.986 43.4225 107.957 43.4225 107.943C43.2405 106.908 39.0017 104.111 36.3051 102.516C35.7831 102.665 33.235 103.326 31.7934 103.077L31.7886 103.067Z" fill="#231F20"/>
<path d="M32.6504 7.95545C33.0578 7.95545 33.388 7.62522 33.388 7.21785C33.388 6.81049 33.0578 6.48026 32.6504 6.48026C32.2431 6.48026 31.9128 6.81049 31.9128 7.21785C31.9128 7.62522 32.2431 7.95545 32.6504 7.95545Z" fill="#68E1FD"/>
<path d="M35.0455 7.95545C35.4528 7.95545 35.7831 7.62522 35.7831 7.21785C35.7831 6.81049 35.4528 6.48026 35.0455 6.48026C34.6381 6.48026 34.3079 6.81049 34.3079 7.21785C34.3079 7.62522 34.6381 7.95545 35.0455 7.95545Z" fill="#68E1FD"/>
<path d="M37.4402 7.95545C37.8476 7.95545 38.1778 7.62522 38.1778 7.21785C38.1778 6.81049 37.8476 6.48026 37.4402 6.48026C37.0329 6.48026 36.7026 6.81049 36.7026 7.21785C36.7026 7.62522 37.0329 7.95545 37.4402 7.95545Z" fill="#68E1FD"/>
<path d="M127.992 81.5905C127.992 81.5905 129.386 97.1328 131.187 103.833C131.498 104.988 135.497 105.055 136.522 104.389C137.547 103.723 135.751 82.6155 135.747 82.582L127.992 81.5905Z" fill="white"/>
<path d="M134.199 105.06C133.41 105.079 132.622 104.962 131.872 104.715C131.663 104.662 131.471 104.56 131.31 104.418C131.149 104.275 131.025 104.096 130.947 103.896C129.161 97.2526 127.762 81.7679 127.748 81.6146C127.745 81.5779 127.749 81.5409 127.762 81.5061C127.774 81.4714 127.794 81.4398 127.82 81.4135C127.847 81.3878 127.88 81.3685 127.915 81.3569C127.951 81.3453 127.989 81.3417 128.026 81.3464L135.775 82.3331C135.827 82.3392 135.875 82.3616 135.913 82.3969C135.951 82.4322 135.976 82.4786 135.986 82.5294C136.029 82.7258 137.902 103.795 136.657 104.595C135.888 104.949 135.044 105.108 134.199 105.06ZM128.27 81.878C128.476 84.0908 129.788 97.6837 131.421 103.771C131.469 103.944 131.69 104.116 132.044 104.25C133.304 104.729 135.708 104.619 136.388 104.178C137.121 103.22 135.79 85.6666 135.517 82.7976L128.27 81.878Z" fill="#231F20"/>
<path d="M113.92 80.1872L113.441 101.554C113.441 101.554 116.512 103.881 118.83 103.345L121.641 81.2745L113.92 80.1872Z" fill="white"/>
<path d="M118.102 103.675C115.865 103.675 113.413 101.836 113.312 101.76C113.282 101.735 113.257 101.703 113.24 101.668C113.224 101.632 113.216 101.593 113.216 101.554L113.695 80.1921C113.696 80.1574 113.704 80.1232 113.719 80.0918C113.734 80.0604 113.755 80.0326 113.782 80.0101C113.809 79.9877 113.84 79.971 113.874 79.9611C113.908 79.9512 113.943 79.9484 113.978 79.9526L121.68 81.0447C121.744 81.0542 121.802 81.0886 121.842 81.1405C121.881 81.1925 121.899 81.2578 121.89 81.3225L119.084 103.398C119.076 103.448 119.054 103.495 119.02 103.532C118.986 103.57 118.941 103.596 118.892 103.608C118.632 103.66 118.367 103.682 118.102 103.675ZM113.695 101.429C114.217 101.803 116.684 103.455 118.614 103.139L121.368 81.4853L114.184 80.4747L113.695 101.429Z" fill="#231F20"/>
<path d="M113.873 51.9719L111.789 86.5958C111.789 86.5958 130.468 91.2992 138.218 87.6399C138.218 87.6399 135.953 60.7416 131.45 52.1539L113.873 51.9719Z" fill="#231F20"/>
<path d="M129.807 89.2778C127.218 89.2506 124.633 89.0603 122.067 88.7079C118.59 88.2529 115.14 87.6134 111.731 86.792C111.677 86.7778 111.629 86.7452 111.596 86.6999C111.563 86.6545 111.546 86.5991 111.549 86.543L113.633 51.9191C113.636 51.8581 113.663 51.8008 113.708 51.7589C113.752 51.7171 113.811 51.6938 113.872 51.6939L131.45 51.8759C131.493 51.8768 131.536 51.8892 131.573 51.912C131.61 51.9347 131.64 51.9669 131.661 52.0053C136.139 60.5355 138.433 87.3141 138.457 87.5823C138.461 87.631 138.45 87.6798 138.425 87.7219C138.4 87.764 138.363 87.7972 138.318 87.817C136.311 88.8037 133.462 89.2778 129.807 89.2778ZM112.038 86.4041C114.025 86.883 130.717 90.7435 137.964 87.4817C137.763 85.2067 135.507 60.6074 131.301 52.3836L114.097 52.2064L112.038 86.4041Z" fill="#231F20"/>
<path d="M102.814 49.8692C102.814 49.8692 101.597 50.7026 100.711 50.602C99.8249 50.5015 97.8372 50.1758 97.7558 51.2438C97.6744 52.3119 99.9734 55.7556 99.9686 55.7892C99.9638 55.8227 105.271 52.6616 105.271 52.6616L102.814 49.8692Z" fill="white"/>
<path d="M99.9156 56.019C99.8903 56.0161 99.8658 56.008 99.8438 55.995C99.8049 55.9684 99.7735 55.9321 99.7528 55.8897C99.7528 55.8609 99.6953 55.7987 99.6378 55.7029C98.1674 53.3608 97.4729 51.8999 97.516 51.2294C97.5208 51.1039 97.5523 50.9808 97.6085 50.8685C97.6646 50.7561 97.7442 50.6571 97.8417 50.578C98.4404 50.099 99.7097 50.2379 100.553 50.3385L100.735 50.3625C101.53 50.4583 102.65 49.6776 102.679 49.6728C102.727 49.6382 102.786 49.623 102.845 49.6301C102.903 49.6372 102.957 49.6661 102.995 49.7111L105.452 52.5034C105.475 52.5305 105.492 52.5619 105.501 52.5957C105.511 52.6294 105.514 52.6649 105.51 52.6998C105.504 52.7343 105.49 52.767 105.47 52.7959C105.45 52.8248 105.425 52.8491 105.395 52.8674C100.768 55.6214 100.102 56.019 99.9156 56.019ZM99.202 50.7121C98.8319 50.6791 98.4605 50.761 98.1387 50.9468C98.0927 50.9847 98.0555 51.0322 98.0299 51.086C98.0042 51.1398 97.9907 51.1985 97.9902 51.2581C97.9902 51.6413 98.3015 52.695 100.035 55.449C100.72 55.0563 103.115 53.6338 104.882 52.5753L102.751 50.1517C102.363 50.3912 101.434 50.8989 100.663 50.8079H100.471C100.05 50.7504 99.6266 50.7184 99.202 50.7121Z" fill="#231F20"/>
<path d="M116.2 27.2527C116.2 27.2527 110.697 42.8092 108.858 43.6378C107.019 44.4664 101.554 49.189 101.554 49.189L104.657 53.9498C104.657 53.9498 111.243 49.8212 113.973 47.3689C116.703 44.9167 116.2 27.2527 116.2 27.2527Z" fill="#68E1FD"/>
<path d="M97.4044 47.0463L87.2393 52.6255L94.2656 65.4275L104.431 59.8484L97.4044 47.0463Z" fill="white"/>
<path d="M94.2689 65.6701C94.2451 65.6747 94.2207 65.6747 94.197 65.6701C94.1664 65.6618 94.1379 65.6474 94.1132 65.6276C94.0884 65.6078 94.0681 65.5831 94.0533 65.5551L87.0222 52.7525C86.9915 52.6947 86.9848 52.627 87.0037 52.5642C87.0225 52.5015 87.0653 52.4487 87.1228 52.4173L97.2863 46.823C97.3479 46.799 97.4163 46.799 97.4779 46.823C97.5086 46.8323 97.5372 46.8477 97.5619 46.8683C97.5866 46.8889 97.6069 46.9142 97.6216 46.9428L104.653 59.7453C104.683 59.8032 104.69 59.8709 104.671 59.9336C104.652 59.9964 104.61 60.0492 104.552 60.0806L94.4125 65.6413C94.3682 65.6638 94.3185 65.6737 94.2689 65.6701ZM87.5634 52.7382L94.3503 65.1097L104.083 59.7645L97.2959 47.3978L87.5634 52.7382Z" fill="#231F20"/>
<path d="M125.669 14.3735C126.728 15.4703 126.91 16.3612 127.274 17.7693C127.634 19.072 128.141 20.33 128.783 21.5195C130.047 23.9622 131.632 26.2469 132.614 28.838C132.977 29.7073 133.163 30.6404 133.16 31.5825C133.097 32.442 132.831 33.2743 132.383 34.0105C131.935 34.7468 131.318 35.3658 130.583 35.8165C129.095 36.7042 127.36 37.0904 125.636 36.9181C124.971 36.8952 124.318 36.732 123.72 36.4391C123.051 36.0368 122.498 35.4673 122.115 34.7867C121.235 33.2393 120.661 31.5367 120.425 29.772C120.166 28.2729 119.946 26.721 118.772 25.6051C117.905 24.7765 116.684 24.4651 115.669 23.8281C114.868 23.3043 114.205 22.5958 113.736 21.7623C113.267 20.9287 113.005 19.9946 112.972 19.0385C112.915 17.185 113.738 15.9157 114.696 14.4405C115.175 13.7221 116.449 12.2469 117.206 13.7173C116.885 13.0994 118.226 12.1272 118.667 11.9978C119.62 11.8216 120.601 11.8543 121.541 12.0936C123.113 12.4253 124.551 13.2192 125.669 14.3735Z" fill="white"/>
<path d="M126.354 37.1671C126.105 37.1671 125.875 37.1671 125.602 37.1384C124.905 37.1065 124.222 36.9321 123.595 36.6259C122.891 36.2084 122.309 35.6119 121.909 34.8969C121.017 33.3214 120.433 31.5902 120.19 29.796L120.166 29.6523C119.922 28.2393 119.687 26.7785 118.6 25.7535C118.056 25.2876 117.44 24.9139 116.775 24.6472C116.349 24.459 115.934 24.2447 115.534 24.0053C114.698 23.4623 114.007 22.7245 113.519 21.8552C113.031 20.9859 112.761 20.0111 112.733 19.0146C112.675 17.0988 113.513 15.8056 114.481 14.3112C114.658 14.043 115.515 12.7977 116.397 12.8456C116.62 12.854 116.832 12.9424 116.995 13.0947C117.362 12.4922 117.913 12.0236 118.566 11.7584C119.557 11.5712 120.577 11.6022 121.555 11.8494C123.176 12.1962 124.655 13.0203 125.803 14.2154C126.847 15.2931 127.082 16.2127 127.408 17.4867L127.465 17.7118C127.823 18.9966 128.324 20.237 128.96 21.4094C129.386 22.2428 129.86 23.0666 130.32 23.8665C131.276 25.4257 132.101 27.0613 132.787 28.7566C133.163 29.6526 133.353 30.6155 133.347 31.5873C133.283 32.4823 133.006 33.3491 132.54 34.1156C132.073 34.882 131.43 35.526 130.665 35.9937C129.367 36.7832 127.873 37.1899 126.354 37.1671ZM116.368 13.2862C115.889 13.2862 115.257 13.9281 114.859 14.5315C113.901 15.9684 113.116 17.2281 113.173 19.005C113.197 19.9293 113.445 20.8339 113.897 21.6408C114.348 22.4477 114.989 23.1326 115.764 23.6365C116.152 23.8658 116.552 24.0737 116.962 24.2592C117.669 24.5439 118.325 24.9436 118.902 25.4422C120.08 26.5678 120.338 28.1004 120.597 29.5804L120.621 29.7289C120.856 31.4649 121.419 33.1405 122.278 34.667C122.64 35.3171 123.167 35.8606 123.806 36.2427C124.376 36.5272 124.999 36.6903 125.636 36.7217C127.314 36.8874 129 36.5114 130.449 35.6488C131.155 35.2186 131.749 34.6261 132.18 33.9206C132.612 33.215 132.869 32.4168 132.93 31.5921C132.932 30.679 132.749 29.775 132.394 28.9338C131.717 27.2603 130.903 25.6455 129.961 24.1059C129.482 23.3061 129.003 22.4727 128.591 21.6345C127.936 20.4272 127.423 19.1477 127.063 17.822L127.005 17.6017C126.685 16.3468 126.474 15.523 125.511 14.522C124.421 13.3919 123.019 12.6131 121.483 12.2852C120.793 12.1415 119.519 11.9404 118.71 12.1799C118.168 12.4148 117.711 12.8112 117.402 13.315C117.331 13.4874 117.374 13.5688 117.402 13.5928C117.428 13.6451 117.432 13.7052 117.414 13.7605C117.396 13.8159 117.358 13.8622 117.307 13.8897C117.254 13.9152 117.194 13.9195 117.139 13.9016C117.083 13.8838 117.037 13.8452 117.01 13.7939C116.842 13.4635 116.646 13.315 116.416 13.2862H116.368Z" fill="#231F20"/>
<path d="M132.901 53.38C132.844 53.8972 122.039 53.6817 121.267 53.6242C119.28 53.4806 115.448 53.4327 113.872 51.9718C112.766 50.9469 113.872 48.8442 113.973 47.369C114.067 45.0245 113.969 42.6761 113.681 40.3475C113.378 37.344 113.499 34.3129 114.04 31.3431C114.39 29.4272 114.797 28.0431 116.2 27.2528C118.422 26.0027 121.708 25.3992 124.266 25.2124C125.501 25.1214 130.727 27.794 131.881 30.2606C133.036 32.7273 132.906 53.0351 132.901 53.38Z" fill="#68E1FD"/>
<path d="M114.308 42.7278C114.258 42.7285 114.208 42.713 114.167 42.6838C114.126 42.6545 114.095 42.6129 114.078 42.565C111.942 36.1661 114.505 28.6368 114.529 28.5602C114.55 28.5005 114.595 28.4519 114.652 28.4249C114.71 28.398 114.775 28.395 114.835 28.4165C114.895 28.4372 114.943 28.4805 114.971 28.537C114.999 28.5934 115.003 28.6586 114.984 28.7183C114.96 28.7949 112.445 36.1709 114.533 42.4117C114.544 42.4415 114.548 42.4732 114.546 42.5047C114.544 42.5363 114.535 42.567 114.521 42.5952C114.507 42.6234 114.487 42.6484 114.463 42.6687C114.438 42.689 114.41 42.7042 114.38 42.7135C114.357 42.7228 114.333 42.7277 114.308 42.7278Z" fill="#231F20"/>
<path d="M123.72 29.796C123.72 29.796 120.291 36.171 119.409 38.9729C118.528 41.7748 116.502 46.4494 116.502 46.4494C116.502 46.4494 115.496 36.2045 118.83 27.8227L123.72 29.796Z" fill="#231F20"/>
<path d="M116.483 46.6458H116.444C116.398 46.6386 116.356 46.6164 116.324 46.5826C116.292 46.5488 116.272 46.5053 116.267 46.459C116.267 46.3584 115.309 36.0656 118.614 27.7317C118.624 27.706 118.638 27.6826 118.657 27.6629C118.676 27.6431 118.699 27.6274 118.724 27.6167C118.776 27.5954 118.835 27.5954 118.887 27.6167L123.796 29.5901C123.824 29.6007 123.849 29.6171 123.869 29.6382C123.89 29.6592 123.906 29.6845 123.916 29.7122C123.926 29.7398 123.93 29.7693 123.927 29.7987C123.925 29.828 123.916 29.8565 123.902 29.8822C123.868 29.9493 120.472 36.2763 119.591 39.0303C118.71 41.7843 116.717 46.4734 116.674 46.5212C116.658 46.5586 116.631 46.5904 116.597 46.6125C116.563 46.6347 116.523 46.6462 116.483 46.6458ZM118.93 28.0813C116.291 34.8778 116.483 42.9291 116.631 45.5394C117.244 44.0786 118.523 40.9605 119.189 38.8962C120.008 36.3577 122.819 31.0269 123.423 29.887L118.93 28.0813Z" fill="#231F20"/>
<path d="M118.217 26.29L118.906 29.9301C118.906 29.9301 119.716 32.7128 121.469 32.0614C122.209 31.7839 122.885 31.3565 123.453 30.8059C124.02 30.2554 124.468 29.5936 124.769 28.862L124.151 21.51C123.753 20.2371 123.552 18.9112 123.552 17.5777C122.346 17.5931 121.152 17.3274 120.065 16.8018C119.634 16.6054 117.297 15.7481 117.431 15.1494C117.101 16.6389 116.727 18.2051 115.693 19.3307C115.535 19.4778 115.407 19.6533 115.314 19.848C115.271 20.0037 115.256 20.166 115.271 20.3269C115.295 21.8788 115.271 23.3971 115.64 24.9106C116.143 26.8743 118.217 26.29 118.217 26.29Z" fill="white"/>
<path d="M120.947 32.3824C120.705 32.3809 120.468 32.3235 120.252 32.2147C119.198 31.6831 118.715 30.0594 118.696 29.9924L118.039 26.5486C117.475 26.654 116.892 26.5681 116.382 26.3044C116.138 26.1556 115.926 25.958 115.762 25.724C115.597 25.49 115.482 25.2245 115.424 24.9441C115.141 23.6339 115.018 22.2943 115.055 20.9544V20.3078C115.036 20.111 115.065 19.9125 115.14 19.7296C115.215 19.5467 115.334 19.385 115.487 19.2589L115.539 19.2014C116.564 18.0854 116.919 16.5097 117.225 15.1159C117.238 15.0587 117.273 15.0089 117.322 14.9775C117.372 14.9461 117.431 14.9355 117.489 14.9483C117.546 14.961 117.596 14.9958 117.627 15.0452C117.658 15.0947 117.669 15.1545 117.656 15.2117C117.656 15.2883 117.747 15.6092 119.859 16.4905C119.994 16.5432 120.099 16.5863 120.166 16.6198C121.221 17.1159 122.377 17.3634 123.543 17.343C123.601 17.3416 123.657 17.3621 123.701 17.4005C123.722 17.4203 123.738 17.4441 123.75 17.4704C123.761 17.4967 123.767 17.5251 123.768 17.5538C123.761 18.7538 123.932 19.9482 124.275 21.0981C124.32 21.2186 124.351 21.344 124.366 21.4717C124.366 21.5339 124.989 28.8237 124.989 28.8237C124.994 28.8538 124.994 28.8846 124.989 28.9147C124.684 29.6825 124.221 30.3776 123.63 30.9552C123.04 31.5327 122.334 31.9798 121.56 32.2674C121.364 32.3432 121.156 32.3822 120.947 32.3824ZM119.122 29.8918C119.122 29.8918 119.567 31.3765 120.449 31.8076C120.596 31.8835 120.758 31.9262 120.923 31.9328C121.089 31.9395 121.254 31.9098 121.406 31.8459C122.105 31.5805 122.743 31.1774 123.283 30.6607C123.822 30.1441 124.253 29.5242 124.548 28.8381C123.931 21.5244 123.931 21.5291 123.931 21.5148C123.913 21.4254 123.889 21.3374 123.859 21.2514C123.524 20.1384 123.349 18.984 123.337 17.822C122.175 17.7977 121.032 17.525 119.984 17.0221L119.692 16.8976C118.921 16.6252 118.193 16.2429 117.532 15.7625C117.235 17.0221 116.823 18.4542 115.865 19.4984L115.807 19.5606C115.693 19.6476 115.604 19.7638 115.55 19.8969C115.496 20.0301 115.479 20.1753 115.501 20.3174V20.9688C115.461 22.2731 115.58 23.5775 115.855 24.8531C115.899 25.0762 115.989 25.2879 116.118 25.475C116.248 25.662 116.414 25.8204 116.607 25.9404C117.09 26.1751 117.639 26.2311 118.159 26.0984C118.189 26.0892 118.22 26.0865 118.25 26.0907C118.281 26.0948 118.31 26.1056 118.336 26.1224C118.386 26.156 118.42 26.2075 118.432 26.266L119.127 29.9109L119.122 29.8918Z" fill="#231F20"/>
<path d="M118.686 28.771C119.621 28.459 120.46 27.9094 121.119 27.1761C121.421 26.8685 121.653 26.4989 121.799 26.0928C121.944 25.6868 122 25.254 121.962 24.8244C120.853 25.6138 119.567 26.1172 118.217 26.29L118.686 28.771Z" fill="#231F20"/>
<path d="M118.686 28.9817C118.647 28.982 118.609 28.972 118.576 28.953C118.55 28.9376 118.528 28.9168 118.512 28.8919C118.495 28.8671 118.484 28.8389 118.48 28.8093L118.001 26.3283C117.996 26.2989 117.998 26.2688 118.005 26.24C118.013 26.2111 118.026 26.1841 118.044 26.1607C118.062 26.1367 118.085 26.1171 118.112 26.103C118.138 26.0889 118.168 26.0808 118.197 26.0792C119.508 25.9026 120.756 25.4094 121.833 24.6424C121.862 24.6214 121.896 24.6078 121.932 24.6028C121.968 24.5978 122.005 24.6015 122.039 24.6136C122.072 24.6272 122.101 24.6488 122.123 24.6764C122.146 24.7039 122.161 24.7367 122.168 24.7717C122.213 25.2331 122.156 25.6987 122.001 26.1357C121.847 26.5727 121.598 26.9703 121.272 27.3006C120.585 28.0635 119.712 28.636 118.739 28.9626L118.686 28.9817ZM118.466 26.4768L118.849 28.4932C119.654 28.182 120.376 27.6905 120.961 27.0563C121.431 26.5588 121.715 25.9142 121.766 25.2315C120.769 25.8805 119.643 26.3054 118.466 26.4768Z" fill="#231F20"/>
<path d="M118.748 18.8422C118.748 18.8422 117.474 20.9448 117.814 21.2849C118.154 21.6249 119.055 21.3519 119.055 21.3519" fill="white"/>
<path d="M118.36 21.6536C118.101 21.6713 117.846 21.589 117.646 21.4237C117.268 21.0453 117.934 19.7426 118.552 18.7176C118.581 18.6699 118.628 18.6357 118.683 18.6223C118.738 18.6088 118.795 18.6173 118.844 18.6458C118.868 18.66 118.889 18.679 118.906 18.7015C118.922 18.724 118.934 18.7496 118.941 18.7768C118.948 18.804 118.949 18.8322 118.945 18.8599C118.94 18.8876 118.93 18.9141 118.916 18.9379C118.326 19.8958 117.876 20.94 117.958 21.1363C118.135 21.3088 118.724 21.213 118.978 21.1363C119.03 21.1223 119.086 21.1292 119.134 21.1555C119.182 21.1819 119.217 21.2256 119.234 21.2776C119.25 21.3297 119.245 21.3859 119.221 21.4346C119.196 21.4832 119.154 21.5205 119.102 21.5387C118.861 21.6105 118.612 21.6492 118.36 21.6536Z" fill="#231F20"/>
<path d="M116.645 20.3174C116.775 20.3168 116.879 20.119 116.878 19.8756C116.876 19.6323 116.77 19.4355 116.641 19.4361C116.511 19.4368 116.407 19.6346 116.408 19.8779C116.409 20.1213 116.515 20.318 116.645 20.3174Z" fill="#231F20"/>
<path d="M120.484 19.815C120.613 19.8144 120.718 19.6166 120.716 19.3732C120.715 19.1299 120.609 18.9331 120.48 18.9338C120.35 18.9344 120.246 19.1322 120.247 19.3755C120.248 19.6189 120.354 19.8157 120.484 19.815Z" fill="#231F20"/>
<path d="M122.633 19.393C122.887 18.6314 123.821 18.3153 124.549 18.435C124.788 18.4632 125.014 18.5621 125.198 18.719C125.381 18.8759 125.514 19.0839 125.578 19.3163C125.652 19.6042 125.668 19.9035 125.626 20.1976C125.561 20.7456 125.399 21.2776 125.147 21.7686C125.035 22.0196 124.863 22.2385 124.644 22.4056C124.504 22.5035 124.337 22.5559 124.165 22.5559C123.994 22.5559 123.827 22.5035 123.687 22.4056" fill="white"/>
<path d="M124.228 22.7552C124.006 22.7496 123.791 22.6834 123.605 22.5636C123.555 22.5325 123.52 22.483 123.507 22.426C123.494 22.3689 123.504 22.309 123.536 22.2595C123.567 22.21 123.616 22.1748 123.673 22.1618C123.73 22.1488 123.79 22.1589 123.84 22.1901C123.944 22.2628 124.067 22.3018 124.194 22.3018C124.321 22.3018 124.445 22.2628 124.549 22.1901C124.733 22.0416 124.879 21.8511 124.975 21.6345C125.209 21.1664 125.358 20.6604 125.415 20.1401C125.455 19.8749 125.44 19.6044 125.372 19.345C125.32 19.1522 125.21 18.9796 125.058 18.8497C124.906 18.7199 124.719 18.6388 124.52 18.617C123.873 18.5212 123.049 18.8038 122.843 19.436C122.836 19.4656 122.823 19.4933 122.804 19.5174C122.786 19.5415 122.762 19.5616 122.736 19.5763C122.709 19.5909 122.68 19.5999 122.65 19.6027C122.619 19.6055 122.589 19.6019 122.56 19.5923C122.531 19.5827 122.504 19.5672 122.482 19.5468C122.459 19.5264 122.441 19.5016 122.429 19.4739C122.416 19.4461 122.41 19.4161 122.409 19.3857C122.409 19.3553 122.415 19.3251 122.427 19.2971C122.709 18.4398 123.749 18.0566 124.587 18.186C124.872 18.2233 125.14 18.3455 125.355 18.5368C125.571 18.7281 125.723 18.9796 125.794 19.2588C125.875 19.5714 125.894 19.8967 125.851 20.2167C125.793 20.789 125.631 21.3457 125.372 21.8596C125.247 22.145 125.05 22.3938 124.802 22.5828C124.633 22.6971 124.432 22.7573 124.228 22.7552Z" fill="#231F20"/>
<path d="M103.991 41.612L104.686 41.2384C104.86 41.1045 104.975 40.9079 105.006 40.6905C105.038 40.4731 104.983 40.2521 104.854 40.0745L99.4701 30.0978C99.3884 29.8923 99.2316 29.7254 99.0315 29.6312C98.8314 29.5369 98.6029 29.5222 98.3924 29.5901L97.6979 29.9589C97.5236 30.0937 97.4085 30.2911 97.3772 30.5093C97.346 30.7274 97.4008 30.9492 97.5303 31.1276L102.938 41.0995C103.016 41.302 103.169 41.4672 103.364 41.5623C103.56 41.6573 103.784 41.675 103.991 41.612Z" fill="white"/>
<path d="M103.747 41.9137C103.53 41.899 103.321 41.8264 103.142 41.7034C102.962 41.5804 102.819 41.4116 102.727 41.2144L97.3198 31.2329C97.1545 30.9424 97.1081 30.599 97.1905 30.275C97.2541 30.0704 97.395 29.8985 97.5832 29.7961L98.2825 29.4273C98.5421 29.3204 98.8332 29.3186 99.0941 29.4223C99.3551 29.5259 99.5655 29.7269 99.6811 29.9829L105.089 39.9596C105.175 40.1079 105.231 40.272 105.253 40.4422C105.275 40.6125 105.263 40.7855 105.218 40.951C105.187 41.0528 105.137 41.1476 105.069 41.2298C105.002 41.312 104.919 41.38 104.825 41.43L104.126 41.8036C104.011 41.8718 103.881 41.9098 103.747 41.9137ZM98.6561 29.7673C98.6046 29.7658 98.5535 29.7774 98.5076 29.8009L97.8083 30.1744C97.7287 30.2208 97.6703 30.2964 97.6455 30.3852C97.596 30.5989 97.6302 30.8234 97.7413 31.0126L103.149 40.9893C103.331 41.3294 103.676 41.5162 103.896 41.3964L104.595 41.0276C104.635 41.0043 104.67 40.9732 104.698 40.9362C104.726 40.8992 104.747 40.857 104.758 40.8121C104.807 40.6 104.773 40.377 104.662 40.1895L99.2596 30.2128C99.2048 30.0936 99.1208 29.9902 99.0152 29.9123C98.9097 29.8344 98.7861 29.7845 98.6561 29.7673Z" fill="#231F20"/>
<path d="M98.2393 31.5106L92.9229 21.7303L93.9478 21.1843" fill="#231F20"/>
<path d="M98.2441 31.7501C98.2009 31.7508 98.1584 31.7395 98.1212 31.7175C98.084 31.6955 98.0536 31.6637 98.0334 31.6256L92.7169 21.8404C92.693 21.7821 92.693 21.7168 92.7169 21.6584C92.7371 21.5971 92.7799 21.5457 92.8367 21.5148L93.8569 20.9735C93.913 20.9442 93.9783 20.9377 94.0391 20.9556C94.0998 20.9735 94.1513 21.0142 94.1826 21.0693C94.1975 21.0973 94.2068 21.1279 94.2099 21.1595C94.2129 21.191 94.2097 21.2229 94.2003 21.2532C94.191 21.2835 94.1757 21.3116 94.1554 21.336C94.1351 21.3603 94.1101 21.3804 94.082 21.395L93.2725 21.8261L98.474 31.4053C98.4892 31.4329 98.4988 31.4633 98.5021 31.4947C98.5055 31.526 98.5027 31.5577 98.4938 31.588C98.4849 31.6183 98.4701 31.6465 98.4503 31.671C98.4304 31.6955 98.406 31.7159 98.3782 31.731C98.3361 31.7494 98.2897 31.756 98.2441 31.7501Z" fill="#231F20"/>
<path d="M99.3395 30.9323C101.501 29.7143 102.03 26.556 100.521 23.8782C99.0125 21.2003 96.0369 20.0168 93.8752 21.2349C91.7136 22.4529 91.1844 25.6112 92.6933 28.2891C94.2022 30.9669 97.1778 32.1504 99.3395 30.9323Z" fill="#231F20"/>
<path d="M97.4825 31.64C95.5667 31.64 93.5647 30.3947 92.4295 28.2873C91.599 26.8349 91.3785 25.1124 91.8165 23.4977C91.9665 22.9603 92.2221 22.4583 92.5683 22.0208C92.9145 21.5833 93.3444 21.2191 93.8329 20.9496C96.1367 19.7187 99.2547 21.0119 100.783 23.8234C101.611 25.2764 101.83 26.9989 101.391 28.613C101.242 29.1513 100.986 29.6544 100.64 30.0928C100.294 30.5311 99.8635 30.896 99.3744 31.1658C98.7922 31.4765 98.1425 31.6393 97.4825 31.64ZM92.8462 28.0717C94.2496 30.6533 97.0802 31.8603 99.1493 30.7539C99.5839 30.5155 99.9661 30.1921 100.273 29.8029C100.58 29.4136 100.805 28.9666 100.936 28.4884C101.333 26.9997 101.126 25.4145 100.361 24.0772C98.9577 21.4956 96.1271 20.2934 94.058 21.395C93.6234 21.6328 93.2416 21.9561 92.9353 22.3455C92.6291 22.7348 92.4049 23.1822 92.2763 23.6605C91.8773 25.1486 92.0821 26.734 92.8462 28.0717Z" fill="#231F20"/>
<path d="M98.3124 31.4801C100.474 30.2621 101.003 27.1038 99.4943 24.4259C97.9854 21.7481 95.0098 20.5646 92.8481 21.7826C90.6865 23.0007 90.1573 26.159 91.6662 28.8368C93.1751 31.5147 96.1507 32.6982 98.3124 31.4801Z" fill="white"/>
<path d="M96.4574 32.1909C94.5416 32.1909 92.5395 30.9408 91.4044 28.8381C90.5739 27.3858 90.3534 25.6633 90.7913 24.0486C90.9413 23.5099 91.1974 23.0067 91.5445 22.5683C91.8916 22.1299 92.3227 21.7653 92.8125 21.4957C95.1163 20.2696 98.2295 21.5628 99.7574 24.3695C100.585 25.8227 100.806 27.5441 100.37 29.159C100.219 29.6966 99.9629 30.1987 99.6159 30.6361C99.2689 31.0736 98.8383 31.4376 98.3493 31.7071C97.7687 32.0231 97.1184 32.1894 96.4574 32.1909ZM94.7092 21.534C94.1265 21.5305 93.552 21.672 93.0376 21.9459C92.6019 22.1828 92.2188 22.5057 91.9117 22.8952C91.6046 23.2846 91.3798 23.7324 91.2511 24.2114C90.8541 25.7001 91.0607 27.2853 91.8259 28.6226C93.2292 31.2042 96.0551 32.4064 98.1242 31.3048C98.5593 31.0671 98.9418 30.7438 99.2488 30.3545C99.5558 29.9652 99.781 29.5178 99.9107 29.0393C100.308 27.5506 100.101 25.9654 99.3359 24.6281C98.287 22.6883 96.443 21.5292 94.7092 21.5292V21.534Z" fill="#231F20"/>
<path d="M97.4754 29.9947C98.9757 29.1493 99.3434 26.9582 98.2968 25.1008C97.2501 23.2433 95.1855 22.4228 93.6852 23.2682C92.185 24.1135 91.8172 26.3046 92.8638 28.1621C93.9105 30.0195 95.9751 30.84 97.4754 29.9947Z" fill="white"/>
<path d="M96.1892 30.5527C95.4397 30.5109 94.7147 30.2713 94.0879 29.8582C93.4611 29.4451 92.9549 28.8733 92.621 28.201C92.0418 27.1837 91.887 25.9791 92.1899 24.8483C92.2974 24.4657 92.4797 24.1083 92.7264 23.7967C92.973 23.4851 93.2791 23.2255 93.6268 23.0331C95.26 22.1661 97.4585 23.0762 98.5409 25.059C99.118 26.0771 99.2728 27.2809 98.972 28.4118C98.8644 28.7937 98.682 29.1505 98.4353 29.4613C98.1886 29.7721 97.8826 30.0307 97.5351 30.2222C97.1211 30.443 96.6584 30.5566 96.1892 30.5527ZM94.9775 23.1624C94.5852 23.1614 94.1987 23.2568 93.8519 23.4402C93.5583 23.5999 93.3003 23.8177 93.0936 24.0804C92.8869 24.3431 92.7359 24.6451 92.6497 24.968C92.3777 25.9816 92.5189 27.0616 93.0425 27.9711C94.0004 29.7241 95.9162 30.5479 97.31 29.8007C97.6036 29.641 97.8616 29.4232 98.0683 29.1605C98.275 28.8978 98.426 28.5958 98.5122 28.2729C98.6471 27.771 98.6819 27.2475 98.6145 26.7323C98.5472 26.217 98.3789 25.72 98.1194 25.2698C97.8275 24.6731 97.3833 24.164 96.8316 23.794C96.2799 23.4239 95.6403 23.2061 94.9775 23.1624Z" fill="#231F20"/>
<path d="M105.007 37.7516L109.002 41.2528L105.304 44.2894C103.57 41.3294 103.245 39.3369 102.43 39.2794C101.271 39.198 99.8344 38.9921 99.4895 37.9479C99.2218 37.3236 99.1663 36.6287 99.3315 35.9698C99.3588 35.8509 99.4108 35.7392 99.4843 35.6418C99.5578 35.5444 99.6509 35.4636 99.7577 35.4047C99.8915 35.3663 100.032 35.3565 100.17 35.3759C100.941 35.419 102.325 35.5963 102.387 35.5627C102.665 35.3951 102.866 35.2131 102.79 34.897C103.8 35.5915 104.035 37.0092 105.007 37.7516Z" fill="white"/>
<path d="M105.304 44.5287H105.266C105.231 44.5234 105.198 44.5102 105.169 44.4903C105.14 44.4705 105.116 44.4443 105.098 44.4138C104.507 43.3925 103.978 42.3369 103.513 41.2527C103.067 40.2612 102.741 39.5428 102.416 39.5188C101.07 39.4278 99.6426 39.174 99.2643 38.0293C98.9748 37.3565 98.9191 36.606 99.1062 35.8979C99.1235 35.7775 99.165 35.6619 99.2281 35.558C99.2913 35.4542 99.3749 35.3641 99.4738 35.2934C99.5727 35.2227 99.6849 35.1728 99.8037 35.1466C99.9224 35.1204 100.045 35.1186 100.165 35.1411C100.543 35.1411 101.032 35.213 101.463 35.2561C101.803 35.2896 102.176 35.3279 102.31 35.3327C102.55 35.1795 102.583 35.0837 102.555 34.9496C102.545 34.9028 102.55 34.8542 102.568 34.81C102.586 34.7657 102.616 34.7276 102.655 34.7005C102.695 34.6737 102.742 34.6594 102.789 34.6594C102.837 34.6594 102.884 34.6737 102.923 34.7005C103.441 35.1113 103.858 35.6336 104.145 36.2284C104.387 36.7354 104.729 37.1882 105.151 37.5599L109.145 41.0659C109.171 41.0884 109.192 41.1163 109.206 41.1478C109.22 41.1792 109.227 41.2134 109.227 41.2479C109.227 41.2827 109.219 41.3171 109.204 41.3486C109.189 41.3801 109.167 41.4078 109.14 41.4299L105.443 44.4665C105.404 44.5012 105.356 44.523 105.304 44.5287ZM99.9971 35.6057C99.9464 35.6027 99.8957 35.6109 99.8486 35.6297C99.7049 35.6824 99.6187 35.8835 99.5564 36.0512C99.4101 36.6609 99.4673 37.3018 99.7193 37.876C100.011 38.7573 101.329 38.9584 102.449 39.0399C103.062 39.083 103.407 39.8254 103.948 41.0515C104.376 42.0344 104.855 42.9937 105.385 43.9252L108.647 41.2479L104.854 37.9383C104.384 37.5284 104.001 37.0284 103.728 36.4679C103.52 36.0647 103.26 35.6896 102.957 35.3519C102.849 35.5287 102.693 35.6714 102.507 35.7638C102.416 35.8213 102.387 35.826 101.415 35.7255C100.993 35.6824 100.51 35.6345 100.155 35.6153L99.9971 35.6057Z" fill="#231F20"/>
<path d="M124.663 33.5511C121.416 37.3827 116.205 43.3218 116.205 43.3218L105.96 37.536L101.257 41.4778C101.257 41.4778 111.458 52.7094 116.966 51.6605C122.684 49.2402 127.56 45.1845 130.981 40.0026" fill="#68E1FD"/>
<path d="M116.229 51.9574C110.52 51.9574 101.482 42.0813 101.08 41.6406C101.058 41.6167 101.041 41.5887 101.031 41.5583C101.02 41.5278 101.015 41.4956 101.017 41.4634C101.021 41.4291 101.031 41.396 101.049 41.3662C101.066 41.3365 101.09 41.3108 101.118 41.291L105.816 37.3492C105.853 37.317 105.9 37.2969 105.948 37.2918C105.997 37.2867 106.046 37.2967 106.089 37.3204L116.148 43.0105C116.967 42.0765 121.545 36.8558 124.472 33.3882C124.513 33.3393 124.572 33.3088 124.636 33.3034C124.7 33.298 124.763 33.3182 124.812 33.3594C124.861 33.4007 124.891 33.4597 124.897 33.5235C124.902 33.5873 124.882 33.6506 124.841 33.6995C121.627 37.5024 116.43 43.4128 116.377 43.475C116.341 43.5158 116.291 43.5427 116.237 43.5514C116.183 43.5602 116.128 43.5501 116.08 43.5229L105.974 37.8233L101.597 41.5017C102.947 42.9386 111.985 52.3645 116.923 51.421C122.57 48.9963 127.385 44.9763 130.78 39.8541C130.796 39.8272 130.818 39.804 130.844 39.7857C130.87 39.7675 130.899 39.7546 130.93 39.7479C130.961 39.7412 130.992 39.7408 131.023 39.7467C131.054 39.7526 131.084 39.7647 131.11 39.7823C131.164 39.8166 131.201 39.8707 131.214 39.9327C131.228 39.9946 131.216 40.0594 131.182 40.1128C127.719 45.3266 122.806 49.4126 117.048 51.8664C116.778 51.9214 116.504 51.9518 116.229 51.9574Z" fill="#231F20"/>
<path d="M117.465 22.9134L119.16 22.559C119.16 22.559 119.553 25.4327 118.595 25.1693C117.637 24.9059 117.465 22.9134 117.465 22.9134Z" fill="white"/>
<path d="M118.705 25.3992C118.651 25.4058 118.596 25.4058 118.542 25.3992C117.469 25.1262 117.273 23.1768 117.254 22.9565C117.248 22.9047 117.262 22.8527 117.293 22.811C117.324 22.7692 117.37 22.7408 117.421 22.7314L119.117 22.3769C119.146 22.3705 119.175 22.3702 119.204 22.3759C119.233 22.3817 119.26 22.3935 119.284 22.4105C119.308 22.4275 119.327 22.4489 119.342 22.4736C119.357 22.4983 119.367 22.5257 119.371 22.5542C119.419 22.9182 119.644 24.7717 119.074 25.2794C118.97 25.3644 118.839 25.4071 118.705 25.3992ZM117.694 23.0906C117.781 23.6941 118.049 24.8244 118.652 24.9729C118.674 24.986 118.699 24.9929 118.724 24.9929C118.749 24.9929 118.774 24.986 118.796 24.9729C119.064 24.7334 119.069 23.6558 118.983 22.8463L117.694 23.0906Z" fill="#231F20"/>
<path d="M99.9444 50.6355C99.557 50.5917 99.1648 50.6254 98.7907 50.7348C98.4165 50.8442 98.0679 51.027 97.7651 51.2725C97.7293 51.2972 97.6997 51.33 97.6789 51.3683C97.6669 51.4089 97.6669 51.4522 97.6789 51.4928C97.7118 51.6025 97.7736 51.7014 97.8579 51.7789C97.9422 51.8565 98.0458 51.9099 98.1579 51.9335C98.3903 51.971 98.6278 51.9629 98.8571 51.9095L100.184 51.694C100.152 51.7939 100.145 51.8998 100.163 52.0031C100.18 52.1063 100.222 52.2039 100.284 52.2879C100.413 52.4555 100.576 52.5929 100.763 52.6902C101.025 52.8397 101.305 52.9541 101.597 53.0303" fill="white"/>
<path d="M101.597 53.265H101.535C101.221 53.1838 100.92 53.0614 100.639 52.901C100.42 52.7848 100.231 52.6211 100.083 52.4221C99.9899 52.2919 99.9306 52.1404 99.9109 51.9814L98.8955 52.1491C98.6346 52.2 98.3662 52.2 98.1052 52.1491C97.9432 52.1188 97.7929 52.0434 97.6718 51.9315C97.5506 51.8197 97.4635 51.676 97.4203 51.5168C97.3915 51.4298 97.3915 51.3357 97.4203 51.2486C97.4545 51.1702 97.5091 51.1024 97.5784 51.0523C97.9075 50.7863 98.2861 50.5885 98.6922 50.4701C99.0984 50.3517 99.524 50.3151 99.9444 50.3626C99.9798 50.3612 100.015 50.3675 100.048 50.381C100.08 50.3945 100.11 50.415 100.134 50.441C100.158 50.4669 100.176 50.4978 100.186 50.5314C100.197 50.5651 100.201 50.6006 100.197 50.6357C100.192 50.6708 100.181 50.7046 100.162 50.7347C100.144 50.7648 100.119 50.7905 100.089 50.8101C100.06 50.8296 100.026 50.8426 99.9916 50.848C99.9566 50.8534 99.9209 50.8512 99.887 50.8415C99.5319 50.8012 99.1724 50.8321 98.8295 50.9325C98.4865 51.0328 98.167 51.2005 97.8897 51.4258C97.9177 51.4866 97.9603 51.5395 98.0139 51.5796C98.0674 51.6198 98.1301 51.6459 98.1962 51.6557C98.3991 51.6816 98.605 51.6719 98.8045 51.627L100.131 51.4115C100.174 51.4038 100.218 51.4077 100.258 51.4229C100.299 51.4381 100.334 51.4639 100.361 51.4977C100.388 51.5315 100.406 51.5719 100.413 51.6147C100.419 51.6576 100.415 51.7014 100.399 51.742C100.383 51.8049 100.381 51.8707 100.393 51.9346C100.406 51.9985 100.432 52.0587 100.471 52.1107C100.579 52.2469 100.714 52.3581 100.869 52.4364C101.112 52.5772 101.373 52.6835 101.645 52.7526C101.707 52.7705 101.761 52.8118 101.794 52.868C101.827 52.9242 101.837 52.9909 101.822 53.0543C101.814 53.11 101.788 53.1613 101.747 53.1997C101.706 53.2381 101.653 53.2611 101.597 53.265Z" fill="#231F20"/>
<path d="M118.839 103.345C118.839 103.345 119.318 106.468 118.911 106.669C118.504 106.87 105.893 107.732 106.3 106.089C106.52 105.198 109.471 103.287 113.451 101.554C114.653 103.556 117.905 103.158 118.839 103.345Z" fill="#231F20"/>
<path d="M111.564 107.316C108.623 107.316 106.851 107.086 106.295 106.626C106.203 106.56 106.133 106.469 106.092 106.363C106.052 106.257 106.045 106.142 106.07 106.032C106.362 104.863 110.05 102.775 113.36 101.333C113.413 101.31 113.473 101.307 113.529 101.324C113.585 101.342 113.632 101.379 113.662 101.429C114.538 102.895 116.603 102.981 117.972 103.038C118.293 103.04 118.613 103.064 118.93 103.11C118.978 103.121 119.021 103.146 119.055 103.182C119.088 103.218 119.11 103.263 119.117 103.311C119.63 106.611 119.194 106.817 119.055 106.884C118.763 107.023 115.649 107.239 113.111 107.296C112.536 107.306 112.033 107.316 111.564 107.316ZM113.355 101.855C109.298 103.642 106.702 105.433 106.525 106.166C106.525 106.166 106.525 106.209 106.568 106.257C107.684 107.296 117.881 106.674 118.777 106.477C118.906 106.19 118.806 104.806 118.629 103.575C118.447 103.575 118.202 103.546 117.934 103.537C116.607 103.46 114.419 103.369 113.355 101.855Z" fill="#231F20"/>
<path d="M131.187 103.833L131.517 107.43C132.81 108.316 143.826 110.065 142.84 108.609C141.853 107.153 136.68 103.225 136.68 103.225C135.899 103.801 134.98 104.16 134.015 104.267C133.051 104.374 132.075 104.224 131.187 103.833Z" fill="#231F20"/>
<path d="M141.322 109.394C138.271 109.394 132.255 108.226 131.383 107.627C131.353 107.608 131.327 107.582 131.309 107.551C131.291 107.52 131.28 107.485 131.278 107.45L130.947 103.857C130.943 103.816 130.949 103.775 130.966 103.737C130.983 103.699 131.01 103.666 131.043 103.642C131.076 103.616 131.115 103.6 131.157 103.595C131.198 103.59 131.24 103.596 131.278 103.613C132.128 103.992 133.064 104.139 133.989 104.039C134.914 103.939 135.797 103.595 136.546 103.043C136.588 103.008 136.641 102.989 136.695 102.989C136.749 102.989 136.802 103.008 136.843 103.043C137.054 103.206 142.054 107.014 143.07 108.484C143.138 108.574 143.172 108.684 143.167 108.796C143.161 108.908 143.117 109.015 143.041 109.097C142.787 109.303 142.169 109.394 141.322 109.394ZM131.742 107.287C133.352 108.187 142.15 109.385 142.672 108.724C141.777 107.45 137.524 104.15 136.681 103.503C135.926 104.022 135.059 104.353 134.151 104.469C133.243 104.584 132.32 104.482 131.46 104.169L131.742 107.287Z" fill="#231F20"/>
<path d="M73.3238 55.2719H45.6304V79.0666H73.3238V55.2719Z" fill="white"/>
<path d="M73.3383 79.3155H45.6305C45.5657 79.3155 45.5036 79.2898 45.4578 79.244C45.412 79.1982 45.3862 79.1361 45.3862 79.0713V55.2718C45.3862 55.207 45.412 55.1449 45.4578 55.0991C45.5036 55.0533 45.5657 55.0275 45.6305 55.0275H73.3383C73.3707 55.0269 73.403 55.0328 73.4332 55.0447C73.4634 55.0567 73.4909 55.0746 73.5141 55.0974C73.5373 55.1201 73.5557 55.1473 73.5683 55.1772C73.5809 55.2072 73.5873 55.2393 73.5873 55.2718V79.0713C73.5873 79.1038 73.5809 79.1359 73.5683 79.1659C73.5557 79.1958 73.5373 79.223 73.5141 79.2457C73.4909 79.2685 73.4634 79.2864 73.4332 79.2983C73.403 79.3103 73.3707 79.3162 73.3383 79.3155ZM45.8939 78.8366H73.094V55.5209H45.8796L45.8939 78.8366Z" fill="#231F20"/>
<path d="M68.4383 75.642H49.6391C49.6088 75.6426 49.5786 75.6371 49.5504 75.6258C49.5222 75.6145 49.4966 75.5976 49.4751 75.5761C49.4536 75.5546 49.4367 75.529 49.4254 75.5008C49.4141 75.4726 49.4086 75.4424 49.4092 75.4121V59.8363C49.4086 59.8059 49.4141 59.7758 49.4254 59.7476C49.4367 59.7194 49.4536 59.6938 49.4751 59.6723C49.4966 59.6508 49.5222 59.6339 49.5504 59.6226C49.5786 59.6113 49.6088 59.6058 49.6391 59.6064C49.7001 59.6064 49.7586 59.6306 49.8017 59.6738C49.8448 59.7169 49.869 59.7753 49.869 59.8363V75.163H68.4383C68.4992 75.163 68.5577 75.1872 68.6008 75.2303C68.6439 75.2735 68.6682 75.3319 68.6682 75.3929C68.6716 75.4248 68.6682 75.4571 68.6581 75.4876C68.648 75.5181 68.6315 75.546 68.6098 75.5696C68.588 75.5932 68.5614 75.6119 68.5318 75.6243C68.5023 75.6368 68.4704 75.6428 68.4383 75.642Z" fill="#D1D3D4"/>
<path d="M51.4356 74.3009C51.4004 74.3 51.3659 74.2914 51.3345 74.2756C51.303 74.2599 51.2754 74.2375 51.2536 74.2098C51.217 74.1615 51.201 74.1006 51.2091 74.0405C51.2172 73.9804 51.2486 73.9259 51.2967 73.8889L67.3801 61.5318C67.4285 61.4952 67.4894 61.4792 67.5495 61.4873C67.6096 61.4954 67.6641 61.5269 67.701 61.5749C67.737 61.6231 67.7531 61.6833 67.7459 61.743C67.7388 61.8027 67.709 61.8574 67.6627 61.8958L51.5745 74.253C51.5347 74.2837 51.4859 74.3005 51.4356 74.3009Z" fill="#D1D3D4"/>
<path d="M67.1118 64.1805H67.0687C67.0091 64.1689 66.9565 64.1342 66.9224 64.0839C66.8883 64.0337 66.8755 63.9719 66.8867 63.9123L67.2603 61.9294L64.9517 61.8096C64.9215 61.8084 64.8919 61.8012 64.8644 61.7885C64.837 61.7758 64.8124 61.7578 64.7919 61.7356C64.7715 61.7133 64.7556 61.6873 64.7452 61.6589C64.7348 61.6305 64.7301 61.6004 64.7314 61.5702C64.7363 61.5092 64.7643 61.4524 64.8097 61.4114C64.8552 61.3705 64.9145 61.3484 64.9757 61.3498L67.5477 61.4887C67.5803 61.4895 67.6124 61.4976 67.6414 61.5125C67.6705 61.5275 67.6957 61.5488 67.7153 61.575C67.7349 61.6006 67.7488 61.63 67.7562 61.6614C67.7637 61.6927 67.7644 61.7253 67.7584 61.757L67.3369 63.9937C67.3261 64.0457 67.2979 64.0925 67.2571 64.1265C67.2162 64.1604 67.165 64.1794 67.1118 64.1805Z" fill="#D1D3D4"/>
</svg>
