<svg width="28" height="29" viewBox="0 0 28 29" fill="none" xmlns="http://www.w3.org/2000/svg">
<path d="M26.8999 18.5531L24.853 16.8031C24.9499 16.2094 24.9999 15.6031 24.9999 14.9969C24.9999 14.3906 24.9499 13.7844 24.853 13.1906L26.8999 11.4406C27.0543 11.3084 27.1648 11.1324 27.2167 10.9359C27.2686 10.7394 27.2595 10.5318 27.1905 10.3406L27.1624 10.2594C26.5989 8.68444 25.7551 7.22447 24.6718 5.94999L24.6155 5.88437C24.4841 5.72984 24.309 5.61876 24.1131 5.56576C23.9173 5.51277 23.7101 5.52034 23.5187 5.58749L20.978 6.49061C20.0405 5.72187 18.9937 5.11562 17.8624 4.69062L17.3718 2.03437C17.3348 1.8345 17.2378 1.65063 17.0938 1.50718C16.9498 1.36372 16.7655 1.26748 16.5655 1.23125L16.4812 1.21562C14.853 0.92187 13.1405 0.92187 11.5124 1.21562L11.428 1.23125C11.228 1.26748 11.0438 1.36372 10.8998 1.50718C10.7558 1.65063 10.6588 1.8345 10.6218 2.03437L10.128 4.70312C9.00581 5.1282 7.96074 5.73413 7.03428 6.49686L4.47491 5.58749C4.28355 5.51981 4.07613 5.51196 3.88021 5.56499C3.68428 5.61802 3.50913 5.72941 3.37803 5.88437L3.32178 5.94999C2.23974 7.22538 1.39608 8.6851 0.831159 10.2594L0.803034 10.3406C0.662409 10.7312 0.778034 11.1687 1.09366 11.4406L3.16553 13.2094C3.06866 13.7969 3.02178 14.3969 3.02178 14.9937C3.02178 15.5937 3.06866 16.1937 3.16553 16.7781L1.09366 18.5469C0.93927 18.679 0.828773 18.8551 0.776859 19.0515C0.724945 19.248 0.734074 19.4557 0.803034 19.6469L0.831159 19.7281C1.39678 21.3031 2.23428 22.7562 3.32178 24.0375L3.37803 24.1031C3.50945 24.2576 3.68461 24.3687 3.88042 24.4217C4.07622 24.4747 4.28349 24.4671 4.47491 24.4L7.03428 23.4906C7.96553 24.2562 9.00616 24.8625 10.128 25.2843L10.6218 27.9531C10.6588 28.153 10.7558 28.3368 10.8998 28.4803C11.0438 28.6237 11.228 28.72 11.428 28.7562L11.5124 28.7718C13.1555 29.0672 14.8381 29.0672 16.4812 28.7718L16.5655 28.7562C16.7655 28.72 16.9498 28.6237 17.0938 28.4803C17.2378 28.3368 17.3348 28.153 17.3718 27.9531L17.8624 25.2968C18.9932 24.873 20.046 24.2647 20.978 23.4968L23.5187 24.4C23.71 24.4677 23.9174 24.4755 24.1134 24.4225C24.3093 24.3694 24.4844 24.2581 24.6155 24.1031L24.6718 24.0375C25.7593 22.7531 26.5968 21.3031 27.1624 19.7281L27.1905 19.6469C27.3312 19.2625 27.2155 18.825 26.8999 18.5531ZM22.6343 13.5594C22.7124 14.0312 22.753 14.5156 22.753 15C22.753 15.4844 22.7124 15.9687 22.6343 16.4406L22.428 17.6937L24.7624 19.6906C24.4085 20.5059 23.9618 21.2776 23.4312 21.9906L20.5312 20.9625L19.5499 21.7687C18.803 22.3812 17.9718 22.8625 17.0718 23.2L15.8812 23.6468L15.3218 26.6781C14.4392 26.7781 13.5481 26.7781 12.6655 26.6781L12.1062 23.6406L10.9249 23.1875C10.0343 22.85 9.20616 22.3687 8.46553 21.7593L7.48428 20.95L4.56553 21.9875C4.03428 21.2719 3.59053 20.5 3.23428 19.6875L5.59366 17.6719L5.39053 16.4219C5.31553 15.9562 5.27491 15.475 5.27491 15C5.27491 14.5219 5.31241 14.0437 5.39053 13.5781L5.59366 12.3281L3.23428 10.3125C3.58741 9.49686 4.03428 8.72811 4.56553 8.01249L7.48428 9.04999L8.46553 8.24061C9.20616 7.63124 10.0343 7.14999 10.9249 6.81249L12.1093 6.36561L12.6687 3.32812C13.5468 3.22812 14.4437 3.22812 15.3249 3.32812L15.8843 6.35936L17.0749 6.80624C17.9718 7.14374 18.8062 7.62499 19.553 8.23749L20.5343 9.04374L23.4343 8.01561C23.9655 8.73124 24.4093 9.50311 24.7655 10.3156L22.4312 12.3125L22.6343 13.5594ZM13.9999 9.18749C10.9624 9.18749 8.49991 11.65 8.49991 14.6875C8.49991 17.725 10.9624 20.1875 13.9999 20.1875C17.0374 20.1875 19.4999 17.725 19.4999 14.6875C19.4999 11.65 17.0374 9.18749 13.9999 9.18749ZM16.4749 17.1625C16.1503 17.488 15.7645 17.7462 15.3397 17.9221C14.915 18.098 14.4596 18.1882 13.9999 18.1875C13.0655 18.1875 12.1874 17.8219 11.5249 17.1625C11.1994 16.8379 10.9412 16.4521 10.7653 16.0273C10.5894 15.6026 10.4992 15.1472 10.4999 14.6875C10.4999 13.7531 10.8655 12.875 11.5249 12.2125C12.1874 11.55 13.0655 11.1875 13.9999 11.1875C14.9343 11.1875 15.8124 11.55 16.4749 12.2125C16.8005 12.5371 17.0586 12.9229 17.2345 13.3476C17.4104 13.7724 17.5006 14.2277 17.4999 14.6875C17.4999 15.6219 17.1343 16.5 16.4749 17.1625Z" fill="#ADA9A9"/>
</svg>
