<svg width="339" height="306" viewBox="0 0 339 306" fill="none" xmlns="http://www.w3.org/2000/svg">
<g clip-path="url(#clip0)">
<path d="M83.9922 77.4722C78.1631 60.0477 60.1623 50.3634 48.3203 54.3249C36.4783 58.2864 27.9283 76.8528 33.7574 94.2774C39.1529 110.406 55.5022 119.717 66.7492 118.055C66.6681 118.196 66.6147 118.352 66.5919 118.513L66.248 121.381C66.2218 121.6 66.2519 121.822 66.3355 122.025C66.4191 122.229 66.5533 122.408 66.7256 122.545C66.8978 122.683 67.1022 122.774 67.3195 122.81C67.5367 122.846 67.7596 122.825 67.9669 122.751L73.7604 120.674C73.9677 120.599 74.1526 120.473 74.2975 120.307C74.4424 120.142 74.5424 119.941 74.5882 119.726C74.634 119.511 74.6239 119.287 74.559 119.077C74.4941 118.866 74.3764 118.676 74.2172 118.524L72.1289 116.527C72.0546 116.459 71.9726 116.401 71.8845 116.352C81.9159 110.946 89.3994 93.6358 83.9922 77.4722Z" fill="#F2F2F2"/>
<path d="M62.8899 64.6529C67.7307 67.1512 71.4276 71.4127 73.2175 76.5577C75.0073 81.7027 74.7535 87.3386 72.5084 92.3019C72.0071 93.4431 73.8506 94.0433 74.3486 92.9095C76.7058 87.5392 76.9456 81.4763 75.0198 75.9366C73.0941 70.3969 69.1452 65.79 63.9651 63.0399C62.8717 62.4605 61.7885 64.0692 62.8899 64.6529Z" fill="white"/>
<path d="M319.99 52.0738C314.161 34.6492 296.16 24.9649 284.318 28.9264C272.476 32.888 263.926 51.4544 269.755 68.8789C275.151 85.0075 291.5 94.3185 302.747 92.6569C302.666 92.798 302.613 92.9533 302.59 93.1144L302.246 95.9827C302.22 96.2014 302.25 96.4231 302.334 96.6269C302.417 96.8306 302.551 97.0096 302.724 97.1469C302.896 97.2841 303.1 97.3751 303.318 97.4111C303.535 97.4471 303.758 97.427 303.965 97.3527L309.758 95.2753C309.966 95.201 310.151 95.0749 310.296 94.909C310.44 94.7432 310.54 94.543 310.586 94.3276C310.632 94.1122 310.622 93.8886 310.557 93.6782C310.492 93.4677 310.374 93.2774 310.215 93.1252L308.127 91.129C308.053 91.061 307.971 91.0021 307.883 90.9533C317.914 85.5474 325.397 68.2374 319.99 52.0738Z" fill="#F2F2F2"/>
<path d="M298.889 39.2535C303.73 41.7518 307.427 46.0133 309.216 51.1583C311.006 56.3033 310.752 61.9392 308.507 66.9025C308.006 68.0437 309.85 68.6439 310.348 67.5101C312.705 62.1398 312.945 56.0768 311.019 50.5371C309.093 44.9974 305.144 40.3906 299.964 37.6405C298.871 37.0611 297.788 38.6698 298.889 39.2535Z" fill="white"/>
<path d="M182.942 24.0288C177.113 6.60429 159.112 -3.08001 147.271 0.881528C135.429 4.84306 126.878 23.4095 132.708 40.834C138.103 56.9626 154.452 66.2736 165.699 64.612C165.618 64.7531 165.565 64.9083 165.542 65.0694L165.198 67.9378C165.172 68.1565 165.202 68.3782 165.286 68.5819C165.369 68.7857 165.504 68.9647 165.676 69.1019C165.848 69.2392 166.052 69.3301 166.27 69.3662C166.487 69.4022 166.71 69.3821 166.917 69.3078L172.711 67.2304C172.918 67.1561 173.103 67.03 173.248 66.8641C173.393 66.6982 173.493 66.4981 173.538 66.2827C173.584 66.0672 173.574 65.8437 173.509 65.6333C173.444 65.4228 173.327 65.2325 173.167 65.0803L171.079 63.084C171.005 63.0161 170.923 62.9571 170.835 62.9084C180.866 57.5024 188.35 40.1925 182.942 24.0288Z" fill="#F2F2F2"/>
<path d="M161.841 11.2095C166.682 13.7078 170.379 17.9693 172.169 23.1144C173.958 28.2594 173.705 33.8952 171.46 38.8585C170.958 39.9998 172.802 40.5999 173.3 39.4662C175.657 34.0958 175.897 28.0329 173.971 22.4932C172.045 16.9535 168.096 12.3467 162.916 9.59654C161.823 9.01716 160.74 10.6258 161.841 11.2095Z" fill="white"/>
<path d="M153.707 107.872C154.474 107.872 155.096 107.25 155.096 106.483C155.096 105.716 154.474 105.095 153.707 105.095C152.94 105.095 152.318 105.716 152.318 106.483C152.318 107.25 152.94 107.872 153.707 107.872Z" fill="#CCCCCC"/>
<path d="M150.747 163.58C152.262 163.58 153.491 162.352 153.491 160.837C153.491 159.322 152.262 158.094 150.747 158.094C149.232 158.094 148.004 159.322 148.004 160.837C148.004 162.352 149.232 163.58 150.747 163.58Z" fill="#CCCCCC"/>
<path d="M104.821 153.017C105.696 153.017 106.406 152.307 106.406 151.432C106.406 150.556 105.696 149.847 104.821 149.847C103.945 149.847 103.235 150.556 103.235 151.432C103.235 152.307 103.945 153.017 104.821 153.017Z" fill="#CCCCCC"/>
<path d="M128.903 127.06C129.851 127.06 130.62 126.292 130.62 125.344C130.62 124.396 129.851 123.627 128.903 123.627C127.955 123.627 127.187 124.396 127.187 125.344C127.187 126.292 127.955 127.06 128.903 127.06Z" fill="#CCCCCC"/>
<path d="M213.378 227.569C214.145 227.569 214.767 226.948 214.767 226.181C214.767 225.414 214.145 224.792 213.378 224.792C212.611 224.792 211.989 225.414 211.989 226.181C211.989 226.948 212.611 227.569 213.378 227.569Z" fill="#CCCCCC"/>
<path d="M167.898 199.015C169.413 199.015 170.641 197.787 170.641 196.272C170.641 194.757 169.413 193.528 167.898 193.528C166.383 193.528 165.154 194.757 165.154 196.272C165.154 197.787 166.383 199.015 167.898 199.015Z" fill="#CCCCCC"/>
<path d="M199.137 162.901C200.012 162.901 200.722 162.191 200.722 161.316C200.722 160.44 200.012 159.73 199.137 159.73C198.261 159.73 197.552 160.44 197.552 161.316C197.552 162.191 198.261 162.901 199.137 162.901Z" fill="#CCCCCC"/>
<path d="M209.562 196.972C210.511 196.972 211.279 196.204 211.279 195.256C211.279 194.308 210.511 193.539 209.562 193.539C208.614 193.539 207.846 194.308 207.846 195.256C207.846 196.204 208.614 196.972 209.562 196.972Z" fill="#CCCCCC"/>
<path d="M302.029 285.39C303.543 284.121 301.496 279.182 297.456 274.357C293.417 269.532 288.914 266.648 287.399 267.917C285.884 269.185 287.931 274.124 291.971 278.949C296.011 283.774 300.514 286.658 302.029 285.39Z" fill="#2F2E41"/>
<path d="M270.475 295.485C283.061 295.485 293.264 285.282 293.264 272.696C293.264 260.11 283.061 249.907 270.475 249.907C257.889 249.907 247.687 260.11 247.687 272.696C247.687 285.282 257.889 295.485 270.475 295.485Z" fill="#2F2E41"/>
<path d="M280.121 290.581H273.198V302.985H280.121V290.581Z" fill="#2F2E41"/>
<path d="M266.275 290.581H259.352V302.985H266.275V290.581Z" fill="#2F2E41"/>
<path d="M274.352 305.293C277.539 305.293 280.122 304.324 280.122 303.129C280.122 301.934 277.539 300.966 274.352 300.966C271.166 300.966 268.583 301.934 268.583 303.129C268.583 304.324 271.166 305.293 274.352 305.293Z" fill="#2F2E41"/>
<path d="M260.505 305.005C263.691 305.005 266.274 304.036 266.274 302.841C266.274 301.646 263.691 300.678 260.505 300.678C257.318 300.678 254.735 301.646 254.735 302.841C254.735 304.036 257.318 305.005 260.505 305.005Z" fill="#2F2E41"/>
<path d="M263.319 244.05C265.354 235.855 274.336 231.033 283.382 233.279C292.427 235.525 298.11 243.989 296.075 252.184C294.04 260.378 287.289 260.405 278.244 258.159C269.199 255.913 261.284 252.245 263.319 244.05Z" fill="#E6E6E6"/>
<path d="M255.103 267.005C255.949 265.22 252.026 261.587 246.34 258.891C240.655 256.194 235.359 255.455 234.512 257.24C233.666 259.025 237.589 262.658 243.275 265.355C248.961 268.051 254.256 268.79 255.103 267.005Z" fill="#2F2E41"/>
<path d="M267.068 275.486C271.265 275.486 274.666 272.084 274.666 267.888C274.666 263.692 271.265 260.29 267.068 260.29C262.872 260.29 259.471 263.692 259.471 267.888C259.471 272.084 262.872 275.486 267.068 275.486Z" fill="white"/>
<path d="M263.946 267.696C265.344 267.696 266.478 266.562 266.478 265.163C266.478 263.765 265.344 262.631 263.946 262.631C262.547 262.631 261.413 263.765 261.413 265.163C261.413 266.562 262.547 267.696 263.946 267.696Z" fill="#3F3D56"/>
<path d="M271.834 283.717C271.953 284.372 271.942 285.043 271.802 285.693C271.662 286.343 271.394 286.96 271.016 287.507C270.637 288.054 270.155 288.521 269.596 288.881C269.037 289.242 268.412 289.489 267.758 289.608C267.104 289.727 266.432 289.716 265.782 289.575C265.132 289.435 264.515 289.168 263.969 288.79C263.422 288.411 262.954 287.929 262.594 287.37C262.233 286.81 261.987 286.186 261.867 285.532L261.866 285.522C261.367 282.769 263.496 281.795 266.248 281.297C269.001 280.798 271.336 280.965 271.834 283.717Z" fill="white"/>
<path d="M83.1189 256.764C85.3657 250.886 85.6911 245.549 83.8457 244.844C82.0004 244.138 78.6831 248.332 76.4363 254.21C74.1895 260.088 73.8641 265.425 75.7095 266.131C77.5548 266.836 80.8721 262.642 83.1189 256.764Z" fill="#2F2E41"/>
<path d="M58.7136 295.485C71.2996 295.485 81.5025 285.282 81.5025 272.696C81.5025 260.11 71.2996 249.907 58.7136 249.907C46.1277 249.907 35.9248 260.11 35.9248 272.696C35.9248 285.282 46.1277 295.485 58.7136 295.485Z" fill="#2F2E41"/>
<path d="M55.2523 290.581H48.3291V302.985H55.2523V290.581Z" fill="#2F2E41"/>
<path d="M69.098 290.581H62.1748V302.985H69.098V290.581Z" fill="#2F2E41"/>
<path d="M54.0984 305.293C57.2847 305.293 59.8678 304.324 59.8678 303.129C59.8678 301.934 57.2847 300.966 54.0984 300.966C50.9121 300.966 48.3291 301.934 48.3291 303.129C48.3291 304.324 50.9121 305.293 54.0984 305.293Z" fill="#2F2E41"/>
<path d="M67.9441 305.005C71.1305 305.005 73.7135 304.036 73.7135 302.841C73.7135 301.646 71.1305 300.678 67.9441 300.678C64.7578 300.678 62.1748 301.646 62.1748 302.841C62.1748 304.036 64.7578 305.005 67.9441 305.005Z" fill="#2F2E41"/>
<path d="M59.2905 274.715C63.5921 274.715 67.0791 271.228 67.0791 266.926C67.0791 262.625 63.5921 259.138 59.2905 259.138C54.989 259.138 51.502 262.625 51.502 266.926C51.502 271.228 54.989 274.715 59.2905 274.715Z" fill="white"/>
<path d="M59.2896 269.522C60.7234 269.522 61.8858 268.36 61.8858 266.926C61.8858 265.492 60.7234 264.33 59.2896 264.33C57.8557 264.33 56.6934 265.492 56.6934 266.926C56.6934 268.36 57.8557 269.522 59.2896 269.522Z" fill="#3F3D56"/>
<path d="M36.6074 251.503C34.7673 243.262 40.6494 234.935 49.7453 232.904C58.8413 230.873 67.7067 235.907 69.5468 244.148C71.3869 252.389 65.3587 255.428 56.2627 257.459C47.1668 259.49 38.4475 259.744 36.6074 251.503Z" fill="#E6E6E6"/>
<path d="M43.341 267.005C44.1876 265.22 40.2646 261.587 34.5787 258.891C28.8928 256.194 23.5972 255.455 22.7506 257.24C21.9041 259.025 25.8271 262.658 31.513 265.355C37.1988 268.051 42.4944 268.79 43.341 267.005Z" fill="#2F2E41"/>
<path d="M47.5195 280.917C47.5195 283.147 53.2625 287.551 59.6351 287.551C66.0078 287.551 71.9828 281.272 71.9828 279.042C71.9828 276.811 66.0077 279.474 59.6351 279.474C53.2625 279.474 47.5195 278.686 47.5195 280.917Z" fill="white"/>
<path d="M167.569 273.79C180.155 273.79 190.358 263.587 190.358 251.001C190.358 238.415 180.155 228.212 167.569 228.212C154.983 228.212 144.78 238.415 144.78 251.001C144.78 263.587 154.983 273.79 167.569 273.79Z" fill="#2F2E41"/>
<path d="M164.107 268.886H157.184V281.29H164.107V268.886Z" fill="#2F2E41"/>
<path d="M177.953 268.886H171.03V281.29H177.953V268.886Z" fill="#2F2E41"/>
<path d="M162.953 283.598C166.139 283.598 168.722 282.629 168.722 281.434C168.722 280.239 166.139 279.271 162.953 279.271C159.767 279.271 157.184 280.239 157.184 281.434C157.184 282.629 159.767 283.598 162.953 283.598Z" fill="#2F2E41"/>
<path d="M176.8 283.309C179.986 283.309 182.569 282.341 182.569 281.146C182.569 279.951 179.986 278.982 176.8 278.982C173.613 278.982 171.03 279.951 171.03 281.146C171.03 282.341 173.613 283.309 176.8 283.309Z" fill="#2F2E41"/>
<path d="M145.462 229.808C143.622 221.567 149.504 213.24 158.6 211.209C167.696 209.178 176.561 214.212 178.401 222.453C180.241 230.693 174.213 233.733 165.117 235.764C156.021 237.795 147.302 238.048 145.462 229.808Z" fill="#8BE8FE"/>
<path d="M192.125 241.043C197.061 236.103 199.805 230.844 198.254 229.294C196.704 227.745 191.446 230.493 186.51 235.432C181.575 240.371 178.831 245.631 180.382 247.18C181.932 248.73 187.19 245.982 192.125 241.043Z" fill="#2F2E41"/>
<path d="M149.199 248.768C150.75 247.219 148.006 241.959 143.071 237.02C138.135 232.081 132.878 229.333 131.327 230.882C129.776 232.432 132.52 237.691 137.456 242.631C142.391 247.57 147.649 250.318 149.199 248.768Z" fill="#2F2E41"/>
<path d="M306.114 106.369C305.357 83.0017 289.353 64.5575 270.367 65.1722C228.114 66.4242 227.082 143.909 267.877 149.475L267.013 156.341L279.612 155.933L278.306 149.138C294.717 145.511 306.8 127.553 306.114 106.369Z" fill="#C5F3FE"/>
<path d="M249.355 119.325L244.596 119.479C242.73 110.608 242.434 101.479 243.722 92.5066L248.482 92.3525C246.724 101.745 247.015 110.736 249.355 119.325Z" fill="white"/>
<path d="M280.23 149.031L265.95 149.493L266.053 152.666L280.332 152.204L280.23 149.031Z" fill="#3F3D56"/>
<path d="M238.754 270.537L237.316 269.864L272.67 149.975L274.107 150.648L238.754 270.537Z" fill="#3F3D56"/>
<path d="M335.375 126.129C344.008 104.402 336.697 81.103 319.044 74.0881C279.803 58.3697 247.927 129.002 283.109 150.39L279.576 156.34L291.291 160.995L292.806 154.243C309.301 157.468 327.547 145.827 335.375 126.129Z" fill="#0FB80B"/>
<path d="M278.162 115.351L273.736 113.592C275.566 104.714 278.939 96.2263 283.702 88.5137L288.128 90.2723C282.767 98.1823 279.445 106.542 278.162 115.351Z" fill="white"/>
<path d="M281.336 149.636L280.163 152.587L293.44 157.863L294.613 154.912L281.336 149.636Z" fill="#3F3D56"/>
<path d="M238.475 267.382L237.096 266.597L286.453 153.959L287.833 154.744L238.475 267.382Z" fill="#3F3D56"/>
<path d="M67.0913 107.879C57.7504 86.4469 36.0616 75.2254 18.6482 82.8149C-20.1495 99.5982 7.53575 171.976 47.4982 162.067L49.2338 168.766L60.7899 163.729L57.0642 157.898C70.9716 148.461 75.56 127.309 67.0913 107.879Z" fill="#0FB80B"/>
<path d="M19.143 140.898L14.7773 142.801C9.76446 135.248 6.11509 126.875 3.99512 118.062L8.36078 116.159C10.1994 125.536 13.7935 133.782 19.143 140.898Z" fill="white"/>
<path d="M58.8128 157.088L45.7158 162.796L46.9843 165.706L60.0813 159.998L58.8128 157.088Z" fill="#3F3D56"/>
<path d="M89.1139 270.844C88.9096 270.894 88.6936 270.862 88.5133 270.753C88.333 270.645 88.2032 270.469 88.1526 270.265L53.6484 160.935L55.1891 160.553L89.6932 269.882C89.7183 269.984 89.7232 270.089 89.7077 270.192C89.6922 270.295 89.6565 270.394 89.6027 270.483C89.5489 270.572 89.478 270.65 89.3942 270.712C89.3103 270.774 89.2151 270.819 89.1139 270.844Z" fill="#3F3D56"/>
<path d="M98.3352 305.411H15.2596C15.1193 305.411 14.9847 305.355 14.8855 305.256C14.7862 305.157 14.7305 305.022 14.7305 304.882C14.7305 304.741 14.7862 304.607 14.8855 304.508C14.9847 304.408 15.1193 304.353 15.2596 304.353H98.3352C98.4756 304.353 98.6102 304.408 98.7094 304.508C98.8086 304.607 98.8644 304.741 98.8644 304.882C98.8644 305.022 98.8086 305.157 98.7094 305.256C98.6102 305.355 98.4756 305.411 98.3352 305.411Z" fill="#CCCCCC"/>
<path d="M309.464 305.411H226.389C226.248 305.411 226.114 305.355 226.014 305.256C225.915 305.157 225.859 305.022 225.859 304.882C225.859 304.741 225.915 304.607 226.014 304.508C226.114 304.408 226.248 304.353 226.389 304.353H309.464C309.604 304.353 309.739 304.408 309.838 304.508C309.938 304.607 309.993 304.741 309.993 304.882C309.993 305.022 309.938 305.157 309.838 305.256C309.739 305.355 309.604 305.411 309.464 305.411Z" fill="#CCCCCC"/>
<path d="M210.514 283.716H127.438C127.298 283.716 127.163 283.661 127.064 283.562C126.965 283.462 126.909 283.328 126.909 283.187C126.909 283.047 126.965 282.912 127.064 282.813C127.163 282.714 127.298 282.658 127.438 282.658H210.514C210.654 282.658 210.789 282.714 210.888 282.813C210.987 282.912 211.043 283.047 211.043 283.187C211.043 283.328 210.987 283.462 210.888 283.562C210.789 283.661 210.654 283.716 210.514 283.716Z" fill="#CCCCCC"/>
<path d="M166.61 255.56C170.911 255.56 174.398 252.073 174.398 247.771C174.398 243.469 170.911 239.982 166.61 239.982C162.308 239.982 158.821 243.469 158.821 247.771C158.821 252.073 162.308 255.56 166.61 255.56Z" fill="white"/>
<path d="M166.61 250.368C168.044 250.368 169.206 249.206 169.206 247.772C169.206 246.338 168.044 245.176 166.61 245.176C165.176 245.176 164.014 246.338 164.014 247.772C164.014 249.206 165.176 250.368 166.61 250.368Z" fill="#3F3D56"/>
<path d="M172.792 262.176C173.033 263.498 172.738 264.861 171.974 265.966C171.21 267.07 170.038 267.826 168.716 268.067C167.394 268.307 166.031 268.013 164.927 267.249C163.822 266.484 163.066 265.312 162.825 263.991L162.824 263.981C162.325 261.228 164.454 260.254 167.206 259.756C169.959 259.257 172.294 259.424 172.792 262.176Z" fill="white"/>
</g>
<defs>
<clipPath id="clip0">
<rect width="339" height="305.411" fill="white"/>
</clipPath>
</defs>
</svg>
