<svg xmlns="http://www.w3.org/2000/svg" width="492.142" height="344" viewBox="0 0 492.142 344">
  <g id="undraw_happy_announcement_ac67" transform="translate(-0.002 0)">
    <path id="Path_184" data-name="Path 184" d="M165.468,328.751c.471,29.053,11.329,32.2,24.664,29.168a49,49,0,0,0,33.9-28.666l4.25-9.9a27.006,27.006,0,0,0-14.163-35.469h0a27.006,27.006,0,0,0-35.469,14.163C164.973,303.418,162.273,314.54,165.468,328.751Z" transform="translate(-143.546 -196.737)" fill="#2f2e41"/>
    <path id="Path_185" data-name="Path 185" d="M307.179,244l4.093-6.926a6.506,6.506,0,0,0-3.677-9.525h0a6.506,6.506,0,0,0-8.427,6.425l.241,7.445-19.235,52.713,10.489,2.19Z" transform="translate(-199.511 -170.457)" fill="#9f616a"/>
    <path id="Path_186" data-name="Path 186" d="M130.689,464.731,125.651,471a6.506,6.506,0,0,0,2.282,9.952h0a6.506,6.506,0,0,0,9.257-5.159l.823-7.4,26.548-49.435-10.07-3.662Z" transform="translate(-124.215 -261.244)" fill="#9f616a"/>
    <path id="Path_187" data-name="Path 187" d="M196.912,555.369l.742,8.907.174,2.078,49.307-4.742a10.871,10.871,0,0,0,8.706-15.242l-15.9-34.138-5.493-11.791-23.8-5.493c-19.628,15.023-1.968,31.6,20.25,48.373q1.3.989,2.637,1.977Z" transform="translate(-159.312 -299.701)" fill="#2f2e41"/>
    <path id="Path_188" data-name="Path 188" d="M161.95,639.911h0a3.543,3.543,0,0,0,3.232-1.251l16.128-19.524-.915-9.155-5.5-3.3a3.614,3.614,0,0,0-5.22,1.772L159.156,635.1a3.543,3.543,0,0,0,2.794,4.808Z" transform="translate(-140.964 -353.398)" fill="#2f2e41"/>
    <path id="Path_189" data-name="Path 189" d="M191.6,553.538l.915,10.986,2.572-.247,46.734-4.495a10.871,10.871,0,0,0,8.706-15.242l-13.155-29.45v-2.856l-5.493-11.791-23.8-5.493c-19.628,15.023-1.968,31.6,20.25,48.373l-.11.146Z" transform="translate(-156.748 -299.701)" opacity="0.2"/>
    <path id="Path_190" data-name="Path 190" d="M153.1,632.831h0a3.542,3.542,0,0,0,3.232-1.251l16.128-19.524-.915-9.155-5.5-3.3a3.614,3.614,0,0,0-5.22,1.772L150.3,628.023a3.542,3.542,0,0,0,2.794,4.808Z" transform="translate(-136.69 -349.98)" fill="#2f2e41"/>
    <path id="Path_191" data-name="Path 191" d="M188.062,548.289l.915,10.986,49.307-4.743a10.873,10.873,0,0,0,8.71-15.24L233.835,509.84V493.361l-32.041-5.493c-20.4,15.612-.523,32.908,22.887,50.35Z" transform="translate(-155.039 -296.283)" fill="#2f2e41"/>
    <circle id="Ellipse_171" data-name="Ellipse 171" cx="13.732" cy="13.732" r="13.732" transform="translate(50.416 95.462)" fill="#9f616a"/>
    <path id="Path_192" data-name="Path 192" d="M212.843,359.141l19.225,12.817,16.478-3.662-9.155-9.155V345.409l-14.647-.915C224.436,349.978,221.294,355,212.843,359.141Z" transform="translate(-167.004 -227.061)" fill="#9f616a"/>
    <path id="Path_193" data-name="Path 193" d="M206.808,434.334l35.7,4.577,8.239-38.449c3.828-10.206,1.632-19.223-5.455-27.275a6.115,6.115,0,0,0-5.811-4.913l-3.381.147c.382,12.141-8.563,9.217-21.971-.915l-1.619.486a9.094,9.094,0,0,0-6.383,10.043L207.606,388a68.183,68.183,0,0,0,2.906,11.619C214.173,410.558,212.865,422.139,206.808,434.334Z" transform="translate(-163.715 -238.171)" fill="#6c63ff"/>
    <path id="Path_194" data-name="Path 194" d="M175.672,395.612,192.15,401.1l7.324-26.548-2.481-1.128a8.9,8.9,0,0,0-11.526,3.9Z" transform="translate(-149.057 -240.645)" fill="#6c63ff"/>
    <path id="Path_195" data-name="Path 195" d="M145.27,238.165l9.155,10.07,10.985-17.394-13.732-7.323Z" transform="translate(-70.136 -107.916)" fill="#6c63ff"/>
    <path id="Path_196" data-name="Path 196" d="M217.268,310.343c8.629,3.254,17.838,2.917,27.464,0V299.358H217.268Z" transform="translate(-169.14 -205.269)" fill="#2f2e41"/>
    <path id="Path_197" data-name="Path 197" d="M799.617,458.047l-9.467,3.945L727.037,376,681.28,463.57,669.447,461.2l34.712-120.7h40.234Z" transform="translate(-323.212 -164.395)" fill="#2f2e41"/>
    <path id="Path_198" data-name="Path 198" d="M1046.433,704.538h0a4.125,4.125,0,0,1-3.144-.4l-19.965-11.5a4.051,4.051,0,0,1-.843-6.376l1.784-1.784,9.467-.789,14.472,13.893a4.125,4.125,0,0,1-1.771,6.956Z" transform="translate(-557.328 -390.826)" fill="#2f2e41"/>
    <path id="Path_199" data-name="Path 199" d="M767.792,710.64h0a4.125,4.125,0,0,0,3.144-.4l19.965-11.5a4.051,4.051,0,0,0,.843-6.376l-1.784-1.784-9.467-.789-14.472,13.893a4.125,4.125,0,0,0,1.771,6.956Z" transform="translate(-433.469 -393.772)" fill="#2f2e41"/>
    <path id="Path_200" data-name="Path 200" d="M796.775,196.713l-3.945,2.367L784.656,185.8a5.974,5.974,0,0,1,3.857-8.977h0a5.974,5.974,0,0,1,7.188,5.4Z" transform="translate(-442.65 -146.045)" fill="#ffb9b9"/>
    <path id="Path_201" data-name="Path 201" d="M1020.19,411.348l1.637-4.3,14.638,5.385a5.974,5.974,0,0,1,2.52,9.44h0a5.974,5.974,0,0,1-8.991.2Z" transform="translate(-556.795 -257.263)" fill="#ffb9b9"/>
    <circle id="Ellipse_172" data-name="Ellipse 172" cx="11.834" cy="11.834" r="11.834" transform="translate(389.625 74.336)" fill="#ffb9b9"/>
    <path id="Path_202" data-name="Path 202" d="M780.586,197.009H764.019V178.864l14.2-1.578Z" transform="translate(-368.872 -85.595)" fill="#ffb9b9"/>
    <path id="Path_203" data-name="Path 203" d="M901.169,391.2H856.2c1.586-25.09,2.841-49.337,0-63.113l2.615-12.551a7.071,7.071,0,0,1,7.8-5.574l6.153.769c4.167,7.325,9.2,7.255,14.989.789h7.411A7.43,7.43,0,0,1,902.6,319.1h0a93.852,93.852,0,0,1,1.907,26.936Z" transform="translate(-477.621 -210.362)" fill="#3f3d56"/>
    <path id="Path_204" data-name="Path 204" d="M672.5,95.021l6.311-3.155,33.923,56.013-9.467,14.2Z" transform="translate(-324.684 -44.353)" fill="#3f3d56"/>
    <path id="Path_205" data-name="Path 205" d="M974.215,368.026l5.393-4.55-28.659-40.159a25.4,25.4,0,0,0-25.262-10.228l-.9.166L935.62,332.22l14.273,10.806Z" transform="translate(-510.732 -211.697)" fill="#3f3d56"/>
    <path id="Path_206" data-name="Path 206" d="M901.714,259.752s2.211-4.865-3.538-7.076c0,0-4.865-7.96-14.594-2.653,0,0-6.634,2.653-6.634,9.73s-2.211,8.4-2.211,8.4,3.293-3.378,4.177-6.032,7.763-3.255,10.417-.6,9.287,2.211,9.287,2.211l-.442,9.729s2.211-5.749,3.1-5.749S903.041,259.752,901.714,259.752Z" transform="translate(-486.57 -180.569)" fill="#2f2e41"/>
    <ellipse id="Ellipse_173" data-name="Ellipse 173" cx="72.407" cy="3.771" rx="72.407" ry="3.771" transform="translate(341.645 336.458)" fill="#e6e6e6"/>
    <ellipse id="Ellipse_174" data-name="Ellipse 174" cx="38.272" cy="1.993" rx="38.272" ry="1.993" transform="translate(14.261 338.236)" fill="#e6e6e6"/>
    <path id="Path_207" data-name="Path 207" d="M564.742,183.787l-232.67,20.853a4.331,4.331,0,0,1-4.695-3.923L322.205,143a4.331,4.331,0,0,1,3.923-4.695L558.8,117.454a4.331,4.331,0,0,1,4.695,3.923l5.173,57.715a4.331,4.331,0,0,1-3.922,4.7Z" transform="translate(-219.796 -117.436)" fill="#6c63ff"/>
    <circle id="Ellipse_175" data-name="Ellipse 175" cx="18.169" cy="18.169" r="18.169" transform="translate(121.296 33.164)" fill="#fff"/>
    <path id="Path_208" data-name="Path 208" d="M470.013,174.213a3.028,3.028,0,0,0,.541,6.032L612.741,167.5a3.028,3.028,0,0,0-.541-6.032Z" transform="translate(-289.835 -138.689)" fill="#fff"/>
    <path id="Path_209" data-name="Path 209" d="M473.149,209.2a3.028,3.028,0,1,0,.541,6.032l142.187-12.743a3.028,3.028,0,1,0-.541-6.032Z" transform="translate(-291.349 -155.583)" fill="#fff"/>
  </g>
</svg>
