<svg width="218" height="216" viewBox="0 0 218 216" fill="none" xmlns="http://www.w3.org/2000/svg">
<path d="M195.998 175.001C194.883 173.908 193.492 173.137 191.972 172.773C190.453 172.408 188.864 172.463 187.373 172.931L170.986 156.458C183.682 142.169 190.311 123.495 189.466 104.4C188.621 85.304 180.369 67.289 166.46 54.1773C152.552 41.0657 134.082 33.8893 114.97 34.1711C95.8572 34.4528 77.6068 42.1705 64.0909 55.6864C50.575 69.2023 42.8574 87.4527 42.5756 106.565C42.2939 125.677 49.4702 144.147 62.5819 158.056C75.6935 171.964 93.7085 180.216 112.804 181.061C131.9 181.906 150.573 175.277 164.862 162.581L181.336 179.055C180.949 180.484 180.936 181.988 181.299 183.423C181.661 184.858 182.387 186.176 183.406 187.249L202.381 206.138C203.987 207.731 206.156 208.629 208.418 208.639C209.554 208.645 210.679 208.428 211.73 207.999C212.781 207.569 213.736 206.937 214.542 206.138C216.149 204.522 217.05 202.336 217.05 200.057C217.05 197.778 216.149 195.592 214.542 193.976L195.998 175.001ZM70.8497 153.525C61.795 144.482 55.6261 132.956 53.1236 120.405C50.6211 107.855 51.8974 94.8443 56.7911 83.0195C61.6847 71.1947 69.9759 61.0872 80.6154 53.9757C91.2549 46.8641 103.765 43.0683 116.562 43.0683C129.36 43.0683 141.869 46.8641 152.509 53.9757C163.149 61.0872 171.44 71.1947 176.333 83.0195C181.227 94.8443 182.503 107.855 180.001 120.405C177.498 132.956 171.329 144.482 162.275 153.525C156.275 159.534 149.149 164.3 141.305 167.553C133.462 170.805 125.054 172.479 116.562 172.479C108.071 172.479 99.6629 170.805 91.8191 167.553C83.9754 164.3 76.8497 159.534 70.8497 153.525Z" fill="#A8A8A8"/>
<path d="M151.062 120.75H82.0625C80.9188 120.75 79.8218 121.204 79.0131 122.013C78.2043 122.822 77.75 123.919 77.75 125.062C77.75 126.206 78.2043 127.303 79.0131 128.112C79.8218 128.921 80.9188 129.375 82.0625 129.375H95V142.312C95 145.744 96.3631 149.034 98.7893 151.461C101.216 153.887 104.506 155.25 107.938 155.25C111.369 155.25 114.659 153.887 117.086 151.461C119.512 149.034 120.875 145.744 120.875 142.312V129.375H151.062C152.206 129.375 153.303 128.921 154.112 128.112C154.921 127.303 155.375 126.206 155.375 125.062C155.375 123.919 154.921 122.822 154.112 122.013C153.303 121.204 152.206 120.75 151.062 120.75ZM112.25 142.312C112.25 143.456 111.796 144.553 110.987 145.362C110.178 146.171 109.081 146.625 107.938 146.625C106.794 146.625 105.697 146.171 104.888 145.362C104.079 144.553 103.625 143.456 103.625 142.312V129.375H112.25V142.312Z" fill="#A8A8A8"/>
<path d="M21.5625 52C17.2979 52 13.129 53.2646 9.58303 55.6339C6.03709 58.0033 3.27338 61.3709 1.64136 65.3109C0.00934873 69.2509 -0.417669 73.5864 0.414325 77.7691C1.24632 81.9518 3.29995 85.7939 6.31552 88.8095C9.33109 91.8251 13.1732 93.8787 17.3559 94.7107C21.5386 95.5427 25.8741 95.1157 29.8141 93.4837C33.7542 91.8516 37.1218 89.0879 39.4911 85.542C41.8604 81.996 43.125 77.8272 43.125 73.5625C43.125 67.8438 40.8533 62.3593 36.8095 58.3155C32.7657 54.2718 27.2812 52 21.5625 52ZM21.5625 86.5C19.0037 86.5 16.5024 85.7412 14.3748 84.3196C12.2473 82.8981 10.589 80.8775 9.60983 78.5135C8.63062 76.1494 8.3744 73.5481 8.8736 71.0385C9.3728 68.5289 10.605 66.2236 12.4143 64.4143C14.2237 62.605 16.5289 61.3728 19.0385 60.8736C21.5482 60.3744 24.1495 60.6306 26.5135 61.6098C28.8775 62.589 30.8981 64.2472 32.3196 66.3748C33.7412 68.5024 34.5 71.0037 34.5 73.5625C34.5 76.9937 33.137 80.2844 30.7107 82.7107C28.2844 85.1369 24.9938 86.5 21.5625 86.5Z" fill="#A8A8A8"/>
<path d="M60.5 17.25C60.5 13.8383 59.4883 10.5032 57.5929 7.66642C55.6974 4.82968 53.0033 2.6187 49.8513 1.31309C46.6993 0.0074741 43.2309 -0.334133 39.8847 0.331462C36.5385 0.997057 33.4649 2.63996 31.0524 5.05242C28.64 7.46487 26.9971 10.5385 26.3315 13.8847C25.6659 17.2309 26.0075 20.6993 27.3131 23.8513C28.6187 27.0033 30.8297 29.6974 33.6664 31.5929C36.5032 33.4883 39.8383 34.5 43.25 34.5C47.825 34.5 52.2126 32.6826 55.4476 29.4476C58.6826 26.2126 60.5 21.825 60.5 17.25ZM34.625 17.25C34.625 15.5441 35.1309 13.8766 36.0786 12.4582C37.0263 11.0398 38.3734 9.93435 39.9494 9.28155C41.5254 8.62874 43.2596 8.45794 44.9327 8.79074C46.6058 9.12353 48.1426 9.94499 49.3488 11.1512C50.555 12.3574 51.3765 13.8943 51.7093 15.5674C52.0421 17.2404 51.8713 18.9746 51.2185 20.5507C50.5657 22.1267 49.4602 23.4737 48.0418 24.4214C46.6234 25.3692 44.9559 25.875 43.25 25.875C40.9625 25.875 38.7687 24.9663 37.1512 23.3488C35.5337 21.7313 34.625 19.5375 34.625 17.25Z" fill="#A8A8A8"/>
<path d="M99.5625 198.625H95.25V194.312C95.25 193.169 94.7956 192.072 93.9869 191.263C93.1781 190.454 92.0812 190 90.9375 190C89.7938 190 88.6969 190.454 87.8881 191.263C87.0794 192.072 86.625 193.169 86.625 194.312V198.625H82.3125C81.1688 198.625 80.0719 199.079 79.2631 199.888C78.4544 200.697 78 201.794 78 202.938C78 204.081 78.4544 205.178 79.2631 205.987C80.0719 206.796 81.1688 207.25 82.3125 207.25H86.625V211.562C86.625 212.706 87.0794 213.803 87.8881 214.612C88.6969 215.421 89.7938 215.875 90.9375 215.875C92.0812 215.875 93.1781 215.421 93.9869 214.612C94.7956 213.803 95.25 212.706 95.25 211.562V207.25H99.5625C100.706 207.25 101.803 206.796 102.612 205.987C103.421 205.178 103.875 204.081 103.875 202.938C103.875 201.794 103.421 200.697 102.612 199.888C101.803 199.079 100.706 198.625 99.5625 198.625Z" fill="#A8A8A8"/>
<circle cx="21.5" cy="73.5" r="9" stroke="#A8A8A8"/>
<path d="M130.56 86.603C129.673 85.2061 130.086 83.3546 131.483 82.4674C132.88 81.5802 134.732 81.9934 135.619 83.3902L148.47 103.624C149.357 105.021 148.944 106.873 147.547 107.76C146.15 108.647 144.298 108.234 143.411 106.837L130.56 86.603Z" fill="#A8A8A8"/>
<path d="M135.428 107.229C134.461 108.572 132.588 108.877 131.246 107.91C129.903 106.943 129.598 105.07 130.565 103.727L144.572 84.2759C145.539 82.933 147.412 82.6284 148.754 83.5953C150.097 84.5623 150.402 86.4348 149.435 87.7776L135.428 107.229Z" fill="#A8A8A8"/>
<path d="M84.5604 86.603C83.6732 85.2061 84.0864 83.3546 85.4832 82.4674C86.8801 81.5802 88.7316 81.9934 89.6188 83.3902L102.47 103.624C103.357 105.021 102.944 106.873 101.547 107.76C100.15 108.647 98.2985 108.234 97.4113 106.837L84.5604 86.603Z" fill="#A8A8A8"/>
<path d="M89.4279 107.229C88.4609 108.572 86.5884 108.877 85.2456 107.91C83.9027 106.943 83.598 105.07 84.565 103.727L98.5721 84.2759C99.5391 82.933 101.412 82.6284 102.754 83.5953C104.097 84.5623 104.402 86.4348 103.435 87.7776L89.4279 107.229Z" fill="#A8A8A8"/>
</svg>
