<svg width="21" height="20" viewBox="0 0 21 20" fill="none" xmlns="http://www.w3.org/2000/svg">
<path d="M5.87498 14.781L7.12498 13.219L3.10098 10L7.12498 6.781L5.87498 5.219L0.874981 9.219C0.757826 9.31268 0.663249 9.43152 0.598254 9.56672C0.533259 9.70191 0.499512 9.84999 0.499512 10C0.499512 10.15 0.533259 10.2981 0.598254 10.4333C0.663249 10.5685 0.757826 10.6873 0.874981 10.781L5.87498 14.781ZM15.125 5.219L13.875 6.781L17.899 10L13.875 13.219L15.125 14.781L20.125 10.781C20.2421 10.6873 20.3367 10.5685 20.4017 10.4333C20.4667 10.2981 20.5005 10.15 20.5005 10C20.5005 9.84999 20.4667 9.70191 20.4017 9.56672C20.3367 9.43152 20.2421 9.31268 20.125 9.219L15.125 5.219ZM13.476 1.216L9.47598 19.216L7.52298 18.782L11.523 0.782L13.476 1.216Z" fill="white"/>
</svg>
