<svg width="30" height="30" viewBox="0 0 30 30" fill="none" xmlns="http://www.w3.org/2000/svg">
<path d="M7.33333 26.6667H12.6667C12.6667 28.1333 11.4667 29.3333 10 29.3333C8.53333 29.3333 7.33333 28.1333 7.33333 26.6667ZM4.66667 24C4.66667 24.7333 5.26667 25.3333 6 25.3333H14C14.7333 25.3333 15.3333 24.7333 15.3333 24C15.3333 23.2667 14.7333 22.6667 14 22.6667H6C5.26667 22.6667 4.66667 23.2667 4.66667 24ZM20 12.6667C20 17.76 16.4533 20.48 14.9733 21.3333H5.02667C3.54667 20.48 0 17.76 0 12.6667C0 7.14667 4.48 2.66667 10 2.66667C15.52 2.66667 20 7.14667 20 12.6667ZM26.4933 9.82667L24.6667 10.6667L26.4933 11.5067L27.3333 13.3333L28.1733 11.5067L30 10.6667L28.1733 9.82667L27.3333 8L26.4933 9.82667ZM23.3333 8L24.5867 5.25333L27.3333 4L24.5867 2.74667L23.3333 0L22.08 2.74667L19.3333 4L22.08 5.25333L23.3333 8Z" fill="#BC53FF"/>
</svg>
