<svg width="18" height="12" viewBox="0 0 18 12" fill="none" xmlns="http://www.w3.org/2000/svg">
<path d="M7.87052 11.21L0.676516 2.987C-0.172484 2.0195 0.517516 0.500001 1.80602 0.500001H16.194C16.4824 0.499753 16.7647 0.582632 17.0072 0.738711C17.2497 0.894791 17.442 1.11746 17.5612 1.38004C17.6804 1.64262 17.7213 1.934 17.6792 2.21927C17.637 2.50454 17.5136 2.77161 17.3235 2.9885L10.1295 11.2085C9.98873 11.3696 9.81509 11.4987 9.62028 11.5872C9.42547 11.6757 9.21398 11.7215 9.00002 11.7215C8.78605 11.7215 8.57457 11.6757 8.37975 11.5872C8.18494 11.4987 8.01131 11.3696 7.87052 11.2085V11.21Z" fill="#A820FF"/>
</svg>
