<svg width="32" height="32" viewBox="0 0 32 32" fill="none" xmlns="http://www.w3.org/2000/svg">
<path d="M29.0738 13.3886H27.9998V13.3333H15.9998V18.6666H23.5351C22.4358 21.7713 19.4818 24 15.9998 24C11.5818 24 7.99978 20.418 7.99978 16C7.99978 11.582 11.5818 7.99998 15.9998 7.99998C18.0391 7.99998 19.8944 8.76931 21.3071 10.026L25.0784 6.25464C22.6971 4.03531 19.5118 2.66664 15.9998 2.66664C8.63644 2.66664 2.66644 8.63664 2.66644 16C2.66644 23.3633 8.63644 29.3333 15.9998 29.3333C23.3631 29.3333 29.3331 23.3633 29.3331 16C29.3331 15.106 29.2411 14.2333 29.0738 13.3886Z" fill="#FFC107"/>
<path d="M4.20407 9.79397L8.58474 13.0066C9.77007 10.072 12.6407 7.99997 16.0001 7.99997C18.0394 7.99997 19.8947 8.76931 21.3074 10.026L25.0787 6.25464C22.6974 4.03531 19.5121 2.66664 16.0001 2.66664C10.8787 2.66664 6.4374 5.55797 4.20407 9.79397Z" fill="#FF3D00"/>
<path d="M15.9998 29.3333C19.4438 29.3333 22.5732 28.0153 24.9392 25.872L20.8125 22.38C19.4289 23.4322 17.7381 24.0013 15.9998 24C12.5318 24 9.58716 21.7886 8.47782 18.7026L4.12982 22.0526C6.33649 26.3706 10.8178 29.3333 15.9998 29.3333Z" fill="#4CAF50"/>
<path d="M29.0739 13.3887H27.9999V13.3334H15.9999V18.6667H23.5353C23.0094 20.1443 22.0622 21.4355 20.8106 22.3807L20.8126 22.3794L24.9393 25.8714C24.6473 26.1367 29.3333 22.6667 29.3333 16.0001C29.3333 15.1061 29.2413 14.2334 29.0739 13.3887Z" fill="#1976D2"/>
</svg>
