<svg width="62" height="22" viewBox="0 0 62 22" fill="none" xmlns="http://www.w3.org/2000/svg">
<path d="M62 0.5H40.9128L51.4564 10.6529L62 0.5Z" fill="#C975FF"/>
<path d="M51.5465 10.7397L40.3721 21.5H62L51.5465 10.7397Z" fill="#C975FF"/>
<path d="M0 0.5V21.5H40.3721L51.5465 10.7397L51.4564 10.6529L40.9128 0.5H0Z" fill="#9E06FF"/>
<path d="M10.4 14.5V8.716L14.408 14.5H15.692V6.34H14.336V12.088L10.328 6.34H9.056V14.5H10.4ZM22.5262 11.548C22.5262 10.668 22.3062 9.944 21.8662 9.376C21.4262 8.808 20.7782 8.524 19.9222 8.524C19.3382 8.524 18.8302 8.652 18.3982 8.908C17.9742 9.164 17.6462 9.524 17.4142 9.988C17.1902 10.444 17.0782 10.976 17.0782 11.584C17.0782 12.528 17.3542 13.276 17.9062 13.828C18.4662 14.372 19.2742 14.644 20.3302 14.644C21.1142 14.644 21.8302 14.42 22.4782 13.972L22.0702 12.988C21.7262 13.164 21.4302 13.296 21.1822 13.384C20.9422 13.464 20.6662 13.504 20.3542 13.504C19.2342 13.504 18.6142 12.984 18.4942 11.944H22.5262V11.548ZM18.5182 11.044C18.5742 10.612 18.7182 10.276 18.9502 10.036C19.1902 9.796 19.5022 9.676 19.8862 9.676C20.2622 9.676 20.5622 9.792 20.7862 10.024C21.0102 10.256 21.1582 10.596 21.2302 11.044H18.5182ZM29.3997 14.5L31.2357 8.68H29.8317L28.8357 12.436L27.7917 8.68H26.3277L25.3317 12.436L24.2757 8.476L22.9677 8.896L24.7197 14.5H25.9077L27.0357 10.636L28.2237 14.5H29.3997Z" fill="white"/>
</svg>
