<svg width="18" height="18" viewBox="0 0 18 18" fill="none" xmlns="http://www.w3.org/2000/svg">
<path d="M15.1875 4.5H12.375V3.9375C12.3731 3.49052 12.1948 3.06237 11.8787 2.7463C11.5626 2.43023 11.1345 2.25185 10.6875 2.25H7.3125C6.86552 2.25185 6.43737 2.43023 6.1213 2.7463C5.80523 3.06237 5.62685 3.49052 5.625 3.9375V4.5H2.8125C2.51413 4.5 2.22798 4.61853 2.017 4.8295C1.80603 5.04048 1.6875 5.32663 1.6875 5.625V14.625C1.6875 14.9234 1.80603 15.2095 2.017 15.4205C2.22798 15.6315 2.51413 15.75 2.8125 15.75H15.1875C15.4859 15.75 15.772 15.6315 15.983 15.4205C16.194 15.2095 16.3125 14.9234 16.3125 14.625V5.625C16.3125 5.32663 16.194 5.04048 15.983 4.8295C15.772 4.61853 15.4859 4.5 15.1875 4.5ZM6.75 3.9375C6.75 3.78832 6.80926 3.64524 6.91475 3.53975C7.02024 3.43426 7.16332 3.375 7.3125 3.375H10.6875C10.8367 3.375 10.9798 3.43426 11.0852 3.53975C11.1907 3.64524 11.25 3.78832 11.25 3.9375V4.5H6.75V3.9375ZM15.1875 5.625V10.6875H2.8125V5.625H15.1875Z" fill="#1D2434"/>
</svg>
