<svg width="24" height="20" viewBox="0 0 24 20" fill="none" xmlns="http://www.w3.org/2000/svg">
<g clip-path="url(#clip0_716_9)">
<path d="M11.9963 12.4C14.1491 12.4 15.8625 10.654 15.8625 8.50002C15.8625 6.34602 14.1173 4.60002 11.9963 4.60002C9.84338 4.60002 8.13 6.34602 8.13 8.50002C8.09625 10.6525 9.84375 12.4 11.9963 12.4ZM13.8713 13.6H10.1288C7.185 13.6 4.8 15.8388 4.8 18.5988C4.8 19.1538 5.27625 19.6 5.865 19.6H18.135C18.7238 19.6 19.2 19.1538 19.2 18.5988C19.2 15.8388 16.815 13.6 13.8713 13.6ZM19.2 6.40002C20.8568 6.40002 22.2 5.05677 22.2 3.40002C22.2 1.74327 20.8575 0.400024 19.2 0.400024C17.5433 0.400024 16.2 1.74327 16.2 3.40002C16.2 5.05677 17.5425 6.40002 19.2 6.40002ZM6.89625 8.50002C6.89625 8.29569 6.93309 8.1014 6.95659 7.9034C6.5475 7.67877 6.0975 7.60002 5.62125 7.60002H3.303C1.479 7.60002 0 9.16752 0 11.0988C0 11.485 0.295763 11.8 0.66075 11.8H8.142C7.37625 10.9075 6.89625 9.76377 6.89625 8.50002ZM4.8 6.40002C6.45675 6.40002 7.8 5.05677 7.8 3.40002C7.8 1.74327 6.4575 0.400024 4.8 0.400024C3.14325 0.400024 1.8 1.74327 1.8 3.40002C1.8 5.05677 3.14325 6.40002 4.8 6.40002ZM20.6963 7.60002H18.3773C17.8973 7.60002 17.4443 7.71391 17.0325 7.90902C17.055 8.10628 17.0925 8.29752 17.0925 8.50002C17.0925 9.76415 16.6133 10.9079 15.849 11.8H23.3378C23.7038 11.8 24 11.485 24 11.0988C24 9.16752 22.5225 7.60002 20.6963 7.60002Z" fill="#E2A610"/>
</g>
<defs>
<clipPath id="clip0_716_9">
<rect width="24" height="19.2" fill="white" transform="translate(0 0.400024)"/>
</clipPath>
</defs>
</svg>
