<svg width="188" height="43" viewBox="0 0 188 43" fill="none" xmlns="http://www.w3.org/2000/svg">
<path d="M0 12C0 5.37258 5.37258 0 12 0H176C182.627 0 188 5.37258 188 12V38C188 40.7614 185.761 43 183 43H5C2.23858 43 0 40.7614 0 38V12Z" fill="url(#paint0_linear_75_930)"/>
<path d="M64.7246 23V11.72H66.7886V23H64.7246ZM69.1114 23V16.936C69.1114 16.6053 69.1008 16.2693 69.0794 15.928C69.0581 15.5867 69.0261 15.2507 68.9834 14.92H70.9194L71.0794 16.52H70.8874C71.1434 15.9547 71.5221 15.5227 72.0234 15.224C72.5248 14.9147 73.1061 14.76 73.7674 14.76C74.7168 14.76 75.4314 15.0267 75.9114 15.56C76.3914 16.0933 76.6314 16.9253 76.6314 18.056V23H74.6314V18.152C74.6314 17.5013 74.5034 17.0373 74.2474 16.76C74.0021 16.472 73.6288 16.328 73.1274 16.328C72.5088 16.328 72.0181 16.52 71.6554 16.904C71.2928 17.288 71.1114 17.8 71.1114 18.44V23H69.1114ZM81.6321 23.16C80.9387 23.16 80.2987 23.08 79.7121 22.92C79.1361 22.7493 78.6507 22.5147 78.2561 22.216L78.8161 20.872C79.2214 21.1493 79.6694 21.3627 80.1601 21.512C80.6507 21.6613 81.1467 21.736 81.6481 21.736C82.1814 21.736 82.5761 21.6453 82.8321 21.464C83.0987 21.2827 83.2321 21.0373 83.2321 20.728C83.2321 20.4827 83.1467 20.2907 82.9761 20.152C82.8161 20.0027 82.5547 19.8907 82.1921 19.816L80.5921 19.512C79.9094 19.3627 79.3867 19.1067 79.0241 18.744C78.6721 18.3813 78.4961 17.9067 78.4961 17.32C78.4961 16.8187 78.6294 16.376 78.8961 15.992C79.1734 15.608 79.5627 15.3093 80.0641 15.096C80.5761 14.872 81.1734 14.76 81.8561 14.76C82.4534 14.76 83.0134 14.84 83.5361 15C84.0694 15.16 84.5174 15.4 84.8801 15.72L84.3041 17.016C83.9734 16.7493 83.5947 16.5413 83.1681 16.392C82.7414 16.2427 82.3254 16.168 81.9201 16.168C81.3654 16.168 80.9601 16.2693 80.7041 16.472C80.4481 16.664 80.3201 16.9147 80.3201 17.224C80.3201 17.4587 80.3947 17.656 80.5441 17.816C80.7041 17.9653 80.9494 18.0773 81.2801 18.152L82.8801 18.456C83.5947 18.5947 84.1334 18.84 84.4961 19.192C84.8694 19.5333 85.0561 20.0027 85.0561 20.6C85.0561 21.1333 84.9121 21.592 84.6241 21.976C84.3361 22.36 83.9361 22.6533 83.4241 22.856C82.9121 23.0587 82.3147 23.16 81.6321 23.16ZM86.7677 23V14.92H88.7677V23H86.7677ZM86.6557 13.4V11.448H88.8797V13.4H86.6557ZM94.6836 26.584C93.9369 26.584 93.2596 26.504 92.6516 26.344C92.0542 26.184 91.5209 25.9387 91.0516 25.608L91.4836 24.168C91.7929 24.3707 92.1129 24.536 92.4436 24.664C92.7742 24.792 93.1156 24.888 93.4676 24.952C93.8196 25.016 94.1769 25.048 94.5396 25.048C95.2862 25.048 95.8409 24.8613 96.2036 24.488C96.5769 24.1253 96.7636 23.6027 96.7636 22.92V20.984H96.9236C96.7529 21.5387 96.4062 21.9813 95.8836 22.312C95.3716 22.6427 94.7796 22.808 94.1076 22.808C93.3822 22.808 92.7476 22.648 92.2036 22.328C91.6702 21.9973 91.2542 21.528 90.9556 20.92C90.6569 20.312 90.5076 19.5973 90.5076 18.776C90.5076 17.9547 90.6569 17.2453 90.9556 16.648C91.2542 16.04 91.6702 15.576 92.2036 15.256C92.7476 14.9253 93.3822 14.76 94.1076 14.76C94.7902 14.76 95.3822 14.9253 95.8836 15.256C96.3956 15.576 96.7369 16.0133 96.9076 16.568L96.7636 16.472L96.9236 14.92H98.8596C98.8169 15.2507 98.7849 15.5867 98.7636 15.928C98.7422 16.2693 98.7316 16.6053 98.7316 16.936V22.68C98.7316 23.9493 98.3849 24.9147 97.6916 25.576C97.0089 26.248 96.0062 26.584 94.6836 26.584ZM94.6516 21.272C95.2916 21.272 95.7982 21.0587 96.1716 20.632C96.5556 20.1947 96.7476 19.576 96.7476 18.776C96.7476 17.976 96.5556 17.3627 96.1716 16.936C95.7982 16.5093 95.2916 16.296 94.6516 16.296C94.0009 16.296 93.4836 16.5093 93.0996 16.936C92.7156 17.3627 92.5236 17.976 92.5236 18.776C92.5236 19.576 92.7156 20.1947 93.0996 20.632C93.4836 21.0587 94.0009 21.272 94.6516 21.272ZM100.893 23V11.224H102.893V16.536H102.669C102.914 15.96 103.293 15.5227 103.805 15.224C104.317 14.9147 104.903 14.76 105.565 14.76C106.525 14.76 107.239 15.032 107.709 15.576C108.178 16.1093 108.413 16.9253 108.413 18.024V23H106.413V18.12C106.413 17.4907 106.29 17.0373 106.045 16.76C105.81 16.472 105.431 16.328 104.909 16.328C104.301 16.328 103.81 16.52 103.437 16.904C103.074 17.2773 102.893 17.7787 102.893 18.408V23H100.893ZM113.989 23.16C113.029 23.16 112.304 22.9093 111.813 22.408C111.323 21.9067 111.077 21.1547 111.077 20.152V16.424H109.525V14.92H111.077V12.856L113.077 12.344V14.92H115.237V16.424H113.077V20.024C113.077 20.5787 113.184 20.968 113.397 21.192C113.611 21.416 113.904 21.528 114.277 21.528C114.48 21.528 114.651 21.512 114.789 21.48C114.939 21.448 115.083 21.4053 115.221 21.352V22.936C115.04 23.0107 114.837 23.064 114.613 23.096C114.4 23.1387 114.192 23.16 113.989 23.16ZM119.476 23.16C118.782 23.16 118.142 23.08 117.556 22.92C116.98 22.7493 116.494 22.5147 116.1 22.216L116.66 20.872C117.065 21.1493 117.513 21.3627 118.004 21.512C118.494 21.6613 118.99 21.736 119.492 21.736C120.025 21.736 120.42 21.6453 120.676 21.464C120.942 21.2827 121.076 21.0373 121.076 20.728C121.076 20.4827 120.99 20.2907 120.82 20.152C120.66 20.0027 120.398 19.8907 120.036 19.816L118.436 19.512C117.753 19.3627 117.23 19.1067 116.868 18.744C116.516 18.3813 116.34 17.9067 116.34 17.32C116.34 16.8187 116.473 16.376 116.74 15.992C117.017 15.608 117.406 15.3093 117.908 15.096C118.42 14.872 119.017 14.76 119.7 14.76C120.297 14.76 120.857 14.84 121.38 15C121.913 15.16 122.361 15.4 122.724 15.72L122.148 17.016C121.817 16.7493 121.438 16.5413 121.012 16.392C120.585 16.2427 120.169 16.168 119.764 16.168C119.209 16.168 118.804 16.2693 118.548 16.472C118.292 16.664 118.164 16.9147 118.164 17.224C118.164 17.4587 118.238 17.656 118.388 17.816C118.548 17.9653 118.793 18.0773 119.124 18.152L120.724 18.456C121.438 18.5947 121.977 18.84 122.34 19.192C122.713 19.5333 122.9 20.0027 122.9 20.6C122.9 21.1333 122.756 21.592 122.468 21.976C122.18 22.36 121.78 22.6533 121.268 22.856C120.756 23.0587 120.158 23.16 119.476 23.16Z" fill="white"/>
<defs>
<linearGradient id="paint0_linear_75_930" x1="158" y1="9" x2="-8" y2="43" gradientUnits="userSpaceOnUse">
<stop stop-color="#BC53FF"/>
<stop offset="1" stop-color="#AF32FF" stop-opacity="0.63"/>
</linearGradient>
</defs>
</svg>
