<svg width="24" height="24" viewBox="0 0 24 24" fill="none" xmlns="http://www.w3.org/2000/svg">
<path d="M23.772 22.579L17.4988 15.9215C19.2343 14.2286 20.3077 11.9451 20.3077 9.42861C20.3077 4.22992 15.7525 0 10.1538 0C4.5555 0 0 4.22992 0 9.42861C0 14.627 4.5555 18.8572 10.1538 18.8572C12.3795 18.8572 14.4332 18.1808 16.1086 17.0493L22.3821 23.7068C22.5647 23.9016 22.8204 24 23.0771 24C23.293 24 23.51 23.9307 23.6844 23.7885C24.0685 23.4764 24.1072 22.9346 23.772 22.579ZM1.84605 9.42861C1.84605 5.17533 5.57348 1.71417 10.1538 1.71417C14.7351 1.71417 18.4616 5.17533 18.4616 9.42861C18.4616 11.5089 17.5663 13.3955 16.1199 14.7848C15.9831 12.3677 15.0796 10.5591 13.5122 9.53648C14.0068 8.90131 14.3077 8.12835 14.3077 7.28556C14.3077 5.15906 12.4442 3.42861 10.1538 3.42861C7.8638 3.42861 5.99995 5.15906 5.99995 7.28556C5.99995 8.1273 6.30009 8.90131 6.7958 9.53648C5.22925 10.5583 4.32545 12.3669 4.18809 14.7848C2.74166 13.3955 1.84605 11.5089 1.84605 9.42861ZM7.84628 7.28556C7.84628 6.10446 8.88179 5.14278 10.1538 5.14278C11.4259 5.14278 12.4617 6.10446 12.4617 7.28556C12.4617 8.46693 11.4259 9.42861 10.1538 9.42861C8.88179 9.42861 7.84628 8.46693 7.84628 7.28556ZM5.99995 16.0989V15.4286C5.99995 13.7202 6.42274 11.5801 8.2801 10.7092C8.8459 10.9774 9.47641 11.1428 10.1538 11.1428C10.8316 11.1428 11.4618 10.9774 12.0279 10.7092C13.8849 11.5801 14.3077 13.7202 14.3077 15.4286V15.9643C14.3077 16.0071 14.3272 16.043 14.3337 16.0843C13.1041 16.7528 11.6788 17.1428 10.1538 17.1428C8.64015 17.1428 7.22396 16.7588 5.99995 16.0989Z" fill="white"/>
</svg>
