<svg width="25" height="21" viewBox="0 0 25 21" fill="none" xmlns="http://www.w3.org/2000/svg">
<path d="M17.3 3.99999H19.7V20.8H5.3V3.99999H7.7V2.79999C7.7 2.16347 7.95286 1.55302 8.40294 1.10294C8.85303 0.65285 9.46348 0.399994 10.1 0.399994H14.9C15.5365 0.399994 16.147 0.65285 16.5971 1.10294C17.0471 1.55302 17.3 2.16347 17.3 2.79999V3.99999ZM20.9 3.99999H22.1C22.7365 3.99999 23.347 4.25285 23.7971 4.70294C24.2471 5.15302 24.5 5.76347 24.5 6.39999V18.4C24.5 19.0365 24.2471 19.647 23.7971 20.097C23.347 20.5471 22.7365 20.8 22.1 20.8H20.9V3.99999ZM4.1 3.99999V20.8H2.9C2.26348 20.8 1.65303 20.5471 1.20294 20.097C0.752856 19.647 0.5 19.0365 0.5 18.4V6.39999C0.5 5.07999 1.58 3.99999 2.9 3.99999H4.1ZM10.1 2.79999V3.99999H14.9V2.79999H10.1Z" fill="white"/>
</svg>
