<svg width="65" height="65" viewBox="0 0 65 65" fill="none" xmlns="http://www.w3.org/2000/svg">
<path d="M65 32.5C65 50.4493 50.4493 65 32.5 65C14.5507 65 0 50.4493 0 32.5C0 14.5507 14.5507 0 32.5 0C50.4493 0 65 14.5507 65 32.5ZM2.78612 32.5C2.78612 48.9105 16.0895 62.2139 32.5 62.2139C48.9105 62.2139 62.2139 48.9105 62.2139 32.5C62.2139 16.0895 48.9105 2.78612 32.5 2.78612C16.0895 2.78612 2.78612 16.0895 2.78612 32.5Z" fill="#1D2434" fill-opacity="0.25"/>
<path d="M54.4386 8.52189C60.5898 14.1499 64.3428 21.9266 64.9216 30.2438C65.5004 38.561 62.8606 46.7826 57.5482 53.2083L55.5839 51.5844C60.4797 45.6626 62.9125 38.0857 62.3791 30.4207C61.8457 22.7558 58.3869 15.5889 52.7181 10.4023L54.4386 8.52189Z" fill="#BC53FF"/>
<path d="M57.9807 52.6739C54.9176 56.5427 51.0139 59.6631 46.5654 61.7987C42.117 63.9343 37.2406 65.0288 32.3062 64.9994L32.3223 62.2999C36.8468 62.3268 41.3181 61.3232 45.3971 59.365C49.476 57.4068 53.0555 54.5456 55.8641 50.9982L57.9807 52.6739Z" fill="#FF9C72"/>
<path d="M32.5 65C26.5774 65 20.7675 63.3816 15.6978 60.3197C10.6282 57.2578 6.49159 52.8688 3.73498 47.6269C0.978366 42.385 -0.293455 36.4895 0.0569237 30.5773C0.407303 24.6651 2.36656 18.9611 5.72302 14.0814L7.89803 15.5775C4.81421 20.0608 3.0141 25.3015 2.69218 30.7335C2.37026 36.1654 3.53877 41.5821 6.07147 46.3982C8.60417 51.2143 12.4048 55.2468 17.0626 58.06C21.7205 60.8732 27.0585 62.3601 32.5 62.3601V65Z" fill="#451E6C"/>
<path d="M5.06007 15.0845C7.77651 10.8045 11.4565 7.21921 15.8059 4.6153C20.1553 2.01138 25.0535 0.460999 30.1091 0.0880663L30.3289 3.06777C25.7381 3.40642 21.2902 4.81427 17.3406 7.17881C13.3911 9.54334 10.0494 12.799 7.58269 16.6855L5.06007 15.0845Z" fill="#FF4646"/>
<g filter="url(#filter0_d_212_522)">
<path d="M20.845 39.135C19.555 39.135 18.56 38.68 17.86 37.77C17.16 36.86 16.81 35.59 16.81 33.96C16.81 32.74 16.985 31.71 17.335 30.87C17.695 30.03 18.205 29.39 18.865 28.95C19.525 28.51 20.315 28.29 21.235 28.29C21.795 28.29 22.355 28.4 22.915 28.62C23.475 28.84 23.94 29.145 24.31 29.535L23.8 30.615C23.43 30.235 23.02 29.955 22.57 29.775C22.13 29.585 21.68 29.49 21.22 29.49C20.23 29.49 19.47 29.845 18.94 30.555C18.42 31.255 18.16 32.3 18.16 33.69V35.025H18.01C18.08 34.465 18.25 33.985 18.52 33.585C18.8 33.185 19.155 32.875 19.585 32.655C20.025 32.435 20.52 32.325 21.07 32.325C21.7 32.325 22.26 32.47 22.75 32.76C23.24 33.05 23.625 33.445 23.905 33.945C24.185 34.445 24.325 35.025 24.325 35.685C24.325 36.345 24.175 36.94 23.875 37.47C23.575 37.99 23.165 38.4 22.645 38.7C22.125 38.99 21.525 39.135 20.845 39.135ZM20.77 37.98C21.21 37.98 21.595 37.885 21.925 37.695C22.265 37.505 22.525 37.24 22.705 36.9C22.895 36.56 22.99 36.17 22.99 35.73C22.99 35.29 22.895 34.9 22.705 34.56C22.525 34.22 22.265 33.955 21.925 33.765C21.595 33.575 21.21 33.48 20.77 33.48C20.33 33.48 19.94 33.575 19.6 33.765C19.27 33.955 19.01 34.22 18.82 34.56C18.63 34.9 18.535 35.29 18.535 35.73C18.535 36.17 18.63 36.56 18.82 36.9C19.01 37.24 19.27 37.505 19.6 37.695C19.94 37.885 20.33 37.98 20.77 37.98ZM26.7341 39L31.9391 29.055V29.625H26.0891V28.425H33.2141V29.46L28.2791 39H26.7341ZM38.8033 39H37.6033L43.8733 28.425H45.0883L38.8033 39ZM37.6483 34.755C36.8283 34.755 36.1833 34.47 35.7133 33.9C35.2533 33.32 35.0233 32.525 35.0233 31.515C35.0233 30.495 35.2583 29.705 35.7283 29.145C36.1983 28.575 36.8383 28.29 37.6483 28.29C38.4783 28.29 39.1233 28.58 39.5833 29.16C40.0533 29.73 40.2883 30.515 40.2883 31.515C40.2883 32.525 40.0533 33.32 39.5833 33.9C39.1233 34.47 38.4783 34.755 37.6483 34.755ZM37.6483 33.825C38.1083 33.825 38.4683 33.635 38.7283 33.255C38.9883 32.875 39.1183 32.295 39.1183 31.515C39.1183 30.745 38.9883 30.175 38.7283 29.805C38.4683 29.425 38.1083 29.235 37.6483 29.235C37.1983 29.235 36.8433 29.42 36.5833 29.79C36.3233 30.16 36.1933 30.735 36.1933 31.515C36.1933 32.305 36.3233 32.89 36.5833 33.27C36.8433 33.64 37.1983 33.825 37.6483 33.825ZM45.0283 39.135C44.2083 39.135 43.5633 38.85 43.0933 38.28C42.6333 37.7 42.4033 36.905 42.4033 35.895C42.4033 34.875 42.6383 34.085 43.1083 33.525C43.5783 32.955 44.2183 32.67 45.0283 32.67C45.8483 32.67 46.4933 32.955 46.9633 33.525C47.4333 34.095 47.6683 34.885 47.6683 35.895C47.6683 36.905 47.4333 37.7 46.9633 38.28C46.4933 38.85 45.8483 39.135 45.0283 39.135ZM45.0283 38.19C45.4883 38.19 45.8483 38.005 46.1083 37.635C46.3683 37.255 46.4983 36.675 46.4983 35.895C46.4983 35.115 46.3683 34.54 46.1083 34.17C45.8483 33.8 45.4883 33.615 45.0283 33.615C44.5783 33.615 44.2233 33.8 43.9633 34.17C43.7033 34.54 43.5733 35.115 43.5733 35.895C43.5733 36.675 43.7033 37.255 43.9633 37.635C44.2233 38.005 44.5783 38.19 45.0283 38.19Z" fill="#BC53FF"/>
</g>
<defs>
<filter id="filter0_d_212_522" x="12.8101" y="28.29" width="38.8582" height="18.845" filterUnits="userSpaceOnUse" color-interpolation-filters="sRGB">
<feFlood flood-opacity="0" result="BackgroundImageFix"/>
<feColorMatrix in="SourceAlpha" type="matrix" values="0 0 0 0 0 0 0 0 0 0 0 0 0 0 0 0 0 0 127 0" result="hardAlpha"/>
<feOffset dy="4"/>
<feGaussianBlur stdDeviation="2"/>
<feComposite in2="hardAlpha" operator="out"/>
<feColorMatrix type="matrix" values="0 0 0 0 0 0 0 0 0 0 0 0 0 0 0 0 0 0 0.25 0"/>
<feBlend mode="normal" in2="BackgroundImageFix" result="effect1_dropShadow_212_522"/>
<feBlend mode="normal" in="SourceGraphic" in2="effect1_dropShadow_212_522" result="shape"/>
</filter>
</defs>
</svg>
