<svg width="36" height="36" viewBox="0 0 36 36" fill="none" xmlns="http://www.w3.org/2000/svg">
<path d="M18 3C19.9698 3 21.9204 3.38799 23.7403 4.14181C25.5601 4.89563 27.2137 6.00052 28.6066 7.3934C29.9995 8.78628 31.1044 10.4399 31.8582 12.2597C32.612 14.0796 33 16.0302 33 18C33 21.9782 31.4196 25.7936 28.6066 28.6066C25.7936 31.4196 21.9782 33 18 33C16.0302 33 14.0796 32.612 12.2597 31.8582C10.4399 31.1044 8.78628 29.9995 7.3934 28.6066C4.58035 25.7936 3 21.9782 3 18C3 14.0218 4.58035 10.2064 7.3934 7.3934C10.2064 4.58035 14.0218 3 18 3ZM18 6C14.8174 6 11.7652 7.26428 9.51472 9.51472C7.26428 11.7652 6 14.8174 6 18C6 21.1826 7.26428 24.2348 9.51472 26.4853C11.7652 28.7357 14.8174 30 18 30C21.1826 30 24.2348 28.7357 26.4853 26.4853C28.7357 24.2348 30 21.1826 30 18C30 14.8174 28.7357 11.7652 26.4853 9.51472C24.2348 7.26428 21.1826 6 18 6ZM16.5 10.5H19.5C20.2957 10.5 21.0587 10.8161 21.6213 11.3787C22.1839 11.9413 22.5 12.7044 22.5 13.5V22.5C22.5 23.2957 22.1839 24.0587 21.6213 24.6213C21.0587 25.1839 20.2957 25.5 19.5 25.5V28.5H16.5V25.5C15.7044 25.5 14.9413 25.1839 14.3787 24.6213C13.8161 24.0587 13.5 23.2957 13.5 22.5V13.5C13.5 12.7044 13.8161 11.9413 14.3787 11.3787C14.9413 10.8161 15.7044 10.5 16.5 10.5ZM16.5 13.5V22.5H19.5V13.5H16.5Z" fill="#02044A"/>
</svg>
