<svg width="36" height="36" viewBox="0 0 36 36" fill="none" xmlns="http://www.w3.org/2000/svg">
<path d="M18.25 29.25C19.4926 29.25 20.5 28.2426 20.5 27C20.5 25.7574 19.4926 24.75 18.25 24.75C17.0074 24.75 16 25.7574 16 27C16 28.2426 17.0074 29.25 18.25 29.25Z" fill="#02044A"/>
<path d="M27.7491 26.4139C27.054 24.643 25.8545 23.115 24.2993 22.0194C22.7441 20.9237 20.9015 20.3085 19 20.25C17.0985 20.3085 15.2559 20.9237 13.7007 22.0194C12.1455 23.115 10.946 24.643 10.2509 26.4139L10 27L10.2509 27.5861C10.946 29.357 12.1455 30.885 13.7007 31.9806C15.2559 33.0763 17.0985 33.6915 19 33.75C20.9015 33.6915 22.7441 33.0763 24.2993 31.9806C25.8545 30.885 27.054 29.357 27.7491 27.5861L28 27L27.7491 26.4139ZM19 31.5C18.11 31.5 17.24 31.2361 16.4999 30.7416C15.7599 30.2471 15.1831 29.5443 14.8425 28.7221C14.5019 27.8998 14.4128 26.995 14.5865 26.1221C14.7601 25.2492 15.1887 24.4474 15.818 23.818C16.4474 23.1887 17.2492 22.7601 18.1221 22.5865C18.995 22.4128 19.8998 22.5019 20.7221 22.8425C21.5443 23.1831 22.2471 23.7599 22.7416 24.4999C23.2361 25.24 23.5 26.11 23.5 27C23.4985 28.193 23.0239 29.3367 22.1803 30.1803C21.3367 31.0239 20.193 31.4985 19 31.5Z" fill="#02044A"/>
<path d="M18.125 10.125C18.7463 10.125 19.25 9.62132 19.25 9C19.25 8.37868 18.7463 7.875 18.125 7.875C17.5037 7.875 17 8.37868 17 9C17 9.62132 17.5037 10.125 18.125 10.125Z" fill="#02044A"/>
<path d="M18.125 19.125C18.7463 19.125 19.25 18.6213 19.25 18C19.25 17.3787 18.7463 16.875 18.125 16.875C17.5037 16.875 17 17.3787 17 18C17 18.6213 17.5037 19.125 18.125 19.125Z" fill="#02044A"/>
<path d="M18.125 28.125C18.7463 28.125 19.25 27.6213 19.25 27C19.25 26.3787 18.7463 25.875 18.125 25.875C17.5037 25.875 17 26.3787 17 27C17 27.6213 17.5037 28.125 18.125 28.125Z" fill="#02044A"/>
<path d="M9.25 23.625H17.125V21.375H9.25V14.625H27.25V18H29.5V5.625C29.5 5.02826 29.2629 4.45597 28.841 4.03401C28.419 3.61205 27.8467 3.375 27.25 3.375H9.25C8.65326 3.375 8.08097 3.61205 7.65901 4.03401C7.23705 4.45597 7 5.02826 7 5.625V30.375C7 30.9717 7.23705 31.544 7.65901 31.966C8.08097 32.3879 8.65326 32.625 9.25 32.625H17.125V30.375H9.25V23.625ZM9.25 5.625H27.25V12.375H9.25V5.625Z" fill="#02044A"/>
</svg>
