<svg width="24" height="34" viewBox="0 0 24 34" fill="none" xmlns="http://www.w3.org/2000/svg">
<path d="M4.49999 6.5H19.5V8C19.5 8.825 20.175 9.5 21 9.5C21.825 9.5 22.5 8.825 22.5 8V3.5C22.5 1.85 21.15 0.515 19.5 0.515L4.49999 0.5C2.84999 0.5 1.49999 1.85 1.49999 3.5V8C1.49999 8.825 2.17499 9.5 2.99999 9.5C3.82499 9.5 4.49999 8.825 4.49999 8V6.5ZM18.18 22.82L22.935 18.065C23.0741 17.9262 23.1844 17.7614 23.2596 17.5799C23.3349 17.3985 23.3737 17.204 23.3737 17.0075C23.3737 16.811 23.3349 16.6165 23.2596 16.4351C23.1844 16.2536 23.0741 16.0888 22.935 15.95L18.18 11.195C17.595 10.61 16.635 10.61 16.05 11.195C15.9109 11.3338 15.8006 11.4986 15.7253 11.6801C15.6501 11.8615 15.6113 12.056 15.6113 12.2525C15.6113 12.449 15.6501 12.6435 15.7253 12.8249C15.8006 13.0064 15.9109 13.1712 16.05 13.31L19.755 17L16.05 20.705C15.9109 20.8438 15.8006 21.0086 15.7253 21.1901C15.6501 21.3715 15.6113 21.566 15.6113 21.7625C15.6113 21.959 15.6501 22.1535 15.7253 22.3349C15.8006 22.5164 15.9109 22.6812 16.05 22.82C16.635 23.405 17.595 23.405 18.18 22.82ZM7.93499 20.69L4.24499 17L7.93499 13.31C8.07405 13.1712 8.18437 13.0064 8.25964 12.8249C8.33492 12.6435 8.37366 12.449 8.37366 12.2525C8.37366 12.056 8.33492 11.8615 8.25964 11.6801C8.18437 11.4986 8.07405 11.3338 7.93499 11.195C7.34999 10.61 6.38999 10.61 5.80499 11.195L1.04999 15.95C0.910938 16.0888 0.800617 16.2536 0.725345 16.4351C0.650073 16.6165 0.611328 16.811 0.611328 17.0075C0.611328 17.204 0.650073 17.3985 0.725345 17.5799C0.800617 17.7614 0.910938 17.9262 1.04999 18.065L5.80499 22.82C6.38999 23.405 7.34999 23.405 7.93499 22.82C8.53499 22.235 8.51999 21.275 7.93499 20.69ZM19.5 27.5H4.49999V26C4.49999 25.175 3.82499 24.5 2.99999 24.5C2.17499 24.5 1.49999 25.175 1.49999 26V30.5C1.49999 32.15 2.84999 33.5 4.49999 33.5H19.5C21.15 33.5 22.5 32.15 22.5 30.5V26C22.5 25.175 21.825 24.5 21 24.5C20.175 24.5 19.5 25.175 19.5 26V27.5Z" fill="#02044A"/>
</svg>
