<svg width="24" height="24" viewBox="0 0 24 24" fill="none" xmlns="http://www.w3.org/2000/svg">
<path d="M23.625 19.5H23.25V9.64829C23.6621 8.9034 23.9109 8.07929 23.9797 7.23078C24.0486 6.38228 23.936 5.52884 23.6494 4.72724C23.3628 3.92564 22.9088 3.19425 22.3176 2.58175C21.7264 1.96924 21.0115 1.48966 20.2205 1.1749C19.4296 0.860135 18.5807 0.717418 17.7302 0.756238C16.8798 0.795058 16.0474 1.01453 15.2884 1.40004C14.5294 1.78555 13.8612 2.32828 13.3283 2.9921C12.7953 3.65592 12.4099 4.42563 12.1975 5.25H2.625C2.1279 5.25059 1.65132 5.44832 1.29982 5.79982C0.948315 6.15133 0.750584 6.6279 0.75 7.125V19.5H0.375C0.325746 19.5 0.27697 19.5097 0.23146 19.5285C0.18595 19.5473 0.144599 19.5749 0.109771 19.6098C0.0749436 19.6446 0.0473224 19.686 0.028487 19.7315C0.00965162 19.777 -2.85289e-05 19.8258 6.3154e-08 19.875V21.375C0.000583626 21.8721 0.198315 22.3487 0.549819 22.7002C0.901324 23.0517 1.3779 23.2494 1.875 23.25H22.125C22.6221 23.2494 23.0987 23.0517 23.4502 22.7002C23.8017 22.3487 23.9994 21.8721 24 21.375V19.875C24 19.8258 23.9903 19.777 23.9715 19.7315C23.9527 19.686 23.9251 19.6446 23.8902 19.6098C23.8554 19.5749 23.8141 19.5473 23.7685 19.5285C23.723 19.5097 23.6743 19.5 23.625 19.5ZM18 1.5C19.1051 1.49863 20.1824 1.84644 21.078 2.49377C21.9737 3.1411 22.6419 4.05485 22.9873 5.10457C23.3327 6.15429 23.3376 7.28631 23.0014 8.339C22.6651 9.39169 22.0049 10.3112 21.1149 10.9663L21.1093 10.9705C20.5063 11.4175 19.8143 11.7296 19.0802 11.8856C18.3461 12.0417 17.587 12.038 16.8544 11.8749C16.1218 11.7119 15.4328 11.3932 14.8342 10.9405C14.2356 10.4877 13.7413 9.9116 13.3849 9.2511C13.3777 9.23207 13.3688 9.21371 13.3584 9.19621C13.0218 8.55839 12.8213 7.85762 12.7697 7.13829C12.7699 7.13362 12.7723 7.12973 12.7723 7.12501C12.7723 7.11714 12.7683 7.11055 12.7678 7.10281C12.76 6.98566 12.75 6.86907 12.75 6.75C12.7516 5.3581 13.3052 4.02365 14.2894 3.03942C15.2736 2.05519 16.6081 1.50157 18 1.5ZM14.0447 11.25H5.625C5.52556 11.2499 5.43022 11.2104 5.35991 11.1401C5.2896 11.0698 5.25007 10.9744 5.25 10.875V10.125C5.25007 10.0256 5.2896 9.93023 5.35991 9.85991C5.43022 9.7896 5.52556 9.75007 5.625 9.75H12.8118C13.1391 10.3133 13.5555 10.8198 14.0447 11.25ZM12.4418 9H5.625C5.32673 9.00033 5.04077 9.11896 4.82986 9.32987C4.61896 9.54078 4.50033 9.82674 4.5 10.125V10.875C4.50033 11.1733 4.61896 11.4592 4.82986 11.6701C5.04077 11.881 5.32673 11.9997 5.625 12H15.1017C16.0058 12.5022 17.0249 12.7605 18.059 12.7497C19.0932 12.7388 20.1067 12.4592 21 11.9382V18H3V7.5H12.0521C12.116 8.01485 12.247 8.51913 12.4418 9ZM1.5 7.125C1.50033 6.82674 1.61896 6.54078 1.82986 6.32987C2.04077 6.11896 2.32673 6.00033 2.625 6H12.0521C12.0191 6.24867 12.0017 6.49916 12 6.75H2.625C2.57575 6.74998 2.52697 6.75966 2.48146 6.77849C2.43595 6.79733 2.3946 6.82495 2.35977 6.85978C2.32494 6.8946 2.29732 6.93595 2.27849 6.98146C2.25965 7.02697 2.24997 7.07575 2.25 7.125V18.375C2.24997 18.4243 2.25965 18.473 2.27849 18.5185C2.29732 18.5641 2.32494 18.6054 2.35977 18.6402C2.3946 18.6751 2.43595 18.7027 2.48146 18.7215C2.52697 18.7404 2.57575 18.75 2.625 18.75H21.375C21.4243 18.75 21.473 18.7404 21.5185 18.7215C21.5641 18.7027 21.6054 18.6751 21.6402 18.6402C21.6751 18.6054 21.7027 18.5641 21.7215 18.5185C21.7403 18.473 21.75 18.4243 21.75 18.375V11.4263C22.0202 11.2079 22.2712 10.9667 22.5 10.7053V19.5H16.125C15.8267 19.5003 15.5408 19.619 15.3299 19.8299C15.119 20.0408 15.0003 20.3267 15 20.625C14.9999 20.7244 14.9604 20.8198 14.8901 20.8901C14.8198 20.9604 14.7244 20.9999 14.625 21H9.375C9.27556 20.9999 9.18022 20.9604 9.10991 20.8901C9.0396 20.8198 9.00007 20.7244 9 20.625C8.99967 20.3267 8.88104 20.0408 8.67014 19.8299C8.45923 19.619 8.17327 19.5003 7.875 19.5H1.5V7.125ZM23.25 21.375C23.2497 21.6733 23.131 21.9592 22.9201 22.1701C22.7092 22.381 22.4233 22.4997 22.125 22.5H1.875C1.57673 22.4997 1.29077 22.381 1.07986 22.1701C0.868957 21.9592 0.750326 21.6733 0.75 21.375V20.25H7.875C7.97444 20.2501 8.06978 20.2896 8.14009 20.3599C8.2104 20.4302 8.24993 20.5256 8.25 20.625C8.25033 20.9233 8.36896 21.2092 8.57986 21.4201C8.79077 21.631 9.07673 21.7497 9.375 21.75H14.625C14.9233 21.7497 15.2092 21.631 15.4201 21.4201C15.631 21.2092 15.7497 20.9233 15.75 20.625C15.7501 20.5256 15.7896 20.4302 15.8599 20.3599C15.9302 20.2896 16.0256 20.2501 16.125 20.25H23.25V21.375ZM11.625 15.75H4.875C4.77554 15.75 4.68016 15.7895 4.60984 15.8598C4.53951 15.9302 4.5 16.0255 4.5 16.125C4.5 16.2245 4.53951 16.3198 4.60984 16.3902C4.68016 16.4605 4.77554 16.5 4.875 16.5H11.625C11.7245 16.5 11.8198 16.4605 11.8902 16.3902C11.9605 16.3198 12 16.2245 12 16.125C12 16.0255 11.9605 15.9302 11.8902 15.8598C11.8198 15.7895 11.7245 15.75 11.625 15.75ZM17.8597 7.86622C17.907 7.87205 17.9546 7.87499 18.0022 7.875C18.2343 7.87475 18.4607 7.80247 18.65 7.66814C18.8393 7.5338 18.9823 7.34403 19.0592 7.125H19.6875C19.787 7.125 19.8823 7.0855 19.9527 7.01517C20.023 6.94484 20.0625 6.84946 20.0625 6.75C20.0625 6.65055 20.023 6.55517 19.9527 6.48484C19.8823 6.41451 19.787 6.375 19.6875 6.375H19.0557C19.0025 6.21632 18.9133 6.07205 18.7953 5.95339C18.6772 5.83473 18.5334 5.74487 18.375 5.69079V4.6875C18.375 4.58805 18.3355 4.49267 18.2652 4.42234C18.1948 4.35201 18.0995 4.3125 18 4.3125C17.9005 4.3125 17.8052 4.35201 17.7348 4.42234C17.6645 4.49267 17.625 4.58805 17.625 4.6875V5.69486C17.3867 5.77902 17.1837 5.9412 17.0491 6.15511C16.9144 6.36902 16.8559 6.62214 16.8831 6.87344C16.9103 7.12474 17.0215 7.3595 17.1987 7.53969C17.376 7.71988 17.6089 7.83494 17.8597 7.86622ZM17.77 6.45411C17.8354 6.40277 17.9161 6.37491 17.9993 6.375C18.0152 6.37508 18.0311 6.37606 18.0469 6.37794C18.1331 6.38866 18.213 6.42897 18.2728 6.49199C18.3327 6.555 18.3689 6.63683 18.3751 6.72352C18.3814 6.81021 18.3575 6.89639 18.3073 6.96739C18.2572 7.03838 18.1839 7.08978 18.1001 7.11284C18.0163 7.1359 17.9271 7.12918 17.8477 7.09382C17.7683 7.05847 17.7036 6.99668 17.6647 6.91898C17.6258 6.84127 17.615 6.75247 17.6342 6.6677C17.6534 6.58293 17.7014 6.50744 17.77 6.45411H17.77ZM4.875 14.25H13.125C13.2245 14.25 13.3198 14.2105 13.3902 14.1402C13.4605 14.0698 13.5 13.9745 13.5 13.875C13.5 13.7755 13.4605 13.6802 13.3902 13.6098C13.3198 13.5395 13.2245 13.5 13.125 13.5H4.875C4.77554 13.5 4.68016 13.5395 4.60984 13.6098C4.53951 13.6802 4.5 13.7755 4.5 13.875C4.5 13.9745 4.53951 14.0698 4.60984 14.1402C4.68016 14.2105 4.77554 14.25 4.875 14.25ZM18 11.25C18.89 11.25 19.76 10.9861 20.5001 10.4916C21.2401 9.99715 21.8169 9.29435 22.1575 8.47208C22.4981 7.64981 22.5872 6.74501 22.4135 5.8721C22.2399 4.99918 21.8113 4.19736 21.182 3.56802C20.5526 2.93869 19.7508 2.5101 18.8779 2.33647C18.005 2.16284 17.1002 2.25195 16.2779 2.59255C15.4557 2.93314 14.7529 3.50992 14.2584 4.24994C13.7639 4.98996 13.5 5.85999 13.5 6.75C13.5013 7.94308 13.9758 9.08692 14.8195 9.93055C15.6631 10.7742 16.8069 11.2487 18 11.25ZM18 3C18.7417 3 19.4667 3.21994 20.0834 3.63199C20.7001 4.04405 21.1807 4.62972 21.4645 5.31494C21.7484 6.00016 21.8226 6.75416 21.6779 7.48159C21.5333 8.20902 21.1761 8.87721 20.6516 9.40166C20.1272 9.9261 19.459 10.2833 18.7316 10.4279C18.0042 10.5726 17.2502 10.4984 16.5649 10.2146C15.8797 9.93073 15.294 9.45008 14.882 8.83339C14.4699 8.21671 14.25 7.49168 14.25 6.75C14.2512 5.7558 14.6466 4.80265 15.3496 4.09965C16.0526 3.39664 17.0058 3.00117 18 3Z" fill="#02044A"/>
</svg>
