<svg width="20" height="21" viewBox="0 0 20 21" fill="none" xmlns="http://www.w3.org/2000/svg">
<path d="M17 2.00025H15V1.00013C15 0.734876 14.8946 0.48049 14.7071 0.29293C14.5196 0.10537 14.2652 0 14 0C13.7348 0 13.4804 0.10537 13.2929 0.29293C13.1054 0.48049 13 0.734876 13 1.00013V2.00025H7V1.00013C7 0.734876 6.89464 0.48049 6.70711 0.29293C6.51957 0.10537 6.26522 0 6 0C5.73478 0 5.48043 0.10537 5.29289 0.29293C5.10536 0.48049 5 0.734876 5 1.00013V2.00025H3C2.20435 2.00025 1.44129 2.31636 0.87868 2.87904C0.316071 3.44172 0 4.20488 0 5.00063V17.0021C0 17.7979 0.316071 18.561 0.87868 19.1237C1.44129 19.6864 2.20435 20.0025 3 20.0025H17C17.7956 20.0025 18.5587 19.6864 19.1213 19.1237C19.6839 18.561 20 17.7979 20 17.0021V5.00063C20 4.20488 19.6839 3.44172 19.1213 2.87904C18.5587 2.31636 17.7956 2.00025 17 2.00025ZM18 17.0021C18 17.2674 17.8946 17.5218 17.7071 17.7093C17.5196 17.8969 17.2652 18.0023 17 18.0023H3C2.73478 18.0023 2.48043 17.8969 2.29289 17.7093C2.10536 17.5218 2 17.2674 2 17.0021V10.0013H18V17.0021ZM18 8.001H2V5.00063C2 4.73538 2.10536 4.48099 2.29289 4.29343C2.48043 4.10587 2.73478 4.0005 3 4.0005H5V5.00063C5 5.26588 5.10536 5.52026 5.29289 5.70782C5.48043 5.89538 5.73478 6.00075 6 6.00075C6.26522 6.00075 6.51957 5.89538 6.70711 5.70782C6.89464 5.52026 7 5.26588 7 5.00063V4.0005H13V5.00063C13 5.26588 13.1054 5.52026 13.2929 5.70782C13.4804 5.89538 13.7348 6.00075 14 6.00075C14.2652 6.00075 14.5196 5.89538 14.7071 5.70782C14.8946 5.52026 15 5.26588 15 5.00063V4.0005H17C17.2652 4.0005 17.5196 4.10587 17.7071 4.29343C17.8946 4.48099 18 4.73538 18 5.00063V8.001Z" fill="#02044A"/>
</svg>
