<svg width="20" height="9" viewBox="0 0 20 9" fill="none" xmlns="http://www.w3.org/2000/svg">
<path d="M7.282 0.000976562C8.248 0.000976562 9.032 0.785075 9.032 1.7512V6.25176C9.032 6.71595 8.84763 7.16112 8.51944 7.48935C8.19125 7.81758 7.74613 8.00198 7.282 8.00198H1.75C1.28587 8.00198 0.840752 7.81758 0.512563 7.48935C0.184375 7.16112 0 6.71595 0 6.25176V1.7512C1.64046e-05 1.31195 0.165171 0.888769 0.46268 0.565656C0.760189 0.242542 1.1683 0.0431205 1.606 0.00697688L1.75 0.000976562H7.282ZM18.25 0.000976562C19.216 0.000976562 20 0.785075 20 1.7512V6.25176C20 6.71595 19.8156 7.16112 19.4874 7.48935C19.1592 7.81758 18.7141 8.00198 18.25 8.00198H12.718C12.2539 8.00198 11.8088 7.81758 11.4806 7.48935C11.1524 7.16112 10.968 6.71595 10.968 6.25176V1.7512C10.968 0.785075 11.752 0.000976562 12.718 0.000976562H18.25ZM7.282 1.50116H1.75L1.693 1.50817C1.63816 1.52101 1.58926 1.552 1.55423 1.59611C1.5192 1.64022 1.50009 1.69487 1.5 1.7512V6.25176C1.5 6.38978 1.612 6.50179 1.75 6.50179H7.282C7.3483 6.50179 7.41189 6.47545 7.45878 6.42856C7.50566 6.38167 7.532 6.31807 7.532 6.25176V1.7512C7.532 1.68488 7.50566 1.62129 7.45878 1.5744C7.41189 1.52751 7.3483 1.50116 7.282 1.50116ZM18.25 1.50116H12.718C12.6517 1.50116 12.5881 1.52751 12.5412 1.5744C12.4943 1.62129 12.468 1.68488 12.468 1.7512V6.25176C12.468 6.38978 12.58 6.50179 12.718 6.50179H18.25C18.3163 6.50179 18.3799 6.47545 18.4268 6.42856C18.4737 6.38167 18.5 6.31807 18.5 6.25176V1.7512C18.5 1.68488 18.4737 1.62129 18.4268 1.5744C18.3799 1.52751 18.3163 1.50116 18.25 1.50116Z" fill="#02044A"/>
</svg>
