<svg width="26" height="28" viewBox="0 0 26 28" fill="none" xmlns="http://www.w3.org/2000/svg">
<path d="M6.59998 8.59999C6.59998 8.38781 6.68426 8.18433 6.83429 8.0343C6.98432 7.88427 7.1878 7.79999 7.39998 7.79999H12.2C12.4121 7.79999 12.6156 7.88427 12.7657 8.0343C12.9157 8.18433 13 8.38781 13 8.59999C13 8.81216 12.9157 9.01564 12.7657 9.16567C12.6156 9.3157 12.4121 9.39999 12.2 9.39999H7.39998C7.1878 9.39999 6.98432 9.3157 6.83429 9.16567C6.68426 9.01564 6.59998 8.81216 6.59998 8.59999Z" fill="#3A3A3A"/>
<path d="M7.39998 11C7.1878 11 6.98432 11.0843 6.83429 11.2343C6.68426 11.3843 6.59998 11.5878 6.59998 11.8C6.59998 12.0122 6.68426 12.2157 6.83429 12.3657C6.98432 12.5157 7.1878 12.6 7.39998 12.6H10.6C10.8121 12.6 11.0156 12.5157 11.1657 12.3657C11.3157 12.2157 11.4 12.0122 11.4 11.8C11.4 11.5878 11.3157 11.3843 11.1657 11.2343C11.0156 11.0843 10.8121 11 10.6 11H7.39998Z" fill="#3A3A3A"/>
<path d="M9.80001 0.599976C8.13449 0.599415 6.49748 1.03218 5.04982 1.85573C3.60216 2.67929 2.39367 3.86531 1.54309 5.29726C0.69251 6.7292 0.229105 8.3578 0.198408 10.023C0.167712 11.6883 0.570781 13.3329 1.36801 14.7952L0.23201 18.7792C0.192037 18.9191 0.190972 19.0672 0.22893 19.2077C0.266887 19.3481 0.342429 19.4756 0.447426 19.5763C0.552423 19.677 0.682898 19.7472 0.82481 19.7793C0.966722 19.8114 1.1147 19.8041 1.25281 19.7584L4.99361 18.512C6.26858 19.2487 7.69596 19.6823 9.16531 19.7792C10.6347 19.876 12.1066 19.6336 13.4673 19.0706C14.8279 18.5076 16.0408 17.6391 17.0121 16.5323C17.9835 15.4256 18.6872 14.1102 19.0688 12.688C19.4504 11.2657 19.4998 9.77478 19.213 8.33043C18.9262 6.88608 18.311 5.52706 17.415 4.35851C16.519 3.18995 15.3662 2.24318 14.0457 1.59144C12.7252 0.939705 11.2726 0.600468 9.80001 0.599976ZM1.80001 10.2C1.80027 8.42494 2.39086 6.7004 3.4788 5.29786C4.56674 3.89531 6.09024 2.89442 7.80945 2.45276C9.52866 2.0111 11.3459 2.15375 12.9752 2.85825C14.6044 3.56275 15.9531 4.7891 16.8089 6.34422C17.6646 7.89934 17.9789 9.6949 17.7022 11.4482C17.4255 13.2016 16.5735 14.8131 15.2804 16.0291C13.9874 17.2451 12.3266 17.9965 10.5596 18.165C8.79253 18.3335 7.01965 17.9096 5.52001 16.96C5.4197 16.8964 5.30649 16.8559 5.18859 16.8415C5.07069 16.8271 4.95107 16.8392 4.83841 16.8768L2.18561 17.7616L3.00161 14.912C3.03134 14.807 3.0393 14.6971 3.02499 14.589C3.01068 14.4808 2.97441 14.3768 2.91841 14.2832C2.18379 13.048 1.79731 11.6371 1.80001 10.2Z" fill="#3A3A3A"/>
<path d="M16.6416 22.9152L12.7984 20.9952C13.5024 20.7984 14.1792 20.536 14.8192 20.2144L17 21.3056L24.2 17.7056V16.6C24.2 16.1756 24.0314 15.7687 23.7313 15.4686C23.4313 15.1685 23.0243 15 22.6 15H19.9216C20.1664 14.488 20.3712 13.952 20.536 13.4H22.6C23.4486 13.4 24.2626 13.7371 24.8627 14.3372C25.4628 14.9373 25.7999 15.7513 25.7999 16.6V24.6C25.7999 25.4487 25.4628 26.2626 24.8627 26.8627C24.2626 27.4628 23.4486 27.8 22.6 27.8H11.4C10.5513 27.8 9.73733 27.4628 9.13721 26.8627C8.53709 26.2626 8.19995 25.4487 8.19995 24.6V21.288C8.72315 21.3616 9.25595 21.4 9.79995 21.4V24.6C9.79995 25.0243 9.96852 25.4313 10.2686 25.7313C10.5686 26.0314 10.9756 26.2 11.4 26.2H22.6C23.0243 26.2 23.4313 26.0314 23.7313 25.7313C24.0314 25.4313 24.2 25.0243 24.2 24.6V19.4944L17.3584 22.9152C17.2471 22.9709 17.1244 22.9999 17 22.9999C16.8755 22.9999 16.7528 22.9709 16.6416 22.9152Z" fill="#3A3A3A"/>
</svg>
