<svg width="32" height="24" viewBox="0 0 32 24" fill="none" xmlns="http://www.w3.org/2000/svg">
<path d="M31.9867 0H0V24H32L31.9867 0ZM10.6667 4C12.88 4 14.6667 5.78667 14.6667 8C14.6667 10.2133 12.88 12 10.6667 12C8.45333 12 6.66667 10.2133 6.66667 8C6.66667 5.78667 8.45333 4 10.6667 4ZM18.6667 20H2.66667V18.6667C2.66667 16 8 14.5333 10.6667 14.5333C13.3333 14.5333 18.6667 16 18.6667 18.6667V20ZM23.8 14.6667H25.9867L28 17.3333L25.3467 19.9867C23.5803 18.6629 22.3006 16.7927 21.7067 14.6667C21.4667 13.8133 21.3333 12.92 21.3333 12C21.3333 11.08 21.4667 10.1867 21.7067 9.33333C22.2971 7.20571 23.5775 5.33444 25.3467 4.01333L28 6.66667L25.9867 9.33333H23.8C23.5067 10.1733 23.3333 11.0667 23.3333 12C23.3333 12.9333 23.5067 13.8267 23.8 14.6667Z" fill="#3A3A3A"/>
</svg>
