<svg xmlns="http://www.w3.org/2000/svg" width="36" height="27" viewBox="0 0 36 27">
  <path id="Icon_material-contact-phone" data-name="Icon material-contact-phone" d="M33,4.5H3a3.009,3.009,0,0,0-3,3v21a3.009,3.009,0,0,0,3,3H33a3,3,0,0,0,2.985-3L36,7.5A3.009,3.009,0,0,0,33,4.5ZM12,9a4.5,4.5,0,1,1-4.5,4.5A4.494,4.494,0,0,1,12,9Zm9,18H3V25.5c0-3,6-4.65,9-4.65s9,1.65,9,4.65Zm5.775-6h2.46L31.5,24l-2.985,2.985A11.267,11.267,0,0,1,24.42,21a10.924,10.924,0,0,1,0-6,11.211,11.211,0,0,1,4.095-5.985L31.5,12l-2.265,3h-2.46a8.834,8.834,0,0,0,0,6Z" transform="translate(0 -4.5)" fill="#707070"/>
</svg>
