<svg width="139" height="161" viewBox="0 0 139 161" fill="none" xmlns="http://www.w3.org/2000/svg">
<path opacity="0.44" d="M57.5955 3.80041C64.9724 -0.413642 74.0276 -0.413646 81.4045 3.8004L116.604 23.908C122.684 27.3812 126.944 33.3366 128.267 40.2127L138.313 92.422C139.51 98.6446 138.198 105.088 134.663 110.347L108.089 149.874C103.631 156.506 96.1635 160.483 88.172 160.483H50.828C42.8365 160.483 35.3692 156.506 30.9106 149.874L4.33732 110.347C0.801888 105.088 -0.510314 98.6446 0.687004 92.422L10.7328 40.2127C12.0559 33.3366 16.3159 27.3813 22.396 23.908L57.5955 3.80041Z" fill="url(#paint0_linear)"/>
<defs>
<linearGradient id="paint0_linear" x1="69.5" y1="-3" x2="69.5" y2="169" gradientUnits="userSpaceOnUse">
<stop offset="0.0208333" stop-color="#FB2121" stop-opacity="0"/>
<stop offset="0.677083" stop-color="white"/>
</linearGradient>
</defs>
</svg>
