<svg width="32" height="32" viewBox="0 0 32 32" fill="none" xmlns="http://www.w3.org/2000/svg">
<path d="M27.5549 4.44434H4.44379C3.9723 4.44434 3.52011 4.63164 3.18671 4.96503C2.85332 5.29843 2.66602 5.75062 2.66602 6.22211V25.7777C2.66602 26.2492 2.85332 26.7013 3.18671 27.0347C3.52011 27.3681 3.9723 27.5554 4.44379 27.5554H27.5549C28.0264 27.5554 28.4786 27.3681 28.812 27.0347C29.1454 26.7013 29.3327 26.2492 29.3327 25.7777V6.22211C29.3327 5.75062 29.1454 5.29843 28.812 4.96503C28.4786 4.63164 28.0264 4.44434 27.5549 4.44434ZM11.5549 25.7777H4.44379V6.22211H11.5549V25.7777ZM20.4438 25.7777H13.3327V6.22211H20.4438V25.7777Z" fill="white"/>
</svg>
