<svg width="43" height="33" viewBox="0 0 43 33" fill="none" xmlns="http://www.w3.org/2000/svg">
<path d="M11 22.6V7.25H29.5L31.475 5.25H9V22.6H11Z" fill="#A8A8A8"/>
<path d="M6.5 2.75H36.5V22.75H39V2.125C39 1.62772 38.8025 1.15081 38.4508 0.799175C38.0992 0.447544 37.6223 0.25 37.125 0.25H5.875C5.37772 0.25 4.9008 0.447544 4.54917 0.799175C4.19754 1.15081 4 1.62772 4 2.125V22.75H6.5V2.75Z" fill="#A8A8A8"/>
<path d="M0.25 25.25V29.5C0.25 30.362 0.59241 31.1886 1.2019 31.7981C1.8114 32.4076 2.63805 32.75 3.5 32.75H39.425C40.287 32.75 41.1136 32.4076 41.7231 31.7981C42.3326 31.1886 42.675 30.362 42.675 29.5V25.25H0.25ZM40.25 29.5C40.25 29.6989 40.171 29.8897 40.0303 30.0303C39.8897 30.171 39.6989 30.25 39.5 30.25H3.45C3.25109 30.25 3.06032 30.171 2.91967 30.0303C2.77902 29.8897 2.7 29.6989 2.7 29.5V27.1625H15.1375C15.2938 27.5312 15.5546 27.8461 15.8878 28.0682C16.2211 28.2904 16.612 28.4101 17.0125 28.4125H25.925C26.3255 28.4101 26.7164 28.2904 27.0497 28.0682C27.3829 27.8461 27.6437 27.5312 27.8 27.1625H40.25V29.5Z" fill="#A8A8A8"/>
</svg>
