<svg width="32" height="24" viewBox="0 0 32 24" fill="none" xmlns="http://www.w3.org/2000/svg">
<path d="M8.53312 16.3377V5.42211H21.6887L23.0931 3.99989H7.11089V16.3377H8.53312Z" fill="#02044A"/>
<path d="M5.33312 2.22211H26.6664V16.4443H28.4442V1.77767C28.4442 1.42405 28.3038 1.08491 28.0537 0.83486C27.8037 0.584812 27.4645 0.444336 27.1109 0.444336H4.88867C4.53505 0.444336 4.19591 0.584812 3.94586 0.83486C3.69581 1.08491 3.55534 1.42405 3.55534 1.77767V16.4443H5.33312V2.22211Z" fill="#02044A"/>
<path d="M0.888672 18.2221V21.2443C0.888672 21.8573 1.13216 22.4451 1.56558 22.8785C1.999 23.312 2.58684 23.5554 3.19978 23.5554H28.7464C29.3594 23.5554 29.9472 23.312 30.3807 22.8785C30.8141 22.4451 31.0576 21.8573 31.0576 21.2443V18.2221H0.888672ZM29.3331 21.2443C29.3331 21.3858 29.2769 21.5214 29.1769 21.6215C29.0769 21.7215 28.9412 21.7777 28.7998 21.7777H3.16423C3.02278 21.7777 2.88712 21.7215 2.7871 21.6215C2.68708 21.5214 2.63089 21.3858 2.63089 21.2443V19.5821H11.4753C11.5865 19.8443 11.772 20.0682 12.0089 20.2262C12.2459 20.3842 12.5239 20.4693 12.8087 20.471H19.1465C19.4312 20.4693 19.7093 20.3842 19.9462 20.2262C20.1832 20.0682 20.3687 19.8443 20.4798 19.5821H29.3331V21.2443Z" fill="#02044A"/>
</svg>
