<svg width="31" height="38" viewBox="0 0 31 38" fill="none" xmlns="http://www.w3.org/2000/svg">
<path d="M0 4.6875C0 3.4443 0.49386 2.25201 1.37294 1.37294C2.25201 0.49386 3.4443 0 4.6875 0H26.25C26.8656 0 27.4751 0.121246 28.0438 0.356815C28.6125 0.592384 29.1293 0.937662 29.5646 1.37294C29.9998 1.80821 30.3451 2.32496 30.5807 2.89367C30.8163 3.46238 30.9375 4.07193 30.9375 4.6875V31.4062C30.9375 31.7792 30.7893 32.1369 30.5256 32.4006C30.2619 32.6643 29.9042 32.8125 29.5312 32.8125H2.8125C2.8125 33.3098 3.01004 33.7867 3.36168 34.1383C3.71331 34.49 4.19022 34.6875 4.6875 34.6875H29.5312C29.9042 34.6875 30.2619 34.8357 30.5256 35.0994C30.7893 35.3631 30.9375 35.7208 30.9375 36.0938C30.9375 36.4667 30.7893 36.8244 30.5256 37.0881C30.2619 37.3518 29.9042 37.5 29.5312 37.5H4.6875C3.4443 37.5 2.25201 37.0061 1.37294 36.1271C0.49386 35.248 0 34.0557 0 32.8125V4.6875ZM28.125 30V4.6875C28.125 4.19022 27.9275 3.71331 27.5758 3.36167C27.2242 3.01004 26.7473 2.8125 26.25 2.8125H4.6875C4.19022 2.8125 3.71331 3.01004 3.36168 3.36167C3.01004 3.71331 2.8125 4.19022 2.8125 4.6875V30H28.125Z" fill="#A8A8A8"/>
</svg>
