<svg width="25" height="25" viewBox="0 0 25 25" fill="none" xmlns="http://www.w3.org/2000/svg">
<path d="M12.5 13.542C14.2259 13.542 15.625 12.1429 15.625 10.417C15.625 8.6911 14.2259 7.29199 12.5 7.29199C10.7741 7.29199 9.375 8.6911 9.375 10.417C9.375 12.1429 10.7741 13.542 12.5 13.542Z" stroke="#02044A" stroke-width="2" stroke-linecap="round" stroke-linejoin="round"/>
<path d="M12.5003 2.0835C10.2902 2.0835 8.17057 2.96147 6.60777 4.52427C5.04497 6.08708 4.16699 8.20669 4.16699 10.4168C4.16699 12.3877 4.58574 13.6772 5.72949 15.1043L12.5003 22.9168L19.2712 15.1043C20.4149 13.6772 20.8337 12.3877 20.8337 10.4168C20.8337 8.20669 19.9557 6.08708 18.3929 4.52427C16.8301 2.96147 14.7105 2.0835 12.5003 2.0835V2.0835Z" stroke="#02044A" stroke-width="2" stroke-linecap="round" stroke-linejoin="round"/>
</svg>
