<svg width="24" height="18" viewBox="0 0 24 18" fill="none" xmlns="http://www.w3.org/2000/svg">
<path d="M4.79903 3.49961H5.10272H5.1855H5.85503H10.655H11.2364C11.2596 3.56862 11.282 3.63557 11.3035 3.69961H5.80703C5.26802 3.69961 4.34554 3.9547 4.14146 4.938L4.14106 4.93995C3.9276 5.98946 3.2677 8.71632 2.65753 11.1946C2.45729 12.0078 2.26289 12.7924 2.09214 13.4792L0.603617 3.94695C0.590288 3.77683 0.643234 3.67026 0.701136 3.60689C0.766564 3.53529 0.855159 3.49961 0.935031 3.49961H4.79903ZM5.26207 3.12019L4.79903 2.99961L5.26208 3.12018L5.26207 3.12019ZM5.39404 2.80599L5.32008 2.98209L5.33173 2.93707C5.36164 2.82117 5.40267 2.66157 5.44711 2.48684C5.53476 2.14217 5.63767 1.73081 5.6937 1.48242C5.7573 1.22815 5.95466 1.09961 6.16703 1.09961H10.139C10.2999 1.09961 10.3675 1.14132 10.4086 1.17992C10.4637 1.2317 10.5325 1.3385 10.5926 1.55917L10.5946 1.56621L10.5967 1.57319C10.6248 1.6656 10.7283 1.97893 10.8557 2.36141C10.801 2.27835 10.7383 2.18808 10.6691 2.09707C10.543 1.93108 10.383 1.74598 10.1994 1.5979C10.0249 1.45719 9.76725 1.29961 9.45503 1.29961H6.89903C6.57995 1.29961 6.33027 1.47237 6.17092 1.6179C6.00275 1.77148 5.86219 1.9614 5.75435 2.12859C5.6442 2.29937 5.5551 2.46709 5.49411 2.5903C5.46334 2.65247 5.43904 2.70468 5.42215 2.74205C5.41368 2.76077 5.40704 2.77585 5.40232 2.78669L5.3967 2.79972L5.395 2.80373L5.39442 2.80508L5.39421 2.80559L5.39412 2.80581C5.39408 2.8059 5.39404 2.80599 5.85503 2.99961L5.39404 2.80599ZM10.655 2.99961C10.8369 2.90502 10.9442 2.8492 11.0075 2.81626C11.0075 2.81627 11.0075 2.81629 11.0075 2.8163L10.655 2.99961ZM6.3655 6.11515L5.87903 5.99961L6.36552 6.11506L6.36793 6.10489L6.36992 6.09462C6.37755 6.05522 6.40159 6.01195 6.45999 5.97165C6.52162 5.92913 6.61036 5.89961 6.70703 5.89961H11.999H12.308L12.4462 5.62322L13.2863 3.94303C13.2944 3.93093 13.3077 3.91165 13.3259 3.88759C13.3629 3.83833 13.4168 3.77339 13.4836 3.70996C13.6283 3.57236 13.7708 3.49961 13.895 3.49961H18.407C18.4858 3.49961 18.5644 3.53555 18.6334 3.60303C18.6647 3.63362 18.6865 3.66396 18.699 3.68591V4.66902C18.6766 4.62688 18.6524 4.58395 18.6263 4.54079C18.4148 4.19123 17.9957 3.69961 17.303 3.69961H14.555C14.2422 3.69961 13.9729 3.83875 13.7748 3.97975C13.5709 4.12488 13.392 4.30806 13.2495 4.47468C13.105 4.64364 12.9857 4.81024 12.903 4.93332C12.8614 4.99533 12.8283 5.04745 12.8051 5.0848C12.7936 5.1035 12.7844 5.11857 12.7779 5.12941L12.7702 5.14245L12.7678 5.14647L12.767 5.14783L12.7667 5.14835L12.7666 5.14856C12.7666 5.14866 12.7665 5.14875 13.199 5.39961L12.7665 5.14875L12.331 5.89961H13.199H18.455H18.699H19.0954H19.199H23.075C23.1574 5.89961 23.2329 5.93124 23.2745 5.97156C23.2927 5.98925 23.3071 6.01063 23.3167 6.04008C23.3259 6.06853 23.3347 6.11732 23.3254 6.19421L23.3243 6.19989L23.3117 6.26316L23.2636 6.50567L23.0878 7.39118C22.9401 8.13534 22.7376 9.15493 22.5186 10.2566C22.0809 12.4587 21.5774 14.9881 21.3134 16.3023C21.2676 16.5165 21.1742 16.6579 21.0642 16.7468C20.9538 16.8361 20.7932 16.8996 20.567 16.8996H3.53356C3.56296 16.8596 3.59146 16.8187 3.61905 16.777C4.02661 16.1713 4.22016 15.3427 4.30551 14.8928C4.38435 14.5128 4.8959 12.3325 5.39217 10.2289C5.64038 9.17686 5.88372 8.14838 6.06501 7.3829L6.28325 6.46191L6.34406 6.20549L6.36005 6.13812L6.36414 6.12088L6.36517 6.11652L6.36543 6.11542L6.3655 6.11515ZM18.455 5.39961C18.5559 5.3744 18.6358 5.35442 18.699 5.33859V5.33861L18.455 5.39961ZM17.9704 5.52264C17.9705 5.52288 17.9705 5.52286 17.9704 5.52257L17.9704 5.52264Z" stroke="#02044A"/>
</svg>
