<svg width="45" height="33" viewBox="0 0 45 33" fill="none" xmlns="http://www.w3.org/2000/svg">
<path d="M8.99916 5.75H9.38563L9.48302 5.37601L8.99916 5.25L9.48303 5.37598L9.48305 5.37589L9.48313 5.37559L9.48344 5.37438L9.48467 5.36968L9.48944 5.35131L9.50771 5.28097L9.57435 5.0234C9.63035 4.80644 9.70714 4.50771 9.7903 4.18073C9.95542 3.53145 10.1476 2.7629 10.2509 2.30449C10.4197 1.61984 10.9739 1.25 11.5642 1.25H19.0117C19.4035 1.25 19.6444 1.35733 19.8167 1.51931C20.003 1.69446 20.1611 1.98239 20.2843 2.43406L20.2862 2.4411L20.2883 2.44808C20.3697 2.7155 20.8063 4.025 21.2178 5.25408C21.4246 5.87163 21.6265 6.47297 21.7766 6.9199L21.8036 7H10.8892C9.96165 7 8.51417 7.43359 8.19459 8.97339L8.19419 8.97535C7.79173 10.9541 6.5517 16.0776 5.40866 20.7202C4.83788 23.0384 4.29239 25.2323 3.88958 26.8467C3.86772 26.9343 3.84628 27.0202 3.82528 27.1044L0.698091 7.07834C0.621699 6.21378 1.21667 5.75 1.75416 5.75H8.99916ZM11.5106 10.9906C11.5106 10.9905 11.5106 10.9905 11.0242 10.875L11.5106 10.9905L11.5131 10.9803L11.515 10.97C11.5912 10.5766 12.0182 10.25 12.5767 10.25H22.4992H22.8082L22.9464 9.97361L24.533 6.80036C24.5335 6.79955 24.5341 6.79871 24.5346 6.79784C24.5383 6.79209 24.543 6.78493 24.5486 6.77651C24.5678 6.74778 24.5977 6.70461 24.6374 6.65183C24.7175 6.54547 24.8344 6.40441 24.9812 6.26485C25.286 5.975 25.6569 5.75 26.0542 5.75H34.5142C34.8029 5.75 35.0548 5.88307 35.2445 6.06867C35.3388 6.16091 35.4089 6.25809 35.4529 6.34034C35.4921 6.4136 35.4983 6.45096 35.4991 6.45084C35.4991 6.45084 35.4991 6.4508 35.4992 6.45073V9.75V10.25H35.9992H43.2667C43.517 10.25 43.7736 10.342 43.9451 10.5083C44.0985 10.6571 44.2222 10.9009 44.1683 11.31L44.1632 11.3357L44.1396 11.4543L44.0494 11.909L43.7198 13.5694C43.4428 14.9647 43.0631 16.8765 42.6525 18.9422C41.8315 23.0725 40.887 27.8176 40.392 30.2815C40.2884 30.7687 40.0663 31.1277 39.7714 31.3662C39.4759 31.6051 39.0738 31.75 38.5642 31.75H5.64994C5.93721 31.4884 6.19657 31.1823 6.4226 30.84C7.13484 29.7826 7.48585 28.3028 7.64466 27.4646C7.79182 26.7535 8.75481 22.6493 9.68549 18.7045C10.1509 16.7317 10.6072 14.8032 10.9471 13.3678L11.3564 11.6409L11.4704 11.1601L11.5004 11.0337L11.5081 11.0014L11.51 10.9932L11.5105 10.9911L11.5106 10.9906ZM19.9792 5.75H20.8027L20.4228 5.01932L19.9792 5.25C20.4228 5.01932 20.4227 5.01923 20.4227 5.01913L20.4225 5.01889L20.4222 5.01826L20.4212 5.01637L20.418 5.01018L20.4064 4.98852C20.3966 4.9701 20.3823 4.94386 20.3641 4.91092C20.3276 4.84509 20.2748 4.7522 20.2082 4.64119C20.0756 4.42018 19.8854 4.12262 19.6572 3.82246C19.4313 3.52522 19.1559 3.20887 18.8502 2.96236C18.5537 2.72321 18.1674 2.5 17.7292 2.5H12.9367C12.4995 2.5 12.1336 2.73839 11.8665 2.98236C11.5905 3.23437 11.3505 3.55554 11.158 3.85398C10.9632 4.15601 10.8042 4.45498 10.6945 4.67663C10.6394 4.78802 10.596 4.88124 10.5661 4.94733C10.5512 4.9804 10.5396 5.00676 10.5315 5.02529L10.5221 5.0471L10.5194 5.05336L10.5186 5.05528L10.5184 5.05594L10.5183 5.05619C10.5182 5.05629 10.5182 5.05638 10.9792 5.25L10.5182 5.05638L10.2268 5.75H10.9792H19.9792ZM34.6042 10.25H35.2445L35.0892 9.62873L34.6042 9.75C35.0892 9.62873 35.0892 9.62857 35.0891 9.62839L35.089 9.628L35.0888 9.62705L35.0882 9.62453L35.0862 9.61707L35.0797 9.59275C35.0742 9.57251 35.0662 9.54433 35.0557 9.50933C35.0347 9.43945 35.0033 9.34183 34.9605 9.22562C34.8755 8.99485 34.7424 8.68258 34.551 8.36618C34.1807 7.75412 33.5096 7 32.4442 7H27.2917C26.8345 7 26.4188 7.20477 26.0824 7.44421C25.7402 7.68777 25.431 8.0022 25.1763 8.30008C24.9196 8.60028 24.7061 8.89813 24.5573 9.11965C24.4826 9.23088 24.4235 9.32401 24.3826 9.39007C24.3621 9.42313 24.3461 9.44948 24.3351 9.46801L24.3221 9.48983L24.3184 9.4961L24.3173 9.49803L24.3169 9.49869L24.3168 9.49894C24.3167 9.49905 24.3166 9.49914 24.7492 9.75L24.3166 9.49914L23.8811 10.25H24.7492H34.6042Z" stroke="#A8A8A8"/>
</svg>
