<svg width="41" height="35" viewBox="0 0 41 35" fill="none" xmlns="http://www.w3.org/2000/svg">
<path fill-rule="evenodd" clip-rule="evenodd" d="M7.84375 0.625H5.03125V14.6875H7.84375V0.625ZM25 14.6875H16L14.875 13.1406V10.3281L16 9.0625H25L26.125 10.4688V13.2812L25 14.6875ZM10.9375 23.125H1.9375L0.8125 21.7188V18.9062L1.9375 17.5H10.9375L12.0625 18.9062V21.7188L10.9375 23.125ZM21.9063 0.625H19.0938V6.25H21.9063V0.625ZM19.0938 17.5H21.9063V34.375H19.0938V17.5ZM7.84375 25.9375H5.03125V34.375H7.84375V25.9375ZM30.0625 25.9375H39.0344L40.1594 24.5312V21.8594L39.0344 20.4531H30.0625L28.9375 21.8594V24.5312L30.0625 25.9375ZM35.9688 0.625H33.1563V17.5H35.9688V0.625ZM33.1563 28.75H35.9688V34.375H33.1563V28.75Z" fill="#A8A8A8"/>
</svg>
