<svg width="84" height="80" viewBox="0 0 84 80" fill="none" 
  xmlns="http://www.w3.org/2000/svg">
  <rect width="84" height="80" rx="25" fill="#FDECF4"/>
  <path d="M35.7769 50.2747H48.2188C48.6313 50.2747 49.0269 50.1119 49.3186 49.8221C49.6102 49.5324 49.7741 49.1393 49.7741 48.7295C49.7741 48.3197 49.6102 47.9267 49.3186 47.6369C49.0269 47.3471 48.6313 47.1843 48.2188 47.1843H35.7769C35.3645 47.1843 34.9689 47.3471 34.6772 47.6369C34.3855 47.9267 34.2217 48.3197 34.2217 48.7295C34.2217 49.1393 34.3855 49.5324 34.6772 49.8221C34.9689 50.1119 35.3645 50.2747 35.7769 50.2747Z" fill="#E83E8C" fill-opacity="0.4"/>
  <path d="M35.7769 44.0939H48.2188C48.6313 44.0939 49.0269 43.9311 49.3186 43.6413C49.6102 43.3516 49.7741 42.9585 49.7741 42.5487C49.7741 42.1389 49.6102 41.7459 49.3186 41.4561C49.0269 41.1663 48.6313 41.0035 48.2188 41.0035H35.7769C35.3645 41.0035 34.9689 41.1663 34.6772 41.4561C34.3855 41.7459 34.2217 42.1389 34.2217 42.5487C34.2217 42.9585 34.3855 43.3516 34.6772 43.6413C34.9689 43.9311 35.3645 44.0939 35.7769 44.0939Z" fill="#E83E8C" fill-opacity="0.4"/>
  <path d="M35.7769 37.9131H38.8874C39.0948 37.925 39.3023 37.8932 39.4964 37.8198C39.6906 37.7463 39.8668 37.6329 40.0137 37.487C40.1606 37.3411 40.2747 37.1659 40.3487 36.973C40.4226 36.7802 40.4546 36.574 40.4426 36.3679C40.4546 36.1619 40.4226 35.9557 40.3487 35.7628C40.2747 35.57 40.1606 35.3948 40.0137 35.2489C39.8668 35.103 39.6906 34.9896 39.4964 34.9161C39.3023 34.8427 39.0948 34.8109 38.8874 34.8227H35.7769C35.5696 34.8109 35.362 34.8427 35.1679 34.9161C34.9738 34.9896 34.7975 35.103 34.6506 35.2489C34.5037 35.3948 34.3896 35.57 34.3157 35.7628C34.2417 35.9557 34.2097 36.1619 34.2217 36.3679C34.2097 36.574 34.2417 36.7802 34.3157 36.973C34.3896 37.1659 34.5037 37.3411 34.6506 37.487C34.7975 37.6329 34.9738 37.7463 35.1679 37.8198C35.362 37.8932 35.5696 37.925 35.7769 37.9131Z" fill="#E83E8C" fill-opacity="0.4"/>
  <path d="M51.3294 56.9992H32.6665C32.0507 57.0105 31.4388 56.8984 30.8676 56.6694C30.2964 56.4405 29.7775 56.0994 29.342 55.6667C28.9064 55.234 28.5632 54.7184 28.3327 54.1509C28.1023 53.5834 27.9894 52.9755 28.0008 52.3636V27.6405C27.9894 27.0286 28.1023 26.4207 28.3327 25.8532C28.5632 25.2857 28.9064 24.7701 29.342 24.3374C29.7775 23.9047 30.2964 23.5636 30.8676 23.3347C31.4388 23.1057 32.0507 22.9936 32.6665 23.0049H45.1084C45.3276 22.9826 45.5477 23.0372 45.7305 23.1594C45.886 23.1594 46.0416 23.3139 46.1971 23.4684L55.5285 32.7396C55.5934 32.8074 55.646 32.8858 55.684 32.9714C55.722 33.057 55.7747 33.1354 55.8396 33.2032C55.9625 33.3848 56.0175 33.6035 55.9951 33.8213V52.3636C56.0065 52.9755 55.8936 53.5834 55.6631 54.1509C55.4327 54.7184 55.0895 55.234 54.6539 55.6667C54.2184 56.0994 53.6995 56.4405 53.1283 56.6694C52.557 56.8984 51.9452 57.0105 51.3294 56.9992ZM32.6665 26.0953C32.4591 26.0834 32.2516 26.1152 32.0575 26.1887C31.8633 26.2621 31.6871 26.3755 31.5402 26.5214C31.3933 26.6674 31.2792 26.8425 31.2052 27.0354C31.1313 27.2282 31.0993 27.4344 31.1113 27.6405V52.3636C31.0993 52.5697 31.1313 52.7759 31.2052 52.9687C31.2792 53.1616 31.3933 53.3367 31.5402 53.4827C31.6871 53.6286 31.8633 53.742 32.0575 53.8155C32.2516 53.8889 32.4591 53.9207 32.6665 53.9088H51.3294C51.5367 53.9207 51.7443 53.8889 51.9384 53.8155C52.1325 53.742 52.3088 53.6286 52.4557 53.4827C52.6026 53.3367 52.7167 53.1616 52.7906 52.9687C52.8645 52.7759 52.8966 52.5697 52.8846 52.3636V35.3665H45.1084C44.901 35.3784 44.6935 35.3465 44.4994 35.2731C44.3053 35.1996 44.129 35.0862 43.9821 34.9403C43.8352 34.7944 43.7211 34.6192 43.6472 34.4264C43.5732 34.2335 43.5412 34.0273 43.5532 33.8213V26.0953H32.6665ZM46.6637 28.2586V32.2761H50.7073L46.6637 28.2586Z" fill="#E83E8C"/>
</svg>
