<svg width="84" height="80" viewBox="0 0 84 80" fill="none" 
  xmlns="http://www.w3.org/2000/svg">
  <rect width="84" height="80" rx="25" fill="#E6F7F8"/>
  <path d="M40.3062 44.7811C40.6105 45.0784 41.0108 45.2529 41.4323 45.272C41.8539 45.2533 42.2543 45.0788 42.5584 44.7811L60.2537 26.7815C60.4064 26.6339 60.5279 26.4562 60.611 26.2593C60.694 26.0624 60.7368 25.8503 60.7368 25.6361C60.7368 25.4218 60.694 25.2098 60.611 25.0129C60.5279 24.816 60.4064 24.6383 60.2537 24.4907C60.1085 24.3356 59.9338 24.2122 59.7402 24.1278C59.5466 24.0435 59.3382 24 59.1277 24C58.9171 24 58.7087 24.0435 58.5152 24.1278C58.3216 24.2122 58.1469 24.3356 58.0016 24.4907L41.4323 41.3448L37.7323 37.5813C37.5869 37.4264 37.4122 37.3032 37.2186 37.219C37.0251 37.1348 36.8168 37.0913 36.6063 37.0913C36.3958 37.0913 36.1874 37.1348 35.9939 37.219C35.8004 37.3032 35.6256 37.4264 35.4802 37.5813C35.3284 37.7294 35.2076 37.9072 35.1251 38.1041C35.0425 38.3009 35 38.5127 35 38.7267C35 38.9407 35.0425 39.1525 35.1251 39.3493C35.2076 39.5461 35.3284 39.724 35.4802 39.8721L40.3062 44.7811Z" fill="#01B0BB" fill-opacity="0.4"/>
  <path d="M41.6955 57.9999C39.3698 58.0068 37.0657 57.546 34.9157 56.6439C32.7657 55.7417 30.8123 54.4162 29.1678 52.7434C27.5233 51.0706 26.2201 49.0836 25.3332 46.8967C24.4463 44.7097 23.9933 42.366 24.0001 40.0003C23.9933 37.6347 24.4463 35.291 25.3332 33.104C26.2201 30.9171 27.5233 28.9301 29.1678 27.2573C30.8123 25.5845 32.7657 24.2589 34.9157 23.3568C37.0657 22.4547 39.3698 21.9939 41.6955 22.0008C44.1997 21.9764 46.6761 22.5362 48.9345 23.6371C49.1257 23.7156 49.2983 23.8347 49.4406 23.9865C49.583 24.1384 49.6918 24.3194 49.7597 24.5174C49.9022 24.9218 49.8948 25.3651 49.7388 25.7643C49.6181 26.0509 49.4155 26.2939 49.1574 26.462C48.8992 26.63 48.5974 26.7153 48.291 26.7068C48.0706 26.7071 47.8521 26.6643 47.6475 26.5808C45.7713 25.7387 43.7462 25.2939 41.6955 25.2734C38.8247 25.2682 36.017 26.1297 33.6279 27.7488C31.2388 29.3679 29.3759 31.6718 28.2749 34.3686C27.174 37.0655 26.8846 40.034 27.4434 42.8983C28.0022 45.7625 29.3841 48.3937 31.414 50.4585C33.444 52.5234 36.0307 53.929 38.8465 54.4974C41.6624 55.0658 44.5807 54.7715 47.232 53.6516C49.8832 52.5317 52.1482 50.6367 53.7399 48.2066C55.3316 45.7764 56.1786 42.9205 56.1735 40.0003V38.5277C56.1735 38.0937 56.343 37.6775 56.6447 37.3706C56.9464 37.0637 57.3555 36.8913 57.7822 36.8913C58.2088 36.8913 58.618 37.0637 58.9197 37.3706C59.2214 37.6775 59.3908 38.0937 59.3908 38.5277V40.0003C59.3976 42.366 58.9446 44.7097 58.0577 46.8967C57.1708 49.0836 55.8677 51.0706 54.2231 52.7434C52.5786 54.4162 50.6252 55.7417 48.4752 56.6439C46.3253 57.546 44.0212 58.0068 41.6955 57.9999Z" fill="#01B0BB"/>
</svg>
