<svg width="81" height="81" viewBox="0 0 81 81" fill="none" xmlns="http://www.w3.org/2000/svg">
<rect x="1" y="0.883301" width="80" height="80" rx="25" fill="#FFF4F0"/>
<path d="M50.9958 58.9992H30.9998C30.34 59.0112 29.6845 58.8924 29.0724 58.65C28.4604 58.4076 27.9045 58.0465 27.4378 57.5883C26.9712 57.1301 26.6034 56.5842 26.3565 55.9833C26.1096 55.3824 25.9886 54.7388 26.0008 54.0909V27.9134C25.9886 27.2656 26.1096 26.622 26.3565 26.021C26.6034 25.4201 26.9712 24.8743 27.4378 24.4161C27.9045 23.9579 28.4604 23.5968 29.0724 23.3544C29.6845 23.1119 30.34 22.9932 30.9998 23.0052H44.3304C44.5653 22.9815 44.8011 23.0394 44.997 23.1688C45.1636 23.1688 45.3302 23.3324 45.4969 23.496L55.4948 33.3125C55.5644 33.3843 55.6208 33.4673 55.6615 33.558C55.7022 33.6486 55.7586 33.7316 55.8281 33.8034C55.9598 33.9957 56.0188 34.2272 55.9947 34.4578V54.0909C56.0069 54.7388 55.886 55.3824 55.6391 55.9833C55.3922 56.5842 55.0244 57.1301 54.5578 57.5883C54.0911 58.0465 53.5352 58.4076 52.9231 58.65C52.3111 58.8924 51.6556 59.0112 50.9958 58.9992ZM30.9998 26.2774C30.7776 26.2648 30.5553 26.2985 30.3473 26.3762C30.1393 26.454 29.9504 26.5741 29.7931 26.7286C29.6357 26.8831 29.5134 27.0685 29.4342 27.2727C29.355 27.4769 29.3207 27.6953 29.3335 27.9134V54.0909C29.3207 54.309 29.355 54.5274 29.4342 54.7316C29.5134 54.9358 29.6357 55.1213 29.7931 55.2758C29.9504 55.4303 30.1393 55.5504 30.3473 55.6281C30.5553 55.7059 30.7776 55.7396 30.9998 55.727H50.9958C51.2179 55.7396 51.4403 55.7059 51.6483 55.6281C51.8563 55.5504 52.0451 55.4303 52.2025 55.2758C52.3599 55.1213 52.4822 54.9358 52.5614 54.7316C52.6406 54.5274 52.6749 54.309 52.6621 54.0909V36.0939H44.3304C44.1083 36.1065 43.8859 36.0728 43.6779 35.995C43.4699 35.9173 43.281 35.7972 43.1237 35.6427C42.9663 35.4882 42.844 35.3027 42.7648 35.0985C42.6856 34.8943 42.6513 34.676 42.6641 34.4578V26.2774H30.9998ZM45.9968 28.5679V32.8217H50.3292L45.9968 28.5679Z" fill="#FF9066"/>
<path d="M40.3448 51.3557C40.5528 51.4335 40.7752 51.4672 40.9973 51.4546C41.2195 51.4672 41.4419 51.4335 41.6499 51.3557C41.8579 51.278 42.0467 51.1579 42.2041 51.0034C42.3615 50.8488 42.4838 50.6634 42.563 50.4592C42.6422 50.255 42.6765 50.0366 42.6637 49.8185V46.5463H45.9963C46.4383 46.5463 46.8621 46.3739 47.1746 46.0671C47.4871 45.7603 47.6627 45.3441 47.6627 44.9102C47.6627 44.4763 47.4871 44.0602 47.1746 43.7533C46.8621 43.4465 46.4383 43.2741 45.9963 43.2741H42.6637V40.0019C42.6765 39.7838 42.6422 39.5655 42.563 39.3612C42.4838 39.157 42.3615 38.9716 42.2041 38.8171C42.0467 38.6626 41.8579 38.5425 41.6499 38.4647C41.4419 38.387 41.2195 38.3533 40.9973 38.3659C40.7752 38.3533 40.5528 38.387 40.3448 38.4647C40.1368 38.5425 39.9479 38.6626 39.7906 38.8171C39.6332 38.9716 39.5109 39.157 39.4317 39.3612C39.3525 39.5655 39.3182 39.7838 39.331 40.0019V43.2741H35.9984C35.5564 43.2741 35.1326 43.4465 34.8201 43.7533C34.5076 44.0602 34.332 44.4763 34.332 44.9102C34.332 45.3441 34.5076 45.7603 34.8201 46.0671C35.1326 46.3739 35.5564 46.5463 35.9984 46.5463H39.331V49.8185C39.3182 50.0366 39.3525 50.255 39.4317 50.4592C39.5109 50.6634 39.6332 50.8488 39.7906 51.0034C39.9479 51.1579 40.1368 51.278 40.3448 51.3557Z" fill="#FF9066" fill-opacity="0.4"/>
</svg>
