<svg width="32" height="32" viewBox="0 0 32 32" fill="none" xmlns="http://www.w3.org/2000/svg">
<path d="M21.9666 7.21056L24.7906 10.0332L21.9666 7.21056ZM23.7826 4.72389L16.1466 12.3599C15.7521 12.7539 15.483 13.2559 15.3733 13.8026L14.668 17.3332L18.1986 16.6266C18.7453 16.5172 19.2466 16.2492 19.6413 15.8546L27.2773 8.21856C27.5068 7.9891 27.6888 7.71668 27.813 7.41687C27.9372 7.11707 28.0011 6.79573 28.0011 6.47122C28.0011 6.14671 27.9372 5.82538 27.813 5.52557C27.6888 5.22577 27.5068 4.95335 27.2773 4.72389C27.0478 4.49443 26.7754 4.31241 26.4756 4.18822C26.1758 4.06404 25.8545 4.00012 25.53 4.00012C25.2055 4.00012 24.8841 4.06404 24.5843 4.18822C24.2845 4.31241 24.0121 4.49443 23.7826 4.72389V4.72389Z" stroke="#9E06FF" stroke-width="2" stroke-linecap="round" stroke-linejoin="round"/>
<path d="M25.334 20V24C25.334 24.7072 25.053 25.3855 24.5529 25.8856C24.0528 26.3857 23.3746 26.6666 22.6673 26.6666H8.00065C7.29341 26.6666 6.61513 26.3857 6.11503 25.8856C5.61494 25.3855 5.33398 24.7072 5.33398 24V9.33329C5.33398 8.62605 5.61494 7.94777 6.11503 7.44767C6.61513 6.94758 7.29341 6.66663 8.00065 6.66663H12.0007" stroke="#9E06FF" stroke-width="2" stroke-linecap="round" stroke-linejoin="round"/>
</svg>
