<svg width="22" height="22" viewBox="0 0 22 22" fill="none" xmlns="http://www.w3.org/2000/svg">
<path d="M15.6764 3.83277L18.1682 6.32338L15.6764 3.83277ZM17.2788 1.63863L10.541 8.37634C10.1929 8.72399 9.95548 9.16692 9.85869 9.6493L9.23633 12.7646L12.3517 12.1411C12.834 12.0446 13.2764 11.8081 13.6246 11.4599L20.3623 4.72219C20.5648 4.51972 20.7254 4.27935 20.835 4.01481C20.9446 3.75027 21.0009 3.46674 21.0009 3.18041C21.0009 2.89407 20.9446 2.61054 20.835 2.346C20.7254 2.08146 20.5648 1.8411 20.3623 1.63863C20.1599 1.43616 19.9195 1.27555 19.6549 1.16597C19.3904 1.0564 19.1069 1 18.8205 1C18.5342 1 18.2507 1.0564 17.9861 1.16597C17.7216 1.27555 17.4812 1.43616 17.2788 1.63863V1.63863Z" stroke="#1D2434" stroke-width="2" stroke-linecap="round" stroke-linejoin="round"/>
<path d="M18.6472 15.1176V18.6471C18.6472 19.2711 18.3993 19.8696 17.9581 20.3109C17.5168 20.7521 16.9183 21 16.2943 21H3.35297C2.72892 21 2.13043 20.7521 1.68917 20.3109C1.2479 19.8696 1 19.2711 1 18.6471V5.70575C1 5.0817 1.2479 4.48322 1.68917 4.04195C2.13043 3.60068 2.72892 3.35278 3.35297 3.35278H6.88241" stroke="#1D2434" stroke-width="2" stroke-linecap="round" stroke-linejoin="round"/>
</svg>
