<svg width="16" height="23" viewBox="0 0 16 23" fill="none" xmlns="http://www.w3.org/2000/svg">
<path d="M7.99924 2.33531e-06C6.94854 -0.000800799 5.90799 0.205558 4.93711 0.607272C3.96624 1.00899 3.08409 1.59818 2.34113 2.34113C1.59818 3.08409 1.00899 3.96624 0.607272 4.93711C0.205557 5.90799 -0.0008008 6.94854 2.33532e-06 7.99924C2.33532e-06 13.9983 7.99924 22.8556 7.99924 22.8556C7.99924 22.8556 15.9985 13.9998 15.9985 7.99924C15.9993 6.94854 15.7929 5.90799 15.3912 4.93711C14.9895 3.96624 14.4003 3.08409 13.6573 2.34113C12.9144 1.59818 12.0322 1.00899 11.0614 0.607272C10.0905 0.205558 9.04994 -0.000800799 7.99924 2.33531e-06ZM7.99924 10.856C7.43423 10.856 6.8819 10.6885 6.41211 10.3745C5.94232 10.0606 5.57616 9.61448 5.35994 9.09247C5.14371 8.57047 5.08714 7.99607 5.19737 7.44191C5.3076 6.88775 5.57968 6.37873 5.9792 5.9792C6.37873 5.57968 6.88776 5.3076 7.44191 5.19737C7.99607 5.08714 8.57047 5.14371 9.09247 5.35994C9.61448 5.57616 10.0606 5.94232 10.3745 6.41211C10.6885 6.8819 10.856 7.43423 10.856 7.99924C10.8556 8.75677 10.5545 9.48317 10.0188 10.0188C9.48317 10.5545 8.75678 10.8556 7.99924 10.856Z" fill="#1D2434" fill-opacity="0.5"/>
</svg>
